<svg viewBox="0 0 22 22" width="22" xmlns="http://www.w3.org/2000/svg" xmlns:xlink="http://www.w3.org/1999/xlink" height="22">
 <g stroke="#777">
  <path stroke-width=".5" fill="#fff" d="m25.931 35.186c0 6.907-5.487 12.508-12.253 12.508-6.7659 0-12.253-5.601-12.253-12.508-0.0001-6.906 5.4871-12.507 12.253-12.507 6.766 0 12.253 5.601 12.253 12.507z" transform="matrix(.73324 0 0 .71833 .97084 -14.276)"/>
  <path stroke-width=".948" fill="#bebebe" d="m2.3263 33.438c1.8208 16.678 17.5 19.045 29.005 5.249l5.335 6.02 0.02-18.853-16.26-0.192 5.226 5.944c-9.527 14.846-21.18 10.669-23.326 1.832z" transform="matrix(.39688 0 0 .36468 2.9205 -1.6162)"/>
 </g>
</svg>
