<svg viewBox="0 0 22 22" width="22" xmlns="http://www.w3.org/2000/svg" xmlns:xlink="http://www.w3.org/1999/xlink" height="22">
 <path d="m43.602 24c0 10.824-8.778 19.602-19.602 19.602s-19.602-8.778-19.602-19.602c-0.0003-10.824 8.778-19.602 19.602-19.602 10.824-0.0003 19.602 8.778 19.602 19.602z" transform="scale(.45833)" stroke="#777" stroke-width=".792" fill="#fff"/>
 <path d="m10.461 16.977c-0.297-0.321-1.0352-0.942-1.6446-1.383-1.8008-1.309-2.043-1.5-2.7734-2.149-1.3477-1.195-1.918-2.394-1.918-4.0231 0-0.7969 0.0586-1.1016 0.2891-1.5703 0.3906-0.793 0.9687-1.3868 1.707-1.7461 0.5234-0.2578 0.7812-0.3711 1.6523-0.375 0.9141-0.0039 1.1055 0.0976 1.6407 0.3828 0.6559 0.3437 1.3279 1.0859 1.4689 1.6094l0.086 0.3242 0.211-0.4453c1.195-2.5274 5.019-2.4883 6.347 0.0625 0.422 0.8086 0.469 2.5389 0.094 3.5119-0.488 1.269-1.402 2.234-3.523 3.719-1.391 0.972-2.961 2.445-3.071 2.652-0.129 0.238-0.007 0.039-0.566-0.57z" fill="#dc322f"/>
</svg>
