<svg viewBox="0 0 22 22" width="22" xmlns="http://www.w3.org/2000/svg" xmlns:xlink="http://www.w3.org/1999/xlink" height="22">
 <g stroke="#777">
  <path stroke-width=".5" fill="#fff" d="m25.931 35.186c0 6.907-5.487 12.508-12.253 12.508-6.7659 0-12.253-5.601-12.253-12.508-0.0001-6.906 5.4871-12.507 12.253-12.507 6.766 0 12.253 5.601 12.253 12.507z" transform="matrix(.73324 0 0 .71833 .97084 -14.276)"/>
  <path fill="#bebebe" d="m21.503 12.503c-1.662 0-3 1.278-3 2.872v5.753c-1.662 0-4.006 1.278-4.006 2.872v8.625c0 1.594 2.344 2.872 4.006 2.872h12c1.662 0 3-1.278 3-2.872v-8.625c0-1.594-1.338-2.872-3-2.872v-5.753c0-1.594-1.338-2.872-3-2.872zm1.5 2.872h3c0.827 0 1.5 0.639 1.5 1.44v4.313h-6v-4.313c0-0.801 0.665-1.44 1.5-1.44z" transform="scale(.45833)"/>
 </g>
</svg>
