<svg viewBox="0 0 22 22" width="22" xmlns="http://www.w3.org/2000/svg" xmlns:xlink="http://www.w3.org/1999/xlink" height="22">
 <path fill="#427fec" d="m11 2.0625c4.938 0 8.938 4 8.938 8.9375 0 4.938-4 8.938-8.938 8.938-4.9375 0-8.9375-4-8.9375-8.938 0-4.9375 4-8.9375 8.9375-8.9375z" fill-rule="evenodd"/>
 <path d="m2.5742 11.242l0.0938-0.461 1.039 0.422 0.7188 0.649 0.6133 0.086c-0.2188 0.484-0.6641 1.265-0.5821 1.804 0.0469 0.313 0.375 0.762 0.5664 1.016 0.2618 0.359 0.7618 0.57 0.8946 1.019l0.0195 0.739 0.1445 0.554c-0.0273 0.239-0.2539 0.645-0.1054 0.864 0.164 0.238 0.7734 0.543 1.0546 0.617 0.2696 0.07 0.2969-0.203 0.1915-0.367l0.3515-0.473 0.4453-0.32 0.3125-1.055 0.6719-0.426c0.2773-0.402 0.0781-0.738 0.1797-1.152l0.457-1.246c-0.5156-0.188-1.25-0.418-1.6133-0.832l-0.0937 0.043-0.0977-0.414-0.5664-0.278-0.0976 0.09-0.1407-0.644-0.7578-0.059-0.5703-0.305c-0.2461-0.035-0.5703 0.36-0.664 0.547l-0.3321-0.047 0.0977-0.09-0.2852-0.187 0.0469 0.187c-0.207-0.207-0.2383-0.468-0.1914-0.742l-0.332-0.136-0.0469 0.136c-0.0586-0.23-0.0352-0.523 0.1445-0.695-0.2617-0.1719-0.4375-0.008-0.6172 0.187l-0.3789-0.7418c-0.1054 0.2266-0.0664 0.4532-0.0468 0.6958h-0.0977c-0.0195-0.2582-0.0859-0.5434 0.0508-0.7856 0.25-0.457 1.0039-0.6484 1.4687-0.5547l-0.0468 0.0899 0.4257 0.3711c0-0.7071 0.2852-0.7813 0.6875-1.2969l0.2813-0.4961c0.3086-0.3359 0.793-0.5625 1.2109-0.7109l0.5235-0.3165c-0.1719-0.2851-0.6172-0.2031-0.9024-0.1875 0.5156-0.2851 1.2149-0.1289 1.5664-0.6445-0.3867-0.2734-0.3867-0.9844-0.9961-0.6953l0.0938-0.2773-0.5235-0.2305-0.3789 0.7734-0.5195 0.6133-0.0469-0.3242c-0.2031-0.0899-0.7539-0.25-0.7656-0.5078-0.0117-0.2813 0.8789-0.7071 1.0977-0.8789l-0.0977 0.2304 0.3672-0.0351c0.0781-0.0469 0.8203-1.0625 0.9141-0.4258 0.5156 0.1875 0.5742 0.4063 1.0898 0.0898l-0.332-0.1367c-0.0508-0.457-0.4649-0.4648-0.8516-0.4648l1.2305-0.5547c0.1406 0.3281 0.5703 0.3984 0.707 0.6992 0.1016 0.2149-0.1914 0.3438-0.1875 0.5508 0.0117 0.2539 0.2656 0.5664 0.3828 0.7851l0.7148-0.7578c0.391-0.207 1.024-0.2265 1.34-0.5586 0.363-0.3828 0.16-0.9921 0.836-0.996-0.137-0.0547-0.356-0.0977-0.473 0l-0.14-0.1368h0.187c-0.098-0.1328-0.164-0.207-0.332-0.2304-0.187-0.2305-0.629-0.125-0.898-0.1485-0.9496-0.0859-1.9731 0.211-2.8481 0.5-2.9843 0.9961-5.6562 4.1992-5.7734 7.3711-0.0117 0.3598 0.3008 0.5198 0.457 0.7968l0.0547 0.496m12.567-7.7693c-0.168 0.1328-0.453 0.1992-0.664 0.2304l-0.387 0.5235-0.453 0.3672c-0.075 0.1679 0.043 0.4218 0.078 0.5898l0.476-0.2305c0.067 0.2305 0.254 0.2891 0.426 0.418 0.281-0.5234 0.039-1.0195 0.711-1.2969l-0.426 0.5078 0.141-0.0898 0.051 0.2773 0.047-0.3711c0.125 0.418-0.008 0.9922-0.477 1.1485l-0.473-0.0391v-0.2773c-0.269 0.0547-0.261 0.1875-0.191 0.4179-0.184-0.0507-0.289-0.0429-0.426 0.0899-0.144-0.1445-0.262-0.2539-0.285-0.461-0.09-0.0898-0.133-0.1484-0.141-0.2773l-0.332-0.0469 0.141 0.7422c-0.125-0.2344-0.258-0.2891-0.519-0.2344l0.14 0.5547 0.192-0.0429-0.145-0.0469 0.191-0.3242 0.094 0.5078 0.426-0.0938c-0.117 0.1133-0.211 0.1406-0.379 0.1406l0.047 0.1407h-0.234l0.332 0.5547c-0.778 0.0039-0.79 0.3906-0.758 1.0156 0.148 0.0117 0.222 0.0312 0.328 0.1406 0.629-0.3242 0.773-0.9219 1.519-1.1133 0.121 0.3672 0.493 0.3477 0.379 0.7891 0.368-0.0742 0.469-0.375 0.239-0.6484 0.312 0.1796 0.402 0.5546 0.613 0.832 0.152-0.1914 0.094-0.4141 0.332-0.5547v0.1406c0.402 0.3477 0.68 0.4258 1.187 0.5977-0.175 0.2422-0.382 0.4804-0.711 0.4609-0.402-0.0234-0.91-0.4101-1.187 0.0508l-0.762-0.5898c-0.422-0.1758-0.84-0.0118-1.277-0.0586l-0.188 0.0937 0.094 0.043c-0.867 0.3828-1.348 1.3867-1.441 2.2222l-0.164 0.555c0.093 0.543 0.562 1.102 0.957 1.473 0.277 0.258 0.48-0.25 0.742 0.008 0.351-0.129 0.883-0.356 1.203 0.007 0.211 0.235-0.008 0.43 0.063 0.684 0.128 0.441 0.429 0.957 0.429 1.438l-0.117 1.156c0.102 0.703 0.504 1.297 0.512 2.035 0.578-0.059 1.234-0.344 1.554-0.836l0.141-0.41 0.238-0.285-0.089-0.457c0.136-0.317 0.683-0.352 0.765-0.696 0.113-0.472-0.18-1.035-0.004-1.527 0.27-0.758 1.024-1.316 1.043-2.176l-0.57 0.047c0.516-0.609 1.598-0.918 1.047-1.8476l-0.239 0.2774h-0.093c-0.184-0.375-0.477-0.4141-0.477-0.879 0.445 0.3711 0.906 0.3829 1.328 0.8321 0.461-0.2422-0.004-1.3008-0.125-1.6641-0.41-1.2187-1.086-2.3711-2.008-3.2851-0.332-0.3282-0.593-0.7227-1.089-0.7852l0.046-0.1406c-0.386-0.0508-1.031-0.0508-1.328-0.3242z" fill="#fff"/>
 <path fill="none" d="m8 2c3.315 0 6 2.6847 6 6 0 3.315-2.685 6-6 6-3.3153 0-6-2.685-6-6 0-3.3153 2.6847-6 6-6z" stroke="#427fec" transform="scale(1.375)"/>
</svg>
