<svg viewBox="0 0 22 22" width="22" xmlns="http://www.w3.org/2000/svg" xmlns:xlink="http://www.w3.org/1999/xlink" height="22">
 <g stroke="#777">
  <path stroke-width=".792" fill="#fff" d="m43.602 24c0 10.824-8.778 19.602-19.602 19.602s-19.602-8.778-19.602-19.602c-0.0003-10.824 8.778-19.602 19.602-19.602 10.824-0.0003 19.602 8.778 19.602 19.602z" transform="scale(.45833)"/>
  <g fill="#b2b2b2">
   <path d="m17.427 10.501l-4.928 6.57h9.855v-6.57z" transform="matrix(.45817 0 0 .46617 .0039 .37808)"/>
   <path d="m25.645 10.501v6.57h9.856l-4.928-6.57z" transform="matrix(.45817 0 0 .46617 .0039 .37808)"/>
   <path d="m12.499 20.717v14.782h23.002v-14.782z" transform="matrix(.45817 0 0 .46617 .0039 .1783)"/>
  </g>
 </g>
</svg>
