<svg viewBox="0 0 22 22" width="22" xmlns="http://www.w3.org/2000/svg" xmlns:xlink="http://www.w3.org/1999/xlink" height="22">
 <path d="m25.931 35.186c0 6.907-5.487 12.508-12.253 12.508-6.7659 0-12.253-5.601-12.253-12.508-0.0001-6.906 5.4871-12.507 12.253-12.507 6.766 0 12.253 5.601 12.253 12.507z" transform="matrix(.73324 0 0 .71833 .97084 -14.276)" stroke="#777" stroke-width=".5" fill="#fff"/>
 <path d="m11.828 5.625c-0.801 0.1992-1.476 0.9336-1.476 0.9336l0.023 0.0234 1.281 4.77c-0.918-0.5-2.2263-0.375-3.3122 0.41-1.3985 1.011-1.8868 2.738-1.0743 3.851 0.8086 1.11 2.5977 1.188 4.0005 0.176 1.105-0.797 1.718-2.055 1.496-3.09-0.004-0.031-0.016-0.062-0.024-0.094l-1.23-4.7652c0.027-0.0429 0.386-0.207 1.55-0.2851 1.231-0.082 2.063-2.0547 2.063-2.0547s-1.383 0.5312-2.473 0.1445c-0.273-0.0937-0.558-0.0898-0.828-0.0234z" fill="#dc322f"/>
</svg>
