<svg viewBox="0 0 22 22" width="22" xmlns="http://www.w3.org/2000/svg" xmlns:xlink="http://www.w3.org/1999/xlink" height="22">
 <path d="m25.931 35.186c0 6.907-5.487 12.508-12.253 12.508-6.7659 0-12.253-5.601-12.253-12.508-0.0001-6.906 5.4871-12.507 12.253-12.507 6.766 0 12.253 5.601 12.253 12.507z" transform="matrix(.73324 0 0 .71833 .97084 -14.276)" stroke="#777" stroke-width=".5" fill="#fff"/>
 <path d="m9.8555 4.125c-0.3828 0-0.6875 0.3047-0.6875 0.6875v6.8755c0 0.382 0.3047 0.687 0.6875 0.687h2.2895c0.382 0 0.687-0.305 0.687-0.687v-6.8755c0-0.3828-0.324-0.5664-0.687-0.6875zm0 10.082c-0.3828 0-0.6875 0.309-0.6875 0.688v2.293c0 0.382 0.3242 0.566 0.6875 0.687h2.2895c0.382 0 0.687-0.305 0.687-0.687v-2.293c0-0.379-0.305-0.688-0.687-0.688z" fill="#f2000b"/>
</svg>
