<svg viewBox="0 0 22 22" width="22" xmlns="http://www.w3.org/2000/svg" xmlns:xlink="http://www.w3.org/1999/xlink" height="22">
 <path d="m25.931 35.186c0 6.907-5.487 12.508-12.253 12.508-6.7659 0-12.253-5.601-12.253-12.508-0.0001-6.906 5.4871-12.507 12.253-12.507 6.766 0 12.253 5.601 12.253 12.507z" transform="matrix(.73324 0 0 .71833 .97084 -14.276)" stroke="#777" stroke-width=".5" fill="#fff"/>
 <path fill="#427fec" d="m6.2148 5.5c-0.3867 0.0391-0.7226 0.4453-0.7148 0.8828v9.2582c0.0039 0.457 0.3711 0.867 0.7773 0.859h9.4647c0.403-0.008 0.754-0.41 0.758-0.859v-9.2582c0.004-0.457-0.352-0.8789-0.758-0.8828zm0.6524 1.375h8.2578v6.875h-8.2578z" fill-opacity=".941"/>
</svg>
