<svg viewBox="0 0 22 22" width="22" xmlns="http://www.w3.org/2000/svg" xmlns:xlink="http://www.w3.org/1999/xlink" height="22">
 <path d="m25.931 35.186c0 6.907-5.487 12.508-12.253 12.508-6.7659 0-12.253-5.601-12.253-12.508-0.0001-6.906 5.4871-12.507 12.253-12.507 6.766 0 12.253 5.601 12.253 12.507z" transform="matrix(.73324 0 0 .71833 .97084 -14.276)" stroke="#777" stroke-width=".5" fill="#fff"/>
 <g fill="#427fec">
  <path d="m8.1445 8.9727c-0.7734 0-1.3945 0.6132-1.3945 1.3753 0 0.082 0.0078 0.199 0.0117 0.297-0.1328 0.058-0.1406 0.332-0.0273 0.609 0.0429 0.109 0.1015 0.195 0.164 0.266 0.0157 0.078 0.0118 0.113 0.0274 0.203 0.0547 0.164 0.2578 0.484 0.4453 0.75 0.0195 0.203 0.0391 0.41 0 0.64-0.543 0.477-1.9492 0.68-1.9453 1.172l-0.0313 0.188h5.5005l-0.028-0.188c-0.004-0.422-1.41-0.68-1.949-1.172-0.0196-0.187-0.0235-0.379-0.0157-0.562 0.1758-0.281 0.4063-0.645 0.461-0.828 0.0234-0.094 0.0312-0.157 0.0469-0.235 0.0507-0.066 0.0937-0.14 0.1328-0.234 0.1054-0.266 0.1015-0.52-0.0157-0.594 0.0079-0.105 0.0118-0.219 0.0157-0.312 0-0.7621-0.6211-1.3753-1.3985-1.3753z" fill-opacity=".6"/>
  <path d="m12.48 6.875c-1.164 0-2.097 0.9219-2.097 2.0625 0.004 0.1211 0.012 0.2969 0.023 0.4453-0.199 0.0899-0.215 0.4961-0.047 0.9142 0.071 0.164 0.153 0.293 0.246 0.398 0.024 0.117 0.016 0.172 0.047 0.305 0.078 0.246 0.383 0.727 0.668 1.125 0.028 0.305 0.055 0.613 0 0.961-0.816 0.715-2.9255 1.019-2.9216 1.758l-0.0429 0.281h8.2495l-0.046-0.281c-0.004-0.633-2.114-1.02-2.918-1.758-0.036-0.281-0.039-0.566-0.024-0.844 0.258-0.418 0.606-0.969 0.692-1.242 0.031-0.137 0.043-0.23 0.066-0.352 0.078-0.097 0.145-0.21 0.199-0.351 0.16-0.3986 0.153-0.7775-0.019-0.8908 0.007-0.1601 0.015-0.332 0.019-0.4687 0-1.1406-0.929-2.0625-2.094-2.0625z"/>
 </g>
</svg>
