<svg viewBox="0 0 22 22" width="22" xmlns="http://www.w3.org/2000/svg" xmlns:xlink="http://www.w3.org/1999/xlink" height="22">
 <path d="m43.602 24c0 5.131-2.113 10.236-5.744 13.858-3.622 3.631-8.727 5.744-13.858 5.744s-10.236-2.113-13.858-5.744c-3.6306-3.622-5.7443-8.727-5.7443-13.858s2.1137-10.236 5.7363-13.866c3.63-3.6312 8.735-5.7363 13.866-5.7363s10.236 2.1051 13.866 5.7363c3.623 3.63 5.736 8.735 5.736 13.866z" transform="scale(.45833)" stroke="#777" stroke-width=".792" fill="#fff"/>
 <g fill-opacity=".941" fill="#53a93e">
  <path d="m11.062 16.953c0.305-0.019 0.598-0.148 0.813-0.355l3.773-3.907c0.239-0.226 0.383-0.543 0.391-0.871 0.023-0.508-0.305-1.011-0.785-1.211-0.484-0.199-1.086-0.078-1.445 0.293l-2.805 2.782-2.9454-2.907c-0.4922-0.394-1.293-0.351-1.7422 0.09-0.4492 0.445-0.4805 1.223-0.0703 1.699l3.7929 4.032c0.266 0.254 0.652 0.386 1.023 0.355z"/>
  <path d="m11.113 10.859c0.625-0.035 1.153-0.429 1.129-0.847v-4.1448c0-0.4336-0.594-0.8242-1.242-0.8242s-1.2422 0.3906-1.2422 0.8242v4.1448c-0.0234 0.441 0.5782 0.851 1.2422 0.847 0.039 0.004 0.074 0.004 0.113 0z"/>
 </g>
</svg>
