<svg viewBox="0 0 22 22" width="22" xmlns="http://www.w3.org/2000/svg" xmlns:xlink="http://www.w3.org/1999/xlink" height="22">
 <path d="m43.602 24c0 10.824-8.778 19.602-19.602 19.602s-19.602-8.778-19.602-19.602c-0.0003-10.824 8.778-19.602 19.602-19.602 10.824-0.0003 19.602 8.778 19.602 19.602z" transform="scale(.45833)" stroke="#777" stroke-width=".792" fill="#fff"/>
 <path fill="#427fec" d="m11 5.5c-1.5508 0-2.793 1.2266-2.793 2.75 0 0.1602 0.0118 0.3945 0.0274 0.5938-0.2656 0.1171-0.2852 0.6601-0.0586 1.2182 0.0898 0.223 0.2031 0.391 0.3281 0.532 0.0273 0.156 0.0195 0.226 0.0586 0.406 0.1055 0.328 0.5117 0.969 0.8906 1.5 0.0391 0.406 0.0781 0.816 0 1.281-1.0898 0.949-3.8984 1.36-3.8945 2.344l-0.0586 0.375h11l-0.059-0.375c-0.003-0.844-2.82-1.359-3.894-2.344-0.043-0.375-0.055-0.754-0.031-1.125 0.343-0.558 0.804-1.293 0.922-1.656 0.042-0.184 0.058-0.309 0.089-0.469 0.102-0.133 0.192-0.281 0.266-0.469 0.215-0.5308 0.203-1.0347-0.027-1.187 0.011-0.2148 0.023-0.4414 0.027-0.625 0-1.5234-1.242-2.75-2.793-2.75z" fill-rule="evenodd"/>
</svg>
