<svg viewBox="0 0 22 22" width="22" xmlns="http://www.w3.org/2000/svg" xmlns:xlink="http://www.w3.org/1999/xlink" height="22">
 <path d="m43.602 24c0 10.824-8.778 19.602-19.602 19.602s-19.602-8.778-19.602-19.602c-0.0003-10.824 8.778-19.602 19.602-19.602 10.824-0.0003 19.602 8.778 19.602 19.602z" transform="scale(.45833)" stroke="#777" stroke-width=".792" fill="#fff"/>
 <path fill-rule="evenodd" fill="#53a93e" d="m12.438 16.5c-0.489-0.012-0.981-0.16-1.379-0.461-1.2817-0.961-0.286-1.961-1.4067-2.801-1.1171-0.84-2.1093 0.164-3.3945-0.797v-0.003c-0.2851-0.211-0.4922-0.477-0.6172-0.762v-0.008c-0.0273-0.059-0.0468-0.117-0.0664-0.176-0.0078-0.027-0.0156-0.054-0.0234-0.082v-0.008c-0.0156-0.054-0.0235-0.113-0.0352-0.168 0-0.004 0.0039-0.004 0-0.004v-0.007c-0.0039-0.028-0.0078-0.055-0.0078-0.082-0.0039-0.02-0.0039-0.039-0.0039-0.059-0.0039-0.012-0.0039-0.02-0.0039-0.031v-0.012-0.078c0-0.016 0-0.027 0.0039-0.043 0-0.02 0-0.039 0.0039-0.059 0.0039-0.031 0.0039-0.062 0.0078-0.089 0.0039 0 0 0 0-0.004 0.0117-0.055 0.0196-0.114 0.0352-0.168v-0.008c0.0078-0.028 0.0156-0.055 0.0234-0.082 0.0196-0.059 0.0391-0.117 0.0664-0.176v-0.008c0.125-0.285 0.3321-0.5506 0.6172-0.7615v-0.0039c1.2852-0.9609 2.2774 0.043 3.3945-0.7969 1.1207-0.8398 0.125-1.8398 1.4067-2.8008 0.914-0.6836 2.293-0.5937 3.078 0.1993 0.785 0.7929 0.687 1.9882-0.227 2.6718-1.285 0.9649-2.277-0.0429-3.394 0.7969-0.5668 0.4261-0.5941 0.8911-0.6449 1.3711 0.0508 0.48 0.0781 0.945 0.6449 1.371 1.117 0.84 2.109-0.164 3.394 0.797 0.914 0.684 1.012 1.879 0.227 2.672-0.442 0.449-1.071 0.672-1.699 0.66z" fill-opacity=".941"/>
</svg>
