<svg viewBox="0 0 22 22" width="22" xmlns="http://www.w3.org/2000/svg" xmlns:xlink="http://www.w3.org/1999/xlink" height="22">
 <path d="m43.602 24c0 10.824-8.778 19.602-19.602 19.602s-19.602-8.778-19.602-19.602c-0.0003-10.824 8.778-19.602 19.602-19.602 10.824-0.0003 19.602 8.778 19.602 19.602z" transform="scale(.45833)" stroke="#777" stroke-width=".792" fill="#fff"/>
 <path fill="#53a93e" d="m11.859 16.336v1.539h-1.718v-1.512c-1.0004-0.113-1.7894-0.449-2.3598-1.015-0.5742-0.575-0.875-1.328-0.9062-2.258l2.7773 0.012c0.0079 0.339 0.1407 0.609 0.3987 0.804 0.254 0.199 0.57 0.297 0.949 0.297 0.328 0 0.613-0.074 0.859-0.223 0.286-0.16 0.43-0.382 0.43-0.664 0-0.414-0.461-0.777-1.383-1.089-1.3669-0.461-2.2224-0.797-2.5583-1.016-0.9219-0.563-1.3789-1.3672-1.3789-2.4141 0-0.8555 0.3007-1.5742 0.9023-2.1602 0.582-0.5547 1.3398-0.8867 2.2699-1v-1.5117h1.718v1.5117c1.993 0.3281 3 1.4141 3.02 3.2617h-2.715c0-0.3593-0.109-0.6523-0.336-0.8789-0.226-0.2343-0.531-0.3515-0.922-0.3515-0.304 0-0.57 0.082-0.797 0.2422-0.2535 0.1679-0.3824 0.3945-0.3824 0.6757 0 0.3594 0.4644 0.7032 1.3944 1.0313 1.359 0.4608 2.231 0.8128 2.609 1.0588 0.93 0.574 1.395 1.363 1.395 2.371 0 0.894-0.309 1.637-0.922 2.23-0.582 0.555-1.363 0.911-2.344 1.059" fill-opacity=".941"/>
</svg>
