<svg viewBox="0 0 22 22" width="22" xmlns="http://www.w3.org/2000/svg" xmlns:xlink="http://www.w3.org/1999/xlink" height="22">
 <g stroke="#777">
  <path stroke-width=".5" fill="#fff" d="m25.931 35.186c0 6.907-5.487 12.508-12.253 12.508-6.7659 0-12.253-5.601-12.253-12.508-0.0001-6.906 5.4871-12.507 12.253-12.507 6.766 0 12.253 5.601 12.253 12.507z" transform="matrix(.73324 0 0 .71833 .97084 -14.276)"/>
  <g fill="#bebebe">
   <path d="m32.508 31.07c0 2.701-2.881 4.9-6.444 4.9-3.562 0-6.451-2.199-6.451-4.9 0-2.711 2.889-4.909 6.451-4.909 3.563 0 6.444 2.198 6.444 4.909z" transform="matrix(.45833 0 0 .45833 -.00475 .24412)"/>
   <g fill-rule="evenodd">
    <path d="m21.368 14.894c0 2.164-1.312 3.92-2.923 3.92-1.619 0-2.932-1.756-2.932-3.92 0-2.174 1.313-3.929 2.932-3.929s2.932 1.755 2.923 3.929z" transform="matrix(.45833 0 0 .45833 -.00475 .24412)"/>
    <path d="m31.928 14.894c-0.009 2.164-1.313 3.92-2.932 3.92s-2.932-1.756-2.932-3.92c0-2.174 1.313-3.929 2.932-3.929s2.932 1.755 2.932 3.929z" transform="matrix(.45833 0 0 .45833 -.00475 .24412)"/>
   </g>
  </g>
 </g>
</svg>
