<svg viewBox="0 0 22 22" width="22" xmlns="http://www.w3.org/2000/svg" xmlns:xlink="http://www.w3.org/1999/xlink" height="22">
 <path d="m25.931 35.186c0 6.907-5.487 12.508-12.253 12.508-6.7659 0-12.253-5.601-12.253-12.508-0.0001-6.906 5.4871-12.507 12.253-12.507 6.766 0 12.253 5.601 12.253 12.507z" transform="matrix(.73324 0 0 .71833 .97084 -14.276)" stroke="#777" stroke-width=".5" fill="#fff"/>
 <path d="m11 5.043c-3.2891 0-5.957 2.6679-5.957 5.957 0 3.289 2.6679 5.957 5.957 5.957 3.289 0 5.957-2.668 5.957-5.957 0-3.2891-2.668-5.957-5.957-5.957zm0 1.4882c2.469 0 4.469 2 4.469 4.4688 0 2.469-2 4.469-4.469 4.469-2.4688 0-4.4688-2-4.4688-4.469 0-2.4688 2-4.4688 4.4688-4.4688zm-0.047 0.7461c-0.383 0-0.699 0.3125-0.699 0.6954v3.0743c0 0.383 0.316 0.699 0.699 0.699h0.047 2.605c0.415 0 0.747-0.332 0.747-0.746s-0.332-0.746-0.747-0.746h-1.859v-2.2813c0-0.3829-0.316-0.6954-0.699-0.6954z" fill="#dc322f"/>
</svg>
