<svg viewBox="0 0 22 22" width="22" xmlns="http://www.w3.org/2000/svg" xmlns:xlink="http://www.w3.org/1999/xlink" height="22">
 <path d="m43.602 24c0 10.824-8.778 19.602-19.602 19.602s-19.602-8.778-19.602-19.602c-0.0003-10.824 8.778-19.602 19.602-19.602 10.824-0.0003 19.602 8.778 19.602 19.602z" transform="scale(.45833)" stroke="#777" stroke-width=".792" fill="#fff"/>
 <path d="m11 5.5c-0.68 0-1.2305 0.4922-1.2305 1.1016v2.4726l-2.4179-1.2383c-0.5899-0.3047-1.3477-0.1132-1.6875 0.4141-0.3399 0.5273-0.1289 1.207 0.4609 1.5117l2.3789 1.2383-2.3789 1.238c-0.5898 0.305-0.8008 0.985-0.4609 1.512 0.3398 0.527 1.0976 0.719 1.6875 0.414l2.4179-1.238v2.472c0 0.61 0.5505 1.102 1.2305 1.102s1.23-0.492 1.23-1.102v-2.472l2.418 1.238c0.59 0.305 1.348 0.113 1.688-0.414s0.129-1.207-0.461-1.512l-2.379-1.238 2.379-1.2383c0.59-0.3047 0.801-0.9844 0.461-1.5117s-1.098-0.7188-1.688-0.4141l-2.418 1.2383v-2.4726c0-0.6094-0.55-1.1016-1.23-1.1016z" fill="#dc322f"/>
</svg>
