<svg viewBox="0 0 22 22" width="22" xmlns="http://www.w3.org/2000/svg" xmlns:xlink="http://www.w3.org/1999/xlink" height="22">
 <path d="m25.931 35.186c0 6.907-5.487 12.508-12.253 12.508-6.7659 0-12.253-5.601-12.253-12.508-0.0001-6.906 5.4871-12.507 12.253-12.507 6.766 0 12.253 5.601 12.253 12.507z" transform="matrix(.73324 0 0 .71833 .97084 -14.276)" stroke="#777" stroke-width=".5" fill="#fff"/>
 <g fill="#dc322f">
  <path d="m10.797 7.3438c-4.0275 0.164-7.9415 1.9765-6.2814 5.6362 2.4258-0.839 5.8044 0.415 4.4024 1.036 2.766 2.097 9.59-1.289 8.91-4.1722-0.703-1.754-3.898-2.625-7.031-2.5z"/>
  <path d="m16.043 4.3711l-6.3907 10.145c-0.5-0.008-0.9648-0.235-1.3007-0.688l6.8474-9.9022c0.461-0.1016 0.742 0.0469 0.844 0.4453z"/>
  <path d="m8.3164 16.281c0.7148-0.093 1.8286-0.961 1.3086-2.215-1.2422-0.339-0.9609-0.507-0.9609-0.507-1.7071 0.386-3.0039 2.238-2.6446 3.414 0.2266 0.746 0.1875 0.672 0.1875 0.672 0.4727-1.442 0.4805-1.18 2.1094-1.364z"/>
 </g>
</svg>
