<svg viewBox="0 0 22 22" width="22" xmlns="http://www.w3.org/2000/svg" xmlns:xlink="http://www.w3.org/1999/xlink" height="22">
 <path d="m25.931 35.186c0 6.907-5.487 12.508-12.253 12.508-6.7659 0-12.253-5.601-12.253-12.508-0.0001-6.906 5.4871-12.507 12.253-12.507 6.766 0 12.253 5.601 12.253 12.507z" transform="matrix(.73324 0 0 .71833 .97084 -14.276)" stroke="#777" stroke-width=".5" fill="#fff"/>
 <path d="m8.5508 4.125v8.25c-0.5938-0.227-1.3633-0.266-2.1602-0.051-1.4883 0.395-2.4844 1.504-2.2226 2.473 0.2617 0.969 1.6797 1.437 3.1679 1.043 1.2657-0.336 2.1719-1.188 2.2539-2.031h0.0118v-6.0707l5.3864 0.6601v5.8746c-0.59-0.226-1.359-0.265-2.156-0.054-1.488 0.394-2.488 1.504-2.227 2.472 0.266 0.969 1.684 1.438 3.172 1.043 1.266-0.336 2.172-1.187 2.254-2.031h0.012v-10.601z" fill="#dc322f"/>
</svg>
