<svg viewBox="0 0 22 22" width="22" xmlns="http://www.w3.org/2000/svg" xmlns:xlink="http://www.w3.org/1999/xlink" height="22">
 <path d="m25.931 35.186c0 6.907-5.487 12.508-12.253 12.508-6.7659 0-12.253-5.601-12.253-12.508-0.0001-6.906 5.4871-12.507 12.253-12.507 6.766 0 12.253 5.601 12.253 12.507z" transform="matrix(.73324 0 0 .71833 .97084 -14.276)" stroke="#777" stroke-width=".5" fill="#fff"/>
 <g fill="#427fec">
  <path d="m5.2109 6.7812h11.578c0.348 0 0.629 0.3008 0.629 0.6758v7.82c0 0.371-0.281 0.672-0.629 0.672h-11.578c-0.3477 0-0.629-0.301-0.629-0.672v-7.82c0-0.375 0.2813-0.6758 0.6289-0.6758z"/>
  <path d="m6.2812 6.0508h1.8282c0.2578 0 0.4609 0.207 0.4609 0.4609 0 0.25-0.2031 0.4571-0.4609 0.4571h-1.8282c-0.2578 0-0.4609-0.2071-0.4609-0.4571 0-0.2539 0.2031-0.4609 0.4609-0.4609z"/>
 </g>
 <g fill="#fff">
  <path d="m15.309 7.8398h0.414c0.226 0 0.41 0.1993 0.41 0.4375v0.4415c0 0.2382-0.184 0.4335-0.41 0.4335h-0.414c-0.227 0-0.414-0.1953-0.414-0.4335v-0.4415c0-0.2382 0.187-0.4375 0.414-0.4375z"/>
  <path d="m13.453 11.555c0 1.57-1.199 2.84-2.683 2.84-1.4809 0-2.6802-1.27-2.6802-2.84 0-1.5667 1.1993-2.8362 2.6802-2.8362 1.484 0 2.683 1.2695 2.683 2.8362z"/>
 </g>
</svg>
