<svg viewBox="0 0 22 22" width="22" xmlns="http://www.w3.org/2000/svg" xmlns:xlink="http://www.w3.org/1999/xlink" height="22">
 <g stroke="#777">
  <path stroke-width=".5" fill="#fff" d="m25.931 35.186c0 6.907-5.487 12.508-12.253 12.508-6.7659 0-12.253-5.601-12.253-12.508-0.0001-6.906 5.4871-12.507 12.253-12.507 6.766 0 12.253 5.601 12.253 12.507z" transform="matrix(.73324 0 0 .71833 .97084 -14.276)"/>
  <path fill="#bebebe" d="m22.415 12.503c-0.452 0-0.818 0.375-0.818 0.835v1.619c-0.81 0.213-1.586 0.537-2.293 0.955l-1.151-1.159c-0.17-0.162-0.358-0.247-0.571-0.247s-0.426 0.076-0.588 0.23l-2.258 2.258c-0.316 0.324-0.307 0.827 0.017 1.159l1.159 1.151c-0.418 0.707-0.742 1.483-0.955 2.293h-1.619c-0.46 0-0.835 0.366-0.835 0.818v3.17c0 0.452 0.375 0.818 0.835 0.818h1.619c0.213 0.81 0.537 1.586 0.955 2.293l-1.159 1.151c-0.324 0.332-0.333 0.835-0.017 1.159l2.258 2.258c0.324 0.316 0.827 0.307 1.159-0.017l1.151-1.159c0.707 0.418 1.483 0.742 2.293 0.955v1.619c0 0.46 0.366 0.835 0.818 0.835h3.17c0.452 0 0.818-0.375 0.818-0.835v-1.619c0.81-0.213 1.586-0.537 2.293-0.955l1.151 1.159c0.332 0.324 0.835 0.333 1.159 0.017l2.258-2.258c0.316-0.324 0.307-0.827-0.017-1.159l-1.159-1.151c0.418-0.707 0.742-1.483 0.955-2.293h1.619c0.46 0 0.835-0.366 0.835-0.818v-3.17c0-0.452-0.375-0.818-0.835-0.818h-1.619c-0.213-0.81-0.537-1.586-0.955-2.293l1.159-1.151c0.324-0.332 0.333-0.835 0.017-1.159l-2.258-2.258c-0.324-0.316-0.827-0.307-1.159 0.017l-1.151 1.159c-0.707-0.418-1.483-0.742-2.293-0.955v-1.619c0-0.46-0.366-0.835-0.818-0.835zm1.585 8.02c1.918 0 3.477 1.559 3.477 3.477s-1.559 3.477-3.477 3.477-3.477-1.559-3.477-3.477 1.559-3.477 3.477-3.477z" transform="scale(.45833)"/>
 </g>
</svg>
