<svg viewBox="0 0 22 22" width="22" xmlns="http://www.w3.org/2000/svg" xmlns:xlink="http://www.w3.org/1999/xlink" height="22">
 <path d="m43.602 24c0 10.824-8.778 19.602-19.602 19.602s-19.602-8.778-19.602-19.602c-0.0003-10.824 8.778-19.602 19.602-19.602 10.824-0.0003 19.602 8.778 19.602 19.602z" transform="scale(.45833)" stroke="#777" stroke-width=".792" fill="#fff"/>
 <path fill="#53a93e" d="m15.289 4.5859c-0.144 0.0157-0.293 0.1055-0.41 0.2422l-2.617 2.8086c-0.114 0.1328-0.18 0.2969-0.18 0.4883 0 0.0586 0.016 0.1172 0.027 0.1719-0.242 0.3164-0.175 0.6679-0.175 1.7621 0 0.324-0.649 0.679-0.809 0.679h-0.016c-0.515 0-2.1988 0.098-2.7106 1.012-0.5156 0.914-2.4414 5.059-2.4414 5.668 0.7735 0 6.387-3.617 6.672-3.957 0.351-0.414 0.172-1.242-0.055-1.797 0.004-0.004 0-0.016 0-0.019 0.008-0.02 0.008-0.043-0.012-0.086-0.121-0.262-0.179-0.524-0.179-0.891 0-0.9219 0.07-1.3868 0.246-1.6211 0.016-0.0196 0.027-0.0469 0.043-0.0664 0.281 0.0507 0.672-0.1211 0.848-0.3321l2.316-2.6875c0.234-0.2734 0.289-0.6797 0.055-0.957l-0.192-0.2266c-0.117-0.1367-0.265-0.207-0.41-0.1914z" fill-opacity=".941"/>
</svg>
