<svg width="48" xmlns="http://www.w3.org/2000/svg" viewBox="0 0 48 48" height="48">
 <path d="m8 1c-1.0286 0-2 0.9714-2 2v42c0 0.97143 1.0286 2 2 2h32c0.97143 0 2-1.0286 2-2v-31l-13-13z" fill="#dc322f"/>
 <path d="m29 12 0.062 0.062 0.157-0.062h-0.219zm2 2 11 11v-11h-11z" fill-opacity=".196"/>
 <path fill="#fff" d="m29 1 13 13h-11c-0.97143 0-2-1.0286-2-2v-11z" fill-opacity=".392"/>
 <path d="m18.622 33.993v-11.09l-2.767 1.826-1.855-3.67 4.5163-2.9801 2.4273-0.05243c1.7046 1.0705 4.7067 0.90752 6.164 0l2.344-0.026 4.548 2.895-1.8492 3.6606-2.54-1.676v11.121z" fill="#fff"/>
</svg>
