<svg viewBox="0 0 48 48" width="48" xmlns="http://www.w3.org/2000/svg" xmlns:xlink="http://www.w3.org/1999/xlink" height="48">
 <path d="m2.832 19.617c-0.2441 0-0.4511-0.275-0.4511-0.539v-10.16c0-0.2792 0.2402-0.537 0.498-0.537h12.238c0.262 0 0.502 0.2578 0.502 0.5371v9.2069c0 0.291-0.24 0.537-0.502 0.537h-4.783v0.416c0 0.276-0.227 0.533-0.4902 0.533h-6.9649-0.043z" transform="matrix(2 0 0 2 2 1.9998)" stroke="#a57953" stroke-width=".763" fill="#a57953"/>
 <path d="m3.2188 22c-0.6641 0-1.2188 0.566-1.2188 1.137v21.726c0 0.614 0.6445 1.137 1.3516 1.137h33.296c0.723 0 1.352-0.523 1.352-1.137v-19.066c0-0.609-0.805-1.094-1.527-1.129h-12.821v-1.531c0-0.59-0.664-1.137-1.367-1.137h-18.933-0.1098z" fill="#e9b080"/>
 <path d="m3.2188 22c-0.6641 0-1.2188 0.566-1.2188 1.137v21.726c0 0.614 0.6445 1.137 1.3516 1.137h33.296c0.723 0 1.352-0.523 1.352-1.137v-19.066c0-0.609-0.805-1.094-1.527-1.129h-12.821v-1.531c0-0.59-0.664-1.137-1.367-1.137h-18.933-0.1098z" fill-opacity=".102"/>
 <path d="m6.832 11.617c-0.2441 0-0.4511-0.275-0.4511-0.539v-10.16c0-0.27921 0.2402-0.53702 0.498-0.53702h12.238c0.262 0 0.502 0.25781 0.502 0.53711v9.2069c0 0.291-0.24 0.537-0.502 0.537h-4.783v0.416c0 0.276-0.227 0.533-0.49 0.533h-6.9651-0.043z" transform="matrix(2 0 0 2 2 1.9998)" stroke="#a57953" stroke-width=".763" fill="#a57953"/>
 <path d="m11.219 6c-0.664 0-1.219 0.5664-1.219 1.1367v21.726c0 0.614 0.645 1.137 1.352 1.137h33.296c0.723 0 1.352-0.523 1.352-1.137v-19.066c0-0.6095-0.805-1.0939-1.527-1.129h-12.821v-1.5313c0-0.5898-0.664-1.1367-1.367-1.1367h-18.933-0.11z" fill="#e9b080"/>
 <path d="m46 30h-8v-8h-8v8h-8v8h8v8h8v-8h8z" fill="#859900"/>
</svg>
