<svg viewBox="0 0 48 48" width="48" xmlns="http://www.w3.org/2000/svg" xmlns:xlink="http://www.w3.org/1999/xlink" height="48">
 <path fill="#6c71c4" d="m10 4h24c4 0 4 0 4 4v28c0 4 0 4-4 4h-24c-4 0-4 0-4-4v-28c0-4 0-4 4-4z" fill-rule="evenodd"/>
 <path fill="#2d2d2d" d="m16.449 13.137c-0.887 3.113-0.906 7.422 0.676 9.547 0.664 1.007 1.57 2.332 0.859 3.539-1.312 1.882-3.504 2.898-5.496 3.922-0.679 0.07-0.433 0.691-0.476 1.148-0.004 0.367-0.114 0.844 0.429 0.672h19.118c0.543 0.172 0.433-0.305 0.429-0.672-0.043-0.457 0.203-1.078-0.476-1.148-1.992-1.024-4.184-2.04-5.496-3.922-0.711-1.207 0.195-2.532 0.859-3.539 1.672-2.313 1.887-7.348 0.668-9.618-1.098-1.964-2.211-2.992-5.543-3.066-3.34 0.133-4.445 1.102-5.551 3.137z" fill-opacity=".533"/>
 <path d="m44 28h-8v-8h-8v8h-8v8h8v8h8v-8h8z" fill="#859900"/>
</svg>
