<svg viewBox="0 0 48 48" width="48" xmlns="http://www.w3.org/2000/svg" xmlns:xlink="http://www.w3.org/1999/xlink" height="48">
 <path fill="#fff" d="m44 24c0 11.047-8.953 20-20 20s-20-8.953-20-20 8.953-20 20-20 20 8.953 20 20z" fill-rule="evenodd"/>
 <path d="m23.969 10.969c-1.102 0.015-1.985 0.929-1.969 2.031v11c0 0.469 0.164 0.922 0.469 1.281l5 6c0.445 0.602 1.179 0.899 1.914 0.789 0.734-0.117 1.344-0.625 1.586-1.328s0.07-1.484-0.438-2.023l-4.531-5.438v-10.281c0.008-0.539-0.203-1.062-0.586-1.445s-0.906-0.594-1.445-0.586z" fill="#268bd2"/>
 <path d="m24 4c-11.023 0-20 8.977-20 20s8.977 20 20 20 20-8.977 20-20-8.977-20-20-20zm0 4c8.859 0 16 7.141 16 16s-7.141 16-16 16-16-7.141-16-16 7.141-16 16-16z" fill="#aaa"/>
</svg>
