<svg viewBox="0 0 48 48" width="48" xmlns="http://www.w3.org/2000/svg" xmlns:xlink="http://www.w3.org/1999/xlink" height="48">
 <path d="m10.547 13.59c-3.4493 0.926-5.7189 3.535-6.2775 7.844-0.1523 1.808-0.8047 4.324 0.7188 5.527 2.0312 1.363 4.5156 1.141 6.7267 0.707 1.609-0.48 2.301-0.652 3.586-2.012 0 0-0.149-3.445 0.539-5.328 5.539-2.609 10.933-2.418 16.32 0 0.688 1.883 0.539 5.328 0.539 5.328 1.285 1.36 1.977 1.532 3.586 2.012 2.211 0.434 4.695 0.656 6.727-0.707 1.523-1.203 0.871-3.719 0.718-5.527-0.558-4.309-2.828-6.918-6.277-7.844-9.004-1.902-18.012-2.328-26.906 0z" fill="#859900"/>
 <path d="m32 32h-2.668c-0.684 0-1.406 0.355-1.914 0.852l-3.418 3.488-3.418-3.488c-0.504-0.5-1.23-0.852-1.914-0.852h-2.668v2.723c0 0.843 0.242 1.504 0.75 2.043l7.25 7.234 7.25-7.234c0.508-0.539 0.75-1.2 0.75-2.043z" fill="#dc322f"/>
</svg>
