<svg viewBox="0 0 48 48" width="48" xmlns="http://www.w3.org/2000/svg" xmlns:xlink="http://www.w3.org/1999/xlink" height="48">
 <path d="m36.719 7.9961c-2.309 0-3.992 2.0939-5.461 3.5939-1.379 1.793-2.82 3.89-3.211 5.984 0 0.899 0.871 1.196 1.23 1.797 1.411 1.195 2.852 2.992 1.981 5.086-1.289 2.395-3.66 4.191-5.52 6.285-1.472 1.496-3.39 3.59-5.73 2.696-1.742-0.899-2.731-2.395-4.082-3.293-1.891 0-3.508 1.195-5.071 2.093-2.0073 1.496-4.0777 3.293-4.8003 5.688-0.418 1.797 1.6211 2.992 2.8828 3.89 3.1485 2.395 7.4105 2.692 11.04 1.496 5.819-2.093 10.499-6.585 14.639-10.773 3.512-4.191 6.903-8.98 7.352-14.367 0.301-3.891-1.649-7.481-4.649-9.8751l-0.3-0.3008z" fill="#859900"/>
</svg>
