<svg viewBox="0 0 48 48" width="48" xmlns="http://www.w3.org/2000/svg" xmlns:xlink="http://www.w3.org/1999/xlink" height="48">
 <path d="m14.012 9.7031c-1.598 5.6599-1.633 13.492 1.211 17.356 1.195 1.836 2.828 4.246 1.55 6.437-2.363 3.422-6.304 5.27-9.8941 7.133-1.2187 0.125-0.7812 1.254-0.8594 2.09-0.0039 0.66-0.2031 1.527 0.7735 1.215h34.414c0.977 0.312 0.777-0.555 0.773-1.215-0.078-0.836 0.36-1.965-0.859-2.09-3.59-1.863-7.531-3.711-9.894-7.133-1.278-2.191 0.355-4.601 1.55-6.437 3.004-4.204 3.395-13.356 1.203-17.481-1.98-3.578-3.98-5.4413-9.98-5.578-6.008 0.2422-8 2-9.988 5.7031z" fill="#6c71c4"/>
 <path d="m44 28h-8v-8h-8v8h-8v8h8v8h8v-8h8z" fill="#859900"/>
</svg>
