<svg viewBox="0 0 48 48" width="48" xmlns="http://www.w3.org/2000/svg" xmlns:xlink="http://www.w3.org/1999/xlink" height="48">
 <path d="m13.395 38.848l-4.2427-4.243 25.453-25.453 4.243 4.243z" fill="#dc322f"/>
 <path fill="#dc322f" d="m9.8594 38.141c7.8086 7.812 20.473 7.812 28.282 0 7.812-7.809 7.812-20.473 0-28.282-7.809-7.8121-20.473-7.8121-28.282 0.0004-7.8121 7.8086-7.8121 20.473 0.0004 28.282zm4.2426-4.243c-5.4692-5.464-5.4692-14.332 0-19.796 5.464-5.4692 14.332-5.4692 19.796 0 5.469 5.464 5.469 14.332 0 19.796-5.464 5.469-14.332 5.469-19.796 0z" fill-rule="evenodd"/>
</svg>
