<svg viewBox="0 0 48 48" width="48" xmlns="http://www.w3.org/2000/svg" xmlns:xlink="http://www.w3.org/1999/xlink" height="48">
 <path d="m3.9824 19.529c-0.2793 0-0.5117-0.369-0.5117-0.718v-13.624c0-0.3725 0.2695-0.7163 0.5645-0.7163h13.926c0.299 0 0.568 0.3438 0.568 0.7168v12.342c0 0.39-0.269 0.72-0.568 0.72h-5.441v0.561c0 0.369-0.26 0.709-0.559 0.709h-7.9258-0.0508z" transform="matrix(2 0 0 2 2 0)" stroke="#a57953" stroke-width=".943" fill="#a57953"/>
 <path d="m5.3555 18c-0.7383 0-1.3555 0.566-1.3555 1.133v21.726c0 0.621 0.7148 1.141 1.5039 1.141h36.996c0.801 0 1.5-0.52 1.5-1.141v-19.699c0-0.601-0.699-1.16-1.5-1.16h-14.441v-0.867c0-0.586-0.739-1.133-1.52-1.133h-21.043-0.1171z" fill="#e9b080"/>
</svg>
