<svg viewBox="0 0 48 48" width="48" xmlns="http://www.w3.org/2000/svg" xmlns:xlink="http://www.w3.org/1999/xlink" height="48">
 <g fill-rule="evenodd">
  <path d="m8 6h20c4 0 4 0 4 4v28c0 4 0 4-4 4h-20c-4 0-4 0-4-4v-28c0-4 0-4 4-4z" fill="#fff"/>
  <path d="m29.914 38.211l13.75-11c2.758-2.758 2.75-2.75 0-5.5l-13.75-11c-1.914-1.5352-1.914-0.9688-1.914 2.828-0.039 1.375-0.086 2.922 0 4.922-0.031 0 0.031 0 0 0-13.664 0-20.086 8.75-20 19.836 5.414-5.586 11.75-8.008 20-7.836 0 1.969-0.039 2.672 0 4 0 2 0 5.105 1.914 3.75z" fill="#268bd2"/>
 </g>
</svg>
