<svg viewBox="0 0 48 48" width="48" xmlns="http://www.w3.org/2000/svg" xmlns:xlink="http://www.w3.org/1999/xlink" height="48">
 <g fill="#888">
  <path d="m12 22l20-12v4l-20 12z"/>
  <path d="m12 26l20 12v-4l-20-12z"/>
 </g>
 <g fill-rule="evenodd">
  <path d="m39.996 12c0 4.418-3.582 8-8 8-4.414 0-7.996-3.582-7.996-8s3.582-8.0039 7.996-8.0039c4.418 0 8 3.5859 8 8.0039z" fill="#268bd2"/>
  <path d="m19.996 24c0 4.418-3.582 8-8 8-4.414 0-7.996-3.582-7.996-8s3.582-8.004 7.996-8.004c4.418 0 8 3.586 8 8.004z" fill="#2aa198"/>
  <path d="m39.996 36.008c0 4.422-3.582 8.004-8 8.004-4.414 0-7.996-3.582-7.996-8.004 0-4.418 3.582-8 7.996-8 4.418 0 8 3.582 8 8z" fill="#dc322f"/>
 </g>
</svg>
