<svg viewBox="0 0 48 48" width="48" xmlns="http://www.w3.org/2000/svg" xmlns:xlink="http://www.w3.org/1999/xlink" height="48">
 <path d="m3.9824 19.529c-0.2793 0-0.5117-0.369-0.5117-0.718v-13.624c0-0.3725 0.2695-0.7163 0.5645-0.7163h13.926c0.299 0 0.568 0.3438 0.568 0.7168v12.342c0 0.39-0.269 0.72-0.568 0.72h-5.441v0.561c0 0.369-0.26 0.709-0.559 0.709h-7.9258-0.0508z" transform="matrix(2 0 0 2 2 0)" stroke="#a57953" stroke-width=".943" fill="#a57953"/>
 <path d="m5.3555 18c-0.7383 0-1.3555 0.566-1.3555 1.133v21.726c0 0.621 0.7148 1.141 1.5039 1.141h36.996c0.801 0 1.5-0.52 1.5-1.141v-19.699c0-0.601-0.699-1.16-1.5-1.16h-14.441v-0.867c0-0.586-0.739-1.133-1.52-1.133h-21.043-0.1171z" fill="#e9b080"/>
 <path fill="#859900" d="m43.523 34.34c0.071 3.496-1.773 6.758-4.824 8.527-3.047 1.77-6.824 1.77-9.875 0-3.051-1.769-4.894-5.031-4.82-8.527-0.074-3.5 1.769-6.762 4.82-8.531 3.051-1.77 6.828-1.77 9.875 0 3.051 1.769 4.895 5.031 4.824 8.531z" fill-rule="evenodd"/>
 <path d="m39.102 28.141c-0.207 0.074-0.383 0.214-0.5 0.398l-5.321 5.199-3.32-3.199c-0.133-0.441-0.551-0.738-1.016-0.715-0.461 0.028-0.843 0.367-0.929 0.821-0.082 0.457 0.16 0.91 0.586 1.093l4 4c0.382 0.36 0.976 0.36 1.359 0l6-6c0.234-0.308 0.266-0.73 0.082-1.074s-0.555-0.547-0.941-0.523z" fill="#fff"/>
</svg>
