<svg viewBox="0 0 48 48" width="48" xmlns="http://www.w3.org/2000/svg" xmlns:xlink="http://www.w3.org/1999/xlink" height="48">
 <g fill-rule="evenodd">
  <path fill="#aaa" d="m16 4h16c4 0 4-0.3984 4 4v16c0 4 0 4-4 4h-16c-4 0-4 0-4-4v-16c0-4 0-4 4-4z" fill-opacity=".941"/>
  <path d="m8 16h32c4 0 4 0 4 4v12c0 4 0 4-4 4h-32c-4 0-4 0-4-4v-12c0-4 0-4 4-4z" fill="#ccc"/>
 </g>
 <path d="m12 24h24v20h-24z" fill="#dc322f"/>
 <g fill-rule="evenodd">
  <path d="m36 24c0 6.629-5.371 12-12 12s-12.004-5.371-12.004-12 5.375-12 12.004-12 12 5.371 12 12z" fill="#fff"/>
  <path d="m32 24c0 4.418-3.582 8-8 8s-8-3.582-8-8 3.582-8 8-8 8 3.582 8 8z" fill="#555"/>
  <path d="m30 21c0 1.656-1.344 3-3 3s-3-1.344-3-3 1.344-3 3-3 3 1.344 3 3z" fill="#eee"/>
 </g>
</svg>
