<svg viewBox="0 0 48 48" width="48" xmlns="http://www.w3.org/2000/svg" xmlns:xlink="http://www.w3.org/1999/xlink" height="48">
 <g fill-rule="evenodd">
  <path d="m22 5.375c-8.84 0-16 7.152-16 16 0 8.84 7.16 16 16 16 2.441 0 4.734-0.539 6.812-1.5l6 6c2.821 2.84 2.848 2.84 5.688 0 2.82-2.82 2.82-2.848 0-5.687l-5.5-5.5c1.879-2.641 3-5.833 3-9.313 0-8.848-7.16-16-16-16zm-0.25 8c2.164-0.066 4.266 0.746 5.82 2.254 1.555 1.508 2.43 3.582 2.43 5.746 0 4.418-3.582 7.996-8 7.996s-8-3.578-8-7.996c-0.004-4.32 3.43-7.863 7.75-8z" fill="#2aa198"/>
  <path d="m14 21.371c0 4.418 3.582 8 8 8s8-3.582 8-8-3.582-7.996-8-7.996-8 3.578-8 7.996z" fill="#fff"/>
  <path fill="#2aa198" d="m14 21.371c0 4.418 3.582 8 8 8s8-3.582 8-8-3.582-7.996-8-7.996-8 3.578-8 7.996z" fill-opacity=".102"/>
 </g>
</svg>
