<svg viewBox="0 0 48 48" width="48" xmlns="http://www.w3.org/2000/svg" xmlns:xlink="http://www.w3.org/1999/xlink" height="48">
 <path d="m8 4c0 22 10 18 21.559 27.32-0.981 1.321-1.559 2.899-1.559 4.68 0 4.422 3.578 8 8 8s8-3.578 8-8c0-0.719-0.199-1.398-0.32-2.059l0.32 0.059-0.441-0.559c-0.598-1.761-1.821-3.203-3.379-4.203zm28 28c2.199 0 4 1.801 4 4s-1.801 4-4 4-4-1.801-4-4 1.801-4 4-4z" fill="#aaa"/>
 <path d="m40 4c0 22-10 18-21.559 27.32 0.981 1.321 1.559 2.899 1.559 4.68 0 4.422-3.578 8-8 8-4.4219 0-8-3.578-8-8 0-0.719 0.1406-1.398 0.3203-2.059l-0.3203 0.059 0.4414-0.559c0.5977-1.761 1.8203-3.203 3.3789-4.203zm-28 28c-2.1992 0-4 1.801-4 4s1.8008 4 4 4c2.199 0 4-1.801 4-4s-1.801-4-4-4z" fill="#ccc"/>
</svg>
