<svg viewBox="0 0 48 48" width="48" xmlns="http://www.w3.org/2000/svg" xmlns:xlink="http://www.w3.org/1999/xlink" height="48">
 <path d="m5.2891 3c-1.1446 0-2.2891 1.1445-2.2891 2.2891v35.488c0 1.078 1.1445 2.223 2.2227 2.223h35.554c1.078 0 2.223-1.145 2.223-2.223v-35.554c0-1.0785-1.145-2.223-2.223-2.223z" fill="#c19553"/>
 <path fill="#fff" d="m5.2891 3c-1.1446 0-2.2891 1.1445-2.2891 2.2891v13.711h40v-13.777c0-1.0785-1.145-2.223-2.223-2.223z" fill-opacity=".196"/>
 <path d="m23 7h-4v-4h4v8h-4v4h4v8.031l-4-0.031v8h8v-8l-4 0.031v-4.031h4v-4h-4v-4h4v-4z" fill="#fff"/>
 <path fill="#268bd2" d="m29.184 16.707l13.75 11c2.757 2.758 2.75 2.75 0 5.5l-13.75 11c-1.914 1.535-1.914 0.965-1.914-2.828-0.04-1.375-0.086-2.922 0-4.922-0.032 0 0.031 0 0 0-13.665 0-20.086-8.75-20-19.836 5.414 5.586 11.75 8.008 20 7.836 0-1.969-0.04-2.672 0-4 0-2 0-5.109 1.914-3.75z" fill-rule="evenodd"/>
</svg>
