<svg viewBox="0 0 48 48" width="48" xmlns="http://www.w3.org/2000/svg" xmlns:xlink="http://www.w3.org/1999/xlink" height="48">
 <path d="m9.0859 36c-0.5937 0-1.0859-0.68-1.0859-1.34v-25.32c0-0.6994 0.5703-1.34 1.2031-1.34h29.598c0.64 0 1.199 0.6406 1.199 1.3398v22.961c0 0.699-0.559 1.359-1.199 1.359h-11.563v1c0 0.719-0.558 1.34-1.179 1.34h-16.856-0.121z" fill="#a57953"/>
 <path d="m5.3555 12c-0.7383 0.09-1.3633 0.68-1.3555 1.34v25.34c0 0.679 0.7148 1.32 1.5 1.32h37c0.781 0 1.5-0.641 1.5-1.32v-22.996c0-0.7-0.719-1.332-1.5-1.332h-14.441v-1.012c0-0.707-0.719-1.34-1.52-1.34h-21.039-0.1406z" fill="#e9b080"/>
 <path d="m44 28h-8v-8h-8v8h-8v8h8v8h8v-8h8z" fill="#859900"/>
</svg>
