<svg viewBox="0 0 48 48" width="48" xmlns="http://www.w3.org/2000/svg" xmlns:xlink="http://www.w3.org/1999/xlink" height="48">
 <path d="m14 10v6h19.227c1.371 0 2.671 1.254 2.273 2.699l-0.672 3.301h-16.828c-5.891 0-10.441 5.129-11.641 9.602-0.6012 2.234-0.5192 4.73 0.8012 6.898 1.3203 2.168 3.9998 3.5 6.9098 3.5h21.629l0.699-2.301 5.309-19.199c1.391-5.02-2.328-10.5-7.711-10.5zm4 18h15.121l-2.617 8h-16.504c-1.273 0-1.289-0.668-1.434-0.898-0.14-0.235-0.257-0.938 0-1.903 0.52-1.926 2.727-5.199 5.434-5.199z" fill="#268bd2"/>
</svg>
