<svg viewBox="0 0 48 48" width="48" xmlns="http://www.w3.org/2000/svg" xmlns:xlink="http://www.w3.org/1999/xlink" height="48">
 <g fill-rule="evenodd">
  <path d="m4 24c0 11.043 8.957 20 20 20s20-8.957 20-20-8.957-20-20-20-20 8.957-20 20z" fill="#268bd2"/>
  <path fill="#fff" d="m12 8c-6 4-8 9.922-8 16 0 6.066 2 12 8 16" fill-opacity=".902"/>
 </g>
 <path fill="#fff" d="m12 23.992c0 0.613 0.262 1.196 0.688 1.625l7.437 7.688c0.402 0.425 0.977 0.672 1.563 0.687 0.929 0.031 1.761-0.496 2.124-1.375 0.364-0.875 0.168-1.902-0.5-2.562l-3.937-4.063h16.625v-4h-16.625l3.937-4.062c0.876-0.899 0.876-2.348 0-3.25-0.874-0.899-2.312-0.899-3.187 0l-7.437 7.687c-0.426 0.434-0.688 1.016-0.688 1.625z" fill-opacity=".902"/>
</svg>
