<svg viewBox="0 0 48 48" width="48" xmlns="http://www.w3.org/2000/svg" xmlns:xlink="http://www.w3.org/1999/xlink" height="48">
 <path fill="#b58900" d="m44 24c0 11.047-8.957 20-20 20s-20-8.953-20-20c0-11.043 8.953-20 20-20s20 8.957 20 20z" fill-rule="evenodd"/>
 <path fill="#fff" d="m22.504 12.555c-13.289 9.824-13.457 7.156-13.457 9.863-0.0001 1.406 0.4686 1.582 4.953 1.582v10c0 2 0 2 2 2h4c2 0 2 0 2-2v-8h4v8c0 2 0 2 2 2h4c2 0 2 0 2-2v-10c4.484 0 4.953-0.176 4.953-1.582 0-2.715-0.109 0.008-13.457-9.863-1.496-1.407-1.496-1.407-2.992 0z" fill-opacity=".902"/>
</svg>
