<svg viewBox="0 0 48 48" width="48" xmlns="http://www.w3.org/2000/svg" xmlns:xlink="http://www.w3.org/1999/xlink" height="48">
 <g fill-rule="evenodd">
  <path d="m24 4c-11.043 0-20 8.957-20 20s8.957 20 20 20 20-8.957 20-20-8.957-20-20-20z" fill="#268bd2"/>
  <path fill="#fff" d="m40 12c-4-6-9.922-8-16-8-6.066 0-12 2-16 8" fill-opacity=".902"/>
 </g>
 <path fill="#fff" d="m24.008 12c-0.613 0-1.196 0.262-1.625 0.688l-7.688 7.437c-0.425 0.402-0.672 0.977-0.687 1.563-0.031 0.929 0.496 1.761 1.375 2.124 0.875 0.364 1.902 0.168 2.562-0.5l4.063-3.937v16.625h4v-16.625l4.062 3.937c0.899 0.876 2.348 0.876 3.25 0 0.899-0.874 0.899-2.312 0-3.187l-7.687-7.437c-0.434-0.426-1.016-0.688-1.625-0.688z" fill-opacity=".902"/>
</svg>
