<svg viewBox="0 0 48 48" width="48" xmlns="http://www.w3.org/2000/svg" xmlns:xlink="http://www.w3.org/1999/xlink" height="48">
 <path fill="#268bd2" d="m44 24.004c0 11.043-8.957 19.996-20 19.996s-20-8.953-20-19.996c0-11.047 8.953-20.004 20-20.004s20 8.957 20 20.004z" fill-rule="evenodd"/>
 <path d="m20.684 27.863v-1.175c0-1.02 0.238-1.903 0.714-2.657 0.473-0.75 1.34-1.551 2.602-2.398 1.215-0.797 2.012-1.442 2.395-1.942 0.394-0.496 0.589-1.054 0.589-1.668 0-0.687-0.277-1.211-0.832-1.574-0.554-0.359-1.332-0.539-2.324-0.539-1.738 0-3.715 0.52-5.937 1.559l-1.891-3.481c2.578-1.324 5.316-1.988 8.207-1.988 2.383 0 4.277 0.523 5.676 1.574 1.41 1.047 2.117 2.446 2.117 4.196 0 1.164-0.289 2.171-0.867 3.019s-1.68 1.801-3.297 2.859c-1.113 0.754-1.816 1.329-2.117 1.719-0.289 0.391-0.434 0.906-0.434 1.543v0.953h-4.601m-0.555 5.434c0-0.891 0.262-1.563 0.781-2.016 0.524-0.457 1.281-0.683 2.274-0.683 0.961 0 1.703 0.23 2.222 0.699 0.532 0.465 0.797 1.133 0.797 2 0 0.84-0.265 1.5-0.797 1.988-0.531 0.477-1.273 0.715-2.222 0.715-0.973 0-1.723-0.234-2.254-0.699-0.535-0.477-0.801-1.145-0.801-2.004" fill="#fff"/>
 <path fill="#268bd2" d="m20.684 27.863v-1.175c0-1.02 0.238-1.903 0.714-2.657 0.473-0.75 1.34-1.551 2.602-2.398 1.215-0.797 2.012-1.442 2.395-1.942 0.394-0.496 0.589-1.054 0.589-1.668 0-0.687-0.277-1.211-0.832-1.574-0.554-0.359-1.332-0.539-2.324-0.539-1.738 0-3.715 0.52-5.937 1.559l-1.891-3.481c2.578-1.324 5.316-1.988 8.207-1.988 2.383 0 4.277 0.523 5.676 1.574 1.41 1.047 2.117 2.446 2.117 4.196 0 1.164-0.289 2.171-0.867 3.019s-1.68 1.801-3.297 2.859c-1.113 0.754-1.816 1.329-2.117 1.719-0.289 0.391-0.434 0.906-0.434 1.543v0.953h-4.601m-0.555 5.434c0-0.891 0.262-1.563 0.781-2.016 0.524-0.457 1.281-0.683 2.274-0.683 0.961 0 1.703 0.23 2.222 0.699 0.532 0.465 0.797 1.133 0.797 2 0 0.84-0.265 1.5-0.797 1.988-0.531 0.477-1.273 0.715-2.222 0.715-0.973 0-1.723-0.234-2.254-0.699-0.535-0.477-0.801-1.145-0.801-2.004" fill-opacity=".102"/>
</svg>
