<svg viewBox="0 0 48 48" width="48" xmlns="http://www.w3.org/2000/svg" xmlns:xlink="http://www.w3.org/1999/xlink" height="48">
 <g fill="#888">
  <path d="m29.5 18.875c0 0.953-0.172 1.758-0.508 2.398-0.336 0.633-0.797 1.141-1.383 1.532-0.57 0.375-1.257 0.648-2.054 0.82-0.782 0.148-1.625 0.227-2.532 0.227-1.593 0.015-3.562-0.563-5.023-0.79v-15.062c1.461-0.2578 3.32-0.25 4.703-0.3203 1.242 0 2.258 0.125 3.039 0.3828 0.781 0.2344 1.391 0.5625 1.836 0.9687 0.445 0.3907 0.75 0.836 0.906 1.3278 0.164 0.493 0.243 0.985 0.243 1.477 0 0.75-0.196 1.414-0.586 1.992-0.375 0.578-0.883 1.039-1.524 1.375 1.125 0.391 1.875 0.922 2.266 1.586 0.414 0.664 0.617 1.359 0.617 2.086m-7.789-2.141v4.289c0.234 0.032 0.484 0.055 0.75 0.079 0.281 0.015 0.562 0.023 0.828 0.023 0.367 0 0.734-0.023 1.094-0.078 0.351-0.07 0.664-0.18 0.929-0.328 0.29-0.172 0.516-0.407 0.696-0.696 0.18-0.304 0.265-0.687 0.265-1.148 0-0.766-0.257-1.305-0.773-1.633-0.5-0.336-1.172-0.508-2.023-0.508h-1.766m1.281-2.601c0.836 0 1.469-0.172 1.891-0.508 0.429-0.359 0.64-0.844 0.64-1.453 0-0.375-0.062-0.672-0.179-0.899-0.125-0.234-0.297-0.414-0.508-0.531-0.219-0.14-0.469-0.226-0.75-0.258-0.281-0.046-0.578-0.078-0.883-0.078-0.242 0-0.5 0.008-0.773 0.032-0.266 0.015-0.5 0.039-0.719 0.07v3.625h1.281"/>
  <path d="m40.789 23.984c-2.633 0-4.641-0.718-6.031-2.148-1.383-1.43-2.758-3.203-2.758-5.836-0.055-2.789 1.195-4.695 3.062-6.3281 0.758-0.7188 1.657-1.25 2.68-1.6094 1.047-0.375 2.18-0.5625 3.406-0.5625 0.664 0 1.258 0.0547 1.782 0.1562 0.539 0.0782 1.008 0.1876 1.414 0.3047 0.398 0.1172 0.734 0.2422 0.992 0.3829 0.281 0.1328 0.492 0.2343 0.633 0.3046l-0.961 2.4996c-0.461-0.257-1.024-0.468-1.688-0.64-0.648-0.188-1.39-0.281-2.234-0.281-0.578 0-1.156 0.093-1.719 0.281-0.539 0.172-1.031 0.469-1.476 0.898-0.422 0.406-0.84 0.828-1.121 1.524-0.258 0.695-0.77 2.031-0.77 3.07 0 1.805 0.805 2.852 1.531 3.82 0.742 0.953 1.946 1.43 3.617 1.43 0.961 0 1.758-0.094 2.383-0.281 0.641-0.188 1.157-0.375 1.531-0.563l0.938 2.477c-0.523 0.273-1.234 0.531-2.141 0.765-0.882 0.219-1.906 0.336-3.07 0.336"/>
  <path d="m8 8l-6 16h2.75l2.2656-6h3.8514l2.133 6h2.75l-5.75-16zm0.875 3.641l1.125 4.359h-2.6992z"/>
 </g>
 <path d="m18 30h28l-14 16z" fill="#cb4b16"/>
</svg>
