<svg viewBox="0 0 48 48" width="48" xmlns="http://www.w3.org/2000/svg" xmlns:xlink="http://www.w3.org/1999/xlink" height="48">
 <g fill="#268bd2">
  <path d="m40.266 11.98l-4.243-4.2417c-4.246-4.2461-7.074-1.4141-9.902 1.414l-16.969 16.969c-2.8278 2.828-5.6559 5.656-1.4137 9.899l4.2417 4.242c4.243 4.246 7.071 1.414 9.899-1.414l16.531-16.879c2.828-2.828 6.098-5.746 1.856-9.989zm-5.657 5.657l-16.972 16.968s-1.414 1.415-3.528-0.699c-2.129-2.129-0.714-3.543-0.714-3.543l16.968-16.968c-0.121 0.121 1.414-1.415 3.59 0.761 2.07 2.067 0.656 3.481 0.656 3.481z"/>
  <path d="m44.508 7.7383l-11.317 11.313c-2.828 2.828-7.07-1.414-4.242-4.242l11.317-11.317c2.828-2.8279 7.07 1.4142 4.242 4.2463z"/>
  <path d="m19.051 33.191l-11.313 11.317c-2.8278 2.828-7.07-1.414-4.2419-4.246l11.313-11.313c2.828-2.828 7.07 1.414 4.242 4.242z"/>
 </g>
 <g fill-opacity=".102">
  <path d="m44.508 7.7383l-11.317 11.313c-2.828 2.828-7.07-1.414-4.242-4.242l11.317-11.317c2.828-2.8279 7.07 1.4142 4.242 4.2463z"/>
  <path d="m19.051 33.191l-11.313 11.317c-2.8278 2.828-7.07-1.414-4.2419-4.246l11.313-11.313c2.828-2.828 7.07 1.414 4.242 4.242z"/>
 </g>
 <path d="m18 30h28l-14 16z" fill="#cb4b16"/>
</svg>
