<svg viewBox="0 0 48 48" width="48" xmlns="http://www.w3.org/2000/svg" xmlns:xlink="http://www.w3.org/1999/xlink" height="48">
 <path d="m4 12v-6h2v-2h6v2h4v-2h6v2h4v-2h6v2h4v-2h6v2h2v6h-2v4h2v6h-2v4h2v6h-2v4h2v6h-2v2h-6v-2h-4v2h-6v-2h-4v2h-6v-2h-4v2h-6v-2h-2v-6h2v-4h-2v-6h2v-4h-2v-6h2v-4z" fill="#dc322f"/>
 <path fill="#fff" d="m10 10h28v28h-28z" fill-opacity=".902"/>
 <path d="m16 16c2.75 0 5.5-0.5 5.5 3.281 2.75-3.781 10.5-3.281 10.5-3.281-2.75 2.75-6 7.25-6 10l6 4s-2.25 2-5 2c-8.25 0-11-5-11-16z" fill="#dc322f"/>
</svg>
