<svg viewBox="0 0 48 48" width="48" xmlns="http://www.w3.org/2000/svg" xmlns:xlink="http://www.w3.org/1999/xlink" height="48">
 <g fill="#268bd2">
  <path d="m6 14c-4 0-4 0-4 4v24c0 4 0 4 4 4h36c4 0 4 0 4-4v-24c0-4 0-4-4-4z"/>
  <path d="m6 46h36c4 0 4 0 4-4v-24l-44 24c0 4 0 4 4 4z"/>
 </g>
 <path d="m6 46h36c4 0 4 0 4-4v-24l-44 24c0 4 0 4 4 4z" fill-opacity=".102"/>
 <path d="m42 46h-36c-4 0-4 0-4-4v-24l44 24c0 4 0 4-4 4z" fill="#268bd2"/>
 <path fill="#fff" d="m2 18l22 12 22-12c0-4 0-4-4-4h-36c-4 0-4 0-4 4z" fill-opacity=".102"/>
 <path d="m22 10c-6 24 6 22 16 30 2-6 0-6 0-8 0 0 2-4 6 2 0-4 8-14-6-26 0 6-4 6-4 6-2-2-2-4-2-6v-6c-4 2-6 6-6 10v4s-2 0-4-6z" fill="#cb4b16"/>
 <path fill="#dc322f" d="m29.5 44.719c0 0.351 0.047 0.758 0.125 1.211 0.641 0.093 1.18 0.062 1.656 0 0.157 0 0.305 0.023 0.446 0 0.476-0.055 0.937-0.227 1.343-0.571 0.133-0.117 0.25-0.226 0.375-0.382 0.75-0.696 1.453-1.446 2.172-2.172l2.164-2.164c0.711 0.726 1.446 1.437 2.164 2.164 0.719 0.726 1.43 1.461 2.164 2.172 0.11 0.148 0.258 0.273 0.383 0.382 0.149 0.133 0.289 0.235 0.446 0.321 0.296 0.148 0.624 0.211 0.953 0.25 0.211 0.031 0.421 0.07 0.64 0.07h0.321c0.367-0.016 0.718-0.062 1.078-0.07 0.054-0.36 0.062-0.711 0.07-1.016v-0.195c-0.008-0.141-0.055-0.25-0.07-0.383 0-0.024 0.008-0.039 0-0.063-0.024-0.656-0.11-1.273-0.571-1.789-0.117-0.132-0.226-0.25-0.382-0.382l-4.329-4.336 4.329-4.336c0.148-0.11 0.273-0.266 0.382-0.383 0.133-0.149 0.235-0.289 0.321-0.445 0.148-0.29 0.211-0.586 0.25-0.899 0.047-0.351 0.078-0.711 0.07-1.086-0.008-0.305-0.016-0.648-0.07-1.015-0.664-0.118-1.196-0.125-1.657-0.063-0.171 0-0.335 0.031-0.507 0.063-0.61 0.093-1.219 0.343-1.657 0.953-0.75 0.695-1.445 1.445-2.164 2.172l-2.164 2.171-4.336-4.343c-0.125-0.157-0.242-0.266-0.375-0.383-0.148-0.125-0.297-0.234-0.453-0.32-0.258-0.133-0.531-0.211-0.82-0.25-0.024-0.008-0.047 0-0.07 0-0.586-0.141-1.258-0.118-2.102 0-0.109 0.671-0.117 1.195-0.063 1.656 0.024 0.164 0.016 0.359 0.063 0.508 0.023 0.07 0.047 0.132 0.063 0.195 0.117 0.539 0.343 1.07 0.898 1.469 0.695 0.75 1.437 1.445 2.164 2.164 0.727 0.718 1.438 1.461 2.164 2.172-0.726 0.695-1.453 1.39-2.164 2.109-0.016 0.008 0.008 0.047 0 0.063-0.727 0.718-1.469 1.421-2.164 2.164-0.156 0.109-0.274 0.265-0.383 0.382-0.078 0.086-0.133 0.164-0.195 0.258-0.031 0.047-0.102 0.078-0.125 0.125-0.008 0.024 0.008 0.047 0 0.071-0.133 0.257-0.211 0.539-0.258 0.828 0 0.039 0.008 0.086 0 0.125-0.063 0.257-0.125 0.523-0.125 0.828z" fill-rule="evenodd"/>
</svg>
