<svg viewBox="0 0 48 48" width="48" xmlns="http://www.w3.org/2000/svg" xmlns:xlink="http://www.w3.org/1999/xlink" height="48">
 <g fill="#268bd2">
  <path d="m6 14c-4 0-4 0-4 4v24c0 4 0 4 4 4h36c4 0 4 0 4-4v-24c0-4 0-4-4-4z"/>
  <path d="m6 46h36c4 0 4 0 4-4v-24l-44 24c0 4 0 4 4 4z"/>
 </g>
 <path d="m6 46h36c4 0 4 0 4-4v-24l-44 24c0 4 0 4 4 4z" fill-opacity=".102"/>
 <path d="m42 46h-36c-4 0-4 0-4-4v-24l44 24c0 4 0 4-4 4z" fill="#268bd2"/>
 <path fill="#fff" d="m2 18l22 12 22-12c0-4 0-4-4-4h-36c-4 0-4 0-4 4z" fill-opacity=".102"/>
 <path fill="#dc322f" d="m46 14c0 6.629-5.371 12-12 12s-12-5.371-12-12c0-6.6289 5.371-12 12-12s12 5.3711 12 12z" fill-rule="evenodd"/>
 <g fill="#fff" fill-opacity=".902">
  <path d="m32 6h4v12h-4z"/>
  <path d="m32 20h4v2h-4z"/>
 </g>
</svg>
