<svg viewBox="0 0 48 48" width="48" xmlns="http://www.w3.org/2000/svg" xmlns:xlink="http://www.w3.org/1999/xlink" height="48">
 <path d="m6 46h36c4 0 4 0 4-4v-26l-22-14-22 14v26c0 4 0 4 4 4z" fill="#268bd2"/>
 <path d="m6 46h36c4 0 4 0 4-4v-26l-22-14-22 14v26c0 4 0 4 4 4z" fill-opacity=".102"/>
 <path d="m8 8v32h32v-32z" fill="#fff"/>
 <g fill="#268bd2">
  <path d="m6 46h36c4 0 4 0 4-4v-24l-44 24c0 4 0 4 4 4z"/>
  <path d="m42 46h-36c-4 0-4 0-4-4v-24l44 24c0 4 0 4-4 4z"/>
 </g>
 <path fill="#fff" d="m42 46h-36c-4 0-4 0-4-4v-24l44 24c0 4 0 4-4 4z" fill-opacity=".102"/>
 <path fill="#cb4b16" d="m41.121 14.914c2.055 9.231 1.5 8.086-6.156 4.195-8.031 4.239-7.75 4.598-6.094-4.285-7.226-6.2498-6.398-5.6873 2.375-6.8396 3.953-8.2813 3.617-7.6875 7.578 0.0547 9.258 1.0703 9.039 0.707 2.297 6.8749z" fill-rule="evenodd"/>
</svg>
