<svg viewBox="0 0 48 48" width="48" xmlns="http://www.w3.org/2000/svg" xmlns:xlink="http://www.w3.org/1999/xlink" height="48">
 <g fill-rule="evenodd">
  <path d="m24.086 17.707l-13.75 11c-2.7579 2.758-2.7501 2.75 0 5.5l13.75 11c1.914 1.535 1.914 0.965 1.914-2.828 0.039-1.375 0.086-2.922 0-4.922 0.031 0-0.031 0 0 0 13.664 0 20.086-18.371 20-29.457-5.414 5.586-11.75 17.629-20 17.457 0-1.969 0.039-2.672 0-4 0-2 0-5.109-1.914-3.75z" fill="#859900"/>
  <path d="m24.086 17.707l-13.75 11c-2.7579 2.758-2.7501 2.75 0 5.5l13.75 11c1.914 1.535 1.914 0.965 1.914-2.828 0.039-1.375 0.086-2.922 0-4.922 0.031 0-0.031 0 0 0 13.664 0 20.086-18.371 20-29.457-5.414 5.586-11.75 17.629-20 17.457 0-1.969 0.039-2.672 0-4 0-2 0-5.109-1.914-3.75z" fill-opacity=".102"/>
  <path d="m24.086 8.2188l-13.75 11c-2.7579 2.758-2.7501 2.75 0 5.5l13.75 11c1.914 1.535 1.914 0.965 1.914-2.828 0.039-1.375 0.086-2.922 0-4.922 0.031 0-0.031 0 0 0 13.664 0 20.086-8.75 20-19.836-5.414 5.586-11.75 8.008-20 7.836 0-1.969 0.039-2.672 0-4 0-2.0002 0-5.1096-1.914-3.7502z" fill="#859900"/>
 </g>
</svg>
