<svg viewBox="0 0 48 48" width="48" xmlns="http://www.w3.org/2000/svg" xmlns:xlink="http://www.w3.org/1999/xlink" height="48">
 <path d="m6.2852 4c-1.1407 0-2.2852 1.1445-2.2852 2.2852v35.492c0 1.078 1.1445 2.223 2.2227 2.223h35.554c1.082 0 2.223-1.145 2.223-2.223v-35.554c0-1.0785-1.141-2.223-2.223-2.223z" fill="#c19553"/>
 <g fill="#fff">
  <path d="m6.2852 4c-1.1407 0-2.2852 1.1445-2.2852 2.2852v11.715h40v-11.777c0-1.0785-1.141-2.223-2.223-2.223z" fill-opacity=".196"/>
  <path d="m20 8v18h8v-18z" fill-opacity=".392"/>
 </g>
 <path d="m36 48l12-12h-8v-12h-8v12h-8z" fill="#859900"/>
</svg>
