<svg viewBox="0 0 48 48" width="48" xmlns="http://www.w3.org/2000/svg" xmlns:xlink="http://www.w3.org/1999/xlink" height="48">
 <g fill-rule="evenodd">
  <path d="m44 24c0 11.047-8.953 20-20 20s-20-8.953-20-20 8.953-20 20-20 20 8.953 20 20z" fill="#dc322f"/>
  <path d="m14.012 14v3.332c-0.074 0.938 0.238 1.891 0.941 2.539l4.274 4.203-4.274 4.203c-0.629 0.625-0.941 1.508-0.941 2.391v3.332h3.332c0.879 0 1.761-0.316 2.386-0.941l4.274-4.278 4.273 4.278c0.625 0.625 1.508 0.941 2.391 0.941h3.332v-3.332c0-0.883-0.316-1.766-0.941-2.391l-4.2-4.203 4.274-4.203c0.715-0.664 0.867-1.582 0.867-2.539v-3.332h-3.332c-0.801 0.023-1.434 0.32-2.316 1.086l-4.348 4.203-4.274-4.203c-0.589-0.609-1.394-1.047-2.242-1.086h-0.144z" fill="#fff"/>
  <path fill="#dc322f" d="m14.012 14v3.332c-0.074 0.938 0.238 1.891 0.941 2.539l4.274 4.203-4.274 4.203c-0.629 0.625-0.941 1.508-0.941 2.391v3.332h3.332c0.879 0 1.761-0.316 2.386-0.941l4.274-4.278 4.273 4.278c0.625 0.625 1.508 0.941 2.391 0.941h3.332v-3.332c0-0.883-0.316-1.766-0.941-2.391l-4.2-4.203 4.274-4.203c0.715-0.664 0.867-1.582 0.867-2.539v-3.332h-3.332c-0.801 0.023-1.434 0.32-2.316 1.086l-4.348 4.203-4.274-4.203c-0.589-0.609-1.394-1.047-2.242-1.086h-0.144z" fill-opacity=".102"/>
 </g>
</svg>
