<svg viewBox="0 0 48 48" width="48" xmlns="http://www.w3.org/2000/svg" xmlns:xlink="http://www.w3.org/1999/xlink" height="48">
 <g fill-rule="evenodd">
  <path d="m24 4c11.047 0 20 8.957 20 20 0 11.051-8.953 20.008-20 20-11.047 0.008-20-8.949-20-20 0-11.043 8.953-20 20-20z" fill="#859900"/>
  <path fill="#fff" d="m24 8c-6.719 0-12.441 4.133-14.812 10h4.437c2.074-3.586 5.934-6 10.375-6 6.629 0 12 5.371 12 12s-5.371 12-12 12c-4.441 0-8.301-2.414-10.375-6h-4.4375c2.3715 5.867 8.0935 10 14.812 10 8.836 0 16-7.164 16-16s-7.164-16-16-16z" fill-opacity=".902"/>
 </g>
 <path fill="#fff" d="m24 22v4h-16v-4z" fill-opacity=".902"/>
</svg>
