<svg viewBox="0 0 48 48" width="48" xmlns="http://www.w3.org/2000/svg" xmlns:xlink="http://www.w3.org/1999/xlink" height="48">
 <g fill-rule="evenodd">
  <path d="m44 24c0 11.047-8.957 20-20 20-11.051 0-20.008-8.953-20-20-0.0078-11.047 8.949-20 20-20 11.043 0 20 8.953 20 20z" fill="#dc322f"/>
  <path fill="#fff" d="m40 24c0-6.719-4.133-12.441-10-14.812v4.437c3.586 2.074 6 5.934 6 10.375 0 6.629-5.371 12-12 12s-12-5.371-12-12c0-4.441 2.414-8.301 6-10.375v-4.4375c-5.867 2.3715-10 8.0935-10 14.812 0 8.836 7.164 16 16 16s16-7.164 16-16z" fill-opacity=".902"/>
 </g>
 <path fill="#fff" d="m26 24h-4v-16h4z" fill-opacity=".902"/>
</svg>
