<svg viewBox="0 0 48 48" width="48" xmlns="http://www.w3.org/2000/svg" xmlns:xlink="http://www.w3.org/1999/xlink" height="48">
 <path d="m12.312 11.996c-0.402 0-0.75 0.352-0.75 0.75v1.875c-0.886 0.231-1.6714 0.668-2.437 1.125l-1.4062-1.5c-0.2813-0.281-0.75-0.281-1.0313 0l-2.4375 2.438c-0.2812 0.281-0.2812 0.75 0 1.031l1.5 1.406c-0.4609 0.77-0.8945 1.555-1.125 2.438h-1.875c-0.4023 0-0.75 0.351-0.75 0.75v3.375c0 0.402 0.3477 0.75 0.75 0.75h1.875c0.2305 0.886 0.6641 1.671 1.125 2.437l-1.5 1.406c-0.2812 0.282-0.2812 0.75 0 1.032l2.4375 2.437c0.2813 0.281 0.75 0.281 1.0313 0l1.4062-1.5c0.7656 0.461 1.551 0.899 2.437 1.125v1.875c0 0.402 0.348 0.75 0.75 0.75h3.376c0.402 0 0.75-0.348 0.75-0.75v-1.875c0.886-0.226 1.671-0.664 2.437-1.125l1.406 1.5c0.281 0.281 0.75 0.281 1.031 0l2.438-2.437c0.281-0.282 0.281-0.75 0-1.032l-1.5-1.406c0.461-0.766 0.895-1.551 1.125-2.437h1.875c0.402 0 0.75-0.348 0.75-0.75v-3.375c0-0.399-0.348-0.75-0.75-0.75h-1.875c-0.23-0.883-0.664-1.668-1.125-2.438l1.5-1.406c0.281-0.281 0.281-0.75 0-1.031l-2.438-2.438c-0.281-0.281-0.75-0.281-1.031 0l-1.406 1.5c-0.766-0.457-1.551-0.894-2.437-1.125v-1.875c0-0.398-0.348-0.75-0.75-0.75zm1.688 9c1.652 0 3 1.348 3 3 0 1.656-1.348 3-3 3s-3-1.344-3-3c0-1.652 1.348-3 3-3z" fill="#888"/>
 <path d="m12.312 11.996c-0.402 0-0.75 0.352-0.75 0.75v1.875c-0.886 0.231-1.6714 0.668-2.437 1.125l-1.4062-1.5c-0.2813-0.281-0.75-0.281-1.0313 0l-2.4375 2.438c-0.2812 0.281-0.2812 0.75 0 1.031l1.5 1.406c-0.4609 0.77-0.8945 1.555-1.125 2.438h-1.875c-0.4023 0-0.75 0.351-0.75 0.75v3.375c0 0.402 0.3477 0.75 0.75 0.75h1.875c0.2305 0.886 0.6641 1.671 1.125 2.437l-1.5 1.406c-0.2812 0.282-0.2812 0.75 0 1.032l2.4375 2.437c0.2813 0.281 0.75 0.281 1.0313 0l1.4062-1.5c0.7656 0.461 1.551 0.899 2.437 1.125v1.875c0 0.402 0.348 0.75 0.75 0.75h3.376c0.402 0 0.75-0.348 0.75-0.75v-1.875c0.886-0.226 1.671-0.664 2.437-1.125l1.406 1.5c0.281 0.281 0.75 0.281 1.031 0l2.438-2.437c0.281-0.282 0.281-0.75 0-1.032l-1.5-1.406c0.461-0.766 0.895-1.551 1.125-2.437h1.875c0.402 0 0.75-0.348 0.75-0.75v-3.375c0-0.399-0.348-0.75-0.75-0.75h-1.875c-0.23-0.883-0.664-1.668-1.125-2.438l1.5-1.406c0.281-0.281 0.281-0.75 0-1.031l-2.438-2.438c-0.281-0.281-0.75-0.281-1.031 0l-1.406 1.5c-0.766-0.457-1.551-0.894-2.437-1.125v-1.875c0-0.398-0.348-0.75-0.75-0.75zm1.688 9c1.652 0 3 1.348 3 3 0 1.656-1.348 3-3 3s-3-1.344-3-3c0-1.652 1.348-3 3-3z" fill-opacity=".102"/>
 <path d="m32.312 1.9961c-0.402 0-0.75 0.3516-0.75 0.75v1.875c-0.886 0.2305-1.671 0.668-2.437 1.125l-1.406-1.5c-0.281-0.2813-0.75-0.2813-1.031 0l-2.438 2.4375c-0.281 0.2812-0.281 0.75 0 1.0312l1.5 1.4063c-0.461 0.7695-0.895 1.5549-1.125 2.4379h-1.875c-0.402 0-0.75 0.351-0.75 0.75v3.375c0 0.402 0.348 0.75 0.75 0.75h1.875c0.23 0.886 0.664 1.671 1.125 2.437l-1.5 1.406c-0.281 0.282-0.281 0.75 0 1.032l2.438 2.437c0.281 0.281 0.75 0.281 1.031 0l1.406-1.5c0.766 0.461 1.551 0.899 2.437 1.125v1.875c0 0.402 0.348 0.75 0.75 0.75h3.376c0.402 0 0.75-0.348 0.75-0.75v-1.875c0.886-0.226 1.671-0.664 2.437-1.125l1.406 1.5c0.281 0.281 0.75 0.281 1.031 0l2.438-2.437c0.281-0.282 0.281-0.75 0-1.032l-1.5-1.406c0.461-0.766 0.895-1.551 1.125-2.437h1.875c0.402 0 0.75-0.348 0.75-0.75v-3.375c0-0.399-0.348-0.75-0.75-0.75h-1.875c-0.23-0.883-0.664-1.6684-1.125-2.4379l1.5-1.4063c0.281-0.2812 0.281-0.75 0-1.0312l-2.438-2.4375c-0.281-0.2813-0.75-0.2813-1.031 0l-1.406 1.5c-0.766-0.457-1.551-0.8945-2.437-1.125v-1.875c0-0.3984-0.348-0.75-0.75-0.75zm1.688 8.9999c1.652 0 3 1.348 3 3 0 1.656-1.348 3-3 3s-3-1.344-3-3c0-1.652 1.348-3 3-3z" fill="#888"/>
 <path d="m32.312 1.9961c-0.402 0-0.75 0.3516-0.75 0.75v1.875c-0.886 0.2305-1.671 0.668-2.437 1.125l-1.406-1.5c-0.281-0.2813-0.75-0.2813-1.031 0l-2.438 2.4375c-0.281 0.2812-0.281 0.75 0 1.0312l1.5 1.4063c-0.461 0.7695-0.895 1.5549-1.125 2.4379h-1.875c-0.402 0-0.75 0.351-0.75 0.75v3.375c0 0.402 0.348 0.75 0.75 0.75h1.875c0.23 0.886 0.664 1.671 1.125 2.437l-1.5 1.406c-0.281 0.282-0.281 0.75 0 1.032l2.438 2.437c0.281 0.281 0.75 0.281 1.031 0l1.406-1.5c0.766 0.461 1.551 0.899 2.437 1.125v1.875c0 0.402 0.348 0.75 0.75 0.75h3.376c0.402 0 0.75-0.348 0.75-0.75v-1.875c0.886-0.226 1.671-0.664 2.437-1.125l1.406 1.5c0.281 0.281 0.75 0.281 1.031 0l2.438-2.437c0.281-0.282 0.281-0.75 0-1.032l-1.5-1.406c0.461-0.766 0.895-1.551 1.125-2.437h1.875c0.402 0 0.75-0.348 0.75-0.75v-3.375c0-0.399-0.348-0.75-0.75-0.75h-1.875c-0.23-0.883-0.664-1.6684-1.125-2.4379l1.5-1.4063c0.281-0.2812 0.281-0.75 0-1.0312l-2.438-2.4375c-0.281-0.2813-0.75-0.2813-1.031 0l-1.406 1.5c-0.766-0.457-1.551-0.8945-2.437-1.125v-1.875c0-0.3984-0.348-0.75-0.75-0.75zm1.688 8.9999c1.652 0 3 1.348 3 3 0 1.656-1.348 3-3 3s-3-1.344-3-3c0-1.652 1.348-3 3-3z" fill-opacity=".102"/>
 <path d="m29.297 18c-0.106-0.008-0.152 0.039-0.262 0.09l-3.769 1.488c-0.43 0.184-0.614 0.789-0.438 1.227l0.789 2.187c-0.871 0.653-1.469 1.348-2.105 2.192l-2.192-0.965c-0.429-0.184-1.043 0.09-1.226 0.527l-1.492 3.59c-0.176 0.437 0.097 0.957 0.527 1.141l2.191 0.961c-0.144 1.042-0.152 2.078 0 3.156l-2.191 0.961c-0.43 0.183-0.613 0.527-0.438 0.965l1.403 3.765c0.183 0.438 0.797 0.621 1.226 0.438l2.192-0.875c0.652 0.867 1.433 1.55 2.277 2.187l-0.961 2.192c-0.176 0.437 0.008 1.043 0.438 1.226l3.769 1.488c0.438 0.184 0.789-0.086 0.965-0.523l0.961-2.191c1.055 0.152 2.09 0.152 3.156 0l0.879 2.191c0.184 0.437 0.797 0.621 1.227 0.437l3.593-1.402c0.438-0.183 0.707-0.789 0.528-1.226l-0.965-2.192c0.867-0.652 1.562-1.344 2.191-2.187l2.278 0.875c0.437 0.183 0.879 0 1.05-0.438l1.579-3.765c0.183-0.438 0-0.782-0.438-0.965l-2.277-0.961c0.148-1.055 0.16-2.082 0-3.156l2.191-0.961c0.438-0.184 0.707-0.528 0.524-0.965l-1.579-3.766c-0.171-0.437-0.699-0.711-1.136-0.527l-2.192 0.965c-0.648-0.868-1.34-1.555-2.191-2.192l0.965-2.363c0.179-0.438-0.09-0.867-0.528-1.051l-3.593-1.488c-0.43-0.184-1.043 0.086-1.227 0.523l-0.879 2.192c-1.043-0.153-2.078-0.153-3.156 0l-0.961-2.192c-0.137-0.324-0.383-0.597-0.703-0.613zm3.242 8.41c3.102 0 5.613 2.508 5.613 5.606 0 3.097-2.511 5.605-5.613 5.605-3.09 0-5.609-2.508-5.609-5.605 0-3.098 2.519-5.606 5.609-5.606z" fill="#888"/>
</svg>
