<svg viewBox="0 0 48 48" width="48" xmlns="http://www.w3.org/2000/svg" xmlns:xlink="http://www.w3.org/1999/xlink" height="48">
 <path fill="#268bd2" d="m16 38c0 2.211-1.789 4-4 4-2.2109 0-4-1.789-4-4s1.7891-4 4-4c2.211 0 4 1.789 4 4z" fill-rule="evenodd"/>
 <path d="m30 6c0.609 0 1.191 0.2617 1.625 0.6875l7.687 7.4375c0.426 0.402 0.668 0.977 0.688 1.563 0.027 0.929-0.5 1.761-1.375 2.124-0.879 0.364-1.902 0.168-2.563-0.5l-4.062-3.937v28.625h-4v-28.625l-4.062 3.937c-0.903 0.876-2.352 0.876-3.25 0-0.903-0.874-0.903-2.312 0-3.187l7.687-7.4375c0.43-0.4258 1.012-0.6875 1.625-0.6875z" fill="#dc322f"/>
 <g fill="#268bd2" fill-rule="evenodd">
  <path d="m16 26c0 2.211-1.789 4-4 4-2.2109 0-4-1.789-4-4s1.7891-4 4-4c2.211 0 4 1.789 4 4z"/>
  <path d="m16 14c0 2.211-1.789 4-4 4-2.2109 0-4-1.789-4-4s1.7891-4 4-4c2.211 0 4 1.789 4 4z"/>
 </g>
</svg>
