<svg viewBox="0 0 48 48" width="48" xmlns="http://www.w3.org/2000/svg" xmlns:xlink="http://www.w3.org/1999/xlink" height="48">
 <path fill="#dc322f" d="m10 37.996c3.93-0.125 4.023 0.008 6-2 1.414-1.414 6.535-6.594 7.949-8.008 2.828 2.828 5.223 5.18 8.051 8.008 2.023 2.008 1.965 2.051 6 2-0.035-3.949 0.023-3.992-2-6-2.828-2.828-5.223-5.18-8.051-8.008 2.235-2.297 5.223-5.164 8.051-7.992 2.023-1.992 2.066-1.906 2-5.9999-3.934 0.0939-3.977 0.0079-6 1.9999-2.828 2.828-6.219 6.16-8.051 7.992-2.828-2.828-5.121-5.164-7.949-7.992-1.977-1.992-2.027-1.875-6-1.9999-0.0273 4.1249 0.023 4.0079 2 5.9999 1.414 1.414 6.535 6.578 7.949 7.992-2.828 2.828-5.121 5.18-7.949 8.008-1.977 2.008-2.0703 1.875-2 6z" fill-rule="evenodd"/>
</svg>
