<svg width="16" xmlns="http://www.w3.org/2000/svg" viewBox="0 0 16 16" height="16">
 <g transform="matrix(.075 0 0 .075 -1.6 14)" fill="#bebebe">
  <path xml:space="preserve" d="m161.33-158h22.222c33.333 0 33.333 33.428 33.333 33.428v33.081c0 11.143-22.222 33.776-22.222 33.776v11.143l33.34 22.284v22.286h-61.111-61.111v-22.286l44.444-22.285v-11.143s-22.296-22.633-22.222-33.776v-33.081s-0.00013-33.428 33.333-33.428zm-77.778 22.286h22.222v44.223c0 11.143 22.222 33.776 22.222 33.776l-44.444 22.286v22.285l-55.546-0.348v-11.143l44.444-21.938v-11.142s-22.295-22.634-22.222-33.776v-10.795c0-33.429 33.333-33.429 33.333-33.429z"/>
 </g>
</svg>
