<svg xmlns:rdf="http://www.w3.org/1999/02/22-rdf-syntax-ns#" xmlns="http://www.w3.org/2000/svg" height="16" width="16" version="1.1" xmlns:cc="http://creativecommons.org/ns#" xmlns:xlink="http://www.w3.org/1999/xlink" xmlns:dc="http://purl.org/dc/elements/1.1/">
 <g transform="translate(0 -1036.4)">
  <g transform="translate(-29.509 1004.5)">
   <flowRoot style="word-spacing:0px;letter-spacing:0px" xml:space="preserve" transform="translate(-18.262 -1007.9)" line-height="125%" font-size="40px" font-family="sans-serif" fill="#000000"><flowRegion><rect y="6.6343" x="-53.033" width="57.629" height="49.321"/></flowRegion><flowPara/></flowRoot>
  </g>
  <path fill="#0084c8" d="m2 0v16h12v-16h-12zm2 2h6v1h-6v-1zm4 3c2.209 0 4 1.7909 4 4 0 2.209-1.791 4-4 4-0.2447 0-0.4862-0.052-0.7188-0.094l1.8126-3.0622-3.5313 2.3442c-0.959-0.731-1.5625-1.889-1.5625-3.188 0-2.2091 1.7909-4 4-4zm0 6l-2 3h-2l4-3z" transform="translate(0 1036.4)"/>
  <path d="m9 9c0 0.5523-0.4477 1-1 1s-1-0.4477-1-1 0.4477-1 1-1 1 0.4477 1 1z" transform="matrix(.5 0 0 .5 4 1040.9)" fill="#0084c8"/>
 </g>
</svg>
