<svg width="16" xmlns="http://www.w3.org/2000/svg" viewBox="0 0 16 16" height="16">
 <g transform="translate(0 6)">
  <path stroke-width=".559" d="m2.6007 8.7203c-0.17491 0-0.32098-0.20739-0.32098-0.40356v-7.6352c0-0.20963 0.16927-0.40188 0.35358-0.40188h8.7297c0.18807 0 0.35734 0.19225 0.35734 0.40188v6.9178c0 0.2186-0.16927 0.40356-0.35734 0.40356h-3.4104v0.31388c0 0.20739-0.163 0.39796-0.35107 0.39796h-4.9683-0.031345z" stroke="#a57953" fill="#a57953"/>
  <path d="m0.4746 1c-0.2583 0-0.4746 0.213-0.4746 0.4253v8.1472c0 0.2325 0.2506 0.4275 0.5257 0.4275h12.949c0.28 0 0.525-0.195 0.525-0.4275v-7.1502c0-0.225-0.31315-0.40827-0.5928-0.42229h-4.9862v-0.57475c0-0.2205-0.259-0.42525-0.532-0.42525h-7.3647-0.042z" fill="#e9b080"/>
  <path d="m0.4746 1c-0.2583 0-0.4746 0.213-0.4746 0.4253v8.1472c0 0.2325 0.2506 0.4275 0.5257 0.4275h12.949c0.28 0 0.525-0.195 0.525-0.4275v-7.1502c0-0.225-0.31315-0.40827-0.5928-0.42229h-4.9862v-0.57475c0-0.2205-0.259-0.42525-0.532-0.42525h-7.3647-0.042z" fill-opacity=".1"/>
 </g>
 <g transform="translate(0 -6)">
  <path stroke-width=".559" d="m4.6007 14.72c-0.17491 0-0.32098-0.20739-0.32098-0.40356v-7.6352c0-0.20963 0.16927-0.40188 0.35358-0.40188h8.7297c0.18807 0 0.35734 0.19225 0.35734 0.40188v6.9178c0 0.2186-0.16927 0.40356-0.35734 0.40356h-3.4104v0.31388c0 0.20739-0.163 0.39796-0.35107 0.39796h-4.9683-0.031345z" stroke="#a57953" fill="#a57953"/>
  <path d="m2.4746 7c-0.2583 0-0.4746 0.213-0.4746 0.4252v8.1468c0 0.233 0.2506 0.428 0.5257 0.428h12.949c0.28 0 0.525-0.195 0.525-0.428v-7.1497c0-0.225-0.313-0.4083-0.593-0.4223h-4.986v-0.57475c0-0.2204-0.259-0.4252-0.532-0.4252h-7.3647-0.042z" fill="#e9b080"/>
 </g>
 <path d="m16 9.9999h-3v-3h-3v3h-3v3h3v3h3v-3h3z" fill="#859900"/>
</svg>
