<svg width="16" xmlns="http://www.w3.org/2000/svg" viewBox="0 0 16 16" height="16">
 <g fill-rule="evenodd">
  <path d="m1.4286 2h7.1428c1.4286 0 1.4286 0 1.4286 1.5556v10.888c0 1.556 0 1.556-1.4286 1.556h-7.1428c-1.4286 0-1.4286 0-1.4286-1.556v-10.888c0-1.556 0-1.556 1.4286-1.556z" fill="#888"/>
  <path d="m5.4286 0h7.1424c1.429 0 1.429 0 1.429 1.5556v10.888c0 1.556 0 1.556-1.429 1.556h-7.1424c-1.4286 0-1.4286 0-1.4286-1.556v-10.888c0-1.556 0-1.556 1.4286-1.556z" fill="#fff"/>
 </g>
 <path d="m16 9.9999h-3v-3h-3v3h-3v3h3v3h3v-3h3z" fill="#859900"/>
</svg>
