<svg width="16" xmlns="http://www.w3.org/2000/svg" viewBox="0 0 16 16" height="16">
 <g transform="matrix(.875 0 0 .88889 -1.625 -1.7778)">
  <path fill="#6c71c4" d="m5 2h12c2 0 2 0 2 2v14c0 2 0 2-2 2h-12c-2 0-2 0-2-2v-14c0-2 0-2 2-2z" fill-rule="evenodd"/>
  <path style="color:#bebebe" fill="#2d2d2d" d="m8.225 6.5689c-0.4429 1.5559-0.45311 3.7101 0.33725 4.7727 0.3322 0.50403 0.78549 1.1669 0.4302 1.7701-0.65677 0.94108-1.7516 1.4487-2.7485 1.9615-0.33865 0.03428-0.21632 0.34496-0.239 0.57408-0.000544 0.18222-0.0554 0.42021 0.2151 0.33488h4.3976 0.7648 4.3976c0.2705 0.08532 0.21564-0.15266 0.2151-0.33488-0.02268-0.22913 0.09966-0.53979-0.239-0.57408-0.99688-0.51272-2.0917-1.0204-2.7485-1.9615-0.35529-0.60321 0.098-1.2661 0.4302-1.7701 0.83492-1.1567 0.94349-3.6734 0.3346-4.808-0.55-0.9834-1.105-1.4956-2.772-1.5334-1.6693 0.0665-2.2222 0.55-2.775 1.5689z" fill-opacity=".533"/>
 </g>
 <path d="m16 10h-3v-3h-3v3h-3v3h3v3h3v-3h3z" fill="#859900"/>
</svg>
