<svg width="16" xmlns="http://www.w3.org/2000/svg" viewBox="0 0 16 16" height="16">
 <g transform="matrix(.8 0 0 .8 -1.6 -1.6)">
  <path fill-rule="evenodd" fill="#fff" d="m20.237 11.898a8.7966 7.8305 0 1 1 -17.593 0 8.7966 7.8305 0 1 1 17.593 0z" transform="matrix(1.1368 0 0 1.2771 -1.0058 -3.1948)"/>
  <path d="m11.984 5.4844c-0.55 0.0078-0.992 0.4648-0.984 1.0156v5.5c0 0.23438 0.08203 0.46094 0.23438 0.64062l2.5 3c0.22266 0.30078 0.58984 0.44922 0.95703 0.39453 0.36719-0.05859 0.67188-0.3125 0.79297-0.66406s0.03516-0.74219-0.21875-1.0117l-2.265-2.719v-5.141c0.004-0.2695-0.102-0.5312-0.293-0.7227-0.191-0.1914-0.453-0.2968-0.723-0.2929z" fill="#268bd2"/>
  <path d="m12 2c-5.5117 0-10 4.4883-10 10 0 5.512 4.4883 10 10 10 5.512 0 10-4.488 10-10 0-5.5117-4.488-10-10-10zm0 2c4.4297 0 8 3.5703 8 8s-3.5703 8-8 8-8-3.57-8-8c0-4.4297 3.5703-8 8-8z" fill="#aaa"/>
 </g>
 <path d="m16 10h-3v-3h-3v3h-3v3h3v3h3v-3h3z" fill="#859900"/>
</svg>
