<svg width="16" xmlns="http://www.w3.org/2000/svg" viewBox="0 0 16 16" height="16">
 <g transform="matrix(.8 0 0 .875 -1.6 -4.25)">
  <path d="m5.2737 6.7954c-1.7249 0.46312-2.8599 1.7667-3.1389 3.921-0.076913 0.90532-0.40181 2.1633 0.35873 2.7648 1.0162 0.68079 2.2589 0.56883 3.3631 0.35188 0.80553-0.23868 1.1503-0.32574 1.7937-1.0054 0 0-0.07433-1.7219 0.26905-2.6642 2.7709-1.3041 5.4672-1.2075 8.1612 0 0.34332 0.9423 0.26905 2.6642 0.26905 2.6642 0.64338 0.67963 0.98814 0.76669 1.7937 1.0054 1.1043 0.21695 2.347 0.32891 3.3631-0.35188 0.76054-0.6015 0.43558-1.8595 0.35873-2.7648-0.27905-2.1543-1.414-3.4578-3.1389-3.921-4.5026-0.95071-9.0061-1.165-13.453 0z" fill="#859900"/>
  <path style="color:#bebebe" d="m16 16h-1.3334c-0.34252 0.000014-0.70459 0.17679-0.95832 0.42554l-1.7083 1.7447-1.7083-1.7447c-0.254-0.25-0.6161-0.426-0.9587-0.426h-1.3333v1.362c0 0.421 0.1204 0.752 0.3751 1.021l3.6249 3.617 3.625-3.617c0.255-0.269 0.375-0.6 0.375-1.021v-1.3617z" fill="#dc322f"/>
 </g>
</svg>
