<svg width="16" xmlns="http://www.w3.org/2000/svg" viewBox="0 0 16 16" height="16">
 <path style="color:#bebebe" d="m3.6618 2.282c-0.62939 2.2632-0.6439 5.3965 0.47926 6.9421 0.47207 0.73314 1.1162 1.6973 0.61133 2.5747-0.9333 1.3688-2.4891 2.1073-3.9058 2.853-0.48124 0.04988-0.30741 0.50175-0.33963 0.83503-0.00077163 0.26505-0.078729 0.61121 0.30567 0.4871h6.2492 1.0868 6.2492c0.3844 0.12411 0.30644-0.22205 0.30567-0.4871-0.03224-0.33328 0.14161-0.78516-0.33963-0.83503-1.417-0.746-2.973-1.484-3.906-2.853-0.5047-0.878 0.139-1.8417 0.611-2.5749 1.187-1.6825 1.341-5.3431 0.476-6.9934-0.782-1.4307-1.5713-2.1757-3.9397-2.2307-2.3722 0.096674-3.1579 0.8-3.9435 2.282z" fill="#6c71c4"/>
 <path d="m16 10h-3v-3h-3v3h-3v3h3v3h3v-3h3z" fill="#859900"/>
</svg>
