<svg width="16" xmlns="http://www.w3.org/2000/svg" viewBox="0 0 16 16" height="16">
 <g fill-rule="evenodd">
  <path fill="#aaa" d="m4.6667 0.0039432h6.6667c1.667 0 1.667-0.1666 1.667 1.6661v6.664c0 1.666 0 1.666-1.667 1.666h-6.6663c-1.6667 0-1.6667 0-1.6667-1.666v-6.664c0-1.6661 0-1.6661 1.6667-1.6661z" fill-opacity=".94"/>
  <path d="m1.6 4h12.8c1.6 0 1.6 0 1.6 1.6v4.8c0 1.6 0 1.6-1.6 1.6h-12.8c-1.6 0-1.6 0-1.6-1.6v-4.8c0-1.6 0-1.6 1.6-1.6z" fill="#ccc"/>
 </g>
 <g transform="matrix(.83333 0 0 .8 -2 -.8)">
  <path d="m6 11h12v10h-12z" fill="#dc322f"/>
 </g>
</svg>
