<svg width="16" xmlns="http://www.w3.org/2000/svg" viewBox="0 0 16 16" height="16">
 <path fill="#fff" d="m3.7143 0h8.5717c1.714 0 1.714 0 1.714 1.7778v12.444c0 1.778 0 1.778-1.714 1.778h-8.5717c-1.7143 0-1.7143 0-1.7143-1.778v-12.444c0-1.778 0-1.778 1.7143-1.778z" fill-rule="evenodd"/>
 <g transform="translate(-8.4746 11.017)" fill="#268bd2">
  <path d="m24.475 4.9831h-4v-6h4v6"/>
  <path d="m24.475-5.017c0 1.1046-0.89543 2-2 2s-2-0.89543-2-2 0.89543-2 2-2 2 0.89543 2 2z" fill-rule="evenodd"/>
 </g>
</svg>
