<svg width="16" xmlns="http://www.w3.org/2000/svg" viewBox="0 0 16 16" height="16">
 <g fill-rule="evenodd">
  <path fill="#aaa" d="m4.6667 0.0039432h6.6667c1.667 0 1.667-0.1666 1.667 1.6661v6.664c0 1.666 0 1.666-1.667 1.666h-6.6663c-1.6667 0-1.6667 0-1.6667-1.666v-6.664c0-1.6661 0-1.6661 1.6667-1.6661z" fill-opacity=".94"/>
  <path d="m1.6 4h12.8c1.6 0 1.6 0 1.6 1.6v4.8c0 1.6 0 1.6-1.6 1.6h-12.8c-1.6 0-1.6 0-1.6-1.6v-4.8c0-1.6 0-1.6 1.6-1.6z" fill="#ccc"/>
 </g>
 <g transform="matrix(.83333 0 0 .8 -2 -.8)">
  <path d="m6 11h12v10h-12z" fill="#dc322f"/>
 </g>
 <g transform="matrix(.83326 0 0 .83331 -1.9988 -1.9997)" fill-rule="evenodd">
  <path fill="#fff" d="m19 12.5a5.5 6.5 0 1 1 -11 0 5.5 6.5 0 1 1 11 0z" transform="matrix(1.091 0 0 .9231 -2.729 .4612)"/>
  <path fill="#555" d="m19 12.5a5.5 6.5 0 1 1 -11 0 5.5 6.5 0 1 1 11 0z" transform="matrix(.7273 0 0 .6154 2.181 4.308)"/>
  <path fill="#eee" d="m19 12.5a5.5 6.5 0 1 1 -11 0 5.5 6.5 0 1 1 11 0z" transform="matrix(.2727 0 0 .2308 9.818 7.615)"/>
 </g>
</svg>
