<svg width="16" xmlns="http://www.w3.org/2000/svg" viewBox="0 0 16 16" height="16">
 <path stroke-width=".705" d="m2.2703 12.648c-0.2278 0-0.41804-0.25296-0.41804-0.49225v-9.313c0-0.25569 0.22045-0.49019 0.4605-0.49019h11.37c0.24494 0 0.4654 0.2345 0.4654 0.49019v8.4379c0 0.26663-0.22045 0.49225-0.4654 0.49225h-4.4417v0.38286c0 0.25296-0.21229 0.48541-0.45723 0.48541h-6.4706-0.040825z" stroke="#a57953" fill="#a57953"/>
 <path d="m0.5424 5c-0.2952 0-0.5424 0.2367-0.5424 0.4725v9.0525c0 0.258 0.2864 0.475 0.6008 0.475h14.799c0.32 0 0.6-0.21667 0.6-0.475v-8.2083c0-0.25-0.28-0.48333-0.6-0.48333h-5.776v-0.36083c0-0.2451-0.296-0.4726-0.608-0.4726h-8.4168-0.048z" fill="#e9b080"/>
</svg>
