<svg width="16" xmlns="http://www.w3.org/2000/svg" viewBox="0 0 16 16" height="16">
 <g transform="matrix(.77778 0 0 .8 -1.3333 -1.6)" fill-rule="evenodd">
  <path d="m7 2h10c3 0 4 1 4 4v12c0 3-1 4-4 4h-10c-3 0-4-1-4-4v-12c0-3 1-4 4-4z" fill="#268bd2"/>
  <path fill="#fff" d="m7 2h10c3 0 4 1 4 4v8c0 3-1 4-4 4h-10c-3 0-4-1-4-4v-8c0-3 1-4 4-4z" fill-opacity=".3"/>
 </g>
 <g transform="translate(-4 -3)">
  <path fill="#fff" d="m10 5v1h4v-1h-4zm0 2v2h4v-2h-4zm-2.5 3 4.5 5 4.5-5h-2.5-4-1-1.5z" fill-opacity=".9"/>
 </g>
</svg>
