<svg width="16" xmlns="http://www.w3.org/2000/svg" viewBox="0 0 16 16" height="16">
 <path fill="#fff" d="m3.7143 0h8.5714c1.714 0 1.714 0 1.714 1.7778v12.444c0 1.778 0 1.778-1.714 1.778h-8.5717c-1.7143 0-1.7143 0-1.7143-1.778v-12.444c0-1.778 0-1.778 1.7143-1.778z" fill-rule="evenodd"/>
 <path d="m11 14h3s2 0.06235 2-3-2-3.2093-2-3.2093c0 2.3493-0.339 2.2093-3 2.2093 0-0.7831 0.131-1.6296-0.534-1.6296l-3.466 3.2936c-0.21622 0.20544-0.22082 0.59951 0 0.8l3.441 3.123c0.665 0 0.559-0.825 0.559-1.587z" fill="#859900"/>
</svg>
