<svg width="16" xmlns="http://www.w3.org/2000/svg" viewBox="0 0 16 16" height="16">
 <g fill-rule="evenodd">
  <path d="m1.7143 5e-8h8.5714c1.714 0 1.714 0 1.714 1.7778v12.444c0 1.778 0 1.778-1.714 1.778h-8.5717c-1.7143 0-1.7143 0-1.7143-1.778v-12.444c0-1.778 0-1.778 1.7143-1.778z" fill="#fff"/>
  <path d="m9.3754 13.375c0.14062 0 0.34375-0.125 0.59375-0.375l4.9998-4c1.0037-1.0037 1-1 0-2l-4.9999-4c-0.75-0.75-0.95312-0.375-1 1.125-0.01563 0.5 0 1.125 0 1.875-0.01055-0.000044-0.02069 0-0.03125 0-4.9688 0-6.9688 3-6.9375 7.0312 1.9687-2.031 3.9687-3.031 6.9687-2.969-0.000956 0.71694-0.0151 1.3292 0 1.8125 0.03125 1 0.125 1.5 0.40625 1.5z" fill="#268bd2"/>
 </g>
</svg>
