<svg width="16" xmlns="http://www.w3.org/2000/svg" viewBox="0 0 16 16" height="16">
 <g fill-rule="evenodd">
  <path d="m1.8333 0.00075 7.3334-0.00075c1.8333 0 1.8333 0 1.8333 1.5v9c0 1.5 0 1.5-1.8333 1.5h-7.3334c-1.8333 0-1.8333 0-1.8333-1.5v-8.9992c0-1.5 0-1.5 1.8333-1.5z" fill="#aaa"/>
  <path d="m6.8333 4h7.3337c1.833 0 1.833 0 1.833 1.5001v8.9998c0 1.5 0 1.5-1.833 1.5h-7.3337c-1.8333 0-1.8333 0-1.8333-1.5v-8.9998c0-1.5002 0-1.5002 1.8333-1.5002z" fill="#fff"/>
 </g>
 <g fill="#888">
  <path d="m7 6v1h7v-1z"/>
  <path d="m7 12v1h4v-1z"/>
  <path d="m7 9v1h7v-1z"/>
 </g>
</svg>
