<svg width="16" xmlns="http://www.w3.org/2000/svg" viewBox="0 0 16 16" height="16">
 <g transform="matrix(.8 0 0 .8 -3.2 -1.6)">
  <path d="m6 2c0 11 5 9 10.78 13.66-0.49 0.66-0.78 1.45-0.78 2.34 0 2.21 1.79 4 4 4s4-1.79 4-4c0-0.36-0.1-0.7-0.16-1.03l0.16 0.03-0.22-0.28c-0.3-0.88-0.91-1.6-1.69-2.1zm14 14c1.1 0 2 0.9 2 2s-0.9 2-2 2-2-0.9-2-2 0.9-2 2-2z" fill="#aaa"/>
 </g>
 <g transform="matrix(.8 0 0 .8 -1.6 -1.6)">
  <path d="m20 2c0 11-5 9-10.78 13.66 0.49 0.66 0.78 1.45 0.78 2.34 0 2.21-1.79 4-4 4s-4-1.79-4-4c0-0.36 0.07-0.7 0.16-1.03l-0.16 0.03 0.22-0.28c0.3-0.88 0.91-1.6 1.69-2.1zm-14 14c-1.1 0-2 0.9-2 2s0.9 2 2 2 2-0.9 2-2-0.9-2-2-2z" fill="#ccc"/>
 </g>
</svg>
