<svg width="16" xmlns="http://www.w3.org/2000/svg" viewBox="0 0 16 16" height="16">
 <g fill="#2aa198" transform="matrix(.82837 0 0 .82837 -2.4851 -2.2262)" fill-rule="evenodd">
  <path d="m11 2.6875c-4.42 0-8 3.577-8 8 0 4.42 3.58 8 8 8 1.22 0 2.3662-0.27 3.4062-0.75l3 3c1.41 1.42 1.4238 1.42 2.8438 0 1.41-1.41 1.41-1.4238 0-2.8438l-2.75-2.75c0.94-1.32 1.5-2.9162 1.5-4.6562 0-4.423-3.58-8-8-8zm-0.125 4a4 3.999 0 0 1 4.125 4 4 3.999 0 0 1 -8 0 4 3.999 0 0 1 3.875 -4z"/>
  <path d="m7 10.686a4 3.999 0 0 0 8 0 4 3.999 0 1 0 -8 0z" fill="#fff"/>
  <path d="m7 10.686a4 3.999 0 0 0 8 0 4 3.999 0 1 0 -8 0z" fill-opacity=".3"/>
 </g>
 <g transform="matrix(.83333 0 0 1 -2.3333 -6)">
  <path d="m22 6h-12v10h12z" fill="#fff"/>
 </g>
 <g transform="matrix(.75 0 0 1 -1 -6)" fill="#888">
  <path d="m12 8v2h8v-2z"/>
  <path d="m12 12v2h8v-2z"/>
 </g>
</svg>
