<svg width="16" xmlns="http://www.w3.org/2000/svg" viewBox="0 0 16 16" height="16">
 <path d="m1.8021 1c-0.40104 0-0.80208 0.40104-0.80208 0.80208v12.419c0 0.378 0.401 0.779 0.7793 0.779h12.441c0.379 0 0.78-0.401 0.78-0.779v-12.442c0-0.378-0.401-0.779-0.779-0.779z" fill="#c19553"/>
 <path fill="#fff" d="m1.8021 1c-0.40104 0-0.80208 0.40104-0.80208 0.80208v4.1979h14v-4.2207c0-0.3783-0.401-0.7793-0.779-0.7793z" fill-opacity=".196"/>
 <path d="m7 1v1h1v1h-1v1h1v1h-1v1l1 0.01v2l-1-0.01v2h2v-2l-1 0.01v-1.01h1v-1l-1 0.01v-1.01h1v-1h-1v-1h1v-1h-1v-1z" fill="#fff"/>
 <path fill="#268bd2" d="m9.6549 5.25c0.14062 0 0.34375 0.125 0.59375 0.375l5 4c1.0037 1.0037 1 1 0 2l-5 4c-0.7504 0.75-0.9535 0.375-1.0004-1.125-0.01563-0.5 0-1.125 0-1.875-0.01055 0.000044-0.02069 0-0.03125 0-4.9688 0-6.9688-3-6.9375-7.0313 1.9688 2.0312 3.9688 3.0312 6.9688 2.9688-0.000956-0.71694-0.0151-1.3292 0-1.8125 0.03125-1 0.125-1.5 0.40625-1.5z" fill-rule="evenodd"/>
</svg>
