<svg width="16" xmlns="http://www.w3.org/2000/svg" viewBox="0 0 16 16" height="16">
 <path d="m1.9412 12c-0.2405 0-0.4412-0.267-0.4412-0.526v-9.9471c0-0.2755 0.2324-0.5269 0.4891-0.5269h12.023c0.26 0 0.488 0.2514 0.488 0.5264v9.02c0 0.275-0.2275 0.53429-0.4875 0.53429h-4.6962v0.39286c0.0004 0.283-0.227 0.527-0.4789 0.527h-6.8486-0.04875z" fill="#a57953"/>
 <path d="m0.54163 3.5c-0.2944 0.0354-0.5448 0.2664-0.5416 0.5256v9.9558c0 0.26714 0.2864 0.51857 0.6 0.51857h14.8c0.312 0 0.6-0.251 0.6-0.519v-9.0345c0-0.2734-0.288-0.5233-0.6-0.5233h-5.776v-0.39757c0-0.2773-0.288-0.5256-0.608-0.5256h-8.416-0.056z" fill="#e9b080"/>
 <path d="m16 9.3333h-3.3333v-3.3333h-3.3333v3.3333h-3.3333v3.3333h3.3333v3.3333h3.3333v-3.3333h3.3333z" fill="#859900"/>
</svg>
