<svg xmlns="http://www.w3.org/2000/svg" viewBox="0 0 16 16">
 <g transform="translate(-220 -706)">
  <path d="m224.5 709v2h6c0.42816 0 0.59383 0.26733 0.46875 0.71875l-0.35 1.28h-5.25c-1.8385 0-3.1251 1.3524-3.5 2.75-0.18743 0.69881-0.16219 1.4788 0.25 2.1562 0.41219 0.67742 1.248 1.0938 2.1562 1.0938h6 0.75l0.21875-0.71875 1.6562-6c0.44-1.57-0.72-3.28-2.4-3.28h-6zm0.875 6h4.6875l-0.5625 2h-5.2188c-0.39787 0-0.42459-0.0837-0.46875-0.15625-0.0442-0.0726-0.0808-0.29256 0-0.59375 0.16157-0.60237 0.71778-1.25 1.5625-1.25z" fill="#268bd2"/>
 </g>
</svg>
