<svg xmlns="http://www.w3.org/2000/svg" viewBox="0 0 16 16">
 <g transform="translate(-180 -706)" fill="#268bd2">
  <path d="m184 708v2h6c0.42816 0 1 0.61414 1 1v1h-5c-0.91927 0-1.7356 0.38396-2.25 0.96875s-0.75639 1.3106-0.75 2.0312c0.006 0.72062 0.26893 1.4527 0.78125 2.0312 0.51 0.58 1.31 0.97 2.22 0.97h6 1v-1-6c0-1.6343-1.3198-3-3-3h-6zm2 6h5v2h-5c-0.39787 0-0.56691-0.10979-0.71875-0.28125-0.15-0.17-0.28-0.44-0.28-0.72-0.002-0.27938 0.10467-0.55354 0.25-0.71875 0.15-0.16 0.33-0.28 0.75-0.28z"/>
  <path d="m182 719v2h12v-2h-12z"/>
 </g>
</svg>
