<svg width="16" xmlns="http://www.w3.org/2000/svg" viewBox="0 0 16 16" height="16">
 <path d="m4 3v2h1 4c0.4282 0 1 0.6141 1 1v1h-3-2c-0.9193 0-1.7356 0.384-2.25 0.9688-0.5144 0.5847-0.7564 1.3106-0.75 2.0312 0.006 0.721 0.2689 1.453 0.7812 2.031 0.5124 0.579 1.3105 0.969 2.2188 0.969h2 4 1 1 1v-1-6c0-1.6343-1.32-3-3-3h-2-4-1zm3 6h3v2h-3c-0.3979 0-0.5669-0.11-0.7188-0.281-0.1518-0.172-0.2787-0.44-0.2812-0.719-0.002-0.2794 0.1047-0.5535 0.25-0.7188 0.1453-0.1652 0.3276-0.2812 0.75-0.2812z" fill="#268bd2"/>
</svg>
