<svg width="16" xmlns="http://www.w3.org/2000/svg" viewBox="0 0 16 16" height="16">
 <path fill="#cb4b16" d="m16 8.0011a8 8 0 0 1 -16 0 8 8 0 1 1 16 0z" fill-rule="evenodd"/>
 <g>
  <path fill="#fff" d="m7.4019 3.4225c-5.3166 3.9284-5.3832 2.8603-5.3832 3.9437 0 0.5634 0.1869 0.6338 1.9813 0.6338v4c0 1 0 1 1 1h1c1 0 1 0 1-1v-3h2v3c0 1 0 1 1 1h1c1 0 1 0 1-1v-4c1.7944 0 1.9813-0.070432 1.9813-0.63381 0-1.0849-0.04419 0.0041-5.3832-3.9437-0.5981-0.5633-0.5981-0.5633-1.1962 0z" fill-opacity=".9"/>
 </g>
</svg>
