<svg width="16" xmlns="http://www.w3.org/2000/svg" viewBox="0 0 16 16" height="16">
 <g transform="matrix(0 -1 1 0 .00008 16)">
  <path fill="#268bd2" d="m16 8.0012a8 8 0 0 1 -16 0 8 8 0 1 1 16 0z" fill-rule="evenodd"/>
 </g>
 <g transform="matrix(-1 0 0 1 16 -.00008)">
  <path fill="#fff" d="m12.997 8.1562c0.015-0.46455-0.24942-0.88135-0.6875-1.0625-0.43809-0.18115-0.95119-0.083075-1.2812 0.25l-2.0313 1.9688v-6.3125h-2v6.3125l-2.0313-1.9687c-0.45009-0.43826-1.1749-0.43826-1.625 0-0.45009 0.43826-0.45009 1.1555 0 1.5938l3.8437 3.7188c0.216 0.214 0.5064 0.344 0.8125 0.344 0.30606 0 0.59646-0.13046 0.8125-0.34375l3.8439-3.7185c0.21304-0.2016 0.33475-0.48908 0.34375-0.78125z" fill-opacity=".9"/>
 </g>
 <g transform="matrix(0 -1 1 0 .00008 16)">
  <path d="m12.99 1.7472a8 8 0 0 1 3.01 6.254 8 8 0 0 1 -2.9934 6.2385" fill="none"/>
 </g>
 <g transform="matrix(0 -1 1 0 .00008 16)" fill-rule="evenodd">
  <path fill="#fff" d="m12.99 1.7472a8 8 0 0 1 3.01 6.254 8 8 0 0 1 -2.9934 6.2385" fill-opacity=".9"/>
 </g>
</svg>
