<svg width="16" xmlns="http://www.w3.org/2000/svg" viewBox="0 0 16 16" height="16">
 <path fill="#268bd2" d="m16 8.0012a8 8 0 0 1 -16 0 8 8 0 1 1 16 0z" fill-rule="evenodd"/>
 <path fill="#fff" d="m8.1562 3.0034c-0.46455-0.015003-0.88135 0.24942-1.0625 0.6875s-0.083075 0.95119 0.25 1.2812l1.9688 2.0312h-6.3125v2h6.3125l-1.9688 2.0312c-0.43826 0.45009-0.43826 1.1749 0 1.625 0.43826 0.45009 1.1555 0.45009 1.5938 0l3.7185-3.8431c0.214-0.216 0.344-0.5064 0.344-0.8125 0-0.30606-0.13046-0.59646-0.34375-0.8125l-3.7185-3.8438c-0.2016-0.213-0.4891-0.3347-0.7813-0.3437z" fill-opacity=".9"/>
</svg>
