<svg width="16" xmlns="http://www.w3.org/2000/svg" viewBox="0 0 16 16" height="16">
 <path fill="#268bd2" d="m16 8.0011a8 8 0 0 1 -16 0 8 8 0 1 1 16 0z" fill-rule="evenodd"/>
 <g transform="translate(.33334 .39073)">
  <path fill="#fff" d="m6.4237 9.6093v-0.44106c0-0.3814 0.0889-0.7132 0.2668-0.9954 0.1779-0.2821 0.5033-0.5821 0.9762-0.8999 0.4555-0.2981 0.7548-0.5404 0.898-0.7272 0.1475-0.1867 0.2213-0.3954 0.2213-0.6258 0-0.2583-0.1042-0.455-0.3124-0.5901s-0.4989-0.2026-0.872-0.2026c-0.6508 0-1.3926 0.1947-2.2256 0.5841l-0.7093-1.3053c0.96746-0.49668 1.9935-0.74502 3.0781-0.74503 0.8937 0.0000089 1.603 0.1967 2.128 0.59007 0.52928 0.39338 0.79392 0.91789 0.79393 1.5735-0.000006 0.43709-0.10846 0.81457-0.32538 1.1324-0.217 0.3179-0.6288 0.6756-1.2362 1.0729-0.4165 0.2821-0.6811 0.4967-0.7939 0.6437-0.1085 0.147-0.1627 0.3397-0.1627 0.5782v0.35762h-1.7245" fill-opacity=".9"/>
 </g>
 <g transform="translate(-.4)">
  <path fill="#fff" d="m7 12c0-0.329 0.0857-0.578 0.2571-0.747 0.1715-0.169 0.421-0.253 0.7486-0.253 0.31619 0.000002 0.56 0.08627 0.73143 0.25882 0.1753 0.172 0.2629 0.419 0.2629 0.741 0 0.31-0.0876 0.555-0.2629 0.735-0.1752 0.177-0.419 0.265-0.7314 0.265-0.32 0-0.5676-0.086-0.7428-0.259-0.1753-0.176-0.2629-0.423-0.2629-0.741" fill-opacity=".9"/>
 </g>
</svg>
