<svg width="16" xmlns="http://www.w3.org/2000/svg" viewBox="0 0 16 16" height="16">
 <g transform="matrix(.70711 -.70711 .70711 .70711 -3.2405 8.1768)" fill="#268bd2">
  <path d="m2 7.0847v1.9153c0 1 1 2 2 2h8c1.0339 0 2-1 2-2.0508v-1.8984c0-1.0508-1-2.0508-2-2.0508h-8c-1 0-2 1-2 2.0847zm2-0.0847h8c1 0 1 0 1 1s0 1-1 1h-8c-1 0-1 0-1-1s0-1 1-1z"/>
  <path d="m11.25 7h6c1 0 1 2 0 2h-6c-1 0-1-2 0-2z"/>
  <path d="m-0.75 7h6c1 0 1 2 0 2h-6c-1 0-1-2 0-2z"/>
 </g>
 <g transform="matrix(.70711 -.70711 .70711 .70711 -3.2405 8.1768)" fill-opacity=".1">
  <path d="m11.25 7h6c1 0 1 2 0 2h-6c-1 0-1-2 0-2z"/>
  <path d="m-0.75 7h6c1 0 1 2 0 2h-6c-1 0-1-2 0-2z"/>
 </g>
 <path d="m6 10h10l-5 6z" fill="#cb4b16"/>
</svg>
