<svg width="16" xmlns="http://www.w3.org/2000/svg" viewBox="0 0 16 16" height="16">
 <g transform="matrix(1 0 0 .99884 -.00003 -.02196)" fill="#888">
  <path d="m10 6.1667c0 0.3468-0.0614 0.6378-0.1842 0.8731-0.1229 0.2291-0.2909 0.4148-0.5043 0.5573-0.2068 0.1362-0.4557 0.2352-0.7466 0.2972-0.2845 0.0557-0.5915 0.0836-0.9212 0.0836-0.5782 0.0057-1.1113-0.2059-1.6437-0.2873v-5.366c0.5306-0.0938 1.0255-0.2089 1.5273-0.2353 0.45252 0.0000058 0.82101 0.046446 1.1055 0.13932 0.28444 0.086693 0.50747 0.20434 0.66909 0.35294 0.16161 0.14242 0.27151 0.30341 0.3297 0.48297 0.058179 0.17957 0.087272 0.35914 0.087272 0.5387-0.0001 0.2725-0.0712 0.514-0.2134 0.7245-0.1358 0.2105-0.32 0.3777-0.5528 0.5016 0.4073 0.1424 0.6821 0.3343 0.8243 0.5758 0.1487 0.2415 0.223 0.4954 0.223 0.7616m-2.8315-0.78019v1.5604c0.084038 0.012385 0.17454 0.021673 0.27152 0.027864 0.10343 0.0062 0.20363 0.00929 0.30061 0.00929 0.13576 9e-7 0.26828-0.00929 0.39758-0.027864 0.12929-0.024767 0.24242-0.065015 0.33939-0.12074 0.1034-0.0619 0.1875-0.1455 0.2521-0.2507 0.0647-0.1115 0.097-0.2508 0.097-0.418 0-0.2786-0.0938-0.4768-0.2812-0.5944-0.181-0.1239-0.4267-0.1858-0.737-0.1858h-0.64m0.4655-0.9473c0.3038 0 0.5333-0.062 0.6884-0.1858 0.1552-0.13 0.2328-0.3065 0.2328-0.5294 0-0.1362-0.0227-0.2446-0.0679-0.3251-0.0453-0.0867-0.1067-0.1517-0.1842-0.195-0.0776-0.0496-0.1681-0.0805-0.2716-0.0929-0.10344-0.018571-0.2101-0.027859-0.32-0.027864-0.090507 0.0000049-0.18424 0.0031-0.28121 0.00929-0.096971 0.0062-0.18424 0.015485-0.26182 0.027864v1.3189h0.46545"/>
  <path d="m14.104 8.0243c-0.95708-2e-7 -1.6877-0.26006-2.1918-0.78019-0.50411-0.52012-0.91233-1.2601-0.91233-2.2198-0.01905-1.0143 0.34402-1.6145 1.0219-2.2105 0.27762-0.26006 0.60274-0.4551 0.97535-0.58514 0.37991-0.13622 0.7927-0.20433 1.2384-0.20433 0.24109 0.0000058 0.45662 0.018582 0.64658 0.055727 0.19726 0.030966 0.36895 0.068117 0.51507 0.11146 0.14612 0.04335 0.26666 0.089789 0.36164 0.13932 0.10228 0.049541 0.17899 0.086693 0.23014 0.11146l-0.351 0.9101c-0.168-0.0929-0.372-0.1703-0.613-0.2322-0.234-0.0681-0.504-0.1022-0.811-0.1022-0.21188 0.0000049-0.4201 0.034061-0.62466 0.10217-0.19726 0.061924-0.37626 0.17028-0.53699 0.32508-0.15343 0.14861-0.28128 0.34985-0.38356 0.60372-0.09498 0.25387-0.14247 0.56966-0.14247 0.94737-0.000001 0.65635 0.13151 1.161 0.39452 1.5139 0.27032 0.34675 0.70868 0.52012 1.3151 0.52012 0.35068 9e-7 0.63927-0.034055 0.86576-0.10217 0.23379-0.06811 0.42009-0.13622 0.55891-0.20433l0.33973 0.90093c-0.18996 0.099071-0.44932 0.19195-0.77808 0.27864-0.32147 0.080495-0.69407 0.12074-1.1178 0.12074"/>
  <path d="m2 2.0312-2 6h1l0.65625-2h1.6875l0.65625 2h1l-2-6h-1zm0.5 1.5 0.5 1.5h-1l0.5-1.5z"/>
 </g>
 <path d="m6 10h10l-5 6z" fill="#cb4b16"/>
</svg>
