<svg height="16" width="16" xmlns="http://www.w3.org/2000/svg" xmlns:xlink="http://www.w3.org/1999/xlink" viewBox="0 0 4.5155557 4.5155557">
 <path d="m0.33449 4.5156h3.8466c0.33449 0 0.33449 0 0.33449-0.32254v-2.7819l-2.2578-1.4112-2.2578 1.4111-2.0444e-8 2.7819c-2.3704e-9 0.32254 0 0.32254 0.33449 0.32254z" fill="#268bd2"/>
 <path d="m0.33449 4.5156h3.8466c0.33449 0 0.33449 0 0.33449-0.32254v-2.7819l-2.2578-1.4112-2.2578 1.4111-1.75e-8 2.7819c-1e-8 0.32254 0 0.32254 0.33449 0.32254z" fill-opacity=".1"/>
 <path d="m0.56444 0.56444v3.3867h3.3867v-3.3867z" fill="#fff"/>
 <g fill="#268bd2">
  <path d="m0.28222 4.5156h3.9511c0.28222 0 0.28222 0 0.28222-0.28222v-2.54l-4.5155 2.5399c0 0.28222 0 0.28222 0.28222 0.28222z"/>
  <path d="m4.2333 4.5156h-3.9511c-0.2822 0-0.2822 0-0.2822-0.2823v-2.54l4.5156 2.54c0 0.28222 0 0.28222-0.28222 0.28222z"/>
 </g>
 <path fill="#fff" d="m4.1811 4.5156h-3.8466c-0.3345 0-0.3345 0-0.3345-0.3169v-2.5054l4.5156 2.5054c0 0.31688 0 0.31688-0.33449 0.31688z" fill-opacity=".1"/>
 <path fill="#cb4b16" d="m4.0153 1.2755c0.2108 0.9119 0.1537 0.799-0.6314 0.4142-0.8248 0.4186-0.7961 0.4542-0.6262-0.4228-0.7415-0.61782-0.6566-0.56192 0.2444-0.67562 0.40552-0.81788 0.37128-0.76003 0.77724 0.005321 0.94996 0.10564 0.92757 0.069357 0.23591 0.67888z" fill-rule="evenodd"/>
</svg>
