<svg height="16" width="16" xmlns="http://www.w3.org/2000/svg" xmlns:xlink="http://www.w3.org/1999/xlink" viewBox="0 0 4.5155557 4.5155557">
 <g transform="translate(0 .56444)">
  <path d="m0.28222 0.56448c-0.28222 0-0.28222-0.00004-0.28222 0.28219v2.8222c0 0.28222-4.9194e-8 0.28222 0.28222 0.28222h3.9511c0.28222 0 0.28222 0 0.28222-0.28222v-2.8222c0-0.28222 0-0.28219-0.28222-0.28219z" fill="#268bd2"/>
  <path fill="#fff" d="m0.12347 0.5664c-0.11906 0.01322-0.12347 0.07048-0.12347 0.2819l2.2578 1.4095 2.2578-1.4095c0-0.2819 0-0.2819-0.28222-0.2819h-3.9511c-0.070556 0-0.11906-0.0044-0.15875 0z" fill-opacity=".1"/>
  <path d="m4.5156 0.84667-2.2578 1.4111 2.2578 1.4111v-2.8222z" fill-opacity=".1"/>
 </g>
 <g transform="matrix(.19956 -.19956 .19956 .19956 -.94954 1.2755)" fill-opacity="0">
  <path d="m0.625 14.033 1.4142 1.414 3.5355-3.536-1.4142-1.414z"/>
  <path d="m1.3321 9.0829h5.6569v5.6569z"/>
 </g>
 <path fill="#cb4b16" d="m4.0153 1.2755c0.2108 0.9119 0.1537 0.799-0.6314 0.4142-0.8248 0.4186-0.7961 0.4542-0.6262-0.4228-0.7415-0.61782-0.6566-0.56192 0.2444-0.67562 0.40552-0.81788 0.37128-0.76003 0.77724 0.00532 0.94996 0.10564 0.92757 0.069357 0.23591 0.67888z" fill-rule="evenodd"/>
</svg>
