<svg width="16" xmlns="http://www.w3.org/2000/svg" viewBox="0 0 16 16" height="16">
 <g fill-rule="evenodd">
  <path d="m8.5941 5.25c-0.14062 0-0.34375 0.125-0.59375 0.375l-5 4c-1.0037 1.0037-1 1 0 2l5 4c0.75 0.75 0.95312 0.375 1-1.125 0.015625-0.5 0-1.125 0-1.875 0.010546 0.000044 0.020692 0 0.03125 0 4.9684 0 6.9994-6.5938 6.9684-10.625-1.969 2.0312-4 6.625-6.9996 6.5625 0.0009566-0.71694 0.015104-1.3292 0-1.8125-0.03125-1-0.125-1.5-0.40625-1.5z" fill="#859900"/>
  <path d="m8.5941 5.25c-0.14062 0-0.34375 0.125-0.59375 0.375l-5 4c-1.0037 1.0037-1 1 0 2l5 4c0.75 0.75 0.95312 0.375 1-1.125 0.015625-0.5 0-1.125 0-1.875 0.010546 0.000044 0.020692 0 0.03125 0 4.9684 0 6.9994-6.5938 6.9684-10.625-1.969 2.0312-4 6.625-6.9996 6.5625 0.0009566-0.71694 0.015104-1.3292 0-1.8125-0.03125-1-0.125-1.5-0.40625-1.5z" fill-opacity=".1"/>
  <path d="m8.5938 1.625c-0.1407 0-0.3438 0.125-0.5938 0.375l-5 4c-1.0037 1.0037-1 1 0 2l5 4c0.75 0.75 0.9531 0.375 1-1.125 0.0156-0.5 0-1.125 0-1.875h0.0312c4.9688 0 6.9688-3 6.9378-7.0312-1.969 2.0312-3.969 3.0312-6.969 2.9687 0.001-0.7169 0.0151-1.3292 0-1.8125-0.03125-1-0.125-1.5-0.40625-1.5z" fill="#859900"/>
 </g>
</svg>
