<svg width="16" xmlns="http://www.w3.org/2000/svg" viewBox="0 0 4.5155557 4.5155557" height="16">
 <g transform="translate(0 .56444)">
  <path d="m0.28222 0.56448c-0.28222 0-0.28222-0.00004-0.28222 0.28219v2.8222c0 0.28222-4.9194e-8 0.28222 0.28222 0.28222h3.9511c0.28222 0 0.28222 0 0.28222-0.28222v-2.8222c0-0.28222 0-0.28219-0.28222-0.28219z" fill="#268bd2"/>
 </g>
 <g transform="translate(0 .56444)" fill-opacity=".1">
  <path d="m0.12347 0.5664c-0.11906 0.01322-0.12347 0.07048-0.12347 0.2819l2.2578 1.4095 2.2578-1.4095c0-0.2819 0-0.2819-0.28222-0.2819h-3.9511c-0.070556 0-0.11906-0.0044-0.15875 0z" fill="#fff"/>
  <path d="m4.5156 0.84667-2.2578 1.4111 2.2578 1.4111v-2.8222z"/>
 </g>
 <g transform="matrix(.19956 -.19956 .19956 .19956 -.94954 1.2755)" fill-opacity="0">
  <path d="m0.625 14.033 1.4142 1.414 3.5355-3.536-1.4142-1.414z"/>
  <path d="m1.3321 9.0829h5.6569v5.6569z"/>
 </g>
 <path d="m1.9756 0.84667c-0.5645 2.54 0.5644 2.2577 1.6933 3.1044 0.28222-0.56444 0-0.56444 0-0.84667 0 0 0.28222-0.28222 0.56444 0.28222 0-0.28222 0.84667-1.6933-0.56444-2.8222-0.0088 0.5502-0.2822 0.5644-0.2822 0.5644-0.2823-0.28223-0.2823-0.28223-0.2823-0.56446 0-0.25212 0.041665-0.60611 0-0.56444-0.3837 0.38377-0.5644 0.81968-0.5644 1.1289v0.28222s-0.28222 0-0.56444-0.56444z" fill="#cb4b16"/>
 <path fill="#dc322f" d="m2.8222 4.3843c-0.0002765 0.03589 0.00509 0.07743 0.013073 0.12441 0.065406 0.00917 0.12046 0.00567 0.16995-1e-7 0.015821-0.0004306 0.030723 0.0019 0.045755 0 0.048318-0.00612 0.095546-0.023971 0.13727-0.058932 0.013904-0.011657 0.025871-0.022888 0.039219-0.039288 0.076798-0.071455 0.14864-0.14794 0.22224-0.22263l0.2223-0.2227c0.073265 0.075029 0.14864 0.14794 0.22224 0.22263 0.074107 0.074162 0.1465 0.15006 0.22224 0.22263 0.011133 0.015488 0.026657 0.027954 0.039219 0.039288 0.014819 0.013365 0.029289 0.024233 0.045755 0.03274 0.030426 0.01572 0.063799 0.022209 0.098047 0.026192 0.021454 0.0025 0.04316 0.00665 0.065365 0.00655 0.010314 0.0005642 0.021598 0.0001752 0.032682 0 0.037918-0.00138 0.074108-0.00594 0.11112-0.00655 0.00525-0.037625 0.00604-0.07294 0.00654-0.10477 0.0000889-0.00595 0.0000815-0.013862 0-0.019644-0.0002105-0.014763-0.00518-0.025539-0.00654-0.039288-0.000215-0.00224 0.0002519-0.00434 0-0.00655-0.0024-0.0672-0.0117-0.1308-0.0589-0.1833-0.0116-0.0139-0.0228-0.0259-0.0392-0.0393l-0.4445-0.4452 0.4445-0.4453c0.015461-0.011152 0.027906-0.026705 0.039219-0.039288 0.013342-0.014846 0.02419-0.029341 0.032682-0.045836 0.015331-0.029153 0.022075-0.059403 0.026146-0.091672 0.0048-0.036262 0.00807-0.073307 0.00654-0.11132-0.0004928-0.031828-0.00128-0.067141-0.00654-0.10477-0.068811-0.011725-0.12258-0.012514-0.16995-0.00655-0.018101 0.0006221-0.034822 0.00384-0.052291 0.00655-0.062927 0.00976-0.12485 0.035466-0.16995 0.098221-0.0768 0.0715-0.1487 0.148-0.2223 0.2227l-0.2222 0.2226-0.4445-0.4453c-0.013347-0.0164-0.025316-0.027631-0.039219-0.039288-0.014998-0.013005-0.030004-0.02443-0.045755-0.032738-0.027183-0.014342-0.055101-0.021864-0.084973-0.026192-0.00203-0.0005124-0.00449 0.0004826-0.00654 0-0.060667-0.014175-0.12947-0.012088-0.2157 2e-7 -0.011703 0.068928-0.012491 0.1228-0.00654 0.17025 0.00243 0.016942 0.00186 0.036823 0.00654 0.052384 0.00182 0.00649 0.00433 0.01332 0.00654 0.019644 0.011908 0.055705 0.035159 0.10996 0.091509 0.1506 0.071328 0.076933 0.14768 0.1489 0.22224 0.22263 0.074564 0.073733 0.14734 0.14924 0.22224 0.22263-0.07479 0.071374-0.14927 0.14296-0.22224 0.21608-0.0011 0.00108 0.0011 0.00546 0 0.00655-0.074564 0.073732-0.15091 0.1457-0.22224 0.22263-0.015461 0.011153-0.027904 0.026704-0.039219 0.039288-0.00784 0.00873-0.013517 0.016867-0.01961 0.026192-0.00325 0.00496-0.010282 0.00798-0.013073 0.013096-0.00102 0.00192 0.0009487 0.00462 0 0.00655-0.013734 0.026691-0.02169 0.055391-0.026146 0.085123-0.0005114 0.00403 0.0003854 0.00901 0 0.013096-0.00632 0.026174-0.012833 0.053937-0.013073 0.085124z" fill-rule="evenodd"/>
</svg>
