<svg width="16" xmlns="http://www.w3.org/2000/svg" viewBox="0 0 4.5155557 4.5155557" height="16">
 <g transform="translate(0 .56444)">
  <path d="m0.28222 0.56448c-0.28222 0-0.28222-0.00004-0.28222 0.28219v2.8222c0 0.28222-4.9194e-8 0.28222 0.28222 0.28222h3.9511c0.28222 0 0.28222 0 0.28222-0.28222v-2.8222c0-0.28222 0-0.28219-0.28222-0.28219z" fill="#268bd2"/>
 </g>
 <g transform="translate(0 .56444)" fill-opacity=".1">
  <path d="m0.12347 0.5664c-0.11906 0.01322-0.12347 0.07048-0.12347 0.2819l2.2578 1.4095 2.2578-1.4095c0-0.2819 0-0.2819-0.28222-0.2819h-3.9511c-0.070556 0-0.11906-0.0044-0.15875 0z" fill="#fff"/>
  <path d="m4.5156 0.84667-2.2578 1.4111 2.2578 1.4111v-2.8222z"/>
 </g>
 <g transform="matrix(.19956 -.19956 .19956 .19956 -.94954 1.2755)" fill-opacity="0">
  <path d="m0.625 14.033 1.4142 1.414 3.5355-3.536-1.4142-1.414z"/>
  <path d="m1.3321 9.0829h5.6569v5.6569z"/>
 </g>
 <path d="m1.9756 0.84667c-0.5645 2.54 0.5644 2.2577 1.6933 3.1044 0.28222-0.56444 0-0.56444 0-0.84667 0 0 0.28222-0.28222 0.56444 0.28222 0-0.28222 0.84667-1.6933-0.56444-2.8222-0.0088 0.5502-0.2822 0.5644-0.2822 0.5644-0.2823-0.28223-0.2823-0.28223-0.2823-0.56446 0-0.25212 0.041665-0.60611 0-0.56444-0.3837 0.38377-0.5644 0.81968-0.5644 1.1289v0.28222s-0.28222 0-0.56444-0.56444z" fill="#cb4b16"/>
</svg>
