<svg height="16" width="16" xmlns="http://www.w3.org/2000/svg" xmlns:xlink="http://www.w3.org/1999/xlink" viewBox="0 0 4.5155557 4.5155557">
 <path fill="#dc322f" d="m0 3v-2h1v-1h2v1h2v-1h2v1h2v-1h2v1h2v-1h2v1h1v2h-1v2h1v2h-1v2h1v2h-1v2h1v2h-1v1h-2v-1h-2v1h-2v-1h-2v1h-2v-1h-2v1h-2v-1h-1v-2h1v-2h-1v-2h1v-2h-1v-2h1v-2z" transform="scale(.28222)"/>
 <path fill-opacity=".9" fill="#fff" d="m3 3h10v10h-10z" transform="scale(.28222)"/>
 <path fill="#dc322f" d="m5 5c1 0 2 0 2 1.375 1-1.375 4-1.375 4-1.375-1 1-2 3-2 4l2 1s-1 1-2 1c-3 0-4-2-4-6z" transform="scale(.28222)"/>
</svg>
