<svg width="16" xmlns="http://www.w3.org/2000/svg" viewBox="0 0 4.5155557 4.5155557" height="16">
 <g transform="translate(0 .56444)">
  <path d="m0.28222 0.56448c-0.28222 0-0.28222-0.00004-0.28222 0.28219v2.8222c0 0.28222-4.9194e-8 0.28222 0.28222 0.28222h3.9511c0.28222 0 0.28222 0 0.28222-0.28222v-2.8222c0-0.28222 0-0.28219-0.28222-0.28219z" fill="#268bd2"/>
  <g fill-opacity=".1">
   <path d="m0.12347 0.5664c-0.11906 0.01322-0.12347 0.07048-0.12347 0.2819l2.2578 1.4095 2.2578-1.4095c0-0.2819 0-0.2819-0.28222-0.2819h-3.9511c-0.070556 0-0.11906-0.0044-0.15875 0z" fill="#fff"/>
   <path d="m4.5156 0.84667-2.2578 1.4111 2.2578 1.4111v-2.8222z"/>
  </g>
 </g>
 <g transform="matrix(.19956 -.19956 .19956 .19956 -.94954 1.2755)" fill-opacity="0">
  <path d="m0.625 14.033 1.4142 1.414 3.5355-3.536-1.4142-1.414z"/>
  <path d="m1.3321 9.0829h5.6569v5.6569z"/>
 </g>
 <path fill-rule="evenodd" fill="#dc322f" d="m15.661 5.1525a5.6949 5.1525 0 1 1 -11.39 0 5.6949 5.1525 0 1 1 11.39 0z" transform="matrix(.19823 0 0 .21909 1.4111 0)"/>
 <g fill-opacity=".9" fill="#fff">
  <path d="m3.1044 0.28222h0.56444v1.1289h-0.56444z"/>
  <path d="m3.1044 1.6933h0.56444v0.28222h-0.56444z"/>
 </g>
</svg>
