<svg width="16" xmlns="http://www.w3.org/2000/svg" viewBox="0 0 16 16" height="16">
 <g transform="matrix(.42328 0 0 .42328 -2.5397 7.619)">
  <path d="m8.3625-18c-1.0286 0-2.3625 1.334-2.3625 2.362v30.713c0 0.97143 1.3911 2.3625 2.3625 2.3625h30.712c0.97143 0 2.3625-1.3911 2.3625-2.3625v-30.712c0.002-0.973-1.39-2.364-2.361-2.364z" fill="#c19553"/>
 </g>
 <g transform="matrix(.42328 0 0 .42328 -2.5397 -2.5397)" fill="#fff">
  <path d="m8.3625 6c-1.0286 0-2.3625 1.3339-2.3625 2.3625v9.45h35.438v-9.45c0-0.9709-1.392-2.362-2.363-2.362z" fill-opacity=".196"/>
  <path d="m20.175 10.725v14.175h7.0875v-14.175z" fill-opacity=".392"/>
 </g>
 <g transform="matrix(.7619 0 0 .7619 -.7619 -.7619)">
  <path d="m16 22 6-5.25h-3.9375v-6.5625h-3.9375v6.5625h-3.9375z" fill="#859900"/>
 </g>
</svg>
