<svg width="16" xmlns="http://www.w3.org/2000/svg" viewBox="0 0 16 16" height="16">
 <g fill-rule="evenodd">
  <path d="m16 8.0011a8 8 0 0 1 -16 0 8 8 0 1 1 16 0z" fill="#dc322f"/>
  <path fill="#fff" d="m4.0041 4.0003v1.3333c-0.029146 0.37366 0.096266 0.75541 0.37662 1.0145l1.7093 1.681-1.7093 1.6811c-0.2503 0.2505-0.3766 0.6038-0.3766 0.9568v1.3333h1.3326c0.35292 0 0.70571-0.12633 0.95603-0.3768l1.7093-1.7101 1.7093 1.7101c0.2503 0.251 0.6027 0.377 0.9557 0.377h1.333v-1.333c0-0.353-0.126-0.7063-0.377-0.9568l-1.6799-1.6811 1.7089-1.6811c0.287-0.2653 0.348-0.6331 0.348-1.0144v-1.3333h-1.3326c-0.32038 0.00932-0.5737 0.12798-0.92706 0.43477l-1.7378 1.6811-1.7093-1.6811c-0.2363-0.2448-0.5589-0.4199-0.8981-0.4348-0.013915-0.0006122-0.044146-0.0001598-0.057941 0h-1.3326z" fill-opacity=".9"/>
 </g>
</svg>
