<svg xmlns="http://www.w3.org/2000/svg" xmlns:xlink="http://www.w3.org/1999/xlink" viewBox="0 0 16 16">
 <g display="block">
  <path d="m11.438 0c-0.13294 0-0.25 0.11706-0.25 0.25v0.625c-0.297 0.0761-0.556 0.2228-0.813 0.375l-0.4688-0.5c-0.094-0.094-0.2497-0.094-0.3437 0l-0.8125 0.8125c-0.094002 0.094002-0.094002 0.24975 0 0.34375l0.5 0.4688c-0.1522 0.2569-0.2989 0.5161-0.375 0.8125h-0.625c-0.1329 0-0.25 0.1171-0.25 0.25v1.125c0 0.13294 0.11706 0.25 0.25 0.25h0.625c0.0761 0.2964 0.2228 0.5556 0.375 0.8125l-0.5 0.46875c-0.094002 0.094-0.094002 0.24975 0 0.34375l0.8125 0.8124c0.094003 0.094 0.24975 0.094 0.34375 0l0.4688-0.5c0.25692 0.15218 0.51608 0.2989 0.8125 0.375v0.625c0 0.13294 0.11706 0.25 0.25 0.25h1.125c0.13294 0 0.25-0.11706 0.25-0.25v-0.625c0.296-0.0761 0.555-0.2228 0.812-0.375l0.46875 0.5c0.094 0.094 0.24975 0.094 0.34375 0l0.812-0.8125c0.094-0.094 0.094-0.24975 0-0.34375l-0.5-0.4688c0.15218-0.25692 0.2989-0.51608 0.375-0.8125h0.625c0.13294 0 0.25-0.11706 0.25-0.25v-1.125c0-0.13294-0.11705-0.25-0.25-0.25h-0.625c-0.076-0.2964-0.223-0.5556-0.375-0.8125l0.5-0.46875c0.094-0.094002 0.094-0.24975 0-0.34375l-0.812-0.8124c-0.094-0.094002-0.24975-0.094002-0.34375 0l-0.469 0.5c-0.257-0.1522-0.516-0.2989-0.813-0.375v-0.625c0-0.13294-0.117-0.25-0.25-0.25h-1.125zm0.562 3c0.55228 0 1 0.44772 1 1s-0.44772 1-1 1-1-0.44772-1-1 0.44772-1 1-1z" fill="#888"/>
  <path d="m11.438 0c-0.13294 0-0.25 0.11706-0.25 0.25v0.625c-0.297 0.0761-0.556 0.2228-0.813 0.375l-0.4688-0.5c-0.094-0.094-0.2497-0.094-0.3437 0l-0.8125 0.8125c-0.094002 0.094002-0.094002 0.24975 0 0.34375l0.5 0.4688c-0.1522 0.2569-0.2989 0.5161-0.375 0.8125h-0.625c-0.1329 0-0.25 0.1171-0.25 0.25v1.125c0 0.13294 0.11706 0.25 0.25 0.25h0.625c0.0761 0.2964 0.2228 0.5556 0.375 0.8125l-0.5 0.46875c-0.094002 0.094-0.094002 0.24975 0 0.34375l0.8125 0.8124c0.094003 0.094 0.24975 0.094 0.34375 0l0.4688-0.5c0.25692 0.15218 0.51608 0.2989 0.8125 0.375v0.625c0 0.13294 0.11706 0.25 0.25 0.25h1.125c0.13294 0 0.25-0.11706 0.25-0.25v-0.625c0.296-0.0761 0.555-0.2228 0.812-0.375l0.46875 0.5c0.094 0.094 0.24975 0.094 0.34375 0l0.812-0.8125c0.094-0.094 0.094-0.24975 0-0.34375l-0.5-0.4688c0.15218-0.25692 0.2989-0.51608 0.375-0.8125h0.625c0.13294 0 0.25-0.11706 0.25-0.25v-1.125c0-0.13294-0.11705-0.25-0.25-0.25h-0.625c-0.076-0.2964-0.223-0.5556-0.375-0.8125l0.5-0.46875c0.094-0.094002 0.094-0.24975 0-0.34375l-0.812-0.8124c-0.094-0.094002-0.24975-0.094002-0.34375 0l-0.469 0.5c-0.257-0.1522-0.516-0.2989-0.813-0.375v-0.625c0-0.13294-0.117-0.25-0.25-0.25h-1.125zm0.562 3c0.55228 0 1 0.44772 1 1s-0.44772 1-1 1-1-0.44772-1-1 0.44772-1 1-1z" fill-opacity=".1"/>
  <path d="m3.4375 4c-0.13294 0-0.25 0.11706-0.25 0.25v0.625c-0.2964 0.0761-0.5556 0.2228-0.8125 0.375l-0.4688-0.5c-0.094-0.094-0.2497-0.094-0.3437 0l-0.8125 0.8125c-0.094002 0.094002-0.094002 0.24975 0 0.34375l0.5 0.4688c-0.1522 0.2569-0.2989 0.5161-0.375 0.8125h-0.625c-0.13294 0-0.25 0.1171-0.25 0.25v1.125c0 0.13294 0.11706 0.25 0.25 0.25h0.625c0.0761 0.2964 0.2228 0.5556 0.375 0.8125l-0.5 0.46875c-0.094002 0.094-0.094002 0.24975 0 0.34375l0.8125 0.812c0.094003 0.094 0.24975 0.094 0.34375 0l0.4688-0.5c0.25692 0.15218 0.51608 0.2989 0.8125 0.375v0.625c0 0.13294 0.11706 0.25 0.25 0.25h1.125c0.13294 0 0.25-0.11706 0.25-0.25v-0.625c0.2964-0.076 0.5556-0.223 0.8125-0.375l0.46875 0.5c0.094 0.094 0.24975 0.094 0.34375 0l0.8124-0.812c0.094-0.094 0.094-0.24975 0-0.34375l-0.5-0.469c0.1522-0.2569 0.2989-0.5161 0.375-0.8125h0.625c0.1329 0 0.25-0.1171 0.25-0.25v-1.125c0-0.1329-0.1171-0.25-0.25-0.25h-0.625c-0.0761-0.2964-0.2228-0.5556-0.375-0.8125l0.5-0.4688c0.094-0.094 0.094-0.2497 0-0.3437l-0.8125-0.8125c-0.094-0.094-0.2497-0.094-0.3437 0l-0.4688 0.5c-0.2569-0.1522-0.5161-0.2989-0.8125-0.375v-0.625c0-0.1329-0.1171-0.25-0.25-0.25h-1.125zm0.5625 3c0.5523 0 1 0.4477 1 1s-0.4477 1-1 1-1-0.4477-1-1 0.4477-1 1-1z" fill="#888"/>
  <path d="m3.4375 4c-0.13294 0-0.25 0.11706-0.25 0.25v0.625c-0.2964 0.0761-0.5556 0.2228-0.8125 0.375l-0.4688-0.5c-0.094-0.094-0.2497-0.094-0.3437 0l-0.8125 0.8125c-0.094002 0.094002-0.094002 0.24975 0 0.34375l0.5 0.4688c-0.1522 0.2569-0.2989 0.5161-0.375 0.8125h-0.625c-0.13294 0-0.25 0.1171-0.25 0.25v1.125c0 0.13294 0.11706 0.25 0.25 0.25h0.625c0.0761 0.2964 0.2228 0.5556 0.375 0.8125l-0.5 0.46875c-0.094002 0.094-0.094002 0.24975 0 0.34375l0.8125 0.812c0.094003 0.094 0.24975 0.094 0.34375 0l0.4688-0.5c0.25692 0.15218 0.51608 0.2989 0.8125 0.375v0.625c0 0.13294 0.11706 0.25 0.25 0.25h1.125c0.13294 0 0.25-0.11706 0.25-0.25v-0.625c0.2964-0.076 0.5556-0.223 0.8125-0.375l0.46875 0.5c0.094 0.094 0.24975 0.094 0.34375 0l0.8124-0.812c0.094-0.094 0.094-0.24975 0-0.34375l-0.5-0.469c0.1522-0.2569 0.2989-0.5161 0.375-0.8125h0.625c0.1329 0 0.25-0.1171 0.25-0.25v-1.125c0-0.1329-0.1171-0.25-0.25-0.25h-0.625c-0.0761-0.2964-0.2228-0.5556-0.375-0.8125l0.5-0.4688c0.094-0.094 0.094-0.2497 0-0.3437l-0.8125-0.8125c-0.094-0.094-0.2497-0.094-0.3437 0l-0.4688 0.5c-0.2569-0.1522-0.5161-0.2989-0.8125-0.375v-0.625c0-0.1329-0.1171-0.25-0.25-0.25h-1.125zm0.5625 3c0.5523 0 1 0.4477 1 1s-0.4477 1-1 1-1-0.4477-1-1 0.4477-1 1-1z" fill-opacity=".1"/>
  <path d="m9.8504 6.0111c-0.037072-0.00227-0.054951 0.01517-0.09375 0.03125l-1.3438 0.53125c-0.1552 0.06432-0.22053 0.28222-0.15625 0.4375l0.28125 0.78125c-0.30925 0.2323-0.52366 0.47919-0.75 0.78125l-0.78125-0.34375c-0.1552-0.06432-0.37322 0.032224-0.4375 0.1875l-0.53125 1.2812c-0.064285 0.15528 0.032301 0.34193 0.1875 0.40625l0.78125 0.34375c-0.053423 0.37372-0.054498 0.74194 0 1.125l-0.78125 0.34375c-0.1552 0.06432-0.22053 0.18847-0.15625 0.34375l0.5 1.3438c0.064285 0.15528 0.2823 0.22057 0.4375 0.15625l0.78125-0.3125c0.23218 0.30942 0.51061 0.55478 0.8125 0.78125l-0.34375 0.78125c-0.064284 0.15528 0.00106 0.37318 0.15625 0.4375l1.3438 0.53125c0.1552 0.06432 0.27947-0.03222 0.34375-0.1875l0.34375-0.78125c0.37352 0.05345 0.74216 0.05452 1.125 0l0.3125 0.78125c0.06429 0.15528 0.2823 0.22057 0.4375 0.15625l1.2812-0.5c0.1552-0.06432 0.25178-0.28222 0.1875-0.4375l-0.34375-0.78125c0.30925-0.2323 0.55491-0.47919 0.78125-0.78125l0.8125 0.3125c0.1552 0.06432 0.31072-0.000906 0.375-0.15625l0.5625-1.3438c0.06429-0.15528-0.000987-0.27943-0.15625-0.34375l-0.8125-0.34375c0.05342-0.37372 0.05449-0.74195 0-1.125l0.78125-0.34375c0.1552-0.06432 0.25178-0.18847 0.1875-0.34375l-0.5625-1.3438c-0.06428-0.15528-0.25105-0.25182-0.40625-0.1875l-0.78125 0.34375c-0.23218-0.30942-0.47936-0.55479-0.78125-0.78125l0.34375-0.84375c0.06429-0.15528-0.03231-0.31068-0.1875-0.375l-1.2812-0.53125c-0.1552-0.06432-0.37322 0.032224-0.4375 0.1875l-0.3125 0.78125c-0.37352-0.05345-0.74216-0.05452-1.125 0l-0.34375-0.78125c-0.051-0.1167-0.1414-0.2121-0.2526-0.2189zm1.1562 3c1.1046 0 2 0.89543 2 2s-0.89543 2-2 2-2-0.89543-2-2 0.89543-2 2-2z" fill="#888"/>
 </g>
</svg>
