<svg width="16" xmlns="http://www.w3.org/2000/svg" viewBox="0 0 16 16.0243" height="16.024">
 <path fill-rule="evenodd" fill="#dc322f" d="m-5.432 7.8085a6.8239 8.08 0 1 1 -13.648 0 6.8239 8.08 0 1 1 13.648 0z" transform="matrix(1.1724 0 0 .99009 22.368 .28106)"/>
 <g fill="#fff" fill-opacity=".9">
  <g transform="matrix(.75 0 0 .74966 2 1.9942)">
   <rect transform="scale(-1 1)" rx=".837" ry="0" height="8.004" width="2.667" y=".04" x="-9.333"/>
  </g>
  <path d="m6 2.3438c-2.3312 0.8232-4 3.0432-4 5.6562 0 3.314 2.6863 6 6 6 3.314 0 6-2.686 6-6 0-2.613-1.669-4.833-4-5.6562v2.2187c1.194 0.6921 2 1.9583 2 3.4375 0 2.209-1.791 4-4 4-2.2091 0-4-1.791-4-4 0-1.4792 0.8062-2.7454 2-3.4375v-2.2187z" fill-rule="evenodd"/>
 </g>
</svg>
