<svg width="16" xmlns="http://www.w3.org/2000/svg" viewBox="0 0 16 16" height="16">
 <path d="m8 0s5 0.00885 5.0053 3.5469v3.0549s1.9947 0 1.9947 0.80258v7.3227c0 0.673-0.715 1.273-1.5 1.273h-11c-0.7854 0-1.4999-0.6-1.5-1.273v-7.3227c0-0.8025 2.0216-0.8086 2.0216-0.8086l-0.0625-3.0488c0.0409-3.5422 5.0409-3.5469 5.0409-3.5469zm0 1.7758s-3 0-3 2.6567v2.1693h6v-2.1693c0-2.6567-3-2.6567-3-2.6567z" fill="#268bd2"/>
 <path fill-rule="evenodd" d="m8 9c-1.1046 0-2 0.89543-2 2 0 0.7396 0.4031 1.3727 1 1.7188v2.281h2v-2.281c0.5969-0.346 1-0.979 1-1.719 0-1.1046-0.8954-2-2-2z" fill-opacity=".1"/>
</svg>
