<svg width="16" xmlns="http://www.w3.org/2000/svg" viewBox="0 0 16 16.0243" height="16.024">
 <g transform="matrix(0 -1 1 0 9.5002 27.361)">
  <path fill="#859900" d="m27.349-1.5002a8 8 0 1 1 -16 0 8 8 0 1 1 16 0z" fill-rule="evenodd"/>
 </g>
 <g fill="#fff" fill-opacity=".9">
  <g transform="matrix(0 -.75 .74966 0 1.982 14.012)">
   <rect transform="scale(-1 1)" rx=".837" ry="0" height="8.004" width="2.667" y=".04" x="-9.333"/>
  </g>
  <g transform="matrix(0 -1 1 0 -.01213 16.012)">
   <path d="m6 2.3438c-2.3312 0.8232-4 3.0432-4 5.6562 0 3.3137 2.6863 6 6 6s6-2.6863 6-6c0-2.613-1.669-4.833-4-5.6562v2.2187c1.194 0.6921 2 1.9583 2 3.4375 0 2.209-1.791 4-4 4-2.2091 0-4-1.791-4-4 0-1.4792 0.8062-2.7454 2-3.4375v-2.2187z" fill-rule="evenodd"/>
  </g>
 </g>
</svg>
