<svg width="16" xmlns="http://www.w3.org/2000/svg" viewBox="0 0 16 16" height="16">
 <g transform="matrix(1 0 0 -1 0 16)">
  <path d="m11 0c-0.306 0-0.596 0.13046-0.812 0.34375l-3.8442 3.7188c-0.45009 0.43826-0.45009 1.1555 0 1.5938 0.45009 0.43826 1.1749 0.43826 1.625 0l2.0312-1.9689v6.3125 6h2v-6-6.3125l2.0312 1.9688c0.33006 0.33308 0.84316 0.43115 1.2812 0.25 0.439-0.1812 0.703-0.598 0.688-1.0625-0.009-0.2922-0.131-0.5797-0.344-0.7813l-3.844-3.7188c-0.216-0.21324-0.506-0.3437-0.812-0.3437z" fill="#dc322f"/>
 </g>
 <g fill="#268bd2" transform="matrix(1 0 0 -1 0 15)" fill-rule="evenodd">
  <path d="m6 2.5c0 1.3807-1.1193 2.5-2.5 2.5s-2.5-1.1193-2.5-2.5 1.1193-2.5 2.5-2.5 2.5 1.1193 2.5 2.5z" transform="matrix(.8 0 0 .8 -.8 1)"/>
  <path d="m6 2.5c0 1.3807-1.1193 2.5-2.5 2.5s-2.5-1.1193-2.5-2.5 1.1193-2.5 2.5-2.5 2.5 1.1193 2.5 2.5z" transform="matrix(.8 0 0 .8 -.8 6)"/>
  <path d="m6 2.5c0 1.3807-1.1193 2.5-2.5 2.5s-2.5-1.1193-2.5-2.5 1.1193-2.5 2.5-2.5 2.5 1.1193 2.5 2.5z" transform="matrix(.8 0 0 .8 -.8 11)"/>
 </g>
</svg>
