<svg xmlns="http://www.w3.org/2000/svg" xmlns:xlink="http://www.w3.org/1999/xlink" viewBox="0 0 16.0001 16.0001">
 <g>
  <g transform="translate(-.13375 .13384)">
   <path d="m2.0088 0.875c-1.0265 0-1.875 0.84854-1.875 1.875v5.4688 4.7812 1.375 0.5h0.5 1.375 10.25 1.375 0.5v-0.5-1.375-4.7812-5.4688c0-1.0265-0.84854-1.875-1.875-1.875z" fill="#fff"/>
   <path d="m2.0088 0.875c-1.0265 0-1.875 0.84854-1.875 1.875v5.4688 4.7812 1.375 0.5h0.5 1.375 10.25 1.375 0.5v-0.5-1.375-4.7812-5.4688c0-1.0265-0.84854-1.875-1.875-1.875h-10.25zm0 1h10.25c0.48976 0 0.875 0.38525 0.875 0.875v5.4688 4.7812 0.875h-0.875-10.25-0.875v-0.875-4.7812-5.4688c0-0.48975 0.38525-0.875 0.875-0.875z" fill="#888"/>
   <rect fill-opacity=".1" height="8" width="4" y="5.866" x="1.134"/>
  </g>
  <g fill="#888" transform="translate(-.13375 .13384)" fill-opacity=".9">
   <path d="m1.1338 4.8662v1h12v-1h-12z"/>
   <path d="m5.1338 5.8662v8h1v-8h-1z"/>
  </g>
 </g>
 <g transform="translate(-.13375 .13384)">
  <path d="m16.134 9.8662h-3v-3h-3v3h-3v3h3v3h3v-3h3z" fill="#859900"/>
 </g>
</svg>
