<svg width="16" xmlns="http://www.w3.org/2000/svg" viewBox="0 0 16 16" height="16">
 <path fill="#dc322f" d="m4.5938 3.9375c-0.1713-0.0013-0.3696 0.0244-0.5938 0.0625-0.0438 0.3127-0.027 0.5759 0 0.8125 0.0021 0.0756-0.0091 0.1469 0 0.2187 0.0292 0.2311 0.1144 0.4568 0.2812 0.6563 0.0557 0.0665 0.1093 0.1237 0.1876 0.1875 0.341 0.3672 0.706 0.7106 1.0624 1.0625l1.0626 1.0625c-0.3581 0.3503-0.7061 0.7106-1.0626 1.0625-0.3539 0.3543-0.7161 0.7004-1.0624 1.0625-0.074 0.053-0.1335 0.127-0.1876 0.187-0.0637 0.071-0.1156 0.141-0.1562 0.219-0.075 0.146-0.106 0.305-0.125 0.469-0.0119 0.103-0.0317 0.206-0.0312 0.312-0.0027 0.05-0.0009 0.104 0 0.157 0.0065 0.181 0.0283 0.354 0.0312 0.531 0.1796 0.025 0.3481 0.029 0.5 0.031 0.0284 0.001 0.0662 0.001 0.0938 0 0.0704-0.001 0.1218-0.024 0.1874-0.031 0.0107-0.001 0.0207 0.001 0.0313 0 0.3211-0.011 0.6243-0.056 0.875-0.281 0.0665-0.056 0.1237-0.109 0.1875-0.188l2.125-2.1248 2.125 2.1248c0.053 0.074 0.127 0.134 0.187 0.188 0.071 0.064 0.141 0.115 0.219 0.156 0.139 0.073 0.284 0.106 0.438 0.125 0.173 0.023 0.35 0.039 0.531 0.031 0.152-0.002 0.32-0.006 0.5-0.031 0.056-0.329 0.06-0.586 0.031-0.812-0.003-0.087-0.018-0.167-0.031-0.25-0.047-0.301-0.169-0.597-0.469-0.813-0.341-0.3672-0.706-0.7106-1.062-1.0625l-1.0628-1.0625 2.1248-2.125c0.079-0.0638 0.132-0.121 0.188-0.1875 0.062-0.0717 0.116-0.1435 0.156-0.2187 0.068-0.13 0.104-0.2635 0.125-0.4063 0.002-0.0097-0.002-0.0214 0-0.0313 0.068-0.29 0.058-0.6189 0-1.0312-0.329-0.056-0.586-0.0597-0.812-0.0312-0.081 0.0116-0.176 0.0088-0.25 0.0312-0.031 0.0087-0.064 0.0207-0.094 0.0312-0.266 0.057-0.525 0.1681-0.719 0.4376-0.3672 0.341-0.7106 0.706-1.0625 1.0624-0.3519 0.3565-0.7122 0.7045-1.0625 1.0626-0.3406-0.3576-0.6823-0.7137-1.0312-1.0626-0.0052-0.0052-0.0261 0.0053-0.0313 0-0.3519-0.3564-0.6953-0.7214-1.0625-1.0624-0.0532-0.074-0.1274-0.1335-0.1875-0.1876-0.0416-0.0374-0.0805-0.0646-0.125-0.0937-0.0237-0.0155-0.0381-0.0492-0.0625-0.0625-0.0092-0.0048-0.022 0.0045-0.0312 0-0.1274-0.0657-0.2644-0.1037-0.4063-0.125-0.0193-0.0024-0.043 0.0019-0.0625 0-0.1249-0.0302-0.2574-0.0614-0.4062-0.0625z" fill-rule="evenodd"/>
</svg>
