<svg xmlns:rdf="http://www.w3.org/1999/02/22-rdf-syntax-ns#" xmlns="http://www.w3.org/2000/svg" height="48" width="48" version="1.1" xmlns:cc="http://creativecommons.org/ns#" xmlns:xlink="http://www.w3.org/1999/xlink" xmlns:dc="http://purl.org/dc/elements/1.1/">
 <defs>
  <linearGradient id="linearGradient12443" y2="3" gradientUnits="userSpaceOnUse" x2="27.5" y1=".5" x1="27.5">
   <stop stop-color="#fff" offset="0"/>
   <stop stop-color="#fff" stop-opacity="0" offset="1"/>
  </linearGradient>
  <filter id="filter5545" height="1.2268" width="1.2548" y="-.11340" x="-.12742">
   <feGaussianBlur stdDeviation="1.5119887"/>
  </filter>
  <clipPath id="clipPath5567" clipPathUnits="userSpaceOnUse">
   <path opacity=".35" d="m24.188 8c-2.03 0-3.688 1.6364-3.688 3.656 0 1.0091 0.40001 1.9313 1.0625 2.5938l3.3438 3.3438-0.90625 0.125-12.5-2c-0.242-0.175-0.549-0.262-0.844-0.219-0.098 0.014-0.191 0.05-0.281 0.094-0.363 0.173-0.6183 0.578-0.625 0.968-0.0022 0.264 0.1285 0.504 0.312 0.688l10.031 10.062v0.375l-3.4688 10.625c-0.2894 0.4196-0.24678 0.94072 0.09375 1.2812l8.407 8.407h20.875c1.108 0 2-0.892 2-2v-20.062l-10.062-10.063c-0.23064-0.23064-0.55902-0.35027-0.90625-0.3125-0.17333 0.026-0.33209 0.0879-0.46875 0.1875l-2.688 0.438-7.094-7.0942c-0.666-0.6663-1.574-1.0938-2.593-1.0938z"/>
  </clipPath>
 </defs>
 <g transform="translate(0 -1004.4)">
  <rect style="color:#000000" ry="2" height="48" width="48" y="1004.4" x="0" fill="#19aeff"/>
  <g transform="matrix(.35545 0 0 .14361 171.12 1002.5)"></g>
  <g transform="matrix(.32314 0 0 .32314 -55.272 805.26)"></g>
  <path id="use5502" style="block-progression:tb;text-indent:0;color:#000000;text-transform:none" d="m10 15.75v0.5h5v-0.5h-5z" fill="#fff"/>
  <use id="use5504" xlink:href="#use5502" transform="translate(0,4)" height="48" width="48" y="0" x="0"/>
  <use id="use5506" xlink:href="#use5504" transform="translate(0,4)" height="48" width="48" y="0" x="0"/>
  <use xlink:href="#use5506" transform="translate(0,4)" height="48" width="48" y="0" x="0"/>
  <path opacity=".25" style="block-progression:tb;text-indent:0;color:#000000;text-transform:none" d="m5.0938 1004.4c0.5651 0.5541 0.91717 1.3026 0.9375 2.1563 0.04141 1.7391-1.3545 3.2086-3.0938 3.25-1.3734 0.032-2.5402-0.8466-3-2.0625v24.5l0.9375 0.094-0.0625 0.9375v0.062l0.28125 1.75v0.062l1.3438 2.875 0.0625 0.125h0.15625l1.9375-0.031h0.15625l0.0625-0.1563 1.1875-2.9375v-0.031l0.21875-1.7813v-0.062l-0.125-0.9375 2.7812-0.4375 0.21875 0.875h0.0625v0.031l0.8125 1.5625v0.062h0.0625l2.125 2.3437 0.09375 0.094 0.15625-0.031 1.8438-0.6875h0.15625v-0.1562l0.21875-3.2188v-0.031l-0.34375-1.7188v-0.062h-0.0625l-0.34375-0.8125 2.4688-1.3437 0.5 0.7812h0.0625l1.25 1.25 0.0625 0.031 2.75 1.5625 0.15625 0.062 0.09375-0.062 1.5312-1.2188 0.15625-0.094-0.0625-0.1563-0.75-3.0625-0.0625-0.062-0.8125-1.5v-0.062h-0.0625l-0.59375-0.6562 1.9688-2.0625 0.6875 0.5625v0.062h0.0625l1.5312 0.75 0.0625 0.031 3.125 0.625 0.125 0.031 0.09375-0.1563 1.1562-1.5937 0.0625-0.094-0.0625-0.1562-1.6875-2.6563-0.0625-0.062-1.3125-1.1875v-0.062l-0.78125-0.4687 1.2188-2.5313 0.84375 0.3125v0.062h0.03125l1.75 0.25h0.03125l3.1875-0.375h0.15625v-0.1562l0.59375-1.875 0.0625-0.1563-0.125-0.094-2.4375-2v-0.062h-0.0625l-1.5938-0.75h-0.0625v-0.031l-0.875-0.1875 0.3125-2.8125 0.9375 0.094h0.0625l1.75-0.3125h0.0625l2.875-1.3438 0.15625-0.031-0.03125-0.1563-0.03125-1.9687v-0.1563l-0.15625-0.031-0.84375-0.3438h-28.25zm15.219 6.5625c1.5746-0.037 3.4612 2.8477 2.7188 4.5625-2.0929 4.7326-5.8227 8.5904-10.469 10.875-1.6975 0.6672-4.526-1.0307-4.5625-2.5625l-0.28125-12.594 12.594-0.2813z"/>
  <path opacity=".25" style="block-progression:tb;text-indent:0;color:#000000;text-transform:none" d="m40.906 1016.3-0.15625 0.031-1.9688 0.25-0.09375 0.031-0.0625 0.125-0.8125 3.0625v0.062 1.7812l-0.03125 0.031 0.1875 0.9062-2.6875 0.8438-0.34375-0.8438 0.03125-0.031-0.03125-0.031-1-1.4687-0.03125-0.031-2.4375-2.0937-0.09375-0.094-0.09375 0.094-1.8125 0.8437-0.125 0.062v0.1563l0.1875 3.1562-0.03125 0.062 0.03125 0.031 0.53125 1.6562 0.03125 0.062-0.03125 0.031 0.5 0.75-2.3125 1.6875-0.5625-0.75-0.03125-0.031-1.4375-1.0937-0.03125-0.031-2.9375-1.1875-0.125-0.094-0.125 0.125-1.4062 1.375-0.09375 0.094 0.0625 0.125 1.0938 3 0.03125 0.031 1.0625 1.4375 0.03125 0.031 0.75 0.5938-1.75 2.25-0.75-0.5-0.03125 0.031-0.0625-0.031-1.6562-0.5938-0.03125-0.031-0.03125 0.031-3.1562-0.2812h-0.15625l-0.0625 0.125-0.90625 1.7812-0.09375 0.094 0.09375 0.094 2.0312 2.5 0.03125 0.031 1.4062 1.0312 0.03125 0.062 0.03125-0.062 0.84375 0.375-0.90625 2.6563-0.90625-0.2188-0.03125 0.031-1.7812-0.062h-0.0625l-3.0625 0.7187-0.15625 0.094-0.03125 0.094-0.3125 1.9375-0.03125 0.1875 0.125 0.062 2.6562 1.75h0.0625l1.6562 0.5313 0.03125 0.031 0.03125-0.031 0.90625 0.094-0.0625 2.8438-0.90625 0.062-0.03125-0.031-0.03125 0.031-1.625 0.5h-0.09375l-2.6875 1.6562-0.15625 0.062 0.03125 0.1875 0.15625 1.25h9.6875c-0.91045-4.1571-0.63318-8.525 0.875-12.531l0.0625-0.1563c0.07969-0.1654 0.15708-0.3239 0.28125-0.4687 1.1104-1.2938 3.8213-1.7388 4.7812-0.75l8.7812 9.0625-4.9688 4.8437h13.344c1.108 0 2-0.892 2-2v-12.938l-3.5938 3.5-8.7812-9.0312c-0.95995-0.9889-0.45119-3.6784 0.875-4.75 0.1877-0.1554 0.40459-0.2664 0.625-0.3438 3.4999-1.2004 7.2581-1.49 10.875-0.875v-8.6562l-1.25 1.9062v0.062l-0.5625 1.625-0.03125 0.031 0.03125 0.031-0.0625 0.9063-2.875-0.031-0.03125-0.9062 0.03125-0.031-0.03125-0.031-0.5-1.6563v-0.062l-1.6875-2.7187-0.0625-0.125zm3.375 28.188c0.80607 0.012 1.6129 0.3446 2.2188 0.9687 1.2118 1.2483 1.1858 3.2257-0.0625 4.4375-1.2481 1.2119-3.2258 1.1858-4.4375-0.062-1.2118-1.2482-1.1857-3.2257 0.0625-4.4375 0.6241-0.6059 1.4127-0.9182 2.2188-0.9062z"/>
 </g>
 <g>
  <path opacity=".35" d="m24.188 8c-2.03 0-3.688 1.6364-3.688 3.656 0 1.009 0.4 1.932 1.062 2.594l3.344 3.344-0.906 0.125-12.5-2c-0.242-0.175-0.549-0.262-0.844-0.219-0.098 0.014-0.191 0.05-0.281 0.094-0.363 0.173-0.6183 0.578-0.625 0.968-0.0022 0.264 0.1285 0.504 0.312 0.688l10.032 10.062v0.376l-3.469 10.624c-0.289 0.42-0.247 0.941 0.094 1.282l8.406 8.406h20.875c1.108 0 2-0.892 2-2v-20.062l-10.062-10.063c-0.231-0.231-0.56-0.35-0.907-0.313-0.173 0.026-0.332 0.088-0.469 0.188l-2.687 0.438-7.094-7.0942c-0.666-0.6663-1.574-1.0938-2.593-1.0938z"/>
  <g transform="matrix(1.1 0 0 .44444 241.16 29.369)"></g>
  <g transform="translate(-459.44 -580.99)"></g>
  <path opacity=".6" d="m27.853 11.663c0 2.0233-1.6466 3.6632-3.6799 3.6632-2.0299 0-3.6766-1.6399-3.6766-3.6632 0-2.0199 1.6466-3.6632 3.6766-3.6632 2.0333 0 3.6799 1.6433 3.6799 3.6632zm9.1831 3.8966c-0.17333 0.026-0.33332 0.097-0.46999 0.1966l-12.566 1.949-12.5-1.976c-0.32332-0.2333-0.77665-0.3034-1.1366-0.13-0.36332 0.1733-0.59665 0.5833-0.60332 0.9733-0.00333 0.39 0.24666 0.7266 0.60332 0.91l9.7931 3.0966-0.06667 7.1031-3.4566 10.64c-0.33333 0.4833-0.23 1.1065 0.26666 1.4265 0.49999 0.3267 1.21 0.2267 1.54-0.26l5.5799-11.483 5.4699 11.466c0.29666 0.5 0.95664 0.6767 1.4733 0.3899 0.51665-0.2899 0.69665-0.9299 0.40332-1.4299l-3.3932-10.686-0.13333-6.6865 9.9297-3.6165c0.40332-0.27 0.57665-0.79 0.40332-1.2333s-0.64998-0.7033-1.14-0.65z" clip-path="url(#clipPath5567)" filter="url(#filter5545)"/>
 </g>
 <g>
  <path fill="#fff" d="m27.853 11.663c0 2.0233-1.6466 3.6632-3.6799 3.6632-2.0299 0-3.6766-1.6399-3.6766-3.6632 0-2.0199 1.6466-3.6632 3.6766-3.6632 2.0333 0 3.6799 1.6433 3.6799 3.6632zm9.1831 3.8966c-0.17333 0.026-0.33332 0.097-0.46999 0.1966l-12.566 1.949-12.5-1.976c-0.32332-0.2333-0.77665-0.3034-1.1366-0.13-0.36332 0.1733-0.59665 0.5833-0.60332 0.9733-0.00333 0.39 0.24666 0.7266 0.60332 0.91l9.7931 3.0966-0.06667 7.1031-3.4566 10.64c-0.33333 0.4833-0.23 1.1065 0.26666 1.4265 0.49999 0.3267 1.21 0.2267 1.54-0.26l5.5799-11.483 5.4699 11.466c0.29666 0.5 0.95664 0.6767 1.4733 0.3899 0.51665-0.2899 0.69665-0.9299 0.40332-1.4299l-3.3932-10.686-0.13333-6.6865 9.9297-3.6165c0.40332-0.27 0.57665-0.79 0.40332-1.2333s-0.64998-0.7033-1.14-0.65z"/>
 </g>
 <g>
  <path opacity=".4" style="color:#000000" d="m2 0c-1.108 0-2 0.892-2 2v44c0 1.108 0.892 2 2 2h44c1.108 0 2-0.892 2-2v-44c0-1.108-0.892-2-2-2h-44zm0 0.5h44c0.83101 0 1.5 0.66899 1.5 1.5v44c0 0.83101-0.66899 1.5-1.5 1.5h-44c-0.831 0-1.5-0.669-1.5-1.5v-44c0-0.831 0.669-1.5 1.5-1.5z" fill="url(#linearGradient12443)"/>
 </g>
</svg>
