<svg xmlns:rdf="http://www.w3.org/1999/02/22-rdf-syntax-ns#" xmlns="http://www.w3.org/2000/svg" height="48" width="48" version="1.1" xmlns:cc="http://creativecommons.org/ns#" xmlns:xlink="http://www.w3.org/1999/xlink" xmlns:dc="http://purl.org/dc/elements/1.1/">
 <defs>
  <linearGradient id="linearGradient3803" y2="3" gradientUnits="userSpaceOnUse" x2="27.5" gradientTransform="translate(0,5)" y1=".5" x1="27.5">
   <stop stop-color="#fff" offset="0"/>
   <stop stop-color="#fff" stop-opacity="0" offset="1"/>
  </linearGradient>
 </defs>
 <g transform="translate(0 -1004.4)">
  <g transform="translate(-40.191 1005.5)">
   <flowRoot style="word-spacing:0px;letter-spacing:0px" line-height="125%" xml:space="preserve" font-size="40px" transform="translate(-18.262 -1007.9)" font-family="sans-serif" fill="#000000"><flowRegion><rect y="6.6343" width="57.629" x="-53.033" height="49.321"/></flowRegion><flowPara/></flowRoot>
  </g>
  <path style="color:#000000" d="m2 1004.4h44c1.108 0 2 0.892 2 2v44c0 1.108-0.892 2-2 2h-44c-1.108 0-2-0.892-2-2v-44c0-1.108 0.892-2 2-2z" fill="#9eabb0"/>
  <rect style="color:#000000" ry="0" height="44" width="44" y="1006.4" x="2" fill="#005c94"/>
 </g>
 <g>
  <flowRoot style="word-spacing:0px;letter-spacing:0px" xml:space="preserve" transform="translate(-18.262 -1007.9)" line-height="125%" font-size="40px" font-family="sans-serif" fill="#000000"><flowRegion><rect y="6.6343" x="-53.033" width="57.629" height="49.321"/></flowRegion><flowPara/></flowRoot>
  <path opacity=".25" style="color:#000000" d="m20 10c-1.108 0-2 0.892-2 2v2h-4c-1.662 0-3 1.338-3 3v11c0 0.831 0.33275 1.5828 0.875 2.125l17.875 17.875h16.25c1.108 0 2-0.892 2-2v-20.25l-10.875-10.875c-0.542-0.542-1.294-0.875-2.125-0.875h-1.199l-3.385-3.416c-0.362-0.361-0.862-0.584-1.416-0.584z"/>
 </g>
 <g>
  <path style="color:#000000" d="m20 10c-1.108 0-2 0.892-2 2v2h-4c-1.662 0-3 1.338-3 3v11c0 1.662 1.338 3 3 3h21c1.662 0 3-1.338 3-3v-11c0-1.662-1.338-3-3-3h-4v-2c0-1.108-0.892-2-2-2h-9zm4.5 6c3.578 0 6.5 2.922 6.5 6.5s-2.922 6.5-6.5 6.5-6.5-2.922-6.5-6.5 2.922-6.5 6.5-6.5zm0 2c-2.497 0-4.5 2.003-4.5 4.5s2.003 4.5 4.5 4.5 4.5-2.003 4.5-4.5-2.003-4.5-4.5-4.5z" fill="#fff"/>
 </g>
 <g>
  <rect style="color:#000000" height="3" width="29" y="43" x="10" fill="#0e232e"/>
  <rect style="color:#000000" height="4" width="4" y="41" x="12" fill="#dc0000"/>
  <rect style="color:#000000" height="4" width="4" y="41" x="19" fill="#9ade00"/>
  <rect style="color:#000000" height="4" width="4" y="41" x="26" fill="#d76cff"/>
  <rect style="color:#000000" height="4" width="4" y="41" x="33" fill="#999"/>
  <path opacity=".4" style="color:#000000" d="m2 0c-1.108 0-2 0.892-2 2v44c0 1.108 0.892 2 2 2h44c1.108 0 2-0.892 2-2v-44c0-1.108-0.892-2-2-2zm0 0.5h44c0.83101 0 1.5 0.669 1.5 1.5v44c0 0.831-0.66899 1.5-1.5 1.5h-44c-0.831 0-1.5-0.669-1.5-1.5v-44c0-0.831 0.669-1.5 1.5-1.5z" fill="url(#linearGradient3803)"/>
 </g>
</svg>
