<svg xmlns:rdf="http://www.w3.org/1999/02/22-rdf-syntax-ns#" xmlns="http://www.w3.org/2000/svg" height="48" width="48" version="1.1" xmlns:cc="http://creativecommons.org/ns#" xmlns:xlink="http://www.w3.org/1999/xlink" xmlns:dc="http://purl.org/dc/elements/1.1/">
 <defs>
  <linearGradient id="linearGradient12443" y2="3" gradientUnits="userSpaceOnUse" y1=".5" x2="27.5" x1="27.5">
   <stop stop-color="#fff" offset="0"/>
   <stop stop-color="#fff" stop-opacity="0" offset="1"/>
  </linearGradient>
  <filter id="filter3794" height="1.384" width="1.384" color-interpolation-filters="sRGB" y="-.192" x="-.192">
   <feGaussianBlur stdDeviation="5.28"/>
  </filter>
  <clipPath id="clipPath3613">
   <rect rx="6" ry="6" height="84" width="84" y="6" x="6" fill="#fff"/>
  </clipPath>
  <filter id="filter3174" color-interpolation-filters="sRGB">
   <feGaussianBlur stdDeviation="1.71"/>
  </filter>
  <linearGradient id="linearGradient6599" y2="138.66" gradientUnits="userSpaceOnUse" y1="20.221" x2="48" x1="48">
   <stop stop-color="#fff" offset="0"/>
   <stop stop-color="#fff" stop-opacity="0" offset="1"/>
  </linearGradient>
  <linearGradient id="linearGradient6602" y2="7.0165" gradientUnits="userSpaceOnUse" y1="92.54" gradientTransform="scale(1.0059 .99417)" x2="45.448" x1="45.448">
   <stop offset="0"/>
   <stop stop-opacity=".58824" offset="1"/>
  </linearGradient>
 </defs>
 <g transform="translate(0 -1004.4)">
  <rect style="color:#000000" ry="2" height="48" width="48" y="1004.4" x="0" fill="#fff"/>
  <path style="color:#000000" d="m2 1004.4c-1.108 0-2 0.8109-2 1.8182v8.1818h48v-8.1818c0-1.0073-0.892-1.8182-2-1.8182h-44z" fill="#364e59"/>
  <path d="m3 2-1 1 2 2-2 2 1 1 2-2 2 2 1-1-2-2 2-2-1-1-2 2z" transform="translate(0 1004.4)" fill="#fff"/>
  <path d="m11 4v2h4v-2z" transform="translate(0 1004.4)" fill="#fff"/>
  <path d="m18 2v6h6v-6zm2 2h2v2h-2z" transform="translate(0 1004.4)" fill="#fff"/>
  <g transform="translate(15.865 25.237)">
   <path d="m1.872-0.376 0.587-0.118 0.039-0.003 0.675 0.243v0.508l-0.675 0.243-0.039-0.003-0.587-0.118-0.282 0.682 0.498 0.332 0.029 0.025 0.306 0.649-0.359 0.359-0.649-0.306-0.025-0.029-0.332-0.498-0.682 0.282 0.118 0.587 0.003 0.039-0.243 0.675h-0.508l-0.243-0.675 0.003-0.039 0.118-0.587-0.682-0.282-0.332 0.498-0.025 0.029-0.649 0.306-0.359-0.359 0.306-0.649 0.029-0.025 0.498-0.332-0.282-0.682-0.587 0.118-0.039 0.003-0.675-0.243v-0.508l0.675-0.243 0.039 0.003 0.587 0.118 0.282-0.682-0.498-0.332-0.029-0.025-0.306-0.649 0.359-0.359 0.649 0.306 0.025 0.029 0.332 0.498 0.682-0.282-0.118-0.587-0.003-0.039 0.243-0.675h0.508l0.243 0.675-0.003 0.039-0.118 0.587 0.682 0.282 0.332-0.498 0.025-0.029 0.649-0.306 0.359 0.359-0.306 0.649-0.029 0.025-0.498 0.332z" fill="none" stroke="#000"/>
  </g>
  <g transform="translate(-4.4483 18.801)">
   <path fill="none" stroke="#000" d="m18.674-4.005 4.723-1.013 1.578 0.05 6.809 3.246v3.444l-6.809 3.246-1.578 0.05-4.723-1.013-2.638 6.368 4.056 2.623 1.081 1.151 2.52 7.11-2.436 2.436-7.11-2.52-1.151-1.081-2.623-4.056-6.368 2.638 1.013 4.723-0.05 1.578-3.246 6.809h-3.444l-3.246-6.809-0.05-1.578 1.013-4.723-6.368-2.638-2.623 4.056-1.151 1.081-7.11 2.52-2.436-2.436 2.52-7.11 1.081-1.151 4.056-2.623-2.638-6.368-4.723 1.013-1.578-0.05-6.809-3.246v-3.444l6.809-3.246 1.578-0.05 4.723 1.013 2.638-6.368-4.056-2.623-1.081-1.151-2.52-7.11 2.436-2.436 7.11 2.52 1.151 1.081 2.623 4.056 6.368-2.638-1.013-4.723 0.05-1.578 3.246-6.809h3.444l3.246 6.809 0.05 1.578-1.013 4.723 6.368 2.638 2.623-4.056 1.151-1.081 7.11-2.52 2.436 2.436-2.52 7.11-1.081 1.151-4.056 2.623z"/>
  </g>
  <rect opacity=".9" rx="6" transform="matrix(5.0049 0 0 5.0049 1276.9 1241.4)" ry="6" filter="url(#filter3174)" width="86" display="none" y="7" x="5" height="85" fill="url(#linearGradient6602)"/>
  <rect ry="12" stroke="#fff" stroke-linecap="round" stroke-width=".5" fill="url(#linearGradient6599)" rx="12" transform="matrix(5.0049 0 0 5.0049 1276.9 1241.4)" width="66" opacity=".1" clip-path="url(#clipPath3613)" height="66" filter="url(#filter3794)" y="15" x="15" display="none"/>
  <text style="word-spacing:0px;letter-spacing:0px" font-size="200px" line-height="125%" y="1793.837" x="51.203964" font-family="Gentium Book Basic" xml:space="preserve" fill="#000000"><tspan y="1793.837" x="51.203964"/></text>
  <path style="color:#000000" d="m847.84 1297.3c-7.1453 0-13.74 3.8119-17.312 10-3.572 6.1878-3.5724 13.812 0 20 0.93042 1.611 2.0465 3.0489 3.3438 4.3125 0.0826 0.083 0.16601 0.1681 0.25 0.25l251.06 250.81c3.4907 2.7891 7.9381 4.3575 12.406 4.375 7.25-0.019 14.304-4.3214 17.656-10.75 3.3518-6.4287 2.8535-14.701-1.2813-20.656-0.2486-0.3626-0.5092-0.717-0.7812-1.0625l-250.91-251.12c-0.0831-0.084-0.16538-0.1677-0.25-0.25-3.6237-3.6523-8.6364-5.9062-14.188-5.9062zm60 0c-7.1453 0-13.74 3.8119-17.312 10-3.572 6.1878-3.5724 13.812 0 20 0.93042 1.611 2.0465 3.0489 3.3438 4.3125 0.0826 0.083 0.16601 0.1681 0.25 0.25l251.06 250.81c3.4907 2.7891 7.9381 4.3575 12.406 4.375 7.25-0.019 14.304-4.3214 17.656-10.75 3.3518-6.4287 2.8535-14.701-1.2813-20.656-0.2486-0.3626-0.5092-0.717-0.7812-1.0625l-250.91-251.12c-0.0831-0.084-0.16538-0.1677-0.25-0.25-3.6237-3.6523-8.6364-5.9062-14.188-5.9062zm60 0c-7.1453 0-13.74 3.8119-17.312 10-3.572 6.1878-3.5724 13.812 0 20 0.93042 1.611 2.0465 3.0489 3.3438 4.3125 0.0826 0.083 0.16601 0.1681 0.25 0.25l251.06 250.81c3.4907 2.7891 7.9381 4.3575 12.406 4.375 7.25-0.019 14.304-4.3214 17.656-10.75 3.3518-6.4287 2.8535-14.701-1.2813-20.656-0.2486-0.3626-0.5092-0.717-0.7812-1.0625l-250.91-251.12c-0.0831-0.084-0.16538-0.1677-0.25-0.25-3.6237-3.6523-8.6364-5.9062-14.188-5.9062z" fill-opacity=".31373" display="none"/>
  <path d="m802.91 1439.3c-13.688 0-15.123 0.9081-18.531 11.469-3.1027 9.6149-5.5821 11.943-17.5 16.562-10.829 4.1976-13.953 4.1884-19.25 0-6.4234-5.0789-14.498-3.3778-22.438 4.6875-8.9496 9.0908-9.5667 12.082-4.5312 21.688 4.5103 8.6039 4.3538 12.318-1.0625 24.219-4.1018 9.0128-6.071 10.856-14.438 13.594-9.5265 3.1167-11.25 6.0448-11.25 19.031 0.5279 4.7111 0.0399 10.889 2.8125 14.125l27.5 27.468c1.8957 5.3663 1.0095 6.6522-2.3438 12.969-5.4123 10.195-5.1193 12.686 3.8125 21.781l303.87 303.78c0.8936 0.8261 1.7188 1.5093 2.5 2.125 5.4413 4.2885 8.6191 3.6237 16.344-0.6562 6.4082-3.5506 8.9741-4.3252 15.156-2.3125l27.089 27.06c1.9665 1.8769 3.99 2.125 13.656 2.125 13.922 0 16.403-1.3453 18.281-9.75 2.4974-11.174 3.8953-12.702 15.719-17.562 12.903-5.3046 13.891-5.387 19.719-1.4063 8.9954 6.1443 14.284 5.595 22.531-2.3125 9.685-9.2858 11.588-14.728 7.3438-21.188-6.2342-9.4883-6.4216-12.188-1.5938-23.781 4.6977-11.28 7.3387-13.539 17.594-15.188 7.6175-1.2244 9.081-3.8602 9.5625-16.969 0.3354-9.1339 0.011-13.732-2.5-16.656l-28.03-28.061c-1.7172-5.771-1.1248-8.7527 1.5625-12.406 5.4952-7.4711 4.8924-14.379-1.9375-21.719-0.1046-0.1125-0.2092-0.2022-0.3125-0.3125-0.626-0.6689-1.2337-1.3152-1.8125-1.9063l-300.53-300.7c-0.0975-0.097-0.21623-0.1867-0.3125-0.2812-0.11124-0.1079-0.20283-0.2078-0.3125-0.3125-7.5624-7.3351-11.426-7.3973-20.688-2.5-6.901 3.6489-9.812 4.2974-14.812 2.5937l-26.34-26.3c-2.729-2.8393-6.7479-3.1605-14.595-3.1605z" fill-opacity=".31373" display="none"/>
 </g>
 <g>
  <flowRoot opacity=".25" style="word-spacing:0px;letter-spacing:0px" line-height="125%" xml:space="preserve" font-size="40px" transform="translate(32.627 -1001.2)" font-family="sans-serif" fill="#000000"><flowRegion><rect height="49.321" width="57.629" y="6.6343" x="-53.033" fill="#000"/></flowRegion><flowPara/></flowRoot>
  <flowRoot style="word-spacing:0px;letter-spacing:0px" xml:space="preserve" transform="translate(-104.89 -1017.8)" line-height="125%" font-size="40px" font-family="sans-serif" fill="#000000"><flowRegion><rect y="6.6343" x="-53.033" width="57.629" height="49.321"/></flowRegion><flowPara/></flowRoot>
  <path opacity=".25" d="m23.844 18c-1.4933 0-1.6595 0.098-2.0312 1.25-0.16924 0.52445-0.32174 0.83596-0.59375 1.0938-0.13066 0.12383-0.2986 0.26814-0.5 0.375-0.21786 0.11559-0.47471 0.2128-0.8125 0.34375-1.1814 0.4567-1.5159 0.4569-2.0938 0-0.526-0.416-1.167-0.428-1.813-0.032-0.10865 0.06571-0.23483 0.16211-0.34375 0.25-0.10246 0.08446-0.21012 0.17725-0.3125 0.28125-0.97632 0.9917-1.0493 1.3271-0.5 2.375 0.18451 0.35198 0.30598 0.62898 0.34375 0.90625 0.02798 0.18345-0.02229 0.38756-0.0625 0.59375-0.06411 0.31017-0.15429 0.64005-0.375 1.125-0.11187 0.2458-0.21342 0.43037-0.3125 0.59375-0.29561 0.50051-0.58759 0.67931-1.2812 0.90625-0.38972 0.1275-0.65822 0.25672-0.84375 0.4375-0.30921 0.3013-0.375 0.73956-0.375 1.625 0 0.40756 0.01732 0.72123 0.0625 0.96875 0.0015 0.0079-0.0015 0.02346 0 0.03125 0.01252 0.06369 0.04542 0.13247 0.0625 0.1875 0.02593 0.07979 0.05581 0.15556 0.09375 0.21875 0.03502 0.05832 0.07811 0.10936 0.125 0.15625l0.03125 0.03125c0.05973 0.05475 0.1082 0.11319 0.1875 0.15625l2.6875 2.7188c0.08534 0.22908 0.151 0.38469 0.15625 0.53125 0.0041 0.11532-0.01898 0.22542-0.0625 0.34375-0.0077 0.02093 0.0092 0.0406 0 0.0625-0.01802 0.04418-0.03835 0.07538-0.0625 0.125-0.05846 0.12328-0.12236 0.25595-0.21875 0.4375-0.6086 1.1464-0.56448 1.3988 0.5 2.4688l9.438 9.439h21c1.108 0 2-0.892 2-2v-9.0312l-15.375-15.375c-1.0971-1.1789-1.5015-1.2668-2.6562-0.65625-0.77742 0.41112-1.1079 0.45916-1.6875 0.25l-2.625-2.625-0.03125-0.03125c-0.009-0.014-0.023-0.019-0.032-0.032l-0.125-0.15625c-0.07426-0.07684-0.15296-0.14179-0.25-0.1875-0.284-0.134-0.679-0.156-1.312-0.156z"/>
 </g>
 <g>
  <path d="m22.456 41.698c-0.3799-0.4193-0.57028-0.8256-0.57028-1.2172 0-0.514-0.49833-0.9462-1.6157-1.4013-1.2534-0.5104-1.451-0.5115-2.3517-0.012-1.1013 0.6102-1.3597 0.5555-2.4225-0.5128-1.0645-1.07-1.1163-1.322-0.50771-2.4684 0.49572-0.9337 0.49854-0.8551-0.0806-2.25-0.531-1.278-0.738-1.479-1.797-1.752-1.009-0.259-1.173-0.533-1.173-1.949 0-1.4167 0.1894-1.7368 1.2287-2.0768 0.91271-0.2986 1.1263-0.5 1.5738-1.4832 0.59087-1.2983 0.6088-1.704 0.11676-2.6426-0.54932-1.0479-0.48087-1.3749 0.49545-2.3666 0.86618-0.8799 1.7468-1.063 2.4475-0.5089 0.57788 0.4569 0.91898 0.4567 2.1004 0 1.3001-0.504 1.5688-0.7587 1.9073-1.8076 0.371-1.151 0.529-1.249 2.022-1.249 1.6113 0 1.7438 0.1166 2.2404 1.9736 0.07892 0.295 0.47612 0.5266 1.9662 1.1462 0.71962 0.2992 1.0102 0.2703 1.874-0.1865 1.1547-0.6105 1.5427-0.5126 2.6397 0.6663 0.74508 0.8007 0.81305 1.5549 0.21358 2.3699-0.39744 0.5404-0.3738 0.9435 0.12648 2.1571 0.53013 1.286 0.66628 1.4219 1.7497 1.7462 1.2023 0.36 1.3476 0.6235 1.2849 2.3306-0.05252 1.43-0.21349 1.7149-1.0445 1.8485-1.1187 0.1798-1.4062 0.4283-1.9187 1.6589-0.52667 1.2647-0.50712 1.5578 0.17298 2.5929 0.46297 0.7046 0.25706 1.3004-0.79948 2.3134-0.89972 0.8626-1.4784 0.9218-2.4597 0.2515-0.63577-0.4342-0.74375-0.4266-2.1514 0.1521-1.289 0.531-1.44 0.7-1.713 1.919-0.204 0.917-0.476 1.061-1.994 1.061-1.1674 0-1.3142-0.028-1.5605-0.3zm3.0787-8.2126c2.4637-1.1716 3.0116-4.2832 1.0999-6.2464-1.9686-2.0214-5.3471-1.2773-6.3433 1.3973-1.2044 3.2335 2.1389 6.3254 5.2434 4.8491z" fill="#444"/>
 </g>
 <g>
  <path opacity=".4" style="color:#000000" d="m2 0c-1.108 0-2 0.892-2 2v44c0 1.108 0.892 2 2 2h44c1.108 0 2-0.892 2-2v-44c0-1.108-0.892-2-2-2h-44zm0 0.5h44c0.83101 0 1.5 0.66899 1.5 1.5v44c0 0.83101-0.66899 1.5-1.5 1.5h-44c-0.831 0-1.5-0.669-1.5-1.5v-44c0-0.831 0.669-1.5 1.5-1.5z" fill="url(#linearGradient12443)"/>
 </g>
</svg>
