<svg xmlns:rdf="http://www.w3.org/1999/02/22-rdf-syntax-ns#" xmlns="http://www.w3.org/2000/svg" height="48" width="48" version="1.1" xmlns:cc="http://creativecommons.org/ns#" xmlns:xlink="http://www.w3.org/1999/xlink" xmlns:dc="http://purl.org/dc/elements/1.1/">
 <defs>
  <linearGradient id="linearGradient12443" y2="3" gradientUnits="userSpaceOnUse" y1=".5" x2="27.5" x1="27.5">
   <stop stop-color="#fff" offset="0"/>
   <stop stop-color="#fff" stop-opacity="0" offset="1"/>
  </linearGradient>
  <filter id="filter5630" height="1.243" width="1.2371" y="-.12149" x="-.11854">
   <feGaussianBlur stdDeviation="1.6172488"/>
  </filter>
  <clipPath id="clipPath5652" clipPathUnits="userSpaceOnUse">
   <path opacity=".25" style="color:#000000" d="m24.406 6.3125c-0.41805-0.012517-0.82783 0.00611-1.25 0.03125-0.94726 0.056405-1.8921 0.21376-2.8438 0.46875-7.613 2.0399-12.164 9.8865-10.124 17.5l1.0625 1.0625-0.65625 0.1875c-2.1405 0.57354-3.386 2.7658-2.8125 4.9062l1.2812 4.8125c0.051099 0.1907 0.14324 0.38643 0.21875 0.5625 0.047873 0.11078 0.068207 0.23923 0.125 0.34375 0.10143 0.18653 0.2165 0.33492 0.34375 0.5 0.00865 0.01138 0.022488 0.01998 0.03125 0.03125 0.097272 0.12344 0.20232 0.26482 0.3125 0.375l0.21875 0.1875 0.15625 0.15625 10.562 10.564h24.907c1.108 0 2-0.892 2-2v-21.656l-13.5-13.5-0.28125-0.3125c-0.0054-0.0055-0.02579 0.0055-0.03125 0-0.355-0.355-0.738-0.6866-1.126-1.0007-0.337-0.2736-0.671-0.5397-1.031-0.7813-0.0555-0.037248-0.10025-0.088531-0.15625-0.125-0.05811-0.0378-0.12886-0.056793-0.1875-0.09375-0.30946-0.19521-0.61418-0.39131-0.9375-0.5625-0.0618-0.032721-0.12523-0.061926-0.1875-0.09375-0.08303-0.042488-0.16615-0.08412-0.25-0.125-0.36075-0.17564-0.75031-0.32359-1.125-0.46875-0.47248-0.18305-0.94645-0.33625-1.4375-0.46875-0.29047-0.07849-0.57914-0.1586-0.875-0.21875-0.0627-0.012763-0.12458-0.019324-0.1875-0.03125-0.31984-0.060579-0.64386-0.11766-0.96875-0.15625-0.01019-0.00121-0.02106 0.00119-0.03125 0-0.02062-0.00238-0.04186 0.00229-0.0625 0-0.3609-0.040486-0.7281-0.081176-1.0938-0.09375-0.02091-0.0006851-0.04157 0.0005924-0.0625 0z"/>
  </clipPath>
 </defs>
 <g transform="translate(0 -1004.4)">
  <rect style="color:#000000" ry="2" height="48" width="48" y="1004.4" x="-.0625" fill="#0084c8"/>
 </g>
 <g>
  <flowRoot style="word-spacing:0px;letter-spacing:0px" line-height="125%" xml:space="preserve" font-size="40px" transform="translate(32.627 -1001.2)" font-family="sans-serif" fill="#000000"><flowRegion><rect y="6.6343" width="57.629" x="-53.033" height="49.321"/></flowRegion><flowPara/></flowRoot>
  <path opacity=".25" style="color:#000000" d="m24.406 6.3125c-0.418-0.0125-0.828 0.0061-1.25 0.0313-0.947 0.0564-1.892 0.2137-2.844 0.4687-7.613 2.0399-12.164 9.8865-10.124 17.5l1.062 1.063-0.656 0.187c-2.1407 0.574-3.3863 2.766-2.8128 4.907l1.2813 4.812c0.0511 0.191 0.1432 0.387 0.2187 0.563 0.0479 0.111 0.0683 0.239 0.125 0.344 0.1015 0.186 0.2166 0.334 0.3438 0.5 0.0086 0.011 0.0225 0.019 0.0312 0.031 0.0973 0.123 0.2024 0.265 0.3128 0.375l0.218 0.187 0.157 0.157 10.562 10.562h24.907c1.108 0 2-0.892 2-2v-21.656l-13.5-13.5-0.282-0.313c-0.005-0.005-0.026 0.006-0.031 0-0.354-0.354-0.737-0.6856-1.125-0.9998-0.337-0.2735-0.671-0.5396-1.031-0.7812-0.056-0.0372-0.101-0.0885-0.157-0.125-0.058-0.0378-0.128-0.0568-0.187-0.0938-0.309-0.1952-0.614-0.3913-0.937-0.5624-0.062-0.0328-0.126-0.062-0.188-0.0938-0.083-0.0425-0.166-0.0841-0.25-0.125-0.361-0.1756-0.75-0.3236-1.125-0.4688-0.472-0.183-0.946-0.3362-1.437-0.4687-0.291-0.0785-0.58-0.1586-0.876-0.2187-0.062-0.0128-0.124-0.0194-0.187-0.0313-0.32-0.0606-0.644-0.1177-0.969-0.1563-0.01-0.0012-0.021 0.0012-0.031 0-0.021-0.0023-0.042 0.0023-0.063 0-0.36-0.0404-0.728-0.0811-1.093-0.0937-0.021-0.0007-0.042 0.0006-0.063 0z"/>
  <path opacity=".6" style="color:#000000" d="m37.404 25.56c2.1405 0.57354 3.402 2.7585 2.8284 4.899l-1.2941 4.8296c-0.57354 2.1405-2.7585 3.402-4.899 2.8284l-0.96593-0.25882c-0.3352-0.08982-0.63707-0.24725-0.92549-0.40974l3.2838-12.255c0.33102 0.0035 0.67116 0.01808 1.0064 0.10789l0.96593 0.25882zm-26.809 0c-2.1405 0.57354-3.402 2.7585-2.8284 4.899l1.2941 4.8296c0.57354 2.1405 2.7585 3.402 4.899 2.8284l0.96593-0.25882c0.3352-0.08982 0.63707-0.24725 0.92549-0.40974l-3.283-12.254c-0.33102 0.0035-0.67117 0.01808-1.0064 0.10789l-0.96593 0.25882zm12.562-19.227c-0.94726 0.056405-1.8782 0.21232-2.8298 0.46731-7.613 2.0399-12.165 9.8851-10.125 17.498l1.9471-0.49327c-1.7602-6.569 2.1022-13.298 8.6712-15.058 6.569-1.7602 13.298 2.1022 15.058 8.6712 0.55848 2.0843 0.55848 4.3023 0 6.3865l1.9471 0.49327c0.63779-2.3803 0.6411-4.8586 0.02596-7.2433l-0.02596-0.12981c-1.785-6.661-8.038-10.987-14.668-10.592z" clip-path="url(#clipPath5652)" filter="url(#filter5630)"/>
 </g>
 <g>
  <path style="color:#000000" d="m37.404 25.56c2.1405 0.57354 3.402 2.7585 2.8284 4.899l-1.2941 4.8296c-0.57354 2.1405-2.7585 3.402-4.899 2.8284l-0.96593-0.25882c-0.3352-0.08982-0.63707-0.24725-0.92549-0.40974l3.2838-12.255c0.33102 0.0035 0.67116 0.01808 1.0064 0.10789l0.96593 0.25882zm-26.809 0c-2.1405 0.57354-3.402 2.7585-2.8284 4.899l1.2941 4.8296c0.57354 2.1405 2.7585 3.402 4.899 2.8284l0.96593-0.25882c0.3352-0.08982 0.63707-0.24725 0.92549-0.40974l-3.283-12.254c-0.33102 0.0035-0.67117 0.01808-1.0064 0.10789l-0.96593 0.25882zm12.562-19.227c-0.94726 0.056405-1.8782 0.21232-2.8298 0.46731-7.613 2.0399-12.165 9.8851-10.125 17.498l1.9471-0.49327c-1.7602-6.569 2.1022-13.298 8.6712-15.058 6.569-1.7602 13.298 2.1022 15.058 8.6712 0.55848 2.0843 0.55848 4.3023 0 6.3865l1.9471 0.49327c0.63779-2.3803 0.6411-4.8586 0.02596-7.2433l-0.02596-0.12981c-1.785-6.661-8.038-10.987-14.668-10.592z" fill="#0e232e"/>
  <path style="block-progression:tb;text-indent:0;color:#000000;text-transform:none" d="m22.893 22.048-3.4952 11.001-1.3185-5.274-0.23733-0.92296-0.5274 0.79111-1.6877 2.5315 1.8459-1.2658 1.4504 5.8278 0.36918 1.4767 0.44829-1.4504 2.6525-8.5421 1.0103 15.472 2.0332-11.36 1.1075 2.7689 0.34281 0.87022 0.42192-0.84385 2.2678-4.562 2.7161 1.5558-2.5315-2.5315-0.39555-0.42192-0.2637 0.5274-2.1096 4.2192-1.3449-3.349-0.58014-1.424-0.23733 1.5295-1.0175 7.3301z" fill="#fff"/>
 </g>
 <g>
  <path opacity=".4" style="color:#000000" d="m2 0c-1.108 0-2 0.892-2 2v44c0 1.108 0.892 2 2 2h44c1.108 0 2-0.892 2-2v-44c0-1.108-0.892-2-2-2h-44zm0 0.5h44c0.83101 0 1.5 0.66899 1.5 1.5v44c0 0.83101-0.66899 1.5-1.5 1.5h-44c-0.831 0-1.5-0.669-1.5-1.5v-44c0-0.831 0.669-1.5 1.5-1.5z" fill="url(#linearGradient12443)"/>
 </g>
</svg>
