<svg xmlns:rdf="http://www.w3.org/1999/02/22-rdf-syntax-ns#" xmlns="http://www.w3.org/2000/svg" height="48" width="48" version="1.1" xmlns:cc="http://creativecommons.org/ns#" xmlns:xlink="http://www.w3.org/1999/xlink" xmlns:dc="http://purl.org/dc/elements/1.1/">
 <defs>
  <linearGradient id="linearGradient12443" y2="3" gradientUnits="userSpaceOnUse" x2="27.5" y1=".5" x1="27.5">
   <stop stop-color="#fff" offset="0"/>
   <stop stop-color="#fff" stop-opacity="0" offset="1"/>
  </linearGradient>
  <filter id="filter5799" height="1.5355" width="1.4349" y="-.26774" x="-.21747">
   <feGaussianBlur stdDeviation="2.9005346"/>
  </filter>
  <clipPath id="clipPath5874" clipPathUnits="userSpaceOnUse">
   <path opacity=".25" style="color:#000000" d="m24.844 11c-0.44802 0.0008-0.8895 0.1217-1.25 0.375-0.68908 0.4811-0.81584 1.2779-0.28125 1.8125l0.09375 0.09375 3.375 3.375-11.907 0.031c-1.0507 0.0004-2.0819 0.6907-2.2812 1.5625-0.1036 0.4462 0.01767 0.83017 0.3125 1.125l0.25 0.21875 3.375 3.4062-7.375 5.6875c-0.01409 0.012-0.04896 0.02025-0.0625 0.03125-1.0846 0.8299-1.4332 2.2202-0.75 3.0938l0.125 0.15625c0.027139 0.02714 0.064951 0.03751 0.09375 0.0625l15.969 15.968h21.469c1.108 0 2-0.892 2-2v-15.156l-10.875-10.875c-0.318-0.318-0.67-0.627-1.031-0.907l-10-7.6562-0.032-0.031c-0.328-0.252-0.77-0.376-1.218-0.375z"/>
  </clipPath>
 </defs>
 <g transform="translate(0 -1004.4)">
  <rect style="color:#000000" ry="2" height="48" width="48" y="1004.4" x="0" fill="#ff4141"/>
 </g>
 <g>
  <flowRoot style="word-spacing:0px;letter-spacing:0px" xml:space="preserve" transform="translate(-18.262 -1007.9)" line-height="125%" font-size="40px" font-family="sans-serif" fill="#000000"><flowRegion><rect y="6.6343" x="-53.033" width="57.629" height="49.321"/></flowRegion><flowPara/></flowRoot>
  <path opacity=".25" style="color:#000000" d="m24.844 11c-0.44802 0.0008-0.8895 0.1217-1.25 0.375-0.68908 0.4811-0.81584 1.2779-0.28125 1.8125l0.09375 0.09375 3.375 3.375-11.907 0.031c-1.0507 0.0004-2.0819 0.6907-2.2812 1.5625-0.1036 0.4462 0.01767 0.83017 0.3125 1.125l0.25 0.21875 3.375 3.4062-7.375 5.6875c-0.01409 0.012-0.04896 0.02025-0.0625 0.03125-1.0846 0.8299-1.4332 2.2202-0.75 3.0938l0.125 0.15625c0.027139 0.02714 0.064951 0.03751 0.09375 0.0625l15.969 15.968h21.469c1.108 0 2-0.892 2-2v-15.156l-10.875-10.875c-0.318-0.318-0.67-0.627-1.031-0.907l-10-7.6562-0.032-0.031c-0.328-0.252-0.77-0.376-1.218-0.375z"/>
  <path filter="url(#filter5799)" d="m24.843 11c-0.44802 0.0008-0.89576 0.1279-1.2563 0.3812-0.73004 0.5097-0.81812 1.3584-0.16938 1.8914l4.164 3.3876-12.704 0.014h-0.01412c-1.0507 0.0004-2.0732 0.695-2.2726 1.5668-0.20608 0.8876 0.51662 1.6198 1.6091 1.6233l6.4366-0.014-11.49 8.8361c-0.01409 0.012-0.0288 0.017-0.04234 0.028-1.0846 0.8299-1.4454 2.2177-0.76222 3.0912 0.69278 0.8893 2.1647 0.886 3.2606 0l6.2813-5.138s-0.09203 0.6991-0.08469 1.1152c0.0073 0.4184 0.13889 1.2291 0.33877 1.8632 0.42007 1.342 1.1394 2.5752 2.1314 3.6699 1.0174 1.1242 2.2652 2.0269 3.7123 2.6678 1.5205 0.6742 3.172 1.0191 4.8839 1.0163 1.7096 0 3.3487-0.3517 4.8698-1.0304 1.4471-0.647 2.7101-1.5566 3.7264-2.6818 0.99033-1.0982 1.6967-2.3421 2.1173-3.6842 0.21229-0.6786 0.34159-1.3556 0.39523-2.0467 0.05307-0.6803 0.04009-1.3658-0.05646-2.0467-0.18858-1.3274-0.64874-2.5774-1.3551-3.7123-0.64704-1.0429-1.4793-1.9558-2.4702-2.7242l-10.008-7.6787c-0.0085-0.01-0.01861-0.01-0.02823-0.014-0.32832-0.252-0.7659-0.3819-1.2139-0.381zm4.0228 8.8503c1.6752 0 3.2736 0.5466 4.531 1.5667 0.64027 0.5217 1.1614 1.1361 1.5386 1.821 0.38563 0.6967 0.62051 1.4617 0.69165 2.2725 0.07058 0.8254-0.0446 1.6554-0.32465 2.4278-0.28682 0.7877-0.7515 1.5154-1.3833 2.1596-1.2935 1.3172-3.0941 2.071-5.0533 2.075-1.9615 0-3.7739-0.7459-5.0674-2.0609-0.6318-0.6408-1.097-1.3736-1.3833-2.1596-0.28005-0.7712-0.3828-1.5871-0.31054-2.4137 0.06888-0.8085 0.30715-1.5747 0.69165-2.2725 0.37716-0.6849 0.8966-1.311 1.5386-1.835 1.2563-1.0242 2.8569-1.5786 4.531-1.5809zm0.14115 2.0467c-1.1366 0-2.176 0.3895-2.9501 1.0445-0.7882 0.6669-1.3093 1.6148-1.3692 2.6819-0.05985 1.0965 0.36982 2.11 1.1433 2.8654 0.78876 0.7685 1.9191 1.2563 3.1759 1.2563 1.2563 0 2.3731-0.4878 3.1618-1.2563 0.77408-0.7554 1.2173-1.7678 1.1574-2.8654-0.06041-1.066-0.58042-2.015-1.3692-2.6819-0.77352-0.655-1.8152-1.0445-2.9501-1.0445z" clip-path="url(#clipPath5874)"/>
 </g>
 <g>
  <path d="m24.843 11c-0.44802 0.0008-0.89576 0.1279-1.2563 0.3812-0.73004 0.5097-0.81812 1.3584-0.16938 1.8914l4.164 3.3876-12.704 0.014h-0.01412c-1.0507 0.0004-2.0732 0.695-2.2726 1.5668-0.20608 0.8876 0.51662 1.6198 1.6091 1.6233l6.4366-0.014-11.49 8.8361c-0.01409 0.012-0.0288 0.017-0.04234 0.028-1.0846 0.8299-1.4454 2.2177-0.76222 3.0912 0.69278 0.8893 2.1647 0.886 3.2606 0l6.2813-5.138s-0.09203 0.6991-0.08469 1.1152c0.0073 0.4184 0.13889 1.2291 0.33877 1.8632 0.42007 1.342 1.1394 2.5752 2.1314 3.6699 1.0174 1.1242 2.2652 2.0269 3.7123 2.6678 1.5205 0.6742 3.172 1.0191 4.8839 1.0163 1.7096 0 3.3487-0.3517 4.8698-1.0304 1.4471-0.647 2.7101-1.5566 3.7264-2.6818 0.99033-1.0982 1.6967-2.3421 2.1173-3.6842 0.21229-0.6786 0.34159-1.3556 0.39523-2.0467 0.05307-0.6803 0.04009-1.3658-0.05646-2.0467-0.18858-1.3274-0.64874-2.5774-1.3551-3.7123-0.64704-1.0429-1.4793-1.9558-2.4702-2.7242l-10.008-7.6787c-0.0085-0.01-0.01861-0.01-0.02823-0.014-0.32832-0.252-0.7659-0.3819-1.2139-0.381zm4.0228 8.8503c1.6752 0 3.2736 0.5466 4.531 1.5667 0.64027 0.5217 1.1614 1.1361 1.5386 1.821 0.38563 0.6967 0.62051 1.4617 0.69165 2.2725 0.07058 0.8254-0.0446 1.6554-0.32465 2.4278-0.28682 0.7877-0.7515 1.5154-1.3833 2.1596-1.2935 1.3172-3.0941 2.071-5.0533 2.075-1.9615 0-3.7739-0.7459-5.0674-2.0609-0.6318-0.6408-1.097-1.3736-1.3833-2.1596-0.28005-0.7712-0.3828-1.5871-0.31054-2.4137 0.06888-0.8085 0.30715-1.5747 0.69165-2.2725 0.37716-0.6849 0.8966-1.311 1.5386-1.835 1.2563-1.0242 2.8569-1.5786 4.531-1.5809zm0.14115 2.0467c-1.1366 0-2.176 0.3895-2.9501 1.0445-0.7882 0.6669-1.3093 1.6148-1.3692 2.6819-0.05985 1.0965 0.36982 2.11 1.1433 2.8654 0.78876 0.7685 1.9191 1.2563 3.1759 1.2563 1.2563 0 2.3731-0.4878 3.1618-1.2563 0.77408-0.7554 1.2173-1.7678 1.1574-2.8654-0.06041-1.066-0.58042-2.015-1.3692-2.6819-0.77352-0.655-1.8152-1.0445-2.9501-1.0445z" fill="#fff"/>
 </g>
 <path opacity=".4" style="color:#000000" d="m2 0c-1.108 0-2 0.892-2 2v44c0 1.108 0.892 2 2 2h44c1.108 0 2-0.892 2-2v-44c0-1.108-0.892-2-2-2h-44zm0 0.5h44c0.83101 0 1.5 0.66899 1.5 1.5v44c0 0.83101-0.66899 1.5-1.5 1.5h-44c-0.831 0-1.5-0.669-1.5-1.5v-44c0-0.831 0.669-1.5 1.5-1.5z" fill="url(#linearGradient12443)"/>
</svg>
