<svg xmlns:rdf="http://www.w3.org/1999/02/22-rdf-syntax-ns#" xmlns="http://www.w3.org/2000/svg" height="48" width="48" version="1.1" xmlns:cc="http://creativecommons.org/ns#" xmlns:xlink="http://www.w3.org/1999/xlink" xmlns:dc="http://purl.org/dc/elements/1.1/">
 <defs>
  <linearGradient id="linearGradient12443" y2="3" gradientUnits="userSpaceOnUse" x2="27.5" y1=".5" x1="27.5">
   <stop stop-color="#fff" offset="0"/>
   <stop stop-color="#fff" stop-opacity="0" offset="1"/>
  </linearGradient>
  <filter id="filter4045-0" width="1.267" y="-.10899" x="-.13348" height="1.218" color-interpolation-filters="sRGB">
   <feGaussianBlur stdDeviation="0.62925288"/>
  </filter>
  <filter id="filter4073" height="1.3642" width="1.7036" y="-.18212" x="-.35182">
   <feGaussianBlur stdDeviation="1.1727407"/>
  </filter>
  <filter id="filter4081" height="1.436" width="1.5339" y="-.21798" x="-.26697">
   <feGaussianBlur stdDeviation="1.2585058"/>
  </filter>
  <filter id="filter4089" height="1.5339" width="1.436" y="-.26697" x="-.21798">
   <feGaussianBlur stdDeviation="1.2585058"/>
  </filter>
  <clipPath id="clipPath4111" clipPathUnits="userSpaceOnUse">
   <path style="color:#000000" d="m24 8c-8.828 0-16 7.172-16 16s7.172 16 16 16c8.8281 0 16-7.1719 16-16s-7.1719-16-16-16zm0 9.1324c3.7835 0 6.8676 3.0841 6.8676 6.8676s-3.0841 6.8676-6.8676 6.8676-6.8676-3.0841-6.8676-6.8676 3.0841-6.8676 6.8676-6.8676z" fill="#ccc"/>
  </clipPath>
  <clipPath id="clipPath4133" clipPathUnits="userSpaceOnUse">
   <path style="color:#000000" d="m24 8c-8.828 0-16 7.172-16 16s7.172 16 16 16c8.8281 0 16-7.1719 16-16s-7.1719-16-16-16zm0 9.1324c3.7835 0 6.8676 3.0841 6.8676 6.8676s-3.0841 6.8676-6.8676 6.8676-6.8676-3.0841-6.8676-6.8676 3.0841-6.8676 6.8676-6.8676z" fill="#ccc"/>
  </clipPath>
  <clipPath id="clipPath4155" clipPathUnits="userSpaceOnUse">
   <path style="color:#000000" d="m24 8c-8.828 0-16 7.172-16 16s7.172 16 16 16c8.8281 0 16-7.1719 16-16s-7.1719-16-16-16zm0 9.1324c3.7835 0 6.8676 3.0841 6.8676 6.8676s-3.0841 6.8676-6.8676 6.8676-6.8676-3.0841-6.8676-6.8676 3.0841-6.8676 6.8676-6.8676z" fill="#ccc"/>
  </clipPath>
  <clipPath id="clipPath4177" clipPathUnits="userSpaceOnUse">
   <path style="color:#000000" d="m24 8c-8.828 0-16 7.172-16 16s7.172 16 16 16c8.8281 0 16-7.1719 16-16s-7.1719-16-16-16zm0 9.1324c3.7835 0 6.8676 3.0841 6.8676 6.8676s-3.0841 6.8676-6.8676 6.8676-6.8676-3.0841-6.8676-6.8676 3.0841-6.8676 6.8676-6.8676z" fill="#ccc"/>
  </clipPath>
  <filter id="filter4183" height="1.48" width="1.48" y="-.24" x="-.24">
   <feGaussianBlur stdDeviation="1.3856406"/>
  </filter>
  <filter id="filter4183-5" width="1.48" y="-0.24" x="-0.24" height="1.48" color-interpolation-filters="sRGB">
   <feGaussianBlur stdDeviation="1.3856406"/>
  </filter>
  <clipPath id="clipPath4236" clipPathUnits="userSpaceOnUse">
   <path style="color:#000000" d="m24 8c-8.828 0-16 7.172-16 16s7.172 16 16 16c8.8281 0 16-7.1719 16-16s-7.1719-16-16-16zm0 9.1324c3.7835 0 6.8676 3.0841 6.8676 6.8676s-3.0841 6.8676-6.8676 6.8676-6.8676-3.0841-6.8676-6.8676 3.0841-6.8676 6.8676-6.8676z" fill="#ccc"/>
  </clipPath>
  <clipPath id="clipPath4247" clipPathUnits="userSpaceOnUse">
   <path style="color:#000000" d="m24 8c-8.828 0-16 7.172-16 16s7.172 16 16 16c8.8281 0 16-7.1719 16-16s-7.1719-16-16-16zm0 9.1324c3.7835 0 6.8676 3.0841 6.8676 6.8676s-3.0841 6.8676-6.8676 6.8676-6.8676-3.0841-6.8676-6.8676 3.0841-6.8676 6.8676-6.8676z" fill="#ccc"/>
  </clipPath>
 </defs>
 <g transform="translate(0 -1004.4)">
  <rect style="color:#000000" ry="2" height="48" width="48" y="1004.4" x="-.0625" fill="#666"/>
 </g>
 <g>
  <flowRoot style="word-spacing:0px;letter-spacing:0px" xml:space="preserve" transform="translate(32.627 -1001.2)" line-height="125%" font-size="40px" font-family="sans-serif" fill="#000000"><flowRegion><rect y="6.6343" x="-53.033" width="57.629" height="49.321"/></flowRegion><flowPara/></flowRoot>
  <path opacity=".25" style="color:#000000" d="m24 8c-8.828 0-16 7.172-16 16 0 4.414 1.791 8.416 4.688 11.312l12.687 12.688h20.563c1.108 0 2-0.892 2-2v-20.688l-12.626-12.624c-2.896-2.897-6.898-4.688-11.312-4.688z"/>
 </g>
 <g>
  <path style="color:#000000" d="m24 8c-8.828 0-16 7.172-16 16s7.172 16 16 16c8.8281 0 16-7.1719 16-16s-7.1719-16-16-16zm0 9.1324c3.7835 0 6.8676 3.0841 6.8676 6.8676s-3.0841 6.8676-6.8676 6.8676-6.8676-3.0841-6.8676-6.8676 3.0841-6.8676 6.8676-6.8676z" fill="#ccc"/>
  <path style="color:#000000" d="m24 17.143c-3.7871 0-6.8571 3.07-6.8571 6.8571s3.07 6.8571 6.8571 6.8571 6.8571-3.07 6.8571-6.8571-3.07-6.8571-6.8571-6.8571zm0 3.0476c2.1039 0 3.8095 1.7056 3.8095 3.8095s-1.7056 3.8095-3.8095 3.8095-3.8095-1.7056-3.8095-3.8095 1.7056-3.8095 3.8095-3.8095z" fill-opacity=".56557" fill="#9eabb0"/>
  <path opacity=".25" d="m31.719 20.594 0.125 0.15625c0.50814 0.50814 2.2077 2.3883 2.125 4.75-0.03595 1.0265-0.36805 2.0102-0.8125 2.8125l-2.062-2.062s-3.5306 2.4465-3.4688 6.4375l4.8438 4.8438c3.7088-2.327 6.4099-6.1086 7.25-10.562l-3.657-3.658-0.437-0.468c-1.5297-1.5297-3.9062-2.25-3.9062-2.25z"/>
  <path d="m31.715 20.606s2.3543 2.1008 2.2569 4.8788c-0.0973 2.778-2.365 5.4237-3.1526 4.2095-0.78756-1.2142 0.27689-3.4576 0.27689-3.4576s-3.527 2.4751-3.4651 6.4661c0.06187 3.991 3.1557 6.6517 6.6827 6.6517s7.0085-2.7861 7.1158-5.7545c0.02695-0.74618-0.0082-2.8008-1.2375-3.8982 0 0-0.06187 2.2276-1.3613 2.8463-1.2994 0.61877-2.6154-0.39931-2.5369-2.1657 0.07847-1.7664 1.0005-2.1311 0.55378-5.2682-0.44671-3.1371-5.1327-4.5083-5.1327-4.5083z" fill="#f00"/>
  <path fill="#f90" d="m33.83 39.136c1.3677 0.02275 2.1505-1.1611 1.8477-2.7893-0.30278-1.6282-2.4892-1.8823-2.3044-4.9629-0.75976 1.4418-2.0476 3.1998-2.0673 4.9621-0.0184 1.6511 1.1563 2.7674 2.524 2.7901z"/>
  <path filter="url(#filter4045-0)" style="color:#000000" d="m8.5452 19.859a16 16 0 0 1 15.455 -11.859v16z" clip-path="url(#clipPath4177)" fill-opacity=".22131" fill="#fff"/>
  <path filter="url(#filter4081)" style="color:#000000" d="m12.686 12.686a16 16 0 0 1 3.314 -2.542l8 13.856z" clip-path="url(#clipPath4155)" fill-opacity=".22131" fill="#9ade00"/>
  <path filter="url(#filter4089)" style="color:#000000" d="m10.144 16a16 16 0 0 1 2.5427 -3.3137l11.313 11.314z" clip-path="url(#clipPath4111)" fill-opacity=".22131" fill="#19aeff"/>
  <path filter="url(#filter4073)" style="color:#000000" d="m16 10.144a16 16 0 0 1 3.859 -1.5988l4.141 15.455z" clip-path="url(#clipPath4133)" fill-opacity=".22131" fill="#ff4141"/>
  <path filter="url(#filter4183)" style="color:#000000" d="m32 10.144a16 16 0 0 1 5.856 5.856l-13.856 8z" clip-path="url(#clipPath4236)" fill-opacity=".22131" fill="#2d2d2d"/>
  <path filter="url(#filter4183-5)" style="color:#000000" d="m16 37.856a16 16 0 0 1 -5.856 -5.856l13.856-8z" clip-path="url(#clipPath4247)" fill-opacity=".22131" fill="#2d2d2d"/>
 </g>
 <g>
  <path opacity=".4" style="color:#000000" d="m2 0c-1.108 0-2 0.892-2 2v44c0 1.108 0.892 2 2 2h44c1.108 0 2-0.892 2-2v-44c0-1.108-0.892-2-2-2h-44zm0 0.5h44c0.83101 0 1.5 0.66899 1.5 1.5v44c0 0.83101-0.66899 1.5-1.5 1.5h-44c-0.831 0-1.5-0.669-1.5-1.5v-44c0-0.831 0.669-1.5 1.5-1.5z" fill="url(#linearGradient12443)"/>
 </g>
</svg>
