<svg xmlns:rdf="http://www.w3.org/1999/02/22-rdf-syntax-ns#" xmlns="http://www.w3.org/2000/svg" height="48" width="48" version="1.1" xmlns:cc="http://creativecommons.org/ns#" xmlns:xlink="http://www.w3.org/1999/xlink" xmlns:dc="http://purl.org/dc/elements/1.1/">
 <defs>
  <linearGradient id="linearGradient12443" y2="3" gradientUnits="userSpaceOnUse" x2="27.5" y1=".5" x1="27.5">
   <stop stop-color="#fff" offset="0"/>
   <stop stop-color="#fff" stop-opacity="0" offset="1"/>
  </linearGradient>
  <filter id="filter7170" height="1.2855" width="1.207" y="-.14276" x="-.1035">
   <feGaussianBlur stdDeviation="1.725"/>
  </filter>
  <clipPath id="clipPath7192" clipPathUnits="userSpaceOnUse">
   <path opacity=".25" style="color:#000000" d="m5 15c-0.554 0-1 0.446-1 1v3c0 0.2237 0.095567 0.39627 0.21875 0.5625 0.027262 0.03679 0.030536 0.09236 0.0625 0.125 0.021841 0.02305 0.038558 0.04163 0.0625 0.0625l3.25 3.25h-2.5938c-0.554 0-1 0.446-1 1v3c0 0.2237 0.095567 0.39627 0.21875 0.5625 0.027262 0.03679 0.030536 0.09236 0.0625 0.125 0.021841 0.02305 0.038558 0.04163 0.0625 0.0625l3.25 3.25h-2.5938c-0.554 0-1 0.446-1 1v3c0 0.1385 0.043281 0.25528 0.09375 0.375 0.021081 0.05349 0.032939 0.10778 0.0625 0.15625 0.044254 0.06979 0.096567 0.13094 0.15625 0.1875 0.010046 0.0095 0.020814 0.02215 0.03125 0.03125l3.25 3.25h-2.5938c-0.554 0-1 0.446-1 1v3c0 0.1385 0.043281 0.25528 0.09375 0.375 0.021081 0.05349 0.032939 0.10778 0.0625 0.15625 0.044254 0.06979 0.096567 0.13094 0.15625 0.1875 0.010046 0.0095 0.020814 0.02215 0.03125 0.03125l4.25 4.25h37.406c1.108 0 2-0.892 2-2v-26.406l-4.25-4.25-0.03125-0.03125c-0.057-0.06-0.118-0.112-0.188-0.157-0.155-0.098-0.333-0.156-0.531-0.156h-5c-0.1385 0-0.25528 0.04328-0.375 0.09375s-0.25338 0.09713-0.34375 0.1875c-0.181 0.181-0.281 0.442-0.281 0.719v3c0 0.1385 0.04328 0.25528 0.09375 0.375 0.05125 0.13106 0.08934 0.24662 0.1875 0.34375l3.281 3.281h-0.156l-7.656-7.656-0.031-0.032c-0.057-0.059-0.118-0.111-0.188-0.156-0.155-0.098-0.333-0.156-0.531-0.156h-5c-0.1385 0-0.25528 0.04328-0.375 0.09375s-0.25338 0.09713-0.34375 0.1875c-0.181 0.181-0.281 0.442-0.281 0.719v3c0 0.554 0.446 1 1 1l3 3h-0.59375l-7.656-7.656-0.062-0.063c-0.033-0.032-0.089-0.035-0.126-0.062-0.166-0.123-0.338-0.219-0.562-0.219h-5c-0.1385 0-0.25528 0.04328-0.375 0.09375-0.359 0.151-0.625 0.49-0.625 0.906v3c0 0.2237 0.09557 0.39627 0.21875 0.5625 0.02726 0.03679 0.03054 0.09236 0.0625 0.125 0.02184 0.02305 0.03856 0.04163 0.0625 0.0625l3.25 3.25h-0.594l-7-7c0-0.554-0.446-1-1-1h-5z"/>
  </clipPath>
 </defs>
 <g transform="translate(0 -1004.4)">
  <rect style="color:#000000" ry="2" height="48" width="48" y="1004.4" x="0" fill="#999"/>
 </g>
 <g>
  <flowRoot style="word-spacing:0px;letter-spacing:0px" xml:space="preserve" transform="translate(-18.262 -1007.9)" line-height="125%" font-size="40px" font-family="sans-serif" fill="#000000"><flowRegion><rect y="6.6343" x="-53.033" width="57.629" height="49.321"/></flowRegion><flowPara/></flowRoot>
  <g transform="translate(-52.885 -3.6656)">
   <flowRoot style="word-spacing:0px;letter-spacing:0px" xml:space="preserve" transform="translate(-18.262 -1007.9)" line-height="125%" font-size="40px" font-family="sans-serif" fill="#000000"><flowRegion><rect y="6.6343" x="-53.033" width="57.629" height="49.321"/></flowRegion><flowPara/></flowRoot>
  </g>
  <flowRoot style="word-spacing:0px;letter-spacing:0px" line-height="125%" xml:space="preserve" font-size="40px" transform="translate(-81.858 -997.66)" font-family="sans-serif" fill="#000000"><flowRegion><rect y="6.6343" width="57.629" x="-53.033" height="49.321"/></flowRegion><flowPara/></flowRoot>
  <flowRoot style="word-spacing:0px;letter-spacing:0px" line-height="125%" xml:space="preserve" font-size="40px" transform="translate(-141.73 -999.79)" font-family="sans-serif" fill="#000000"><flowRegion><rect y="6.6343" width="57.629" x="-53.033" height="49.321"/></flowRegion><flowPara/></flowRoot>
  <path opacity=".25" style="color:#000000" d="m5 15c-0.554 0-1 0.446-1 1v3c0 0.224 0.0956 0.396 0.2188 0.562 0.0272 0.037 0.0305 0.093 0.0624 0.126 0.0219 0.023 0.0386 0.041 0.0626 0.062l3.25 3.25h-2.5938c-0.554 0-1 0.446-1 1v3c0 0.224 0.0956 0.396 0.2188 0.562 0.0272 0.037 0.0305 0.093 0.0624 0.126 0.0219 0.023 0.0386 0.041 0.0626 0.062l3.25 3.25h-2.5938c-0.554 0-1 0.446-1 1v3c0 0.138 0.0433 0.255 0.0938 0.375 0.021 0.053 0.0329 0.108 0.0624 0.156 0.0443 0.07 0.0966 0.131 0.1563 0.188 0.01 0.009 0.0208 0.022 0.0313 0.031l3.25 3.25h-2.5938c-0.554 0-1 0.446-1 1v3c0 0.138 0.0433 0.255 0.0938 0.375 0.021 0.053 0.0329 0.108 0.0624 0.156 0.0443 0.07 0.0966 0.131 0.1563 0.188 0.01 0.009 0.0208 0.022 0.0313 0.031l4.25 4.25h37.406c1.108 0 2-0.892 2-2v-26.406l-4.25-4.25-0.031-0.032c-0.057-0.059-0.118-0.111-0.188-0.156-0.155-0.098-0.333-0.156-0.531-0.156h-5c-0.138 0-0.255 0.043-0.375 0.094-0.12 0.05-0.253 0.097-0.344 0.187-0.181 0.181-0.281 0.442-0.281 0.719v3c0 0.138 0.043 0.255 0.094 0.375 0.051 0.131 0.089 0.247 0.187 0.344l3.281 3.281h-0.156l-7.656-7.656-0.031-0.032c-0.057-0.059-0.118-0.111-0.188-0.156-0.155-0.098-0.333-0.156-0.531-0.156h-5c-0.138 0-0.255 0.043-0.375 0.094-0.12 0.05-0.253 0.097-0.344 0.187-0.181 0.181-0.281 0.442-0.281 0.719v3c0 0.554 0.446 1 1 1l3 3h-0.594l-7.656-7.656-0.062-0.063c-0.033-0.032-0.089-0.035-0.126-0.062-0.166-0.123-0.338-0.219-0.562-0.219h-5c-0.138 0-0.255 0.043-0.375 0.094-0.359 0.151-0.625 0.49-0.625 0.906v3c0 0.224 0.096 0.396 0.219 0.562 0.027 0.037 0.03 0.093 0.062 0.126 0.022 0.023 0.039 0.041 0.063 0.062l3.25 3.25h-0.594l-7-7c0-0.554-0.446-1-1-1h-5z"/>
  <path opacity=".6" filter="url(#filter7170)" style="color:#000000" d="m38 39h5c0.554 0 1 0.446 1 1v3c0 0.554-0.446 1-1 1h-5c-0.554 0-1-0.446-1-1v-3c0-0.554 0.446-1 1-1zm-11 0h5c0.554 0 1 0.446 1 1v3c0 0.554-0.446 1-1 1h-5c-0.554 0-1-0.446-1-1v-3c0-0.554 0.446-1 1-1zm-11 0h5c0.554 0 1 0.446 1 1v3c0 0.554-0.446 1-1 1h-5c-0.554 0-1-0.446-1-1v-3c0-0.554 0.446-1 1-1zm-11 0h5c0.554 0 1 0.446 1 1v3c0 0.554-0.446 1-1 1h-5c-0.554 0-1-0.446-1-1v-3c0-0.554 0.446-1 1-1zm33-8h5c0.554 0 1 0.446 1 1v3c0 0.554-0.446 1-1 1h-5c-0.554 0-1-0.446-1-1v-3c0-0.554 0.446-1 1-1zm-11 0h5c0.554 0 1 0.446 1 1v3c0 0.554-0.446 1-1 1h-5c-0.554 0-1-0.446-1-1v-3c0-0.554 0.446-1 1-1zm-11 0h5c0.554 0 1 0.446 1 1v3c0 0.554-0.446 1-1 1h-5c-0.554 0-1-0.446-1-1v-3c0-0.554 0.446-1 1-1zm-11 0h5c0.554 0 1 0.446 1 1v3c0 0.554-0.446 1-1 1h-5c-0.554 0-1-0.446-1-1v-3c0-0.554 0.446-1 1-1zm33-8h5c0.554 0 1 0.446 1 1v3c0 0.554-0.446 1-1 1h-5c-0.554 0-1-0.446-1-1v-3c0-0.554 0.446-1 1-1zm-11 0h5c0.554 0 1 0.446 1 1v3c0 0.554-0.446 1-1 1h-5c-0.554 0-1-0.446-1-1v-3c0-0.554 0.446-1 1-1zm-11 0h5c0.554 0 1 0.446 1 1v3c0 0.554-0.446 1-1 1h-5c-0.554 0-1-0.446-1-1v-3c0-0.554 0.446-1 1-1zm-11 0h5c0.554 0 1 0.446 1 1v3c0 0.554-0.446 1-1 1h-5c-0.554 0-1-0.446-1-1v-3c0-0.554 0.446-1 1-1zm33-8h5c0.554 0 1 0.446 1 1v3c0 0.554-0.446 1-1 1h-5c-0.554 0-1-0.446-1-1v-3c0-0.554 0.446-1 1-1zm-11 0h5c0.554 0 1 0.446 1 1v3c0 0.554-0.446 1-1 1h-5c-0.554 0-1-0.446-1-1v-3c0-0.554 0.446-1 1-1zm-11 0h5c0.554 0 1 0.446 1 1v3c0 0.554-0.446 1-1 1h-5c-0.554 0-1-0.446-1-1v-3c0-0.554 0.446-1 1-1zm-11 0h5c0.554 0 1 0.446 1 1v3c0 0.554-0.446 1-1 1h-5c-0.554 0-1-0.446-1-1v-3c0-0.554 0.446-1 1-1z" clip-path="url(#clipPath7192)"/>
 </g>
 <g>
  <rect style="color:#000000" ry="1" height="7" width="40" y="4" x="4" fill="#bdcdd4"/>
  <path style="color:#000000" d="m38 39h5c0.554 0 1 0.446 1 1v3c0 0.554-0.446 1-1 1h-5c-0.554 0-1-0.446-1-1v-3c0-0.554 0.446-1 1-1zm-11 0h5c0.554 0 1 0.446 1 1v3c0 0.554-0.446 1-1 1h-5c-0.554 0-1-0.446-1-1v-3c0-0.554 0.446-1 1-1zm-11 0h5c0.554 0 1 0.446 1 1v3c0 0.554-0.446 1-1 1h-5c-0.554 0-1-0.446-1-1v-3c0-0.554 0.446-1 1-1zm-11 0h5c0.554 0 1 0.446 1 1v3c0 0.554-0.446 1-1 1h-5c-0.554 0-1-0.446-1-1v-3c0-0.554 0.446-1 1-1zm33-8h5c0.554 0 1 0.446 1 1v3c0 0.554-0.446 1-1 1h-5c-0.554 0-1-0.446-1-1v-3c0-0.554 0.446-1 1-1zm-11 0h5c0.554 0 1 0.446 1 1v3c0 0.554-0.446 1-1 1h-5c-0.554 0-1-0.446-1-1v-3c0-0.554 0.446-1 1-1zm-11 0h5c0.554 0 1 0.446 1 1v3c0 0.554-0.446 1-1 1h-5c-0.554 0-1-0.446-1-1v-3c0-0.554 0.446-1 1-1zm-11 0h5c0.554 0 1 0.446 1 1v3c0 0.554-0.446 1-1 1h-5c-0.554 0-1-0.446-1-1v-3c0-0.554 0.446-1 1-1zm33-8h5c0.554 0 1 0.446 1 1v3c0 0.554-0.446 1-1 1h-5c-0.554 0-1-0.446-1-1v-3c0-0.554 0.446-1 1-1zm-11 0h5c0.554 0 1 0.446 1 1v3c0 0.554-0.446 1-1 1h-5c-0.554 0-1-0.446-1-1v-3c0-0.554 0.446-1 1-1zm-11 0h5c0.554 0 1 0.446 1 1v3c0 0.554-0.446 1-1 1h-5c-0.554 0-1-0.446-1-1v-3c0-0.554 0.446-1 1-1zm-11 0h5c0.554 0 1 0.446 1 1v3c0 0.554-0.446 1-1 1h-5c-0.554 0-1-0.446-1-1v-3c0-0.554 0.446-1 1-1zm33-8h5c0.554 0 1 0.446 1 1v3c0 0.554-0.446 1-1 1h-5c-0.554 0-1-0.446-1-1v-3c0-0.554 0.446-1 1-1zm-11 0h5c0.554 0 1 0.446 1 1v3c0 0.554-0.446 1-1 1h-5c-0.554 0-1-0.446-1-1v-3c0-0.554 0.446-1 1-1zm-11 0h5c0.554 0 1 0.446 1 1v3c0 0.554-0.446 1-1 1h-5c-0.554 0-1-0.446-1-1v-3c0-0.554 0.446-1 1-1zm-11 0h5c0.554 0 1 0.446 1 1v3c0 0.554-0.446 1-1 1h-5c-0.554 0-1-0.446-1-1v-3c0-0.554 0.446-1 1-1z" fill="#364e59"/>
  <g font-size="12px" font-weight="bold" font-family="TheMixPlain" fill="#bdcdd4">
   <text style="word-spacing:0px;letter-spacing:0px" line-height="125%" y="19" x="6" xml:space="preserve"><tspan font-size="4px" y="19" x="6" fill="#bdcdd4">1</tspan></text>
   <text style="word-spacing:0px;letter-spacing:0px" line-height="125%" y="19" x="17" xml:space="preserve"><tspan font-size="4px" y="19" x="17" fill="#bdcdd4">2</tspan></text>
   <text style="word-spacing:0px;letter-spacing:0px" line-height="125%" y="19" x="28" xml:space="preserve"><tspan font-size="4px" y="19" x="28" fill="#bdcdd4">3</tspan></text>
   <text style="word-spacing:0px;letter-spacing:0px" line-height="125%" y="27" x="28" xml:space="preserve"><tspan font-size="4px" y="27" x="28" fill="#bdcdd4">6</tspan></text>
   <text style="word-spacing:0px;letter-spacing:0px" line-height="125%" y="19" x="39" xml:space="preserve"><tspan font-size="4px" y="19" x="39" fill="#bdcdd4">+</tspan></text>
   <text style="word-spacing:0px;letter-spacing:0px" line-height="125%" y="27" x="40" xml:space="preserve"><tspan font-size="4px" y="27" x="40" fill="#bdcdd4">-</tspan></text>
   <text style="word-spacing:0px;letter-spacing:0px" line-height="125%" y="27" x="17" xml:space="preserve"><tspan font-size="4px" y="27" x="17" fill="#bdcdd4">5</tspan></text>
   <text style="word-spacing:0px;letter-spacing:0px" line-height="125%" y="27" x="6" xml:space="preserve"><tspan font-size="4px" y="27" x="6" fill="#bdcdd4">4</tspan></text>
   <text style="word-spacing:0px;letter-spacing:0px" line-height="125%" y="35" x="6" xml:space="preserve"><tspan font-size="4px" y="35" x="6" fill="#bdcdd4">7</tspan></text>
   <text style="word-spacing:0px;letter-spacing:0px" line-height="125%" y="35" x="17" xml:space="preserve"><tspan font-size="4px" y="35" x="17" fill="#bdcdd4">8</tspan></text>
   <text style="word-spacing:0px;letter-spacing:0px" line-height="125%" y="35" x="28" xml:space="preserve"><tspan font-size="4px" y="35" x="28" fill="#bdcdd4">9</tspan></text>
   <text style="word-spacing:0px;letter-spacing:0px" line-height="125%" y="43" x="6" xml:space="preserve"><tspan font-size="4px" y="43" x="6" fill="#bdcdd4">0</tspan></text>
   <text style="word-spacing:0px;letter-spacing:0px" line-height="125%" y="43" x="17" xml:space="preserve"><tspan font-size="4px" y="43" x="17" fill="#bdcdd4">.</tspan></text>
   <text style="word-spacing:0px;letter-spacing:0px" line-height="125%" y="43" x="28" xml:space="preserve"><tspan font-size="4px" y="43" x="28" fill="#bdcdd4">=</tspan></text>
   <text style="word-spacing:0px;letter-spacing:0px" line-height="125%" y="43" x="40" xml:space="preserve"><tspan font-size="4px" y="43" x="40" fill="#bdcdd4">/</tspan></text>
   <text style="word-spacing:0px;letter-spacing:0px" line-height="125%" y="35" x="39" xml:space="preserve"><tspan font-size="4px" y="35" x="39" fill="#bdcdd4">x</tspan></text>
  </g>
  <text style="word-spacing:0px;letter-spacing:0px" font-weight="bold" xml:space="preserve" font-size="12px" y="10" x="28" font-family="TheMixPlain" line-height="125%" fill="#000000"><tspan font-size="6px" y="10" x="28">1+1</tspan></text>
 </g>
 <path opacity=".4" style="color:#000000" d="m2 0c-1.108 0-2 0.892-2 2v44c0 1.108 0.892 2 2 2h44c1.108 0 2-0.892 2-2v-44c0-1.108-0.892-2-2-2h-44zm0 0.5h44c0.83101 0 1.5 0.66899 1.5 1.5v44c0 0.83101-0.66899 1.5-1.5 1.5h-44c-0.831 0-1.5-0.669-1.5-1.5v-44c0-0.831 0.669-1.5 1.5-1.5z" fill="url(#linearGradient12443)"/>
</svg>
