<svg xmlns:rdf="http://www.w3.org/1999/02/22-rdf-syntax-ns#" xmlns="http://www.w3.org/2000/svg" height="48" width="48" version="1.1" xmlns:cc="http://creativecommons.org/ns#" xmlns:xlink="http://www.w3.org/1999/xlink" xmlns:dc="http://purl.org/dc/elements/1.1/">
 <defs>
  <linearGradient id="linearGradient12443" y2="3" gradientUnits="userSpaceOnUse" y1=".5" x2="27.5" x1="27.5">
   <stop stop-color="#fff" offset="0"/>
   <stop stop-color="#fff" stop-opacity="0" offset="1"/>
  </linearGradient>
  <linearGradient id="linearGradient4130" y2="3" gradientUnits="userSpaceOnUse" x2="27.5" gradientTransform="translate(0 25.102)" y1=".5" x1="27.5">
   <stop stop-color="#fff" offset="0"/>
   <stop stop-color="#fff" stop-opacity="0" offset="1"/>
  </linearGradient>
 </defs>
 <g transform="translate(0 -1004.4)">
  <rect style="color:#000000" transform="translate(0 1004.4)" ry="2" height="23" width="23" y="0" x="0" fill="#666"/>
  <rect style="color:#000000" ry="2" height="23" width="23" y="1029.4" x="0" fill="#666"/>
  <rect style="color:#000000" transform="translate(0 1004.4)" ry="2" height="48" width="23" y="0" x="25" fill="#f90"/>
 </g>
 <g>
  <flowRoot style="word-spacing:0px;letter-spacing:0px" line-height="125%" xml:space="preserve" font-size="40px" transform="translate(-18.262 -1007.9)" font-family="sans-serif" fill="#000000"><flowRegion><rect y="6.6343" width="57.629" x="-53.033" height="49.321"/></flowRegion><flowPara/></flowRoot>
  <g transform="translate(-52.885 -3.6656)">
   <flowRoot style="word-spacing:0px;letter-spacing:0px" line-height="125%" xml:space="preserve" font-size="40px" transform="translate(-18.262 -1007.9)" font-family="sans-serif" fill="#000000"><flowRegion><rect y="6.6343" width="57.629" x="-53.033" height="49.321"/></flowRegion><flowPara/></flowRoot>
  </g>
  <flowRoot style="word-spacing:0px;letter-spacing:0px" xml:space="preserve" transform="translate(-81.858 -997.66)" line-height="125%" font-size="40px" font-family="sans-serif" fill="#000000"><flowRegion><rect y="6.6343" x="-53.033" width="57.629" height="49.321"/></flowRegion><flowPara/></flowRoot>
  <flowRoot style="word-spacing:0px;letter-spacing:0px" xml:space="preserve" transform="translate(-141.73 -999.79)" line-height="125%" font-size="40px" font-family="sans-serif" fill="#000000"><flowRegion><rect y="6.6343" x="-53.033" width="57.629" height="49.321"/></flowRegion><flowPara/></flowRoot>
  <path opacity=".25" style="color:#000000" d="m18 25l5 5v-3c0-1.108-0.892-2-2-2h-3zm-8 6v4h-4v3l4 4 6 6h5c1.108 0 2-0.892 2-2v-5l-6-6-4-4h-3z"/>
  <path opacity=".25" style="color:#000000" d="m25 18v14l16 16h5c1.108 0 2-0.892 2-2v-21l-6-6h-11v3l3 3h-2l-7-7zm0 25v3c0 1.108 0.892 2 2 2h3l-5-5z"/>
  <path opacity=".25" style="color:#000000" d="m6 10v3l10 10h5c1.108 0 2-0.892 2-2v-5l-6-6h-11z"/>
 </g>
 <g>
  <path style="color:#000000" d="m6 10v3h11v-3h-11zm25 9v3h11v-3h-11zm0 6v3h11v-3h-11zm-21 6v4h-4v3h4v4h3v-4h4v-3h-4v-4h-3z" fill="#fff"/>
 </g>
 <g>
  <path opacity=".4" style="color:#000000" d="m27 0c-1.108 0-2 0.892-2 2v44c0 1.108 0.892 2 2 2h19c1.108 0 2-0.892 2-2v-44c0-1.108-0.892-2-2-2zm0 0.5h19c0.83101 0 1.5 0.66899 1.5 1.5v44c0 0.83101-0.66899 1.5-1.5 1.5h-19c-0.83101 0-1.5-0.66899-1.5-1.5v-44c0-0.83101 0.66899-1.5 1.5-1.5z" fill="url(#linearGradient12443)"/>
  <path opacity=".4" style="color:#000000" d="m2 0c-1.108 0-2 0.892-2 2v44c0 1.108 0.892 2 2 2h19c1.108 0 2-0.892 2-2v-44c0-1.108-0.892-2-2-2zm0 0.5h19c0.83101 0 1.5 0.66899 1.5 1.5v44c0 0.83101-0.66899 1.5-1.5 1.5h-19c-0.831 0-1.5-0.669-1.5-1.5v-44c0-0.831 0.669-1.5 1.5-1.5z" fill="url(#linearGradient12443)"/>
  <path opacity=".4" style="color:#000000" d="m2 25.102c-1.108 0-2 0.892-2 2v18.898c0 1.108 0.892 2 2 2h19c1.108 0 2-0.892 2-2v-18.898c0-1.108-0.892-2-2-2zm0 0.5h19c0.83101 0 1.5 0.66899 1.5 1.5v18.898c0 0.83101-0.66899 1.5-1.5 1.5h-19c-0.831 0-1.5-0.669-1.5-1.5v-18.898c0-0.83101 0.66899-1.5 1.5-1.5z" fill="url(#linearGradient4130)"/>
 </g>
</svg>
