<svg xmlns:rdf="http://www.w3.org/1999/02/22-rdf-syntax-ns#" xmlns="http://www.w3.org/2000/svg" height="48" width="48" version="1.1" xmlns:cc="http://creativecommons.org/ns#" xmlns:xlink="http://www.w3.org/1999/xlink" xmlns:dc="http://purl.org/dc/elements/1.1/">
 <defs>
  <linearGradient id="linearGradient4763" y2="3" gradientUnits="userSpaceOnUse" x2="27.5" y1=".5" x1="27.5">
   <stop stop-color="#fff" offset="0"/>
   <stop stop-color="#19aeff" stop-opacity="0" offset="1"/>
  </linearGradient>
  <filter id="filter5131" height="1.6139" width="1.8704" y="-.30695" x="-.43521">
   <feGaussianBlur stdDeviation="2.626946"/>
  </filter>
  <clipPath id="clipPath5135" clipPathUnits="userSpaceOnUse">
   <path opacity=".4" d="m22.938 19.969-4.75 0.96875v3.625l4.7812 4.7812v7.5h-4.6562v3.6562l7.5 7.5h20.187c1.108 0 2-0.892 2-2v-6l-20-20.031h-5.0625z"/>
  </clipPath>
  <linearGradient id="linearGradient3833" y2="1015.6" gradientUnits="userSpaceOnUse" x2="24.25" y1="1005" x1="24.25">
   <stop stop-color="#dc0000" offset="0"/>
   <stop stop-color="#b50000" offset="1"/>
  </linearGradient>
  <linearGradient id="linearGradient3841" y2="9.1876" gradientUnits="userSpaceOnUse" x2="24.175" y1="3" x1="24.175">
   <stop stop-color="#e6e6e6" stop-opacity=".82927" offset="0"/>
   <stop stop-color="#e6e6e6" offset="1"/>
  </linearGradient>
 </defs>
 <g transform="translate(0 -1004.4)">
  <rect style="color:#000000" ry="2" height="48" width="48" y="1004.4" x="0" fill="#ccc"/>
  <path style="color:#000000" d="m2 1004.4c-1.108 0-2 0.892-2 2v10h48v-10c0-1.108-0.892-2-2-2z" fill="url(#linearGradient3833)"/>
 </g>
 <g>
  <path opacity=".3" d="m22.938 19.969-4.75 0.96875v3.625l4.7812 4.7812v7.5h-4.6562v3.6562l7.5 7.5h20.187c1.108 0 2-0.892 2-2v-6l-20-20.031h-5.0625z"/>
  <g clip-path="url(#clipPath5135)" filter="url(#filter5131)">
   <path d="m18.302 36.841h4.6775v-13.276l-4.8013 0.99052v-3.6044l4.7738-0.99052h5.0352v16.88h4.6775v3.6594h-14.363v-3.6594"/>
  </g>
 </g>
 <g>
  <g fill="#fff">
   <path d="m18.302 36.841h4.6775v-13.276l-4.8013 0.99052v-3.6044l4.7738-0.99052h5.0352v16.88h4.6775v3.6594h-14.363v-3.6594"/>
  </g>
  <g fill="url(#linearGradient3841)">
   <path d="m14.675 2.4437h6.4303v1.3599h-2.3132v5.6172h-1.7992v-5.6172h-2.3179v-1.3599"/>
   <path d="m21.357 2.4437h1.7992v4.1825c-0.000002 0.57636 0.09346 0.98916 0.28039 1.2384 0.19004 0.24612 0.49847 0.36918 0.92529 0.36918 0.42993 0.0000012 0.73836-0.12306 0.92529-0.36918 0.19004-0.24923 0.28506-0.66203 0.28506-1.2384v-4.1825h1.7992v4.1825c-0.000007 0.9876-0.24768 1.7228-0.74304 2.2057-0.495 0.4829-1.25 0.7244-2.266 0.7244-1.012 0-1.766-0.2415-2.262-0.7244-0.495-0.4828-0.743-1.2181-0.743-2.2057v-4.1825"/>
   <path d="m28.367 2.4437h4.8554v1.3599h-3.0563v1.2991h2.874v1.3599h-2.874v1.5982h3.1591v1.3599h-4.9582v-6.9771"/>
  </g>
 </g>
 <g>
  <path opacity=".4" style="color:#000000" d="m2 0c-1.108 0-2 0.892-2 2v44c0 1.108 0.892 2 2 2h44c1.108 0 2-0.892 2-2v-44c0-1.108-0.892-2-2-2h-44zm0 0.5h44c0.83101 0 1.5 0.66899 1.5 1.5v44c0 0.83101-0.66899 1.5-1.5 1.5h-44c-0.831 0-1.5-0.669-1.5-1.5v-44c0-0.831 0.669-1.5 1.5-1.5z" fill="url(#linearGradient4763)"/>
 </g>
</svg>
