<svg xmlns:rdf="http://www.w3.org/1999/02/22-rdf-syntax-ns#" xmlns="http://www.w3.org/2000/svg" height="48" width="48" version="1.1" xmlns:cc="http://creativecommons.org/ns#" xmlns:xlink="http://www.w3.org/1999/xlink" xmlns:dc="http://purl.org/dc/elements/1.1/">
 <defs>
  <linearGradient id="linearGradient12443" y2="3" gradientUnits="userSpaceOnUse" y1=".5" x2="27.5" x1="27.5">
   <stop stop-color="#fff" offset="0"/>
   <stop stop-color="#fff" stop-opacity="0" offset="1"/>
  </linearGradient>
  <filter id="filter8795" height="1.24" width="1.24" y="-0.12" x="-0.12">
   <feGaussianBlur stdDeviation="1.8750294"/>
  </filter>
  <clipPath id="clipPath8817" clipPathUnits="userSpaceOnUse">
   <path opacity=".25" d="m39.531 5.25c-0.08775 0.015279-0.19103 0.055783-0.28125 0.09375-0.03954 0.017774-0.08543 0.040119-0.125 0.0625-0.03183 0.017325-0.0619 0.042065-0.09375 0.0625-0.0198 0.013075-0.04269 0.016989-0.0625 0.03125-0.0938 0.065135-0.1872 0.15595-0.28125 0.25l-32.874 32.875c-0.85245 0.85245-0.65228 1.8842 0.0625 2.7812 0.00529 0.0067-0.00535 0.02454 0 0.03125 0.098407 0.12212 0.22736 0.22736 0.34375 0.34375 0.00551 0.0055-0.00555 0.02572 0 0.03125 0.12256 0.12158 0.24647 0.24221 0.375 0.34375l5.8438 5.844h33.562c1.108 0 2-0.892 2-2v-33.25l-6.375-6.375c-0.15763-0.15637-0.31199-0.30346-0.46875-0.4375-0.0945-0.080364-0.18666-0.14922-0.28125-0.21875-0.06724-0.050303-0.12035-0.081348-0.1875-0.125-0.07714-0.050193-0.14177-0.084366-0.21875-0.125-0.07279-0.038273-0.14601-0.096722-0.21875-0.125-0.03146-0.012238-0.06235-0.020979-0.09375-0.03125-0.12122-0.040161-0.25378-0.055321-0.375-0.0625-0.09002-0.00533-0.16225-0.015279-0.25 0z"/>
  </clipPath>
 </defs>
 <g transform="translate(0 -1004.4)">
  <rect style="color:#000000" ry="2" height="48" width="48" y="1004.4" x="0" fill="#a40c35"/>
  <g transform="matrix(.35545 0 0 .14361 171.12 1002.5)"></g>
  <g transform="matrix(.32314 0 0 .32314 -55.272 805.26)"></g>
  <path id="use5502" style="block-progression:tb;text-indent:0;color:#000000;text-transform:none" d="m10 15.75v0.5h5v-0.5h-5z" fill="#fff"/>
  <use id="use5504" xlink:href="#use5502" transform="translate(0,4)" height="48" width="48" y="0" x="0"/>
  <use id="use5506" xlink:href="#use5504" transform="translate(0,4)" height="48" width="48" y="0" x="0"/>
  <use xlink:href="#use5506" transform="translate(0,4)" height="48" width="48" y="0" x="0"/>
  <path fill="#fff" d="m33.376 1029.5 1.1719 3.5078 3.5156 1.168-3.5156 1.1719-1.1719 3.5039-1.1719-3.5039-3.5156-1.1719 3.5156-1.168z"/>
  <path fill="#fff" d="m12.868 1010.2 1.7578 5.2618 5.2734 1.7539-5.2734 1.7539-1.7578 5.2617-1.7578-5.2617-5.2734-1.7539 5.2734-1.7539z"/>
  <path fill="#fff" d="m27.517 1009.7 1.1719 3.5039 3.5156 1.1719-3.5156 1.168-1.1719 3.5078-1.1719-3.5078-3.5156-1.168 3.5156-1.1719z"/>
 </g>
 <g>
  <path opacity=".25" d="m39.531 5.25c-0.088 0.0153-0.191 0.0558-0.281 0.0938-0.04 0.0177-0.085 0.0401-0.125 0.0624-0.032 0.0174-0.062 0.0421-0.094 0.0626-0.02 0.013-0.042 0.0169-0.062 0.0312-0.094 0.0651-0.187 0.1559-0.281 0.25l-32.876 32.875c-0.8519 0.852-0.6518 1.884 0.063 2.781 0.0053 0.007-0.0054 0.025 0 0.032 0.0984 0.122 0.2274 0.227 0.3438 0.343 0.0055 0.006-0.0056 0.026 0 0.031 0.1225 0.122 0.2464 0.243 0.375 0.344l5.8442 5.844h33.562c1.108 0 2-0.892 2-2v-33.25l-6.375-6.375c-0.158-0.1564-0.312-0.3035-0.469-0.4375-0.094-0.0804-0.186-0.1492-0.281-0.2187-0.067-0.0504-0.12-0.0814-0.187-0.125-0.078-0.0502-0.142-0.0844-0.219-0.125-0.073-0.0383-0.146-0.0968-0.219-0.125-0.031-0.0123-0.062-0.021-0.094-0.0313-0.121-0.0402-0.254-0.0553-0.375-0.0625-0.09-0.0053-0.162-0.0153-0.25 0z"/>
  <g transform="matrix(1.1 0 0 .44444 241.16 29.369)"></g>
  <g transform="translate(-459.44 -580.99)"></g>
  <path opacity=".6" filter="url(#filter8795)" style="color:#000000" d="m41.618 6.3756c0.97656 0.97656 1.625 1.9297 0.64844 2.9062l-32.886 32.902c-0.9766 0.977-2.1876 0.586-3.168-0.387-0.9805-0.976-1.375-2.183-0.3985-3.16l32.886-32.902c0.97656-0.97656 1.9375-0.33203 2.918 0.64062z" clip-path="url(#clipPath8817)"/>
 </g>
 <g>
  <path style="color:#000000" d="m41.618 6.3756c0.97656 0.97656 1.625 1.9297 0.64844 2.9062l-32.886 32.902c-0.9766 0.977-2.1876 0.586-3.168-0.387-0.9805-0.976-1.375-2.183-0.3985-3.16l32.886-32.902c0.97656-0.97656 1.9375-0.33203 2.918 0.64062z" fill="#a40c35"/>
  <path fill="#fff" d="m41.618 6.3756c0.97656 0.97656 1.625 1.9297 0.64844 2.9062l-32.886 32.902c-0.9766 0.977-2.1876 0.586-3.168-0.387-0.9805-0.976-1.375-2.183-0.3985-3.16l32.886-32.902c0.97656-0.97656 1.9375-0.33203 2.918 0.64062zm-6.2695 6.2695c-0.5-0.5-0.96875-0.80469-1.4688-0.30469l-27.171 27.184c-0.5 0.5-0.10938 0.88281 0.39453 1.3828 0.5 0.5 0.89063 0.88672 1.3867 0.39062l27.172-27.183c0.5-0.5 0.1914-0.96875-0.3125-1.4688z"/>
 </g>
 <g>
  <path opacity=".4" style="color:#000000" d="m2 0c-1.108 0-2 0.892-2 2v44c0 1.108 0.892 2 2 2h44c1.108 0 2-0.892 2-2v-44c0-1.108-0.892-2-2-2h-44zm0 0.5h44c0.83101 0 1.5 0.66899 1.5 1.5v44c0 0.83101-0.66899 1.5-1.5 1.5h-44c-0.831 0-1.5-0.669-1.5-1.5v-44c0-0.831 0.669-1.5 1.5-1.5z" fill="url(#linearGradient12443)"/>
 </g>
</svg>
