<svg xmlns:rdf="http://www.w3.org/1999/02/22-rdf-syntax-ns#" xmlns="http://www.w3.org/2000/svg" height="48" width="48" version="1.1" xmlns:cc="http://creativecommons.org/ns#" xmlns:xlink="http://www.w3.org/1999/xlink" xmlns:dc="http://purl.org/dc/elements/1.1/">
 <defs>
  <linearGradient id="linearGradient12443" y2="3" gradientUnits="userSpaceOnUse" y1=".5" x2="27.5" x1="27.5">
   <stop stop-color="#fff" offset="0"/>
   <stop stop-color="#fff" stop-opacity="0" offset="1"/>
  </linearGradient>
 </defs>
 <g transform="translate(0 -1004.4)">
  <rect style="color:#000000" ry="2" height="48" width="48" y="1004.4" x="0" fill="#999"/>
  <g transform="matrix(.35545 0 0 .14361 171.12 1002.5)"></g>
  <g transform="matrix(.32314 0 0 .32314 -55.272 805.26)"></g>
  <path opacity=".25" style="block-progression:tb;text-indent:0;color:#000000;text-transform:none" d="m5.0938 1004.4c0.5651 0.5541 0.91717 1.3026 0.9375 2.1563 0.04141 1.7391-1.3545 3.2086-3.0938 3.25-1.3734 0.032-2.5402-0.8466-3-2.0625v24.5l0.9375 0.094-0.0625 0.9375v0.062l0.28125 1.75v0.062l1.3438 2.875 0.0625 0.125h0.15625l1.9375-0.031h0.15625l0.0625-0.1563 1.1875-2.9375v-0.031l0.21875-1.7813v-0.062l-0.125-0.9375 2.7812-0.4375 0.21875 0.875h0.0625v0.031l0.8125 1.5625v0.062h0.0625l2.125 2.3437 0.09375 0.094 0.15625-0.031 1.8438-0.6875h0.15625v-0.1562l0.21875-3.2188v-0.031l-0.34375-1.7188v-0.062h-0.0625l-0.34375-0.8125 2.4688-1.3437 0.5 0.7812h0.0625l1.25 1.25 0.0625 0.031 2.75 1.5625 0.15625 0.062 0.09375-0.062 1.5312-1.2188 0.15625-0.094-0.0625-0.1563-0.75-3.0625-0.0625-0.062-0.8125-1.5v-0.062h-0.0625l-0.59375-0.6562 1.9688-2.0625 0.6875 0.5625v0.062h0.0625l1.5312 0.75 0.0625 0.031 3.125 0.625 0.125 0.031 0.09375-0.1563 1.1562-1.5937 0.0625-0.094-0.0625-0.1562-1.6875-2.6563-0.0625-0.062-1.3125-1.1875v-0.062l-0.78125-0.4687 1.2188-2.5313 0.84375 0.3125v0.062h0.03125l1.75 0.25h0.03125l3.1875-0.375h0.15625v-0.1562l0.59375-1.875 0.0625-0.1563-0.125-0.094-2.4375-2v-0.062h-0.0625l-1.5938-0.75h-0.0625v-0.031l-0.875-0.1875 0.3125-2.8125 0.9375 0.094h0.0625l1.75-0.3125h0.0625l2.875-1.3438 0.15625-0.031-0.03125-0.1563-0.03125-1.9687v-0.1563l-0.15625-0.031-0.84375-0.3438h-28.25zm15.219 6.5625c1.5746-0.037 3.4612 2.8477 2.7188 4.5625-2.0929 4.7326-5.8227 8.5904-10.469 10.875-1.6975 0.6672-4.526-1.0307-4.5625-2.5625l-0.28125-12.594 12.594-0.2813z"/>
  <path opacity=".25" style="block-progression:tb;text-indent:0;color:#000000;text-transform:none" d="m40.906 1016.3-0.15625 0.031-1.9688 0.25-0.09375 0.031-0.0625 0.125-0.8125 3.0625v0.062 1.7812l-0.03125 0.031 0.1875 0.9062-2.6875 0.8438-0.34375-0.8438 0.03125-0.031-0.03125-0.031-1-1.4687-0.03125-0.031-2.4375-2.0937-0.09375-0.094-0.09375 0.094-1.8125 0.8437-0.125 0.062v0.1563l0.1875 3.1562-0.03125 0.062 0.03125 0.031 0.53125 1.6562 0.03125 0.062-0.03125 0.031 0.5 0.75-2.3125 1.6875-0.5625-0.75-0.03125-0.031-1.4375-1.0937-0.03125-0.031-2.9375-1.1875-0.125-0.094-0.125 0.125-1.4062 1.375-0.09375 0.094 0.0625 0.125 1.0938 3 0.03125 0.031 1.0625 1.4375 0.03125 0.031 0.75 0.5938-1.75 2.25-0.75-0.5-0.03125 0.031-0.0625-0.031-1.6562-0.5938-0.03125-0.031-0.03125 0.031-3.1562-0.2812h-0.15625l-0.0625 0.125-0.90625 1.7812-0.09375 0.094 0.09375 0.094 2.0312 2.5 0.03125 0.031 1.4062 1.0312 0.03125 0.062 0.03125-0.062 0.84375 0.375-0.90625 2.6563-0.90625-0.2188-0.03125 0.031-1.7812-0.062h-0.0625l-3.0625 0.7187-0.15625 0.094-0.03125 0.094-0.3125 1.9375-0.03125 0.1875 0.125 0.062 2.6562 1.75h0.0625l1.6562 0.5313 0.03125 0.031 0.03125-0.031 0.90625 0.094-0.0625 2.8438-0.90625 0.062-0.03125-0.031-0.03125 0.031-1.625 0.5h-0.09375l-2.6875 1.6562-0.15625 0.062 0.03125 0.1875 0.15625 1.25h9.6875c-0.91045-4.1571-0.63318-8.525 0.875-12.531l0.0625-0.1563c0.07969-0.1654 0.15708-0.3239 0.28125-0.4687 1.1104-1.2938 3.8213-1.7388 4.7812-0.75l8.7812 9.0625-4.9688 4.8437h13.344c1.108 0 2-0.892 2-2v-12.938l-3.5938 3.5-8.7812-9.0312c-0.95995-0.9889-0.45119-3.6784 0.875-4.75 0.1877-0.1554 0.40459-0.2664 0.625-0.3438 3.4999-1.2004 7.2581-1.49 10.875-0.875v-8.6562l-1.25 1.9062v0.062l-0.5625 1.625-0.03125 0.031 0.03125 0.031-0.0625 0.9063-2.875-0.031-0.03125-0.9062 0.03125-0.031-0.03125-0.031-0.5-1.6563v-0.062l-1.6875-2.7187-0.0625-0.125zm3.375 28.188c0.80607 0.012 1.6129 0.3446 2.2188 0.9687 1.2118 1.2483 1.1858 3.2257-0.0625 4.4375-1.2481 1.2119-3.2258 1.1858-4.4375-0.062-1.2118-1.2482-1.1857-3.2257 0.0625-4.4375 0.6241-0.6059 1.4127-0.9182 2.2188-0.9062z"/>
 </g>
 <g>
  <path opacity=".25" style="color:#000000" d="m27.031 10.281l-0.062 0.25-0.25 0.907-0.625-0.626v-0.25h-0.25-5-0.25v0.25 1.376l-0.719-0.719-0.031-0.157-0.063-0.25-0.25 0.063-4.812 1.313-0.25 0.062 0.062 0.25 0.188 0.688-0.063-0.063-0.344-0.594-0.124-0.219-0.219 0.126-4.344 2.5-0.2188 0.124 0.125 0.219 1.0628 1.844-1.4065-1.406-0.1875-0.188-0.1875 0.188-3.5313 3.531-0.1562 0.188 0.1562 0.156 15.219 15.218 0.094 0.313v0.437 0.25h0.187l0.219 0.813 0.062 0.25 0.25-0.063 0.563-0.156 0.156 0.282 0.125 0.218 10.594 10.594h13.25c1.108 0 2-0.892 2-2v-22l-5.281-5.281 0.156-0.157-0.156-0.187-3.531-3.531-0.188-0.188-0.188 0.188-0.218 0.218-0.563-0.562 0.031-0.062-0.218-0.126-4.344-2.5-0.188-0.124-0.124 0.218-0.313 0.532-0.563-0.563 0.032-0.156-0.25-0.063-4.813-1.312-0.25-0.063z"/>
  <g transform="matrix(1.1 0 0 .44444 241.16 29.369)"></g>
  <g transform="translate(-459.44 -580.99)"></g>
 </g>
 <g>
  <g transform="matrix(.70711 -.70711 .70711 .70711 -18.527 19.272)">
   <g transform="translate(5.6825 9.6668)">
    <g transform="matrix(.70711 .70711 -.70711 .70711 26.728 -.52691)">
     <rect ry="0" style="color:#000000" transform="rotate(-45)" height="4" width="5" y="8.1127" x="-15.728" fill="#ba00ff"/>
     <rect ry="0" style="color:#000000" transform="rotate(-45)" height="4" width="5" y="12.113" x="-15.728" fill="#c321ff"/>
     <rect ry="0" style="color:#000000" transform="rotate(-45)" height="4" width="5" y="16.113" x="-15.728" fill="#cc41ff"/>
     <rect ry="0" style="color:#000000" transform="rotate(-45)" height="4" width="5" y="20.113" x="-15.728" fill="#d561ff"/>
     <rect ry="0" style="color:#000000" transform="rotate(-45)" height="4" width="5" y="24.113" x="-15.728" fill="#dd81ff"/>
     <rect ry="0" style="color:#000000" transform="rotate(-45)" height="5" width="5" y="28.113" x="-15.728" fill="#e6a1ff"/>
     <path style="block-progression:tb;text-indent:0;color:#000000;text-transform:none" d="m-5.7383 16.858 0.17678 0.17678 17.678 17.678 0.17678 0.17678 0.17678-0.17678 3.5355-3.5355 0.17678-0.17678-0.17678-0.17678-17.678-17.678-0.17678-0.17678-0.17678 0.17678-3.5355 3.5355-0.17678 0.17678zm0.70711 0 3.182-3.182 2.4749 2.4749-3.182 3.182-2.4749-2.4749zm2.8284 2.8284 3.182-3.182 2.4749 2.4749-3.182 3.182-2.4749-2.4749zm2.8284 2.8284 3.182-3.182 2.4749 2.4749-3.182 3.182-2.4749-2.4749zm2.8284 2.8284 3.182-3.182 2.4749 2.4749-3.182 3.182-2.4749-2.4749zm2.8284 2.8284 3.182-3.182 2.4749 2.4749-3.182 3.182-2.4749-2.4749zm2.8284 2.8284 3.182-3.182 3.182 3.182-3.182 3.182-3.182-3.182z" fill="#fff"/>
    </g>
    <g transform="matrix(.96593 .25882 -.25882 .96593 3.6708 -4.2755)">
     <rect style="color:#000000" ry="0" height="4" width="5" y="8" x="16" fill="#ff0101"/>
     <rect style="color:#000000" ry="0" height="4" width="5" y="12" x="16" fill="#ff2121"/>
     <rect style="color:#000000" ry="0" height="4" width="5" y="16" x="16" fill="#ff4141"/>
     <rect style="color:#000000" ry="0" height="4" width="5" y="20" x="16" fill="#ff6161"/>
     <rect style="color:#000000" ry="0" height="4" width="5" y="24" x="16" fill="#ff8181"/>
     <rect style="color:#000000" ry="0" height="5" width="5" y="28" x="16" fill="#ffa1a1"/>
     <path style="block-progression:tb;text-indent:0;color:#000000;text-transform:none" d="m15.75 7.75v0.25 25 0.25h0.25 5 0.25v-0.25-25-0.25h-0.25-5-0.25zm0.5 0.5h4.5v3.5h-4.5v-3.5zm0 4h4.5v3.5h-4.5v-3.5zm0 4h4.5v3.5h-4.5v-3.5zm0 4h4.5v3.5h-4.5v-3.5zm0 4h4.5v3.5h-4.5v-3.5zm0 4h4.5v4.5h-4.5v-4.5z" fill="#fff"/>
    </g>
    <g transform="matrix(.86603 .5 -.5 .86603 7.4833 -8.7128)">
     <rect style="color:#000000" ry="0" height="4" width="5" y="8" x="22" fill="#f60"/>
     <rect style="color:#000000" ry="0" height="4" width="5" y="12" x="22" fill="#ff7a21"/>
     <rect style="color:#000000" ry="0" height="4" width="5" y="16" x="22" fill="#ff8d41"/>
     <rect style="color:#000000" ry="0" height="4" width="5" y="20" x="22" fill="#ffa061"/>
     <rect style="color:#000000" ry="0" height="4" width="5" y="24" x="22" fill="#ffb381"/>
     <rect style="color:#000000" ry="0" height="5" width="5" y="28" x="22" fill="#ffc7a1"/>
     <path style="block-progression:tb;text-indent:0;color:#000000;text-transform:none" d="m21.75 7.75v0.25 25 0.25h0.25 5 0.25v-0.25-25-0.25h-0.25-5-0.25zm0.5 0.5h4.5v3.5h-4.5v-3.5zm0 4h4.5v3.5h-4.5v-3.5zm0 4h4.5v3.5h-4.5v-3.5zm0 4h4.5v3.5h-4.5v-3.5zm0 4h4.5v3.5h-4.5v-3.5zm0 4h4.5v4.5h-4.5v-4.5z" fill="#fff"/>
    </g>
    <g transform="matrix(.70711 .70711 -.70711 .70711 14 -13.255)">
     <rect style="color:#000000" ry="0" height="4" width="5" y="8" x="28" fill="#ffff01"/>
     <rect style="color:#000000" ry="0" height="4" width="5" y="12" x="28" fill="#ffff21"/>
     <rect style="color:#000000" ry="0" height="4" width="5" y="16" x="28" fill="#ffff41"/>
     <rect style="color:#000000" ry="0" height="4" width="5" y="20" x="28" fill="#ffff61"/>
     <rect style="color:#000000" ry="0" height="4" width="5" y="24" x="28" fill="#ffff81"/>
     <rect style="color:#000000" ry="0" height="5" width="5" y="28" x="28" fill="#ffff95"/>
     <path style="block-progression:tb;text-indent:0;color:#000000;text-transform:none" d="m27.75 7.75v0.25 25 0.25h0.25 5 0.25v-0.25-25-0.25h-0.25-5-0.25zm0.5 0.5h4.5v3.5h-4.5v-3.5zm0 4h4.5v3.5h-4.5v-3.5zm0 4h4.5v3.5h-4.5v-3.5zm0 4h4.5v3.5h-4.5v-3.5zm0 4h4.5v3.5h-4.5v-3.5zm0 4h4.5v4.5h-4.5v-4.5z" fill="#fff"/>
    </g>
    <g transform="matrix(.5 .86603 -.86603 .5 22.713 -16.909)">
     <rect style="color:#000000" ry="0" height="4" width="5" y="8" x="34" fill="#b1ff01"/>
     <rect style="color:#000000" ry="0" height="4" width="5" y="12" x="34" fill="#bbff21"/>
     <rect style="color:#000000" ry="0" height="4" width="5" y="16" x="34" fill="#c5ff41"/>
     <rect style="color:#000000" ry="0" height="4" width="5" y="20" x="34" fill="#cfff61"/>
     <rect style="color:#000000" ry="0" height="4" width="5" y="24" x="34" fill="#d8ff81"/>
     <rect style="color:#000000" ry="0" height="5" width="5" y="28" x="34" fill="#dfff95"/>
     <path style="block-progression:tb;text-indent:0;color:#000000;text-transform:none" d="m33.75 7.75v0.25 25 0.25h0.25 5 0.25v-0.25-25-0.25h-0.25-5-0.25zm0.5 0.5h4.5v3.5h-4.5v-3.5zm0 4h4.5v3.5h-4.5v-3.5zm0 4h4.5v3.5h-4.5v-3.5zm0 4h4.5v3.5h-4.5v-3.5zm0 4h4.5v3.5h-4.5v-3.5zm0 4h4.5v4.5h-4.5v-4.5z" fill="#fff"/>
    </g>
    <g transform="matrix(.25882 .96593 -.96593 .25882 33.522 -18.783)">
     <rect style="color:#000000" ry="0" height="4" width="5" y="8" x="40" fill="#01a9ff"/>
     <rect style="color:#000000" ry="0" height="4" width="5" y="12" x="40" fill="#21b4ff"/>
     <rect style="color:#000000" ry="0" height="4" width="5" y="16" x="40" fill="#41beff"/>
     <rect style="color:#000000" ry="0" height="4" width="5" y="20" x="40" fill="#61c9ff"/>
     <rect style="color:#000000" ry="0" height="4" width="5" y="24" x="40" fill="#81d4ff"/>
     <rect style="color:#000000" ry="0" height="5" width="5" y="28" x="40" fill="#95dbff"/>
     <path style="block-progression:tb;text-indent:0;color:#000000;text-transform:none" d="m39.75 7.75v0.25 25 0.25h0.25 5 0.25v-0.25-25-0.25h-0.25-5-0.25zm0.5 0.5h4.5v3.5h-4.5v-3.5zm0 4h4.5v3.5h-4.5v-3.5zm0 4h4.5v3.5h-4.5v-3.5zm0 4h4.5v3.5h-4.5v-3.5zm0 4h4.5v3.5h-4.5v-3.5zm0 4h4.5v4.5h-4.5v-4.5z" fill="#fff"/>
    </g>
    <path style="block-progression:tb;text-indent:0;color:#000000;text-transform:none" d="m38.25 27.75h-0.25-25-0.25v0.25 5 0.25h0.25 25 0.25v-0.25-5-0.25z" fill="#fff"/>
    <path style="color:#000000" d="m15 32c0 0.55228-0.44772 1-1 1s-1-0.44772-1-1 0.44772-1 1-1 1 0.44772 1 1z" transform="translate(0,-1)" fill="#9eabb0"/>
    <path fill="#364e59" d="m20.68 31.84c-0.13802 0.07161-0.2819 0.12565-0.43164 0.16211s-0.30599 0.05469-0.46875 0.05469c-0.48568 0-0.87044-0.13542-1.1543-0.40625-0.28386-0.27214-0.42578-0.64062-0.42578-1.1055 0-0.46614 0.14193-0.83463 0.42578-1.1055 0.28385-0.27213 0.66862-0.4082 1.1543-0.4082 0.16276 0.000003 0.31901 0.01823 0.46875 0.05469s0.29362 0.0905 0.43164 0.16211v0.60352c-0.13932-0.09505-0.2767-0.16471-0.41211-0.20898-0.13542-0.04427-0.278-0.0664-0.42773-0.06641-0.26823 0.000002-0.47917 0.08594-0.63281 0.25781-0.15365 0.17188-0.23047 0.40886-0.23047 0.71094 0 0.30078 0.07682 0.53711 0.23047 0.70898 0.15364 0.17188 0.36458 0.25781 0.63281 0.25781 0.14974 0 0.29232-0.02213 0.42773-0.06641 0.13541-0.04427 0.27278-0.11393 0.41211-0.20898v0.60352"/>
    <path fill="#364e59" d="m22.674 30.26c-0.15495 0.000001-0.27344 0.05599-0.35547 0.16797-0.08073 0.11068-0.12109 0.27084-0.12109 0.48047-0.000001 0.20964 0.04036 0.37044 0.12109 0.48242 0.08203 0.11068 0.20052 0.16602 0.35547 0.16602 0.15234 0 0.26888-0.05534 0.34961-0.16602 0.08073-0.11198 0.12109-0.27279 0.12109-0.48242-0.000002-0.20963-0.04037-0.36979-0.12109-0.48047-0.08073-0.11198-0.19727-0.16797-0.34961-0.16797m0-0.5c0.3763 0.000002 0.66992 0.10156 0.88086 0.30469 0.21224 0.20313 0.31836 0.48438 0.31836 0.84375-0.000003 0.35938-0.10612 0.64063-0.31836 0.84375-0.21094 0.20312-0.50456 0.30469-0.88086 0.30469-0.3776 0-0.67318-0.10156-0.88672-0.30469-0.21224-0.20312-0.31836-0.48437-0.31836-0.84375 0-0.35937 0.10612-0.64062 0.31836-0.84375 0.21354-0.20312 0.50911-0.30468 0.88672-0.30469"/>
    <path fill="#364e59" d="m24.578 28.961h0.69922v3.0391h-0.69922v-3.0391"/>
    <path fill="#364e59" d="m27.229 30.26c-0.15495 0.000001-0.27344 0.05599-0.35547 0.16797-0.08073 0.11068-0.1211 0.27084-0.12109 0.48047-0.000001 0.20964 0.04036 0.37044 0.12109 0.48242 0.08203 0.11068 0.20052 0.16602 0.35547 0.16602 0.15234 0 0.26888-0.05534 0.34961-0.16602 0.08073-0.11198 0.12109-0.27279 0.12109-0.48242-0.000002-0.20963-0.04037-0.36979-0.12109-0.48047-0.08073-0.11198-0.19727-0.16797-0.34961-0.16797m0-0.5c0.3763 0.000002 0.66992 0.10156 0.88086 0.30469 0.21224 0.20313 0.31836 0.48438 0.31836 0.84375-0.000002 0.35938-0.10612 0.64063-0.31836 0.84375-0.21094 0.20312-0.50456 0.30469-0.88086 0.30469-0.37761 0-0.67318-0.10156-0.88672-0.30469-0.21224-0.20312-0.31836-0.48437-0.31836-0.84375 0-0.35937 0.10612-0.64062 0.31836-0.84375 0.21354-0.20312 0.50911-0.30468 0.88672-0.30469"/>
    <path fill="#364e59" d="m30.758 30.408c-0.0612-0.02864-0.1224-0.04948-0.18359-0.0625-0.0599-0.01432-0.12044-0.02148-0.18164-0.02148-0.17969 0.000001-0.31836 0.05794-0.41602 0.17383-0.09636 0.11458-0.14453 0.2793-0.14453 0.49414v1.0078h-0.69922v-2.1875h0.69922v0.35938c0.08984-0.14323 0.19271-0.24739 0.30859-0.3125 0.11719-0.0664 0.25716-0.09961 0.41992-0.09961 0.02344 0.000002 0.04883 0.0013 0.07617 0.0039 0.02734 0.0013 0.06705 0.0052 0.11914 0.01172l0.002 0.63281"/>
    <path fill="#364e59" d="m32.99 29.881v0.53125c-0.14974-0.0625-0.29427-0.10937-0.43359-0.14062s-0.27084-0.04687-0.39453-0.04687c-0.13281 0.000002-0.23177 0.01693-0.29688 0.05078-0.0638 0.03255-0.0957 0.08334-0.0957 0.15234-0.000001 0.05599 0.02409 0.09896 0.07227 0.12891 0.04948 0.02995 0.13737 0.05208 0.26367 0.06641l0.12305 0.01758c0.35807 0.04557 0.59896 0.12044 0.72266 0.22461s0.18554 0.26758 0.18555 0.49024c-0.000002 0.23307-0.08594 0.4082-0.25781 0.52539-0.17188 0.11719-0.42839 0.17578-0.76953 0.17578-0.14453 0-0.29427-0.01172-0.44922-0.03516-0.15365-0.02214-0.31185-0.05599-0.47461-0.10156v-0.53125c0.13932 0.06771 0.2819 0.11849 0.42773 0.15234 0.14714 0.03385 0.29622 0.05078 0.44727 0.05078 0.13672 0 0.23958-0.01888 0.30859-0.05664s0.10351-0.09375 0.10352-0.16797c-0.000001-0.0625-0.02409-0.10872-0.07227-0.13867-0.04688-0.03125-0.14128-0.05534-0.2832-0.07227l-0.12305-0.01563c-0.3112-0.03906-0.5293-0.11133-0.6543-0.2168s-0.1875-0.26562-0.1875-0.48047c0-0.23177 0.07943-0.40364 0.23828-0.51562s0.40234-0.16797 0.73047-0.16797c0.1289 0.000002 0.26432 0.0098 0.40625 0.0293 0.14192 0.01953 0.29622 0.05013 0.46289 0.0918"/>
   </g>
  </g>
 </g>
 <g>
  <path opacity=".4" style="color:#000000" d="m2 0c-1.108 0-2 0.892-2 2v44c0 1.108 0.892 2 2 2h44c1.108 0 2-0.892 2-2v-44c0-1.108-0.892-2-2-2h-44zm0 0.5h44c0.83101 0 1.5 0.66899 1.5 1.5v44c0 0.83101-0.66899 1.5-1.5 1.5h-44c-0.831 0-1.5-0.669-1.5-1.5v-44c0-0.831 0.669-1.5 1.5-1.5z" fill="url(#linearGradient12443)"/>
 </g>
</svg>
