<svg xmlns:rdf="http://www.w3.org/1999/02/22-rdf-syntax-ns#" xmlns="http://www.w3.org/2000/svg" height="48" width="48" version="1.1" xmlns:cc="http://creativecommons.org/ns#" xmlns:xlink="http://www.w3.org/1999/xlink" xmlns:dc="http://purl.org/dc/elements/1.1/">
 <defs>
  <linearGradient id="linearGradient12443" y2="3" gradientUnits="userSpaceOnUse" y1=".5" x2="27.5" x1="27.5">
   <stop stop-color="#fff" offset="0"/>
   <stop stop-color="#fff" stop-opacity="0" offset="1"/>
  </linearGradient>
  <clipPath id="clipPath11530-5" clipPathUnits="userSpaceOnUse">
   <path d="m118.62 209.5c2.5833-0.38773 5.1667-0.51062 7.75 0.75 0 0 0.28209 5.4813-1.625 5.625-2.3783 0.17918-6.125-6.375-6.125-6.375z" stroke="#000" stroke-width=".087522" fill="none"/>
  </clipPath>
  <filter id="filter10703-0" width="1.2401" y="-.11997" x="-.12003" height="1.2399" color-interpolation-filters="sRGB">
   <feGaussianBlur stdDeviation="1.3998482"/>
  </filter>
  <clipPath id="clipPath10771" clipPathUnits="userSpaceOnUse">
   <path opacity=".25" style="block-progression:tb;color:#000000;text-transform:none;text-indent:0" d="m12.062 10c-0.19506 0.0028-0.40778 0.0961-0.46875 0.28125-0.49747 1.5055-0.36259 4.1114 1.0312 5.625-3.0738 4.328-3.5752 10.199-0.749 15.094 0.15687 0.2717 0.32807 0.52416 0.5 0.78125 0.11292 0.16846 0.22466 0.33807 0.34375 0.5 0.06165 0.08406 0.12424 0.16766 0.1875 0.25 0.05781 0.07505 0.12838 0.14516 0.1875 0.21875 0.18606 0.23209 0.36399 0.46988 0.5625 0.6875 0.09487 0.10375 0.18366 0.21201 0.28125 0.3125 0.05092 0.05255 0.10461 0.10461 0.15625 0.15625 0.13015 0.12988 0.27164 0.25073 0.40625 0.375l13.719 13.719h17.719c1.108 0 2-0.892 2-2v-24.031l-11.719-11.719c-0.01414-0.03189-0.04013-0.06821-0.0625-0.09375-0.0089-0.0089-0.02144-0.02319-0.03125-0.03125-0.05862-0.05399-0.13524-0.07287-0.21875-0.09375-0.26432-0.067049-0.58473 0.02085-0.625 0.25-0.21607 1.2261-1.1628 2.4151-2.1562 3.0938-2.3037-1.9769-5.1815-3.1331-8.1562-3.3438-1.0501-0.074341-2.1023-0.01101-3.1562 0.15625-0.28175 0.04451-0.56345 0.0941-0.84375 0.15625-0.18195 0.04034-0.38145 0.07715-0.5625 0.125-0.25372 0.06743-0.49858 0.13636-0.75 0.21875-0.09471 0.03082-0.18693 0.0608-0.28125 0.09375-0.23325 0.08207-0.45691 0.18602-0.6875 0.28125-0.24251 0.10015-0.51098 0.19766-0.75 0.3125-0.03383 0.01628-0.06 0.04592-0.09375 0.0625-0.28662 0.14054-0.56314 0.27549-0.84375 0.4375-0.29723 0.17161-0.56927 0.36836-0.84375 0.5625-0.27735 0.19135-0.55242 0.38651-0.8125 0.59375l-2.907-2.906c-0.023-0.023-0.065-0.046-0.094-0.063-0.027-0.014-0.063-0.022-0.094-0.031-0.063-0.02-0.118-0.032-0.188-0.031z"/>
  </clipPath>
 </defs>
 <g transform="translate(0 -1004.4)">
  <rect style="color:#000000" ry="2" height="48" width="48" y="1004.4" x="-.0625" fill="#f60"/>
 </g>
 <g>
  <path opacity=".25" style="block-progression:tb;color:#000000;text-transform:none;text-indent:0" d="m12.062 10c-0.195 0.003-0.407 0.096-0.468 0.281-0.498 1.506-0.363 4.112 1.031 5.625-3.0748 4.328-3.5762 10.199-0.75 15.094 0.157 0.272 0.328 0.524 0.5 0.781 0.113 0.169 0.225 0.338 0.344 0.5 0.061 0.084 0.124 0.168 0.187 0.25 0.058 0.075 0.129 0.145 0.188 0.219 0.186 0.232 0.364 0.47 0.562 0.688 0.095 0.103 0.184 0.212 0.282 0.312 0.05 0.053 0.104 0.105 0.156 0.156 0.13 0.13 0.271 0.251 0.406 0.375l13.719 13.719h17.719c1.108 0 2-0.892 2-2v-24.031l-11.719-11.719c-0.014-0.032-0.04-0.068-0.063-0.094-0.009-0.009-0.021-0.023-0.031-0.031-0.059-0.054-0.135-0.073-0.219-0.094-0.264-0.0668-0.584 0.021-0.625 0.25-0.216 1.226-1.163 2.415-2.156 3.094-2.304-1.977-5.181-3.133-8.156-3.344-1.05-0.0741-2.103-0.011-3.157 0.157-0.281 0.044-0.563 0.094-0.843 0.156-0.182 0.04-0.382 0.077-0.563 0.125-0.253 0.067-0.498 0.136-0.75 0.219-0.094 0.03-0.187 0.06-0.281 0.093-0.233 0.082-0.457 0.186-0.687 0.281-0.243 0.101-0.511 0.198-0.75 0.313-0.034 0.016-0.061 0.046-0.094 0.063-0.287 0.14-0.563 0.275-0.844 0.437-0.297 0.172-0.569 0.368-0.844 0.563-0.277 0.191-0.552 0.386-0.812 0.593l-2.906-2.906c-0.023-0.023-0.065-0.046-0.094-0.063-0.027-0.014-0.063-0.022-0.094-0.031-0.063-0.02-0.118-0.032-0.188-0.031z"/>
  <flowRoot opacity=".25" style="word-spacing:0px;letter-spacing:0px" line-height="125%" xml:space="preserve" font-size="40px" transform="translate(32.627 -1001.2)" font-family="sans-serif" fill="#000000"><flowRegion><rect height="49.321" width="57.629" y="6.6343" x="-53.033" fill="#000"/></flowRegion><flowPara/></flowRoot>
  <flowRoot style="word-spacing:0px;letter-spacing:0px" xml:space="preserve" transform="translate(-104.89 -1017.8)" line-height="125%" font-size="40px" font-family="sans-serif" fill="#000000"><flowRegion><rect y="6.6343" x="-53.033" width="57.629" height="49.321"/></flowRegion><flowPara/></flowRoot>
  <path opacity=".6" style="block-progression:tb;text-indent:0;color:#000000;text-transform:none" d="m12.062 10c-0.19506 0-0.40778 0.096-0.46875 0.2812-0.49747 1.5055-0.36259 4.1114 1.0312 5.625-3.0748 4.3273-3.5762 10.199-0.75 15.094 3.864 6.6926 12.432 8.989 19.125 5.125 6.6927-3.8641 8.989-12.432 5.125-19.125-0.20224-0.3503-0.42912-0.6741-0.65625-1 1.4778-1.5582 1.4144-4.256 0.75-5.75-0.15713-0.3543-0.87708-0.3126-0.9375 0.031-0.215 1.226-1.162 2.415-2.155 3.094-2.304-1.977-5.181-3.133-8.156-3.344-2.69-0.1902-5.459 0.395-7.969 1.844-0.745 0.43-1.429 0.931-2.062 1.469-1.049-0.601-2.118-1.811-2.438-3.094-0.043-0.172-0.242-0.2528-0.438-0.25z" clip-path="url(#clipPath10771)" filter="url(#filter10703-0)"/>
 </g>
 <g>
  <path stroke-linejoin="round" d="m323.5 177.84a8.5312 8.5312 0 1 1 -17.062 0 8.5312 8.5312 0 1 1 17.062 0z" transform="matrix(1.6019 0 0 1.6019 -480.56 -260.89)" stroke="#42770c" stroke-linecap="round" stroke-width=".41641" fill="#ccff42"/>
  <path d="m118.62 209.5c2.5833-0.38773 5.1667-0.51062 7.75 0.75 0 0 0.28209 5.4813-1.625 5.625-2.3783 0.17918-6.125-6.375-6.125-6.375z" clip-path="url(#clipPath11530-5)" transform="matrix(.48507 -.050803 .050803 .48507 -53.396 -65.709)" stroke="#364e59" stroke-width="1.8667" fill="#9eabb0"/>
  <path d="m118.62 209.5c2.5833-0.38773 5.1667-0.51062 7.75 0.75 0 0 0.28209 5.4813-1.625 5.625-2.3783 0.17918-6.125-6.375-6.125-6.375z" clip-path="url(#clipPath11530-5)" transform="matrix(-.46823 -.035301 -.035301 .46823 95.992 -64.016)" stroke="#364e59" stroke-width="2.0905" fill="#9eabb0"/>
  <path d="m12.18 29.666h23.667" stroke="#0e232e" stroke-width="0.667" fill="none"/>
  <path d="m15.361 13.532c1.7603 0.7588-0.49799 4.0903-2.1997 2.868-1.904-1.3675-2.1162-4.437-1.5602-6.1197 0.12194-0.3703 0.79821-0.3686 0.8842-0.024 0.36189 1.4492 1.7229 2.7791 2.8757 3.276z" fill="#0e232e"/>
  <path d="m32.585 13.689c-1.7612 0.8649 0.85592 3.9727 2.5178 2.6579 1.8595-1.471 1.8242-4.4928 1.1083-6.1029-0.15713-0.3543-0.85786-0.3058-0.91828 0.038-0.25455 1.4445-1.5545 2.8415-2.7078 3.4077z" fill="#0e232e"/>
  <path d="m181 115a8.5 17 0 1 1 -17 0 8.5 17 0 1 1 17 0z" transform="matrix(.19608 0 0 .098039 -2.1569 13.059)" fill="#0e232e"/>
  <path d="m326.94 57.594a0.40625 0.40625 0 1 1 -0.8125 0 0.40625 0.40625 0 1 1 0.8125 0z" transform="matrix(.76011 0 0 .75279 -216.53 -19.947)" fill="#eeeeec"/>
  <path d="m181 115a8.5 17 0 1 1 -17 0 8.5 17 0 1 1 17 0z" transform="matrix(.19608 0 0 .098039 -17.49 13.059)" fill="#0e232e"/>
  <path d="m326.94 57.594a0.40625 0.40625 0 1 1 -0.8125 0 0.40625 0.40625 0 1 1 0.8125 0z" transform="matrix(.76011 0 0 .75279 -231.87 -19.947)" fill="#eeeeec"/>
 </g>
 <g>
  <path opacity=".4" style="color:#000000" d="m2 0c-1.108 0-2 0.892-2 2v44c0 1.108 0.892 2 2 2h44c1.108 0 2-0.892 2-2v-44c0-1.108-0.892-2-2-2h-44zm0 0.5h44c0.83101 0 1.5 0.66899 1.5 1.5v44c0 0.83101-0.66899 1.5-1.5 1.5h-44c-0.831 0-1.5-0.669-1.5-1.5v-44c0-0.831 0.669-1.5 1.5-1.5z" fill="url(#linearGradient12443)"/>
 </g>
</svg>
