<svg xmlns:rdf="http://www.w3.org/1999/02/22-rdf-syntax-ns#" xmlns="http://www.w3.org/2000/svg" height="48" width="48" version="1.1" xmlns:cc="http://creativecommons.org/ns#" xmlns:xlink="http://www.w3.org/1999/xlink" xmlns:dc="http://purl.org/dc/elements/1.1/">
 <defs>
  <linearGradient id="linearGradient12443" y2="3" gradientUnits="userSpaceOnUse" x2="27.5" y1=".5" x1="27.5">
   <stop stop-color="#fff" offset="0"/>
   <stop stop-color="#fff" stop-opacity="0" offset="1"/>
  </linearGradient>
 </defs>
 <g transform="translate(0 -1004.4)">
  <rect style="color:#000000" ry="2" height="48" width="48" y="1004.4" x="0" fill="#f60"/>
 </g>
 <g>
  <flowRoot style="word-spacing:0px;letter-spacing:0px" xml:space="preserve" transform="translate(-18.262 -1007.9)" line-height="125%" font-size="40px" font-family="sans-serif" fill="#000000"><flowRegion><rect y="6.6343" x="-53.033" width="57.629" height="49.321"/></flowRegion><flowPara/></flowRoot>
  <path opacity=".2" style="color:#000000" d="m10 9c-0.9455 0-2 1.073-2 2v18c0 0.45721 0.70175 1.6956 1 2l17 17h20c1.108 0 2-0.892 2-2v-28l-8.281-8.25-0.219-0.25c-0.232-0.232-0.506-0.3692-0.844-0.4375-0.122-0.0272-0.244-0.0625-0.375-0.0625z"/>
 </g>
 <g>
  <path style="color:#000000" d="m10 9c-0.9455 0-2 1.073-2 2v18c0 0.9266 1.0545 2 2 2h11c0 3-3.4744 3.2524-5 4v1h16v-1c-1.5256-0.7476-5-1-5-4h11c0.94549 0 2-1.0734 2-2v-18c0-0.927-1.055-2-2-2zm0 2h28v17h-28z" fill="#fff"/>
  <rect opacity=".25" ry="0" height="17" width="28" y="11" x="10" fill="#fff"/>
  <path opacity=".25" style="color:#000000" d="m23.938 12c-1.365 0-2.469 1.104-2.469 2.469v2.062l2.062 2.063h-3.719c-0.456 0-0.812 0.356-0.812 0.812v5.782c0 0.228 0.101 0.413 0.25 0.562l10.219 10.25h2.531v-1c-1.526-0.748-5-1-5-4h11c0.659 0 1.348-0.527 1.719-1.156l-1.657-1.656v-2.063c0-0.682-0.271-1.303-0.718-1.75l-11.656-11.656c-0.448-0.447-1.068-0.719-1.75-0.719z"/>
  <g transform="matrix(.41176 0 0 .41176 14.059 9.1176)">
   <g fill="#fff" transform="translate(0,1)">
    <path style="color:#000000" d="m24 6c-3.3137 0-6 2.6863-6 6v5h3v-5c0-1.6569 1.3431-3 3-3 1.6569 1e-7 3 1.3431 3 3v10h-13c-1.108 0-2 0.892-2 2v14c0 1.108 0.892 2 2 2h20c1.108 0 2.2857-0.892 2.2857-2v-14c0-1.108-1.178-2-2.286-2h-3-1v-10c0-3.3137-2.686-6-6-6zm0 21c1.1046 0 2 0.89543 2 2 0 0.7396-0.4031 1.3727-1 1.7188v4.281h-2v-4.281c-0.597-0.346-1-0.979-1-1.719 0-1.1046 0.89543-2 2-2z" fill="#fff"/>
   </g>
  </g>
 </g>
 <path opacity=".4" style="color:#000000" d="m2 0c-1.108 0-2 0.892-2 2v44c0 1.108 0.892 2 2 2h44c1.108 0 2-0.892 2-2v-44c0-1.108-0.892-2-2-2h-44zm0 0.5h44c0.83101 0 1.5 0.66899 1.5 1.5v44c0 0.83101-0.66899 1.5-1.5 1.5h-44c-0.831 0-1.5-0.669-1.5-1.5v-44c0-0.831 0.669-1.5 1.5-1.5z" fill="url(#linearGradient12443)"/>
</svg>
