<svg xmlns:rdf="http://www.w3.org/1999/02/22-rdf-syntax-ns#" xmlns="http://www.w3.org/2000/svg" height="48" width="48" version="1.1" xmlns:cc="http://creativecommons.org/ns#" xmlns:xlink="http://www.w3.org/1999/xlink" xmlns:dc="http://purl.org/dc/elements/1.1/">
 <defs>
  <linearGradient id="linearGradient12443" y2="3" gradientUnits="userSpaceOnUse" x2="27.5" y1=".5" x1="27.5">
   <stop stop-color="#fff" offset="0"/>
   <stop stop-color="#fff" stop-opacity="0" offset="1"/>
  </linearGradient>
 </defs>
 <g transform="translate(0 -1004.4)">
  <rect style="color:#000000" ry="2" height="48" width="48" y="1004.4" x="-.0625" fill="#d76cff"/>
 </g>
 <g>
  <flowRoot opacity=".25" style="word-spacing:0px;letter-spacing:0px" xml:space="preserve" transform="translate(32.627 -1001.2)" line-height="125%" font-size="40px" font-family="sans-serif" fill="#000000"><flowRegion><rect height="49.321" width="57.629" y="6.6343" x="-53.033" fill="#000"/></flowRegion><flowPara/></flowRoot>
  <flowRoot style="word-spacing:0px;letter-spacing:0px" line-height="125%" xml:space="preserve" font-size="40px" transform="translate(-104.89 -1017.8)" font-family="sans-serif" fill="#000000"><flowRegion><rect y="6.6343" width="57.629" x="-53.033" height="49.321"/></flowRegion><flowPara/></flowRoot>
  <path opacity=".35" d="m9.0625 9.125c-0.5867 0.0633-1.0658 0.5942-1.0625 1.187v21.719c0 0.317 0.1518 0.621 0.375 0.844l15.125 15.125h22.438c1.108 0 2-0.892 2-2v-28.188l-8.313-8.312v-0.0312c-0.111-0.1108-0.233-0.1867-0.375-0.25-0.142-0.0634-0.281-0.0938-0.438-0.0938h-29.75z"/>
  <rect style="color:#000000" ry="0" height="18" width="27" y="12" x="10" fill="#bdcdd4"/>
 </g>
 <g>
  <path fill="#0e232e" d="m9.0625 9.125c-0.5867 0.0633-1.0658 0.5942-1.0625 1.187v21.719c0 0.63 0.5608 1.219 1.1875 1.219h10.812v2.406h8v-2.406h10.812c0.627 0 1.188-0.589 1.188-1.219v-21.719c0-0.6328-0.561-1.187-1.188-1.187h-29.75zm9.3755 4.094c1.835 0 3.464 0.793 4.593 2.062-0.16-0.012-0.336 0-0.5 0-3.406 0-6.125 2.75-6.125 6.157 0 1.57 0.567 3.003 1.532 4.093-3.176-0.25-5.657-2.883-5.657-6.125 0-3.406 2.754-6.187 6.157-6.187zm9.937 1.937l0.469 1.906 1.937 0.469-1.937 0.5-0.469 1.907-0.469-1.907-1.937-0.5 1.937-0.469 0.469-1.906zm3.344 6.532l0.469 1.937 1.937 0.469-1.937 0.468-0.469 1.938-0.469-1.938-1.938-0.468 1.938-0.469 0.469-1.937zm-7.344 1.593l0.469 1.938 1.937 0.469-1.937 0.468-0.469 1.938-0.469-1.938-1.937-0.468 1.937-0.469 0.469-1.938zm-9.969 13.188v2.406h20v-2.406h-20z"/>
 </g>
 <g>
  <path opacity=".4" style="color:#000000" d="m2 0c-1.108 0-2 0.892-2 2v44c0 1.108 0.892 2 2 2h44c1.108 0 2-0.892 2-2v-44c0-1.108-0.892-2-2-2h-44zm0 0.5h44c0.83101 0 1.5 0.66899 1.5 1.5v44c0 0.83101-0.66899 1.5-1.5 1.5h-44c-0.831 0-1.5-0.669-1.5-1.5v-44c0-0.831 0.669-1.5 1.5-1.5z" fill="url(#linearGradient12443)"/>
 </g>
</svg>
