<svg xmlns:rdf="http://www.w3.org/1999/02/22-rdf-syntax-ns#" xmlns="http://www.w3.org/2000/svg" height="48" width="48" version="1.1" xmlns:cc="http://creativecommons.org/ns#" xmlns:xlink="http://www.w3.org/1999/xlink" xmlns:dc="http://purl.org/dc/elements/1.1/">
 <defs>
  <linearGradient id="linearGradient12443" y2="3" gradientUnits="userSpaceOnUse" y1=".5" x2="27.5" x1="27.5">
   <stop stop-color="#fff" offset="0"/>
   <stop stop-color="#fff" stop-opacity="0" offset="1"/>
  </linearGradient>
 </defs>
 <g transform="translate(0 -1004.4)">
  <rect style="color:#000000" ry="2" height="48" width="48" y="1004.4" x="0" fill="#263745"/>
  <g transform="matrix(.35545 0 0 .14361 171.12 1002.5)"></g>
  <g transform="matrix(.32314 0 0 .32314 -55.272 805.26)"></g>
  <path id="use5502" style="block-progression:tb;text-indent:0;color:#000000;text-transform:none" d="m10 15.75v0.5h5v-0.5h-5z" fill="#fff"/>
  <use id="use5504" xlink:href="#use5502" transform="translate(0,4)" height="48" width="48" y="0" x="0"/>
  <use id="use5506" xlink:href="#use5504" transform="translate(0,4)" height="48" width="48" y="0" x="0"/>
  <use xlink:href="#use5506" transform="translate(0,4)" height="48" width="48" y="0" x="0"/>
  <path style="color:#000000" d="m27 14.5a4.5 4.5 0 1 1 -9 0 4.5 4.5 0 1 1 9 0z" transform="translate(0 1003.4)" fill="#ccc"/>
  <path opacity=".5" style="color:#000000" d="m4.5 3.5c-0.554 0-1 0.446-1 1v38c0 0.277 0.1005 0.538 0.2812 0.719-0.0129-0.072-0.0312-0.144-0.0312-0.219v-38c0-0.6882 0.5618-1.25 1.25-1.25h38c0.075 0 0.147 0.0183 0.219 0.0312-0.181-0.1807-0.442-0.2812-0.719-0.2812h-38z" transform="translate(0 1004.4)" stroke="#fff" stroke-width=".5" fill="none"/>
  <path opacity=".6" style="color:#000000" d="m43.719 1049.1c0.554 0 1-0.446 1-1v-38c0-0.277-0.1005-0.538-0.28125-0.7188 0.01293 0.072 0.03125 0.1434 0.03125 0.2188v38c0 0.6882-0.56182 1.25-1.25 1.25h-38c-0.07543 0-0.14692-0.018-0.21875-0.031 0.18075 0.1808 0.44175 0.2813 0.71875 0.2813h38z" stroke="#000" stroke-width=".5" fill="none"/>
 </g>
 <g>
  <g transform="matrix(1.1 0 0 .44444 241.16 29.369)"></g>
  <g transform="translate(-459.44 -580.99)"></g>
  <path opacity=".35" style="block-progression:tb;color:#000000;text-transform:none;text-indent:0" d="m22.5 10.25c-1.786 0-3.25 1.464-3.25 3.25 0 0.893 0.38 1.692 0.969 2.281l27.781 27.781v-9.156l-23.094-23.094c-0.035-0.038-0.088-0.057-0.125-0.093-0.121-0.121-0.236-0.243-0.375-0.344-0.03-0.022-0.062-0.041-0.094-0.063-0.146-0.099-0.306-0.206-0.468-0.281-0.029-0.013-0.065-0.019-0.094-0.031-0.185-0.079-0.362-0.144-0.562-0.188-0.011-0.002-0.022 0.003-0.032 0-0.211-0.043-0.433-0.062-0.656-0.062zm-4.656 11.312c-0.473 0.091-0.75 0.714-0.5 1.126l3.406 5.937c-0.625 0.593-1 1.448-1 2.375s0.375 1.782 1 2.375l-3.406 5.906c-0.098 0.172-0.115 0.372-0.063 0.563 0.052 0.19 0.172 0.37 0.344 0.468l7.687 7.688h20.688c1.108 0 2-0.892 2-2v-1.062l-14.469-14.469c-0.14-0.139-0.333-0.222-0.531-0.219h-6.844c-0.341-1.43-1.624-2.5-3.156-2.5-0.32 0-0.614 0.07-0.906 0.156l-3.438-5.968c-0.146-0.259-0.456-0.414-0.75-0.376h-0.062z"/>
 </g>
 <g>
  <path style="block-progression:tb;text-indent:0;color:#000000;text-transform:none" d="m22.844 30.25a0.75406 0.75406 0 1 0 0.156 1.5h10a0.75008 0.75008 0 1 0 0 -1.5h-10a0.75008 0.75008 0 0 0 -0.15625 0z" fill="#999"/>
  <path style="block-progression:tb;text-indent:0;color:#000000;text-transform:none" d="m17.906 21.575a0.75008 0.75008 0 0 0 -0.5625 1.125l5 8.6875a0.75584 0.75584 0 1 0 1.3125 -0.75l-5-8.6875a0.75008 0.75008 0 0 0 -0.75 -0.375z" fill="#999"/>
  <path style="block-progression:tb;text-indent:0;color:#000000;text-transform:none" d="m22.938 30.232a0.75008 0.75008 0 0 0 -0.59375 0.4062l-5 8.6562a0.75584 0.75584 0 1 0 1.3125 0.75l5-8.6562a0.75008 0.75008 0 0 0 -0.718 -1.156z" fill="#999"/>
  <path style="color:#000000" d="m26 31a3 3 0 1 1 -6 0 3 3 0 1 1 6 0z" stroke="#999" stroke-width=".5" fill="#ccc"/>
  <path style="color:#000000" d="m25 13.5a2.5 2.5 0 1 1 -5 0 2.5 2.5 0 1 1 5 0z" stroke="#666" stroke-width="1.5" fill="#ccc"/>
  <path d="m21 11v2l2-1z" fill="#ccc"/>
 </g>
 <g>
  <path opacity=".4" style="color:#000000" d="m2 0c-1.108 0-2 0.892-2 2v44c0 1.108 0.892 2 2 2h44c1.108 0 2-0.892 2-2v-44c0-1.108-0.892-2-2-2h-44zm0 0.5h44c0.83101 0 1.5 0.66899 1.5 1.5v44c0 0.83101-0.66899 1.5-1.5 1.5h-44c-0.831 0-1.5-0.669-1.5-1.5v-44c0-0.831 0.669-1.5 1.5-1.5z" fill="url(#linearGradient12443)"/>
 </g>
</svg>
