<svg xmlns:rdf="http://www.w3.org/1999/02/22-rdf-syntax-ns#" xmlns="http://www.w3.org/2000/svg" height="48" width="48" version="1.1" xmlns:cc="http://creativecommons.org/ns#" xmlns:xlink="http://www.w3.org/1999/xlink" xmlns:dc="http://purl.org/dc/elements/1.1/">
 <defs>
  <linearGradient id="linearGradient3803" y2="3" gradientUnits="userSpaceOnUse" y1=".5" gradientTransform="translate(0,5)" x2="27.5" x1="27.5">
   <stop stop-color="#fff" offset="0"/>
   <stop stop-color="#fff" stop-opacity="0" offset="1"/>
  </linearGradient>
 </defs>
 <g transform="translate(0 -1004.4)">
  <g transform="translate(-40.191 1005.5)">
   <flowRoot style="word-spacing:0px;letter-spacing:0px" xml:space="preserve" transform="translate(-18.262 -1007.9)" line-height="125%" font-size="40px" font-family="sans-serif" fill="#000000"><flowRegion><rect y="6.6343" x="-53.033" width="57.629" height="49.321"/></flowRegion><flowPara/></flowRoot>
  </g>
  <path style="color:#000000" d="m2 1009.4h44c1.108 0 2 0.892 2 2v34c0 1.108-0.892 2-2 2h-44c-1.108 0-2-0.892-2-2v-34c0-1.108 0.892-2 2-2z" fill="#9eabb0"/>
  <rect style="color:#000000" ry="0" height="34" width="44" y="1011.4" x="2" fill="#364e59"/>
 </g>
 <g>
  <flowRoot style="word-spacing:0px;letter-spacing:0px" line-height="125%" xml:space="preserve" font-size="40px" transform="translate(-18.262 -1007.9)" font-family="sans-serif" fill="#000000"><flowRegion><rect y="6.6343" width="57.629" x="-53.033" height="49.321"/></flowRegion><flowPara/></flowRoot>
  <path opacity=".2" style="color:#000000" d="m10 10v18l15 15h21c1.108 0 2-0.892 2-2v-17l-14-14h-24z"/>
 </g>
 <g>
  <rect style="color:#000000" height="3" width="29" y="38" x="10" fill="#0e232e"/>
  <rect style="color:#000000" height="4" width="4" y="36" x="12" fill="#dc0000"/>
  <rect style="color:#000000" height="4" width="4" y="36" x="19" fill="#9ade00"/>
  <rect style="color:#000000" height="4" width="4" y="36" x="26" fill="#d76cff"/>
  <rect style="color:#000000" height="4" width="4" y="36" x="33" fill="#999"/>
  <rect style="color:#000000" height="18" width="24" y="10" x="10" fill="#bdcdd4"/>
  <rect style="color:#000000" height="2" width="24" y="10" x="10" fill="#0084c8"/>
  <path opacity=".4" style="color:#000000" d="m2 5c-1.108 0-2 0.892-2 2v34c0 1.108 0.892 2 2 2h44c1.108 0 2-0.892 2-2v-34c0-1.108-0.892-2-2-2zm0 0.5h44c0.83101 0 1.5 0.669 1.5 1.5v34c0 0.831-0.66899 1.5-1.5 1.5h-44c-0.831 0-1.5-0.669-1.5-1.5v-34c0-0.831 0.669-1.5 1.5-1.5z" fill="url(#linearGradient3803)"/>
 </g>
</svg>
