<svg xmlns:rdf="http://www.w3.org/1999/02/22-rdf-syntax-ns#" xmlns="http://www.w3.org/2000/svg" height="48" width="48" version="1.1" xmlns:cc="http://creativecommons.org/ns#" xmlns:xlink="http://www.w3.org/1999/xlink" xmlns:dc="http://purl.org/dc/elements/1.1/">
 <defs>
  <linearGradient id="linearGradient12443" y2="3" gradientUnits="userSpaceOnUse" y1=".5" x2="27.5" x1="27.5">
   <stop stop-color="#fff" offset="0"/>
   <stop stop-color="#fff" stop-opacity="0" offset="1"/>
  </linearGradient>
  <filter id="filter3828" height="1.48" width="1.48" y="-.24" x="-.24">
   <feGaussianBlur stdDeviation="3"/>
  </filter>
  <clipPath id="clipPath3856" clipPathUnits="userSpaceOnUse">
   <path opacity=".3" d="m27.844 12.031-15.438 15.438 8.125 8.125l12.407 12.406h13.062c1.108 0 2-0.892 2-2v-13.812l-12.031-12.031-8.125-8.125zm10.562 2.4375v3.25l-1.625 1.625 11.219 11.219v-6.5l-9.5938-9.5938zm-18.688 21.938-8.9375 2.4375h-1.625l9.157 9.156h13l-11.594-11.594z"/>
  </clipPath>
 </defs>
 <g transform="translate(0 -1004.4)">
  <rect style="color:#000000" ry="2" height="48" width="48" y="1004.4" x="0" fill="#0084c8"/>
 </g>
 <g>
  <path opacity=".3" d="m27.844 12.031-15.438 15.438 8.125 8.125l12.407 12.406h13.062c1.108 0 2-0.892 2-2v-13.812l-12.031-12.031-8.125-8.125zm10.562 2.4375v3.25l-1.625 1.625 11.219 11.219v-6.5l-9.5938-9.5938zm-18.688 21.938-8.9375 2.4375h-1.625l9.157 9.156h13l-11.594-11.594z"/>
  <path d="m36.768 19.349 1.6234-1.6234c0.8117-0.8117 0.8117-2.4351 0-3.2468l-4.87-4.8702c-0.8117-0.8117-2.4351-0.8117-3.2468 0l-1.623 1.6232zm-16.234 16.234 15.422-15.422l-8.117-8.117-15.422 15.422 8.117 8.117zm-0.40585-2.0292c-0.22484-0.22484-0.22484-0.58686 0-0.8117l12.987-12.987c0.22484-0.22484 0.58686-0.22484 0.8117 0s0.22484 0.58686 0 0.8117l-12.987 12.987c-0.22484 0.22484-0.58686 0.22484-0.8117 0zm-1.6234-1.6234-2.4351-2.4351c-0.22484-0.22484-0.22484-0.58686 0-0.8117l12.987-12.987c0.22484-0.22484 0.58686-0.22484 0.8117 0l2.4351 2.4351c0.22484 0.22484 0.22484 0.58686 0 0.8117l-12.988 12.986c-0.22484 0.22484-0.58686 0.22484-0.8117 0zm-4.0585-4.0585c-0.22484-0.22484-0.22484-0.58686 0-0.8117l12.987-12.987c0.22484-0.22484 0.58686-0.22484 0.8117 0s0.22484 0.58686 0 0.8117l-12.987 12.987c-0.22484 0.22484-0.58686 0.22484-0.8117 0zm-5.2759 10.958c0.38264 0.38264 1.6234 0 1.6234 0l8.9287-2.4351-8.117-8.117-2.4351 8.9287s-0.38264 1.2408 0 1.6234z" clip-path="url(#clipPath3856)" filter="url(#filter3828)"/>
 </g>
 <g>
  <path fill="#fff" d="m36.768 19.349 1.6234-1.6234c0.8117-0.8117 0.8117-2.4351 0-3.2468l-4.87-4.8702c-0.8117-0.8117-2.4351-0.8117-3.2468 0l-1.623 1.6232zm-16.234 16.234 15.422-15.422l-8.117-8.117-15.422 15.422 8.117 8.117zm-0.40585-2.0292c-0.22484-0.22484-0.22484-0.58686 0-0.8117l12.987-12.987c0.22484-0.22484 0.58686-0.22484 0.8117 0s0.22484 0.58686 0 0.8117l-12.987 12.987c-0.22484 0.22484-0.58686 0.22484-0.8117 0zm-1.6234-1.6234-2.4351-2.4351c-0.22484-0.22484-0.22484-0.58686 0-0.8117l12.987-12.987c0.22484-0.22484 0.58686-0.22484 0.8117 0l2.4351 2.4351c0.22484 0.22484 0.22484 0.58686 0 0.8117l-12.988 12.986c-0.22484 0.22484-0.58686 0.22484-0.8117 0zm-4.0585-4.0585c-0.22484-0.22484-0.22484-0.58686 0-0.8117l12.987-12.987c0.22484-0.22484 0.58686-0.22484 0.8117 0s0.22484 0.58686 0 0.8117l-12.987 12.987c-0.22484 0.22484-0.58686 0.22484-0.8117 0zm-5.2759 10.958c0.38264 0.38264 1.6234 0 1.6234 0l8.9287-2.4351-8.117-8.117-2.4351 8.9287s-0.38264 1.2408 0 1.6234z"/>
 </g>
 <path opacity=".4" style="color:#000000" d="m2 0c-1.108 0-2 0.892-2 2v44c0 1.108 0.892 2 2 2h44c1.108 0 2-0.892 2-2v-44c0-1.108-0.892-2-2-2h-44zm0 0.5h44c0.83101 0 1.5 0.66899 1.5 1.5v44c0 0.83101-0.66899 1.5-1.5 1.5h-44c-0.831 0-1.5-0.669-1.5-1.5v-44c0-0.831 0.669-1.5 1.5-1.5z" fill="url(#linearGradient12443)"/>
</svg>
