<svg xmlns:rdf="http://www.w3.org/1999/02/22-rdf-syntax-ns#" xmlns="http://www.w3.org/2000/svg" height="48" width="48" version="1.1" xmlns:cc="http://creativecommons.org/ns#" xmlns:xlink="http://www.w3.org/1999/xlink" xmlns:dc="http://purl.org/dc/elements/1.1/">
 <defs>
  <linearGradient id="linearGradient12443" y2="3" gradientUnits="userSpaceOnUse" x2="27.5" y1=".5" x1="27.5">
   <stop stop-color="#fff" offset="0"/>
   <stop stop-color="#fff" stop-opacity="0" offset="1"/>
  </linearGradient>
  <radialGradient id="radialGradient3914" cx="24" gradientUnits="userSpaceOnUse" cy="43" r="21" gradientTransform="matrix(1 0 0 .095238 0 38.905)">
   <stop stop-color="#69caff" offset="0"/>
   <stop stop-color="#19aeff" stop-opacity="0" offset="1"/>
  </radialGradient>
  <linearGradient id="linearGradient3922" y2="1052.1" gradientUnits="userSpaceOnUse" y1="1004.8" x2="23.158" x1="23.158">
   <stop stop-color="#c1c1c1" offset="0"/>
   <stop stop-color="#999" offset="1"/>
  </linearGradient>
  <linearGradient id="linearGradient3973" y2="40.476" gradientUnits="userSpaceOnUse" x2="26.528" y1="46.285" x1="26.528">
   <stop offset="0"/>
   <stop stop-opacity="0" offset="1"/>
  </linearGradient>
  <filter id="filter3994-0" height="3.064" width="1.2117" color-interpolation-filters="sRGB" y="-1.032" x="-.10585">
   <feGaussianBlur stdDeviation="1.72"/>
  </filter>
  <filter id="filter4743" height="1.1886" width="1.3299" y="-.094309" x="-.16493">
   <feGaussianBlur stdDeviation="1.1002689"/>
  </filter>
  <clipPath id="clipPath4783" clipPathUnits="userSpaceOnUse">
   <path opacity=".25" d="m24 6c-1.107 0-2 0.88676-2 2 0 0.50731 0.19094 0.98963 0.5 1.3438 0.01927 0.021756 0.0423 0.041623 0.0625 0.0625 0.01043 0.010911 0.02058 0.02058 0.03125 0.03125l0.59375 0.59375v8.3125l-3.75-3.75c-0.362-0.369-0.853-0.594-1.407-0.594-1.107 0-2.031 0.887-2.031 2 0 0.16336 0.02514 0.31485 0.0625 0.46875 0.0125 0.05159 0.01491 0.10623 0.03125 0.15625 0.03706 0.11309 0.10129 0.20905 0.15625 0.3125 0.02547 0.04873 0.03335 0.10997 0.0625 0.15625 0.0076 0.01191 0.02338 0.01952 0.03125 0.03125 0.07483 0.11325 0.15507 0.21722 0.25 0.3125l0.562 0.562c0.02324 0.09188 0.04076 0.19701 0.0625 0.40625 0.05003 0.48157 0.21225 1.5431 0.59375 2.5 0.0669 0.17045 0.13515 0.34127 0.21875 0.5 0.0836 0.15761 0.18154 0.28998 0.28125 0.4375 0.20302 0.30478 0.41885 0.5751 0.6875 0.84375l0.46875 0.4375 0.125 0.125 3.3125 3.3438c0.0221 0.13723 0.03125 0.28242 0.03125 0.46875 0 0.20013-0.03387 0.37668-0.0625 0.5s-0.07301 0.20698-0.125 0.28125c-0.0535 0.07574-0.1163 0.13343-0.1875 0.1875-0.06501 0.0477-0.14333 0.10218-0.21875 0.15625-0.88184 0.54411-1.4688 1.5118-1.4688 2.625v0.03125 0.03125c0 0.85995 0.34259 1.6551 0.90625 2.2188l14.907 14.907h9.312c1.108 0 2-0.892 2-2v-18.812l-16.594-16.594c-0.361-0.363-0.858-0.594-1.406-0.594-0.34109 0-0.65949 0.09772-0.9375 0.25l-3.374-3.375c-0.369-0.5316-0.996-0.875-1.688-0.875z"/>
  </clipPath>
 </defs>
 <g transform="translate(0 -1004.4)">
  <path style="color:#000000" d="m2 1004.4h44c1.108 0 2 0.892 2 2v44c0 1.108-0.892 2-2 2h-44c-1.108 0-2-0.892-2-2v-44c0-1.108 0.892-2 2-2z" fill="url(#linearGradient3922)"/>
  <path style="color:#000000" d="m0 39v4c0 1.108 0.892 2 2 2h44c1.108 0 2-0.892 2-2v-4c0 1.108-0.892 2-2 2h-44c-1.108 0-2-0.892-2-2z" transform="translate(0 1004.4)" fill="#0e232e"/>
  <rect opacity=".6" style="color:#000000" ry=".125" height="4" filter="url(#filter3994-0)" width="39" y="1045.4" x="5" fill="#0084c8"/>
  <rect style="color:#000000" transform="translate(0 1004.4)" ry=".125" height="4" width="42" y="41" x="3" fill="url(#radialGradient3914)"/>
 </g>
 <g>
  <path opacity=".25" d="m24 6c-1.107 0-2 0.8868-2 2 0 0.5073 0.191 0.9896 0.5 1.3438 0.019 0.0217 0.042 0.0416 0.062 0.0624 0.011 0.011 0.021 0.0206 0.032 0.0313l0.594 0.5935v8.313l-3.75-3.75c-0.362-0.369-0.853-0.594-1.407-0.594-1.107 0-2.031 0.887-2.031 2 0 0.163 0.025 0.315 0.062 0.469 0.013 0.051 0.015 0.106 0.032 0.156 0.037 0.113 0.101 0.209 0.156 0.313 0.025 0.048 0.033 0.109 0.062 0.156 0.008 0.012 0.024 0.019 0.032 0.031 0.075 0.113 0.155 0.217 0.25 0.313l0.562 0.562c0.023 0.092 0.041 0.197 0.063 0.406 0.05 0.482 0.212 1.543 0.593 2.5 0.067 0.171 0.136 0.342 0.219 0.5 0.084 0.158 0.182 0.29 0.281 0.438 0.204 0.305 0.419 0.575 0.688 0.844l0.469 0.437 0.125 0.125 3.312 3.344c0.022 0.137 0.032 0.282 0.032 0.468 0 0.201-0.034 0.377-0.063 0.5-0.029 0.124-0.073 0.207-0.125 0.282-0.054 0.075-0.116 0.133-0.188 0.187-0.065 0.048-0.143 0.102-0.218 0.157-0.882 0.544-1.469 1.511-1.469 2.624v0.032 0.031c0 0.86 0.343 1.655 0.906 2.219l14.907 14.906h9.312c1.108 0 2-0.892 2-2v-18.812l-16.594-16.594c-0.361-0.363-0.858-0.594-1.406-0.594-0.341 0-0.659 0.098-0.938 0.25l-3.374-3.375c-0.369-0.5316-0.996-0.875-1.688-0.875z"/>
  <flowRoot style="word-spacing:0px;letter-spacing:0px" xml:space="preserve" transform="translate(-18.262 -1007.9)" line-height="125%" font-size="40px" font-family="sans-serif" fill="#000000"><flowRegion><rect y="6.6343" x="-53.033" width="57.629" height="49.321"/></flowRegion><flowPara/></flowRoot>
  <path opacity=".6" d="m32.005 12.017c0-1.1132-0.9006-2.0138-2.0076-2.0138s-2.0076 0.9006-2.0076 2.0076c0 0.75676 0.41903 1.4197 1.0382 1.7637 0.08131 0.09381 0.13759 0.28144 0.13759 0.37525v0.02502c-0.05003 1.1007-0.23766 1.9951-0.44405 2.608-0.26893 0.78803-2.3891 2.4767-3.2209 2.6393-0.36274 0.07505-0.49408-0.03753-0.49408-0.63793v-8.7809c0-0.093811 0.01251-0.2189 0.11883-0.31271 0.53786-0.36274 0.89435-0.97565 0.89435-1.6761 0-1.1132-0.9006-2.0138-2.0076-2.0138s-2.0076 0.9006-2.0076 2.0138c0 0.70672 0.36274 1.3321 0.91311 1.6886 0 0 0.0062 0.0063 0.0062 0.0063 0.0062 0.0063 0.01251 0.0063 0.02502 0.0125 0.01251 0.0063 0.02502 0.0125 0.03753 0.02502 0.14385 0.09381 0.20639 0.18762 0.20639 0.26267v12.277c0 0.43779-0.06879 0.76926-0.52535 0.73799s-2.608-1.4697-3.2146-2.7581c-0.28144-0.59415-0.42528-1.1758-0.42528-1.7512v-0.03127c0-0.19388 0-0.70672 0.20013-0.85057 0.48782-0.369 0.80054-0.95064 0.80054-1.6073 0-1.1132-0.9006-2.0138-2.0076-2.0138s-2.0264 0.88809-2.0264 2.0013c0 0.74425 0.40652 1.3947 1.0007 1.7387 0.1501 0.09381 0.18763 0.18137 0.23766 0.66294s0.18763 1.5385 0.56913 2.4954c0.45656 1.1633 1.3071 2.0389 2.4829 2.8269 0.85057 0.58164 1.5823 1.0382 2.0076 1.6511 0.42528 0.61291 0.63793 0.84432 0.63793 1.6886v0c0 0.80054-0.25017 0.87558-0.58164 1.1132-0.88184 0.54411-1.4697 1.5135-1.4697 2.6268v0.02502 0.04378c0 1.7199 1.3947 3.1146 3.1146 3.1146s3.1146-1.3947 3.1146-3.1146c0-0.83181-0.32522-1.5886-0.85682-2.1452-0.18137-0.20013-0.37525-0.37525-0.6004-0.5191-0.469-0.327-0.644-0.721-0.644-1.134v-1.5073c0-1.5698 0.25642-2.5705 0.69421-3.3335 0.45656-0.79428 1.1445-1.4134 2.214-2.1389 1.1758-0.78803 2.0138-1.6636 2.4767-2.8269 0.35649-0.9006 0.47532-1.9388 0.53786-3.1834 0.0062-0.11257 0.08756-0.36274 0.20639-0.42528 0.5191-0.36274 0.86933-0.9694 0.86933-1.6574z" clip-path="url(#clipPath4783)" filter="url(#filter4743)"/>
 </g>
 <g>
  <path d="m32.005 12.017c0-1.1132-0.9006-2.0138-2.0076-2.0138s-2.0076 0.9006-2.0076 2.0076c0 0.75676 0.41903 1.4197 1.0382 1.7637 0.08131 0.09381 0.13759 0.28144 0.13759 0.37525v0.02502c-0.05003 1.1007-0.23766 1.9951-0.44405 2.608-0.26893 0.78803-2.3891 2.4767-3.2209 2.6393-0.36274 0.07505-0.49408-0.03753-0.49408-0.63793v-8.7809c0-0.09381 0.01251-0.2189 0.11883-0.31271 0.53786-0.36274 0.89435-0.97565 0.89435-1.6761 0-1.1132-0.9006-2.0138-2.0076-2.0138s-2.0076 0.9006-2.0076 2.0138c0 0.70672 0.36274 1.3321 0.91311 1.6886 0 0 0.0062 0.0063 0.0062 0.0063 0.0062 0.0063 0.01251 0.0063 0.02502 0.0125 0.01251 0.0063 0.02502 0.0125 0.03753 0.02502 0.14385 0.09381 0.20639 0.18762 0.20639 0.26268v12.277c0 0.43779-0.06879 0.76926-0.52535 0.73799s-2.608-1.4697-3.2146-2.7581c-0.28144-0.59415-0.42528-1.1758-0.42528-1.7512v-0.03127c0-0.19388 0-0.70672 0.20013-0.85057 0.48782-0.369 0.80054-0.95064 0.80054-1.6073 0-1.1132-0.9006-2.0138-2.0076-2.0138s-2.0264 0.88809-2.0264 2.0013c0 0.74425 0.40652 1.3947 1.0007 1.7387 0.1501 0.09381 0.18763 0.18137 0.23766 0.66294s0.18763 1.5385 0.56913 2.4954c0.45656 1.1633 1.3071 2.0389 2.4829 2.8269 0.85057 0.58164 1.5823 1.0382 2.0076 1.6511 0.42528 0.61291 0.63793 0.84432 0.63793 1.6886v0c0 0.80054-0.25017 0.87558-0.58164 1.1132-0.88184 0.54411-1.4697 1.5135-1.4697 2.6268v0.02502 0.04378c0 1.7199 1.3947 3.1146 3.1146 3.1146s3.1146-1.3947 3.1146-3.1146c0-0.83181-0.32522-1.5886-0.85682-2.1452-0.18137-0.20013-0.37525-0.37525-0.6004-0.5191-0.469-0.327-0.644-0.721-0.644-1.134v-1.5073c0-1.5698 0.25642-2.5705 0.69421-3.3335 0.45656-0.79428 1.1445-1.4134 2.214-2.1389 1.1758-0.78803 2.0138-1.6636 2.4767-2.8269 0.35649-0.9006 0.47532-1.9388 0.53786-3.1834 0.0062-0.11257 0.08756-0.36274 0.20639-0.42528 0.5191-0.36274 0.86933-0.9694 0.86933-1.6574z" fill="#e6e6e6"/>
 </g>
 <g>
  <path opacity=".4" style="color:#000000" d="m2 0c-1.108 0-2 0.892-2 2v44c0 1.108 0.892 2 2 2h44c1.108 0 2-0.892 2-2v-44c0-1.108-0.892-2-2-2h-44zm0 0.5h44c0.83101 0 1.5 0.66899 1.5 1.5v44c0 0.83101-0.66899 1.5-1.5 1.5h-44c-0.831 0-1.5-0.669-1.5-1.5v-44c0-0.831 0.669-1.5 1.5-1.5z" fill="url(#linearGradient12443)"/>
  <path opacity=".4" style="color:#000000" d="m2 0c-1.108 0-2 0.892-2 2v44c0 1.108 0.892 2 2 2h44c1.108 0 2-0.892 2-2v-44c0-1.108-0.892-2-2-2h-44zm0 0.5h44c0.83101 0 1.5 0.66899 1.5 1.5v44c0 0.83101-0.66899 1.5-1.5 1.5h-44c-0.831 0-1.5-0.669-1.5-1.5v-44c0-0.831 0.669-1.5 1.5-1.5z" fill="url(#linearGradient3973)"/>
 </g>
</svg>
