<svg xmlns:rdf="http://www.w3.org/1999/02/22-rdf-syntax-ns#" xmlns="http://www.w3.org/2000/svg" height="48" width="48" version="1.1" xmlns:cc="http://creativecommons.org/ns#" xmlns:xlink="http://www.w3.org/1999/xlink" xmlns:dc="http://purl.org/dc/elements/1.1/">
 <defs>
  <linearGradient id="linearGradient12443" y2="3" gradientUnits="userSpaceOnUse" y1=".5" x2="27.5" x1="27.5">
   <stop stop-color="#fff" offset="0"/>
   <stop stop-color="#fff" stop-opacity="0" offset="1"/>
  </linearGradient>
  <radialGradient id="radialGradient3914" gradientUnits="userSpaceOnUse" cy="43" cx="24" gradientTransform="matrix(1 0 0 .095238 0 38.905)" r="21">
   <stop stop-color="#6dccff" offset="0"/>
   <stop stop-color="#19aeff" stop-opacity="0" offset="1"/>
  </radialGradient>
  <linearGradient id="linearGradient3922" y2="1052.1" gradientUnits="userSpaceOnUse" x2="23.158" y1="1004.8" x1="23.158">
   <stop stop-color="#c1c1c1" offset="0"/>
   <stop stop-color="#999" offset="1"/>
  </linearGradient>
  <linearGradient id="linearGradient3973" y2="40.476" gradientUnits="userSpaceOnUse" y1="46.285" x2="26.528" x1="26.528">
   <stop offset="0"/>
   <stop stop-opacity="0" offset="1"/>
  </linearGradient>
  <filter id="filter3994-0" width="1.2117" y="-1.032" x="-.10585" height="3.064" color-interpolation-filters="sRGB">
   <feGaussianBlur stdDeviation="1.72"/>
  </filter>
  <filter id="filter3891" height="1.2401" width="1.2399" y="-.12004" x="-.11996">
   <feGaussianBlur stdDeviation="1.3999854"/>
  </filter>
  <clipPath id="clipPath3913" clipPathUnits="userSpaceOnUse">
   <path opacity=".25" style="color:#000000" d="m24 6c-3.583 0-7.173 1.3601-9.906 4.094-5.1678 5.167-5.445 13.374-0.844 18.875l0.59375 0.59375-1.5938 0.53125h-0.03125c-1.6006 0.4466-2.5459 2.0853-2.125 3.6562 0.04653 0.17364 0.113 0.34289 0.1875 0.5 0.02604 0.05474 0.06458 0.10368 0.09375 0.15625 0.01823 0.03304 0.04308 0.06159 0.0625 0.09375 0.09381 0.15466 0.19357 0.3046 0.3125 0.4375 0.03531 0.03933 0.05646 0.08771 0.09375 0.125 0.05736 0.05766 0.12572 0.10361 0.1875 0.15625l12.78 12.781h22.188c1.108 0 2-0.892 2-2v-21.812l-14.094-14.094c-2.733-2.7339-6.323-4.094-9.906-4.094z"/>
  </clipPath>
 </defs>
 <g transform="translate(0 -1004.4)">
  <path style="color:#000000" d="m2 1004.4h44c1.108 0 2 0.892 2 2v44c0 1.108-0.892 2-2 2h-44c-1.108 0-2-0.892-2-2v-44c0-1.108 0.892-2 2-2z" fill="url(#linearGradient3922)"/>
  <path style="color:#000000" d="m0 39v4c0 1.108 0.892 2 2 2h44c1.108 0 2-0.892 2-2v-4c0 1.108-0.892 2-2 2h-44c-1.108 0-2-0.892-2-2z" transform="translate(0 1004.4)" fill="#0e232e"/>
  <rect opacity=".6" style="color:#000000" ry=".125" height="4" filter="url(#filter3994-0)" width="39" y="1045.4" x="5" fill="#0084c8"/>
  <rect ry=".125" style="color:#000000" transform="translate(0 1004.4)" height="4" width="42" y="41" x="3" fill="url(#radialGradient3914)"/>
 </g>
 <g>
  <flowRoot style="word-spacing:0px;letter-spacing:0px" line-height="125%" xml:space="preserve" font-size="40px" transform="translate(-18.262 -1007.9)" font-family="sans-serif" fill="#000000"><flowRegion><rect y="6.6343" width="57.629" x="-53.033" height="49.321"/></flowRegion><flowPara/></flowRoot>
  <path opacity=".25" style="color:#000000" d="m24 6c-3.583 0-7.173 1.3601-9.906 4.094-5.1678 5.167-5.445 13.374-0.844 18.875l0.594 0.593-1.594 0.532h-0.031c-1.601 0.446-2.5462 2.085-2.125 3.656 0.046 0.174 0.113 0.343 0.187 0.5 0.026 0.055 0.065 0.104 0.094 0.156 0.018 0.033 0.043 0.062 0.063 0.094 0.093 0.155 0.193 0.305 0.312 0.438 0.035 0.039 0.056 0.087 0.094 0.124 0.057 0.058 0.125 0.104 0.187 0.157l12.781 12.781h22.188c1.108 0 2-0.892 2-2v-21.812l-14.094-14.094c-2.733-2.7339-6.323-4.094-9.906-4.094z"/>
  <path opacity=".6" filter="url(#filter3891)" style="color:#000000" d="m24 6c-3.583 0-7.173 1.3601-9.906 4.094-5.1678 5.167-5.445 13.374-0.844 18.875l9.312-3.063 2.719-0.906-1.906 2.125-5.125 5.625c5.1519 2.32 11.424 1.3884 15.656-2.8438 5.4673-5.4673 5.4673-14.345 0-19.812-2.733-2.7339-6.323-4.094-9.906-4.094zm0 10c1.0237 0 2.0627 0.3752 2.8438 1.1562 1.5621 1.5621 1.5621 4.1254 0 5.6875s-4.1254 1.5621-5.6875 0-1.5621-4.1254 0-5.6875c0.781-0.781 1.82-1.156 2.844-1.156z" clip-path="url(#clipPath3913)"/>
 </g>
 <g>
  <path style="color:#000000" d="m24 6c-3.583 0-7.173 1.3601-9.906 4.094-5.1678 5.167-5.445 13.374-0.844 18.875l9.312-3.063 2.719-0.906-1.906 2.125-5.125 5.625c5.1519 2.32 11.424 1.3884 15.656-2.8438 5.4673-5.4673 5.4673-14.345 0-19.812-2.733-2.7339-6.323-4.094-9.906-4.094zm0 10c1.0237 0 2.0627 0.3752 2.8438 1.1562 1.5621 1.5621 1.5621 4.1254 0 5.6875s-4.1254 1.5621-5.6875 0-1.5621-4.1254 0-5.6875c0.781-0.781 1.82-1.156 2.844-1.156z" fill="#fff"/>
  <path style="color:#000000" d="m12.224 30.102c-1.6006 0.4466-2.5503 2.0731-2.1294 3.644 0.42369 1.5812 2.0768 2.517 3.6963 2.083 0.64654-0.17324 1.1748-0.55859 1.5669-1.0345l7.4504-8.1756-10.554 3.475z" fill="#fff"/>
  <path opacity=".25" style="color:#000000" d="m23.344 27.156-5.094 5.594c3.4614 1.5587 7.4231 1.6417 10.938 0.25l-5.8438-5.8438z"/>
 </g>
 <g>
  <path opacity=".4" style="color:#000000" d="m2 0c-1.108 0-2 0.892-2 2v44c0 1.108 0.892 2 2 2h44c1.108 0 2-0.892 2-2v-44c0-1.108-0.892-2-2-2h-44zm0 0.5h44c0.83101 0 1.5 0.66899 1.5 1.5v44c0 0.83101-0.66899 1.5-1.5 1.5h-44c-0.831 0-1.5-0.669-1.5-1.5v-44c0-0.831 0.669-1.5 1.5-1.5z" fill="url(#linearGradient12443)"/>
  <path opacity=".4" style="color:#000000" d="m2 0c-1.108 0-2 0.892-2 2v44c0 1.108 0.892 2 2 2h44c1.108 0 2-0.892 2-2v-44c0-1.108-0.892-2-2-2h-44zm0 0.5h44c0.83101 0 1.5 0.66899 1.5 1.5v44c0 0.83101-0.66899 1.5-1.5 1.5h-44c-0.831 0-1.5-0.669-1.5-1.5v-44c0-0.831 0.669-1.5 1.5-1.5z" fill="url(#linearGradient3973)"/>
 </g>
</svg>
