<svg xmlns:rdf="http://www.w3.org/1999/02/22-rdf-syntax-ns#" xmlns="http://www.w3.org/2000/svg" height="48" width="48" version="1.1" xmlns:cc="http://creativecommons.org/ns#" xmlns:xlink="http://www.w3.org/1999/xlink" xmlns:dc="http://purl.org/dc/elements/1.1/">
 <defs>
  <linearGradient id="linearGradient12443" y2="3" gradientUnits="userSpaceOnUse" y1=".5" x2="27.5" x1="27.5">
   <stop stop-color="#fff" offset="0"/>
   <stop stop-color="#fff" stop-opacity="0" offset="1"/>
  </linearGradient>
  <linearGradient id="linearGradient3922" y2="1052.1" gradientUnits="userSpaceOnUse" x2="23.158" y1="1004.8" x1="23.158">
   <stop stop-color="#c1c1c1" offset="0"/>
   <stop stop-color="#999" offset="1"/>
  </linearGradient>
  <linearGradient id="linearGradient3973" y2="40.476" gradientUnits="userSpaceOnUse" y1="46.285" x2="26.528" x1="26.528">
   <stop offset="0"/>
   <stop stop-opacity="0" offset="1"/>
  </linearGradient>
  <linearGradient id="linearGradient6087-6" y2="32.578" gradientUnits="userSpaceOnUse" x2="23.571" y1="5.5708" x1="23.571">
   <stop stop-color="#fff" offset="0"/>
   <stop stop-color="#d3d3d3" offset="1"/>
  </linearGradient>
  <filter id="filter6156" height="1.24" width="1.24" y="-.12" x="-.12">
   <feGaussianBlur stdDeviation="1.4"/>
  </filter>
  <clipPath id="clipPath6178" clipPathUnits="userSpaceOnUse">
   <path opacity=".25" style="color:#000000" d="m24 6c-3.5829 0-7.1726 1.3601-9.9062 4.0938-5.4673 5.4673-5.4673 14.345 0 19.812l18.125 18.094h13.781c1.108 0 2-0.892 2-2v-21.812l-14.094-14.094c-2.733-2.7339-6.323-4.094-9.906-4.094z"/>
  </clipPath>
 </defs>
 <g transform="translate(0 -1004.4)">
  <path style="color:#000000" d="m2 1004.4h44c1.108 0 2 0.892 2 2v44c0 1.108-0.892 2-2 2h-44c-1.108 0-2-0.892-2-2v-44c0-1.108 0.892-2 2-2z" fill="url(#linearGradient3922)"/>
  <path style="color:#000000" d="m0 39v7c0 1.108 0.892 2 2 2h44c1.108 0 2-0.892 2-2v-7c0 1.108-0.892 2-2 2h-44c-1.108 0-2-0.892-2-2z" transform="translate(0 1004.4)" fill="#7c7c7c"/>
 </g>
 <g>
  <flowRoot style="word-spacing:0px;letter-spacing:0px" line-height="125%" xml:space="preserve" font-size="40px" transform="translate(-18.262 -1007.9)" font-family="sans-serif" fill="#000000"><flowRegion><rect y="6.6343" width="57.629" x="-53.033" height="49.321"/></flowRegion><flowPara/></flowRoot>
  <path opacity=".25" style="color:#000000" d="m24 6c-3.583 0-7.173 1.3601-9.906 4.094-5.4676 5.467-5.4676 14.345 0 19.812l18.125 18.094h13.781c1.108 0 2-0.892 2-2v-21.812l-14.094-14.094c-2.733-2.7339-6.323-4.094-9.906-4.094z"/>
  <path opacity=".6" filter="url(#filter6156)" style="color:#000000" d="m33.899 10.101c5.4673 5.4673 5.4673 14.332 0 19.799-5.4673 5.4673-14.332 5.4673-19.799 0-5.4673-5.4673-5.4673-14.332 0-19.799 5.4673-5.4673 14.332-5.4673 19.799 0z" clip-path="url(#clipPath6178)"/>
  <path fill="#2d2d2d" d="m1.0111 10.315-0.0111-0.6852l0.47974 0.013c0.46623 0.0126 0.48268 0.016 0.58422 0.11752 0.10252 0.10255 0.10448 0.11294 0.10448 0.55509 0 0.44205-0.002 0.45256-0.1044 0.55509-0.10124 0.10134-0.11861 0.10488-0.57313 0.11697l-0.4687 0.012-0.0111-0.685zm0.79795 0.30456c0.0505-0.0944 0.0505-0.51365 0-0.60802-0.0312-0.059-0.0799-0.0735-0.245-0.0735h-0.20598v0.37692 0.37691h0.20598c0.16507 0 0.21373-0.0145 0.24499-0.0729zm0.75515-0.30401v-0.67845h0.16961 0.16961v0.67845 0.67844h-0.16961-0.16961v-0.67844zm0.88074 0.61164c-0.0442-0.037-0.0983-0.101-0.1203-0.144-0.0633-0.124-0.0935-0.445-0.0641-0.681 0.0219-0.1756 0.0509-0.2408 0.1516-0.3415 0.1211-0.1211 0.1333-0.1245 0.4403-0.1245 0.2359 0 0.33933 0.0163 0.40895 0.0642 0.13084 0.0902 0.18483 0.16718 0.18622 0.26557 0.0011 0.0753-0.01744 0.0848-0.16438 0.0848-0.11241 0-0.17254-0.0182-0.18727-0.0565-0.01568-0.0409-0.07973-0.0565-0.23111-0.0565-0.19012 0-0.21281 0.009-0.24618 0.0967-0.05268 0.13856-0.04535 0.51791 0.0115 0.59567 0.03792 0.0519 0.09241 0.0635 0.25442 0.0543 0.18088-0.0102 0.20764-0.0221 0.2182-0.0965 0.0098-0.0691-0.0059-0.0848-0.08481-0.0848-0.08248 0-0.09685-0.0168-0.09685-0.11307v-0.11307h0.26384 0.26384v0.19218c0 0.23244-0.08355 0.42302-0.21089 0.48104-0.15372 0.07-0.6972 0.0537-0.79294-0.0239zm1.3516-0.60222 0.01029-0.66902 0.17903-0.0115 0.17904-0.0115v0.68051 0.68051h-0.18933-0.18933l0.01029-0.66902zm1.0385 0.15-0.0105-0.5187-0.179-0.0115-0.1791-0.0115v-0.1487-0.1487h0.52768 0.52768v0.15077 0.15076h-0.16961-0.16961v0.52768 0.52768h-0.16855-0.16855l-0.01049-0.51825zm0.69714 0.45229c0.01052-0.0363 0.06519-0.22709 0.1215-0.42403 0.05631-0.19693 0.13614-0.47255 0.1774-0.61248l0.07502-0.25442h0.27289 0.27289l0.12251 0.44288c0.06738 0.24358 0.15329 0.54888 0.19091 0.67844l0.06841 0.23557h-0.18111c-0.16734 0-0.1841-0.009-0.22052-0.11307-0.03786-0.10862-0.04829-0.11308-0.26453-0.11308-0.21948 0-0.22574 0.003-0.24995 0.11308-0.02359 0.10738-0.03439 0.11307-0.21469 0.11307-0.16297 0-0.18715-0.009-0.17074-0.066zm0.77757-0.50883c-0.0065-0.152-0.0897-0.4552-0.1286-0.4681-0.0391-0.013-0.1717 0.5001-0.1379 0.5341 0.01038 0.0104 0.0754 0.0189 0.1445 0.0189 0.10624 0 0.12508-0.0131 0.12202-0.0848zm0.79514-0.10365v-0.67845h0.18846 0.18846v0.52768 0.52768h0.30153 0.30153v0.15077 0.15076h-0.48999-0.48999v-0.67844zm2.3545 0.61248c0.01415-0.0363 0.06499-0.21013 0.11298-0.38633 0.04798-0.17621 0.12642-0.45183 0.17431-0.61249l0.08707-0.29211h0.27074c0.22558 0 0.27386 0.011 0.28947 0.066 0.0103 0.0363 0.08728 0.3119 0.17106 0.61249s0.16394 0.5762 0.17815 0.61248c0.02256 0.0576 0.0013 0.066-0.1676 0.066-0.18477 0-0.19444-0.005-0.21605-0.11307-0.02225-0.11127-0.0264-0.11308-0.2599-0.11308-0.23301 0-0.23774 0.002-0.26212 0.11308-0.02358 0.10735-0.03443 0.11307-0.21433 0.11307-0.16515 0-0.18619-0.008-0.16376-0.066zm0.77023-0.50883c-0.0067-0.15615-0.09018-0.44741-0.1283-0.44741s-0.12164 0.29126-0.1283 0.44741c-0.0031 0.0725 0.01555 0.0848 0.1283 0.0848s0.1314-0.0123 0.1283-0.0848zm0.93648 0.53408c-0.14494-0.0844-0.17903-0.2342-0.17903-0.78663v-0.52955h0.16961 0.16961v0.48537c0 0.55993 0.01058 0.58052 0.28918 0.56275l0.18196-0.0116 0.01049-0.51825 0.01049-0.51826h0.19011 0.19011l-0.01214 0.56856-0.01214 0.56855-0.12309 0.10989c-0.1174 0.10481-0.13919 0.10984-0.47114 0.10875-0.19143-0.00063-0.37773-0.0184-0.41401-0.0396zm1.404-0.63853v-0.6854l0.47031 0.0133c0.4557 0.0129 0.47355 0.0165 0.57479 0.11781 0.10254 0.10255 0.10449 0.11293 0.10449 0.55509 0 0.44205-0.002 0.45256-0.1044 0.55509-0.10128 0.10138-0.11847 0.10488-0.57479 0.117l-0.469 0.014v-0.68539zm0.78398 0.33248c0.0559-0.0559 0.06058-0.53411 0.0062-0.63569-0.03-0.056-0.079-0.0705-0.244-0.0705h-0.20598v0.37692 0.37691h0.19976c0.10987 0 0.22012-0.0204 0.245-0.0452zm0.7506-0.32224 0.0081-0.66904 0.17095-0.0115 0.17095-0.0115v0.68051 0.68051l-0.17904 0.00002-0.17903 0.00003 0.0081-0.66905zm0.89139 0.62492c-0.11394-0.0552-0.17096-0.19989-0.19284-0.48948-0.02809-0.37174 0.01503-0.58965 0.14176-0.71638 0.10094-0.10094 0.12521-0.10695 0.43209-0.10695 0.54542 0 0.62294 0.0849 0.62294 0.68209 0 0.41865-0.0451 0.55635-0.20625 0.62977-0.11976 0.0546-0.68557 0.0552-0.7977 0.00095zm0.61949-0.30268c0.06169-0.0617 0.05927-0.56191-0.0031-0.64726-0.03729-0.051-0.09123-0.0634-0.23557-0.0543l-0.18721 0.0118-0.01105 0.31722c-0.0061 0.17448-0.0024 0.33985 0.0082 0.3675 0.0246 0.0641 0.36566 0.0681 0.42872 0.005zm-15.199-1.5712c-0.1034-0.0422-0.2845-0.2286-0.3248-0.3345-0.0183-0.048-0.0333-1.1861-0.0333-2.5291v-2.4419l0.0848-0.1246c0.0467-0.0685 0.1327-0.1601 0.1912-0.2035 0.1013-0.0751 0.1587-0.0794 1.2155-0.0904l1.1092-0.0115v-0.81014c0-0.90988 0.01974-0.9974 0.24629-1.0921 0.18552-0.0775 1.2228-0.0754 1.374 0.003 0.24174 0.12501 0.22656-0.12784 0.22656 3.7753 0 2.2156-0.01382 3.5874-0.03675 3.6477-0.02021 0.0532-0.0923 0.13053-0.16019 0.17192-0.1191 0.0726-0.1887 0.0752-1.9703 0.073-1.0158-0.001-1.8808-0.0161-1.9223-0.033zm3.7314-3.8278v-3.5053h-0.56537-0.56537l-0.01006 0.97056-0.01006 0.97055h-1.2004c-1.1573 0-1.204 0.003-1.2997 0.0781l-0.09931 0.0781v2.3892 2.3892l0.08288 0.0772c0.08144 0.0759 0.11396 0.077 1.8751 0.0674l1.7923-0.01v-3.5053zm-2.5153 2.9618-0.123-0.11v-1.7965-1.7965l0.12594-0.11253 0.12594-0.11253 0.60327 0.012 0.60327 0.012 0.08696 0.10917c0.04783 0.06 0.09707 0.15969 0.10942 0.22143 0.01235 0.0617 0.02208 0.82676 0.02163 1.7-0.000776 1.4878-0.0054 1.5979-0.07367 1.7482-0.04541 0.10004-0.10989 0.17456-0.17124 0.19788-0.05412 0.0206-0.34296 0.0374-0.64188 0.0374h-0.54348l-0.1232-0.1101zm1.1698-0.2745c0.05279-0.0528 0.06565-3.1811 0.01341-3.2634-0.02287-0.036-0.14962-0.0456-0.49883-0.0377l-0.46817 0.0106-0.0098 1.6207c-0.0054 0.8914-0.0017 1.6419 0.0082 1.6678 0.02486 0.0648 0.89058 0.0665 0.95519 0.002zm2.2809 1.1208c-0.2459-0.1069-0.2381-0.0144-0.2381-2.8112 0-2.8291-0.0099-2.7204 0.25839-2.8414 0.12009-0.0541 0.24846-0.0619 0.85547-0.0519 0.64462 0.0106 0.72402 0.0191 0.81525 0.0872 0.05559 0.0415 0.1192 0.11434 0.14134 0.16196 0.02736 0.0588 0.03984 0.90475 0.03893 2.6384-0.0014 2.7599 0.0062 2.6573-0.20851 2.7988-0.09969 0.0657-0.1808 0.0727-0.82667 0.0716-0.52505-0.0009-0.74817-0.0152-0.8362-0.0534zm1.4882-0.3293c0.06538-0.0654 0.06538-4.9325 0-4.9979-0.06348-0.0635-1.2783-0.0635-1.3418 0-0.06538 0.0654-0.06538 4.9325 0 4.9979 0.03155 0.0316 0.23452 0.0452 0.67091 0.0452 0.43638 0 0.63936-0.0137 0.67091-0.0452zm1.0509 0.2876c-0.0785-0.0533-0.1587-0.1392-0.1784-0.1909s-0.0357-0.2857-0.0357-0.5199c0-0.37984 0.0088-0.43716 0.08171-0.5298 0.1562-0.1987 0.2454-0.2122 1.3632-0.2055l1.0238 0.006 0.01122-0.23039 0.01122-0.2304h-1.0621c-1.0126 0-1.068-0.004-1.1899-0.079-0.2413-0.1491-0.2391-0.1322-0.2391-1.8363 0-1.5068 0.0018-1.5444 0.07871-1.6422 0.16707-0.2124 0.16032-0.21163 1.8617-0.21163 1.7008 0 1.7374 0.004 1.8977 0.20782 0.0737 0.0937 0.08171 0.14905 0.08171 0.56485 0 0.4104-0.0086 0.47196-0.07871 0.56104-0.15925 0.20246-0.21385 0.21163-1.2593 0.21163h-0.9648l0.01122 0.23558 0.01122 0.23557h1.0554c1.1266 0 1.1479 0.003 1.2974 0.1933 0.07644 0.0972 0.0783 0.13691 0.07806 1.6681-0.000241 1.487-0.004 1.5743-0.07311 1.6791-0.13857 0.21021-0.10921 0.20706-1.9438 0.20851l-1.6968 0.001-0.14262-0.0969zm3.4577-0.26519c0.05296-0.0203 0.05962-0.18784 0.05962-1.5001 0-1.0828-0.01185-1.4891-0.04437-1.5216-0.03319-0.0332-0.34196-0.0383-1.225-0.0203l-1.1806 0.0241v-0.5903-0.5903h1.1044c0.80869 0 1.1165-0.0121 1.1496-0.0452 0.06136-0.0614 0.06136-0.71508 0-0.77644-0.06499-0.065-3.086-0.065-3.151 0-0.03362 0.0336-0.04523 0.42017-0.04523 1.5063 0 1.406 0.0028 1.4626 0.07291 1.5001 0.04577 0.0245 0.50876 0.039 1.2438 0.039h1.1709v0.56537 0.56537l-0.1225 0.001c-0.06737 0.00068-0.52956 0.002-1.0271 0.003-0.49753 0.001-0.99788 0.0132-1.1119 0.027l-0.2066 0.0251-0.0109 0.3575c-0.0093 0.30359-0.0011 0.36465 0.05432 0.40518 0.0502 0.0367 0.42853 0.0477 1.638 0.0477 0.86501 0 1.5996-0.0103 1.6324-0.0229zm0.84779 0.21685-0.14741-0.14741v-2.5968c0-2.3397 0.0061-2.6054 0.06146-2.6845 0.13102-0.18706 0.19068-0.19286 1.9827-0.19286 1.5451 0 1.6792 0.005 1.7981 0.0689 0.25625 0.13743 0.26616 0.19135 0.26616 1.4476v1.1219h-0.79152-0.79152l-0.002-0.6689c0-0.368-0.014-0.6908-0.031-0.7174-0.023-0.036-0.146-0.0456-0.48-0.0377l-0.4493 0.0107v1.6584 1.6584l0.48057 0.0105 0.48056 0.0105v-0.67957-0.67957h0.79308 0.79308l-0.01099 1.1489-0.01099 1.1489-0.1232 0.12317-0.1232 0.12317-1.7742 0.0105-1.7742 0.0105-0.14741-0.14741zm3.5765-0.2392c0.03265-0.0326 0.04523-0.29483 0.04523-0.94229v-0.89705h-0.43067-0.43067l-0.0122 0.546-0.0122 0.54601-0.14187 0.14186-0.14187 0.14187-0.46048 0.0128c-0.54386 0.0151-0.70526-0.0228-0.83783-0.19658l-0.09522-0.12484v-1.7222c0-1.5363 0.0067-1.7324 0.06213-1.817 0.11361-0.17339 0.23099-0.20405 0.78116-0.20405 0.49284 0 0.51128 0.003 0.62513 0.0987 0.2029 0.17072 0.22769 0.26032 0.22769 0.82285v0.5107h0.43345 0.43345v-0.91623c0-0.67361-0.01248-0.93324-0.04711-0.98046-0.04334-0.0591-0.1799-0.0634-1.7055-0.0543l-1.6584 0.01-0.0097 2.4834c-0.007 1.8031 0.002 2.4975 0.03288 2.5347 0.05859 0.0706 3.2723 0.0764 3.3427 0.006zm-10.017-5.8335c-0.0722-0.0181-0.1698-0.0776-0.2167-0.1322-0.07802-0.0907-0.0854-0.13669-0.0854-0.53234 0-0.40558 0.0057-0.43875 0.08949-0.52256 0.11003-0.11003 0.37218-0.15529 0.63554-0.10972 0.21094 0.0365 0.3061 0.13022 0.34927 0.34398l0.02474 0.1225h-0.17007c-0.1369 0-0.17473-0.0147-0.19396-0.0753-0.03004-0.0946-0.18435-0.13573-0.30434-0.0811-0.08489 0.0387-0.09145 0.0618-0.09145 0.32247 0 0.30955 0.04758 0.39926 0.21175 0.39926 0.06419 0 0.11332-0.0352 0.1575-0.11284 0.05546-0.0975 0.08603-0.11286 0.2244-0.11307 0.13598-0.00019 0.16019 0.0113 0.16019 0.0764 0 0.12279-0.1003 0.32852-0.1813 0.37187-0.10649 0.057-0.45513 0.0814-0.60962 0.0427zm1.4996 0.00078c-0.0766-0.0149-0.1654-0.0487-0.1972-0.0751-0.0861-0.0714-0.1341-0.2878-0.1343-0.6052-0.0002-0.3698 0.0743-0.5273 0.2824-0.5971 0.14928-0.0501 0.56333-0.0415 0.70811 0.0147 0.13066 0.0507 0.17764 0.21863 0.17764 0.63494 0 0.35592-0.0085 0.40537-0.08481 0.49383-0.1272 0.1474-0.4169 0.1991-0.7518 0.1339zm0.4245-0.3048c0.06267-0.0335 0.0729-0.081 0.0729-0.33789 0-0.33038-0.03194-0.37692-0.25867-0.37692-0.18063 0-0.23132 0.0826-0.23132 0.37692 0 0.1847 0.0169 0.27535 0.05923 0.31768 0.06759 0.0676 0.25008 0.0779 0.35785 0.0202zm6.1868 0.30524c-0.172-0.043-0.265-0.1379-0.314-0.3192-0.05527-0.20336-0.02014-0.71399 0.05724-0.83209 0.09949-0.15185 0.45092-0.21306 0.74859-0.1304 0.15407 0.0428 0.23247 0.13718 0.2722 0.32772l0.02554 0.1225h-0.19145c-0.16272 0-0.19145-0.0107-0.19145-0.0713 0-0.0769-0.06968-0.11711-0.20285-0.11711-0.14163 0-0.17407 0.0718-0.17407 0.38526 0 0.27788 0.0054 0.29727 0.09423 0.33774 0.12323 0.0562 0.28269-0.011 0.28269-0.11913 0-0.0663 0.02446-0.0762 0.18846-0.0762 0.15826 0 0.18846 0.0112 0.18846 0.0698 0 0.14257-0.0867 0.31107-0.18665 0.36276-0.13336 0.069-0.43888 0.0996-0.59699 0.0599zm-5.3224-0.64097v-0.64292h0.25777 0.25777l0.1238 0.42403c0.06809 0.23322 0.13263 0.4391 0.14344 0.45751 0.02113 0.036 0.26735-0.70602 0.27062-0.81558 0.0017-0.0564 0.04041-0.066 0.26581-0.066h0.26384v0.64076 0.64075h-0.15076-0.15077v-0.43345c0-0.45337-0.04164-0.55352-0.11362-0.27326-0.02263 0.0881-0.0784 0.27891-0.12395 0.42403l-0.08281 0.26384h-0.1685-0.1685l-0.06459-0.22615c-0.03552-0.12438-0.09539-0.32792-0.13303-0.4523l-0.06844-0.22615-0.01885 0.4523-0.01885 0.4523-0.16019 0.0116-0.16019 0.0116v-0.64293zm2.073-0.005v-0.64391l0.45565 0.0126c0.44572 0.0123 0.45763 0.0149 0.54652 0.11833 0.07167 0.0834 0.09088 0.1486 0.09088 0.3085 0 0.38789-0.07432 0.46315-0.49191 0.49816l-0.26192 0.022v0.16415 0.16414h-0.16961-0.16961v-0.64391zm0.7086-0.004c0.02488-0.0249 0.04523-0.0978 0.04523-0.16207 0-0.15788-0.06021-0.20731-0.25253-0.20731h-0.16207v0.18218c0 0.1002 0.01131 0.19348 0.02513 0.2073 0.04258 0.0426 0.29639 0.0278 0.34425-0.0201zm0.6203 0.60118c0.0098-0.0259 0.06325-0.20825 0.11885-0.40518 0.05559-0.19694 0.13584-0.46479 0.17832-0.59522l0.07724-0.23715 0.26904 0.011 0.26904 0.011 0.15988 0.54653c0.08794 0.30058 0.17062 0.58468 0.18375 0.63133 0.0223 0.0792 0.01232 0.0848-0.15179 0.0848-0.16129 0-0.17888-0.009-0.21508-0.11307-0.03756-0.10775-0.04951-0.11308-0.25362-0.11308-0.20339 0-0.21635 0.006-0.25688 0.11308-0.03907 0.10351-0.05763 0.11307-0.2196 0.11307-0.12588 0-0.17179-0.0136-0.15915-0.0471zm0.78182-0.4634c0-0.0856-0.12912-0.50716-0.15535-0.50716-0.01821 0-0.03371 0.0212-0.03445 0.0471-0.000739 0.0259-0.02465 0.14464-0.05314 0.26384l-0.05179 0.21672h0.14736c0.08105 0 0.14737-0.009 0.14737-0.0205zm2.6007 0.002v-0.50884h-0.16961c-0.16871 0-0.16961-0.0007-0.16961-0.13192v-0.13192h0.50883 0.50883v0.13192c0 0.13122-0.000897 0.13192-0.16961 0.13192h-0.16961v0.50884 0.50883h-0.16961-0.16961v-0.50883z"/>
 </g>
 <g>
  <path style="color:#000000" d="m33.899 10.101c5.4673 5.4673 5.4673 14.332 0 19.799-5.4673 5.4673-14.332 5.4673-19.799 0-5.4673-5.4673-5.4673-14.332 0-19.799 5.4673-5.4673 14.332-5.4673 19.799 0z" fill="#fff"/>
  <path opacity=".25" style="color:#000000" d="m20.635 32.557a13 13 0 0 1 -9.192 -9.192l12.557-3.365z"/>
  <path opacity=".25" style="color:#000000" d="m27.365 7.443a13 13 0 0 1 9.1924 9.1924l-12.557 3.365z"/>
  <path style="color:#000000" d="m30 20c0 3.3137-2.6863 6-6 6s-6-2.6863-6-6 2.6863-6 6-6 6 2.6863 6 6z" fill="url(#linearGradient6087-6)"/>
  <path style="color:#000000" d="m30 20.5a4.5 4.5 0 1 1 -9 0 4.5 4.5 0 1 1 9 0z" transform="translate(-1.5 -.5)" stroke="#666" stroke-width=".5" fill="none"/>
  <path style="color:#000000" d="m28 20.5a2.5 2.5 0 1 1 -5 0 2.5 2.5 0 1 1 5 0z" transform="translate(-1.5 -.5)" fill="#999"/>
  <rect opacity=".83712" style="color:#000000" ry=".125" height="1" width="38" y="44" x="6" fill="#2d2d2d"/>
 </g>
 <g>
  <path opacity=".4" style="color:#000000" d="m2 0c-1.108 0-2 0.892-2 2v44c0 1.108 0.892 2 2 2h44c1.108 0 2-0.892 2-2v-44c0-1.108-0.892-2-2-2h-44zm0 0.5h44c0.83101 0 1.5 0.66899 1.5 1.5v44c0 0.83101-0.66899 1.5-1.5 1.5h-44c-0.831 0-1.5-0.669-1.5-1.5v-44c0-0.831 0.669-1.5 1.5-1.5z" fill="url(#linearGradient12443)"/>
  <path opacity=".4" style="color:#000000" d="m2 0c-1.108 0-2 0.892-2 2v44c0 1.108 0.892 2 2 2h44c1.108 0 2-0.892 2-2v-44c0-1.108-0.892-2-2-2h-44zm0 0.5h44c0.83101 0 1.5 0.66899 1.5 1.5v44c0 0.83101-0.66899 1.5-1.5 1.5h-44c-0.831 0-1.5-0.669-1.5-1.5v-44c0-0.831 0.669-1.5 1.5-1.5z" fill="url(#linearGradient3973)"/>
 </g>
</svg>
