<svg xmlns:rdf="http://www.w3.org/1999/02/22-rdf-syntax-ns#" xmlns="http://www.w3.org/2000/svg" height="48" width="48" version="1.1" xmlns:cc="http://creativecommons.org/ns#" xmlns:xlink="http://www.w3.org/1999/xlink" xmlns:dc="http://purl.org/dc/elements/1.1/">
 <defs>
  <linearGradient id="linearGradient12443" y2="3" gradientUnits="userSpaceOnUse" y1=".5" x2="27.5" x1="27.5">
   <stop stop-color="#fff" offset="0"/>
   <stop stop-color="#fff" stop-opacity="0" offset="1"/>
  </linearGradient>
  <linearGradient id="linearGradient3922" y2="1052.1" gradientUnits="userSpaceOnUse" x2="23.158" y1="1004.8" x1="23.158">
   <stop stop-color="#c1c1c1" offset="0"/>
   <stop stop-color="#999" offset="1"/>
  </linearGradient>
  <linearGradient id="linearGradient3973" y2="40.476" gradientUnits="userSpaceOnUse" y1="46.285" x2="26.528" x1="26.528">
   <stop offset="0"/>
   <stop stop-opacity="0" offset="1"/>
  </linearGradient>
  <filter id="filter6156" height="1.24" width="1.24" y="-.12" x="-.12">
   <feGaussianBlur stdDeviation="1.4"/>
  </filter>
  <clipPath id="clipPath6178" clipPathUnits="userSpaceOnUse">
   <path opacity=".25" style="color:#000000" d="m24 6c-3.5829 0-7.1726 1.3601-9.9062 4.0938-5.4673 5.4673-5.4673 14.345 0 19.812l18.125 18.094h13.781c1.108 0 2-0.892 2-2v-21.812l-14.094-14.094c-2.733-2.7339-6.323-4.094-9.906-4.094z"/>
  </clipPath>
 </defs>
 <g transform="translate(0 -1004.4)">
  <path style="color:#000000" d="m2 1004.4h44c1.108 0 2 0.892 2 2v44c0 1.108-0.892 2-2 2h-44c-1.108 0-2-0.892-2-2v-44c0-1.108 0.892-2 2-2z" fill="url(#linearGradient3922)"/>
  <path style="color:#000000" d="m0 39v7c0 1.108 0.892 2 2 2h44c1.108 0 2-0.892 2-2v-7c0 1.108-0.892 2-2 2h-44c-1.108 0-2-0.892-2-2z" transform="translate(0 1004.4)" fill="#7c7c7c"/>
 </g>
 <g>
  <flowRoot style="word-spacing:0px;letter-spacing:0px" line-height="125%" xml:space="preserve" font-size="40px" transform="translate(-18.262 -1007.9)" font-family="sans-serif" fill="#000000"><flowRegion><rect y="6.6343" width="57.629" x="-53.033" height="49.321"/></flowRegion><flowPara/></flowRoot>
  <path opacity=".25" style="color:#000000" d="m24 6c-3.583 0-7.173 1.3601-9.906 4.094-5.4676 5.467-5.4676 14.345 0 19.812l18.125 18.094h13.781c1.108 0 2-0.892 2-2v-21.812l-14.094-14.094c-2.733-2.7339-6.323-4.094-9.906-4.094z"/>
  <path opacity=".6" filter="url(#filter6156)" style="color:#000000" d="m33.899 10.101c5.4673 5.4673 5.4673 14.332 0 19.799-5.4673 5.4673-14.332 5.4673-19.799 0-5.4673-5.4673-5.4673-14.332 0-19.799 5.4673-5.4673 14.332-5.4673 19.799 0z" clip-path="url(#clipPath6178)"/>
  <g fill="#666" transform="translate(29.562 -18.46)">
   <path d="m-19.451 21.512s-1.0994 1.3538-1.0432 1.4401c0.078-0.08632-0.39472-1.4549-0.39472-1.4549s-0.09864-0.28776-0.40816-1.231h-5.8916l-0.2048 0.88544h1.9102c0.9932 0 1.5996 0.41056 1.4302 1.138-0.18296 0.79208-1.0498 1.1302-1.9732 1.1302h-0.34528l0.44416-1.9366h-1.5436l-0.65536 2.8295h2.1918c1.649 0 3.2133-0.88536 3.4954-2.023 0.04936-0.20912 0.0424-0.7348-0.08432-1.0442 0-0.0074-0.0073-0.02168-0.01424-0.04296-0.007-0.0074-0.01424-0.05776 0.01424-0.06512 0.01376-0.0074 0.042 0.02168 0.042 0.02864 0 0 0.01432 0.03648 0.02808 0.06504l1.3952 4.0252 3.5523-4.0973 1.5009-0.0074h0.36632c0.99392 0 1.6072 0.41056 1.4375 1.138-0.1832 0.79208-1.0564 1.1302-1.98 1.1302h-0.3524l0.4508-1.9366h-1.543l-0.65584 2.8295h2.1918c1.6489 0 3.2275-0.88536 3.4883-2.023 0.26776-1.138-0.88808-2.0234-2.5512-2.0234h-3.2696c-0.86672 1.0439-1.029 1.2458-1.029 1.2458z"/>
   <path d="m-21.009 25.271c-4.1715 0-7.554 0.4896-7.554 1.0946 0 0.60464 3.3825 1.0942 7.554 1.0942 4.1791 0 7.562-0.4896 7.562-1.0942 0.00008-0.60504-3.3827-1.0946-7.562-1.0946zm-0.26768 1.4835c-0.9584 0-1.7264-0.16576-1.7264-0.3676s0.76792-0.3672 1.7264-0.3672c0.95104 0 1.7198 0.16528 1.7198 0.3672 0 0.20184-0.7688 0.3676-1.7198 0.3676z"/>
  </g>
 </g>
 <g>
  <path style="color:#000000" d="m33.899 10.101c5.4673 5.4673 5.4673 14.332 0 19.799-5.4673 5.4673-14.332 5.4673-19.799 0-5.4673-5.4673-5.4673-14.332 0-19.799 5.4673-5.4673 14.332-5.4673 19.799 0z" fill="#fff"/>
  <path opacity=".25" style="color:#000000" d="m20.635 32.557a13 13 0 0 1 -9.192 -9.192l12.557-3.365z"/>
  <path opacity=".25" style="color:#000000" d="m27.365 7.443a13 13 0 0 1 9.1924 9.1924l-12.557 3.365z"/>
  <path style="color:#000000" d="m30 20c0 3.3137-2.6863 6-6 6s-6-2.6863-6-6 2.6863-6 6-6 6 2.6863 6 6z" fill="#fff"/>
  <path style="color:#000000" d="m30 20.5a4.5 4.5 0 1 1 -9 0 4.5 4.5 0 1 1 9 0z" transform="translate(-1.5 -.5)" stroke="#666" stroke-width=".5" fill="none"/>
  <path style="color:#000000" d="m28 20.5a2.5 2.5 0 1 1 -5 0 2.5 2.5 0 1 1 5 0z" transform="translate(-1.5 -.5)" fill="#999"/>
  <rect opacity=".83712" style="color:#000000" ry=".125" height="1" width="38" y="44" x="6" fill="#2d2d2d"/>
 </g>
 <g>
  <path opacity=".4" style="color:#000000" d="m2 0c-1.108 0-2 0.892-2 2v44c0 1.108 0.892 2 2 2h44c1.108 0 2-0.892 2-2v-44c0-1.108-0.892-2-2-2h-44zm0 0.5h44c0.83101 0 1.5 0.66899 1.5 1.5v44c0 0.83101-0.66899 1.5-1.5 1.5h-44c-0.831 0-1.5-0.669-1.5-1.5v-44c0-0.831 0.669-1.5 1.5-1.5z" fill="url(#linearGradient12443)"/>
  <path opacity=".4" style="color:#000000" d="m2 0c-1.108 0-2 0.892-2 2v44c0 1.108 0.892 2 2 2h44c1.108 0 2-0.892 2-2v-44c0-1.108-0.892-2-2-2h-44zm0 0.5h44c0.83101 0 1.5 0.66899 1.5 1.5v44c0 0.83101-0.66899 1.5-1.5 1.5h-44c-0.831 0-1.5-0.669-1.5-1.5v-44c0-0.831 0.669-1.5 1.5-1.5z" fill="url(#linearGradient3973)"/>
 </g>
</svg>
