<svg xmlns:rdf="http://www.w3.org/1999/02/22-rdf-syntax-ns#" xmlns="http://www.w3.org/2000/svg" height="48" width="48" version="1.1" xmlns:cc="http://creativecommons.org/ns#" xmlns:xlink="http://www.w3.org/1999/xlink" xmlns:dc="http://purl.org/dc/elements/1.1/">
 <defs>
  <linearGradient id="linearGradient12443" y2="3" gradientUnits="userSpaceOnUse" y1=".5" x2="27.5" x1="27.5">
   <stop stop-color="#fff" offset="0"/>
   <stop stop-color="#fff" stop-opacity="0" offset="1"/>
  </linearGradient>
  <radialGradient id="radialGradient3914" gradientUnits="userSpaceOnUse" cy="43" cx="24" gradientTransform="matrix(1 0 0 .095238 0 38.905)" r="21">
   <stop stop-color="#69caff" offset="0"/>
   <stop stop-color="#19aeff" stop-opacity="0" offset="1"/>
  </radialGradient>
  <linearGradient id="linearGradient3922" y2="1052.1" gradientUnits="userSpaceOnUse" x2="23.158" y1="1004.8" x1="23.158">
   <stop stop-color="#c1c1c1" offset="0"/>
   <stop stop-color="#999" offset="1"/>
  </linearGradient>
  <linearGradient id="linearGradient3973" y2="40.476" gradientUnits="userSpaceOnUse" y1="46.285" x2="26.528" x1="26.528">
   <stop offset="0"/>
   <stop stop-opacity="0" offset="1"/>
  </linearGradient>
  <filter id="filter3994-0" width="1.2117" y="-1.032" x="-.10585" height="3.064" color-interpolation-filters="sRGB">
   <feGaussianBlur stdDeviation="1.72"/>
  </filter>
  <filter id="filter4242" height="1.2571" width="1.225" y="-.12857" x="-.1125">
   <feGaussianBlur stdDeviation="1.125"/>
  </filter>
  <clipPath id="clipPath4264" clipPathUnits="userSpaceOnUse">
   <path opacity=".25" style="color:#000000" d="m24 8-12 15 2 2h-2v4l19 19h15c1.108 0 2-0.892 2-2v-14l-24-24z"/>
  </clipPath>
 </defs>
 <g transform="translate(0 -1004.4)">
  <path style="color:#000000" d="m2 1004.4h44c1.108 0 2 0.892 2 2v44c0 1.108-0.892 2-2 2h-44c-1.108 0-2-0.892-2-2v-44c0-1.108 0.892-2 2-2z" fill="url(#linearGradient3922)"/>
  <path style="color:#000000" d="m0 39v4c0 1.108 0.892 2 2 2h44c1.108 0 2-0.892 2-2v-4c0 1.108-0.892 2-2 2h-44c-1.108 0-2-0.892-2-2z" transform="translate(0 1004.4)" fill="#0e232e"/>
  <rect opacity=".6" style="color:#000000" ry=".125" height="4" filter="url(#filter3994-0)" width="39" y="1045.4" x="5" fill="#0084c8"/>
  <rect ry=".125" style="color:#000000" transform="translate(0 1004.4)" height="4" width="42" y="41" x="3" fill="url(#radialGradient3914)"/>
 </g>
 <g>
  <flowRoot style="word-spacing:0px;letter-spacing:0px" line-height="125%" xml:space="preserve" font-size="40px" transform="translate(-18.262 -1007.9)" font-family="sans-serif" fill="#000000"><flowRegion><rect y="6.6343" width="57.629" x="-53.033" height="49.321"/></flowRegion><flowPara/></flowRoot>
  <path opacity=".25" style="color:#000000" d="m24 8l-12 15 2 2h-2v4l19 19h15c1.108 0 2-0.892 2-2v-14l-24-24z"/>
  <path opacity=".6" filter="url(#filter4242)" style="color:#000000" d="m24 8-12 15h24l-12-15zm-12 17v4h24v-4h-24z" clip-path="url(#clipPath4264)"/>
 </g>
 <g>
  <path style="color:#000000" d="m24 8-12 15h24l-12-15zm-12 17v4h24v-4h-24z" fill="#fff"/>
 </g>
 <g>
  <path opacity=".4" style="color:#000000" d="m2 0c-1.108 0-2 0.892-2 2v44c0 1.108 0.892 2 2 2h44c1.108 0 2-0.892 2-2v-44c0-1.108-0.892-2-2-2h-44zm0 0.5h44c0.83101 0 1.5 0.66899 1.5 1.5v44c0 0.83101-0.66899 1.5-1.5 1.5h-44c-0.831 0-1.5-0.669-1.5-1.5v-44c0-0.831 0.669-1.5 1.5-1.5z" fill="url(#linearGradient12443)"/>
  <path opacity=".4" style="color:#000000" d="m2 0c-1.108 0-2 0.892-2 2v44c0 1.108 0.892 2 2 2h44c1.108 0 2-0.892 2-2v-44c0-1.108-0.892-2-2-2h-44zm0 0.5h44c0.83101 0 1.5 0.66899 1.5 1.5v44c0 0.83101-0.66899 1.5-1.5 1.5h-44c-0.831 0-1.5-0.669-1.5-1.5v-44c0-0.831 0.669-1.5 1.5-1.5z" fill="url(#linearGradient3973)"/>
 </g>
</svg>
