<svg xmlns:rdf="http://www.w3.org/1999/02/22-rdf-syntax-ns#" xmlns="http://www.w3.org/2000/svg" height="48" width="48" version="1.1" xmlns:cc="http://creativecommons.org/ns#" xmlns:xlink="http://www.w3.org/1999/xlink" xmlns:dc="http://purl.org/dc/elements/1.1/">
 <defs>
  <linearGradient id="linearGradient12443" y2="3" gradientUnits="userSpaceOnUse" y1=".5" x2="27.5" x1="27.5">
   <stop stop-color="#fff" offset="0"/>
   <stop stop-color="#fff" stop-opacity="0" offset="1"/>
  </linearGradient>
  <filter id="filter5457" height="1.2482" width="1.2323" y="-.12410" x="-.11616">
   <feGaussianBlur stdDeviation="1.5487825"/>
  </filter>
  <clipPath id="clipPath5485" clipPathUnits="userSpaceOnUse">
   <path opacity=".25" d="m23.031 9.0625c-8.297 0-15.031 6.6985-15.031 14.968 0 3.095 0.94883 5.9566 2.5625 8.3438 0.19996 0.29614 0.40489 0.59439 0.625 0.875 0.07371 0.09374 0.14286 0.18932 0.21875 0.28125 0.0092 0.01119 0.02201 0.02009 0.03125 0.03125 0.29668 0.35724 0.60931 0.70306 0.9375 1.0312 0.0104 0.01043 0.02082 0.02085 0.03125 0.03125l13.375 13.377h20.219c1.108 0 2-0.892 2-2v-19.938l-12.188-12.187c-2.229-2.23-4.841-3.581-7.812-4.0313-0.75138-0.114-1.5134-0.15625-2.3125-0.15625-0.48409 0-0.97056 0.020665-1.4375 0.0625h-0.03125l-0.65625-0.6875c-0.18345-0.00674-0.34604 0-0.53125 0z"/>
  </clipPath>
 </defs>
 <g transform="translate(0 -1004.4)">
  <rect style="color:#000000" ry="2" height="48" width="48" y="1004.4" x="0" fill="#2c2255"/>
 </g>
 <g>
  <flowRoot style="word-spacing:0px;letter-spacing:0px" line-height="125%" xml:space="preserve" font-size="40px" transform="translate(-18.262 -1007.9)" font-family="sans-serif" fill="#000000"><flowRegion><rect y="6.6343" width="57.629" x="-53.033" height="49.321"/></flowRegion><flowPara/></flowRoot>
  <path opacity=".25" d="m23.031 9.0625c-8.297 0-15.031 6.6985-15.031 14.968 0 3.096 0.9488 5.958 2.562 8.345 0.2 0.296 0.405 0.594 0.626 0.875 0.073 0.094 0.142 0.189 0.218 0.281 0.009 0.011 0.022 0.02 0.032 0.031 0.296 0.358 0.609 0.704 0.937 1.032l0.031 0.031 13.375 13.375h20.219c1.108 0 2-0.892 2-2v-19.938l-12.188-12.187c-2.229-2.23-4.841-3.581-7.812-4.0312-0.751-0.1141-1.513-0.1563-2.312-0.1563-0.485 0-0.971 0.0207-1.438 0.0625h-0.031l-0.657-0.6875c-0.183-0.0067-0.346 0-0.531 0z"/>
  <g opacity=".6" clip-path="url(#clipPath5485)" filter="url(#filter5457)">
   <path d="m16.807 28.158h-4.9068c0.64969 2.2286 1.8553 4.226 3.6203 5.9914 2.8138 2.814 6.1974 4.2193 10.154 4.2193 0.79094 0 1.5573-0.059 2.3016-0.1712 2.9803-0.4498 5.5896-1.7973 7.8253-4.0481 1.7765-1.7648 2.9906-3.7628 3.6452-5.9914h-22.64z"/>
   <g transform="matrix(.29305 0 0 .29305 -12.827 -86.991)">
    <path d="m91.891 370.19h-8.747c-0.32 1.922-0.538 3.884-0.637 5.896h97.757c-0.1-2.012-0.318-3.974-0.641-5.896"/>
    <path d="m82.507 381.56c0.099 2.013 0.316 3.975 0.637 5.896h96.481c0.322-1.921 0.542-3.883 0.642-5.896"/>
   </g>
   <path d="m39.448 19.889c-0.654-2.235-1.869-4.241-3.646-6.019-2.23-2.23-4.832-3.568-7.803-4.0178-0.751-0.114-1.525-0.1737-2.324-0.1737-3.9567 0-7.3406 1.3975-10.154 4.1914-1.7656 1.7777-2.9718 3.7844-3.6212 6.0193"/>
   <g transform="matrix(.29305 0 0 .29305 -12.827 -86.991)">
    <path d="m79.6 378.83c0-25.824 19.395-47.281 44.626-51.055-0.626-0.023-1.255-0.048-1.887-0.048-28.314 0-51.269 22.88-51.269 51.103 0 28.224 22.954 51.103 51.269 51.103 0.634 0 1.263-0.024 1.891-0.047-25.235-3.78-44.63-25.24-44.63-51.06z"/>
   </g>
  </g>
 </g>
 <g>
  <path fill="#463688" d="m16.807 28.158h-4.9068c0.64969 2.2286 1.8553 4.226 3.6203 5.9914 2.8138 2.814 6.1974 4.2193 10.154 4.2193 0.79094 0 1.5573-0.059 2.3016-0.1712 2.9803-0.4498 5.5896-1.7973 7.8253-4.0481 1.7765-1.7648 2.9906-3.7628 3.6452-5.9914h-22.64z"/>
  <path d="m14.102 21.494h-2.5633c-0.09378 0.56324-0.15766 1.1382-0.18667 1.7278h28.648c-0.02931-0.58961-0.09319-1.1646-0.18784-1.7278" fill="#463688"/>
  <path d="m11.352 24.826c0.02901 0.58991 0.0926 1.1649 0.18667 1.7278h28.273c0.094-0.563 0.159-1.138 0.188-1.728" fill="#463688"/>
  <path fill="#463688" d="m39.448 19.889c-0.654-2.235-1.869-4.241-3.646-6.019-2.23-2.23-4.832-3.568-7.803-4.0178-0.751-0.114-1.525-0.1737-2.324-0.1737-3.9567 0-7.3406 1.3975-10.154 4.1914-1.7656 1.7777-2.9718 3.7844-3.6212 6.0193"/>
  <path d="m10.5 24.024c0-7.5677 5.6837-13.856 13.078-14.962-0.18345-0.00674-0.36778-0.014066-0.55298-0.014066-8.2974 0-15.024 6.7049-15.024 14.976 0 8.271 6.7266 14.976 15.024 14.976 0.18579 0 0.37012-0.007 0.55415-0.01377-7.396-1.106-13.079-7.394-13.079-14.962z" fill="#ec8408"/>
 </g>
 <path opacity=".4" style="color:#000000" d="m2 0c-1.108 0-2 0.892-2 2v44c0 1.108 0.892 2 2 2h44c1.108 0 2-0.892 2-2v-44c0-1.108-0.892-2-2-2h-44zm0 0.5h44c0.83101 0 1.5 0.66899 1.5 1.5v44c0 0.83101-0.66899 1.5-1.5 1.5h-44c-0.831 0-1.5-0.669-1.5-1.5v-44c0-0.831 0.669-1.5 1.5-1.5z" fill="url(#linearGradient12443)"/>
</svg>
