<svg xmlns:rdf="http://www.w3.org/1999/02/22-rdf-syntax-ns#" xmlns="http://www.w3.org/2000/svg" height="48" width="48" version="1.1" xmlns:cc="http://creativecommons.org/ns#" xmlns:xlink="http://www.w3.org/1999/xlink" xmlns:dc="http://purl.org/dc/elements/1.1/">
 <defs>
  <linearGradient id="linearGradient3115" y2="3" gradientUnits="userSpaceOnUse" y1=".5" x2="27.5" x1="27.5">
   <stop stop-color="#fff" offset="0"/>
   <stop stop-color="#fff" stop-opacity="0" offset="1"/>
  </linearGradient>
  <filter id="filter4537" height="1.24" width="1.24" y="-.12" x="-.12">
   <feGaussianBlur stdDeviation="1.6"/>
  </filter>
  <clipPath id="clipPath4570" clipPathUnits="userSpaceOnUse">
   <path opacity=".25" d="m9.9375 8c-1.0781 0-1.9375 0.8594-1.9375 1.9375v21.125c0 1.079 0.8594 1.938 1.9375 1.938l6.0625 6.062v0.938l8 8h21.938c1.108 0 2-0.892 2-2v-28.938l-8.5-8.5c-0.35-0.3491-0.836-0.562-1.376-0.562h-28.124z"/>
  </clipPath>
 </defs>
 <rect style="color:#000000" ry="2" height="48" width="48" y=".000024414" x="-.0625" fill="#19aeff"/>
 <g>
  <path opacity=".25" d="m9.9375 8c-1.0781 0-1.9375 0.8594-1.9375 1.9375v21.124c0 1.079 0.8594 1.938 1.9375 1.938l6.0625 6.062v0.938l8 8h21.938c1.108 0 2-0.892 2-2v-28.938l-8.5-8.4995c-0.35-0.3496-0.836-0.5625-1.376-0.5625h-28.124z"/>
  <path opacity=".6" d="m38.062 8c1.079 0 1.938 0.8594 1.938 1.9375v21.124c0 1.079-0.859 1.938-1.938 1.938h-14.063l-8 7v-7h-6.0625c-1.0781 0-1.9375-0.85938-1.9375-1.9375v-21.125c0.0015-1.0776 0.8609-1.937 1.939-1.937z" clip-path="url(#clipPath4570)" filter="url(#filter4537)"/>
 </g>
 <g>
  <path d="m38.062 8c1.079 0 1.938 0.8594 1.938 1.9375v21.124c0 1.079-0.859 1.938-1.938 1.938h-14.063l-8 7v-7h-6.0625c-1.0781 0-1.9375-0.85938-1.9375-1.9375v-21.125c0.0015-1.0776 0.8609-1.937 1.939-1.937z" fill="#fff"/>
  <path opacity=".25" d="m27.938 13.188c0.666 1.234 1.166 2.442 1.5 3.624 0.333 1.178 0.499 2.349 0.5 3.5-0.001 0.864-0.094 1.745-0.282 2.626-0.031 0.145-0.057 0.291-0.094 0.437l-3.781-3.781h-4.562l-3-3h-2.813v3.031l2.688 2.687h-2.688v3.032l8.094 8.094 0.5-0.438h14.062c1.079 0 1.938-0.859 1.938-1.938v-8.156l-9.719-9.718h-2.343z"/>
  <text style="word-spacing:0px;letter-spacing:0px" line-height="125%" font-size="17.509px" y="25.340858" x="13.605469" font-family="Sans" xml:space="preserve" fill="#005c94"><tspan font-size="16px" y="25.340858" x="13.605469" font-weight="bold" fill="#005c94">:-)</tspan></text>
 </g>
 <path opacity=".4" style="color:#000000" d="m2 0c-1.108 0-2 0.892-2 2v44c0 1.108 0.892 2 2 2h44c1.108 0 2-0.892 2-2v-44c0-1.108-0.892-2-2-2h-44zm0 0.5h44c0.83101 0 1.5 0.66899 1.5 1.5v44c0 0.83101-0.66899 1.5-1.5 1.5h-44c-0.831 0-1.5-0.669-1.5-1.5v-44c0-0.831 0.669-1.5 1.5-1.5z" fill="url(#linearGradient3115)"/>
</svg>
