<svg xmlns:rdf="http://www.w3.org/1999/02/22-rdf-syntax-ns#" xmlns="http://www.w3.org/2000/svg" height="48" width="48" version="1.1" xmlns:cc="http://creativecommons.org/ns#" xmlns:xlink="http://www.w3.org/1999/xlink" xmlns:dc="http://purl.org/dc/elements/1.1/">
 <defs>
  <linearGradient id="linearGradient12443" y2="3" gradientUnits="userSpaceOnUse" x2="27.5" y1=".5" x1="27.5">
   <stop stop-color="#fff" offset="0"/>
   <stop stop-color="#fff" stop-opacity="0" offset="1"/>
  </linearGradient>
 </defs>
 <g transform="translate(0 -1004.4)">
  <rect style="color:#000000" ry="2" height="48" width="48" y="1004.4" x="0" fill="#dc0000"/>
 </g>
 <g>
  <flowRoot style="word-spacing:0px;letter-spacing:0px" xml:space="preserve" transform="translate(-18.262 -1007.9)" line-height="125%" font-size="40px" font-family="sans-serif" fill="#000000"><flowRegion><rect y="6.6343" x="-53.033" width="57.629" height="49.321"/></flowRegion><flowPara/></flowRoot>
  <path opacity=".25" d="m27.844 10.875c-1.348 0-2.313 0.324-3.719 1.125-2.324 1.355-4.402 2.988-5.687 4.469-2.272 2.763-4.278 9.27-4.376 14.219-3.343 2.483-7.8246 5.819-8.812 6.437l10.875 10.875h29.875c1.108 0 2-0.892 2-2v-26.375l-5.25-5.25c-1.147 1.001-2.874 2.677-4.844 4.656-0.043 0.044-0.081 0.113-0.125 0.157l-7.25-7.25-0.125-0.126c-0.155-0.155-0.309-0.288-0.5-0.406-0.553-0.348-1.251-0.531-2.062-0.531z"/>
 </g>
 <g>
  <path fill="#fff" d="m42.75 14.371c-4.59 4.004-18.328 19.106-20.652 19.106-1.5312 0-2.8164-1.0469-3.2461-2.6484-0.243-0.985 0.132 0.265-13.602 6.296 1.3789-0.86328 11.008-8.1133 12.262-8.9922 1.2539-0.875 7.4336-5.125 9.2383-6.4805 3.3047-2.5234 4.5898-4.5586 4.5898-7.3281 0-2.1562-1.3477-3.4492-3.4883-3.4492-1.3477 0-2.3281 0.30859-3.7344 1.1094-2.3242 1.3555-4.4062 3.0156-5.6914 4.4961-2.3281 2.832-4.4062 9.6055-4.4062 14.594 0 3.6328 1.8945 5.9141 5.0156 5.9141 3.6133 0 16.309-12.109 21.145-16.977l2.569-5.64m-24.02 10.793c1.0391-6.5898 3.8555-11.703 6.4883-11.703 1.0391 0 1.7148 1.0469 1.7148 2.5234 0 3.082-1.6523 4.9297-8.2031 9.1797"/>
 </g>
 <path opacity=".4" style="color:#000000" d="m2 0c-1.108 0-2 0.892-2 2v44c0 1.108 0.892 2 2 2h44c1.108 0 2-0.892 2-2v-44c0-1.108-0.892-2-2-2h-44zm0 0.5h44c0.83101 0 1.5 0.66899 1.5 1.5v44c0 0.83101-0.66899 1.5-1.5 1.5h-44c-0.831 0-1.5-0.669-1.5-1.5v-44c0-0.831 0.669-1.5 1.5-1.5z" fill="url(#linearGradient12443)"/>
</svg>
