<svg xmlns:rdf="http://www.w3.org/1999/02/22-rdf-syntax-ns#" xmlns="http://www.w3.org/2000/svg" height="48" width="48" version="1.1" xmlns:cc="http://creativecommons.org/ns#" xmlns:xlink="http://www.w3.org/1999/xlink" xmlns:dc="http://purl.org/dc/elements/1.1/">
 <defs>
  <linearGradient id="linearGradient12443" y2="3" gradientUnits="userSpaceOnUse" x2="27.5" y1=".5" x1="27.5">
   <stop stop-color="#fff" offset="0"/>
   <stop stop-color="#fff" stop-opacity="0" offset="1"/>
  </linearGradient>
  <linearGradient id="linearGradient3866" y2="21" gradientUnits="userSpaceOnUse" x2="25" y1="19" x1="25">
   <stop stop-color="#fff" offset="0"/>
   <stop stop-color="#fff" stop-opacity="0" offset="1"/>
  </linearGradient>
 </defs>
 <g transform="translate(0 -1004.4)">
  <path style="color:#000000" d="m2 1004.4h44c1.108 0 2 0.892 2 2v44c0 1.108-0.892 2-2 2h-44c-1.108 0-2-0.892-2-2v-44c0-1.108 0.892-2 2-2z" fill="#666"/>
  <path opacity=".3" style="color:#000000" d="m41.125 14l-3.125 5h-33v21l8 8h33c1.108 0 2-0.892 2-2v-21-1-3l-6.875-7z" transform="translate(0 1004.4)"/>
 </g>
 <g>
  <flowRoot style="word-spacing:0px;letter-spacing:0px" xml:space="preserve" transform="translate(-18.262 -1007.9)" line-height="125%" font-size="40px" font-family="sans-serif" fill="#000000"><flowRegion><rect y="6.6343" x="-53.033" width="57.629" height="49.321"/></flowRegion><flowPara/></flowRoot>
 </g>
 <g>
  <rect style="color:#000000" height="11" width="38" y="3" x="5" fill="#19aeff"/>
  <use xlink:href="#rect4382" transform="translate(0,-16)" height="48" width="48" y="0" x="0"/>
  <g transform="matrix(.47664 .27519 -.27519 .47664 21.897 1.9372)">
   <path fill="#fff" d="m8 1c-1.0286 0-2 0.9714-2 2v11 31c0 0.97143 1.0286 2 2 2h32c0.97143 0 2-1.0286 2-2v-31-11c0-1.0286-0.971-2-2-2h-11-10-11z"/>
   <g transform="translate(-.5 -2)">
    <rect rx=".579" ry="0.601" height="7" width="8" y="17" x="16" fill="#888"/>
   </g>
   <g stroke-linejoin="round" transform="translate(-.5 -2)" stroke-dashoffset=".774" stroke="#888" stroke-linecap="round" fill="#555">
    <path d="m26.5 17.5h5"/>
    <path d="m26.5 20.5h5"/>
    <path d="m26.5 23.5h5"/>
    <path d="m16 26.5h16"/>
    <path d="m16 29.5h16"/>
    <path d="m16 32.5h16"/>
    <path d="m16 35.5h16"/>
   </g>
  </g>
  <rect style="color:#000000" height="21" width="38" y="19" x="5" fill="#19aeff"/>
  <path id="rect4382" opacity=".8" style="color:#000000" d="m20 24h8v-2h2v4h-12v-4h2z" fill="#0e232e"/>
  <path opacity=".7" d="m5.25 22v-2.75h37.5v2.75" stroke="url(#linearGradient3866)" stroke-width=".5" fill="none"/>
 </g>
 <path opacity=".4" style="color:#000000" d="m2 0c-1.108 0-2 0.892-2 2v44c0 1.108 0.892 2 2 2h44c1.108 0 2-0.892 2-2v-44c0-1.108-0.892-2-2-2h-44zm0 0.5h44c0.83101 0 1.5 0.66899 1.5 1.5v44c0 0.83101-0.66899 1.5-1.5 1.5h-44c-0.831 0-1.5-0.669-1.5-1.5v-44c0-0.831 0.669-1.5 1.5-1.5z" fill="url(#linearGradient12443)"/>
</svg>
