<svg xmlns:rdf="http://www.w3.org/1999/02/22-rdf-syntax-ns#" xmlns="http://www.w3.org/2000/svg" height="48" width="48" version="1.1" xmlns:cc="http://creativecommons.org/ns#" xmlns:xlink="http://www.w3.org/1999/xlink" xmlns:dc="http://purl.org/dc/elements/1.1/">
 <defs>
  <linearGradient id="linearGradient12443" y2="3" gradientUnits="userSpaceOnUse" y1=".5" x2="27.5" x1="27.5">
   <stop stop-color="#fff" offset="0"/>
   <stop stop-color="#fff" stop-opacity="0" offset="1"/>
  </linearGradient>
  <radialGradient id="radialGradient3719-7" gradientUnits="userSpaceOnUse" cx="63.994" cy="61.809" r="59.037" gradientTransform="matrix(2.5419 0 0 2.4643 90.505 100.87)">
   <stop stop-color="#DF731B" offset="0"/>
   <stop stop-color="#DF731B" offset=".5449"/>
   <stop stop-color="#EC8811" offset=".7014"/>
   <stop stop-color="#F4950B" offset=".8593"/>
   <stop stop-color="#F79A09" offset="1"/>
  </radialGradient>
  <linearGradient id="linearGradient3721-0" y2="42.945" gradientUnits="userSpaceOnUse" y1="44.32" gradientTransform="matrix(2.5419 0 0 2.5419 95.448 97.418)" x2="51.856" x1="48.731">
   <stop stop-color="#F2C8A9" offset="0"/>
   <stop stop-color="#ffc" offset="1"/>
  </linearGradient>
  <linearGradient id="linearGradient3723-1" y2="44.27" gradientUnits="userSpaceOnUse" y1="41.267" gradientTransform="matrix(2.5419 0 0 2.5419 93.365 97.341)" x2="58.139" x1="54.825">
   <stop stop-color="#EEA272" offset="0"/>
   <stop stop-color="#EFA777" offset=".1865"/>
   <stop stop-color="#F2B585" offset=".4064"/>
   <stop stop-color="#F6CD9C" offset=".643"/>
   <stop stop-color="#FCEEBB" offset=".8898"/>
   <stop stop-color="#ffc" offset="1"/>
  </linearGradient>
  <linearGradient id="linearGradient3725-8" y2="63.893" gradientUnits="userSpaceOnUse" y1="47.486" gradientTransform="matrix(2.5419 0 0 2.5419 90.505 96.07)" x2="50.721" x1="41.5">
   <stop stop-color="#DF731B" offset=".1966"/>
   <stop stop-color="#F9BD5F" offset=".8427"/>
   <stop stop-color="#FFFCCF" offset="1"/>
  </linearGradient>
  <linearGradient id="linearGradient3727-7" y2="71.76" gradientUnits="userSpaceOnUse" y1="67.845" gradientTransform="matrix(2.5419 0 0 2.5419 94.817 83.453)" x2="60.433" x1="80.929">
   <stop stop-color="#FFFAEE" offset=".0047"/>
   <stop stop-color="#F5F89B" offset=".2757"/>
   <stop stop-color="#F3ED91" offset=".3102"/>
   <stop stop-color="#ECC267" offset=".4668"/>
   <stop stop-color="#E6A046" offset=".6182"/>
   <stop stop-color="#E2872E" offset=".7611"/>
   <stop stop-color="#E07820" offset=".8921"/>
   <stop stop-color="#DF731B" offset="1"/>
  </linearGradient>
  <linearGradient id="linearGradient3729-1" y2="36.006" gradientUnits="userSpaceOnUse" y1="34.297" gradientTransform="matrix(4.4315 0 0 4.4315 -18.461 26.201)" x2="61.245" x1="60.286">
   <stop stop-color="#8B8B89" offset="0"/>
   <stop stop-color="#120500" offset="1"/>
  </linearGradient>
  <linearGradient id="linearGradient3731-0" y2="14.417" xlink:href="#linearGradient4295-7-5-4" gradientUnits="userSpaceOnUse" y1="22.738" gradientTransform="matrix(2.5419 0 0 2.5419 90.505 96.07)" x2="86.211" x1="105.16"/>
  <linearGradient id="linearGradient4295-7-5-4" y2="309.89" gradientUnits="userSpaceOnUse" y1="332.08" gradientTransform="matrix(.9975 -.0707 .0707 .9975 254.6 -268.47)" x2="-161.46" x1="-172.72">
   <stop stop-color="#f79b09" stop-opacity="0" offset="0"/>
   <stop stop-color="#facb04" offset=".368"/>
   <stop stop-color="#FEFD00" offset=".736"/>
   <stop stop-color="#FEFE26" offset=".7783"/>
   <stop stop-color="#FFFE54" offset=".8369"/>
   <stop stop-color="#FFFF76" offset=".889"/>
   <stop stop-color="#FFFF8B" offset=".932"/>
   <stop stop-color="#FFFF92" offset=".9607"/>
  </linearGradient>
  <linearGradient id="linearGradient3821" y2="196.43" xlink:href="#linearGradient4295-7-5-4" gradientUnits="userSpaceOnUse" x2="-52.194" gradientTransform="matrix(2.5399 -.10473 .10473 2.5399 433.01 -301.41)" y1="211.29" x1="-51.905"/>
 </defs>
 <g transform="translate(0 -1004.4)">
  <rect style="color:#000000" ry="2" height="48" width="48" y="1004.4" x="0" fill="#0084c8"/>
  <path opacity=".4" d="m25.469 1004.9c-0.21045 0-0.38745-0.001-0.53125 0.031h-7.6562c0.94324 1.2017 0.07731 3.2074 1.5 3.1875 0.69274 0.9292-1.3721 0.2839 0.125 1 0.86091 0.6432-0.90992 1.0165 0.15625 1.5938-1.2288 0.6015 0.18106 3.1443 1.0938 3.7812 1.5022 1.1997 0.6676-2.5242 2.3438-2.7187 0.91079-0.9865 2.5202-1.6327 3.6562-2.625-1.1103-0.086-1.7702-0.7502-0.71875-1.1563 1.9352 1.8813 0.47748-0.8736-0.59375-1.3125 1.0365-0.3128 2.0501-0.095 1.9062-0.9062 0.89001-0.6178-0.3693-0.8848-1.2812-0.875zm-17.531 0.9375c-0.80727 1.2009 0.1096 2.1522 0.78125 0.6875 0.47542-0.6117-0.34569-0.6651-0.78125-0.6875zm-1.1562 0.2812c-1.047 0.3311-1.0061 1.6686 0.28125 1.8125 0.44097-0.4768 0.19059-1.7222-0.28125-1.8125zm3.1875 0c-1.5598 0.6859-0.38236 2.2693-0.34375 2.625 1.6432 0.5393 2.5346-0.3368 3.1562 1.1875 1.4811 0.8098 0.1456 2.1847-0.5 2.6563 1.0798-0.6052 2.9535 2.3811 2.4375 0.7187-0.63552-0.4402 1.715 0.712 0.5-0.7187-1.1181-1.7091 0.0911-0.7739 0.5625-0.375 1.6033-1.364-1.8218-1.5339-0.96875-2.9375-0.74753-0.5744-1.7075-2.3089-3.0312-1.9688-0.88614 1.0872-0.13738-2.3545-1.4375-0.625-0.06739 0.9668-0.02737 2.1749-0.40625 0.5-0.25384-0.2932 0.45236-0.9563 0.03125-1.0625zm-5.4062 0.5c-0.31718 0.178 0.15254 1.9742-0.53125 0.2813-0.22721 0.4787-0.8368 0.2621-1.1562-0.062-0.31512 0.3183-0.60483 0.6415-0.875 1 0.08976 0.1452 0.20752 0.2698 0.3125 0.3437-1.6834 0.4 2.5542 0.5279 0.4375 0.7813-1.761 0.6672 1.7141 1.4473 2.2812 0.6562 2.1747 0.5046 0.065896-1.6438-0.125-2.8125-0.11523-0.1173-0.21558-0.1785-0.28125-0.1875-0.028731 0-0.041355-0.012-0.0625 0zm40.812 0.5c-0.36801 0.7283 0.78432 1.7994 1 1.2813-0.30176-0.464-0.6275-0.8752-1-1.2813zm-37.562 0.5938c-1.3113 1.1691 1.6372 2.129-0.40625 3-0.3064-1.0858-0.83093 0.5643-2-0.3125-1.8599 0.7346-3.9062-1-5.4062-1.5v4.4062 5.7188c0.99089 0.989 0.3866 0.429 0 0.1562 0.54388 1.7573-0.23756 4.3216 1.9062 5.3438 0.36444 0.6413 1.8982 3.3799 1.9688 2.5625-0.76666-0.7617-1.5473-3.0352-0.25-1 1.162 1.9346 2.7103 3.1646 5 3.625 1.2519 0.4039 2.2741 1.8055 3.375 1.5 0.62252 1.5568-1.8339 3.0479 0.09375 4.5 1.0063 1.47 2.696 2.4361 1.7812 4.5-0.63968 2.0156-0.353 4.2157-0.90625 6.0937-0.17171 1.1431 1.6604 4.0421 1.5 1.7188 0.5405-1.6146 0.53954-3.3879 1.8125-4.5313 1.7418 0.013 0.33357-1.7651 2.0625-1.5312 1.055-1.3119 1.3446-2.8854 3.125-3.4063 0.21267-1.5924 2.9635-4.0362 0.125-4.6562-0.77146-0.3608-2.7455-0.4783-2.5938-0.6563 0.30755-1.5801-2.5575-2.041-3.7812-2.6875-1.6067-1.0819-4.0277 1.7934-4.5938-0.6875-0.33776-0.7806-1.5676-0.7955-1-2-1.0228 0.9651-3.0238 0.6763-2.5-1.1875 0.79544-1.5697 3.8232-1.638 4.3438 0.25-0.72272-2.0823 1.417-3.7061 2.5938-5.1875 0.2396-0.7081 1.6462-1.3161 1.1562-0.375 0.83465-0.029 2.1077-1.472 0.625-0.8125-0.02098-1.3031-1.3043-0.935-1.7188-0.75 0.76812-1.1566 4.7144-0.5157 3.0625-2.4062-1.28-0.4921-1.174-3.3497-2.4688-1.75 0.10895-0.9856-2.6224-2.934-2.5625-1.2813 0.33496 1.4789 0.05659 3.1869-0.65625 4.1563-0.14876-2.1671-4.0321-1.6908-3.5312-4 0.72564-1.1006 1.5755-2.6057 1.6562-2.4688 1.3005-0.471 2.3197-1.8493 0.8125-2.75-0.08055 0.7851-1.117 2.3965-0.96875 0.4375-0.97506 1.0968-0.74307-1.7365-1.6562-2.0312zm31.219 0.7187c-0.04283 0-0.07673 0.01-0.09375 0.031-2.2841 0.53-3.2138 2.5982-4.3438 4.3125-1.6656 0.7124-1.5796 3.7896 0.28125 2.8125 0.49804 0.8252-0.35691 2.1102 1.0938 1.0312 1.1701-1.469 0.19628-3.8237 2.1875-4.75 0.14504 0.7203-1.8465 3.4108 0.46875 2.9688 2.093 0.075-1.518 0.2003-0.5 1.4687-1.0576-0.5953-0.49446 1.6107-1.875 1.0938-1.196 0.6171-1.9927-0.2913-1.7188-1.2813-0.94086 0.5207 0.28952 2.0055-1.3438 2.0938-0.36586 1.2325-3.3672 1.0262-1.6562 2.2812 0.75962 1.8677-2.8317 0.1337-1.8125 2.375 0.59778 1.5194 1.631 0.5928 2.4688-0.3125l1.0625 1.0625c-1.3158 0.1049-2.6745 0.3362-3.5 1.2813-1.1713 1.5245-2.8703 3.6471-1.5938 5.5937 1.2775 2.8847 4.4602 0.1401 6.2812 1.8438 0.54128 0.7103-0.46029 1.5743 0.75 2.3437 0.45542 1.639-0.52476 3.1832 0.59375 4.75 0.57838 1.4735 0.94105 3.6902 3.0938 2.3438 2.2783-1.3008 1.6513-3.7032 3.5312-5.0313-0.68833-1.2638-0.30466-2.1993 0.34375-3.0625l0.34375-0.4997c0.7141-0.8192 1.5964-1.5933 1.9688-2.5937-1.8029 0.2504-3.4082-1.4399-3.8438-3.1563-0.75736-0.8337-0.56475-2.0661 0.28125-0.5 1.1628 1.069 1.1927 4.2255 3.3438 2.5938 0.98338-0.3903 3.6711-1.8539 1.5312-2.5313-1.3793 0.9478-2.9005-2.8486-0.875-0.6562 1.4725 0.5926 2.5 0.9649 2.5-1v-9.125-2.3438-4.4687c-0.49755 0.2835-1.8596 0.9857-2.2188 0.6562-1.0234 0.1352-2.3841 2.0137-2.0625 0.1875-0.88957-0.056-0.15285 1.6402-1.375 1.6875-0.12306 0.8705-1.23 0.1733-0.8125 1-0.8578-0.5772-1.5964-2.4252 0.09375-1.2812 2.51-0.7144-1.6472-2.298-1.9688-2.6875 0.47288-0.1075-0.32519-0.5472-0.625-0.5313zm-20.812 0.5313c-0.83542 0.6603 1.5883 0.7847 0 0zm-11.156 0.3437c-0.9344 0.9273 1.4881 0.8524 0 0zm5.4062 0.9063c-0.70758 1.0996 1.0455 0.4059 0 0zm15.5 1.3125c-0.8284 0.9047-1.9197-0.2465-1.9375 0.5312 0.15014 0.235 0.74505 1.9252 2.0625 0.6875 0.70708-0.2828 0.433-1.0005-0.125-1.2187zm-17.656 0.5312c-1.5713 1.3018 2.6794 1.4287 0.34375 0.1563zm20.719 3.625c-1.0902 0.7051 0.56387 2.1811 0 2.875-0.70886 1.1717 2.6293-0.096 0.84375-1.0312-0.12238-0.7726-0.9764-1.699-0.84375-1.8438zm-0.75 1.4063c-1.5762 0.4227-0.37075 2.5869 0.1875 0.5312 0.03138-0.1192 0.08689-0.5352-0.1875-0.5312zm-12.625 1.5625c-1.4663 0.9485-0.23088 1.8955 0.84375 1.4687-0.22062-0.5723-0.83381-0.9331-0.84375-1.4687zm27.719 1.5937c0.73164 0.3503-1.3435 0.9772-0.03125 1.5938 0.76367 0.8519 0.46002 2.6694-0.78125 1.375 0.23061-1.4452-1.6641-2.5416 0.8125-2.9688zm-3.7812 0.031c-0.09927 0.9284 2.1018 2.3772-0.28125 1.9062-1.2603 0.1403-3.1189-0.041-1.5312-1.5312 0.50168-0.2858 1.8104 0.9697 1.125-0.2188 0.24301-0.015 0.45858-0.086 0.6875-0.1562zm-6.2188 0.6875c0.3053-0.2349 1.9922 1.4052 1.875 2.0312 0.91799 1.6308 0.53459-1.68 1.4688-0.2187-0.10907 1.5413 3.7525 0.3793 1.9062 2.3437-1.5873 0.3033-3.1334-0.3804-4.5 0.062-1.2719-0.011-1.1932-1.3021-1.6562-1.625-0.29624 0.023-0.61978 0.042-0.9375 0.062l-1.2188-1.2187c0.32843-0.361 0.63889-0.6863 0.84375-0.8438 1.2992-0.956 3.1635 1.3102 2.5312 1.8125 1.1136-0.31 0.79257-1.4381-0.28125-1.9062-0.11711-0.2882-0.1017-0.4459-0.03125-0.5zm-1.0625 1.3125c-0.91922 0.5618 0.63563 0.9926 0 0zm-23.062 5.25c-0.15497 0.4904 2.8943 0.9733 0.78125 0.1875l-0.3125-0.094-0.46875-0.094zm2.375 0.6875c-0.92883 0.8945 1.9137 0.2672 0 0zm31.062 8.2187c-2.0182 0.049-1.7506 4.9848-0.34375 2.0625 0.13342-0.6341 0.66887-1.4678 0.34375-2.0625z" fill="#fff"/>
 </g>
 <g>
  <path opacity=".53937" d="m13.406 8.5c-2.306 1.813-4.0055 5.639-4.3122 6.938-0.369 1.561-1.0722 5.019-1.0938 6.312-0.0499 2.986 0.0717 6.858 1.8438 10.156 0.1549 0.289 0.3222 0.571 0.5002 0.844 0.11 0.169 0.225 0.337 0.344 0.5 0.221 0.305 0.471 0.591 0.718 0.875 0.093 0.107 0.185 0.209 0.282 0.313 0.107 0.115 0.2 0.231 0.312 0.343 0.132 0.132 0.269 0.249 0.406 0.375l0.406 0.406 12.438 12.438h20.75c1.108 0 2-0.892 2-2v-20.688l-12.062-12.062-0.282-0.281c-0.123-0.133-0.245-0.276-0.375-0.407-0.177-0.177-0.372-0.358-0.562-0.531-0.108-0.098-0.232-0.185-0.344-0.281-0.233-0.2-0.467-0.403-0.719-0.594-0.079-0.06-0.169-0.128-0.25-0.187-0.307-0.223-0.633-0.45-0.968-0.657-0.04-0.024-0.086-0.038-0.126-0.062-0.378-0.229-0.772-0.4527-1.187-0.6562-0.021-0.0102-0.042-0.0212-0.063-0.0313-0.322-0.1675-0.603-0.2865-0.812-0.375 0.057 0.0565 0.103 0.1308 0.156 0.1875 2.162 2.718 4.16 5.387 4.282 10.969l-1.719-1.719c-0.063-0.072-0.122-0.15-0.188-0.219-0.163-0.171-0.33-0.33-0.5-0.468-0.007-0.006-0.024 0.005-0.031 0-0.115-0.093-0.227-0.175-0.344-0.25-0.062-0.039-0.123-0.092-0.187-0.126-0.075-0.041-0.144-0.06-0.219-0.093h-0.031c-0.127-0.055-0.247-0.095-0.375-0.125-0.145-0.035-0.292-0.089-0.438-0.094h-0.031l-7.781-7.7812c-0.364 0.0506-0.714 0.1146-1.063 0.1874-0.348 0.0729-0.699 0.1522-1.031 0.25-1.433 0.4218-2.708 1.1078-3.812 2.1248l-3.532-3.531z" fill="#364e59"/>
  <g transform="matrix(1.1 0 0 .44444 241.16 29.369)"></g>
  <g transform="translate(-459.44 -580.99)"></g>
 </g>
 <g>
  <g transform="matrix(.10667 0 0 .10667 -3.0012 -3.0019)">
   <path d="m403.02 233.2c-0.59919-12.71-17.53-88.371-91.711-119.09 22.041 27.744 43.539 53.566 42.458 113.97-0.64057 1.9293-16.247-37.905-38.236-37.713 30.665 44.096 28.89 70.211 1.3764 102.3-23.272 27.142-66.466 36.093-106.98 8.4026 15.571-2.0072 33.201-1.2225 43.969-8.5814 10.867-7.4276 22.624-20.851 28.397-19.567 5.7702 1.2888 11.307-12.011 6.8252-17.148-4.4865-5.1474-17.991-7.3065-32.542-2.7942-13.889 4.3111-24.486 21.733-44.147 10.087-16.775-9.9372-16.715-20.149-15.812-25.211 2.1757-9.9684 14.992 1.5177 24.698 7.5772 1.4594-9.052 0.38697-21.154-0.54428-30.016 10.629-6.5652 38.011-16.341 38.286-32.736-0.25119-3.6363-4.3172-9.2353-26.071-7.1535-44.941 6.7351-0.66081-49.509 9.4101-58.499-27.283 3.7954-50.243 13.898-67.02 36.648-7.9964-0.73672-11.497-0.88722-19.06 0.43436-4.5119-4.6746-3.4704-30.807-2.6016-46.409-21.62 17.002-37.373 53.096-40.248 65.269-3.459 14.643-10.037 46.937-10.24 59.055-0.46737 27.99 0.45874 64.214 17.072 95.133 31.84 59.257 115.83 83.653 173.9 65.589 105.54-32.837 109.94-135.98 108.83-159.55z" fill="url(#radialGradient3719-7)"/>
   <path d="m254.23 194.74c-0.79054 0.32029-0.22877-5.748-1.1617-5.3565-17.679 18.442-19.706 7.5064-29.355 10.092-8.7951 2.4072-10.77 5.7092-11.141 5.9659 3.3867 3.1348 6.0486 7.0418 8.1139 11.229 10.867-7.4106 26.764-13.176 33.544-21.93z" fill="url(#linearGradient3721-0)"/>
   <path d="m254.52 194c-0.21353-0.0381-0.48106-0.98627-0.57512-0.85917-1.4076 0.71428-3.8663 3.7849-8.7697 7.7783-9.1078 7.4098-14.932 4.104-21.716 5.6215-3.0884 0.68886-6.0244 2.7631-8.002 4.4255 1.056 2.8917 3.9804 5.6638 5.3686 6.4235 1.9535-3.6362 17.694-10.156 19.38-11.419 1.1947-0.89731 13.105-7.8425 14.315-11.971z" fill="url(#linearGradient3723-1)"/>
   <path d="m222.73 247.25c0.2542-6.5836 1.3088-32.838-5.5366-39.778-5.2288-5.2999-9.379-3.2923-6.5854-24.84-12.868 26.452-28.112 29.856-40.086 48.75 24.114-9.7178 41.966 12.195 52.208 15.868z" fill="url(#linearGradient3725-8)"/>
   <path d="m288.63 265.17c2.8864-5.0699 0.47407-10.08-12.675-12.15-12.539-1.9787-29.286 7.1619-34.812 9.3378 0 0 19.825-4.4293 27.735-3.1126 10.722 1.7844 16.216 12.14 19.752 5.9253z" fill="url(#linearGradient3727-7)"/>
   <path d="m259.14 181.66c-0.41451-3.8521-2.6657-7.0402-21.274-6.4871 2.1227 0.96163 6.4292 3.0059 10.457 6.3118 5.3222 4.3606 4.9147 8.7963 5.4642 13.831 2.2881-2.6427 6.1631-6.11 5.3521-13.655z" fill="url(#linearGradient3729-1)"/>
   <path d="m311.26 114.05c11.942 11.962 23.462 29.848 33.617 48.92 31.175 58.546 39.012 7.7411 16.809-13.615-23.616-22.715-42.383-31.941-50.426-35.305z" fill="url(#linearGradient3731-0)"/>
   <path d="m315.18 189.96c6.7213 10.151 27.402 36.54 22.375 64.288l26.166 19.199c6.0473-14.855-20.728-83.834-48.541-83.487z" fill="url(#linearGradient3821)"/>
  </g>
 </g>
 <g>
  <path opacity=".4" style="color:#000000" d="m2 0c-1.108 0-2 0.892-2 2v44c0 1.108 0.892 2 2 2h44c1.108 0 2-0.892 2-2v-44c0-1.108-0.892-2-2-2h-44zm0 0.5h44c0.83101 0 1.5 0.66899 1.5 1.5v44c0 0.83101-0.66899 1.5-1.5 1.5h-44c-0.831 0-1.5-0.669-1.5-1.5v-44c0-0.831 0.669-1.5 1.5-1.5z" fill="url(#linearGradient12443)"/>
 </g>
</svg>
