<svg xmlns:rdf="http://www.w3.org/1999/02/22-rdf-syntax-ns#" xmlns="http://www.w3.org/2000/svg" height="48" width="48" version="1.1" xmlns:cc="http://creativecommons.org/ns#" xmlns:xlink="http://www.w3.org/1999/xlink" xmlns:dc="http://purl.org/dc/elements/1.1/">
 <g transform="translate(0 -1004.4)">
  <rect style="color:#000000" ry="0" height="32" width="25" y="1012.4" x="10" fill="#bb8f4d"/>
  <path style="color:#000000" d="m29.5 1017.4c-5.799 0-10.5 4.701-10.5 10.5s4.701 10.5 10.5 10.5 10.5-4.701 10.5-10.5-4.701-10.5-10.5-10.5zm0 8c1.3807 0 2.5 1.1193 2.5 2.5s-1.1193 2.5-2.5 2.5-2.5-1.1193-2.5-2.5 1.1193-2.5 2.5-2.5z" stroke="#9eabb0" stroke-width=".5" fill="#bdcdd4"/>
  <path style="color:#000000" d="m29.5 1023.4c-2.4853 0-4.5 2.0147-4.5 4.5s2.0147 4.5 4.5 4.5 4.5-2.0147 4.5-4.5-2.0147-4.5-4.5-4.5zm0 2c1.3807 0 2.5 1.1193 2.5 2.5s-1.1193 2.5-2.5 2.5-2.5-1.1193-2.5-2.5 1.1193-2.5 2.5-2.5z" fill="#9eabb0"/>
  <path opacity=".2" style="color:#000000" d="m12 12v24l4 4h19v-6.906l-23-21.094z" transform="translate(0 1004.4)"/>
 </g>
 <g>
  <flowRoot style="word-spacing:0px;letter-spacing:0px" line-height="125%" xml:space="preserve" font-size="40px" transform="translate(-18.262 -1007.9)" font-family="sans-serif" fill="#000000"><flowRegion><rect y="6.6343" width="57.629" x="-53.033" height="49.321"/></flowRegion><flowPara/></flowRoot>
 </g>
 <g>
  <path d="m10 8v32l13.333 8v-48z" fill="#bb8f4d"/>
  <path fill="#364e59" d="m16.047 15.929c-0.99077 0.67429-1.7576 2.0146-1.7576 2.0146s0.02257 0.02681 0.02257 0.02681l1.517 6.9319c-1.1062-0.76106-2.5077-0.57453-3.5344 0.4504-1.1779 1.1761-1.5538 3.1956-0.9192 4.731 0.6835 1.6539 2.3947 2.4491 3.9732 1.551 1.4301-0.81349 2.3111-2.6823 1.9854-4.458-0.0099-0.05473-0.02437-0.10652-0.03665-0.16028 0 0-1.6521-7.5229-1.6521-7.5229 0.03578-0.0726 0.49509-0.43501 2.1226-0.95198 1.9999-0.63346 3.5527-4.8351 3.5527-4.8351s-2.4872 1.8908-4.1518 1.837c-0.38234-0.01231-0.7718 0.14368-1.1224 0.38357l0.000621 0.002"/>
 </g>
</svg>
