<svg xmlns:rdf="http://www.w3.org/1999/02/22-rdf-syntax-ns#" xmlns="http://www.w3.org/2000/svg" height="48" width="48" version="1.1" xmlns:cc="http://creativecommons.org/ns#" xmlns:xlink="http://www.w3.org/1999/xlink" xmlns:dc="http://purl.org/dc/elements/1.1/">
 <g transform="translate(0 -1004.4)">
  <rect style="color:#000000" ry="0" height="32" width="25" y="1012.4" x="10" fill="#bb8f4d"/>
  <path fill="#dcdcdc" d="m28.07 1014.4c-0.52336-0.3022-1.303-0.093-1.6052 0.4301l-3.2315 5.5971-9.1069 15.774c-0.28537 0.4943-0.06418 1.3198 0.43011 1.6052l10.685 6.1692 0.58754-1.0177-2.0353-1.1751 1.1751-2.0353 2.0353 1.1751 1.1751-2.0353-2.0353-1.1751 1.1751-2.0353 2.0353 1.1751 1.1751-2.0353-2.0353-1.1751 1.1751-2.0353 2.0353 1.1751 1.1751-2.0353-2.0353-1.1751 1.1751-2.0353 2.0353 1.1751 1.1751-2.0354-2.0353-1.175 1.1751-2.0354 2.0353 1.1751 1.1751-2.0353-2.0353-1.1751 1.1751-2.0353-3.053-1.7626zm9.5103 8.2045 2.0353 1.1751 1.1751-2.0353-2.0353-1.1751zm2.0353 1.1751-1.1751 2.0353 2.0353 1.1751 1.1751-2.0353zm-1.1751 2.0353-2.0353-1.1751-1.1751 2.0353 2.0353 1.1751zm-4.3855 2.8956-1.1751 2.0353 2.0353 1.1751 1.1751-2.0354zm0.86022 3.2104-1.1751 2.0353 2.0353 1.175 1.1751-2.0353zm-1.1751 2.0353-2.0353-1.1751-1.1751 2.0353 2.0353 1.1751zm-4.3855 2.8955-1.1751 2.0353 2.0353 1.1751 1.1751-2.0353zm0.86022 3.2104-1.1751 2.0353 2.0353 1.1751 1.1751-2.0353zm-1.1751 2.0353-2.0353-1.1751-1.1751 2.0353 2.0353 1.1751zm10.261-13.072-1.1751 2.0353 2.0353 1.1751 1.1751-2.0353zm-4.7003 8.1413-1.1751 2.0353 2.0353 1.1751 1.1751-2.0354z"/>
  <path fill="#888" d="m26.716 1023.8-0.29377 0.5088 5.5971 3.2315 2.0353 1.1751 0.29377-0.5089-7.6324-4.4065z"/>
  <path fill="#888" d="m25.541 1025.9-0.29377 0.5088 5.5971 3.2315 0.29377-0.5089-5.5971-3.2314z"/>
  <path fill="#888" d="m33.174 1030.3-0.29377 0.5089 2.0353 1.1751 0.29377-0.5089-2.0353-1.1751z"/>
  <path fill="#888" d="m24.366 1027.9-0.29377 0.5088 5.5971 3.2315 2.0353 1.1751 0.29377-0.5089-7.6324-4.4065z"/>
  <path fill="#888" d="m34.034 1033.5-0.29377 0.5089 0.50883 0.2937 0.29377-0.5088-0.50883-0.2938z"/>
  <path fill="#888" d="m23.191 1029.9-0.29377 0.5088 5.5971 3.2315 0.29377-0.5088-5.5971-3.2315z"/>
  <path fill="#888" d="m30.824 1034.3-0.29377 0.5088 2.0353 1.1751 0.29377-0.5089-2.0353-1.175z"/>
  <path fill="#888" d="m22.016 1032-0.29377 0.5088 5.5971 3.2315 2.0353 1.1751 0.29377-0.5088-7.6324-4.4066z"/>
 </g>
 <g>
  <flowRoot style="word-spacing:0px;letter-spacing:0px" xml:space="preserve" transform="translate(-18.262 -1007.9)" line-height="125%" font-size="40px" font-family="sans-serif" fill="#000000"><flowRegion><rect y="6.6343" x="-53.033" width="57.629" height="49.321"/></flowRegion><flowPara/></flowRoot>
  <path opacity=".2" d="m10 8v32h25v-4.219l0.469 0.281 0.937-1.656-1.25-1.25-0.156-0.094v-0.062l-25-25z"/>
 </g>
 <g>
  <path d="m10 8v32l13.333 8v-48z" fill="#bb8f4d"/>
 </g>
</svg>
