<svg xmlns:rdf="http://www.w3.org/1999/02/22-rdf-syntax-ns#" xmlns="http://www.w3.org/2000/svg" height="48" width="48" version="1.1" xmlns:cc="http://creativecommons.org/ns#" xmlns:xlink="http://www.w3.org/1999/xlink" xmlns:dc="http://purl.org/dc/elements/1.1/">
 <defs>
  <linearGradient id="linearGradient4032" y2="1052.4" gradientUnits="userSpaceOnUse" y1="1027.4" x2="20" x1="20">
   <stop stop-color="#19aeff" offset="0"/>
   <stop stop-color="#19aeff" stop-opacity=".34756" offset="1"/>
  </linearGradient>
 </defs>
 <g transform="translate(0 -1004.4)">
  <rect ry="2" style="color:#000000" transform="translate(0 1004.4)" height="48" width="48" y="0" x="0" fill="#0084c8"/>
  <g transform="translate(-40.191 1005.5)">
   <flowRoot style="word-spacing:0px;letter-spacing:0px" line-height="125%" xml:space="preserve" font-size="40px" transform="translate(-18.262 -1007.9)" font-family="sans-serif" fill="#000000"><flowRegion><rect y="6.6343" width="57.629" x="-53.033" height="49.321"/></flowRegion><flowPara/></flowRoot>
  </g>
  <path style="color:#000000" d="m2 1010.4h17c3 0 1 5 4 5h23c1.0177 0.043 2 1 2 2v33c0 1.108-0.892 2-2 2h-44c-1.108 0-2-0.892-2-2v-38c0-1.108 0.892-2 2-2z" fill="url(#linearGradient4032)"/>
  <path opacity=".2" style="color:#000000" d="m2 6c-1.108 0-2 0.892-2 2v1c0-1.108 0.892-2 2-2h16c3 0 1 5 4 5h24c1.018 0.043 2 1 2 2v-1c0-1-0.982-1.957-2-2h-23c-3 0-1-5-4-5h-17z" transform="translate(0 1004.4)" fill="#fff"/>
  <path opacity=".2" style="color:#000000" d="m2 0c-1.108 0-2 0.892-2 2v1c0-1.108 0.892-2 2-2h44c1.108 0 2 0.892 2 2v-1c0-1.108-0.892-2-2-2h-44z" transform="translate(0 1004.4)" fill="#fff"/>
 </g>
 <g>
  <flowRoot style="word-spacing:0px;letter-spacing:0px" xml:space="preserve" transform="translate(-18.262 -1007.9)" line-height="125%" font-size="40px" font-family="sans-serif" fill="#000000"><flowRegion><rect y="6.6343" x="-53.033" width="57.629" height="49.321"/></flowRegion><flowPara/></flowRoot>
  <path opacity=".25" style="color:#000000" d="m21.719 18.594c-0.949 0-1.719 0.77-1.719 1.718v12.407h-4.562-0.063c-0.309 0.048-0.469 0.495-0.25 0.719l8.563 9.406c0.12 0.136 0.307 0.162 0.468 0.094-0.155 0.059-0.351 0.054-0.468-0.063l5.124 5.125h17.188c1.108 0 2-0.892 2-2v-6.375l-20.281-20.281c-0.062-0.091-0.142-0.173-0.219-0.25-0.309-0.31-0.745-0.5-1.219-0.5h-4.562z"/>
 </g>
 <g>
  <path style="color:#000000" d="m21.713 18.595c-0.94839 0-1.7119 0.7635-1.7119 1.7119v12.411h-4.5571-0.08024c-0.30902 0.048-0.45932 0.4986-0.24074 0.7222l8.5595 9.4153c0.16006 0.1814 0.4819 0.1814 0.64196 0l8.5595-9.4153c0.23083-0.2437 0.01461-0.7302-0.32098-0.7222h-4.5618v-12.411c0-0.9484-0.7635-1.7119-1.7119-1.7119z" fill="#fff"/>
 </g>
</svg>
