<svg xmlns:rdf="http://www.w3.org/1999/02/22-rdf-syntax-ns#" xmlns="http://www.w3.org/2000/svg" height="48" width="48" version="1.1" xmlns:cc="http://creativecommons.org/ns#" xmlns:xlink="http://www.w3.org/1999/xlink" xmlns:dc="http://purl.org/dc/elements/1.1/">
 <defs>
  <linearGradient id="linearGradient4032" y2="1052.4" gradientUnits="userSpaceOnUse" x2="20" y1="1027.4" x1="20">
   <stop stop-color="#19aeff" offset="0"/>
   <stop stop-color="#19aeff" stop-opacity=".34756" offset="1"/>
  </linearGradient>
 </defs>
 <g transform="translate(0 -1004.4)">
  <rect style="color:#000000" transform="translate(0 1004.4)" ry="2" height="48" width="48" y="0" x="0" fill="#0084c8"/>
  <g transform="translate(-40.191 1005.5)">
   <flowRoot style="word-spacing:0px;letter-spacing:0px" xml:space="preserve" transform="translate(-18.262 -1007.9)" line-height="125%" font-size="40px" font-family="sans-serif" fill="#000000"><flowRegion><rect y="6.6343" x="-53.033" width="57.629" height="49.321"/></flowRegion><flowPara/></flowRoot>
  </g>
  <path style="color:#000000" d="m2 1010.4h17c3 0 1 5 4 5h23c1.0177 0.043 2 1 2 2v33c0 1.108-0.892 2-2 2h-44c-1.108 0-2-0.892-2-2v-38c0-1.108 0.892-2 2-2z" fill="url(#linearGradient4032)"/>
  <path opacity=".2" style="color:#000000" d="m2 6c-1.108 0-2 0.892-2 2v1c0-1.108 0.892-2 2-2h16c3 0 1 5 4 5h24c1.0177 0.043 2 1 2 2v-1c0-1-0.98226-1.957-2-2h-23c-3 0-1-5-4-5h-17z" transform="translate(0 1004.4)" fill="#fff"/>
  <path opacity=".2" style="color:#000000" d="m2 0c-1.108 0-2 0.892-2 2v1c0-1.108 0.892-2 2-2h44c1.108 0 2 0.892 2 2v-1c0-1.108-0.892-2-2-2h-44z" transform="translate(0 1004.4)" fill="#fff"/>
 </g>
 <g>
  <flowRoot style="word-spacing:0px;letter-spacing:0px" line-height="125%" xml:space="preserve" font-size="40px" transform="translate(-18.262 -1007.9)" font-family="sans-serif" fill="#000000"><flowRegion><rect y="6.6343" width="57.629" x="-53.033" height="49.321"/></flowRegion><flowPara/></flowRoot>
  <flowRoot style="word-spacing:0px;letter-spacing:0px" xml:space="preserve" transform="translate(-81.665 -1005.8)" line-height="125%" font-size="40px" font-family="sans-serif" fill="#000000"><flowRegion><rect y="6.6343" x="-53.033" width="57.629" height="49.321"/></flowRegion><flowPara/></flowRoot>
  <path opacity=".25" style="color:#000000" d="m9 19v20l9 9h28c1.108 0 2-0.892 2-2v-18l-9-9h-30z" stroke-width="0"/>
  <rect style="color:#000000" height="20" width="30" y="19" x="9" fill="url(#linearGradient4032)"/>
 </g>
 <g>
  <flowRoot style="word-spacing:0px;letter-spacing:0px" xml:space="preserve" transform="translate(-77.791 -1001)" line-height="125%" font-size="40px" font-family="sans-serif" fill="#000000"><flowRegion><rect y="6.6343" x="-53.033" width="57.629" height="49.321"/></flowRegion><flowPara/></flowRoot>
  <g transform="translate(-.19611 .078852)" fill="#fff">
   <path style="color:#000000" d="m9.1961 18.921v20h30v-20zm1.6667 1.6667h3.3333v1.6667h-3.3333zm23.333 0h3.3333v1.6667h-3.3333zm-18.333-0.03134h16.667l0.137 16.443h-16.667zm-5 5.0313h3.3333v1.6667h-3.3333zm23.333 0h3.3333v1.6667h-3.3333zm-23.333 5h3.3333v1.6667h-3.3333zm23.333 0h3.3333v1.6667h-3.3333zm-23.333 5h3.3333v1.6667h-3.3333zm23.333 0h3.3333v1.6667h-3.3333z"/>
   <path style="block-progression:tb;text-indent:0;color:#000000;text-transform:none" d="m24.014 20.588v5.2839c0.12631 0.000001 0.23425 0.0236 0.35226 0.03202v-5.3159h-0.35226zm-8.166 8.166v0.32023h6.853v-0.32023h-6.853zm10.151 0c0.04545 0.04425 0.12012 0.04633 0.16012 0.09607 0.05424 0.06591 0.08521 0.15082 0.12809 0.22416h6.2446v-0.32023h-6.5328zm-1.9854 1.0247v0.25619c0.10838-0.01191 0.19296-0.0116 0.22416-0.03202v-0.03202c0.0558-0.03606 0.03202 0.0093 0.03202-0.06405 0-0.0807 0.02279-0.03012-0.03202-0.06405-0.02829-0.01807-0.11749-0.0433-0.22416-0.06405zm0.35226 2.1456c-0.11562 0.0096-0.23047 0.02924-0.35226 0.03202v5.2839h0.35226v-5.3159z"/>
   <path style="block-progression:tb;text-indent:0;color:#000000;text-transform:none" d="m24.206 21.837c-3.9071 0-7.1092 3.1701-7.1092 7.0772s3.2021 7.0772 7.1092 7.0772 7.0772-3.1701 7.0772-7.0772-3.1701-7.0772-7.0772-7.0772zm0 1.5691c3.05 0 5.508 2.458 5.508 5.508s-2.458 5.508-5.508 5.508-5.54-2.458-5.54-5.508 2.49-5.508 5.54-5.508zm4.8035 1.5371c0.25456 0.30857 0.48026 0.63847 0.67249 0.99272 0.19223 0.35426 0.35878 0.72919 0.48035 1.1208-0.12189-0.39122-0.28774-0.76661-0.48035-1.1208-0.19261-0.35421-0.41758-0.68395-0.67249-0.99272zm1.1528 5.8283c-0.12158 0.39163-0.28812 0.76656-0.48035 1.1208-0.19223 0.35426-0.41794 0.68416-0.67249 0.99272 0.25491-0.30877 0.47988-0.63852 0.67249-0.99272 0.19261-0.35421 0.35846-0.7296 0.48035-1.1208z"/>
   <g transform="matrix(1.0247 0 0 1.0247 -.22759 -.96325)">
    <path fill="#fff" d="m24.642 28.974c0.31977 0.08259 0.56225 0.2266 0.72744 0.43202 0.1673 0.2033 0.25095 0.46272 0.25095 0.77826-0.000004 0.47014-0.18001 0.82803-0.54002 1.0737-0.36002 0.24354-0.88521 0.36531-1.5756 0.36531-0.24354 0-0.48814-0.02012-0.73379-0.06036-0.24354-0.03812-0.48496-0.09636-0.72426-0.17471v-0.94345c0.22871 0.11436 0.45531 0.20118 0.67979 0.26048 0.2266 0.05718 0.44896 0.08577 0.66708 0.08577 0.32401 0 0.57178-0.05612 0.74332-0.16836 0.17365-0.11224 0.26048-0.27319 0.26048-0.48284-0.000002-0.21601-0.08895-0.37907-0.26683-0.4892-0.176-0.113-0.436-0.169-0.782-0.169h-0.4892v-0.7878h0.51461c0.30707 0.000003 0.53578-0.04765 0.68614-0.14295 0.15036-0.09741 0.22554-0.24459 0.22554-0.44155-0.000003-0.18212-0.07306-0.32295-0.21918-0.42249-0.14613-0.09953-0.3526-0.1493-0.61944-0.1493-0.19695 0.000004-0.39602 0.02224-0.5972 0.06671-0.20118 0.04448-0.40131 0.11013-0.60038 0.19695v-0.8958c0.24142-0.06776 0.48072-0.11859 0.71791-0.15248 0.23718-0.03388 0.47013-0.05082 0.69885-0.05083 0.61626 0.000005 1.0769 0.10166 1.3818 0.30495 0.30707 0.20119 0.4606 0.50508 0.46061 0.91168-0.000004 0.27742-0.07307 0.50508-0.21918 0.68297-0.14613 0.17577-0.36214 0.29966-0.64802 0.37166"/>
   </g>
  </g>
 </g>
</svg>
