<svg xmlns:rdf="http://www.w3.org/1999/02/22-rdf-syntax-ns#" xmlns="http://www.w3.org/2000/svg" height="48" width="48" version="1.1" xmlns:cc="http://creativecommons.org/ns#" xmlns:xlink="http://www.w3.org/1999/xlink" xmlns:dc="http://purl.org/dc/elements/1.1/">
 <g transform="translate(0 -1004.4)">
  <rect style="color:#000000" ry="0" height="32" width="25" y="1012.4" x="10" fill="#bb8f4d"/>
  <path style="color:#000000" d="m31.908 1015.7-14.188 24.574 10.531 6.0803 14.188-24.574-10.531-6.0803zm0.24728 0.9229 1.1702 0.6756-0.3378 0.585-1.1702-0.6756 0.3378-0.585zm8.1912 4.7291 1.1702 0.6756-0.3378 0.5851-1.1702-0.6756 0.3378-0.5851zm-6.7737-3.1307 5.8508 3.378-2.7024 4.6807-5.8508-3.378 2.7024-4.6807zm-2.4308 0.1568 1.1702 0.6756-0.3378 0.5851-1.1702-0.6756 0.3378-0.5851zm8.1912 4.7292 1.1702 0.6756-0.3378 0.5851-1.1702-0.6756 0.3378-0.5851zm-9.2046-2.9739 1.1702 0.6756-0.3378 0.585-1.1702-0.6756 0.3378-0.585zm8.1912 4.7291 1.1702 0.6756-0.3378 0.5851-1.1702-0.6756 0.3378-0.5851zm-9.2046-2.9739 1.1702 0.6756-0.3378 0.5851-1.1702-0.6756 0.3378-0.5851zm8.1912 4.7292 1.1702 0.6756-0.3378 0.585-1.1702-0.6755 0.3378-0.5851zm-7.1115-2.5456 5.8508 3.3779-2.7024 4.6807-5.8508-3.378 2.7024-4.6806zm-2.093-0.4283 1.1702 0.6755-0.3378 0.5851-1.1702-0.6756 0.3378-0.585zm8.1912 4.7291 1.1702 0.6756-0.3378 0.5851-1.1702-0.6756 0.3378-0.5851zm-9.2046-2.9739 1.1702 0.6756-0.3378 0.5851-1.1702-0.6756 0.3378-0.5851zm8.1912 4.7292 1.1702 0.6756-0.3378 0.585-1.1702-0.6756 0.3378-0.585zm-9.2046-2.974 1.1702 0.6756-0.3378 0.5851-1.1702-0.6756 0.3378-0.5851zm8.1912 4.7292 1.1702 0.6756-0.3378 0.5851-1.1702-0.6756 0.3378-0.5851zm-9.2046-2.9739 1.1702 0.6756-0.3378 0.5851-1.1702-0.6756 0.3378-0.5851zm1.7552 1.0134 5.8508 3.378-2.7024 4.6806-5.8508-3.378 2.7024-4.6806zm6.4359 3.7158 1.1702 0.6756-0.3378 0.585-1.1702-0.6756 0.3378-0.585zm-9.2045-2.974 1.1702 0.6756-0.3378 0.5851-1.1702-0.6756 0.3378-0.5851zm8.1912 4.7292 1.1702 0.6756-0.3378 0.5851-1.1702-0.6756 0.3378-0.5851zm-9.2046-2.9739 1.1702 0.6756-0.3378 0.5851-1.1702-0.6756 0.3378-0.5851zm8.1912 4.7292 1.1702 0.6756-0.3378 0.585-1.1702-0.6756 0.3378-0.585zm-9.2046-2.974 1.1702 0.6756-0.3378 0.5851-1.1702-0.6756 0.3378-0.5851zm8.1912 4.7292 1.1702 0.6756-0.3378 0.5851-1.1702-0.6756 0.3378-0.5851zm-6.7737-3.1307 5.8508 3.378-2.7024 4.6807-5.8508-3.378 2.7024-4.6807zm-2.4308 0.1568 1.1702 0.6756-0.3378 0.5851-1.1702-0.6756 0.3378-0.5851zm8.1912 4.7292 1.1702 0.6755-0.3378 0.5851-1.1702-0.6756 0.3378-0.585zm-9.2046-2.974 1.1702 0.6756-0.3378 0.5851-1.1702-0.6756 0.3378-0.5851zm8.1912 4.7292 1.1702 0.6756-0.3378 0.5851-1.1702-0.6756 0.3378-0.5851zm-9.2046-2.9739 1.1702 0.6756-0.3378 0.5851-1.1702-0.6756 0.3378-0.5851zm8.1912 4.7291 1.1702 0.6756-0.3378 0.5851-1.1702-0.6756 0.3378-0.5851z"/>
  <rect style="color:#000000" transform="rotate(30)" height="5.4048" width="6.756" y="865.04" x="538.2" fill="#bdcdd4"/>
  <rect style="color:#000000" transform="rotate(30)" height="5.4048" width="6.756" y="871.79" x="538.2" fill="#bdcdd4"/>
  <rect style="color:#000000" transform="rotate(30)" height="5.4048" width="6.756" y="878.55" x="538.2" fill="#bdcdd4"/>
  <rect style="color:#000000" transform="rotate(30)" height="5.4048" width="6.756" y="885.31" x="538.2" fill="#bdcdd4"/>
  <path opacity=".25" style="color:#000000" d="m12 12v24l4 4h19v-6.906l-23-21.094z" transform="translate(0 1004.4)"/>
 </g>
 <g>
  <flowRoot style="word-spacing:0px;letter-spacing:0px" xml:space="preserve" transform="translate(-18.262 -1007.9)" line-height="125%" font-size="40px" font-family="sans-serif" fill="#000000"><flowRegion><rect y="6.6343" x="-53.033" width="57.629" height="49.321"/></flowRegion><flowPara/></flowRoot>
 </g>
 <g>
  <path d="m10 8v32l13.333 8v-48z" fill="#bb8f4d"/>
 </g>
</svg>
