<svg xmlns:rdf="http://www.w3.org/1999/02/22-rdf-syntax-ns#" xmlns="http://www.w3.org/2000/svg" height="48" width="48" version="1.1" xmlns:cc="http://creativecommons.org/ns#" xmlns:xlink="http://www.w3.org/1999/xlink" xmlns:dc="http://purl.org/dc/elements/1.1/">
 <g transform="translate(0 -1004.4)">
  <rect style="color:#000000" ry="0" height="32" width="25" y="1012.4" x="10" fill="#bb8f4d"/>
  <g transform="matrix(1.571 .42095 -.42095 1.571 485.17 -563.54)">
   <path style="color:#000000" d="m-26 8v12h18v-12h-18zm1 1h2v1h-2v-1zm14 0h2v1h-2v-1zm-11 1h10v8h-10v-8zm-3 2h2v1h-2v-1zm14 0h2v1h-2v-1zm-14 3h2v1h-2v-1zm14 0h2v1h-2v-1zm-14 3h2v1h-2v-1zm14 0h2v1h-2v-1z" transform="translate(0 1004.4)"/>
   <rect style="color:#000000" height="10" width="10" y="1013.4" x="-22" fill="#ccc"/>
   <path d="m-22 14h10" transform="translate(0 1004.4)" stroke="#9eabb0" stroke-width=".2" fill="#bdcdd4"/>
   <path d="m-17 9v10" transform="translate(0 1004.4)" stroke="#9eabb0" stroke-width=".2" fill="#bdcdd4"/>
   <path style="color:#000000" d="m-13 14a4 4 0 1 1 -8 0 4 4 0 1 1 8 0z" transform="translate(0 1004.4)" stroke="#364e59" stroke-width=".5" fill="none"/>
   <path style="color:#000000" d="m-13 14a4 4 0 1 1 -8 0 4 4 0 1 1 8 0z" transform="matrix(.88235 0 0 .88235 -2 1006)" stroke="#9eabb0" stroke-width=".5" fill="none"/>
   <path style="color:#000000" d="m-13 14a4 4 0 1 1 -8 0 4 4 0 1 1 8 0z" transform="matrix(.60294 0 0 .60294 -6.75 1009.9)" stroke="#9eabb0" stroke-width=".5" fill="none"/>
   <text style="word-spacing:0px;letter-spacing:0px" line-height="125%" font-weight="bold" font-size="13px" y="1019.8184" x="-18.366211" font-family="TheMixPlain" xml:space="preserve" fill="#000000"><tspan font-size="4px" y="1019.8184" x="-18.366211">3</tspan></text>
  </g>
  <path opacity=".25" style="color:#000000" d="m12 12v24l4 4h19v-6.906l-23-21.094z" transform="translate(0 1004.4)"/>
 </g>
 <g>
  <flowRoot style="word-spacing:0px;letter-spacing:0px" xml:space="preserve" transform="translate(-18.262 -1007.9)" line-height="125%" font-size="40px" font-family="sans-serif" fill="#000000"><flowRegion><rect y="6.6343" x="-53.033" width="57.629" height="49.321"/></flowRegion><flowPara/></flowRoot>
 </g>
 <g>
  <path d="m10 8v32l13.333 8v-48z" fill="#bb8f4d"/>
 </g>
</svg>
