<svg xmlns:rdf="http://www.w3.org/1999/02/22-rdf-syntax-ns#" xmlns="http://www.w3.org/2000/svg" height="48" width="48" version="1.1" xmlns:cc="http://creativecommons.org/ns#" xmlns:xlink="http://www.w3.org/1999/xlink" xmlns:dc="http://purl.org/dc/elements/1.1/">
 <g transform="translate(0 -1004.4)">
  <rect style="color:#000000" ry="0" height="32" width="25" y="1012.4" x="10" fill="#bb8f4d"/>
  <rect ry="1.0393" style="color:#000000" transform="rotate(60.001)" height="22.139" width="22.139" stroke="#000" y="476.95" x="899.54" stroke-width=".96256" fill="#eeca02"/>
  <path d="m34.898 1023.2c1.71 0.8806 2.8108 3.198 1.7906 4.9851-0.51096 1.0732-1.5002 1.8194-2.5583 2.3177 0.05306 2.482 0.3051 4.9945 0.0039 7.4588-0.18689 0.5165-0.75922 0.097-0.6393-0.329 0.05346-1.6406 0.0924-3.2861 0.01261-4.9216-0.73098 2.4493-1.9493 4.748-2.7876 7.1346-0.01541 0.4985 0.67057 0.7224 0.90749 1.1048 0.31165 0.4443 1.1522 0.6811 1.1097 1.2766-0.39892 0.473-0.93914-0.2648-1.294-0.5125-0.35864-0.2508-0.77095-0.8795-1.0768-0.9198-0.36364 1.0169-0.47432 2.1641-0.90578 3.1415-0.63977 0.2463-0.54838-0.686-0.39434-1.0306 0.21398-0.9238 0.48456-1.833 0.73113-2.7483-0.36217-0.3982-1.0917-0.9661-0.53306-1.5053 0.76431-1.2038 1.7796-2.2762 2.5782-3.4302 0.36392-0.7855 0.61974-1.6152 0.87599-2.4402-0.99244 1.2291-2.3798 1.7947-3.9074 0.8214-0.60417-0.3348-0.30984-1.1633-0.01424-0.825 0.95246 1.0653 2.98 0.4178 3.6977-1.0515 0.06817-0.3158 0.81558-1.0376 0.45994-1.1147-1.1055-0.09-2.2559-0.6549-2.6232-1.7673-0.62328-1.4086-0.07307-3.0357 0.57561-4.3463 0.68987-1.3991 2.6153-1.9434 3.9913-1.2985zm-0.43204 0.5592c-0.92591-0.3782-2.0231 0.075-2.7028 0.7152-0.80651 1.3751-1.5626 3.3475-0.3782 4.7359 1.0588 1.0863 2.8787 0.7703 3.8501-0.2783 1.0632-0.9074 1.5118-2.5648 0.71172-3.7674-0.35117-0.5818-0.8433-1.1259-1.4808-1.4054zm-3.7477 14.068c-0.25713 0.4568-0.79203 0.8738-0.86965 1.3817 0.33585 0.6359 0.43241-0.5331 0.63811-0.7518 0.0034-0.053 0.47142-1.011 0.23155-0.63z"/>
 </g>
 <g>
  <flowRoot style="word-spacing:0px;letter-spacing:0px" xml:space="preserve" transform="translate(-18.262 -1007.9)" line-height="125%" font-size="40px" font-family="sans-serif" fill="#000000"><flowRegion><rect y="6.6343" x="-53.033" width="57.629" height="49.321"/></flowRegion><flowPara/></flowRoot>
  <path opacity=".25" style="color:#000000" d="m10 8v32h16.656l1.438 2.469c0.288 0.498 0.939 0.663 1.437 0.375l4.938-2.844h0.531v-0.312l4.25-2.438-29.25-29.25z"/>
 </g>
 <g>
  <path d="m10 8v32l13.333 8v-48z" fill="#bb8f4d"/>
 </g>
</svg>
