<svg xmlns:rdf="http://www.w3.org/1999/02/22-rdf-syntax-ns#" xmlns="http://www.w3.org/2000/svg" height="48" width="48" version="1.1" xmlns:cc="http://creativecommons.org/ns#" xmlns:xlink="http://www.w3.org/1999/xlink" xmlns:dc="http://purl.org/dc/elements/1.1/">
 <defs>
  <linearGradient id="linearGradient4032" y2="1052.4" gradientUnits="userSpaceOnUse" y1="1027.4" x2="20" x1="20">
   <stop stop-color="#19aeff" offset="0"/>
   <stop stop-color="#19aeff" stop-opacity=".34756" offset="1"/>
  </linearGradient>
 </defs>
 <g transform="translate(0 -1004.4)">
  <rect ry="2" style="color:#000000" transform="translate(0 1004.4)" height="48" width="48" y="0" x="0" fill="#0084c8"/>
  <g transform="translate(-40.191 1005.5)">
   <flowRoot style="word-spacing:0px;letter-spacing:0px" line-height="125%" xml:space="preserve" font-size="40px" transform="translate(-18.262 -1007.9)" font-family="sans-serif" fill="#000000"><flowRegion><rect y="6.6343" width="57.629" x="-53.033" height="49.321"/></flowRegion><flowPara/></flowRoot>
  </g>
  <path style="color:#000000" d="m2 1010.4h17c3 0 1 5 4 5h23c1.0177 0.043 2 1 2 2v33c0 1.108-0.892 2-2 2h-44c-1.108 0-2-0.892-2-2v-38c0-1.108 0.892-2 2-2z" fill="url(#linearGradient4032)"/>
  <path opacity=".2" style="color:#000000" d="m2 6c-1.108 0-2 0.892-2 2v1c0-1.108 0.892-2 2-2h16c3 0 1 5 4 5h24c1.018 0.043 2 1 2 2v-1c0-1-0.982-1.957-2-2h-23c-3 0-1-5-4-5h-17z" transform="translate(0 1004.4)" fill="#fff"/>
  <path opacity=".2" style="color:#000000" d="m2 0c-1.108 0-2 0.892-2 2v1c0-1.108 0.892-2 2-2h44c1.108 0 2 0.892 2 2v-1c0-1.108-0.892-2-2-2h-44z" transform="translate(0 1004.4)" fill="#fff"/>
 </g>
 <g>
  <flowRoot style="word-spacing:0px;letter-spacing:0px" xml:space="preserve" transform="translate(-18.262 -1007.9)" line-height="125%" font-size="40px" font-family="sans-serif" fill="#000000"><flowRegion><rect y="6.6343" x="-53.033" width="57.629" height="49.321"/></flowRegion><flowPara/></flowRoot>
  <path opacity=".25" style="color:#000000" d="m16.312 18c-0.722 0-1.312 0.59-1.312 1.312v20.376c-0.022 0.434 0.178 0.74 0.406 0.968l7.344 7.344h23.25c1.108 0 2-0.892 2-2v-12l-15.375-15.625c-0.238-0.238-0.576-0.375-0.937-0.375h-15.376z"/>
 </g>
 <g>
  <rect style="color:#000000" ry="1.3043" height="20.727" width="15.468" y="19.406" x="16.219" fill="#19aeff"/>
  <path style="color:#000000" d="m16.312 18c-0.722 0-1.312 0.59-1.312 1.312v20.375c0 0.723 0.59 1.313 1.312 1.313h15.375c0.723 0 1.313-0.59 1.313-1.312v-20.375c0-0.723-0.59-1.313-1.312-1.313h-15.375zm0.688 2h14v19h-14v-19z" fill="#fff"/>
  <rect style="color:#000000" ry=".5" height="2" width="8" y="22" x="18" fill="#fff"/>
  <rect style="color:#000000" ry=".5" height="2" width="3" y="26" x="18" fill="#fff"/>
  <rect style="color:#000000" ry=".5" height="2" width="5" y="26" x="22" fill="#fff"/>
  <rect style="color:#000000" ry=".5" height="2" width="2" y="26" x="28" fill="#fff"/>
  <rect style="color:#000000" ry=".5" height="2" width="6" y="30" x="18" fill="#fff"/>
  <rect style="color:#000000" ry=".5" height="2" width="3" y="30" x="25" fill="#fff"/>
  <rect style="color:#000000" ry=".5" height="2" width="6" y="34" x="18" fill="#fff"/>
  <rect style="color:#000000" ry=".5" height="2" width="5" y="34" x="25" fill="#fff"/>
 </g>
</svg>
