<svg xmlns:rdf="http://www.w3.org/1999/02/22-rdf-syntax-ns#" xmlns="http://www.w3.org/2000/svg" height="48" width="48" version="1.1" xmlns:cc="http://creativecommons.org/ns#" xmlns:xlink="http://www.w3.org/1999/xlink" xmlns:dc="http://purl.org/dc/elements/1.1/">
 <defs>
  <linearGradient id="linearGradient4032" y2="1052.4" gradientUnits="userSpaceOnUse" x2="20" y1="1027.4" x1="20">
   <stop stop-color="#19aeff" offset="0"/>
   <stop stop-color="#19aeff" stop-opacity=".34756" offset="1"/>
  </linearGradient>
 </defs>
 <g transform="translate(0 -1004.4)">
  <rect style="color:#000000" transform="translate(0 1004.4)" ry="2" height="48" width="48" y="0" x="0" fill="#0084c8"/>
  <g transform="translate(-40.191 1005.5)">
   <flowRoot style="word-spacing:0px;letter-spacing:0px" xml:space="preserve" transform="translate(-18.262 -1007.9)" line-height="125%" font-size="40px" font-family="sans-serif" fill="#000000"><flowRegion><rect y="6.6343" x="-53.033" width="57.629" height="49.321"/></flowRegion><flowPara/></flowRoot>
  </g>
  <path style="color:#000000" d="m2 1010.4h17c3 0 1 5 4 5h23c1.0177 0.043 2 1 2 2v33c0 1.108-0.892 2-2 2h-44c-1.108 0-2-0.892-2-2v-38c0-1.108 0.892-2 2-2z" fill="url(#linearGradient4032)"/>
  <path opacity=".2" style="color:#000000" d="m2 6c-1.108 0-2 0.892-2 2v1c0-1.108 0.892-2 2-2h16c3 0 1 5 4 5h24c1.018 0.043 2 1 2 2v-1c0-1-0.982-1.957-2-2h-23c-3 0-1-5-4-5h-17z" transform="translate(0 1004.4)" fill="#fff"/>
  <path opacity=".2" style="color:#000000" d="m2 0c-1.108 0-2 0.892-2 2v1c0-1.108 0.892-2 2-2h44c1.108 0 2 0.892 2 2v-1c0-1.108-0.892-2-2-2h-44z" transform="translate(0 1004.4)" fill="#fff"/>
 </g>
 <g>
  <flowRoot style="word-spacing:0px;letter-spacing:0px" line-height="125%" xml:space="preserve" font-size="40px" transform="translate(-18.262 -1007.9)" font-family="sans-serif" fill="#000000"><flowRegion><rect y="6.6343" width="57.629" x="-53.033" height="49.321"/></flowRegion><flowPara/></flowRoot>
  <path opacity=".25" style="color:#000000" d="m24.281 16.469c-0.301-0.009-0.602 0.013-0.906 0.031-0.694 0.041-1.365 0.157-2.063 0.344-5.58 1.495-8.932 7.232-7.437 12.812l0.813 0.813-0.5 0.125c-1.569 0.42-2.515 2.024-2.094 3.594l0.968 3.531c0.035 0.129 0.075 0.254 0.126 0.375 0.04 0.097 0.075 0.19 0.124 0.281 0.03 0.054 0.061 0.105 0.094 0.156 0.095 0.15 0.226 0.279 0.344 0.407 0.025 0.027 0.036 0.067 0.062 0.093 0.05 0.05 0.104 0.111 0.157 0.157l8.812 8.812h23.219c1.108 0 2-0.892 2-2v-9.844l-16.562-16.562v-0.032c-0.095-0.094-0.215-0.159-0.313-0.25-0.172-0.159-0.349-0.321-0.531-0.468-0.246-0.2-0.488-0.386-0.75-0.563-0.156-0.104-0.308-0.216-0.469-0.312-0.027-0.017-0.066-0.015-0.094-0.031-0.174-0.103-0.351-0.221-0.531-0.313-0.063-0.032-0.124-0.063-0.188-0.094-0.273-0.133-0.528-0.234-0.812-0.343-0.271-0.105-0.533-0.2-0.812-0.282-0.193-0.056-0.398-0.11-0.594-0.156-0.093-0.021-0.188-0.044-0.282-0.062-0.146-0.03-0.289-0.071-0.437-0.094-0.051-0.008-0.106 0.007-0.156 0-0.319-0.046-0.645-0.078-0.969-0.094-0.073-0.004-0.146-0.029-0.219-0.031z"/>
 </g>
 <g>
  <path style="color:#000000" d="m33.825 30.588c1.569 0.4204 2.4936 2.0219 2.0732 3.591l-0.94857 3.5401c-0.42041 1.5691-2.022 2.4938-3.591 2.0733l-0.70802-0.1897c-0.2457-0.066-0.46697-0.1812-0.67838-0.3003l2.407-8.9833c0.24264 0 0.49196 0.013 0.73767 0.08l0.70802 0.1898zm-19.651 0c-1.569 0.4204-2.4936 2.0219-2.0732 3.591l0.94857 3.5401c0.42041 1.5691 2.022 2.4938 3.591 2.0733l0.70802-0.1897c0.2457-0.066 0.46697-0.1812 0.67838-0.3003l-2.407-8.9833c-0.24264 0-0.49196 0.013-0.73767 0.08l-0.70802 0.1898zm9.2071-14.094c-0.69434 0.041-1.3767 0.1557-2.0742 0.3425-5.5803 1.4954-8.9169 7.246-7.4216 12.826l1.4272-0.3615c-1.2902-4.8152 1.5409-9.7472 6.356-11.038 4.8151-1.2903 9.7471 1.5409 11.037 6.356 0.40937 1.5279 0.40937 3.1537 0 4.6815l1.4272 0.3615c0.4675-1.7447 0.46992-3.5613 0.01903-5.3094l-0.01903-0.095c-1.307-4.883-5.89-8.054-10.75-7.764z" fill="#fff"/>
 </g>
</svg>
