<svg xmlns:rdf="http://www.w3.org/1999/02/22-rdf-syntax-ns#" xmlns="http://www.w3.org/2000/svg" height="48" width="48" version="1.1" xmlns:cc="http://creativecommons.org/ns#" xmlns:xlink="http://www.w3.org/1999/xlink" xmlns:dc="http://purl.org/dc/elements/1.1/">
 <defs>
  <linearGradient id="linearGradient12443" y2="3" gradientUnits="userSpaceOnUse" x2="27.5" y1=".5" x1="27.5">
   <stop stop-color="#fff" offset="0"/>
   <stop stop-color="#fff" stop-opacity="0" offset="1"/>
  </linearGradient>
  <filter id="filter3794" height="1.384" width="1.384" color-interpolation-filters="sRGB" y="-.192" x="-.192">
   <feGaussianBlur stdDeviation="5.28"/>
  </filter>
  <clipPath id="clipPath3613">
   <rect rx="6" ry="6" height="84" width="84" y="6" x="6" fill="#fff"/>
  </clipPath>
  <filter id="filter3174" color-interpolation-filters="sRGB">
   <feGaussianBlur stdDeviation="1.71"/>
  </filter>
  <linearGradient id="linearGradient6599" y2="138.66" gradientUnits="userSpaceOnUse" x2="48" y1="20.221" x1="48">
   <stop stop-color="#fff" offset="0"/>
   <stop stop-color="#fff" stop-opacity="0" offset="1"/>
  </linearGradient>
  <linearGradient id="linearGradient6602" y2="7.0165" gradientUnits="userSpaceOnUse" x2="45.448" gradientTransform="scale(1.0059 .99417)" y1="92.54" x1="45.448">
   <stop offset="0"/>
   <stop stop-opacity=".58824" offset="1"/>
  </linearGradient>
 </defs>
 <g transform="translate(0 -1004.4)">
  <rect style="color:#000000" ry="2" height="48" width="48" y="1004.4" x="0" fill="#999"/>
  <g transform="translate(15.865 25.237)">
   <path fill="none" d="m1.872-0.376 0.587-0.118 0.039-0.003 0.675 0.243v0.508l-0.675 0.243-0.039-0.003-0.587-0.118-0.282 0.682 0.498 0.332 0.029 0.025 0.306 0.649-0.359 0.359-0.649-0.306-0.025-0.029-0.332-0.498-0.682 0.282 0.118 0.587 0.003 0.039-0.243 0.675h-0.508l-0.243-0.675 0.003-0.039 0.118-0.587-0.682-0.282-0.332 0.498-0.025 0.029-0.649 0.306-0.359-0.359 0.306-0.649 0.029-0.025 0.498-0.332-0.282-0.682-0.587 0.118-0.039 0.003-0.675-0.243v-0.508l0.675-0.243 0.039 0.003 0.587 0.118 0.282-0.682-0.498-0.332-0.029-0.025-0.306-0.649 0.359-0.359 0.649 0.306 0.025 0.029 0.332 0.498 0.682-0.282-0.118-0.587-0.003-0.039 0.243-0.675h0.508l0.243 0.675-0.003 0.039-0.118 0.587 0.682 0.282 0.332-0.498 0.025-0.029 0.649-0.306 0.359 0.359-0.306 0.649-0.029 0.025-0.498 0.332z" stroke="#000"/>
  </g>
  <g transform="translate(-4.4483 18.801)">
   <path fill="none" stroke="#000" d="m18.674-4.005 4.723-1.013 1.578 0.05 6.809 3.246v3.444l-6.809 3.246-1.578 0.05-4.723-1.013-2.638 6.368 4.056 2.623 1.081 1.151 2.52 7.11-2.436 2.436-7.11-2.52-1.151-1.081-2.623-4.056-6.368 2.638 1.013 4.723-0.05 1.578-3.246 6.809h-3.444l-3.246-6.809-0.05-1.578 1.013-4.723-6.368-2.638-2.623 4.056-1.151 1.081-7.11 2.52-2.436-2.436 2.52-7.11 1.081-1.151 4.056-2.623-2.638-6.368-4.723 1.013-1.578-0.05-6.809-3.246v-3.444l6.809-3.246 1.578-0.05 4.723 1.013 2.638-6.368-4.056-2.623-1.081-1.151-2.52-7.11 2.436-2.436 7.11 2.52 1.151 1.081 2.623 4.056 6.368-2.638-1.013-4.723 0.05-1.578 3.246-6.809h3.444l3.246 6.809 0.05 1.578-1.013 4.723 6.368 2.638 2.623-4.056 1.151-1.081 7.11-2.52 2.436 2.436-2.52 7.11-1.081 1.151-4.056 2.623z"/>
  </g>
  <rect opacity=".9" transform="matrix(5.0049 0 0 5.0049 1276.9 1241.4)" rx="6" ry="6" height="85" filter="url(#filter3174)" width="86" display="none" y="7" x="5" fill="url(#linearGradient6602)"/>
  <rect ry="12" stroke="#fff" stroke-linecap="round" stroke-width=".5" fill="url(#linearGradient6599)" rx="12" transform="matrix(5.0049 0 0 5.0049 1276.9 1241.4)" width="66" opacity=".1" clip-path="url(#clipPath3613)" height="66" filter="url(#filter3794)" y="15" x="15" display="none"/>
  <text style="word-spacing:0px;letter-spacing:0px" xml:space="preserve" font-size="200px" line-height="125%" y="1793.837" x="51.203964" font-family="Gentium Book Basic" fill="#000000"><tspan x="51.203964" y="1793.837"/></text>
  <path style="color:#000000" d="m847.84 1297.3c-7.1453 0-13.74 3.8119-17.312 10-3.572 6.1878-3.5724 13.812 0 20 0.93042 1.611 2.0465 3.0489 3.3438 4.3125 0.0826 0.083 0.16601 0.1681 0.25 0.25l251.06 250.81c3.4907 2.7891 7.9381 4.3575 12.406 4.375 7.25-0.019 14.304-4.3214 17.656-10.75 3.3518-6.4287 2.8535-14.701-1.2813-20.656-0.2486-0.3626-0.5092-0.717-0.7812-1.0625l-250.91-251.12c-0.0831-0.084-0.16538-0.1677-0.25-0.25-3.6237-3.6523-8.6364-5.9062-14.188-5.9062zm60 0c-7.1453 0-13.74 3.8119-17.312 10-3.572 6.1878-3.5724 13.812 0 20 0.93042 1.611 2.0465 3.0489 3.3438 4.3125 0.0826 0.083 0.16601 0.1681 0.25 0.25l251.06 250.81c3.4907 2.7891 7.9381 4.3575 12.406 4.375 7.25-0.019 14.304-4.3214 17.656-10.75 3.3518-6.4287 2.8535-14.701-1.2813-20.656-0.2486-0.3626-0.5092-0.717-0.7812-1.0625l-250.91-251.12c-0.0831-0.084-0.16538-0.1677-0.25-0.25-3.6237-3.6523-8.6364-5.9062-14.188-5.9062zm60 0c-7.1453 0-13.74 3.8119-17.312 10-3.572 6.1878-3.5724 13.812 0 20 0.93042 1.611 2.0465 3.0489 3.3438 4.3125 0.0826 0.083 0.16601 0.1681 0.25 0.25l251.06 250.81c3.4907 2.7891 7.9381 4.3575 12.406 4.375 7.25-0.019 14.304-4.3214 17.656-10.75 3.3518-6.4287 2.8535-14.701-1.2813-20.656-0.2486-0.3626-0.5092-0.717-0.7812-1.0625l-250.91-251.12c-0.0831-0.084-0.16538-0.1677-0.25-0.25-3.6237-3.6523-8.6364-5.9062-14.188-5.9062z" fill-opacity=".31373" display="none"/>
  <path d="m802.91 1439.3c-13.688 0-15.123 0.9081-18.531 11.469-3.1027 9.6149-5.5821 11.943-17.5 16.562-10.829 4.1976-13.953 4.1884-19.25 0-6.4234-5.0789-14.498-3.3778-22.438 4.6875-8.9496 9.0908-9.5667 12.082-4.5312 21.688 4.5103 8.6039 4.3538 12.318-1.0625 24.219-4.1018 9.0128-6.071 10.856-14.438 13.594-9.5265 3.1167-11.25 6.0448-11.25 19.031 0.5279 4.7111 0.0399 10.889 2.8125 14.125l27.5 27.468c1.8957 5.3663 1.0095 6.6522-2.3438 12.969-5.4123 10.195-5.1193 12.686 3.8125 21.781l303.87 303.78c0.8936 0.8261 1.7188 1.5093 2.5 2.125 5.4413 4.2885 8.6191 3.6237 16.344-0.6562 6.4082-3.5506 8.9741-4.3252 15.156-2.3125l27.089 27.06c1.9665 1.8769 3.99 2.125 13.656 2.125 13.922 0 16.403-1.3453 18.281-9.75 2.4974-11.174 3.8953-12.702 15.719-17.562 12.903-5.3046 13.891-5.387 19.719-1.4063 8.9954 6.1443 14.284 5.595 22.531-2.3125 9.685-9.2858 11.588-14.728 7.3438-21.188-6.2342-9.4883-6.4216-12.188-1.5938-23.781 4.6977-11.28 7.3387-13.539 17.594-15.188 7.6175-1.2244 9.081-3.8602 9.5625-16.969 0.3354-9.1339 0.011-13.732-2.5-16.656l-28.03-28.061c-1.7172-5.771-1.1248-8.7527 1.5625-12.406 5.4952-7.4711 4.8924-14.379-1.9375-21.719-0.1046-0.1125-0.2092-0.2022-0.3125-0.3125-0.626-0.6689-1.2337-1.3152-1.8125-1.9063l-300.53-300.7c-0.0975-0.097-0.21623-0.1867-0.3125-0.2812-0.11124-0.1079-0.20283-0.2078-0.3125-0.3125-7.5624-7.3351-11.426-7.3973-20.688-2.5-6.901 3.6489-9.812 4.2974-14.812 2.5937l-26.34-26.3c-2.729-2.8393-6.7479-3.1605-14.595-3.1605z" fill-opacity=".31373" display="none"/>
  <rect transform="translate(0 1004.4)" ry="2" height="15" width="4" y="5" x="7" fill="#666"/>
  <rect ry="2" height="15" width="4" y="1009.4" x="17" fill="#666"/>
  <rect ry="2" height="15" width="4" y="1009.4" x="27" fill="#666"/>
  <rect ry="2" height="15" width="4" y="1009.4" x="37" fill="#666"/>
  <rect ry="2" height="15" width="4" y="1030.4" x="35" fill="#666"/>
 </g>
 <g>
  <flowRoot opacity=".25" style="word-spacing:0px;letter-spacing:0px" xml:space="preserve" transform="translate(32.627 -1001.2)" line-height="125%" font-size="40px" font-family="sans-serif" fill="#000000"><flowRegion><rect height="49.321" width="57.629" y="6.6343" x="-53.033" fill="#000"/></flowRegion><flowPara/></flowRoot>
  <flowRoot style="word-spacing:0px;letter-spacing:0px" line-height="125%" xml:space="preserve" font-size="40px" transform="translate(-104.89 -1017.8)" font-family="sans-serif" fill="#000000"><flowRegion><rect y="6.6343" width="57.629" x="-53.033" height="49.321"/></flowRegion><flowPara/></flowRoot>
  <path opacity=".25" d="m19 5c-1.657 0-3 1.3431-3 3 0 0.8284 0.332 1.5821 0.875 2.125l10 10 8.875 8.875h-3.75c-0.97 0-1.783 0.681-1.969 1.594-0.004 0.02 0.004 0.042 0 0.062l-5.843-5.844-4.282 1.094-7.906-7.906c0-1.657-1.343-3-3-3-1.6569 0-3 1.343-3 3 0 0.828 0.3321 1.582 0.875 2.125l5.313 5.313c-1.302 0.422-2.5278 1.152-3.563 2.187-3.5147 3.515-3.5147 9.235 0 12.75l7.625 7.625h29.75c1.108 0 2-0.892 2-2v-13.25l-16.875-16.875-10-10c-0.543-0.5429-1.297-0.875-2.125-0.875zm20 10c-0.621 0-1.209 0.177-1.688 0.5-0.159 0.108-0.301 0.239-0.437 0.375-0.543 0.543-0.875 1.297-0.875 2.125 0 0.403 0.075 0.774 0.219 1.125 0.005 0.012 0.026 0.019 0.031 0.031 0.022 0.051 0.038 0.107 0.062 0.156 0.137 0.279 0.32 0.529 0.532 0.75 0.082 0.086 0.158 0.175 0.25 0.25l10.906 10.907v-8.438l-6.688-6.687-0.156-0.156c-0.138-0.145-0.273-0.292-0.437-0.407-0.087-0.06-0.188-0.105-0.281-0.156-0.428-0.235-0.915-0.375-1.438-0.375z"/>
 </g>
 <g>
  <path d="m12 19a3 3 0 1 1 -6 0 3 3 0 1 1 6 0z" transform="translate(0,-1)" fill="#f1caff"/>
  <path d="m12 19a3 3 0 1 1 -6 0 3 3 0 1 1 6 0z" transform="translate(10,-11)" fill="#f1caff"/>
  <path d="m12 19a3 3 0 1 1 -6 0 3 3 0 1 1 6 0z" transform="translate(20,-1)" fill="#f1caff"/>
  <path d="m12 19a3 3 0 1 1 -6 0 3 3 0 1 1 6 0z" transform="translate(30,-1)" fill="#f1caff"/>
  <path d="m24.192 24.808-4.9718 1.2595c-3.404-1.819-7.713-1.302-10.584 1.568-3.5147 3.5148-3.5147 9.2132 0 12.728 3.5147 3.5147 9.2132 3.5147 12.728 0 2.8705-2.8705 3.3871-7.1801 1.5689-10.584l1.2595-4.9719z" fill="#ccff42"/>
  <rect ry="2" height="4" width="14" y="29" x="30" fill="#ccff42"/>
 </g>
 <g>
  <path opacity=".4" style="color:#000000" d="m2 0c-1.108 0-2 0.892-2 2v44c0 1.108 0.892 2 2 2h44c1.108 0 2-0.892 2-2v-44c0-1.108-0.892-2-2-2h-44zm0 0.5h44c0.83101 0 1.5 0.66899 1.5 1.5v44c0 0.83101-0.66899 1.5-1.5 1.5h-44c-0.831 0-1.5-0.669-1.5-1.5v-44c0-0.831 0.669-1.5 1.5-1.5z" fill="url(#linearGradient12443)"/>
 </g>
</svg>
