<svg xmlns:rdf="http://www.w3.org/1999/02/22-rdf-syntax-ns#" xmlns="http://www.w3.org/2000/svg" height="48" width="48" version="1.1" xmlns:cc="http://creativecommons.org/ns#" xmlns:xlink="http://www.w3.org/1999/xlink" xmlns:dc="http://purl.org/dc/elements/1.1/">
 <defs>
  <linearGradient id="linearGradient12443" y2="3" gradientUnits="userSpaceOnUse" x2="27.5" y1=".5" x1="27.5">
   <stop stop-color="#fff" offset="0"/>
   <stop stop-color="#fff" stop-opacity="0" offset="1"/>
  </linearGradient>
 </defs>
 <g transform="translate(0 -1004.4)">
  <rect style="color:#000000" ry="2" height="48" width="48" y="1004.4" x="0" fill="#9eabb0"/>
  <g transform="translate(35 1001.8)">
   <rect style="color:#000000" ry=".93750" height="32" width="24" y="10.562" x="-29" fill="#730000"/>
   <path style="color:#000000" d="m-13.875 15.156c-0.24783-0.000384-0.4755 0.0078-0.71875 0.03125-3.4299 0.3313-6.3695 2.977-7.9688 5.625-0.0006 0.0013-0.02995-0.0013-0.03125 0-0.6328 1.0186-1.1307 2.134-1.25 3.3438-0.08957 0.90789 0.0407 1.988 0.8125 2.7188 0.47142 0.45652 1.0788 0.65894 1.6875 0.6875 0.52757 0.02473 1.0547-0.0655 1.5312-0.21875-0.72488 0.52428-1.4317 1.0781-2.0625 1.7188-1.4198 1.4213-2.6616 3.1383-3.2188 5.0938v0.03125c-0.22057 0.75674-0.37898 1.5758-0.25 2.4062 0.07722 0.60016 0.32644 1.1698 0.75 1.5938 0.42534 0.42572 1.0839 0.6579 1.8125 0.53125 0.80364-0.13579 1.3609-0.68182 1.7812-1.2188 0.61377-0.78392 1.0582-1.6101 1.4375-2.4375 0.0013-0.0034-0.0013-0.02805 0-0.03125 0.91791-1.8715 1.6305-3.7732 2.4062-5.6875 0.0013-0.0012-0.0013-0.02995 0-0.03125l0.907-2.312c0.0013-0.0037 0.02995-0.02745 0.03125-0.03125 0.07712-0.21507 0.03873-0.21237 0.125-0.28125 2.7937-2.071 5.8125-5.1875 7.5625-7.625l0.21875-1.7188c-2.1511 2.1975-5.8098 5.5451-6.5625 6.2188l2.0625-5.0938 0.53125-1.375c0.0501-0.1079 0.14587-0.2801 0.21875-0.46875 0.07373-0.19084 0.14042-0.3972 0.09375-0.65625-0.0006-0.0051 0.0013-0.02615 0-0.03125-0.05899-0.31558-0.30592-0.53492-0.53125-0.625-0.22589-0.09033-0.43928-0.11081-0.59375-0.125-0.0025-0.000196-0.02875 0.000304-0.03125 0-0.25157-0.02826-0.50217-0.03087-0.75-0.03125zm-0.5 1.6562c0.03083-0.0026 0.06304-0.000038 0.09375 0 0.0921 0.0001 0.18927 0.000399 0.28125 0-0.57456 1.4024-1.2262 2.7693-1.9375 4.125-0.53276 0.89922-1.042 1.7545-1.6875 2.5625-0.53729 0.6946-1.1636 1.3628-1.875 1.8438-0.30301 0.20277-0.60364 0.35866-0.875 0.4375-0.41158 0.12889-0.85558 0.21776-1.1875 0.125-0.23794-0.094-0.45981-0.3398-0.53125-0.59375-0.0013-0.0024 0.0013-0.02875 0-0.03125-0.20667-0.69322 0.00094-1.5696 0.28125-2.3125 0.50049-1.1777 1.2996-2.276 2.1875-3.2188 0.77011-0.81775 1.6544-1.5797 2.625-2.125 0.81098-0.43804 1.7266-0.74195 2.625-0.8125zm-4.3125 11.75-0.375 0.90625c-0.0013 0.0024 0.0013 0.02875 0 0.03125-0.51602 1.3481-1.028 2.6341-1.625 3.9375-0.0025 0.0034-0.02875-0.0038-0.03125 0-0.40817 0.97954-0.84478 1.9825-1.4375 2.8125-0.16778 0.23881-0.39026 0.5712-0.625 0.75-0.11737 0.0894-0.2276 0.13862-0.3125 0.15625-0.08233 0.0171-0.1607 0.01555-0.25-0.03125-0.10448-0.06858-0.18946-0.21736-0.25-0.40625-0.0624-0.1948-0.0709-0.44155-0.0625-0.625-0.000038-0.01076 0.0013-0.02053 0-0.03125-0.01368-0.28251 0.0046-0.5407 0.03125-0.8125 0.2158-1.2164 0.81163-2.4252 1.5625-3.4688 0.0025-0.0035 0.02875-0.02745 0.03125-0.03125 0.53596-0.69192 1.1316-1.3689 1.7812-1.9375 0.49139-0.44745 1.0274-0.86531 1.5625-1.25z" fill="#fff"/>
  </g>
 </g>
 <g>
  <path opacity=".58268" d="m26.844 15c0.094 0.186 0.224 0.409 0.344 0.625l-0.563-0.563c0.03 0.538 0.045 1.307-0.031 1.782-0.122 0.76-0.719 2.125-0.719 2.125s0.643 0.966 0.875 1.5 0.5 1.656 0.5 1.656-0.22 0.136-0.312 0.219c-0.093 0.083-0.219 0.281-0.219 0.281l2.062 9.063 3.844 14.406 1.906 1.906h11.469c1.108 0 2-0.892 2-2v-9.844l-21.156-21.156z" fill="#0e232e"/>
 </g>
 <g>
  <path d="m32.64 46.089-3.855-14.386-2.071-9.081s0.12375-0.20979 0.21624-0.29284c0.09246-0.08312 0.32618-0.19271 0.32618-0.19271s-0.26114-1.1237-0.49341-1.6579c-0.23227-0.53421-0.89519-1.5219-0.89519-1.5219s0.60294-1.358 0.72464-2.118c0.07608-0.47499 0.05025-1.2494 0.01981-1.7874l1.1533 4.3041c-0.119 0.08513-0.17731 0.24071-0.13448 0.40054 0.0541 0.2019 0.24972 0.32596 0.43663 0.27588 0.18689-0.05008 0.29429-0.25533 0.24019-0.45723-0.04248-0.15857-0.17251-0.26402-0.31674-0.27964l-1.1533-4.3041 0.000044-0.000013c0.24327 0.48096 0.60793 1.16 0.91435 1.537 0.48539 0.59733 1.683 1.4728 1.683 1.4728s-0.06968 1.184-0.0037 1.7628c0.06594 0.57877 0.39464 1.6844 0.39464 1.6844s0.2572-0.0219 0.37884 0.0038c0.12164 0.02572 0.34074 0.14361 0.34074 0.14361l2.7366 8.9019 3.8548 14.386s-0.9966 0.82116-2.1105 1.1196c-1.1139 0.29847-2.3876 0.08562-2.3876 0.08562z" fill="#fff"/>
 </g>
 <path opacity=".4" style="color:#000000" d="m2 0c-1.108 0-2 0.892-2 2v44c0 1.108 0.892 2 2 2h44c1.108 0 2-0.892 2-2v-44c0-1.108-0.892-2-2-2h-44zm0 0.5h44c0.83101 0 1.5 0.66899 1.5 1.5v44c0 0.83101-0.66899 1.5-1.5 1.5h-44c-0.831 0-1.5-0.669-1.5-1.5v-44c0-0.831 0.669-1.5 1.5-1.5z" fill="url(#linearGradient12443)"/>
</svg>
