<svg xmlns:rdf="http://www.w3.org/1999/02/22-rdf-syntax-ns#" xmlns="http://www.w3.org/2000/svg" height="48" width="48" version="1.1" xmlns:cc="http://creativecommons.org/ns#" xmlns:xlink="http://www.w3.org/1999/xlink" xmlns:dc="http://purl.org/dc/elements/1.1/">
 <defs>
  <linearGradient id="linearGradient12443" y2="3" gradientUnits="userSpaceOnUse" x2="27.5" y1=".5" x1="27.5">
   <stop stop-color="#fff" offset="0"/>
   <stop stop-color="#fff" stop-opacity="0" offset="1"/>
  </linearGradient>
 </defs>
 <g transform="translate(0 -1004.4)">
  <rect style="color:#000000" ry="2" height="48" width="48" y="1004.4" x="0" fill="#9eabb0"/>
  <path opacity=".25" style="color:#000000" d="m17.875 0l-0.75 0.8125c-0.492 0.8058-0.802 1.7377-1.469 2.4063-3.613 3.622-7.6972 5.4933-11.718 8.6872-1.1741 0.932-1.9596 2.286-3.1568 3.188-0.2565 0.193-0.51883 0.377-0.7812 0.562v1.219c3.0476-2.153 7.4343-5.541 10.062-7.4375 2.246-1.6206 4.757-2.8942 6.813-4.75 0.672-0.6068 0.518-1.8589 1.187-2.4687 0.906-0.8248 1.885-1.5397 2.907-2.2188h-3.094zm29.344 0.4375c-1.275 0.51221-1.484 0.49705-1.281 0.34375-0.657 0.36175-2.052 1.0858-4.844 2.5626-2.064 1.1635-4.138 2.3122-6.188 3.5-2.661 1.5423-5.199 3.3162-7.937 4.7182-1.443 0.739-3.079 1.035-4.563 1.688-2.306 1.016-4.515 2.211-6.781 3.312-9.3981 4.566-4.648 2.329-13.438 6.313-0.5953 0.269-1.4528 0.666-2.187 1v1.125c5.2437-2.158 5.2566-2.076 11.875-5.469 2.706-1.387 5.3-2.943 8.031-4.281 1.683-0.824 3.523-1.328 5.188-2.188 14.747-7.6135 1.962-2.026 11.437-6.0308 4.742-2.6918 4.251-2.9036 8.188-4.0312 0.609-0.1745 1.236-0.2245 1.843-0.4062 0.474-0.1419 0.979-0.6196 1.438-0.7813-0.052-0.5661-0.358-1.0457-0.781-1.375zm0.531 2.1875c-0.572 0.1988-1.544 0.014-1.719 0.5938-0.119 0.3963 1.116-0.1399 1.469-0.1563 0.079-0.1453 0.204-0.3361 0.25-0.4375zm-0.25 0.4375c-0.079 0.1453-0.114 0.2306-0.031 0.1563 0.021-0.0194 0.069-0.0422 0.093-0.0626-0.765 1.0674-2.232 1.4094-3.156 2.3438-0.466 0.4718-0.468 1.2829-0.906 1.7812-1.065 1.2128-2.37 2.1933-3.562 3.2808-1.391 1.269-2.794 2.517-4.188 3.782-2.744 2.821-4.998 5.277-8.031 7.844-1.926 1.629-4.009 3.069-5.969 4.656-1.588 1.285-3.133 2.644-4.688 3.968-1.34 1.143-2.562 2.419-4 3.438-2.317 1.642-4.8069 2.998-7.2182 4.5-2.0216 1.378-3.9261 2.669-5.8438 4.031v2.344l8.875-4.687c0.0237-0.163-0.0693-0.402 0.0625-0.5 7.5935-5.677-0.7237 1.422 4.3125-2.969l-3.375 1.312c-0.1668 0.084-1.1085 0.572-1.5938 0.813-0.0067 0.007-0.0245-0.008-0.0312 0-0.9879 0.489-1.8713 0.918-3.375 1.687 6.646-5.718 4.7118-3.207 3.5-1.812 0.1777-0.193 0.3147-0.349 1.813-1.938 6.487-5.047 2.783-2.325 11.25-7.969 2.277-1.703 6.766-6.225 8.937-7.937 13.496-10.647 2.169-0.51 11.781-9.406 3.961-5.3875 0.623-1.302 5.844-5.5315v-3.4063c-0.161 0.1186-0.312 0.2419-0.438 0.3438 0.022-0.0521 0.01-0.0658-0.062-0.0625zm-43.5 38.626c0.062 0.152 0.1432 0.295 0.2188 0.437-0.5507 0.067-1.1687 0.199-0.9063-0.031 0.0372-0.033 0.0569-0.03 0.0937-0.063 0.1984-0.111 0.3938-0.235 0.5938-0.343z" transform="translate(0 1004.4)" fill="#ff4141"/>
  <path opacity=".25" style="color:#000000" d="m48 8.0938c-0.156 0.0145-0.313 0.0098-0.469 0.0312-3.146 0.4326-10.817 2.609-13.843 3.187-1.963 0.375-3.962 0.488-5.938 0.782-6.736 1.001-5.624 0.889-12.469 2.437-5.4096 1.428-10.182 4.396-15.281 6.563v0.687c1.3102-0.617 2.614-1.209 3.9688-1.719 2.1267-0.799 4.3771-1.253 6.5622-1.874 5.084-1.347 6.154-1.638 7.5-2-3.294 0.912-6.919 2.017 5.563-0.938 2.603-0.616 5.129-1.649 7.75-2.188 1.833-0.376 3.714-0.27 5.562-0.562 2.215-0.35 4.398-0.891 6.594-1.344l4.5-0.656v-2.4062zm-0.531 10.375c-0.277 0.036-0.584-0.009-0.844 0.093-0.676 0.267-1.29 0.669-1.937 1-1.106 0.567-2.175 1.221-3.313 1.719-1.054 0.462-2.176 0.743-3.25 1.157-6.85 2.637-2.704 1.495-8.937 2.843-6.816 0.563-0.534-0.223-9.469 2.094-1.512 0.392-3.061 0.606-4.594 0.906-0.144 0.028-0.316 0.088-0.469 0.125-0.123 0.012-0.252 0.026-0.375 0.032-0.191 0.044-0.37 0.116-0.562 0.187-0.792 0.209-1.64 0.411-2.469 0.437-0.175-0.266 0.762-1.221 0.344-1.343-0.811-0.238-1.5997 0.53-2.4065 0.781-0.0153 0.005-0.047-0.005-0.0625 0-0.1154-0.177-0.1517-0.432-0.25-0.625-1.1906 0.604-2.0846 1.077-2.9375 1.563-2.9156 0.883-6.0516 2.17-5.5625 4.374-0.1283 0.122-0.24059 0.215-0.375 0.344v0.156c0.093519-0.036 0.26872-0.137 0.4375-0.218 0.01478 0.042 0.01383 0.082 0.03125 0.125 0.55535-0.262 1.0938-0.55 1.625-0.813 0.1314-0.032 0.2736-0.032 0.375-0.031 0.2967 0.002-0.0178 0.716 0.25 0.844 1.3028 0.623 5.0454-1.119 5.3437-1.219 1.6451-0.482 3.9105-1.831 5.7185-0.625 0.492 0.328 0.421 1.589 1 1.469 2.768-0.577 5.149-2.366 7.813-3.313 3.795-1.349 7.149-1.785 11.062-2.469 1.239-0.398 2.451-0.814 3.688-1.218-1.589 1.272-3.279 2.454-4.469 4.156-0.987 0.922-2.117 1.734-2.969 2.781-0.371 0.457-0.181 1.239-0.625 1.625-1.481 1.29-3.416 1.976-4.937 3.219-0.168 0.137 0.016 0.425 0.031 0.656-2.788 1.351-5.53 2.815-8.187 4.407-0.243 0.145-0.578 0.713-0.313 0.812 0.654 0.245 1.847-0.778 2.094-0.125 0.013 0.034 0.023 0.061 0.031 0.094-0.069-0.002 1.15-0.758 2.5-1.438-1.506 0.886-2.358 1.38-2.5 1.438 0.17 0.746-0.923 1.371-1.344 2.062l0.656-0.062c-0.467 0.204-1.945 0.861-3.468 1.531h2.437c0.888-0.553 2.279-1.419 2.75-1.719l1.031-0.093c0.171 0.167 0.32 0.387 0.469 0.593-0.118 0.039-0.229 0.076-0.343 0.125-0.74 0.314-1.454 0.7-2.157 1.094h3.781c0.238-0.11 0.481-0.205 0.719-0.312 1.045-0.012 2.106-0.256 3.157-0.282 1.323-0.032 2.651-0.131 3.968 0 2.295 0.228 2.793 0.452 2.844 0.594h0.812c0.585-0.1 1.409-0.219 3.25-0.469 1.168-0.2 2.363-0.294 3.5-0.625 2.374-0.69 5.256-2.093 7.938-3.562v-2.282c-0.68 0.402-1.43 1.021-2.062 1.25-1.629 0.59-3.246 1.163-4.876 1.75-1.533 0.344-3.025 1.134-4.593 1.032-0.739-0.049-1.001-1.162-1.688-1.438-0.772-0.309-1.635-0.286-2.469-0.375 0.054-0.028 0.103-0.065 0.157-0.093l9.625-5.907c1.964-1.106 3.965-2.136 5.906-3.281v-3.469c-1.251 0.495-2.502 0.99-3.719 1.563-4.27 2.011-7.739 4.169-11.875 6.468-1.778 0.989-3.552 1.941-5.344 2.907-0.615 0.331-0.537 0.281-1 0.531-0.607-0.006-1.276 0.035-2.437 0.062 0.107-0.225 0.187-0.452 0.281-0.687 2.381-1.269 4.791-2.502 7.094-3.906 0.286-0.175 0.291-0.642 0.531-0.875 0.694-0.673 1.506-1.196 2.25-1.813 0.962-0.796 2.049-1.47 2.875-2.406 0.41-0.465 0.401-1.207 0.75-1.719 0.593-0.868 1.347-1.576 2.032-2.375 3.662-3.039 3.607-2.906 3.75-3.125 1.026-0.263 2.055-0.546 3.062-0.875 0.587-0.191 1.171-0.411 1.75-0.625v-1.656c-1.127 0.387-2.334 0.774-2.906 0.969 0.667-0.709 1.337-1.382 2.062-2.031 0.252-0.226 0.563-0.431 0.844-0.626v-1.75c-0.181-0.034-0.352-0.053-0.531-0.093zm-7 4.937c-0.023 0.125-0.058 0.24-0.125 0.344-0.241 0.373-0.497 0.734-0.782 1.062-0.974 0.321-0.98 0.335-2.906 0.969-0.251 0.005-1.29 0.02-2 0.031 0.559-0.173 1.105-0.337 1.656-0.531 0.79-0.277 1.556-0.624 2.344-0.906 0.377-0.135 0.799-0.164 1.156-0.344 0.214-0.107 0.357-0.306 0.532-0.469 0.041-0.05 0.08-0.107 0.125-0.156zm4.906 9.656c0.02-0.002 0.042 0.003 0.063 0-0.579 0.412-1.154 0.847-1.657 1.344-0.415 0.411-0.513 1.103-0.969 1.469-1.354 1.088-2.922 1.859-4.374 2.813-0.771 0.505-1.516 1.05-2.282 1.562-8.663 2.92 0.593-0.363-5.437 2.656-0.586-0.178-1.152-0.37-1.75-0.5-0.597-0.129-1.044-0.186-1.438-0.25 3.145-1.72 6.732-3.708 7.125-3.937 9.212-5.363 4.779-4.47 10.719-5.157zm-17.437 4.719l-2.719 1.657c0.011-0.046 0.035-0.123 0.062-0.188 0.885-0.498 1.765-0.984 2.657-1.469zm-1.969 1.938c0.029-0.003 0.039 0.007 0 0.031-0.828 0.505-1.07 0.62-1.75 1.031 0.017-0.022 0.044-0.04 0.062-0.062 0.306-0.364 0.775-0.578 1.188-0.813 0.118-0.067 0.411-0.178 0.5-0.187z" transform="translate(0 1004.4)" fill="#ccff42"/>
  <path opacity=".25" style="color:#000000" d="m2 0c-1.108 0-2 0.892-2 2v2.8438c0.085674 0.1241 0.16157 0.2524 0.25 0.375-0.08121 0.0085-0.16858 0.022-0.25 0.0312v5.656c0.61352-0.346 1.2323-0.681 1.8438-1.031 0.3253-0.0432 0.6873-0.0662 1.0624-0.0938-1.3682 1.9598-2.2555 3.2298-2.9062 4.1878v4.25c1.481-1.857 3.0536-3.634 4.5625-5.469l1.0313-1.438c1.18 1.136 2.2405 2.05 3.3437 3.126-2.0276 1.048-4.4633 2.414-6 3.937-0.6486 0.129-1.2569 0.257-1.9375 0.406-0.39981 0.088-0.64544 0.138-1 0.219v2.656c0.35801-0.085 0.71445-0.154 1.0625-0.25 0.1819 0.51 0.8726 0.968 0.75 1.5-0.715 3.106-1.4211 3.68-1.8125 3.844v0.906c0.18433 0.389 0.39193 0.82 0.875 1.938 0.03393 0.747-0.12756 1.556-0.125 2.312-0.24699 0.188-0.50824 0.377-0.75 0.563v5.219c0.14155-0.085 0.36891-0.236 0.5-0.313 1.2494-0.005 0.8671 0.007 0.375-0.187 0.548-0.32 0.9791-0.585 1.3438-0.782 0.6822-0.17 1.6613-0.389 3-0.625 0.2377 0.478 0.5115 1.203 0.9062 2.281 0.0562 0.154 0.0772 0.304 0.0938 0.469 2.5779-0.253 3.6669-0.315 6.1252-0.187-0.266 0.077-2.305 0.224-6.094 0.406 0.014 0.518-0.0802 1.078-0.0938 1.594-0.0741-0.034-0.135-0.053-0.2187-0.063-0.114-0.013-3.2941 0.468-5.9375 0.875v4.282c0.75538 0.125 1.4883 0.307 2.25 0.281 1.4427-0.05 4.251-0.526 6.9062-1 0.6681 0.554 0.9128 0.34 0.9058-0.157 0.108-0.019 0.177-0.043 0.282-0.062 0.139 0.341 0.06 0.138 0.25 0.594l4.344-0.656c0.768 0.083 1.543 0.323 2.312 0.25 2.101-0.201 4.017-1.179 5.844-2.282 3.594-0.4 7.292 0.386 10.844-0.281 0.82-0.154 1.638-0.352 2.437-0.594 1.718 0.957 3.899 1.082 5.437 2.313 0.349 0.279 0.559 0.64 0.719 1.062-0.247 0.049-0.506 0.089-0.75 0.156-2.051 0.569-3.951 1.675-6.031 2.126-0.765 0.165-1.605-0.647-2.312-0.313-0.715 0.337-1.413 0.727-2.094 1.125h13.218c1.161-0.474 2.284-1.028 3.407-1.594 0.026-0.13 0.031-0.268 0.031-0.406v-3.625c-0.737-0.244-1.493-0.512-2.438-0.937-1.154-0.521-2.234-1.23-3.343-1.844 0.442-0.124 0.894-0.216 1.343-0.313 1.45-0.313 2.976-0.005 4.438-0.219v-2.531c-2.553 0.095-5.417 0.214-9.906 0.407-0.864 0.037-1.731 0.103-2.594 0.156-1.058-0.296-1.74-0.437-2.281-0.532 0.28-0.234 0.648-0.65 1.062-1.093 4.915-0.188-1.875-0.523 12.907 0.75 1.461 0.163-0.389-0.041 0.812 0.093v-0.687c-3.478-0.322-6.959-0.645-10.438-0.969-0.764-0.071-1.517-0.142-2.281-0.218 0.367-0.398 0.549-0.61 1.094-1.188 1.321-1.428 2.818-2.712 3.969-4.281 0.553-0.755 0.993-1.564 1.406-2.407 0.918-0.322 1.835-0.613 2.781-0.843 1.118-0.272 2.31-0.144 3.469-0.125v-6.625c-0.474-0.11-0.961-0.208-1.438-0.313 0.333-0.334 0.677-0.649 1.032-0.968 0.115-0.01 0.266-0.023 0.406-0.032v-15.656c0-1.108-0.892-2-2-2h-6.188c-0.759 0.79149-1.269 1.4551-2 2.5-0.432 0.3412-1.196 0.9325-1.312 1.0312-0.19 0.1618-0.372 0.3374-0.562 0.5-0.021-0.1043-0.043-0.1692-0.063-0.2812-5.388 4.6102 3.473-2.855-6.5 4.875-0.925 0.7169-1.459 1.118-2.063 1.594-1.204 0.601-2.384 1.185-3.562 1.75-1.049-0.213-2.087-0.4-3.406-0.625-2.558-0.437-5.277-0.124-7.719-1-1.433-0.514-2.038-2.4012-3.4375-3.0002-0.3408-0.0463-0.4277-0.0574-0.7187-0.0938l0.5312-0.7188c0.1498-0.6153 0.1893-1.2664 0.2812-1.9062 2.1868-1.3885 5.7298-3.5878 5.9998-3.7188 0.244-0.11801-0.617 0.8381-0.375 0.7188 0.997-0.49 1.95-1.0588 2.906-1.625h-2.843c-1.468 0.79875-3.133 1.7568-5.3128 3.0312 0.1021-0.2979 0.2371-0.5741 0.4058-0.8437 0.501-0.7984 1.127-1.5077 1.782-2.1875h-2.969c-1.5924 2.7699-2.5141 4.344-3.6562 6.1875-0.2582 0.1514-0.5222 0.2876-0.7813 0.4375-0.0133-0.0182-0.0182-0.044-0.0313-0.0625-1.2415-1.7641-0.7221-4.2797-0.8437-6.5625h-1.5625zm4.25 38.75c-0.0019-0.07-0.0244-0.15-0.0312-0.219-0.9146 0.09-2.7618 0.257-4.25 0.407 1.4763-0.063 3.1981-0.136 4.2812-0.188zm-4.2812 0.188c-0.6787 0.028-1.1999 0.031-1.9688 0.062v0.125c0.7124-0.07 1.3787-0.128 1.9688-0.187zm43.562-36.938c0.291-0.0021 0.545 0.0663 0.688 0.2812 0.571 0.8578-0.611 1.9727-0.875 2.9688-0.319 1.2049-0.577 2.4147-0.875 3.625-0.072 6.502 0.302 1.411-1.469 6.813-0.887 0.141-1.767 0.288-2.656 0.406-7.885-3.58-3.368-2.069-6.282-1.469-1.203-0.348-2.375-0.653-3.374-0.937 0.504-0.436 1.023-0.878 1.5-1.344 1.106-1.082 1.929-2.4098 2.812-3.6878 1.356-0.7654 2.73-1.4914 4.031-2.3437 0.958-0.6272 1.768-1.4655 2.657-2.1875 0.508-0.5121 0.961-1.0879 1.531-1.5312 0.164-0.1278 0.355-0.2315 0.531-0.3438 0.513-0.0046 1.23-0.246 1.781-0.25zm-5 1.3438c-1.318 1.9164-2.544 3.5546-3.469 3.0937l3.469-3.0937zm-6.906 3.2812c-0.122 0.2999-0.252 0.5896-0.5 0.7812-0.579 0.4473-1.246 0.7375-1.937 1 0.504-0.3734 0.845-0.6632 1.531-1.1562 0.337-0.2422 0.597-0.408 0.906-0.625zm0.969 0.375c-0.392 0.5149-0.647 1.1335-1.156 1.5312-1.618 1.2643-3.445 2.2728-5.157 3.4068-0.4 0.267-0.812 0.521-1.219 0.781-0.244-0.061-0.499-0.129-0.75-0.188 0.819-0.791 1.407-1.372 2.094-1.969 2.068-1.1745 4.152-2.3335 6.188-3.562zm-17.469 4.812c0.781-0.027 1.544-0.013 2.313 0.126 0.847 0.152 1.657 0.445 2.437 0.812-1.656 0.067-3.303 0.626-4.969 0.719-1.135 0.063-2.271-0.088-3.406-0.157-0.176-0.01-0.355-0.017-0.531-0.031-0.194-0.375-0.401-0.71-0.625-1.062 1.585-0.063 3.197-0.351 4.781-0.407zm13.031 0.126c-0.344 0.357-0.753 0.82-1.187 1.281-0.071-0.019-0.148-0.044-0.219-0.063 0.476-0.396 0.937-0.814 1.406-1.218zm-4.5 0.062c0.072 0.002 0.021 0.097-0.218 0.344-0.1-0.023-0.181-0.072-0.282-0.094 0.168-0.081 0.332-0.169 0.5-0.25zm-0.25 3.781c0.417 0.017 0.839 0.054 1.25 0.125-0.821 1.045-1.632 2.073-2.656 2.906-1.549 1.261-3.219 2.364-4.906 3.438-0.503-0.597-0.71-0.82-1.125-1.312 1.066-0.652 2.676-1.701 5.25-3.5 0.748-0.524 1.465-1.097 2.187-1.657zm-14.906 0.281c0.185 0.206 0.369 0.43 0.562 0.657-1.1659 0.283-2.3146 0.525-3.4682 0.75 0.2456-0.332 0.563-0.619 0.875-0.907 0.7263-0.314 1.2374-0.478 2.0312-0.5zm17.156 0.063c0.01 0.002 0.022-0.002 0.032 0 1.729 0.878 3.555 1.445 5.718 1.031 2.591 0.843 5.361 1.25 7.782 2.5 0.318 0.165 0.614 0.358 0.906 0.563-0.057 0.444-0.129 0.893-0.282 1.312-0.405 1.117-1.267 2.679-2.25 4.25-3.474 1.067-6.929 2.155-10.468 2.969-1.293 0.298-2.624 0.528-3.938 0.719-0.925-1.096-2.944-3.516-5.594-6.657 1.681-1.384 3.322-2.831 5-4.218 1.015-0.838 2.052-1.663 3.094-2.469zm-6.937 0.25c-1.658 1.351-2.939 2.366-3.938 3.156-0.369-0.44-1.482-1.787-1.5-1.812-0.284-0.403-0.516-0.844-0.75-1.281 0.927 0.197 1.842 0.44 2.781 0.406 1.143-0.042 2.279-0.245 3.407-0.469zm21.031 0.875c0.274 0.047 0.517 0.085 0.75 0.125-0.012 0.041-0.02 0.084-0.031 0.125-0.24-0.081-0.48-0.167-0.719-0.25zm-30.219 0.031c0.447 0.543 0.931 1.131 1.438 1.813 0.62 0.833 1.115 1.543 1.562 2.187-3.302 2.412 3.815-3.909-5.281 4.375-0.1642 0.12-0.4216 0.281-0.5938 0.406 0.0891-0.282 0.2061-0.556 0.2813-0.843-2.5192-3.437-1.5008-1.001-1.5-5.157 0.0001-0.309-0.0762-0.653-0.1563-0.968 1.38-0.597 2.7718-1.188 4.2498-1.813zm8.344 1.125c-0.208 0.21-0.395 0.41-0.625 0.594-0.092 0.074-0.188 0.146-0.281 0.219 0.293-0.252 0.599-0.544 0.906-0.813zm24.156 3.438c0.702 0.657 1.385 1.347 2.157 1.906 0.048 0.035 0.107 0.059 0.156 0.094-1.281 0.315-2.545 0.662-3.813 1.031 0.465-1.03 0.929-2.066 1.5-3.031zm-28.656 0.718c0.388 0.595 0.703 1.056 0.937 1.469-0.881 0.574-1.747 1.158-2.593 1.781-1.89 1.393-3.584 3.047-5.3752 4.563l-0.4063 0.281c-0.15-0.632-0.1142-1.265 0-1.906 1.1291-0.722 1.9948-1.266 4.2185-2.719 2.028-2.193 2.72-3.009 3.219-3.469zm1.406 2.407c1.082 2.29-0.61 0.639 5.657 4.875-0.408 0.059-0.813 0.121-1.219 0.187-3.938 0.491-7.73 1.616-11.563 2.594-0.204 0.004-0.3997 0.021-0.5935 0.031-0.0201-0.02-0.043-0.041-0.0625-0.062-0.2604-0.282-0.4586-0.563-0.625-0.844 0.6327-0.78 1.229-1.551 2-2.188 2.024-1.67 4.276-3.059 6.406-4.593zm21.375 2.937c-0.86 1.23-1.72 2.338-2.375 3.032-1.089 1.153-2.307 2.172-3.531 3.187-0.988-0.096-1.979-0.169-2.969-0.25-0.68-0.739-1.6-1.659-2.875-2.969 2.695-0.621 5.466-0.991 8.125-1.75 1.233-0.351 2.426-0.791 3.625-1.25zm-13.531 3.438c0.039 0.027 0.055 0.035 0.094 0.062 1.12 0.67 2.128 1.502 3.093 2.375-2.734-0.188-5.484-0.251-8.218-0.437-0.579-0.04-1.322-0.114-2.063-0.188 2.362-0.608 4.727-1.227 7.094-1.812zm-23.281 2.406c0.0075 0.012 0.0237 0.019 0.0312 0.031-0.0175-0.002-0.0774 0.002-0.0938 0 0.0178-0.014 0.0447-0.017 0.0626-0.031zm11.656 1.281c4.479 0.132 12.538 0.531 12.594 0.531 1.737 0.011 2.878 0.006 4.094 0 0.134 0.137 0.272 0.27 0.406 0.407-0.512 0.604-1.073 1.144-1.688 1.625-1.879 0.157-3.776 0.33-5.656 0.468-5.385 0.07-5.705 0.067-8.25 0.094-0.153-0.429-0.282-0.871-0.5-1.25-0.351-0.609-0.605-1.294-1-1.875zm24.844 2.781c0.934 0.007 2.125 0.037 4.625 0.063-1.018 0.044-2.017 0.094-3.031 0.187-0.318 0.03-0.424 0.036-0.719 0.063-0.3-0.106-0.602-0.22-0.875-0.313zm-5.656 0.282c0.208 0.206 0.412 0.423 0.624 0.625-4.215 0.483 1.922 0.091-4.281 0.469 0.694-0.381 1.267-0.716 1.75-0.969 0.462-0.035 1.524-0.097 1.907-0.125zm-4.969 0.344c-0.451 0.302-0.915 0.614-1.375 0.906-0.322 0.02-0.208 0.009-0.563 0.031l-6.656 0.844c-0.02 0.002-0.042-0.003-0.063 0-0.06-0.138-0.129-0.268-0.187-0.407-1.051-0.171-2.237 0.057-3.125-0.531-0.289-0.191-0.484-0.49-0.625-0.812 1.723 0.099 3.625 0.212 7.031 0.375 2.832-0.193 3.768-0.276 5.563-0.406z" transform="translate(0 1004.4)" fill="#f1caff"/>
  <path opacity=".25" style="color:#000000" d="m5.4375 0l-4.0313 2.2188c2.9629 0.6376-0.199-0.4736 1.6563 1.8437 0.5439 0.6793 2.1229 0.661 2.125 1.5313 0.0041 1.6811-2.2192 2.9173-2.0937 4.5942 0.0229 0.306 0.1579 0.549 0.3437 0.781-0.4902 0.337-0.9508 0.68-1.375 1.093-0.6158 0.601-0.7779 1.577-1.3125 2.25-0.24378 0.308-0.48482 0.587-0.75 0.876v3.468l2-1.531c0.9837-1.377 1.4039-1.932 1.5625-2.156-0.0669 0.16 0.0455 0.164 0.9375-0.813 0.51-0.118 1.027-0.225 1.5-0.437 0.2571 0.751 0.3667 1.54 0.4688 2.343-0.9653 0.801-1.9097 1.627-2.7813 2.5-1.1292 1.133-1.9849 2.484-3 3.719-0.22472 0.274-0.46141 0.54-0.6875 0.813v7.812c1.8327-0.91 3.6778-1.782 5.4375-2.812 0.1452 1.102 0.3017 2.172 0.4687 3.375-0.1666 0.102-0.3338 0.21-0.5 0.312-0.7656 0.473-1.3586 1.169-2.0937 1.688-1.0796 0.761-2.1937 1.453-3.3125 2.156v2.406c0.49173-0.011 1.0614-0.311 1.5-0.093 0.2949 0.146-0.234 1.03 0.0938 1 1.0619-0.099 1.9309-0.929 2.9374-1.282 0.4458-0.156 0.9104-0.165 1.375-0.25 0.2368 0.076 0.4743 0.295 0.7188 0.25-0.0584 1.726-0.4212 3.449-0.1875 5.156 0.3458 2.527 0.5961 4.143 0.8125 5.188h0.75c0.0222-0.515 0.0635-0.989 0.0625-1.438 0.001 0.153 0.0244 1.075 0.0313 1.438h7.4062c0.152-0.396 0.329-0.768 0.406-1.156 1.05-1.318 2.412-2.456 3.344-3.844-0.095 0.443-0.043 0.92-0.031 1.375 0.012 0.441 0.515 0.939 0.281 1.313-0.38 0.606-1.717 1.433-3.062 2.187 0.991-0.47 2.011-0.928 3.593-1.656-0.106 0.192-0.309 0.538-0.375 0.656 0.502-0.248 4.544-1.788 6.594-3.5 0.331-0.149 0.528-0.219 0.875-0.375l-0.344 1.531c3.245-0.39 0.06 3.006 1.031 3.469h0.532c0.087-0.023 0.19-0.054 0.281-0.094-0.012 0.134 0.184 0.003 0.5-0.281 0.717-0.441 1.415-1.006 1.687-0.437 0.114 0.237-0.049 0.522-0.312 0.812h0.5c4.279-2.24 4.837-1.906 5.281-3.5 0.311 0.125 0.613 0.226 0.938 0.312 0.462 0.124 6.14 0.854 10.75 1.438 0.01-0.083 0.031-0.164 0.031-0.25v-3.312c-2.212-0.155-4.468-0.066-6.562-0.75-0.474-0.155-0.889-0.404-1.282-0.719 0.406-0.243 0.823-0.46 1.219-0.719 0.379-0.248-1.335 0.359-1.344-0.094-0.012-0.634 0.87-0.889 1.313-1.344-0.899-1.337-0.206 0.079 0.156-1.937 0.066-0.368-0.299-0.768-0.188-1.125 0.226-0.722 0.738-1.319 1.126-1.969 0.503-0.843 1.469-1.522 1.562-2.5 0.066-0.695-0.774-1.166-1.156-1.75 0.746-1.917 1.213-3.039 1.531-3.812-0.696 1.417-1.726 2.866-0.625-3.063 0.343-1.849 1.979-3.372 2.094-5.25 0.085-1.387-1.085-2.559-1.532-3.875-0.091-0.269-0.143-0.422-0.218-0.656 0.881-0.544 2.295-1.408 3.906-2.375v-0.438c-0.721 0.192-1.496 0.319-1.906 0.063-0.311-0.194-0.357-0.8984-0.719-0.8438-0.615 0.093-1.31 0.3775-2.063 0.6878-0.079-0.3337-0.163-0.5584-0.281-0.7502-0.04-0.3945-0.133-0.7972-0.093-1.1876 0.05-0.4929 0.859-1.2064 0.406-1.4062-0.712-0.3135-1.563 0.2301-2.25 0.5938-0.021 0.0107-0.042 0.0204-0.063 0.0312-0.318-0.3033-0.633-0.6044-1.062-1.0312 0.025-4.7361 0.33-3.8228-0.781-6.4688h-21.469c-0.386 0.45676-0.77 0.9184-1.157 1.375l-0.25 0.6562c-2.832 1.3951-5.585 2.9179-6.687 3.5-0.3104-0.6222-0.6133-1.2256-0.6875-1.9062-0.1082-0.9929 0.6355-1.9792 0.5-2.9688-0.037-0.27045-0.223-0.46615-0.4375-0.6562h-3.5625zm15.782 2.4062c0.405-0.0326-0.164 0.7304-0.313 1.1563-0.572 0.0652-1.078 0.0953-1.062-0.3437 0.002-0.067 0.187-0.3088 0.437-0.5938 0.296-0.1138 0.619-0.193 0.938-0.2188zm12 0.5c0.372 0.7059 0.672 1.179 0.875 1.4688-0.521 0.1558-1.039 0.308-1.5 0.4375 0.22-0.6778 0.481-1.4404 0.625-1.9063zm1.562 2.5938c0.011 0.0971 0.015 0.1861 0.031 0.3438-0.094-0.0306-0.206-0.0206-0.312-0.0313 0.07-0.0891 0.177-0.2079 0.281-0.3125zm-11.906 0.4062c-0.057 0.0488-0.183 0.1908-0.25 0.25-0.026-0.0662-0.033-0.1151-0.063-0.2187 0.102 0.0038 0.212 0.005 0.313-0.0313zm-10.156 0.375c-0.052 0.0882-0.112 0.1565-0.157 0.25-0.238 0.5045 0.719 0.9092 1.219 1.1563 0.395 0.195 1.007 0.1291 1.5 0.1563-0.007 0.0029-0.663 0.3826-0.656 0.375 0.03-0.0635-0.376 0.0771-3.156 1.5-0.174-0.7025-0.51-1.3737-0.844-2.0313 0.703-0.4575 1.415-0.9164 2.094-1.4063zm22.375 1.875c0.049 0.3656 0.055 0.4007 0.125 0.875 0.204 0.266 0.421 0.4973 0.625 0.75-0.124 0.0546-0.252 0.1002-0.375 0.1563-0.086-0.2115-0.168-0.5188-0.25-0.9063-0.041-0.1911-0.087-0.3469-0.125-0.5937-0.015-0.0952-0.008-0.1814 0-0.2813zm-19 0.5c-0.037 0.2121-0.135 0.3987-0.282 0.5938-0.438 0.2731-0.891 0.5491-1.312 0.844-0.951 0.687-1.897 1.365-2.875 2.062 0.02-0.521 0.047-1.046 0-1.562 0.27-0.303-0.214-0.122 2.687-0.9378 0.588-0.34 1.192-0.6629 1.782-1zm-1.625 2.8438c-0.021 0.424 0.025 0.859 0 1.281 0.896 0.061 1.841-0.122 2.687 0.157-0.391 0.355-1.01 0.867-2.656 2.624-0.828 0.884-1.527 1.855-2.375 2.719-0.519 0.53-1.074 1.034-1.625 1.531l0.938-4.406c0.005-0.278 0.013-0.565 0.031-0.844 2.588-2.844 1.251-1.977 3-3.062zm4.531 3.062c0.43 0.075 0.887 0.108 1.281 0.282 0.535 0.235 0.854 0.99 1.438 1 0.521 0.009 0.901 0.028 1.343 0.031-0.082 0.724-0.196 1.651-0.468 3.75 0.177 1.179 0.23 1.534 0.344 2.187-0.34 0.147-0.672 0.3-1 0.469-1.733 0.89-3.405 1.906-5.094 2.875-1.181 0.678-2.378 1.329-3.563 2 0.012-0.13 0.031-0.273 0.031-0.406 0.003-1.685-1.714-2.808-2.874-4.125 2.274-1.502 4.721-2.815 6.656-4.719 0.484-0.476 0.23-1.385 0.625-1.937 0.302-0.422 0.765-0.886 1.281-1.407zm-12.844 5.25c-0.4818 1.589-0.9729 3.199-1.0937 4.844-0.001 0.014 0.0002 0.075 0 0.094-0.2127 0.198-0.1854 0.197-1.9687 1.875-0.8737 0.615-1.8166 1.132-2.6876 1.75 0.9564-1.142 1.6964-1.982 1.9063-2.219-0.3525 0.357-1.2258 1.071 0.9063-2.468 1.1426-1.897 1.993-2.931 2.9374-3.876zm20.719 1.75v1.844c0.627 0.674 1.582 1.22 2.25 1.875-0.158 0.349-0.265 0.61-0.625 1.344-0.404 0.824-1.022 1.588-1.281 2.469-0.183 0.621 0.187 1.318 0 1.937-0.174 0.576-0.494 1.207-0.875 1.844-0.018-0.199-0.035-0.395-0.063-0.594-1.085-7.843-1.731-2.247 0.594-10.719zm-3.719 1.563c0.348 2.341-0.655-0.004-5.281 7.937-0.217 0.374-0.414 0.753-0.563 1.157-0.138-0.08-0.265-0.175-0.406-0.25-0.326-0.173-0.671-0.52-1.031-0.438-1.085 0.249-1.969 1.043-3.031 1.375-0.258 0.081-0.519-0.125-0.782-0.187-0.927 0.448-1.406 0.82-1.812 1.062 0.539-1.611 1.707-3.104 2.438-4.656-1.122 0.708-3.7658 2.234-2.9692 1.75 1.0092-0.613 2.0262-1.223 3.0312-1.844 0.013-0.029 0.018-0.064 0.031-0.093 0.106-0.046 0.142-0.047 0.25-0.094 1.038-0.64 2.08-1.279 3.125-1.906 5.197-3.119 4.638-2.967 7-3.813zm-10.125 5.719c-0.095 0.059-0.185 0.128-0.281 0.187-0.015 0.034-0.047 0.061-0.062 0.094 0.437-0.276 0.677-0.425 0.343-0.281zm10.563-4.688c-0.493 3.575-0.807 5.869-1.313 9.906-0.458-0.041-0.917-0.08-1.375-0.124 0.238-1.41-0.358-2.907 0.032-4.282 0.452-1.595 1.479-3.538 2.656-5.5zm21.25 0.688c-0.06 0.126-0.232 0.564-0.438 1.062 0.349-0.718 0.588-1.383 0.438-1.062zm-7.375 0.344c0.1 1.332-1.654 2.317-2.219 3.593-0.365 0.824-0.501 1.435-0.562 2-0.255-0.325-0.409-0.649-0.313-1.031 0.447-1.771 1.912-3.097 3.094-4.562zm-31.219 8.624c0.0306 0.222 0.0659 0.516 0.0938 0.719-0.2844 0.17-0.5819 0.264-0.875 0.125-0.503-0.238-0.0013-0.534 0.7812-0.844zm5.188 3.282c0.092 0.006 0.189 0.038 0.281 0.062 0.501 0.134 0.731 0.723 1.093 1.094l2.626 0.25c-0.267 0.796-0.554 1.568-0.938 2.312-0.598 1.16-1.369 2.215-2.125 3.282 0.019-0.752-0.072-1.989-0.469-4.125-0.18-0.973-0.792-1.85-1.281-2.75 0.274-0.062 0.544-0.142 0.813-0.125zm8 1.718c2.058 0.14 0.872 0.022 2.25 0.688 0.005 0.063 0.022 0.125 0.031 0.188-0.566 0.755-1.276 1.407-1.844 2.156 0.401-0.941-0.416-2.008-0.437-3.032zm7.312 2.376c0.24 0.052 0.477 0.077 0.719 0.124l-0.125 0.563c-0.047-0.243-0.343-0.473-0.594-0.687zm0.531 0.968l-0.156 0.75c-0.214 0.089-0.434 0.181-0.656 0.282 0.375-0.342 0.652-0.687 0.812-1.032zm9.563 0.906c-0.088 0.079-0.145 0.131-0.25 0.219 0.01-0.046 0.021-0.076 0.031-0.125 0.07-0.035 0.148-0.058 0.219-0.094zm-1.782 0.876c0.147 0.075 0.29 0.147 0.438 0.218-0.529 0.405-1.041 0.772-1.375 1-0.142 0.097-0.026-0.356-0.156-0.468-0.063-0.054-0.098-0.079-0.157-0.126 0.417-0.204 0.834-0.419 1.25-0.624z" transform="translate(0 1004.4)" fill="#19aeff"/>
  <path opacity=".25" style="color:#000000" d="m12.531 0c-0.442 2.2988-1.46 4.4875-1.719 6.8125-0.19 1.7136-0.082 3.4535 0.188 5.1565 0.279 1.755 1.432 3.379 1.438 5.156 0.015 5.546-3.0148 10.578-5.188 15.375 3.586 11.56 0.6579-0.762 0.5938 12.219-0.0056 1.116 0.6256 2.199 0.9374 3.281h4.1878c-0.017-0.141-0.033-0.295-0.031-0.438 0.019-1.977 0.955-3.865 0.937-5.843-0.036-3.978-2.544-7.755-1.313-11.875 0.622-2.472 1.43-4.897 1.876-7.406 1.649-9.295-0.476-3.893 1.468-12.907 0.452-2.094 1.324-4.0777 1.844-6.156 0.329-1.3126 0.541-2.3597 0.719-3.375h-5.938zm13.781 0c0.324 0.11604 0.668 0.2557 0.813 0.4375 0.366 0.45767 0.555 0.8399 0.656 1.2187-0.299 0.1671-0.518 0.3213-0.843 0.5 0.286 0.1184 0.579 0.2084 0.906 0.2813-0.091 0.9028-0.709 1.793-1.188 3.0937-0.388 1.1888-1.094 2.3136-1.156 3.5626-0.047 0.9482 0.863 1.7692 0.844 2.7182-0.03 1.452-1.987 6.046-1.844 7.532 0.054 0.565 0.601 1.054 1.031 1.531-0.765 0.799-1.741 1.94-2.969 3.687-0.278 0.397 0.715 0.325 1.407 0.438-1.004 1.024-2.136 1.96-3.063 3.031 0.011 0.56 0.019 0.55 0.032 0.938-0.565 0.39-1.085 0.804-1.376 1.406-0.224 0.465 0.879 0.434 1.438 0.594 0.045 1.178-0.277-1.918-2.562 4.375-0.208 0.571 0.352 1.219 0.343 1.812-0.213 0.21-0.41 0.415-0.562 0.656-0.224 0.356-0.629 0.76-0.594 1.157-0.243 0.252-0.473 0.514-0.687 0.781-0.341 0.424-1.569 1.45-1.063 1.25 0.356-0.141 0.71-0.288 1.063-0.438-0.663 0.769-1.331 1.534-1.844 2.407-0.866 1.474-0.717 3.383-1.219 5.031h5.125c0.14-0.259 0.272-0.534 0.375-0.812 0.332-0.896-0.302-1.938 0-2.844 0.594-1.781 2.626-4.707 4.281-7 0.929-0.464 1.844-0.931 2.782-1.375-0.463 0.029-1.07 0.356-1.563 0.437 0.157-0.082 0.313-0.165 0.469-0.25 0.302-0.164-0.26 0.101-0.813 0.25-0.061-0.008-0.104-0.038-0.156-0.062 0.443-0.609 0.858-1.207 1.125-1.594 1.353-1.963 2.672-3.958 4-5.938l1.875-5.531c-0.015-0.157-0.07-0.31-0.094-0.469 0.166-0.18 0.313-0.381 0.438-0.593 0.3-0.513 0.09-1.188 0.125-1.781 0.03-0.522-0.071-1.077-0.032-1.594 0.088-0.254 0.158-0.502 0.25-0.782 0.807-1.434 2.073-2.579 3.094-3.874-0.47-1.031-0.751-1.612-0.937-2.032 0.107-0.247 0.2-0.492 0.281-0.75 0.029-0.092 0.04-0.187 0.062-0.281 0.126-0.042 0.303-0.117 0.469-0.187 0.691 0.234 1.816 0.617 3.781 1.468-0.768 1.967-1.713 3.882-2.312 5.906-1.012 3.419-2.27 6.453 1.219 8.969 1.508 1.088 4.795 0.072 5.25 1.875-3.767 7.545-3.994 4.128-1.813 10.094-0.663 2.77 2.218 4.565 2.438 7.031 0.051 0.571 0.006 1.147-0.094 1.719h2.5c0.717 0 1.335-0.373 1.688-0.938-0.001-0.01 0-0.02 0-0.031-0.016-0.942-0.221-1.932 0-2.843 0.07-0.291 0.18-0.566 0.312-0.844v-6.063c-0.503-0.275-1.041-0.541-1.438-0.875 0.365-1.7 1.244-3.361 1.094-5.094-0.118-1.37-1.378-2.393-1.844-3.687-0.487-1.357-0.565-2.835-0.968-4.219-0.395-1.353-1.342-2.561-1.406-3.968-0.083-1.807 1.632-3.662 0.968-5.344-0.582-1.477-2.708-1.673-4.062-2.5l0.156-4.3128c0.187-1.3122 0.479-2.6146 0.562-3.9374 0.06-0.9311-0.391-1.9097-0.156-2.8126 0.049-0.18606 0.139-0.35819 0.219-0.5312h-14.813z" transform="translate(0 1004.4)" fill="#ff4141"/>
 </g>
 <g>
  <flowRoot style="word-spacing:0px;letter-spacing:0px" xml:space="preserve" transform="translate(-18.262 -1007.9)" line-height="125%" font-size="40px" font-family="sans-serif" fill="#000000"><flowRegion><rect y="6.6343" x="-53.033" width="57.629" height="49.321"/></flowRegion><flowPara/></flowRoot>
  <path opacity=".25" style="color:#000000" d="m34.875 11c-0.15265-0.02357-0.33042 0.1475-0.46875 0.5625-0.27667 0.83-2.2221 6.5983-13.25 6.875-1.5683 0.039-2.8544-0.34804-3.9062-0.90625l-3.5938-3.5938-0.125 5.9375c-0.1401 1.1025-0.20094 1.7717-0.28125 2.3125l-0.78125-0.78125c-0.64826-0.64826-1.4151-1.1119-2.1875-1.375-1.0225-0.34824-2.0305-0.33158-2.75 0.1875-0.71951 0.51908-1.1017 1.4824-1.0938 2.5625 0.00799 1.0801 0.39415 2.268 1.125 3.2812 0.18678 0.25896 0.40451 0.49826 0.625 0.71875l21.218 21.218h16.594c1.108 0 2-0.892 2-2v-21.938l-13-13c-0.035-0.035-0.083-0.056-0.125-0.062z" fill-rule="evenodd"/>
 </g>
 <g>
  <path style="color:#000000" d="m34.875 11c-0.15265-0.02357-0.33042 0.1475-0.46875 0.5625-0.27667 0.83-2.2221 6.5983-13.25 6.875-5.2623 0.13086-7.5-4.5-7.5-4.5l-0.125 5.9375c-0.15152 1.1924-0.22368 1.9468-0.3125 2.5-0.05739-0.08948-0.09356-0.19437-0.15625-0.28125-0.73104-1.0131-1.7588-1.7143-2.7812-2.0625-1.0225-0.34824-2.0305-0.33158-2.75 0.1875-0.71951 0.51908-1.1017 1.4824-1.0938 2.5625 0.00799 1.0801 0.39415 2.268 1.125 3.2812 0.73097 1.0134 1.7586 1.7453 2.7812 2.0938 0.65678 0.22378 1.2993 0.27537 1.875 0.15625 7.452 5.549 25.904 9.946 22.97-16.689-0.049-0.384-0.16-0.601-0.313-0.625z" fill-rule="evenodd" fill="#fff"/>
 </g>
 <path opacity=".4" style="color:#000000" d="m2 0c-1.108 0-2 0.892-2 2v44c0 1.108 0.892 2 2 2h44c1.108 0 2-0.892 2-2v-44c0-1.108-0.892-2-2-2h-44zm0 0.5h44c0.83101 0 1.5 0.66899 1.5 1.5v44c0 0.83101-0.66899 1.5-1.5 1.5h-44c-0.831 0-1.5-0.669-1.5-1.5v-44c0-0.831 0.669-1.5 1.5-1.5z" fill="url(#linearGradient12443)"/>
</svg>
