<svg xmlns:rdf="http://www.w3.org/1999/02/22-rdf-syntax-ns#" xmlns="http://www.w3.org/2000/svg" height="48" width="48" version="1.1" xmlns:cc="http://creativecommons.org/ns#" xmlns:xlink="http://www.w3.org/1999/xlink" xmlns:dc="http://purl.org/dc/elements/1.1/">
 <defs>
  <linearGradient id="linearGradient12443" y2="3" gradientUnits="userSpaceOnUse" y1=".5" x2="27.5" x1="27.5">
   <stop stop-color="#fff" offset="0"/>
   <stop stop-color="#fff" stop-opacity="0" offset="1"/>
  </linearGradient>
  <linearGradient id="linearGradient4951" y2="30.985" gradientUnits="userSpaceOnUse" x2="24.329" gradientTransform="matrix(.78253 0 0 .78253 5.5363 4.1671)" y1="30.543" x1="26.163">
   <stop offset="0"/>
   <stop stop-opacity="0" offset="1"/>
  </linearGradient>
  <linearGradient id="linearGradient4962" y2="46.986" gradientUnits="userSpaceOnUse" x2="39.525" gradientTransform="matrix(.78253 0 0 .78253 5.5363 4.1671)" y1="19.111" x1="14.969">
   <stop stop-color="#fff" offset="0"/>
   <stop stop-color="#fff" stop-opacity="0" offset="1"/>
  </linearGradient>
  <linearGradient id="linearGradient4965" y2="30.293" gradientUnits="userSpaceOnUse" x2="21.213" gradientTransform="matrix(.78253 0 0 .78253 2.5341 4.4379)" y1="28.083" x1="32.35">
   <stop offset="0"/>
   <stop stop-opacity="0" offset="1"/>
  </linearGradient>
 </defs>
 <g transform="translate(0 -1004.4)">
  <rect style="color:#000000" ry="2" height="48" width="48" y="1004.4" x="0" fill="#9eabb0"/>
 </g>
 <g>
  <flowRoot style="word-spacing:0px;letter-spacing:0px" line-height="125%" xml:space="preserve" font-size="40px" transform="translate(-18.262 -1007.9)" font-family="sans-serif" fill="#000000"><flowRegion><rect y="6.6343" width="57.629" x="-53.033" height="49.321"/></flowRegion><flowPara/></flowRoot>
  <path opacity=".25" style="block-progression:tb;color:#000000;text-transform:none;text-indent:0" d="m34.031 11.438c-0.119 0.359-0.537 1.582-1.875 2.906-1.328 1.314-3.573 2.709-7.375 3.344-1.395-0.766-3.161-0.638-4.437 0.312-0.602-0.047-1.146-0.153-1.656-0.312l-5.376-5.376-0.062 1.626-0.125 5.25c-0.291 0.528-0.501 1.114-0.5 1.718v0.032c-1.746-0.211-3.5814 0.147-4.75 1.156-1.2812 1.106-1.5555 2.864-0.625 4.187l21.719 21.719h17.031c1.108 0 2-0.892 2-2v-20.594l-13.969-13.968z" fill-rule="evenodd"/>
 </g>
 <g>
  <path style="color:#000000" d="m13.655 13.924s2.2494 4.6386 7.5117 4.5077c11.028-0.27667 12.962-6.0294 13.238-6.8594 0.27667-0.83 0.7-0.70428 0.79788 0.06281 3.5967 32.647-24.96 18.639-25.975 13.079 5.6717-1.66 4.2883-4.8417 4.2883-4.8417l0.13833-5.9483z" fill-rule="evenodd" stroke="#0e232e" stroke-miterlimit="10" stroke-width=".78253" fill="#804d00"/>
  <path style="color:#000000" d="m17.852 27.695c5.2734 1.0547 7.9589 0.07676 9.5306-1.1368-0.415-0.53604-1.124-1.124-1.124-1.124s1.8415 0.51173 2.49 1.3488c0.6466 0.83462 0.24009 1.3489 0.07087 2.4168-0.37672-0.93794-1.0799-1.2897-1.1751-1.6624-1.4135 1.9539-4.935 1.8728-9.7924 0.15766z" fill-rule="evenodd" fill="url(#linearGradient4965)"/>
  <path opacity=".18539" style="color:#000000" d="m34.466 13.435c-0.43977 0.72532-1.1006 1.591-2.1031 2.421-2.0596 1.7052-5.5173 3.2572-11.176 3.3991-3.3057 0.0822-5.4407-1.5135-6.7493-2.9345l-0.09782 3.4969c0.10651 0.32773 0.32511 1.0881-0.04891 2.1275-0.40247 1.1185-1.686 2.2626-3.8882 3.1301 0.19589 0.40851 0.38773 0.81667 0.97817 1.3939 0.8044 0.7864 1.9227 1.634 3.2524 2.3965 2.6594 1.5251 6.105 2.7336 9.317 2.7878 3.212 0.05422 6.1485-0.96608 8.1677-3.9127 1.8614-2.7163 2.8817-7.3151 2.3476-14.306z" stroke="url(#linearGradient4962)" stroke-miterlimit="10" stroke-width=".78253" fill="none"/>
  <path style="color:#000000" d="m19.395 20.91a3.1817 3.1817 0 1 1 -6.3633 0 3.1817 3.1817 0 1 1 6.3633 0z" fill-rule="evenodd" stroke="#ccc" stroke-miterlimit="10" stroke-width=".78253" fill="#ccc"/>
  <path style="color:#000000" d="m13.057 22.108a4.7725 3.3892 54.192 1 1 -5.4967 3.966 4.7725 3.3892 54.192 0 1 5.4967 -3.966z" fill-rule="evenodd" stroke="#0e232e" stroke-miterlimit="10" stroke-width=".78253" fill="#0e232e"/>
  <path style="color:#000000" d="m18.49 21.381a1.5319 1.5319 0 1 1 -3.0638 0 1.5319 1.5319 0 1 1 3.0638 0z" fill-rule="evenodd" stroke="#0e232e" stroke-miterlimit="10" stroke-width=".78253" fill="#0e232e"/>
  <path style="color:#000000" d="m26.52 21.255a3.735 3.735 0 0 1 -7.47 0 3.735 3.735 0 1 1 7.47 0z" fill-rule="evenodd" stroke="#ccc" stroke-miterlimit="10" stroke-width=".78253" fill="#ccc"/>
  <path style="color:#000000" d="m25.456 21.809a1.7983 1.7983 0 1 1 -3.5967 0 1.7983 1.7983 0 1 1 3.5967 0z" fill-rule="evenodd" stroke="#0e232e" stroke-miterlimit="10" stroke-width=".78253" fill="#0e232e"/>
  <path style="color:#000000" d="m34.167 32.41 0.72493-1.4437c-2.6969-1.973-7.6683-3.4086-7.6683-3.4086-0.86174-0.4014-1.1337 0.37275-0.53699 0.87599 0 0 4.2516 3.0479 7.4803 3.9763z" stroke="#804d00" stroke-linecap="round" stroke-width=".78253" fill="#b88100"/>
  <path style="color:#000000" d="m37.624 33.741 0.388-0.86-3.011-1.928-0.24-0.021-0.103-0.332c-0.43737 0.2739-1.0729 1.2914-0.90442 1.8634l0.32519-0.12299 0.17616 0.17025 3.3697 1.2301z" stroke="#999" stroke-linecap="round" stroke-width=".78253" fill="#ccc"/>
  <path style="color:#000000" d="m42 37.389c-0.93866-3.1863-1.2716-5.7161-3.7246-5.491-1.9768 0.18142-2.1152 3.0138-0.07246 3.7954 1.968 0.753 3.797 1.696 3.797 1.696z" fill="#b88100"/>
  <path style="color:#000000" d="m23.537 29.002c1.1717 0.11197 2.2299-0.21302 2.6699-0.37096 0.07686-0.43461 0.41987-1.2687 1.6011-1.3236l-0.415-0.72625s-1.539 1.0548-3.1817 1.366l-0.67438 1.0548z" fill-rule="evenodd" fill="url(#linearGradient4951)"/>
 </g>
 <path opacity=".4" style="color:#000000" d="m2 0c-1.108 0-2 0.892-2 2v44c0 1.108 0.892 2 2 2h44c1.108 0 2-0.892 2-2v-44c0-1.108-0.892-2-2-2h-44zm0 0.5h44c0.83101 0 1.5 0.66899 1.5 1.5v44c0 0.83101-0.66899 1.5-1.5 1.5h-44c-0.831 0-1.5-0.669-1.5-1.5v-44c0-0.831 0.669-1.5 1.5-1.5z" fill="url(#linearGradient12443)"/>
</svg>
