<svg xmlns:rdf="http://www.w3.org/1999/02/22-rdf-syntax-ns#" xmlns="http://www.w3.org/2000/svg" height="48" width="48" version="1.1" xmlns:cc="http://creativecommons.org/ns#" xmlns:xlink="http://www.w3.org/1999/xlink" xmlns:dc="http://purl.org/dc/elements/1.1/">
 <defs>
  <linearGradient id="linearGradient12443" y2="3" gradientUnits="userSpaceOnUse" x2="27.5" y1=".5" x1="27.5">
   <stop stop-color="#fff" offset="0"/>
   <stop stop-color="#fff" stop-opacity="0" offset="1"/>
  </linearGradient>
 </defs>
 <g transform="translate(0 -1004.4)">
  <rect style="color:#000000" ry="2" height="48" width="48" y="1004.4" x="0" fill="#999"/>
  <path style="color:#000000" d="m9 1016.4h30c0.554 0 1 0.446 1 1v22c0 0.554-0.446 1-1 1h-30c-0.554 0-1-0.446-1-1v-22c0-0.554 0.446-1 1-1z" fill="#fff"/>
  <path style="color:#000000" d="m9 12c-0.554 0-1 0.446-1 1v22c0 0.554 0.446 1 1 1h3v-19.5l12 11.5 12-11.5v19.5h3c0.554 0 1-0.446 1-1v-22c0-0.554-0.446-1-1-1h-4l-11 11-11-11z" transform="translate(0 1004.4)" fill="#dc0000"/>
 </g>
 <g>
  <flowRoot style="word-spacing:0px;letter-spacing:0px" xml:space="preserve" transform="translate(-18.262 -1007.9)" line-height="125%" font-size="40px" font-family="sans-serif" fill="#000000"><flowRegion><rect y="6.6343" x="-53.033" width="57.629" height="49.321"/></flowRegion><flowPara/></flowRoot>
  <path opacity=".25" d="m40 12.5-16 15.5-2-2-0.5-0.5-13.5-13 12.438 13.469-11.938 9.531 12.625-8.75 2.875 3.25l18 18h4c1.108 0 2-0.892 2-2v-25.5z"/>
 </g>
 <path opacity=".4" style="color:#000000" d="m2 0c-1.108 0-2 0.892-2 2v44c0 1.108 0.892 2 2 2h44c1.108 0 2-0.892 2-2v-44c0-1.108-0.892-2-2-2h-44zm0 0.5h44c0.83101 0 1.5 0.66899 1.5 1.5v44c0 0.83101-0.66899 1.5-1.5 1.5h-44c-0.831 0-1.5-0.669-1.5-1.5v-44c0-0.831 0.669-1.5 1.5-1.5z" fill="url(#linearGradient12443)"/>
</svg>
