<svg xmlns:rdf="http://www.w3.org/1999/02/22-rdf-syntax-ns#" xmlns="http://www.w3.org/2000/svg" height="48" width="48" version="1.1" xmlns:cc="http://creativecommons.org/ns#" xmlns:xlink="http://www.w3.org/1999/xlink" xmlns:dc="http://purl.org/dc/elements/1.1/">
 <defs>
  <linearGradient id="linearGradient12443" y2="3" gradientUnits="userSpaceOnUse" y1=".5" x2="27.5" x1="27.5">
   <stop stop-color="#fff" offset="0"/>
   <stop stop-color="#fff" stop-opacity="0" offset="1"/>
  </linearGradient>
  <radialGradient id="radialGradient3914" gradientUnits="userSpaceOnUse" cy="43" cx="24" gradientTransform="matrix(1 0 0 .095238 0 38.905)" r="21">
   <stop stop-color="#6dccff" offset="0"/>
   <stop stop-color="#19aeff" stop-opacity="0" offset="1"/>
  </radialGradient>
  <linearGradient id="linearGradient3922" y2="1052.1" gradientUnits="userSpaceOnUse" x2="23.158" y1="1004.8" x1="23.158">
   <stop stop-color="#c1c1c1" offset="0"/>
   <stop stop-color="#999" offset="1"/>
  </linearGradient>
  <linearGradient id="linearGradient3973" y2="40.476" gradientUnits="userSpaceOnUse" y1="46.285" x2="26.528" x1="26.528">
   <stop offset="0"/>
   <stop stop-opacity="0" offset="1"/>
  </linearGradient>
  <filter id="filter3994-0" width="1.2117" y="-1.032" x="-.10585" height="3.064" color-interpolation-filters="sRGB">
   <feGaussianBlur stdDeviation="1.72"/>
  </filter>
  <filter id="filter3891" height="1.2401" width="1.2399" y="-.12004" x="-.11996">
   <feGaussianBlur stdDeviation="1.3999854"/>
  </filter>
  <clipPath id="clipPath3913" clipPathUnits="userSpaceOnUse">
   <path opacity=".25" style="color:#000000" d="m24 6c-3.583 0-7.173 1.3601-9.906 4.094-5.1678 5.167-5.445 13.374-0.844 18.875l0.59375 0.59375-1.5938 0.53125h-0.03125c-1.6006 0.4466-2.5459 2.0853-2.125 3.6562 0.04653 0.17364 0.113 0.34289 0.1875 0.5 0.02604 0.05474 0.06458 0.10368 0.09375 0.15625 0.01823 0.03304 0.04308 0.06159 0.0625 0.09375 0.09381 0.15466 0.19357 0.3046 0.3125 0.4375 0.03531 0.03933 0.05646 0.08771 0.09375 0.125 0.05736 0.05766 0.12572 0.10361 0.1875 0.15625l12.78 12.781h22.188c1.108 0 2-0.892 2-2v-21.812l-14.094-14.094c-2.733-2.7339-6.323-4.094-9.906-4.094z"/>
  </clipPath>
 </defs>
 <g transform="translate(0 -1004.4)">
  <path style="color:#000000" d="m2 1004.4h44c1.108 0 2 0.892 2 2v44c0 1.108-0.892 2-2 2h-44c-1.108 0-2-0.892-2-2v-44c0-1.108 0.892-2 2-2z" fill="url(#linearGradient3922)"/>
  <path style="color:#000000" d="m0 39v4c0 1.108 0.892 2 2 2h44c1.108 0 2-0.892 2-2v-4c0 1.108-0.892 2-2 2h-44c-1.108 0-2-0.892-2-2z" transform="translate(0 1004.4)" fill="#0e232e"/>
  <rect opacity=".6" style="color:#000000" ry=".125" height="4" filter="url(#filter3994-0)" width="39" y="1045.4" x="5" fill="#0084c8"/>
  <rect ry=".125" style="color:#000000" transform="translate(0 1004.4)" height="4" width="42" y="41" x="3" fill="url(#radialGradient3914)"/>
 </g>
 <g>
  <flowRoot style="word-spacing:0px;letter-spacing:0px" line-height="125%" xml:space="preserve" font-size="40px" transform="translate(-18.262 -1007.9)" font-family="sans-serif" fill="#000000"><flowRegion><rect y="6.6343" width="57.629" x="-53.033" height="49.321"/></flowRegion><flowPara/></flowRoot>
  <path opacity=".25" style="color:#000000" d="m24 6c-3.583 0-7.173 1.3601-9.906 4.094-5.1678 5.167-5.445 13.374-0.844 18.875l0.594 0.593-1.594 0.532h-0.031c-1.601 0.446-2.5462 2.085-2.125 3.656 0.046 0.174 0.113 0.343 0.187 0.5 0.026 0.055 0.065 0.104 0.094 0.156 0.018 0.033 0.043 0.062 0.063 0.094 0.093 0.155 0.193 0.305 0.312 0.438 0.035 0.039 0.056 0.087 0.094 0.124 0.057 0.058 0.125 0.104 0.187 0.157l12.781 12.781h22.188c1.108 0 2-0.892 2-2v-21.812l-14.094-14.094c-2.733-2.7339-6.323-4.094-9.906-4.094z"/>
  <path opacity=".6" filter="url(#filter3891)" style="color:#000000" d="m24 6c-3.583 0-7.173 1.3601-9.906 4.094-5.1678 5.167-5.445 13.374-0.844 18.875l9.312-3.063 2.719-0.906-1.906 2.125-5.125 5.625c5.1519 2.32 11.424 1.3884 15.656-2.8438 5.4673-5.4673 5.4673-14.345 0-19.812-2.733-2.7339-6.323-4.094-9.906-4.094zm0 10c1.0237 0 2.0627 0.3752 2.8438 1.1562 1.5621 1.5621 1.5621 4.1254 0 5.6875s-4.1254 1.5621-5.6875 0-1.5621-4.1254 0-5.6875c0.781-0.781 1.82-1.156 2.844-1.156z" clip-path="url(#clipPath3913)"/>
 </g>
 <g>
  <path style="color:#000000" d="m24 6c-3.583 0-7.173 1.3601-9.906 4.094-5.1678 5.167-5.445 13.374-0.844 18.875l9.312-3.063 2.719-0.906-1.906 2.125-5.125 5.625c5.1519 2.32 11.424 1.3884 15.656-2.8438 5.4673-5.4673 5.4673-14.345 0-19.812-2.733-2.7339-6.323-4.094-9.906-4.094zm0 10c1.0237 0 2.0627 0.3752 2.8438 1.1562 1.5621 1.5621 1.5621 4.1254 0 5.6875s-4.1254 1.5621-5.6875 0-1.5621-4.1254 0-5.6875c0.781-0.781 1.82-1.156 2.844-1.156z" fill="#fff"/>
  <path style="color:#000000" d="m12.224 30.102c-1.6006 0.4466-2.5503 2.0731-2.1294 3.644 0.42369 1.5812 2.0768 2.517 3.6963 2.083 0.64654-0.17324 1.1748-0.55859 1.5669-1.0345l7.4504-8.1756-10.554 3.475z" fill="#fff"/>
  <path opacity=".25" style="color:#000000" d="m23.344 27.156-5.094 5.594c3.4614 1.5587 7.4231 1.6417 10.938 0.25l-5.8438-5.8438z"/>
  <path style="color:#000000" d="m20.125 21.031l-9.625 2.594c0.055 0.205 0.092 0.423 0.156 0.625 0.033 0.103 0.059 0.21 0.094 0.312 0.125 0.365 0.282 0.708 0.438 1.063 0.16 0.365 0.338 0.71 0.531 1.063 0.062 0.114 0.121 0.23 0.187 0.343 0.119 0.205 0.247 0.397 0.375 0.594 0.131 0.2 0.265 0.399 0.407 0.594 0.183 0.252 0.363 0.512 0.562 0.75l9.312-3.063 2.719-0.906-1.906 2.125-5.125 5.625c0.322 0.145 0.639 0.287 0.969 0.406 0.33 0.12 0.663 0.219 1 0.313 0.336 0.094 0.69 0.181 1.031 0.25 0.9 0.181 1.804 0.277 2.719 0.281 0.283 0 0.559-0.014 0.843-0.031 0.465-0.028 0.94-0.081 1.407-0.157 0.072-0.011 0.147-0.018 0.219-0.031 0.342-0.059 0.661-0.134 1-0.219 0.064-0.016 0.123-0.045 0.187-0.062l-2.594-9.625c-1.337 0.346-2.834 0.009-3.875-1.031-0.521-0.522-0.858-1.143-1.031-1.813z" fill="#ff4141"/>
  <path style="color:#000000" d="m24 6v10c1.024 0 2.063 0.375 2.844 1.156s1.156 1.813 1.156 2.844h10c0-0.479-0.014-0.961-0.062-1.438-0.044-0.427-0.107-0.834-0.188-1.25-0.008-0.042-0.023-0.082-0.031-0.124-0.093-0.456-0.208-0.906-0.344-1.344-0.12-0.385-0.255-0.756-0.406-1.125-0.021-0.052-0.041-0.105-0.063-0.157-0.154-0.363-0.317-0.746-0.5-1.093-0.028-0.054-0.065-0.103-0.094-0.157-0.004-0.007 0.005-0.023 0-0.031-0.211-0.388-0.472-0.728-0.718-1.093-0.236-0.349-0.454-0.707-0.719-1.032-0.018-0.022-0.044-0.04-0.063-0.062-0.285-0.346-0.589-0.684-0.906-1-0.32-0.321-0.657-0.6236-1-0.9065-0.022-0.0185-0.04-0.0441-0.062-0.0625-0.332-0.2706-0.681-0.4833-1.032-0.7188-0.258-0.1748-0.51-0.3424-0.781-0.5-0.115-0.0667-0.227-0.1555-0.343-0.2187-0.061-0.0326-0.127-0.062-0.188-0.0937-0.356-0.1865-0.695-0.3463-1.062-0.5-0.052-0.0219-0.105-0.0413-0.157-0.0626-0.369-0.1494-0.746-0.2896-1.125-0.4062-0.438-0.1364-0.888-0.2505-1.344-0.3438-0.042-0.0085-0.082-0.023-0.124-0.0312-0.412-0.0793-0.835-0.1452-1.25-0.1875-0.031-0.0031-0.064 0.0029-0.094 0-0.447-0.0425-0.896-0.0625-1.344-0.0625z" fill="#f90"/>
  <path style="color:#000000" d="m24 6c-0.45 0-0.898 0.0195-1.344 0.0625-0.103 0.0098-0.209 0.0191-0.312 0.0313-0.126 0.0149-0.25 0.0441-0.375 0.0624-0.487 0.0713-0.962 0.1594-1.438 0.2813-0.073 0.0187-0.146 0.0426-0.219 0.0625-0.271 0.0742-0.545 0.1595-0.812 0.25-0.261 0.0879-0.525 0.1775-0.781 0.2812-0.022 0.0089-0.041 0.0223-0.063 0.0313-0.052 0.0216-0.103 0.0402-0.156 0.0625-0.285 0.1219-0.567 0.2652-0.844 0.4062-0.132 0.067-0.276 0.1161-0.406 0.1876-0.086 0.0471-0.165 0.1072-0.25 0.1562l5 8.656c0.619-0.348 1.312-0.531 2-0.531v-10z" fill="#009100"/>
  <path style="color:#000000" d="m17 7.875c-0.131 0.0756-0.247 0.1707-0.375 0.25-0.153 0.095-0.318 0.1798-0.469 0.2812-0.172 0.1162-0.334 0.2522-0.5 0.375-0.164 0.1225-0.339 0.2132-0.5 0.3438-0.033 0.0271-0.06 0.0664-0.094 0.0938-0.123 0.1026-0.254 0.2048-0.374 0.3124-0.186 0.1646-0.356 0.3268-0.532 0.4998-0.021 0.021-0.041 0.042-0.062 0.063-0.154 0.153-0.293 0.31-0.438 0.468-0.094 0.104-0.19 0.207-0.281 0.313-0.156 0.181-0.293 0.376-0.437 0.563-0.106 0.136-0.213 0.266-0.313 0.406-0.184 0.257-0.365 0.512-0.531 0.781-0.198 0.32-0.392 0.665-0.563 1s-0.325 0.684-0.469 1.031c-0.134 0.328-0.266 0.665-0.374 1-0.12 0.367-0.224 0.749-0.313 1.125-0.059 0.251-0.112 0.498-0.156 0.75-0.03 0.164-0.039 0.335-0.063 0.5-0.027 0.197-0.074 0.396-0.094 0.594-0.015 0.157-0.02 0.311-0.031 0.469-0.023 0.358-0.0354 0.701-0.031 1.062 0.005 0.383 0.026 0.772 0.062 1.156 0.031 0.322 0.072 0.647 0.126 0.969 0.01 0.063 0.019 0.125 0.031 0.188 0.043 0.241 0.1 0.479 0.156 0.719 0.034 0.145 0.086 0.292 0.125 0.437l9.625-2.594c-0.346-1.337-0.009-2.834 1.031-3.875 0.256-0.256 0.542-0.455 0.844-0.625l-5-8.656z" fill="#9ade00"/>
 </g>
 <g>
  <path opacity=".4" style="color:#000000" d="m2 0c-1.108 0-2 0.892-2 2v44c0 1.108 0.892 2 2 2h44c1.108 0 2-0.892 2-2v-44c0-1.108-0.892-2-2-2h-44zm0 0.5h44c0.83101 0 1.5 0.66899 1.5 1.5v44c0 0.83101-0.66899 1.5-1.5 1.5h-44c-0.831 0-1.5-0.669-1.5-1.5v-44c0-0.831 0.669-1.5 1.5-1.5z" fill="url(#linearGradient12443)"/>
  <path opacity=".4" style="color:#000000" d="m2 0c-1.108 0-2 0.892-2 2v44c0 1.108 0.892 2 2 2h44c1.108 0 2-0.892 2-2v-44c0-1.108-0.892-2-2-2h-44zm0 0.5h44c0.83101 0 1.5 0.66899 1.5 1.5v44c0 0.83101-0.66899 1.5-1.5 1.5h-44c-0.831 0-1.5-0.669-1.5-1.5v-44c0-0.831 0.669-1.5 1.5-1.5z" fill="url(#linearGradient3973)"/>
 </g>
</svg>
