<svg xmlns:rdf="http://www.w3.org/1999/02/22-rdf-syntax-ns#" xmlns="http://www.w3.org/2000/svg" height="48" width="48" version="1.1" xmlns:cc="http://creativecommons.org/ns#" xmlns:xlink="http://www.w3.org/1999/xlink" xmlns:dc="http://purl.org/dc/elements/1.1/">
 <defs>
  <linearGradient id="linearGradient12443" y2="3" gradientUnits="userSpaceOnUse" y1=".5" x2="27.5" x1="27.5">
   <stop stop-color="#fff" offset="0"/>
   <stop stop-color="#fff" stop-opacity="0" offset="1"/>
  </linearGradient>
  <radialGradient id="radialGradient4265" gradientUnits="userSpaceOnUse" cy="24.5" cx="23.75" gradientTransform="matrix(1 0 0 57.755 0 -1390.5)" r=".25">
   <stop stop-color="#fff" offset="0"/>
   <stop stop-color="#fff" stop-opacity="0" offset="1"/>
  </radialGradient>
 </defs>
 <g transform="translate(0 -1004.4)">
  <rect style="color:#000000" ry="2" height="48" width="48" y="1004.4" x="0" fill="#364e59"/>
 </g>
 <g>
  <path opacity=".25" style="block-progression:tb;color:#000000;text-transform:none;text-indent:0" d="m11.406 7s-1.406 6.969-1.406 10.5c0 2.874 0.627 5.769 1.656 8.5l0.063 0.062 0.031 0.032c0.25 0.653 0.489 1.303 0.781 1.937 0.189 0.41 0.421 0.849 0.625 1.25 0.195 0.38 0.356 0.755 0.563 1.125 0.057 0.103 0.129 0.211 0.187 0.313 0.234 0.409 0.473 0.822 0.719 1.219 0.09 0.145 0.189 0.293 0.281 0.437 0.298 0.465 0.595 0.899 0.906 1.344 0.983 1.402 2.043 2.693 3.094 3.843 0.173 0.19 0.327 0.381 0.5 0.563 0.178 0.186 0.354 0.385 0.532 0.563h0.031l9.312 9.312h16.719c1.108 0 2-0.892 2-2v-27.594l-11.406-11.406h-5.938-19.25z"/>
 </g>
 <g>
  <path d="m11.4 7s-1.4 6.969-1.4 10.5c0 10.5 8.4 21 14 24.5 5.6-3.5 14-14 14-24.5 0-3.569-1.4-10.5-1.4-10.5z" fill="#005c94"/>
  <path style="block-progression:tb;text-indent:0;color:#000000;text-transform:none" d="m11.4 7s-1.4 6.9691-1.4 10.5c0 2.8745 0.6332 5.7566 1.6625 8.4875 0.01148 0.03 0.0322 0.057 0.04375 0.088 0.25371 0.6665 0.53347 1.3217 0.83125 1.9688 0.18873 0.41 0.40827 0.824 0.6125 1.225 0.19462 0.3797 0.36172 0.7669 0.56875 1.1375 0.05715 0.1028 0.11697 0.2041 0.175 0.3062 0.23364 0.409 0.49741 0.8289 0.74375 1.225 0.09033 0.1454 0.17061 0.2939 0.2625 0.4375 0.29808 0.4653 0.60728 0.9119 0.91875 1.3563 2.6241 3.7436 5.6747 6.7021 8.1812 8.2687 5.6-3.5 14-14 14-24.5 0-1.4793-0.24338-3.5236-0.525-5.425-0.066-0.447-0.107-0.761-0.175-1.182-0.067-0.416-0.067-0.369-0.131-0.744-0.292-1.7263-0.569-3.1495-0.569-3.1495h-5.95-19.25zm1.225 1.4h16.625l-16.494 16.494c-0.852-2.414-1.356-4.924-1.356-7.394 0-2.8105 0.9844-7.8273 1.225-9.1zm23.581 4.9438c0.21 1.473 0.394 2.996 0.394 4.156 0 4.8766-1.984 9.8731-4.6812 14.088-2.4648 3.8513-5.4733 6.8496-7.9188 8.575-2.203-1.5543-4.8235-4.1679-7.1312-7.4813l19.338-19.337z" fill="#fff"/>
  <path opacity=".25" style="color:#000000" d="m24 7v35c5.6-3.5 14-14 14-24.5 0-3.569-1.406-10.5-1.406-10.5h-12.594z"/>
  <path opacity=".15" style="color:#000000" d="m23.5 7v34.656c0.164 0.112 0.34 0.244 0.5 0.344v-35h-0.5z" fill="url(#radialGradient4265)"/>
 </g>
 <path opacity=".4" style="color:#000000" d="m2 0c-1.108 0-2 0.892-2 2v44c0 1.108 0.892 2 2 2h44c1.108 0 2-0.892 2-2v-44c0-1.108-0.892-2-2-2h-44zm0 0.5h44c0.83101 0 1.5 0.66899 1.5 1.5v44c0 0.83101-0.66899 1.5-1.5 1.5h-44c-0.831 0-1.5-0.669-1.5-1.5v-44c0-0.831 0.669-1.5 1.5-1.5z" fill="url(#linearGradient12443)"/>
</svg>
