<svg xmlns:rdf="http://www.w3.org/1999/02/22-rdf-syntax-ns#" xmlns="http://www.w3.org/2000/svg" height="48" width="48" version="1.1" xmlns:cc="http://creativecommons.org/ns#" xmlns:xlink="http://www.w3.org/1999/xlink" xmlns:dc="http://purl.org/dc/elements/1.1/">
 <defs>
  <linearGradient id="linearGradient12443" y2="3" gradientUnits="userSpaceOnUse" x2="27.5" y1=".5" x1="27.5">
   <stop stop-color="#fff" offset="0"/>
   <stop stop-color="#fff" stop-opacity="0" offset="1"/>
  </linearGradient>
  <linearGradient id="linearGradient3973" y2="40.476" gradientUnits="userSpaceOnUse" x2="26.528" y1="46.285" x1="26.528">
   <stop offset="0"/>
   <stop stop-opacity="0" offset="1"/>
  </linearGradient>
  <filter id="filter5262" height="1.2895" width="1.205" y="-.14473" x="-.10249">
   <feGaussianBlur stdDeviation="1.3664854"/>
  </filter>
  <clipPath id="clipPath5284" clipPathUnits="userSpaceOnUse">
   <path opacity=".25" d="m24 12.656c-7.5347 0-7.8346 0.03235-8.5938 0.15625-1.691 0.2759-2.9669 0.8877-4.125 2-1.099 1.0555-1.8093 2.2958-2.1562 3.7812-0.08778 0.3758-0.94597 9.3942-1.0938 11.469-0.07 0.9825-0.01218 2.1266 0.15625 2.7812 0.16593 0.6449 0.46373 1.1825 0.875 1.5938l13.563 13.563h23.375c1.108 0 2-0.892 2-2v-19.906l-11.188-11.188-0.125-0.125c-1.157-1.103-2.404-1.693-4.093-1.969-0.759-0.128-1.059-0.156-8.594-0.156z"/>
  </clipPath>
 </defs>
 <g transform="translate(0 -1004.4)">
  <path style="color:#000000" d="m2 1004.4h44c1.108 0 2 0.892 2 2v44c0 1.108-0.892 2-2 2h-44c-1.108 0-2-0.892-2-2v-44c0-1.108 0.892-2 2-2z" fill="#009100"/>
  <g transform="matrix(1.1 0 0 .44444 236.66 1036.5)"></g>
  <g transform="translate(-463.94 426.11)"></g>
 </g>
 <g>
  <path opacity=".25" d="m24 12.656c-7.535 0-7.835 0.033-8.594 0.156-1.691 0.276-2.967 0.888-4.125 2-1.099 1.056-1.809 2.296-2.156 3.782-0.0878 0.376-0.946 9.394-1.0938 11.468-0.07 0.983-0.0121 2.127 0.1563 2.782 0.1659 0.645 0.4637 1.182 0.875 1.594l13.562 13.562h23.376c1.108 0 2-0.892 2-2v-19.906l-11.188-11.188-0.124-0.125c-1.158-1.103-2.405-1.693-4.094-1.969-0.759-0.128-1.059-0.156-8.594-0.156z"/>
  <flowRoot style="word-spacing:0px;letter-spacing:0px" xml:space="preserve" transform="translate(-18.262 -1007.9)" line-height="125%" font-size="40px" font-family="sans-serif" fill="#000000"><flowRegion><rect y="6.6343" x="-53.033" width="57.629" height="49.321"/></flowRegion><flowPara/></flowRoot>
  <path opacity=".6" d="m10.491 35.232c-1.1685-0.311-1.9775-1.155-2.2972-2.398-0.16843-0.6546-0.23646-1.786-0.16646-2.7685 0.14778-2.0745 1.0141-11.086 1.1019-11.462 0.34695-1.4854 1.0592-2.737 2.1581-3.7925 1.1581-1.1123 2.4404-1.7371 4.1314-2.013 0.75918-0.1239 1.0467-0.1282 8.5814-0.1282s7.8222 0 8.5814 0.1282c1.6892 0.2756 2.9432 0.8828 4.1009 1.9858 1.2294 1.1713 2.0573 2.734 2.2744 4.2931 0.0836 0.6004 0.92249 9.6671 1.0151 10.97 0.0711 1.0012 0.004 2.1272-0.16537 2.7866-0.32342 1.257-1.1356 2.0951-2.3267 2.401-0.75765 0.1945-1.4521 0.092-2.3454-0.3447-1.1317-0.5539-1.8092-1.1758-4.622-4.2427l-2.3041-2.5122h-4.2082-4.2082l-2.3041 2.5122c-2.8129 3.0669-3.4904 3.6888-4.622 4.2427-0.88903 0.4351-1.6226 0.5404-2.3744 0.3408zm7.07-10.849c1.4743-0.3964 2.69-1.6339 3.0722-3.1273 0.13966-0.5457 0.13713-1.5446-0.005-2.0832-0.405-1.5316-1.607-2.7194-3.1591-3.1218-0.49021-0.1271-1.5348-0.1271-2.025 0-1.5522 0.4024-2.7549 1.591-3.1589 3.1218-0.14404 0.5458-0.14741 1.5428-0.007 2.0832 0.31682 1.2197 1.167 2.2731 2.2574 2.797 0.32749 0.1573 0.75166 0.3164 0.94262 0.3536 0.19095 0.037 0.40399 0.081 0.47343 0.097 0.22632 0.052 1.254-0.024 1.6097-0.1199zm-1.9892-1.1213c-0.0163-0.044-0.0371-0.5352-0.046-1.0907l-0.0164-1.01-1.0731-0.032-1.0731-0.032-0.0177-0.8472c-0.0133-0.6355 0.003-0.8601 0.0631-0.8986 0.0444-0.028 0.54242-0.052 1.1066-0.052l1.0258-0.001v-1.0289c0-0.7161 0.023-1.052 0.0757-1.1047 0.10472-0.1047 1.5744-0.1047 1.6791 0 0.0527 0.053 0.0757 0.3886 0.0757 1.1047v1.0289l1.0258 0.001c0.56418 0 1.0622 0.024 1.1066 0.052 0.0606 0.039 0.0764 0.2631 0.0631 0.8986l-0.0177 0.8472-1.0731 0.032-1.0731 0.032-0.0316 1.0731-0.0316 1.0731-0.86926 0.018c-0.66099 0.013-0.87637 0-0.89895-0.063zm16.558 0.6992c0.84264-0.4079 0.87383-1.6859 0.0529-2.167-0.37923-0.2222-0.90038-0.2222-1.2796 0-0.81845 0.4796-0.79041 1.7506 0.0478 2.1655 0.36108 0.1787 0.81173 0.1793 1.1789 0zm-2.9067-2.5264c0.62172-0.1566 1.0669-0.8849 0.90531-1.4811-0.15941-0.588-0.64327-0.9702-1.2283-0.9702-0.91942 0-1.5138 0.9714-1.1078 1.8102 0.1426 0.2946 0.38549 0.4993 0.74483 0.6277 0.28703 0.1025 0.32851 0.1034 0.68591 0.013zm5.6289-0.1652c0.40504-0.2488 0.58987-0.6227 0.55932-1.1318-0.0194-0.3228-0.0576-0.4345-0.21608-0.6312-0.27353-0.3397-0.61953-0.5208-0.997-0.5221-1.1354 0-1.6899 1.315-0.88948 2.1154 0.44002 0.44 1.0023 0.5018 1.5432 0.1697zm-2.6157-2.6506c0.34748-0.2442 0.53516-0.5956 0.53646-1.0044 0.002-0.5621-0.22973-0.9334-0.7249-1.1627-0.51584-0.2388-1.1277-0.075-1.5085 0.4034-0.25812 0.3245-0.30676 0.9046-0.10845 1.2933 0.1431 0.2805 0.46113 0.5572 0.74487 0.6479 0.30477 0.098 0.78311 0.017 1.0605-0.1775z" clip-path="url(#clipPath5284)" filter="url(#filter5262)"/>
  <rect style="color:#000000" height="10.479" width="24.812" y="15.334" x="11.75" fill="#009100"/>
 </g>
 <g>
  <path d="m10.491 35.232c-1.1685-0.311-1.9775-1.155-2.2972-2.398-0.16843-0.6546-0.23646-1.786-0.16646-2.7685 0.14778-2.0745 1.0141-11.086 1.1019-11.462 0.34695-1.4854 1.0592-2.737 2.1581-3.7925 1.1581-1.1123 2.4404-1.7371 4.1314-2.013 0.75918-0.1239 1.0467-0.1282 8.5814-0.1282s7.8222 0 8.5814 0.1282c1.6892 0.2756 2.9432 0.8828 4.1009 1.9858 1.2294 1.1713 2.0573 2.734 2.2744 4.2931 0.0836 0.6004 0.92249 9.6671 1.0151 10.97 0.0711 1.0012 0.004 2.1272-0.16537 2.7866-0.32342 1.257-1.1356 2.0951-2.3267 2.401-0.75765 0.1945-1.4521 0.092-2.3454-0.3447-1.1317-0.5539-1.8092-1.1758-4.622-4.2427l-2.3041-2.5122h-4.2082-4.2082l-2.3041 2.5122c-2.8129 3.0669-3.4904 3.6888-4.622 4.2427-0.88903 0.4351-1.6226 0.5404-2.3744 0.3408zm7.07-10.849c1.4743-0.3964 2.69-1.6339 3.0722-3.1273 0.13966-0.5457 0.13713-1.5446-0.005-2.0832-0.405-1.5316-1.607-2.7194-3.1591-3.1218-0.49021-0.1271-1.5348-0.1271-2.025 0-1.5522 0.4024-2.7549 1.591-3.1589 3.1218-0.14404 0.5458-0.14741 1.5428-0.007 2.0832 0.31682 1.2197 1.167 2.2731 2.2574 2.797 0.32749 0.1573 0.75166 0.3164 0.94262 0.3536 0.19095 0.037 0.40399 0.081 0.47343 0.097 0.22632 0.052 1.254-0.024 1.6097-0.1199zm-1.9892-1.1213c-0.0163-0.044-0.0371-0.5352-0.046-1.0907l-0.0164-1.01-1.0731-0.032-1.0731-0.032-0.0177-0.8472c-0.0133-0.6355 0.003-0.8601 0.0631-0.8986 0.0444-0.028 0.54242-0.052 1.1066-0.052l1.0258-0.001v-1.0289c0-0.7161 0.023-1.052 0.0757-1.1047 0.10472-0.1047 1.5744-0.1047 1.6791 0 0.0527 0.053 0.0757 0.3886 0.0757 1.1047v1.0289l1.0258 0.001c0.56418 0 1.0622 0.024 1.1066 0.052 0.0606 0.039 0.0764 0.2631 0.0631 0.8986l-0.0177 0.8472-1.0731 0.032-1.0731 0.032-0.0316 1.0731-0.0316 1.0731-0.86926 0.018c-0.66099 0.013-0.87637 0-0.89895-0.063zm16.558 0.6992c0.84264-0.4079 0.87383-1.6859 0.0529-2.167-0.37923-0.2222-0.90038-0.2222-1.2796 0-0.81845 0.4796-0.79041 1.7506 0.0478 2.1655 0.36108 0.1787 0.81173 0.1793 1.1789 0zm-2.9067-2.5264c0.62172-0.1566 1.0669-0.8849 0.90531-1.4811-0.15941-0.588-0.64327-0.9702-1.2283-0.9702-0.91942 0-1.5138 0.9714-1.1078 1.8102 0.1426 0.2946 0.38549 0.4993 0.74483 0.6277 0.28703 0.1025 0.32851 0.1034 0.68591 0.013zm5.6289-0.1652c0.40504-0.2488 0.58987-0.6227 0.55932-1.1318-0.0194-0.3228-0.0576-0.4345-0.21608-0.6312-0.27353-0.3397-0.61953-0.5208-0.997-0.5221-1.1354 0-1.6899 1.315-0.88948 2.1154 0.44002 0.44 1.0023 0.5018 1.5432 0.1697zm-2.6157-2.6506c0.34748-0.2442 0.53516-0.5956 0.53646-1.0044 0.002-0.5621-0.22973-0.9334-0.7249-1.1627-0.51584-0.2388-1.1277-0.075-1.5085 0.4034-0.25812 0.3245-0.30676 0.9046-0.10845 1.2933 0.1431 0.2805 0.46113 0.5572 0.74487 0.6479 0.30477 0.098 0.78311 0.017 1.0605-0.1775z" fill="#fff"/>
 </g>
 <g>
  <path opacity=".4" style="color:#000000" d="m2 0c-1.108 0-2 0.892-2 2v44c0 1.108 0.892 2 2 2h44c1.108 0 2-0.892 2-2v-44c0-1.108-0.892-2-2-2h-44zm0 0.5h44c0.83101 0 1.5 0.66899 1.5 1.5v44c0 0.83101-0.66899 1.5-1.5 1.5h-44c-0.831 0-1.5-0.669-1.5-1.5v-44c0-0.831 0.669-1.5 1.5-1.5z" fill="url(#linearGradient12443)"/>
  <path opacity=".4" style="color:#000000" d="m2 0c-1.108 0-2 0.892-2 2v44c0 1.108 0.892 2 2 2h44c1.108 0 2-0.892 2-2v-44c0-1.108-0.892-2-2-2h-44zm0 0.5h44c0.83101 0 1.5 0.66899 1.5 1.5v44c0 0.83101-0.66899 1.5-1.5 1.5h-44c-0.831 0-1.5-0.669-1.5-1.5v-44c0-0.831 0.669-1.5 1.5-1.5z" fill="url(#linearGradient3973)"/>
 </g>
</svg>
