<svg xmlns:rdf="http://www.w3.org/1999/02/22-rdf-syntax-ns#" xmlns="http://www.w3.org/2000/svg" height="48" width="48" version="1.1" xmlns:cc="http://creativecommons.org/ns#" xmlns:xlink="http://www.w3.org/1999/xlink" xmlns:dc="http://purl.org/dc/elements/1.1/">
 <defs>
  <linearGradient id="linearGradient12443" y2="3" gradientUnits="userSpaceOnUse" y1=".5" x2="27.5" x1="27.5">
   <stop stop-color="#fff" offset="0"/>
   <stop stop-color="#fff" stop-opacity="0" offset="1"/>
  </linearGradient>
  <linearGradient id="linearGradient9741" y2="32.444" gradientUnits="userSpaceOnUse" x2="22.981" y1="15.031" x1="22.981">
   <stop stop-color="#19aeff" offset="0"/>
   <stop stop-color="#0084c8" offset="1"/>
  </linearGradient>
 </defs>
 <g transform="translate(0 -1004.4)">
  <rect style="color:#000000" ry="2" height="48" width="48" y="1004.4" x="0" fill="#bdcdd4"/>
  <g transform="matrix(.35545 0 0 .14361 171.12 1002.5)"></g>
  <g transform="matrix(.32314 0 0 .32314 -55.272 805.26)"></g>
  <path id="use5502" style="block-progression:tb;text-indent:0;color:#000000;text-transform:none" d="m10 15.75v0.5h5v-0.5h-5z" fill="#fff"/>
  <use id="use5504" xlink:href="#use5502" transform="translate(0,4)" height="48" width="48" y="0" x="0"/>
  <use id="use5506" xlink:href="#use5504" transform="translate(0,4)" height="48" width="48" y="0" x="0"/>
  <use xlink:href="#use5506" transform="translate(0,4)" height="48" width="48" y="0" x="0"/>
 </g>
 <g>
  <g transform="matrix(1.1 0 0 .44444 241.16 29.369)"></g>
  <g transform="translate(-459.44 -580.99)"></g>
  <path opacity=".25" style="block-progression:tb;color:#000000;text-transform:none;text-indent:0" d="m11 13c-2.1987 0-4 1.801-4 4v14c0 1.099 0.4623 2.087 1.1875 2.812l14.188 14.188h23.624c1.108 0 2-0.892 2-2v-23.625l-8.188-8.187c-0.725-0.726-1.713-1.188-2.812-1.188h-26z"/>
 </g>
 <g>
  <rect style="color:#000000" ry="3" height="20" width="32" stroke="#fff" y="14" x="8" stroke-width="2" fill="url(#linearGradient9741)"/>
  <rect id="rect7381" style="color:#000000" ry="1" height="3" width="3" y="17" x="10" fill="#fff"/>
  <use id="use7393" xlink:href="#rect7381" transform="translate(5)" height="48" width="48" y="0" x="0" fill="#ffffff"/>
  <use id="use7395" xlink:href="#use7393" transform="translate(5)" height="48" width="48" y="0" x="0" fill="#ffffff"/>
  <use id="use7397" xlink:href="#use7395" transform="translate(5)" height="48" width="48" y="0" x="0" fill="#ffffff"/>
  <use id="use7399" xlink:href="#use7397" transform="translate(5)" height="48" width="48" y="0" x="0" fill="#ffffff"/>
  <use id="use7401" xlink:href="#use7399" transform="translate(5)" height="48" width="48" y="0" x="0" fill="#ffffff"/>
  <use id="use7403" xlink:href="#rect7381" transform="translate(0,5)" height="48" width="48" y="0" x="0" fill="#ffffff"/>
  <use xlink:href="#use7393" transform="translate(0,5)" height="48" width="48" y="0" x="0" fill="#ffffff"/>
  <use xlink:href="#use7395" transform="translate(0,5)" height="48" width="48" y="0" x="0" fill="#ffffff"/>
  <use xlink:href="#use7397" transform="translate(0,5)" height="48" width="48" y="0" x="0" fill="#ffffff"/>
  <use id="use7411" xlink:href="#use7399" transform="translate(0,5)" height="48" width="48" y="0" x="0" fill="#ffffff"/>
  <use id="use7413" xlink:href="#use7401" transform="translate(0,5)" height="48" width="48" y="0" x="0" fill="#ffffff"/>
  <use xlink:href="#use7403" transform="translate(0,5)" height="48" width="48" y="0" x="0" fill="#ffffff"/>
  <use xlink:href="#use7411" transform="translate(0,5)" height="48" width="48" y="0" x="0" fill="#ffffff"/>
  <use xlink:href="#use7413" transform="translate(0,5)" height="48" width="48" y="0" x="0" fill="#ffffff"/>
  <rect style="color:#000000" ry="1" height="3" width="13" y="27" x="15" fill="#fff"/>
 </g>
 <g>
  <path opacity=".4" style="color:#000000" d="m2 0c-1.108 0-2 0.892-2 2v44c0 1.108 0.892 2 2 2h44c1.108 0 2-0.892 2-2v-44c0-1.108-0.892-2-2-2h-44zm0 0.5h44c0.83101 0 1.5 0.66899 1.5 1.5v44c0 0.83101-0.66899 1.5-1.5 1.5h-44c-0.831 0-1.5-0.669-1.5-1.5v-44c0-0.831 0.669-1.5 1.5-1.5z" fill="url(#linearGradient12443)"/>
 </g>
</svg>
