<svg xmlns:rdf="http://www.w3.org/1999/02/22-rdf-syntax-ns#" xmlns="http://www.w3.org/2000/svg" height="48" width="48" version="1.1" xmlns:cc="http://creativecommons.org/ns#" xmlns:xlink="http://www.w3.org/1999/xlink" xmlns:dc="http://purl.org/dc/elements/1.1/">
 <defs>
  <linearGradient id="linearGradient12443" y2="3" gradientUnits="userSpaceOnUse" x2="27.5" y1=".5" x1="27.5">
   <stop stop-color="#fff" offset="0"/>
   <stop stop-color="#fff" stop-opacity="0" offset="1"/>
  </linearGradient>
  <linearGradient id="linearGradient6215-1" y2="42.051" gradientUnits="userSpaceOnUse" y1="22.98" x2="27.087" x1="27.087">
   <stop stop-color="#005400" offset="0"/>
   <stop stop-color="#009100" offset="1"/>
  </linearGradient>
  <linearGradient id="linearGradient4170" y2="1011.4" gradientUnits="userSpaceOnUse" y1="1028.4" x2="24" x1="24">
   <stop stop-color="#ffd880" offset="0"/>
   <stop stop-color="#b080ff" offset="1"/>
  </linearGradient>
 </defs>
 <g transform="translate(0 -1004.4)">
  <rect style="color:#000000" ry="2" height="48" width="48" y="1004.4" x="-.0625" fill="url(#linearGradient4170)"/>
  <path style="color:#000000" d="m13.344 18.844c-4.1504 0.22-9.4242 2.932-13.406 5.375l-0.0005 21.781c0 1.108 0.892 2 2 2h44c1.108 0 2-0.892 2-2v-19.688c-3.976 1.785-8.727 3.407-13.032 3.407-9.861 0-13.267-10.709-20.844-10.875-0.236-0.005-0.473-0.013-0.718 0z" transform="translate(0 1004.4)" fill="url(#linearGradient6215-1)"/>
 </g>
 <g opacity=".25">
  <flowRoot opacity=".25" style="word-spacing:0px;letter-spacing:0px" xml:space="preserve" transform="translate(32.627 -1001.2)" line-height="125%" font-size="40px" font-family="sans-serif" fill="#000000"><flowRegion><rect height="49.321" width="57.629" y="6.6343" x="-53.033" fill="#000"/></flowRegion><flowPara/></flowRoot>
  <flowRoot style="word-spacing:0px;letter-spacing:0px" line-height="125%" xml:space="preserve" font-size="40px" transform="translate(-104.89 -1017.8)" font-family="sans-serif" fill="#000000"><flowRegion><rect y="6.6343" width="57.629" x="-53.033" height="49.321"/></flowRegion><flowPara/></flowRoot>
  <path d="m24 8c-2.2091 0-4 1.567-4 3.5 0 0.3452 0.0811 0.685 0.1875 1-0.066 0.03-0.124 0.061-0.188 0.094-0.417-0.375-0.939-0.594-1.5-0.594-1.381 0-2.5 1.343-2.5 3 0 0.055 0.02881 0.10185 0.03125 0.15625-2.883 0.563-5.031 2.734-5.031 5.344 0 1.3534 0.57315 2.6044 1.5312 3.5625l8.469 8.469v4.469l-3 2 9 9h18.938c1.108 0 2-0.892 2-2v-18.156l-16.625-16.625c-0.769-0.769-1.741-1.219-2.813-1.219-0.20187 0-0.39822 0.02948-0.59375 0.0625l-0.875-0.875c-0.737-0.7368-1.821-1.187-3.031-1.187z"/>
 </g>
 <g>
  <path d="m24 8c-2.2091 0-4 1.567-4 3.5 0 0.3452 0.0811 0.685 0.1875 1-0.06555 0.03-0.12338 0.061-0.1875 0.094-0.41711-0.3744-0.93909-0.5938-1.5-0.5938-1.3807 0-2.5 1.3431-2.5 3 0 0.055 0.02881 0.1019 0.03125 0.1563-2.883 0.564-5.031 2.734-5.031 5.344 0 3.0376 2.9101 5.5 6.5 5.5 0.79167 0 1.547-0.1257 2.25-0.3437l-4.312-5.187-0.438-0.531 0.46875-0.4687 1-1 0.4375-0.4375 0.5 0.3437 5.8125 3.875h0.5625l3.875-1.9375 0.5-0.25 0.375 0.4063 1 1 0.53125 0.5312-0.53125 0.5313-2.7812 2.7812v1.2188c0.83593 0.3017 1.7655 0.4687 2.75 0.4687 3.5899 0 6.5-2.2386 6.5-5 0-1.243-0.58668-2.3754-1.5625-3.25 0.354-0.493 0.562-1.098 0.562-1.751 0-1.356-0.92-2.473-2.156-2.844-0.495-2.379-2.243-4.156-4.344-4.156-0.27656 0-0.54972 0.035-0.8125 0.094-0.614-1.2435-2.042-2.0936-3.688-2.0936zm-7 11-1 1 5 6v11l-3 2h11l-3-2v-12l3-3-1-1-4 2h-1z" fill="#fff"/>
 </g>
 <g>
  <path opacity=".4" style="color:#000000" d="m2 0c-1.108 0-2 0.892-2 2v44c0 1.108 0.892 2 2 2h44c1.108 0 2-0.892 2-2v-44c0-1.108-0.892-2-2-2h-44zm0 0.5h44c0.83101 0 1.5 0.66899 1.5 1.5v44c0 0.83101-0.66899 1.5-1.5 1.5h-44c-0.831 0-1.5-0.669-1.5-1.5v-44c0-0.831 0.669-1.5 1.5-1.5z" fill="url(#linearGradient12443)"/>
 </g>
</svg>
