<svg xmlns:rdf="http://www.w3.org/1999/02/22-rdf-syntax-ns#" xmlns="http://www.w3.org/2000/svg" height="48" width="48" version="1.1" xmlns:cc="http://creativecommons.org/ns#" xmlns:xlink="http://www.w3.org/1999/xlink" xmlns:dc="http://purl.org/dc/elements/1.1/">
 <defs>
  <linearGradient id="linearGradient12443" y2="3" gradientUnits="userSpaceOnUse" y1=".5" x2="27.5" x1="27.5">
   <stop stop-color="#fff" offset="0"/>
   <stop stop-color="#fff" stop-opacity="0" offset="1"/>
  </linearGradient>
 </defs>
 <g transform="translate(0 -1004.4)">
  <path style="block-progression:tb;text-indent:0;color:#000000;text-transform:none" d="m2 1004.4c-1.108 0-2 0.892-2 2v44c0 1.108 0.892 2 2 2h44c1.108 0 2-0.892 2-2v-19-1.4375l-25.562-25.562h-1.4688-18.969z" fill="#0084c8"/>
  <path style="block-progression:tb;text-indent:0;color:#000000;text-transform:none" d="m4 1008.4h17l23 23v17h-40z" fill="#fff"/>
  <path style="block-progression:tb;text-indent:0;color:#000000;text-transform:none" d="m27 1004.4 21 21v-19c0-1.108-0.892-2-2-2z" fill="#0084c8"/>
 </g>
 <g>
  <path opacity=".25" d="m15.25 14.25l-3.25 8.75 3 3h-3v1l1 1h-1v1l1 1h-1v1l1 1h-1v1l1 1h-1v1l1 1h-1v1l1 1h-1v1l9 9h25c1.108 0 2-0.892 2-2v-8.531l-20.406-20.407-0.094-0.093c-0.523-0.469-1.379-0.688-2.562-0.688-0.454 0-0.891 0.035-1.344 0.094-0.453 0.055-0.895 0.141-1.344 0.25v1.594l0.812 0.812c-0.082 0.027-0.146 0.085-0.218 0.125l-4.906-4.906h-2.688z"/>
 </g>
 <g>
  <text style="word-spacing:0px;letter-spacing:0px" line-height="125%" font-weight="bold" font-size="12px" y="23" x="11.941406" font-family="TheMixPlain" xml:space="preserve" fill="#005c94"><tspan y="23" x="11.941406" dx="0 1">Aa</tspan></text>
  <path d="m12 26.5h4" stroke="#005c94" stroke-width="1px" fill="none"/>
  <path d="m17 26.5h1" stroke="#005c94" stroke-width="1px" fill="none"/>
  <path d="m19 26.5h5" stroke="#005c94" stroke-width="1px" fill="none"/>
  <path d="m25 26.5h2" stroke="#005c94" stroke-width="1px" fill="none"/>
  <path d="m28 26.5h1" stroke="#005c94" stroke-width="1px" fill="none"/>
  <path d="m30 26.5h2" stroke="#005c94" stroke-width="1px" fill="none"/>
  <path d="m12 28.5h1" stroke="#005c94" stroke-width="1px" fill="none"/>
  <path d="m14 28.5h4" stroke="#005c94" stroke-width="1px" fill="none"/>
  <path d="m19 28.5h3" stroke="#005c94" stroke-width="1px" fill="none"/>
  <path d="m23 28.5h2" stroke="#005c94" stroke-width="1px" fill="none"/>
  <path d="m26 28.5h3" stroke="#005c94" stroke-width="1px" fill="none"/>
  <path d="m30 28.5h2" stroke="#005c94" stroke-width="1px" fill="none"/>
  <path d="m12 30.5h3" stroke="#005c94" stroke-width="1px" fill="none"/>
  <path d="m16 30.5h2" stroke="#005c94" stroke-width="1px" fill="none"/>
  <path d="m19 30.5h7" stroke="#005c94" stroke-width="1px" fill="none"/>
  <path d="m27 30.5h1" stroke="#005c94" stroke-width="1px" fill="none"/>
  <path d="m29 30.5h3" stroke="#005c94" stroke-width="1px" fill="none"/>
  <path d="m12 32.5h4" stroke="#005c94" stroke-width="1px" fill="none"/>
  <path d="m17 32.5h2" stroke="#005c94" stroke-width="1px" fill="none"/>
  <path d="m20 32.5h1" stroke="#005c94" stroke-width="1px" fill="none"/>
  <path d="m22 32.5h1" stroke="#005c94" stroke-width="1px" fill="none"/>
  <path d="m24 32.5h4" stroke="#005c94" stroke-width="1px" fill="none"/>
  <path d="m29 32.5h3" stroke="#005c94" stroke-width="1px" fill="none"/>
  <path d="m12 34.5h3" stroke="#005c94" stroke-width="1px" fill="none"/>
  <path d="m16 34.5h1" stroke="#005c94" stroke-width="1px" fill="none"/>
  <path d="m18 34.5h2" stroke="#005c94" stroke-width="1px" fill="none"/>
  <path d="m21 34.5h6" stroke="#005c94" stroke-width="1px" fill="none"/>
  <path d="m28 34.5h2" stroke="#005c94" stroke-width="1px" fill="none"/>
  <path d="m31 34.5h1" stroke="#005c94" stroke-width="1px" fill="none"/>
  <path d="m12 36.5h2" stroke="#005c94" stroke-width="1px" fill="none"/>
  <path d="m15 36.5h6" stroke="#005c94" stroke-width="1px" fill="none"/>
  <path d="m22 36.5h5 5" stroke="#005c94" stroke-width="1px" fill="none"/>
  <path d="m12 38.5h3" stroke="#005c94" stroke-width="1px" fill="none"/>
  <path d="m16 38.5h4" stroke="#005c94" stroke-width="1px" fill="none"/>
 </g>
 <g fill="url(#linearGradient12443)">
  <path opacity=".4" style="color:#000000" d="m27 0 0.5 0.5 2.9601 2.95h0.64926l-2.968-2.95h17.859c0.83101 0 1.5 0.66899 1.5 1.5v18.5l0.5 0.5v-19c0-1.108-0.892-2-2-2z"/>
  <path opacity=".4" style="color:#000000" d="m2 0c-1.108 0-2 0.892-2 2v44c0 1.108 0.892 2 2 2h44c0.554 0 1.0448-0.23225 1.4062-0.59375 0.362-0.361 0.594-0.852 0.594-1.406v-19-1.4375l-0.5-0.5v20.938c0 0.83101-0.66899 1.5-1.5 1.5h-44c-0.831 0-1.5-0.669-1.5-1.5v-44c0-0.831 0.669-1.5 1.5-1.5h20.261l2.9862 2.95h0.63687l-2.946-2.95-0.5-0.5z"/>
 </g>
</svg>
