<svg xmlns:rdf="http://www.w3.org/1999/02/22-rdf-syntax-ns#" xmlns="http://www.w3.org/2000/svg" height="48" width="48" version="1.1" xmlns:cc="http://creativecommons.org/ns#" xmlns:xlink="http://www.w3.org/1999/xlink" xmlns:dc="http://purl.org/dc/elements/1.1/">
 <defs>
  <linearGradient id="linearGradient12443" y2="3" gradientUnits="userSpaceOnUse" x2="27.5" y1=".5" x1="27.5">
   <stop stop-color="#fff" offset="0"/>
   <stop stop-color="#fff" stop-opacity="0" offset="1"/>
  </linearGradient>
  <filter id="filter6624" height="1.2186" width="1.2661" y="-.10929" x="-.13304">
   <feGaussianBlur stdDeviation="1.275"/>
  </filter>
  <clipPath id="clipPath6628" clipPathUnits="userSpaceOnUse">
   <path opacity=".25" style="color:#000000" d="m12 10v28l10 10h24c1.108 0 2-0.892 2-2v-11.5l-24.5-24.5h-11.5zm14.5 0 21.5 21.5v-8.5l-13-13h-8.5z"/>
  </clipPath>
 </defs>
 <g transform="translate(0 -1004.4)">
  <rect style="color:#000000" ry="2" height="48" width="48" y="1004.4" x="0" fill="#f90"/>
 </g>
 <g>
  <path opacity=".25" style="color:#000000" d="m12 10v28l10 10h24c1.108 0 2-0.892 2-2v-11.5l-24.5-24.5h-11.5zm14.5 0l21.5 21.5v-8.5l-13-13h-8.5z"/>
  <path opacity=".4" filter="url(#filter6624)" style="color:#000000" d="m12 10v28h23v-16.5l-11.5-11.5zm14.5 0 8.5 8.5v-8.5zm-12.5 2h8.5l10.5 10.5v13.5h-19z" clip-path="url(#clipPath6628)"/>
 </g>
 <g>
  <path style="color:#000000" d="m12 10v28h23v-16.5l-11.5-11.5z" fill="#f60"/>
  <path style="color:#000000" d="m12 10v28h23v-16.5l-11.5-11.5zm14.5 0 8.5 8.5v-8.5zm-12.5 2h8.5l10.5 10.5v13.5h-19z" fill="#fff"/>
  <path style="color:#000000" d="m28 23.25a5.25 5.25 0 1 1 -10.5 0 5.25 5.25 0 1 1 10.5 0z" stroke="#fff" fill="#f60"/>
  <path transform="translate(3.777 2.1508)" stroke="#fff" fill="#f60" style="color:#000000" d="m22.5 28.5-4.775 1.257-4.774 1.256 1.299-4.763l1.299-4.7631 3.4755 3.5066z"/>
  <rect style="color:#000000" ry="0" height="7.5" width="8.5" stroke="#fff" y="26" x="22.5" fill="#f60"/>
 </g>
 <path opacity=".4" style="color:#000000" d="m2 0c-1.108 0-2 0.892-2 2v44c0 1.108 0.892 2 2 2h44c1.108 0 2-0.892 2-2v-44c0-1.108-0.892-2-2-2h-44zm0 0.5h44c0.83101 0 1.5 0.66899 1.5 1.5v44c0 0.83101-0.66899 1.5-1.5 1.5h-44c-0.831 0-1.5-0.669-1.5-1.5v-44c0-0.831 0.669-1.5 1.5-1.5z" fill="url(#linearGradient12443)"/>
</svg>
