<svg xmlns:rdf="http://www.w3.org/1999/02/22-rdf-syntax-ns#" xmlns="http://www.w3.org/2000/svg" height="48" width="48" version="1.1" xmlns:cc="http://creativecommons.org/ns#" xmlns:xlink="http://www.w3.org/1999/xlink" xmlns:dc="http://purl.org/dc/elements/1.1/">
 <defs>
  <linearGradient id="linearGradient12443" y2="3" gradientUnits="userSpaceOnUse" y1=".5" x2="27.5" x1="27.5">
   <stop stop-color="#fff" offset="0"/>
   <stop stop-color="#fff" stop-opacity="0" offset="1"/>
  </linearGradient>
 </defs>
 <g transform="translate(0 -1004.4)">
  <path style="block-progression:tb;text-indent:0;color:#000000;text-transform:none" d="m2 1004.4c-1.108 0-2 0.892-2 2v44c0 1.108 0.892 2 2 2h44c1.108 0 2-0.892 2-2v-19-1.4375l-25.562-25.562h-1.4688-18.969z" fill="#0e232e"/>
  <path style="block-progression:tb;text-indent:0;color:#000000;text-transform:none" d="m4 1008.4h17l23 23v17h-40z" fill="#fff"/>
  <path style="block-progression:tb;text-indent:0;color:#000000;text-transform:none" d="m27 1004.4 21 21v-19c0-1.108-0.892-2-2-2z" fill="#0e232e"/>
 </g>
 <g>
  <path opacity=".25" d="m21 19c-0.76 0-1.503 0.017-2.219 0.062-5.013 0.321-8.781 1.716-8.781 3.376v2.75c0 0.089 0.01 0.162 0.031 0.25 0.008 0.032 0.021 0.061 0.031 0.093 0.034 0.104 0.094 0.212 0.157 0.313 0.012 0.019 0.018 0.043 0.031 0.062 0.071 0.104 0.15 0.213 0.25 0.313l2.781 2.781c-1.264-0.39-2.235-0.862-2.781-1.406-0.331 0.326-0.5 0.668-0.5 1.031v2.75c0 0.113 0.029 0.234 0.062 0.344 0.035 0.111 0.09 0.205 0.157 0.312 0.012 0.02 0.018 0.043 0.031 0.063 0.071 0.104 0.15 0.212 0.25 0.312l2.781 2.782c-1.264-0.391-2.235-0.862-2.781-1.407-0.331 0.326-0.5 0.673-0.5 1.031v2.75c0 0.09 0.01 0.163 0.031 0.25 0.008 0.033 0.021 0.062 0.031 0.094 0.034 0.104 0.094 0.212 0.157 0.313 0.012 0.019 0.018 0.043 0.031 0.062 0.071 0.104 0.15 0.213 0.25 0.313l9.406 9.406h26.094c1.108 0 2-0.892 2-2v-8.031l-16.219-16.219c-0.018-0.028-0.042-0.066-0.062-0.094l-0.219-0.25c-0.16-0.16-0.364-0.319-0.594-0.468-0.02-0.014-0.041-0.018-0.062-0.032-0.127-0.079-0.292-0.143-0.438-0.218-0.093-0.049-0.18-0.11-0.281-0.157-0.378-0.176-0.777-0.349-1.25-0.5-0.199-0.063-0.443-0.097-0.656-0.156-0.216-0.059-0.427-0.134-0.657-0.187-0.289-0.068-0.595-0.129-0.906-0.188-0.172-0.032-0.353-0.064-0.531-0.094-0.36-0.059-0.743-0.109-1.125-0.156-0.152-0.019-0.314-0.046-0.469-0.062-0.422-0.045-0.868-0.097-1.312-0.126-0.03-0.001-0.064 0.002-0.094 0-0.689-0.042-1.396-0.062-2.125-0.062z"/>
 </g>
 <g>
  <g fill="#0e232e" transform="matrix(1.1758 0 0 1.1758 -4.9814 -3.1583)">
   <path d="m22.097 18.846c-5.168 0-9.3555 1.3086-9.3555 2.9219v2.3398c0 1.6133 4.1875 2.9258 9.3555 2.9258s9.3555-1.3125 9.3555-2.9258v-2.3398c0-1.6133-4.1875-2.9219-9.3555-2.9219z"/>
   <path d="m22.066 28.201c-4.1875 0-7.7188-0.85938-8.9102-2.0469-0.28125 0.27734-0.41406 0.57031-0.41406 0.87891v2.3359c0 1.6172 4.1875 2.9258 9.3555 2.9258s9.3555-1.3086 9.3555-2.9258v-2.3359c0-0.30859-0.16406-0.60156-0.44141-0.87891-1.1914 1.1875-4.7539 2.0469-8.9453 2.0469z"/>
   <path d="m22.066 33.463c-4.1875 0-7.7188-0.85938-8.9102-2.0469-0.28125 0.27734-0.41406 0.57422-0.41406 0.87891v2.3398c0 1.6133 4.1875 2.9219 9.3555 2.9219s9.3555-1.3086 9.3555-2.9219v-2.3398c0-0.30469-0.16406-0.60156-0.44141-0.87891-1.1914 1.1875-4.7539 2.0469-8.9453 2.0469z"/>
  </g>
 </g>
 <g fill="url(#linearGradient12443)">
  <path opacity=".4" style="color:#000000" d="m27 0 0.5 0.5 2.9601 2.95h0.64926l-2.968-2.95h17.859c0.83101 0 1.5 0.66899 1.5 1.5v18.5l0.5 0.5v-19c0-1.108-0.892-2-2-2z"/>
  <path opacity=".4" style="color:#000000" d="m2 0c-1.108 0-2 0.892-2 2v44c0 1.108 0.892 2 2 2h44c0.554 0 1.0448-0.23225 1.4062-0.59375 0.362-0.361 0.594-0.852 0.594-1.406v-19-1.4375l-0.5-0.5v20.938c0 0.83101-0.66899 1.5-1.5 1.5h-44c-0.831 0-1.5-0.669-1.5-1.5v-44c0-0.831 0.669-1.5 1.5-1.5h20.261l2.9862 2.95h0.63687l-2.946-2.95-0.5-0.5z"/>
 </g>
</svg>
