<svg xmlns:rdf="http://www.w3.org/1999/02/22-rdf-syntax-ns#" xmlns="http://www.w3.org/2000/svg" height="48" width="48" version="1.1" xmlns:cc="http://creativecommons.org/ns#" xmlns:xlink="http://www.w3.org/1999/xlink" xmlns:dc="http://purl.org/dc/elements/1.1/">
 <defs>
  <linearGradient id="linearGradient12443" y2="3" gradientUnits="userSpaceOnUse" x2="27.5" y1=".5" x1="27.5">
   <stop stop-color="#fff" offset="0"/>
   <stop stop-color="#fff" stop-opacity="0" offset="1"/>
  </linearGradient>
  <filter id="filter6624" height="1.2186" width="1.2661" y="-.10929" x="-.13304">
   <feGaussianBlur stdDeviation="1.275"/>
  </filter>
  <clipPath id="clipPath6628" clipPathUnits="userSpaceOnUse">
   <path opacity=".25" style="color:#000000" d="m12 10v28l10 10h24c1.108 0 2-0.892 2-2v-11.5l-24.5-24.5h-11.5zm14.5 0 21.5 21.5v-8.5l-13-13h-8.5z"/>
  </clipPath>
 </defs>
 <g transform="translate(0 -1004.4)">
  <rect style="color:#000000" ry="2" height="48" width="48" y="1004.4" x="0" fill="#ff4141"/>
 </g>
 <g>
  <path opacity=".25" style="color:#000000" d="m12 10v28l10 10h24c1.108 0 2-0.892 2-2v-11.5l-24.5-24.5h-11.5zm14.5 0l21.5 21.5v-8.5l-13-13h-8.5z"/>
  <path opacity=".4" filter="url(#filter6624)" style="color:#000000" d="m12 10v28h23v-16.5l-11.5-11.5zm14.5 0 8.5 8.5v-8.5zm-12.5 2h8.5l10.5 10.5v13.5h-19z" clip-path="url(#clipPath6628)"/>
 </g>
 <g>
  <path style="color:#000000" d="m12 10v28h23v-16.5l-11.5-11.5z" fill="#dc0000"/>
  <path style="color:#000000" d="m12 10v28h23v-16.5l-11.5-11.5zm14.5 0 8.5 8.5v-8.5zm-12.5 2h8.5l10.5 10.5v13.5h-19z" fill="#fff"/>
  <text style="word-spacing:0px;letter-spacing:0px" font-weight="bold" xml:space="preserve" font-size="10.305px" y="32" x="20.788086" font-family="TheMixPlain" line-height="125%" fill="#ffffff"><tspan font-size="12px" font-style="italic" y="32" x="20.788086" fill="#ffffff">x</tspan></text>
  <path style="block-progression:tb;text-indent:0;color:#000000;text-transform:none" d="m19.031 21-0.031 0.469-0.812 7.58-1.344-3.331-1.822 2.481 1.134-0.199 1.875 4.688 0.969-0.157 1-9.531h9.5v-2h-10z" fill="#fff"/>
 </g>
 <path opacity=".4" style="color:#000000" d="m2 0c-1.108 0-2 0.892-2 2v44c0 1.108 0.892 2 2 2h44c1.108 0 2-0.892 2-2v-44c0-1.108-0.892-2-2-2h-44zm0 0.5h44c0.83101 0 1.5 0.66899 1.5 1.5v44c0 0.83101-0.66899 1.5-1.5 1.5h-44c-0.831 0-1.5-0.669-1.5-1.5v-44c0-0.831 0.669-1.5 1.5-1.5z" fill="url(#linearGradient12443)"/>
</svg>
