<svg xmlns:rdf="http://www.w3.org/1999/02/22-rdf-syntax-ns#" xmlns="http://www.w3.org/2000/svg" height="48" width="48" version="1.1" xmlns:cc="http://creativecommons.org/ns#" xmlns:xlink="http://www.w3.org/1999/xlink" xmlns:dc="http://purl.org/dc/elements/1.1/">
 <defs>
  <linearGradient id="linearGradient12443" y2="3" gradientUnits="userSpaceOnUse" x2="27.5" y1=".5" x1="27.5">
   <stop stop-color="#fff" offset="0"/>
   <stop stop-color="#fff" stop-opacity="0" offset="1"/>
  </linearGradient>
  <filter id="filter6624" height="1.2186" width="1.2661" y="-.10929" x="-.13304">
   <feGaussianBlur stdDeviation="1.275"/>
  </filter>
  <clipPath id="clipPath6628" clipPathUnits="userSpaceOnUse">
   <path opacity=".25" style="color:#000000" d="m12 10v28l10 10h24c1.108 0 2-0.892 2-2v-11.5l-24.5-24.5h-11.5zm14.5 0 21.5 21.5v-8.5l-13-13h-8.5z"/>
  </clipPath>
 </defs>
 <g transform="translate(0 -1004.4)">
  <rect style="color:#000000" ry="2" height="48" width="48" y="1004.4" x="0" fill="#364e59"/>
 </g>
 <g>
  <path opacity=".25" style="color:#000000" d="m12 10v28l10 10h24c1.108 0 2-0.892 2-2v-11.5l-24.5-24.5h-11.5zm14.5 0l21.5 21.5v-8.5l-13-13h-8.5z"/>
  <path opacity=".4" filter="url(#filter6624)" style="color:#000000" d="m12 10v28h23v-16.5l-11.5-11.5zm14.5 0 8.5 8.5v-8.5zm-12.5 2h8.5l10.5 10.5v13.5h-19z" clip-path="url(#clipPath6628)"/>
 </g>
 <g>
  <path style="color:#000000" d="m12 10v28h23v-16.5l-11.5-11.5z" fill="#0e232e"/>
  <path style="color:#000000" d="m12 10v28h23v-16.5l-11.5-11.5zm14.5 0 8.5 8.5v-8.5zm-12.5 2h8.5l10.5 10.5v13.5h-19z" fill="#fff"/>
  <g fill="#fff" transform="matrix(.74823 0 0 .74823 6.4664 5.8993)">
   <path d="m22.097 18.846c-5.168 0-9.3555 1.3086-9.3555 2.9219v2.3398c0 1.6133 4.1875 2.9258 9.3555 2.9258s9.3555-1.3125 9.3555-2.9258v-2.3398c0-1.6133-4.1875-2.9219-9.3555-2.9219z"/>
   <path d="m22.066 28.201c-4.1875 0-7.7188-0.85938-8.9102-2.0469-0.28125 0.27734-0.41406 0.57031-0.41406 0.87891v2.3359c0 1.6172 4.1875 2.9258 9.3555 2.9258s9.3555-1.3086 9.3555-2.9258v-2.3359c0-0.30859-0.16406-0.60156-0.44141-0.87891-1.1914 1.1875-4.7539 2.0469-8.9453 2.0469z"/>
   <path d="m22.066 33.463c-4.1875 0-7.7188-0.85938-8.9102-2.0469-0.28125 0.27734-0.41406 0.57422-0.41406 0.87891v2.3398c0 1.6133 4.1875 2.9219 9.3555 2.9219s9.3555-1.3086 9.3555-2.9219v-2.3398c0-0.30469-0.16406-0.60156-0.44141-0.87891-1.1914 1.1875-4.7539 2.0469-8.9453 2.0469z"/>
  </g>
 </g>
 <path opacity=".4" style="color:#000000" d="m2 0c-1.108 0-2 0.892-2 2v44c0 1.108 0.892 2 2 2h44c1.108 0 2-0.892 2-2v-44c0-1.108-0.892-2-2-2h-44zm0 0.5h44c0.83101 0 1.5 0.66899 1.5 1.5v44c0 0.83101-0.66899 1.5-1.5 1.5h-44c-0.831 0-1.5-0.669-1.5-1.5v-44c0-0.831 0.669-1.5 1.5-1.5z" fill="url(#linearGradient12443)"/>
</svg>
