<svg xmlns:rdf="http://www.w3.org/1999/02/22-rdf-syntax-ns#" xmlns="http://www.w3.org/2000/svg" height="48" width="48" version="1.1" xmlns:cc="http://creativecommons.org/ns#" xmlns:xlink="http://www.w3.org/1999/xlink" xmlns:dc="http://purl.org/dc/elements/1.1/">
 <defs>
  <linearGradient id="linearGradient12443" y2="3" gradientUnits="userSpaceOnUse" x2="27.5" y1=".5" x1="27.5">
   <stop stop-color="#fff" offset="0"/>
   <stop stop-color="#fff" stop-opacity="0" offset="1"/>
  </linearGradient>
  <filter id="filter6624" height="1.2186" width="1.2661" y="-.10929" x="-.13304">
   <feGaussianBlur stdDeviation="1.275"/>
  </filter>
  <clipPath id="clipPath6628" clipPathUnits="userSpaceOnUse">
   <path opacity=".25" style="color:#000000" d="m12 10v28l10 10h24c1.108 0 2-0.892 2-2v-11.5l-24.5-24.5h-11.5zm14.5 0 21.5 21.5v-8.5l-13-13h-8.5z"/>
  </clipPath>
 </defs>
 <g transform="translate(0 -1004.4)">
  <rect style="color:#000000" ry="2" height="48" width="48" y="1004.4" x="0" fill="#0084c8"/>
 </g>
 <g>
  <path opacity=".25" style="color:#000000" d="m12 10v28l10 10h24c1.108 0 2-0.892 2-2v-11.5l-24.5-24.5h-11.5zm14.5 0l21.5 21.5v-8.5l-13-13h-8.5z"/>
  <path opacity=".4" filter="url(#filter6624)" style="color:#000000" d="m12 10v28h23v-16.5l-11.5-11.5zm14.5 0 8.5 8.5v-8.5zm-12.5 2h8.5l10.5 10.5v13.5h-19z" clip-path="url(#clipPath6628)"/>
 </g>
 <g>
  <path style="color:#000000" d="m12 10v28h23v-16.5l-11.5-11.5z" fill="#19aeff"/>
  <path fill="#fff" d="m19.305 17.543c-0.42583 1.0733-0.84875 2.1467-1.2746 3.22h2.5521zm-0.53083-0.86333h1.0646c0.88083 2.1583 1.7617 4.3167 2.6454 6.475h-0.97708c-0.21-0.55417-0.42-1.1083-0.63292-1.6625h-3.1267c-0.21 0.55417-0.42 1.1083-0.63292 1.6625h-0.98875c0.88375-2.1583 1.7646-4.3167 2.6483-6.475zm7.0467 4.0338c-0.54542 0.02041-1.1812-0.0175-1.6129 0.35-0.44042 0.4725-0.22167 1.3708 0.48125 1.5021 0.68542 0.18083 1.4875-0.1225 1.7762-0.74667 0.16042-0.32375 0.26542-0.79625 0.17792-1.1054zm1.7033-0.32958v2.7708h-0.85458v-0.73792c-0.35292 0.595-1.0879 0.8925-1.7967 0.86333-0.75542 0.04084-1.5575-0.4025-1.6975-1.1288-0.18083-0.69708 0.105-1.5517 0.86917-1.8288 0.82833-0.33542 1.7471-0.21 2.625-0.23333 0.06125-0.51917-0.30625-1.0354-0.85458-1.1579-0.77292-0.17792-1.61-0.02625-2.3042 0.32375v-0.73792c0.95958-0.33833 2.0971-0.52208 3.0537-0.07875 0.75542 0.3675 0.96833 1.2133 0.95958 1.9454z"/>
  <path style="color:#000000" d="m12 10v28h23v-16.5l-11.5-11.5zm14.5 0 8.5 8.5v-8.5zm-12.5 2h8.5l10.5 10.5v13.5h-19z" fill="#fff"/>
  <g fill-opacity=".6" fill="#fff">
   <path d="m16.125 25.319h1.5108v0.60083h-1.5108z"/>
   <path d="m17.843 25.319h1.4233v0.60083h-1.4233z"/>
   <path d="m19.474 25.319h1.2542v0.60083h-1.2542z"/>
   <path d="m20.935 25.319h0.54833v0.60083h-0.54833z"/>
   <path d="m21.69 25.319h1.2337v0.60083h-1.2337z"/>
   <path d="m23.131 25.319h3.1938v0.60083h-3.1938z"/>
   <path d="m16.125 28.921h1.5108v0.59792h-1.5108z"/>
   <path d="m17.843 28.921h1.4233v0.59792h-1.4233z"/>
   <path d="m19.474 28.921h1.2542v0.59792h-1.2542z"/>
   <path d="m20.935 28.921h0.54833v0.59792h-0.54833z"/>
   <path d="m21.69 28.921h1.2337v0.59792h-1.2337z"/>
   <path d="m23.131 28.921h3.1938v0.59792h-3.1938z"/>
   <path d="m16.125 26.521h2.2779v0.59792h-2.2779z"/>
   <path d="m18.61 26.521h1.0937v0.59792h-1.0937z"/>
   <path d="m19.914 26.521h0.51333v0.59792h-0.51333z"/>
   <path d="m20.635 26.521h0.99167v0.59792h-0.99167z"/>
   <path d="m21.833 26.521h0.99167v0.59792h-0.99167z"/>
   <path d="m23.035 26.521h1.5925v0.59792h-1.5925z"/>
   <path d="m24.835 26.521h2.0912v0.59792h-2.0912z"/>
   <path d="m16.125 27.72h2.66v0.60083h-2.66z"/>
   <path d="m18.992 27.72h2.8525v0.60083h-2.8525z"/>
   <path d="m22.052 27.72h1.1375v0.60083h-1.1375z"/>
   <path d="m23.4 27.72h2.6804v0.60083h-2.6804z"/>
   <path d="m26.29 27.72h1.8346v0.60083h-1.8346z"/>
   <path d="m16.125 32.52h2.66v0.60083h-2.66z"/>
   <path d="m18.992 32.52h2.8525v0.60083h-2.8525z"/>
   <path d="m22.052 32.52h1.1375v0.60083h-1.1375z"/>
   <path d="m23.4 32.52h2.6804v0.60083h-2.6804z"/>
   <path d="m26.29 32.52h1.8346v0.60083h-1.8346z"/>
   <path d="m16.125 30.12h1.8754v0.60083h-1.8754z"/>
   <path d="m18.199 30.12h3.115v0.60083h-3.115z"/>
   <path d="m21.512 30.12h1.505v0.60083h-1.505z"/>
   <path d="m24.814 30.12h1.1958v0.60083h-1.1958z"/>
   <path d="m26.208 30.12h1.9162v0.60083h-1.9162z"/>
   <path d="m23.216 30.12h1.4v0.60083h-1.4z"/>
   <path d="m16.125 31.319h2.4733v0.60083h-2.4733z"/>
   <path d="m18.803 31.319h0.77875v0.60083h-0.77875z"/>
   <path d="m19.783 31.319h1.7792v0.60083h-1.7792z"/>
   <path d="m21.766 31.319h1.2133v0.60083h-1.2133z"/>
   <path d="m23.184 31.319h1.2104v0.60083h-1.2104z"/>
   <path d="m24.598 31.319h1.7558v0.60083h-1.7558z"/>
   <path d="m26.558 31.319h0.3675v0.60083h-0.3675z"/>
   <path d="m16.125 33.719h0.98v0.60083h-0.98z"/>
   <path d="m17.359 33.719h3.5671v0.60083h-3.5671z"/>
  </g>
 </g>
 <path opacity=".4" style="color:#000000" d="m2 0c-1.108 0-2 0.892-2 2v44c0 1.108 0.892 2 2 2h44c1.108 0 2-0.892 2-2v-44c0-1.108-0.892-2-2-2h-44zm0 0.5h44c0.83101 0 1.5 0.66899 1.5 1.5v44c0 0.83101-0.66899 1.5-1.5 1.5h-44c-0.831 0-1.5-0.669-1.5-1.5v-44c0-0.831 0.669-1.5 1.5-1.5z" fill="url(#linearGradient12443)"/>
</svg>
