<svg xmlns:rdf="http://www.w3.org/1999/02/22-rdf-syntax-ns#" xmlns="http://www.w3.org/2000/svg" height="48" width="48" version="1.1" xmlns:cc="http://creativecommons.org/ns#" xmlns:xlink="http://www.w3.org/1999/xlink" xmlns:dc="http://purl.org/dc/elements/1.1/">
 <defs>
  <linearGradient id="linearGradient12443" y2="3" gradientUnits="userSpaceOnUse" x2="27.5" y1=".5" x1="27.5">
   <stop stop-color="#fff" offset="0"/>
   <stop stop-color="#fff" stop-opacity="0" offset="1"/>
  </linearGradient>
 </defs>
 <g transform="translate(0 -1004.4)">
  <path style="block-progression:tb;text-indent:0;color:#000000;text-transform:none" d="m2 1004.4c-1.108 0-2 0.892-2 2v44c0 1.108 0.892 2 2 2h44c1.108 0 2-0.892 2-2v-19-1.4375l-25.562-25.562h-1.4688-18.969z" fill="#ba00ff"/>
  <path style="block-progression:tb;text-indent:0;color:#000000;text-transform:none" d="m4 1008.4h17l23 23v17h-40z" fill="#fff"/>
  <path style="block-progression:tb;text-indent:0;color:#000000;text-transform:none" d="m27 1004.4 21 21v-19c0-1.108-0.892-2-2-2z" fill="#ba00ff"/>
 </g>
 <g>
  <path fill="#b88100" d="m34 31-11-11 35.355 35.355 11 11z"/>
  <path opacity=".25" style="color:#000000" d="m20.25 17c-6.445 0-0.808 3.633-2.344 5.219-0.102 0.105-0.234 0.195-0.406 0.281h-6.5v4.5c0.062 0.125 0.146 0.225 0.219 0.312 0.051 0.06 0.1 0.114 0.156 0.157l0.063 0.062 4.718 4.719c-0.009 0.019-0.022 0.045-0.031 0.062-0.082 0.159-0.179 0.284-0.281 0.376-1.225 1.095-3.813-2.25-4.844-0.188v6.5l9 9h26c1.108 0 2-0.892 2-2v-3.531l-15.562-15.563c-0.042-0.05-0.08-0.087-0.126-0.125-0.028-0.024-0.063-0.043-0.093-0.062l-9.031-9.063c-0.009-0.009-0.023-0.022-0.032-0.031-0.126-0.126-0.322-0.221-0.562-0.313-0.118-0.046-0.224-0.088-0.375-0.124-0.202-0.049-0.453-0.096-0.719-0.126-0.36-0.039-0.757-0.062-1.25-0.062z"/>
 </g>
 <g>
  <path style="color:#000000" d="m11 22.5h6.5c2.75-1.375-4.125-5.5 2.75-5.5s0 4.125 2.75 5.5h4.5v4.5c1.375 2.75 5.5-4.125 5.5 2.75s-4.125 0-5.5 2.75v6.5h-4.5c-2.75-1.375 4.125-5.5-2.75-5.5s0 4.125-2.75 5.5h-6.5v-6.5c1.375-2.75 5.5 4.125 5.5-2.75s-4.125 0-5.5-2.75z" fill="#ba00ff"/>
 </g>
 <g fill="url(#linearGradient12443)">
  <path opacity=".4" style="color:#000000" d="m27 0 0.5 0.5 2.9601 2.95h0.64926l-2.968-2.95h17.859c0.83101 0 1.5 0.66899 1.5 1.5v18.5l0.5 0.5v-19c0-1.108-0.892-2-2-2z"/>
  <path opacity=".4" style="color:#000000" d="m2 0c-1.108 0-2 0.892-2 2v44c0 1.108 0.892 2 2 2h44c0.554 0 1.0448-0.23225 1.4062-0.59375 0.362-0.361 0.594-0.852 0.594-1.406v-19-1.4375l-0.5-0.5v20.938c0 0.83101-0.66899 1.5-1.5 1.5h-44c-0.831 0-1.5-0.669-1.5-1.5v-44c0-0.831 0.669-1.5 1.5-1.5h20.261l2.9862 2.95h0.63687l-2.946-2.95-0.5-0.5z"/>
 </g>
</svg>
