<svg xmlns:rdf="http://www.w3.org/1999/02/22-rdf-syntax-ns#" xmlns="http://www.w3.org/2000/svg" height="48" width="48" version="1.1" xmlns:cc="http://creativecommons.org/ns#" xmlns:xlink="http://www.w3.org/1999/xlink" xmlns:dc="http://purl.org/dc/elements/1.1/">
 <defs>
  <linearGradient id="linearGradient12443" y2="3" gradientUnits="userSpaceOnUse" x2="27.5" y1=".5" x1="27.5">
   <stop stop-color="#fff" offset="0"/>
   <stop stop-color="#fff" stop-opacity="0" offset="1"/>
  </linearGradient>
  <filter id="filter5233" height="1.5357" width="1.6818" y="-.26786" x="-.34091">
   <feGaussianBlur stdDeviation="3.125"/>
  </filter>
  <clipPath id="clipPath5263" clipPathUnits="userSpaceOnUse">
   <path opacity=".4" d="m13 10v11l2 2h-2v15l10 10h23c1.108 0 2-0.892 2-2v-23l-13-13h-6v2l-2-2h-14z"/>
  </clipPath>
 </defs>
 <g transform="translate(0 -1004.4)">
  <rect style="color:#000000" ry="2" height="48" width="48" y="1004.4" x="0" fill="#009100"/>
 </g>
 <g>
  <path opacity=".3" d="m13 10v11l2 2h-2v15l10 10h23c1.108 0 2-0.892 2-2v-23l-13-13h-6v2l-2-2h-14z"/>
  <path d="m29 38v-28h6v28zm-8 0v-20h6v20zm-8 0v-15h6v15zm0-17h6v-5h8v-6h-14z" clip-path="url(#clipPath5263)" filter="url(#filter5233)"/>
 </g>
 <g>
  <path fill="#fff" d="m29 38v-28h6v28zm-8 0v-20h6v20zm-8 0v-15h6v15zm0-17h6v-5h8v-6h-14z"/>
 </g>
 <path opacity=".4" style="color:#000000" d="m2 0c-1.108 0-2 0.892-2 2v44c0 1.108 0.892 2 2 2h44c1.108 0 2-0.892 2-2v-44c0-1.108-0.892-2-2-2h-44zm0 0.5h44c0.83101 0 1.5 0.66899 1.5 1.5v44c0 0.83101-0.66899 1.5-1.5 1.5h-44c-0.831 0-1.5-0.669-1.5-1.5v-44c0-0.831 0.669-1.5 1.5-1.5z" fill="url(#linearGradient12443)"/>
</svg>
