<svg xmlns:rdf="http://www.w3.org/1999/02/22-rdf-syntax-ns#" xmlns="http://www.w3.org/2000/svg" height="48" width="48" version="1.1" xmlns:cc="http://creativecommons.org/ns#" xmlns:xlink="http://www.w3.org/1999/xlink" xmlns:dc="http://purl.org/dc/elements/1.1/">
 <defs>
  <linearGradient id="linearGradient12443" y2="3" gradientUnits="userSpaceOnUse" y1=".5" x2="27.5" x1="27.5">
   <stop stop-color="#fff" offset="0"/>
   <stop stop-color="#fff" stop-opacity="0" offset="1"/>
  </linearGradient>
  <linearGradient id="linearGradient3922" y2="1052.1" gradientUnits="userSpaceOnUse" x2="23.158" y1="1004.8" x1="23.158">
   <stop stop-color="#143343" offset="0"/>
   <stop stop-color="#0e232e" offset="1"/>
  </linearGradient>
  <linearGradient id="linearGradient3973" y2="40.476" gradientUnits="userSpaceOnUse" y1="46.285" x2="26.528" x1="26.528">
   <stop offset="0"/>
   <stop stop-opacity="0" offset="1"/>
  </linearGradient>
  <filter id="filter8625" height="1.1839" width="1.3455" y="-.091935" x="-.17273">
   <feGaussianBlur stdDeviation="1.1608986"/>
  </filter>
  <clipPath id="clipPath8647" clipPathUnits="userSpaceOnUse">
   <path opacity=".25" d="m24 8.8438c-2.5532 0-4.5938 2.0127-4.5938 4.5v12.406l-1.75-1.75h-1.7188v2.8125c0 0.23192 0.01025 0.4603 0.03125 0.6875 0.0028 0.03087-0.0032 0.06298 0 0.09375 0.02053 0.19476 0.05842 0.37193 0.09375 0.5625 0.01156 0.06285 0.01813 0.12515 0.03125 0.1875 0.03347 0.15805 0.08171 0.31412 0.125 0.46875 0.04065 0.14622 0.07587 0.29461 0.125 0.4375 0.06268 0.18188 0.14286 0.3553 0.21875 0.53125 0.04661 0.10805 0.10485 0.20686 0.15625 0.3125 0.09212 0.18944 0.17432 0.38142 0.28125 0.5625 0.08882 0.15041 0.18273 0.29334 0.28125 0.4375 0.1251 0.18355 0.23503 0.35862 0.375 0.53125 0.0187 0.02303 0.04354 0.03967 0.0625 0.0625 0.0096 0.0116 0.02156 0.0197 0.03125 0.03125 0.07355 0.08762 0.17276 0.1655 0.25 0.25 0.07221 0.07905 0.14342 0.17379 0.21875 0.25 0.01008 0.01018 0.02112 0.02112 0.03125 0.03125 0.14595 0.14608 0.28058 0.30256 0.4375 0.4375l3.5938 3.5938v1.1875h-1.75v1.6875l8.844 8.844h16.625c1.108 0 2-0.892 2-2v-15.094l-20.688-20.718c-0.016-0.017-0.046-0.016-0.062-0.032-0.277-0.2693-0.566-0.4932-0.906-0.6872-0.428-0.244-0.904-0.4317-1.406-0.5313-0.306-0.0616-0.613-0.0937-0.938-0.0937z"/>
  </clipPath>
 </defs>
 <g transform="translate(0 -1004.4)">
  <path style="color:#000000" d="m2 1004.4h44c1.108 0 2 0.892 2 2v44c0 1.108-0.892 2-2 2h-44c-1.108 0-2-0.892-2-2v-44c0-1.108 0.892-2 2-2z" fill="url(#linearGradient3922)"/>
  <g transform="matrix(.10754 0 0 .043448 66.659 1029.6)"></g>
  <g transform="matrix(.097760 0 0 .097760 -1.8311 969.96)"></g>
  <g transform="translate(.29911 -1.0502)">
   <path d="m8.7654 1036c-0.66194 0-1.1948 0.5329-1.1948 1.1948v2.3897c0 0.662 0.5329 1.1949 1.1948 1.1949h4.7794c0.66194 0 1.1948-0.5329 1.1948-1.1949v-2.3897c0-0.6619-0.5329-1.1948-1.1948-1.1948h-4.7794z" fill="#f99930"/>
   <path d="m8.7654 1042c-0.66194 0-1.1948 0.5329-1.1948 1.1948v2.3897c0 0.662 0.5329 1.1949 1.1948 1.1949h4.7794c0.66194 0 1.1948-0.5329 1.1948-1.1949v-2.3897c0-0.6619-0.5329-1.1948-1.1948-1.1948h-4.7794z" fill="#ca0a0a"/>
   <path d="m17.129 1012.1c-0.66194 0-1.1948 0.5329-1.1948 1.1948v2.3897c0 0.662 0.5329 1.1948 1.1948 1.1948h4.7794c0.66194 0 1.1948-0.5328 1.1948-1.1948v-2.3897c0-0.6619-0.5329-1.1948-1.1948-1.1948h-4.7794z" fill="#c83771"/>
   <path d="m17.129 1018.1c-0.66194 0-1.1948 0.5329-1.1948 1.1948v2.3897c0 0.662 0.5329 1.1949 1.1948 1.1949h4.7794c0.66194 0 1.1948-0.5329 1.1948-1.1949v-2.3897c0-0.6619-0.5329-1.1948-1.1948-1.1948h-4.7794z" fill="#8e65cd"/>
   <path d="m17.129 1024c-0.66194 0-1.1948 0.5329-1.1948 1.1948v2.3897c0 0.662 0.5329 1.1949 1.1948 1.1949h4.7794c0.66194 0 1.1948-0.5329 1.1948-1.1949v-2.3897c0-0.6619-0.5329-1.1948-1.1948-1.1948h-4.7794z" fill="#3ea6c1"/>
   <path d="m17.129 1030c-0.66194 0-1.1948 0.5329-1.1948 1.1948v2.3897c0 0.662 0.5329 1.1949 1.1948 1.1949h4.7794c0.66194 0 1.1948-0.5329 1.1948-1.1949v-2.3897c0-0.6619-0.5329-1.1948-1.1948-1.1948h-4.7794z" fill="#a6ce06"/>
   <path d="m17.129 1036c-0.66194 0-1.1948 0.5329-1.1948 1.1948v2.3897c0 0.662 0.5329 1.1949 1.1948 1.1949h4.7794c0.66194 0 1.1948-0.5329 1.1948-1.1949v-2.3897c0-0.6619-0.5329-1.1948-1.1948-1.1948h-4.7794z" fill="#f99930"/>
   <path d="m17.129 1042c-0.66194 0-1.1948 0.5329-1.1948 1.1948v2.3897c0 0.662 0.5329 1.1949 1.1948 1.1949h4.7794c0.66194 0 1.1948-0.5329 1.1948-1.1949v-2.3897c0-0.6619-0.5329-1.1948-1.1948-1.1948h-4.7794z" fill="#ca0a0a"/>
   <path d="m25.493 1030c-0.66194 0-1.1948 0.5329-1.1948 1.1948v2.3897c0 0.662 0.5329 1.1949 1.1948 1.1949h4.7794c0.66194 0 1.1948-0.5329 1.1948-1.1949v-2.3897c0-0.6619-0.5329-1.1948-1.1948-1.1948h-4.7794z" fill="#a6ce06"/>
   <path d="m25.493 1036c-0.66194 0-1.1948 0.5329-1.1948 1.1948v2.3897c0 0.662 0.5329 1.1949 1.1948 1.1949h4.7794c0.66194 0 1.1948-0.5329 1.1948-1.1949v-2.3897c0-0.6619-0.5329-1.1948-1.1948-1.1948h-4.7794z" fill="#f99930"/>
   <path d="m25.493 1042c-0.66194 0-1.1948 0.5329-1.1948 1.1948v2.3897c0 0.662 0.5329 1.1949 1.1948 1.1949h4.7794c0.66194 0 1.1948-0.5329 1.1948-1.1949v-2.3897c0-0.6619-0.5329-1.1948-1.1948-1.1948h-4.7794z" fill="#ca0a0a"/>
   <path d="m33.857 1024c-0.66194 0-1.1948 0.5329-1.1948 1.1948v2.3897c0 0.662 0.5329 1.1949 1.1948 1.1949h4.7794c0.66194 0 1.1948-0.5329 1.1948-1.1949v-2.3897c0-0.6619-0.5329-1.1948-1.1948-1.1948h-4.7794z" fill="#3ea6c1"/>
   <path d="m33.857 1030c-0.66194 0-1.1948 0.5329-1.1948 1.1948v2.3897c0 0.662 0.5329 1.1949 1.1948 1.1949h4.7794c0.66194 0 1.1948-0.5329 1.1948-1.1949v-2.3897c0-0.6619-0.5329-1.1948-1.1948-1.1948h-4.7794z" fill="#a6ce06"/>
   <path d="m33.857 1036c-0.66194 0-1.1948 0.5329-1.1948 1.1948v2.3897c0 0.662 0.5329 1.1949 1.1948 1.1949h4.7794c0.66194 0 1.1948-0.5329 1.1948-1.1949v-2.3897c0-0.6619-0.5329-1.1948-1.1948-1.1948h-4.7794z" fill="#f99930"/>
   <path d="m33.857 1042c-0.66194 0-1.1948 0.5329-1.1948 1.1948v2.3897c0 0.662 0.5329 1.1949 1.1948 1.1949h4.7794c0.66194 0 1.1948-0.5329 1.1948-1.1949v-2.3897c0-0.6619-0.5329-1.1948-1.1948-1.1948h-4.7794z" fill="#ca0a0a"/>
  </g>
 </g>
 <g>
  <flowRoot style="word-spacing:0px;letter-spacing:0px" line-height="125%" xml:space="preserve" font-size="40px" transform="translate(-18.262 -1007.9)" font-family="sans-serif" fill="#000000"><flowRegion><rect y="6.6343" width="57.629" x="-53.033" height="49.321"/></flowRegion><flowPara/></flowRoot>
  <path opacity=".25" d="m24 8.8438c-2.553 0-4.594 2.0122-4.594 4.5002v12.406l-1.75-1.75h-1.718v2.812c0 0.232 0.01 0.461 0.031 0.688 0.003 0.031-0.003 0.063 0 0.094 0.02 0.195 0.058 0.372 0.093 0.562 0.012 0.063 0.019 0.125 0.032 0.188 0.033 0.158 0.081 0.314 0.125 0.468 0.04 0.147 0.076 0.295 0.125 0.438 0.062 0.182 0.143 0.355 0.218 0.531 0.047 0.108 0.105 0.207 0.157 0.313 0.092 0.189 0.174 0.381 0.281 0.562 0.089 0.151 0.183 0.294 0.281 0.438 0.125 0.183 0.235 0.358 0.375 0.531 0.019 0.023 0.044 0.04 0.063 0.063 0.009 0.011 0.021 0.019 0.031 0.031 0.074 0.087 0.173 0.165 0.25 0.25 0.072 0.079 0.143 0.174 0.219 0.25l0.031 0.031c0.146 0.146 0.281 0.303 0.438 0.438l3.593 3.593v1.188h-1.75v1.687l8.844 8.844h16.625c1.108 0 2-0.892 2-2v-15.094l-20.688-20.718c-0.016-0.017-0.046-0.016-0.062-0.032-0.277-0.2693-0.566-0.4932-0.906-0.6872-0.428-0.244-0.904-0.4317-1.406-0.5313-0.306-0.0616-0.613-0.0937-0.938-0.0937z"/>
  <path opacity=".6" d="m24 8.8473c-2.5532 0-4.6087 2.0024-4.6087 4.4897v13.469c0 2.4873 2.0555 4.4897 4.6087 4.4897s4.6087-2.0024 4.6087-4.4897v-13.469c0.001-2.487-2.055-4.4898-4.608-4.4898zm-8.0652 15.153v2.806c0 3.7107 2.7482 6.8749 6.3369 7.6641v2.999h-1.7282v1.6836h6.913v-1.6836h-1.7283v-2.999c3.5888-0.7892 6.337-3.9534 6.3369-7.6641l-0.000049-2.806h-1.7102l0.000007 2.806c0 3.402-2.863 6.191-6.355 6.191-3.4922 0-6.3549-2.7888-6.3549-6.1909v-2.806z" clip-path="url(#clipPath8647)" filter="url(#filter8625)"/>
 </g>
 <g>
  <path d="m24 8.8473c-2.5532 0-4.6087 2.0024-4.6087 4.4897v13.469c0 2.4873 2.0555 4.4897 4.6087 4.4897s4.6087-2.0024 4.6087-4.4897v-13.469c0.001-2.487-2.055-4.4898-4.608-4.4898zm-8.0652 15.153v2.806c0 3.7107 2.7482 6.8749 6.3369 7.6641v2.999h-1.7282v1.6836h6.913v-1.6836h-1.7283v-2.999c3.5888-0.7892 6.337-3.9534 6.3369-7.6641l-0.000049-2.806h-1.7102l0.000007 2.806c0 3.402-2.863 6.191-6.355 6.191-3.4922 0-6.3549-2.7888-6.3549-6.1909v-2.806z" fill="#fff"/>
 </g>
 <g>
  <path opacity=".4" style="color:#000000" d="m2 0c-1.108 0-2 0.892-2 2v44c0 1.108 0.892 2 2 2h44c1.108 0 2-0.892 2-2v-44c0-1.108-0.892-2-2-2h-44zm0 0.5h44c0.83101 0 1.5 0.66899 1.5 1.5v44c0 0.83101-0.66899 1.5-1.5 1.5h-44c-0.831 0-1.5-0.669-1.5-1.5v-44c0-0.831 0.669-1.5 1.5-1.5z" fill="url(#linearGradient12443)"/>
  <path opacity=".4" style="color:#000000" d="m2 0c-1.108 0-2 0.892-2 2v44c0 1.108 0.892 2 2 2h44c1.108 0 2-0.892 2-2v-44c0-1.108-0.892-2-2-2h-44zm0 0.5h44c0.83101 0 1.5 0.66899 1.5 1.5v44c0 0.83101-0.66899 1.5-1.5 1.5h-44c-0.831 0-1.5-0.669-1.5-1.5v-44c0-0.831 0.669-1.5 1.5-1.5z" fill="url(#linearGradient3973)"/>
 </g>
</svg>
