<svg xmlns:rdf="http://www.w3.org/1999/02/22-rdf-syntax-ns#" xmlns="http://www.w3.org/2000/svg" height="48" width="48" version="1.1" xmlns:cc="http://creativecommons.org/ns#" xmlns:xlink="http://www.w3.org/1999/xlink" xmlns:dc="http://purl.org/dc/elements/1.1/">
 <defs>
  <linearGradient id="linearGradient12443" y2="3" gradientUnits="userSpaceOnUse" x2="27.5" y1=".5" x1="27.5">
   <stop stop-color="#fff" offset="0"/>
   <stop stop-color="#fff" stop-opacity="0" offset="1"/>
  </linearGradient>
  <linearGradient id="linearGradient3922" y2="1052.1" gradientUnits="userSpaceOnUse" y1="1004.8" x2="23.158" x1="23.158">
   <stop stop-color="#0084c8" offset="0"/>
   <stop stop-color="#005c94" offset="1"/>
  </linearGradient>
  <linearGradient id="linearGradient3973" y2="40.476" gradientUnits="userSpaceOnUse" x2="26.528" y1="46.285" x1="26.528">
   <stop offset="0"/>
   <stop stop-opacity="0" offset="1"/>
  </linearGradient>
  <filter id="filter7031" height="1.1986" width="1.3032" y="-.099310" x="-.15158">
   <feGaussianBlur stdDeviation="1.2"/>
  </filter>
  <clipPath id="clipPath7053" clipPathUnits="userSpaceOnUse">
   <path opacity=".25" style="color:#000000" d="m24 8c-4.986 0-9 4.014-9 9v11c0 2.493 0.99825 4.7482 2.625 6.375l13.625 13.625h14.75c1.108 0 2-0.892 2-2v-18.75l-16.625-16.625c-0.01042-0.01042-0.02078-0.02088-0.03125-0.03125-0.0056-0.0055-0.02567 0.0055-0.03125 0-0.36748-0.36202-0.7616-0.70571-1.1875-1-0.043-0.0295-0.082-0.065-0.125-0.0938-0.219-0.1462-0.455-0.2794-0.688-0.4062-0.019-0.0107-0.042-0.0208-0.062-0.0313-0.245-0.1316-0.492-0.2661-0.75-0.375-0.0093-0.00389-0.02197 0.00386-0.03125 0-0.25836-0.10791-0.51117-0.19734-0.78125-0.28125-0.0095-0.00293-0.02174 0.0029-0.03125 0-0.5508-0.16909-1.1278-0.31385-1.7188-0.375-0.0101-0.00101-0.02114 0.0009816-0.03125 0-0.301-0.0301-0.597-0.0312-0.906-0.0312h-1z"/>
  </clipPath>
 </defs>
 <g transform="translate(0 -1004.4)">
  <path style="color:#000000" d="m2 1004.4h44c1.108 0 2 0.892 2 2v44c0 1.108-0.892 2-2 2h-44c-1.108 0-2-0.892-2-2v-44c0-1.108 0.892-2 2-2z" fill="url(#linearGradient3922)"/>
 </g>
 <g>
  <path opacity=".25" style="color:#000000" d="m24 8c-4.986 0-9 4.014-9 9v11c0 2.493 0.998 4.748 2.625 6.375l13.625 13.625h14.75c1.108 0 2-0.892 2-2v-18.75l-16.625-16.625-0.031-0.031c-0.006-0.006-0.026 0.005-0.032 0-0.367-0.362-0.761-0.706-1.187-1.0002-0.043-0.0295-0.082-0.065-0.125-0.0938-0.219-0.1462-0.455-0.2794-0.688-0.4062-0.019-0.0107-0.042-0.0208-0.062-0.0313-0.245-0.1316-0.492-0.2661-0.75-0.375-0.009-0.0039-0.022 0.0039-0.031 0-0.259-0.1079-0.511-0.1973-0.781-0.2813-0.01-0.0029-0.022 0.0029-0.032 0-0.551-0.169-1.128-0.3138-1.718-0.375-0.011-0.001-0.022 0.001-0.032 0-0.301-0.0301-0.597-0.0312-0.906-0.0312h-1z"/>
  <flowRoot style="word-spacing:0px;letter-spacing:0px" xml:space="preserve" transform="translate(-18.262 -1007.9)" line-height="125%" font-size="40px" font-family="sans-serif" fill="#000000"><flowRegion><rect y="6.6343" x="-53.033" width="57.629" height="49.321"/></flowRegion><flowPara/></flowRoot>
  <path opacity=".6" filter="url(#filter7031)" style="color:#000000" d="m24 8c-4.986 0-9 4.014-9 9v2h9v-3.0938c-0.587-0.203-1-0.748-1-1.406v-2c0-0.65788 0.41298-1.203 1-1.4062v-3.094zm1 0v3.0938c0.58702 0.20326 1 0.74838 1 1.4062v2c0 0.65788-0.41298 1.203-1 1.4062v3.094h9v-2c0-4.986-4.014-9-9-9zm-10 12v8c0 4.986 4.014 9 9 9h1c4.986 0 9-4.014 9-9v-8h-19z" clip-path="url(#clipPath7053)"/>
 </g>
 <g>
  <path style="color:#000000" d="m24 8c-4.986 0-9 4.014-9 9v2h9v-3.0938c-0.587-0.203-1-0.748-1-1.406v-2c0-0.65788 0.41298-1.203 1-1.4062v-3.094zm1 0v3.0938c0.58702 0.20326 1 0.74838 1 1.4062v2c0 0.65788-0.41298 1.203-1 1.4062v3.094h9v-2c0-4.986-4.014-9-9-9zm-10 12v8c0 4.986 4.014 9 9 9h1c4.986 0 9-4.014 9-9v-8h-19z" fill="#fff"/>
 </g>
 <g>
  <path opacity=".4" style="color:#000000" d="m2 0c-1.108 0-2 0.892-2 2v44c0 1.108 0.892 2 2 2h44c1.108 0 2-0.892 2-2v-44c0-1.108-0.892-2-2-2h-44zm0 0.5h44c0.83101 0 1.5 0.66899 1.5 1.5v44c0 0.83101-0.66899 1.5-1.5 1.5h-44c-0.831 0-1.5-0.669-1.5-1.5v-44c0-0.831 0.669-1.5 1.5-1.5z" fill="url(#linearGradient12443)"/>
  <path opacity=".4" style="color:#000000" d="m2 0c-1.108 0-2 0.892-2 2v44c0 1.108 0.892 2 2 2h44c1.108 0 2-0.892 2-2v-44c0-1.108-0.892-2-2-2h-44zm0 0.5h44c0.83101 0 1.5 0.66899 1.5 1.5v44c0 0.83101-0.66899 1.5-1.5 1.5h-44c-0.831 0-1.5-0.669-1.5-1.5v-44c0-0.831 0.669-1.5 1.5-1.5z" fill="url(#linearGradient3973)"/>
 </g>
</svg>
