<svg xmlns:rdf="http://www.w3.org/1999/02/22-rdf-syntax-ns#" xmlns="http://www.w3.org/2000/svg" height="48" width="48" version="1.1" xmlns:cc="http://creativecommons.org/ns#" xmlns:xlink="http://www.w3.org/1999/xlink" xmlns:dc="http://purl.org/dc/elements/1.1/">
 <defs>
  <linearGradient id="linearGradient12443" y2="3" gradientUnits="userSpaceOnUse" x2="27.5" y1=".5" x1="27.5">
   <stop stop-color="#fff" offset="0"/>
   <stop stop-color="#fff" stop-opacity="0" offset="1"/>
  </linearGradient>
  <linearGradient id="linearGradient6468">
   <stop stop-color="#fff" offset="0"/>
   <stop stop-color="#b9b9b0" offset="1"/>
  </linearGradient>
  <linearGradient id="linearGradient6957" x1="37.018" gradientUnits="userSpaceOnUse" y1="19.24" gradientTransform="translate(-49.305 1.8777)" x2="27.754" y2="11.182">
   <stop stop-color="#6e3d09" offset="0"/>
   <stop stop-color="#ea8113" offset=".24242"/>
   <stop stop-color="#5c3307" offset=".62121"/>
   <stop stop-color="#e07c12" offset="1"/>
  </linearGradient>
  <linearGradient id="linearGradient6945" x1="19.395" gradientUnits="userSpaceOnUse" y1="30.001" gradientTransform="translate(-46.407 -1.8029)" x2="23.109" y2="33.439">
   <stop stop-color="#bdbdbd" offset="0"/>
   <stop stop-color="#e2e2e2" offset=".33333"/>
   <stop stop-color="#a3a3a3" offset=".66667"/>
   <stop stop-color="#ddd" offset="1"/>
  </linearGradient>
  <radialGradient id="radialGradient6969" cx="15.415" gradientUnits="userSpaceOnUse" cy="35.357" r="7.5792" gradientTransform="matrix(1.5727 0 0 1.5326 -55.367 -21.358)">
   <stop stop-color="#696969" offset="0"/>
   <stop offset="1"/>
  </radialGradient>
  <linearGradient id="linearGradient2452" x1="13.236" gradientUnits="userSpaceOnUse" y1="37.752" gradientTransform="matrix(.75516 .39514 -.39514 .75516 -25.912 6.5326)" x2="7.7521" y2="42.282">
   <stop stop-color="#fff" offset="0"/>
   <stop stop-color="#fff" stop-opacity="0" offset="1"/>
  </linearGradient>
  <linearGradient id="linearGradient3203" y2="30.985" gradientUnits="userSpaceOnUse" x2="24.329" gradientTransform="translate(-65.049 -13.407)" y1="30.543" x1="26.163">
   <stop offset="0"/>
   <stop stop-opacity="0" offset="1"/>
  </linearGradient>
  <radialGradient id="radialGradient3216" xlink:href="#linearGradient6468" gradientUnits="userSpaceOnUse" cy="19.598" cx="69.473" gradientTransform="matrix(1.9777 0 0 1.9777 -180.41 -33.688)" r="3.5153"/>
  <linearGradient id="linearGradient3221" y2="31.57" gradientUnits="userSpaceOnUse" x2="5.9846" gradientTransform="matrix(.80039 -.59948 .59948 .80039 -80.323 -6.0791)" y1="23.362" x1="6.3052">
   <stop stop-color="#fff" offset="0"/>
   <stop stop-color="#fff" stop-opacity="0" offset="1"/>
  </linearGradient>
  <radialGradient id="radialGradient3225" gradientUnits="userSpaceOnUse" cy="25.271" cx="6.0242" gradientTransform="matrix(.79751 -.46044 .53741 .93083 -78.96 -10.82)" r="4.831">
   <stop stop-color="#5b676b" offset="0"/>
   <stop stop-color="#141718" offset="1"/>
  </radialGradient>
  <radialGradient id="radialGradient3228" xlink:href="#linearGradient6468" gradientUnits="userSpaceOnUse" cy="19.598" cx="69.473" gradientTransform="matrix(1.6847 0 0 1.6847 -168.45 -27.89)" r="3.5153"/>
  <linearGradient id="linearGradient3231" y2="46.986" gradientUnits="userSpaceOnUse" x2="39.525" gradientTransform="translate(-65.049 -13.407)" y1="19.111" x1="14.969">
   <stop stop-color="#fff" offset="0"/>
   <stop stop-color="#fff" stop-opacity="0" offset="1"/>
  </linearGradient>
  <linearGradient id="linearGradient3234" y2="30.293" gradientUnits="userSpaceOnUse" x2="21.213" gradientTransform="translate(-68.885 -13.061)" y1="28.083" x1="32.35">
   <stop offset="0"/>
   <stop stop-opacity="0" offset="1"/>
  </linearGradient>
  <radialGradient id="radialGradient3237" gradientUnits="userSpaceOnUse" cy="22.3" cx="18.558" gradientTransform="matrix(1.7728 0 0 1.2967 -81.389 -20.023)" r="19.229">
   <stop stop-color="#857c63" offset="0"/>
   <stop stop-color="#221f19" offset="1"/>
  </radialGradient>
 </defs>
 <g transform="translate(0 -1004.4)">
  <rect style="color:#000000" ry="2" height="48" width="48" y="1004.4" x="0" fill="#364e59"/>
  <g transform="translate(2.5344 -3.6767)">
   <path d="m37.868 1025.6c-1.7787-3.1816-4.844-6.0104-9.6658-7.692-14.027-4.8917-20.9 2.7447-24.131 8.9243-3.3744 6.4528 1.7947 19.685 5.8457 18.445 3.56-1.0897 0.35256-10.591 6.126-10.706 4.0244-0.08 4.086 7.0772 7.2542 11.326 2.8917 3.8782 10.862 1.2825 14.386-3.553 2.3129-3.1733 3.5813-10.669 0.18561-16.743zm-8.8274 9.8157c0.85499 1.4809 0.34565 3.3819-1.1353 4.2369s-3.382 0.3456-4.237-1.1353c-0.85499-1.4809-0.34565-3.3819 1.1353-4.2369s3.3819-0.3457 4.237 1.1353z" fill="#ccc"/>
   <path d="m6.0004 1030.8c0.14671-1.3971 0.15477-5.2178 2.4307-4.21s5.1555 1.8538 3.6442 3.9411c-1.5112 2.0873-5.1344 5.7109-4.9718 3.6615 0.16268-2.0494-1.2498-1.9955-1.1031-3.3926z" fill="#ff4141"/>
   <path d="m19.734 1021.7s0.03697 4.0017 1.7565 4.3822c1.7196 0.3804 2.5474-0.8767 3.178-2.1457 0.6309-1.2687-0.59331-4.6291-1.8418-4.9417-1.2484-0.3125-2.9451 1.5657-3.0927 2.7052z" fill="#19aeff"/>
   <path d="m11.786 1024.1c0.1057 0.8775-0.88388 1.5309 1.3359 2.8125 2.2199 1.2817 3.5133-1.1355 3.5133-1.1355 0.50432-2.4645-0.27847-3.9371-1.6327-5.1271-1.3541-1.1901-2.972 2.6728-3.2166 3.4501z" fill="#9ade00"/>
  </g>
 </g>
 <g>
  <flowRoot style="word-spacing:0px;letter-spacing:0px" xml:space="preserve" transform="translate(-18.262 -1007.9)" line-height="125%" font-size="40px" font-family="sans-serif" fill="#000000"><flowRegion><rect y="6.6343" x="-53.033" width="57.629" height="49.321"/></flowRegion><flowPara/></flowRoot>
  <path opacity=".25" d="m42.469 12.188c-2.144 1.607-4.593 2.45-6.469 2.718s-2.656 2.656-2.656 2.656l-1.344 1.344-1.344 1.344s-7.555 7.624-10.437 11-6.969 9.094-6.969 9.094l7.656 7.656h25.094c1.108 0 2-0.892 2-2v-28.281l-5.531-5.531z"/>
  <path style="color:#000000" d="m-54.674-0.93903s2.8745 5.9276 9.5992 5.7604c14.093-0.35355 16.564-7.705 16.917-8.7656 0.35355-1.0607 0.89453-0.9 1.0196 0.080267 4.5962 41.719-31.897 23.819-33.193 16.714 7.2478-2.1213 5.4801-6.1872 5.4801-6.1872l0.17678-7.6014z" fill-rule="evenodd" stroke="#2e3436" stroke-miterlimit="10" fill="url(#radialGradient3237)"/>
  <path style="color:#000000" d="m-49.311 16.659c6.7389 1.3478 10.171 0.09809 12.179-1.4528-0.53033-0.68501-1.4363-1.4363-1.4363-1.4363s2.3533 0.65394 3.182 1.7236c0.82629 1.0666 0.30681 1.7237 0.09056 3.0884-0.48141-1.1986-1.38-1.6481-1.5016-2.1243-1.8063 2.4969-6.3064 2.3932-12.514 0.20148z" fill-rule="evenodd" fill="url(#linearGradient3234)"/>
  <path opacity=".18539" style="color:#000000" d="m-28.08-1.5632c-0.56198 0.9269-1.4065 2.0332-2.6875 3.0938-2.6319 2.179-7.0506 4.1623-14.281 4.3438-4.2244 0.10505-6.9527-1.9341-8.625-3.75l-0.125 4.4688c0.13611 0.4188 0.41546 1.3905-0.0625 2.7188-0.51431 1.4293-2.1545 2.8914-4.9688 4 0.25033 0.52203 0.49548 1.0436 1.25 1.7812 1.028 1.0049 2.457 2.088 4.1562 3.0625 3.3984 1.9489 7.8016 3.4932 11.906 3.5625 4.1047 0.06929 7.8571-1.2346 10.438-5 2.3787-3.4712 3.6825-9.3479 3-18.281z" stroke="url(#linearGradient3231)" stroke-miterlimit="10" fill="none"/>
  <path style="color:#000000" d="m-47.338 7.9882a4.0659 4.0659 0 1 1 -8.1317 0 4.0659 4.0659 0 1 1 8.1317 0z" fill-rule="evenodd" stroke="#888a85" stroke-miterlimit="10" fill="url(#radialGradient3228)"/>
  <path style="color:#000000" d="m-55.437 9.5201a6.0988 4.331 54.192 1 1 -7.0248 5.0679 6.0988 4.331 54.192 0 1 7.0248 -5.0679z" fill-rule="evenodd" stroke="#000" stroke-miterlimit="10" fill="url(#radialGradient3225)"/>
  <path style="color:#000000" d="m-48.495 8.5905a1.9576 1.9576 0 1 1 -3.9153 0 1.9576 1.9576 0 1 1 3.9153 0z" fill-rule="evenodd" stroke="#000" stroke-miterlimit="10" fill="#2e3436"/>
  <path opacity=".28090" style="color:#000000" d="m-62.163 8.0015c-0.63891 0.47854-0.97564 1.2882-0.9453 2.3869s0.46394 2.4439 1.3539 3.6321 2.0589 1.9826 3.1047 2.3208c1.0458 0.33812 1.9175 0.24269 2.5564-0.23584 0.63891-0.47854 0.97686-1.3268 0.95158-2.4306s-0.44714-2.4215-1.3352-3.6071c-0.88802-1.1856-2.0339-1.9611-3.086-2.2958-1.0521-0.33469-1.9612-0.24897-2.6002 0.22956z" stroke="url(#linearGradient3221)" stroke-miterlimit="10" fill="none"/>
  <path style="color:#000000" d="m-59.215 9.8443a1.7678 2.1213 0 1 1 -3.5355 0 1.7678 2.1213 0 1 1 3.5355 0z" fill-rule="evenodd" fill="#fff"/>
  <path style="color:#000000" d="m-49.851 7.687a1.3553 1.3553 0 1 1 -2.7106 0 1.3553 1.3553 0 1 1 2.7106 0z" fill-rule="evenodd" fill="#fff"/>
  <path style="color:#000000" d="m-38.234 8.4301a4.773 4.773 0 1 1 -9.5459 0 4.773 4.773 0 1 1 9.5459 0z" fill-rule="evenodd" stroke="#888a85" stroke-miterlimit="10" fill="url(#radialGradient3216)"/>
  <path style="color:#000000" d="m-39.593 9.1372a2.2981 2.2981 0 1 1 -4.5962 0 2.2981 2.2981 0 1 1 4.5962 0z" fill-rule="evenodd" stroke="#000" stroke-miterlimit="10" fill="#2e3436"/>
  <path style="color:#000000" d="m-41.184 8.0766a1.591 1.591 0 1 1 -3.182 0 1.591 1.591 0 1 1 3.182 0z" fill-rule="evenodd" fill="#fff"/>
  <g transform="matrix(-.11485 -.38986 .38986 -.11485 -40.334 16.283)">
   <path style="color:#000000" d="m-23.364 23.568 3.7101 3.4692c8.347-6.38 17.094-20.099 17.094-20.099 1.9763-2.2423-0.117-3.7503-2.1649-2.3978 0 0-12.97 10.115-18.639 19.028z" stroke="#673907" stroke-linecap="round" stroke-width="2.4605" fill="url(#linearGradient6957)"/>
   <path style="color:#000000" d="m-30.45 32.814 2.2463 1.9338 8.4928-7.367 0.27506-0.70583 1.0944-0.01782c-0.4375-1.5625-2.9415-4.3835-4.8165-4.3835l0.08202 1.0901-0.66999 0.38003-6.7041 9.0702z" stroke="#888a85" stroke-linecap="round" stroke-width="2.4605" fill="url(#linearGradient6945)"/>
   <path stroke-linejoin="round" style="color:#000000" d="m-23.801 28.377-4.3649 5.2665" stroke="#fff" stroke-linecap="round" stroke-width="2.4605" fill="none"/>
   <path style="color:#000000" d="m-45.341 42.77c10.444 0 18.37 1.2437 19.871-6.3547 1.2092-6.1233-7.2105-9.0574-11.383-3.5909-4.0193 5.266-8.4877 9.9456-8.4877 9.9456z" fill="url(#radialGradient6969)"/>
   <path opacity=".52778" style="color:#000000" d="m8.875 37.75a1.25 1.25 0 1 1 -2.5 0 1.25 1.25 0 1 1 2.5 0z" transform="matrix(2.0699 0 0 2.0699 -44.75 -41.51)" fill="#fff"/>
   <path style="color:#000000" d="m8.875 37.75a1.25 1.25 0 1 1 -2.5 0 1.25 1.25 0 1 1 2.5 0z" transform="matrix(1.3967 0 0 1.3967 -32.055 -25.877)" fill="#fff"/>
   <path opacity=".42778" style="color:#000000" d="m-38.544 40.909s3.7215 0.0943 6.1165-1.412c0.84735-0.53292 1.5158 0.64998 0.49382 1.0874-2.2074 0.94473-6.6104 0.32463-6.6104 0.32463z" fill="url(#linearGradient2452)"/>
  </g>
  <path style="color:#000000" d="m-42.046 18.33c1.4974 0.14309 2.8496-0.27221 3.4119-0.47405 0.09822-0.55539 0.53655-1.6213 2.0461-1.6915l-0.53033-0.92808s-1.9666 1.3479-4.0659 1.7457l-0.86179 1.3479z" fill-rule="evenodd" fill="url(#linearGradient3203)"/>
 </g>
 <g>
  <path fill="#fff" d="m42.46 12.195c-2.1436 1.6077-4.5722 2.4312-6.4479 2.6991-1.8757 0.26796-2.6616 2.6616-2.6616 2.6616l-1.3496 1.3496-1.3496 1.3496s-7.5398 7.6081-10.422 10.984c-2.8819 3.3758-6.9727 9.1095-6.9727 9.1095s5.7489-4.0808 9.1095-6.9727c3.3606-2.892 10.984-10.459 10.984-10.459l1.3496-1.3496 1.3121-1.3121s2.4553-0.4011 3.7863-1.612 2.6616-6.4479 2.6616-6.4479z"/>
 </g>
 <path opacity=".4" style="color:#000000" d="m2 0c-1.108 0-2 0.892-2 2v44c0 1.108 0.892 2 2 2h44c1.108 0 2-0.892 2-2v-44c0-1.108-0.892-2-2-2h-44zm0 0.5h44c0.83101 0 1.5 0.66899 1.5 1.5v44c0 0.83101-0.66899 1.5-1.5 1.5h-44c-0.831 0-1.5-0.669-1.5-1.5v-44c0-0.831 0.669-1.5 1.5-1.5z" fill="url(#linearGradient12443)"/>
</svg>
