<svg xmlns:rdf="http://www.w3.org/1999/02/22-rdf-syntax-ns#" xmlns="http://www.w3.org/2000/svg" height="48" width="48" version="1.1" xmlns:cc="http://creativecommons.org/ns#" xmlns:xlink="http://www.w3.org/1999/xlink" xmlns:dc="http://purl.org/dc/elements/1.1/">
 <defs>
  <linearGradient id="linearGradient12443" y2="3" gradientUnits="userSpaceOnUse" x2="27.5" y1=".5" x1="27.5">
   <stop stop-color="#fff" offset="0"/>
   <stop stop-color="#fff" stop-opacity="0" offset="1"/>
  </linearGradient>
 </defs>
 <g transform="translate(0 -1004.4)">
  <rect style="color:#000000" ry="2" height="48" width="48" y="1004.4" x="0" fill="#fff"/>
  <path opacity=".25" style="color:#000000" d="m41.844 19.531c-1.787 1.34-3.812 2.027-5.375 2.25-1.564 0.224-2.219 2.219-2.219 2.219l-1.125 1.125-1.125 1.125s-6.285 6.342-8.688 9.156c-2.402 2.814-5.812 7.594-5.812 7.594l5 5h23.5c1.108 0 2-0.892 2-2v-20.312l-6.156-6.157z" transform="translate(0 1004.4)"/>
  <path d="m41.048 1024.9c-0.89457-3.5336-3.1234-7.0594-7.3456-9.9316-12.283-8.3555-20.898-2.7582-25.619 2.3745-4.9296 5.3596-3.3613 19.479 0.87267 19.329 3.7208-0.1313 3.0818-10.139 8.6883-8.7563 3.9081 0.9641 2.1151 7.8936 4.0756 12.818 1.7894 4.4944 10.159 4.0499 14.815 0.2914 3.0554-2.4666 6.2206-9.3787 4.5128-16.125zm-11.067 7.1965c0.44257 1.6517-0.54144 3.3561-2.1932 3.7987s-3.3562-0.5415-3.7988-2.1932c-0.44257-1.6517 0.54144-3.3561 2.1932-3.7987s3.3561 0.5414 3.7988 2.1932z" fill="#804d00"/>
  <path d="m9.974 1021.5c0.50331-1.3116 1.5-5.0001 3.4375-3.4375 1.9375 1.5625 4.5 3.125 2.5 4.7499-2 1.6251-6.4375 4.1875-5.75 2.25 0.68756-1.9374-0.69077-2.2509-0.18746-3.5624z" fill="#ff4141"/>
  <path fill="#19aeff" d="m27.985 1017.8s-1 3.875 0.56249 4.6875 2.6875-0.1875 3.625-1.25c0.93778-1.0622 0.62502-4.6249-0.50003-5.25-1.125-0.625-3.25 0.7501-3.6875 1.8125z"/>
  <path fill="#9ade00" d="m19.673 1016.7c-0.12502 0.8749-1.25 1.25 0.56246 3.0624 1.8125 1.8125 3.6875-0.1875 3.6875-0.1875 1.125-2.25 0.75001-3.875-0.25002-5.375-0.99995-1.4999-3.5625 1.8126-4 2.5001z"/>
 </g>
 <g>
  <flowRoot style="word-spacing:0px;letter-spacing:0px" xml:space="preserve" transform="translate(-18.262 -1007.9)" line-height="125%" font-size="40px" font-family="sans-serif" fill="#000000"><flowRegion><rect y="6.6343" x="-53.033" width="57.629" height="49.321"/></flowRegion><flowPara/></flowRoot>
 </g>
 <g>
  <path d="m32.015 26.238s-6.3091 6.344-8.7114 9.1581-5.8076 7.5945-5.8076 7.5945 4.7931-3.3968 7.5945-5.8076 9.1581-8.7114 9.1581-8.7114l2.2337-2.2337-2.2337-2.2337z" fill="#0e232e"/>
  <path d="m34.249 24.005s0.67011-2.0103 2.2337-2.2337c1.5636-0.22337 3.5739-0.89348 5.3609-2.2337 0 0-1.1242 4.3515-2.2337 5.3609s-3.1272 1.3402-3.1272 1.3402z" fill="#ffff3e"/>
  <path style="color:#000000" d="m34.249 24.005 2.2337 2.2337-1.1168 1.1168-2.2337-2.2337z" fill="#9eabb0"/>
 </g>
 <path opacity=".4" style="color:#000000" d="m2 0c-1.108 0-2 0.892-2 2v44c0 1.108 0.892 2 2 2h44c1.108 0 2-0.892 2-2v-44c0-1.108-0.892-2-2-2h-44zm0 0.5h44c0.83101 0 1.5 0.66899 1.5 1.5v44c0 0.83101-0.66899 1.5-1.5 1.5h-44c-0.831 0-1.5-0.669-1.5-1.5v-44c0-0.831 0.669-1.5 1.5-1.5z" fill="url(#linearGradient12443)"/>
</svg>
