<svg xmlns:rdf="http://www.w3.org/1999/02/22-rdf-syntax-ns#" xmlns="http://www.w3.org/2000/svg" height="48" width="48" version="1.1" xmlns:cc="http://creativecommons.org/ns#" xmlns:xlink="http://www.w3.org/1999/xlink" xmlns:dc="http://purl.org/dc/elements/1.1/">
 <defs>
  <linearGradient id="linearGradient12443" y2="3" gradientUnits="userSpaceOnUse" y1=".5" x2="27.5" x1="27.5">
   <stop stop-color="#fff" offset="0"/>
   <stop stop-color="#fff" stop-opacity="0" offset="1"/>
  </linearGradient>
  <linearGradient id="linearGradient11794" y2="20.287" gradientUnits="userSpaceOnUse" x2="9.2541" y1="28.078" x1="22.748">
   <stop stop-color="#2ef407" offset="0"/>
   <stop stop-color="#22b505" offset="1"/>
  </linearGradient>
  <linearGradient id="linearGradient11802" y2="12.745" gradientUnits="userSpaceOnUse" x2="14.205" y1="19.995" x1="19.189">
   <stop stop-color="#00d67d" offset="0"/>
   <stop stop-color="#00bb6d" offset="1"/>
  </linearGradient>
  <linearGradient id="linearGradient11810" y2="8.8722" gradientUnits="userSpaceOnUse" x2="24.221" y1="15.055" x1="24.221">
   <stop stop-color="#19aeff" offset="0"/>
   <stop stop-color="#0097e9" offset="1"/>
  </linearGradient>
  <linearGradient id="linearGradient11818" y2="-9.8876" gradientUnits="userSpaceOnUse" x2="39.304" y1="-9.8876" x1="28.578">
   <stop stop-color="#3a25ff" offset="0"/>
   <stop stop-color="#5341ff" offset="1"/>
  </linearGradient>
  <linearGradient id="linearGradient11826" y2="-29.871" gradientUnits="userSpaceOnUse" x2="20.847" y1="-39.821" x1="26.592">
   <stop stop-color="#e760ff" offset="0"/>
   <stop stop-color="#dc1cff" offset="1"/>
  </linearGradient>
  <linearGradient id="linearGradient11834" y2="38.591" gradientUnits="userSpaceOnUse" x2="0.549" y1="50.067" x1="0.549">
   <stop stop-color="#ff3e8b" offset="0"/>
   <stop stop-color="#fc0065" offset="1"/>
  </linearGradient>
 </defs>
 <g transform="translate(0 -1004.4)">
  <path style="color:#000000" d="m2 1004.4h44c1.108 0 2 0.892 2 2v44c0 1.108-0.892 2-2 2h-44c-1.108 0-2-0.892-2-2v-44c0-1.108 0.892-2 2-2z" fill="#bdcdd4"/>
 </g>
 <g>
  <path opacity=".3" style="color:#000000" d="m24.094 6c-2.91 0-5.278 2.3019-5.375 5.188-0.97-0.762-2.146-1.188-3.313-1.188-1.371 0-2.731 0.543-3.781 1.594-1.9253 1.925-2.0721 4.924-0.469 7.031-2.871 0.113-5.156 2.476-5.156 5.375 0 1.486 0.5931 2.812 1.5625 3.781l2.8755 2.875c-0.7727 1.924-0.381 4.182 1.187 5.75l11.594 11.594h17.25 4.375 1.156c0.193 0 0.386-0.01 0.562-0.062 0.023-0.007 0.041-0.025 0.063-0.032 0.054-0.018 0.104-0.04 0.156-0.062 0.134-0.057 0.258-0.136 0.375-0.219 0.201-0.142 0.364-0.328 0.5-0.531 0.1-0.149 0.194-0.295 0.25-0.469 0.003-0.01-0.003-0.022 0-0.031 0.01-0.03 0.023-0.064 0.032-0.094 0.039-0.156 0.062-0.331 0.062-0.5v-1.156-4.375-12.781-4.469l-11.219-11.219-0.375-0.406c-1.05-1.051-2.41-1.563-3.781-1.563-0.653 0-1.314 0.109-1.937 0.344l-2.813-2.8125c-0.969-0.9694-2.296-1.5625-3.781-1.5625z"/>
 </g>
 <g>
  <path style="color:#000000" d="m24.084 6c2.9712 0 5.3631 2.392 5.3631 5.3631v4.5922c0 2.9712-2.392 5.3631-5.3631 5.3631-2.9712 0-5.3631-2.392-5.3631-5.3631v-4.5922c0-2.9712 2.392-5.3631 5.3631-5.3631z" fill="url(#linearGradient11810)"/>
  <path style="color:#000000" d="m33.941-17.547c2.9712 0 5.3631 2.392 5.3631 5.3631v4.5922c0 2.9712-2.392 5.3631-5.3631 5.3631-2.9712 0-5.3631-2.392-5.3631-5.3631v-4.5922c0-2.9712 2.392-5.3631 5.3631-5.3631z" transform="rotate(45)" fill="url(#linearGradient11818)"/>
  <path style="color:#000000" d="m24-42c2.9712 0 5.3631 2.392 5.3631 5.3631v4.5922c0 2.9712-2.392 5.3631-5.3631 5.3631-2.9712 0-5.3631-2.392-5.3631-5.3631v-4.5922c0-2.971 2.392-5.363 5.363-5.363z" transform="rotate(90)" fill="url(#linearGradient11826)"/>
  <path style="color:#000000" d="m-0.0098968 36.179c2.9712 0 5.3631 2.392 5.3631 5.3631v4.5922c0 2.9712-2.392 5.3631-5.3631 5.3631-2.9712 0-5.3631-2.392-5.3631-5.3631v-4.5922c0-2.9712 2.392-5.3631 5.3631-5.3631z" transform="rotate(-45)" fill="url(#linearGradient11834)"/>
  <path opacity=".2" style="color:#000000" d="m24.719 26.75c-1.1593 2.0458-0.90366 4.6901 0.84375 6.4375l3.25 3.2188c2.0221 2.0221 5.2325 2.089 7.3438 0.21875l-8.375-8.375c-0.81223-0.81223-1.8654-1.3436-3.0625-1.5z"/>
  <path style="color:#000000" d="m24 26.682c2.9712 0 5.3631 2.392 5.3631 5.3631v4.5922c0 2.9712-2.392 5.3631-5.3631 5.3631-2.9712 0-5.3631-2.392-5.3631-5.3631v-4.5922c0-2.9712 2.392-5.3631 5.3631-5.3631z" fill="#ff6519"/>
  <path opacity=".3" style="color:#000000" d="m23.438 26.719c-2.711 0.27367-4.8125 2.527-4.8125 5.3125v4.5938c0 2.9712 2.4038 5.375 5.375 5.375s5.375-2.4038 5.375-5.375v-4.0938l-5.8125-5.8125c-0.0403 0.0032-0.08496-0.004-0.125 0z"/>
  <path style="color:#000000" d="m22.461 25.59c2.1009 2.1009 2.1009 5.4837 0 7.5846l-3.248 3.246c-2.1009 2.1009-5.4837 2.1009-7.5846 0s-2.1009-5.4837 0-7.5846l3.2472-3.2472c2.1009-2.1009 5.4837-2.1009 7.5846 0z" fill="#ecff19"/>
  <path opacity=".3" style="color:#000000" d="m18.656 24c-1.3709 0-2.7308 0.54328-3.7812 1.5938l-3.25 3.25c-0.53311 0.53311-0.92494 1.1562-1.1875 1.8125l6.937 6.969c0.66905-0.26234 1.3014-0.67643 1.8438-1.2188l3.25-3.2188c2.1009-2.1009 2.1009-5.4928 0-7.5938-1.051-1.05-2.442-1.593-3.813-1.593z"/>
  <path style="color:#000000" d="m21.318 24c0 2.9712-2.392 5.3631-5.3631 5.3631h-4.5922c-2.9712 0-5.3631-2.392-5.3631-5.3631 0-2.9712 2.392-5.3631 5.3631-5.3631h4.5922c2.9712 0 5.3631 2.392 5.3631 5.3631z" fill="url(#linearGradient11794)"/>
  <path opacity=".2" style="color:#000000" d="m11.156 18.625c0.14629 0.19221 0.29308 0.38683 0.46875 0.5625l8.3438 8.3438c0.83359-0.94465 1.3438-2.1666 1.3438-3.5312 0-2.9712-2.3726-5.375-5.3438-5.375h-4.5938c-0.07199 0-0.14746-0.0028-0.21875 0z"/>
  <path style="color:#000000" d="m15.411 10.006c-1.3709 0-2.7205 0.54171-3.7709 1.5922-2.1009 2.1009-2.1009 5.4829 0 7.5838l3.2263 3.2263c2.1009 2.1009 5.4829 2.1009 7.5838 0 0.35812-0.35812 0.64386-0.75328 0.87989-1.1732-2.6103-0.36561-4.6089-2.5652-4.6089-5.2793v-4.6089c0-0.05858-0.0019-0.10947 0-0.1676-0.96932-0.76117-2.1431-1.1732-3.3101-1.1732z" fill="url(#linearGradient11802)"/>
  <path opacity=".2" style="color:#000000" d="m18.719 15.969c0 0.1857 0.013 0.35052 0.03125 0.53125 0.001 0.01029-0.0011 0.02098 0 0.03125 0.0092 0.08603 0.04529 0.16595 0.0625 0.25-0.04249-0.27218-0.09375-0.52744-0.09375-0.8125zm0.593 2.406c0.02402 0.04769 0.03711 0.1094 0.0625 0.15625 0.0068 0.01238 0.02436 0.01892 0.03125 0.03125-0.03398-0.06038-0.0621-0.12566-0.09375-0.1875zm0.188 0.344c0.04096 0.08274 0.07168 0.17095 0.125 0.25 0.0155 0.02297 0.04666 0.03978 0.0625 0.0625 0.03474 0.0497 0.05739 0.10781 0.09375 0.15625 0.06157 0.08201 0.14651 0.14459 0.21875 0.21875-0.18812-0.21869-0.34925-0.43979-0.5-0.6875zm0.71875 0.9375c0.03602 0.03756 0.05666 0.0885 0.09375 0.125 0.01998 0.01978 0.04221 0.04303 0.0625 0.0625l2.3125 2.2812c0.24251-0.2819 0.47923-0.56007 0.65625-0.875-1.2141-0.17006-2.3151-0.76291-3.125-1.5938z"/>
 </g>
 <path opacity=".4" style="color:#000000" d="m2 0c-1.108 0-2 0.892-2 2v44c0 1.108 0.892 2 2 2h44c1.108 0 2-0.892 2-2v-44c0-1.108-0.892-2-2-2h-44zm0 0.5h44c0.83101 0 1.5 0.66899 1.5 1.5v44c0 0.83101-0.66899 1.5-1.5 1.5h-44c-0.831 0-1.5-0.669-1.5-1.5v-44c0-0.831 0.669-1.5 1.5-1.5z" fill="url(#linearGradient12443)"/>
</svg>
