<svg xmlns:rdf="http://www.w3.org/1999/02/22-rdf-syntax-ns#" xmlns="http://www.w3.org/2000/svg" height="48" width="48" version="1.1" xmlns:cc="http://creativecommons.org/ns#" xmlns:xlink="http://www.w3.org/1999/xlink" xmlns:dc="http://purl.org/dc/elements/1.1/">
 <defs>
  <linearGradient id="linearGradient12443" y2="3" gradientUnits="userSpaceOnUse" x2="27.5" y1=".5" x1="27.5">
   <stop stop-color="#fff" offset="0"/>
   <stop stop-color="#fff" stop-opacity="0" offset="1"/>
  </linearGradient>
 </defs>
 <g transform="translate(0 -1004.4)">
  <rect style="color:#000000" ry="2" height="48" width="48" y="1004.4" x="0" fill="#364e59"/>
  <rect stroke-linejoin="round" style="color:#000000" ry="1.7708" height="38.072" width="42.072" stroke="#0e232e" stroke-linecap="round" y="1007.3" x="2.9639" stroke-width="1.9277" fill="#0e232e"/>
  <path style="color:#000000" d="m33 45c0 0.55228-0.44772 1-1 1s-1-0.44772-1-1 0.44772-1 1-1 1 0.44772 1 1z" transform="translate(5 1004.4)" fill="#9eabb0"/>
  <path style="color:#000000" d="m40 45c0 1.1046-0.89543 2-2 2s-2-0.89543-2-2 0.89543-2 2-2 2 0.89543 2 2z" transform="translate(4 1004.4)" fill="#9eabb0"/>
  <rect style="color:#000000" transform="translate(0 1004.4)" ry="1" height="2" width="34" y="35" x="6" fill="#364e59"/>
  <rect style="color:#000000" transform="translate(0 1004.4)" ry="1" height="2" width="21" y="35" x="6" fill="#b50000"/>
 </g>
 <g>
  <flowRoot style="word-spacing:0px;letter-spacing:0px" xml:space="preserve" transform="translate(-18.262 -1007.9)" line-height="125%" font-size="40px" font-family="sans-serif" fill="#000000"><flowRegion><rect y="6.6343" x="-53.033" width="57.629" height="49.321"/></flowRegion><flowPara/></flowRoot>
  <g transform="translate(-52.885 -3.6656)">
   <flowRoot style="word-spacing:0px;letter-spacing:0px" xml:space="preserve" transform="translate(-18.262 -1007.9)" line-height="125%" font-size="40px" font-family="sans-serif" fill="#000000"><flowRegion><rect y="6.6343" x="-53.033" width="57.629" height="49.321"/></flowRegion><flowPara/></flowRoot>
  </g>
  <path opacity=".25" style="color:#000000" d="m18 13v13l8 8c-0.512 0-1.016 0.203-1.406 0.594-0.781 0.781-0.781 2.031 0 2.812l10.594 10.594h10.812c1.108 0 2-0.892 2-2v-8l-18-18-12-7z"/>
  <path opacity=".4" style="color:#000000" d="m2 0c-1.108 0-2 0.892-2 2v44c0 1.108 0.892 2 2 2h44c1.108 0 2-0.892 2-2v-44c0-1.108-0.892-2-2-2h-44zm0 0.5h44c0.83101 0 1.5 0.66899 1.5 1.5v44c0 0.83101-0.66899 1.5-1.5 1.5h-44c-0.831 0-1.5-0.669-1.5-1.5v-44c0-0.831 0.669-1.5 1.5-1.5z" fill="url(#linearGradient12443)"/>
 </g>
 <g fill="#fff">
  <path style="color:#000000" d="m27.414 37.414c-0.78105 0.78105-2.0474 0.78105-2.8284 0-0.78105-0.78105-0.78105-2.0474 0-2.8284 0.78105-0.78105 2.0474-0.78105 2.8284 0 0.78105 0.78105 0.78105 2.0474 0 2.8284z"/>
  <path d="m18 13v13l12-6z"/>
 </g>
 <path opacity=".4" style="color:#000000" d="m2 0c-1.108 0-2 0.892-2 2v44c0 1.108 0.892 2 2 2h44c1.108 0 2-0.892 2-2v-44c0-1.108-0.892-2-2-2h-44zm0 0.5h44c0.83101 0 1.5 0.66899 1.5 1.5v44c0 0.83101-0.66899 1.5-1.5 1.5h-44c-0.831 0-1.5-0.669-1.5-1.5v-44c0-0.831 0.669-1.5 1.5-1.5z" fill="url(#linearGradient12443)"/>
</svg>
