<svg xmlns:rdf="http://www.w3.org/1999/02/22-rdf-syntax-ns#" xmlns="http://www.w3.org/2000/svg" height="48" width="48" version="1.1" xmlns:cc="http://creativecommons.org/ns#" xmlns:xlink="http://www.w3.org/1999/xlink" xmlns:dc="http://purl.org/dc/elements/1.1/">
 <defs>
  <linearGradient id="linearGradient12443" y2="3" gradientUnits="userSpaceOnUse" y1=".5" x2="27.5" x1="27.5">
   <stop stop-color="#fff" offset="0"/>
   <stop stop-color="#fff" stop-opacity="0" offset="1"/>
  </linearGradient>
  <filter id="filter6708" height="1.2312" width="1.2495" y="-.11562" x="-.12473">
   <feGaussianBlur stdDeviation="1.5415412"/>
  </filter>
  <clipPath id="clipPath6730" clipPathUnits="userSpaceOnUse">
   <path opacity=".35" d="m21.188 6.3438c-4.0907 0-7.0911 1.3044-8.6875 2.1875l-1.2812-1.25c-0.037-0.0537-0.079-0.1103-0.125-0.1563-0.048-0.0474-0.101-0.0871-0.156-0.125-0.011-0.0074-0.021-0.0242-0.032-0.0312-0.104-0.0652-0.224-0.1004-0.344-0.125-0.1193-0.024679-0.25438-0.025204-0.375 0-0.4933 0.1148-0.8254 0.6586-0.7182 1.1562l5.875 29.406c0.0022 0.08144 0.007 0.14257 0.03125 0.21875 0.01265 0.04197 0.01276 0.08523 0.03125 0.125 0.0061 0.01251 0.0246 0.019 0.03125 0.03125 0.04841 0.09275 0.11278 0.17528 0.1875 0.25l0.0625 0.03125c0.02651 0.02391 0.03377 0.07252 0.0625 0.09375l0.062 0.032 9.813 9.812h20.375c1.108 0 2-0.892 2-2v-27.469l-10.781-10.781-0.688 0.7188s-0.16755 0.12557-0.71875 0.34375-1.4587 0.46875-2.875 0.46875c-1.3053 0-2.7373-0.69491-4.5938-1.4375s-4.1361-1.5-7.1562-1.5z"/>
  </clipPath>
 </defs>
 <g transform="translate(0 -1004.4)">
  <rect style="color:#000000" ry="2" height="48" width="48" y="1004.4" x="0" fill="#f90"/>
  <g transform="matrix(.35545 0 0 .14361 171.12 1002.5)"></g>
  <g transform="matrix(.32314 0 0 .32314 -55.272 805.26)"></g>
  <path id="use5502" style="block-progression:tb;text-indent:0;color:#000000;text-transform:none" d="m10 15.75v0.5h5v-0.5h-5z" fill="#fff"/>
  <use id="use5504" xlink:href="#use5502" transform="translate(0,4)" height="48" width="48" y="0" x="0"/>
  <use id="use5506" xlink:href="#use5504" transform="translate(0,4)" height="48" width="48" y="0" x="0"/>
  <use xlink:href="#use5506" transform="translate(0,4)" height="48" width="48" y="0" x="0"/>
  <path opacity=".25" style="block-progression:tb;text-indent:0;color:#000000;text-transform:none" d="m5.0938 1004.4c0.5651 0.5541 0.91717 1.3026 0.9375 2.1563 0.04141 1.7391-1.3545 3.2086-3.0938 3.25-1.3734 0.032-2.5402-0.8466-3-2.0625v24.5l0.9375 0.094-0.0625 0.9375v0.062l0.28125 1.75v0.062l1.3438 2.875 0.0625 0.125h0.15625l1.9375-0.031h0.15625l0.0625-0.1563 1.1875-2.9375v-0.031l0.21875-1.7813v-0.062l-0.125-0.9375 2.7812-0.4375 0.21875 0.875h0.0625v0.031l0.8125 1.5625v0.062h0.0625l2.125 2.3437 0.09375 0.094 0.15625-0.031 1.8438-0.6875h0.15625v-0.1562l0.21875-3.2188v-0.031l-0.34375-1.7188v-0.062h-0.0625l-0.34375-0.8125 2.4688-1.3437 0.5 0.7812h0.0625l1.25 1.25 0.0625 0.031 2.75 1.5625 0.15625 0.062 0.09375-0.062 1.5312-1.2188 0.15625-0.094-0.0625-0.1563-0.75-3.0625-0.0625-0.062-0.8125-1.5v-0.062h-0.0625l-0.59375-0.6562 1.9688-2.0625 0.6875 0.5625v0.062h0.0625l1.5312 0.75 0.0625 0.031 3.125 0.625 0.125 0.031 0.09375-0.1563 1.1562-1.5937 0.0625-0.094-0.0625-0.1562-1.6875-2.6563-0.0625-0.062-1.3125-1.1875v-0.062l-0.78125-0.4687 1.2188-2.5313 0.84375 0.3125v0.062h0.03125l1.75 0.25h0.03125l3.1875-0.375h0.15625v-0.1562l0.59375-1.875 0.0625-0.1563-0.125-0.094-2.4375-2v-0.062h-0.0625l-1.5938-0.75h-0.0625v-0.031l-0.875-0.1875 0.3125-2.8125 0.9375 0.094h0.0625l1.75-0.3125h0.0625l2.875-1.3438 0.15625-0.031-0.03125-0.1563-0.03125-1.9687v-0.1563l-0.15625-0.031-0.84375-0.3438h-28.25zm15.219 6.5625c1.5746-0.037 3.4612 2.8477 2.7188 4.5625-2.0929 4.7326-5.8227 8.5904-10.469 10.875-1.6975 0.6672-4.526-1.0307-4.5625-2.5625l-0.28125-12.594 12.594-0.2813z"/>
  <path opacity=".25" style="block-progression:tb;text-indent:0;color:#000000;text-transform:none" d="m40.906 1016.3-0.15625 0.031-1.9688 0.25-0.09375 0.031-0.0625 0.125-0.8125 3.0625v0.062 1.7812l-0.03125 0.031 0.1875 0.9062-2.6875 0.8438-0.34375-0.8438 0.03125-0.031-0.03125-0.031-1-1.4687-0.03125-0.031-2.4375-2.0937-0.09375-0.094-0.09375 0.094-1.8125 0.8437-0.125 0.062v0.1563l0.1875 3.1562-0.03125 0.062 0.03125 0.031 0.53125 1.6562 0.03125 0.062-0.03125 0.031 0.5 0.75-2.3125 1.6875-0.5625-0.75-0.03125-0.031-1.4375-1.0937-0.03125-0.031-2.9375-1.1875-0.125-0.094-0.125 0.125-1.4062 1.375-0.09375 0.094 0.0625 0.125 1.0938 3 0.03125 0.031 1.0625 1.4375 0.03125 0.031 0.75 0.5938-1.75 2.25-0.75-0.5-0.03125 0.031-0.0625-0.031-1.6562-0.5938-0.03125-0.031-0.03125 0.031-3.1562-0.2812h-0.15625l-0.0625 0.125-0.90625 1.7812-0.09375 0.094 0.09375 0.094 2.0312 2.5 0.03125 0.031 1.4062 1.0312 0.03125 0.062 0.03125-0.062 0.84375 0.375-0.90625 2.6563-0.90625-0.2188-0.03125 0.031-1.7812-0.062h-0.0625l-3.0625 0.7187-0.15625 0.094-0.03125 0.094-0.3125 1.9375-0.03125 0.1875 0.125 0.062 2.6562 1.75h0.0625l1.6562 0.5313 0.03125 0.031 0.03125-0.031 0.90625 0.094-0.0625 2.8438-0.90625 0.062-0.03125-0.031-0.03125 0.031-1.625 0.5h-0.09375l-2.6875 1.6562-0.15625 0.062 0.03125 0.1875 0.15625 1.25h9.6875c-0.91045-4.1571-0.63318-8.525 0.875-12.531l0.0625-0.1563c0.07969-0.1654 0.15708-0.3239 0.28125-0.4687 1.1104-1.2938 3.8213-1.7388 4.7812-0.75l8.7812 9.0625-4.9688 4.8437h13.344c1.108 0 2-0.892 2-2v-12.938l-3.5938 3.5-8.7812-9.0312c-0.95995-0.9889-0.45119-3.6784 0.875-4.75 0.1877-0.1554 0.40459-0.2664 0.625-0.3438 3.4999-1.2004 7.2581-1.49 10.875-0.875v-8.6562l-1.25 1.9062v0.062l-0.5625 1.625-0.03125 0.031 0.03125 0.031-0.0625 0.9063-2.875-0.031-0.03125-0.9062 0.03125-0.031-0.03125-0.031-0.5-1.6563v-0.062l-1.6875-2.7187-0.0625-0.125zm3.375 28.188c0.80607 0.012 1.6129 0.3446 2.2188 0.9687 1.2118 1.2483 1.1858 3.2257-0.0625 4.4375-1.2481 1.2119-3.2258 1.1858-4.4375-0.062-1.2118-1.2482-1.1857-3.2257 0.0625-4.4375 0.6241-0.6059 1.4127-0.9182 2.2188-0.9062z"/>
 </g>
 <g>
  <g transform="matrix(1.1 0 0 .44444 241.16 29.369)"></g>
  <g transform="translate(-459.44 -580.99)"></g>
  <path opacity=".35" d="m21.188 6.3438c-4.091 0-7.092 1.3044-8.688 2.1874l-1.281-1.25c-0.037-0.0536-0.079-0.1102-0.125-0.1562-0.048-0.0474-0.101-0.0871-0.156-0.125-0.011-0.0074-0.021-0.0242-0.032-0.0312-0.104-0.0652-0.224-0.1004-0.344-0.125-0.119-0.0247-0.254-0.0253-0.374 0-0.4943 0.1148-0.8264 0.6586-0.7192 1.1562l5.8752 29.406c0.002 0.082 0.007 0.143 0.031 0.219 0.013 0.042 0.013 0.085 0.031 0.125 0.006 0.013 0.025 0.019 0.032 0.031 0.048 0.093 0.112 0.176 0.187 0.25l0.063 0.031c0.026 0.024 0.033 0.073 0.062 0.094l0.062 0.032 9.813 9.812h20.375c1.108 0 2-0.892 2-2v-27.469l-10.781-10.781-0.688 0.7188s-0.167 0.1255-0.719 0.3437c-0.551 0.2182-1.458 0.4687-2.874 0.4687-1.306 0-2.738-0.6949-4.594-1.4374-1.857-0.7426-4.136-1.5-7.156-1.5z"/>
  <path opacity=".6" d="m21.185 6.3419c-4.9187 0-8.3828 1.9483-9.5541 2.6947l-0.276-1.4086c-0.088-0.5167-0.651-0.9033-1.164-0.7961-0.4934 0.1148-0.8417 0.666-0.7345 1.1636l5.8795 29.398c0.01532 0.56651 0.60861 1.0412 1.1675 0.93397 0.55503-0.10718 0.92632-0.76938 0.7311-1.3014l-2.818-14.149c1.4737-0.83828 4.49-2.2048 8.4823-2.2048 2.8593 0 4.9799 0.71196 6.7981 1.4392 1.8182 0.72728 3.3263 1.5005 4.9608 1.5005 1.5234 0 2.5723-0.2488 3.2459-0.52058 0.67369-0.27177 1.0105-0.61244 1.0105-0.61244l0.18373-0.15311-0.03062-0.24498-1.715-13.352-0.122-0.9795-0.705 0.7043s-0.15311 0.14928-0.70431 0.36747c-0.5512 0.21818-1.4622 0.45933-2.8785 0.45933-1.3053 0-2.7369-0.69665-4.5933-1.4392-1.856-0.7426-4.145-1.5005-7.165-1.5005z" clip-path="url(#clipPath6730)" filter="url(#filter6708)"/>
 </g>
 <g>
  <path fill="#fff" d="m21.185 6.3419c-4.9187 0-8.3828 1.9483-9.5541 2.6947l-0.276-1.4086c-0.088-0.5167-0.651-0.9033-1.164-0.7961-0.4934 0.1148-0.8417 0.666-0.7345 1.1636l5.8795 29.398c0.01532 0.56651 0.60861 1.0412 1.1675 0.93397 0.55503-0.10718 0.92632-0.76938 0.7311-1.3014l-2.818-14.149c1.4737-0.83828 4.49-2.2048 8.4823-2.2048 2.8593 0 4.9799 0.71196 6.7981 1.4392 1.8182 0.72728 3.3263 1.5005 4.9608 1.5005 1.5234 0 2.5723-0.2488 3.2459-0.52058 0.67369-0.27177 1.0105-0.61244 1.0105-0.61244l0.18373-0.15311-0.03062-0.24498-1.715-13.352-0.122-0.9795-0.705 0.7043s-0.15311 0.14928-0.70431 0.36747c-0.5512 0.21818-1.4622 0.45933-2.8785 0.45933-1.3053 0-2.7369-0.69665-4.5933-1.4392-1.856-0.7426-4.145-1.5005-7.165-1.5005z"/>
 </g>
 <g>
  <path opacity=".4" style="color:#000000" d="m2 0c-1.108 0-2 0.892-2 2v44c0 1.108 0.892 2 2 2h44c1.108 0 2-0.892 2-2v-44c0-1.108-0.892-2-2-2h-44zm0 0.5h44c0.83101 0 1.5 0.66899 1.5 1.5v44c0 0.83101-0.66899 1.5-1.5 1.5h-44c-0.831 0-1.5-0.669-1.5-1.5v-44c0-0.831 0.669-1.5 1.5-1.5z" fill="url(#linearGradient12443)"/>
 </g>
</svg>
