<svg xmlns:rdf="http://www.w3.org/1999/02/22-rdf-syntax-ns#" xmlns="http://www.w3.org/2000/svg" height="48" width="48" version="1.1" xmlns:cc="http://creativecommons.org/ns#" xmlns:xlink="http://www.w3.org/1999/xlink" xmlns:dc="http://purl.org/dc/elements/1.1/">
 <defs>
  <linearGradient id="linearGradient12443" y2="3" gradientUnits="userSpaceOnUse" y1=".5" x2="27.5" x1="27.5">
   <stop stop-color="#fff" offset="0"/>
   <stop stop-color="#fff" stop-opacity="0" offset="1"/>
  </linearGradient>
  <filter id="filter9211" height="1.1916" width="1.321" y="-.095813" x="-.16052">
   <feGaussianBlur stdDeviation="1.3378988"/>
  </filter>
  <clipPath id="clipPath9233" clipPathUnits="userSpaceOnUse">
   <path opacity=".35" style="color:#000000" d="m23.594 7c-4.2597 0.1694-8.0886 3.0718-9.25 7.4062-0.2374 0.88601-0.34936 1.7812-0.34375 2.6562 0.000179 0.03114-0.000472 0.06265 0 0.09375 0.0057 0.35257 0.05123 0.6851 0.09375 1.0312 0.01786 0.14862 0.03804 0.29038 0.0625 0.4375 0.05217 0.3101 0.10682 0.63551 0.1875 0.9375 0.0086 0.03202 0.02235 0.06183 0.03125 0.09375 0.0968 0.34857 0.21046 0.69653 0.34375 1.0312 0.04181 0.10433 0.07975 0.20971 0.125 0.3125 0.5009 1.1449 1.2055 2.1738 2.0938 3.0625 0.04676 0.04676 0.10852 0.07913 0.15625 0.125 0.10424 0.10029 0.20371 0.21658 0.3125 0.3125l1.9688 2-3 11.219c-0.03585 0.13378-0.05417 0.27286-0.0625 0.40625-0.0023 0.04179-0.000282 0.08348 0 0.125-0.001 0.62212 0.27043 1.2154 0.75 1.5938l8.157 8.156h20.781c1.108 0 2-0.892 2-2v-19.125l-16.438-16.437c-0.15763-0.18188-0.32908-0.3607-0.5-0.53125-0.0578-0.057797-0.12822-0.099816-0.1875-0.15625-0.01082-0.010281-0.02039-0.021015-0.03125-0.03125-0.22161-0.20909-0.44598-0.40472-0.6875-0.59375-0.01792-0.013977-0.04448-0.017389-0.0625-0.03125-0.23901-0.18441-0.49275-0.36804-0.75-0.53125-0.0076-0.0048-0.02364 0.00478-0.03125 0-0.27021-0.17046-0.52334-0.35475-0.8125-0.5-0.19923-0.099677-0.41724-0.19429-0.625-0.28125-0.10124-0.042204-0.2093-0.085923-0.3125-0.125-0.31582-0.12-0.63533-0.22316-0.96875-0.3125-1.0002-0.26802-2.017-0.38284-3-0.34375zm0.406 3c3.866 0 7 3.134 7 7s-3.134 7-7 7-7-3.134-7-7 3.134-7 7-7z"/>
  </clipPath>
 </defs>
 <g transform="translate(0 -1004.4)">
  <rect style="color:#000000" ry="2" height="48" width="48" y="1004.4" x="0" fill="#f90"/>
  <g transform="matrix(.35545 0 0 .14361 171.12 1002.5)"></g>
  <g transform="matrix(.32314 0 0 .32314 -55.272 805.26)"></g>
  <path id="use5502" style="block-progression:tb;text-indent:0;color:#000000;text-transform:none" d="m10 15.75v0.5h5v-0.5h-5z" fill="#fff"/>
  <use id="use5504" xlink:href="#use5502" transform="translate(0,4)" height="48" width="48" y="0" x="0"/>
  <use id="use5506" xlink:href="#use5504" transform="translate(0,4)" height="48" width="48" y="0" x="0"/>
  <use xlink:href="#use5506" transform="translate(0,4)" height="48" width="48" y="0" x="0"/>
  <path opacity=".25" style="block-progression:tb;text-indent:0;color:#000000;text-transform:none" d="m5.0938 1004.4c0.5651 0.5541 0.91717 1.3026 0.9375 2.1563 0.04141 1.7391-1.3545 3.2086-3.0938 3.25-1.3734 0.032-2.5402-0.8466-3-2.0625v24.5l0.9375 0.094-0.0625 0.9375v0.062l0.28125 1.75v0.062l1.3438 2.875 0.0625 0.125h0.15625l1.9375-0.031h0.15625l0.0625-0.1563 1.1875-2.9375v-0.031l0.21875-1.7813v-0.062l-0.125-0.9375 2.7812-0.4375 0.21875 0.875h0.0625v0.031l0.8125 1.5625v0.062h0.0625l2.125 2.3437 0.09375 0.094 0.15625-0.031 1.8438-0.6875h0.15625v-0.1562l0.21875-3.2188v-0.031l-0.34375-1.7188v-0.062h-0.0625l-0.34375-0.8125 2.4688-1.3437 0.5 0.7812h0.0625l1.25 1.25 0.0625 0.031 2.75 1.5625 0.15625 0.062 0.09375-0.062 1.5312-1.2188 0.15625-0.094-0.0625-0.1563-0.75-3.0625-0.0625-0.062-0.8125-1.5v-0.062h-0.0625l-0.59375-0.6562 1.9688-2.0625 0.6875 0.5625v0.062h0.0625l1.5312 0.75 0.0625 0.031 3.125 0.625 0.125 0.031 0.09375-0.1563 1.1562-1.5937 0.0625-0.094-0.0625-0.1562-1.6875-2.6563-0.0625-0.062-1.3125-1.1875v-0.062l-0.78125-0.4687 1.2188-2.5313 0.84375 0.3125v0.062h0.03125l1.75 0.25h0.03125l3.1875-0.375h0.15625v-0.1562l0.59375-1.875 0.0625-0.1563-0.125-0.094-2.4375-2v-0.062h-0.0625l-1.5938-0.75h-0.0625v-0.031l-0.875-0.1875 0.3125-2.8125 0.9375 0.094h0.0625l1.75-0.3125h0.0625l2.875-1.3438 0.15625-0.031-0.03125-0.1563-0.03125-1.9687v-0.1563l-0.15625-0.031-0.84375-0.3438h-28.25zm15.219 6.5625c1.5746-0.037 3.4612 2.8477 2.7188 4.5625-2.0929 4.7326-5.8227 8.5904-10.469 10.875-1.6975 0.6672-4.526-1.0307-4.5625-2.5625l-0.28125-12.594 12.594-0.2813z"/>
  <path opacity=".25" style="block-progression:tb;text-indent:0;color:#000000;text-transform:none" d="m40.906 1016.3-0.15625 0.031-1.9688 0.25-0.09375 0.031-0.0625 0.125-0.8125 3.0625v0.062 1.7812l-0.03125 0.031 0.1875 0.9062-2.6875 0.8438-0.34375-0.8438 0.03125-0.031-0.03125-0.031-1-1.4687-0.03125-0.031-2.4375-2.0937-0.09375-0.094-0.09375 0.094-1.8125 0.8437-0.125 0.062v0.1563l0.1875 3.1562-0.03125 0.062 0.03125 0.031 0.53125 1.6562 0.03125 0.062-0.03125 0.031 0.5 0.75-2.3125 1.6875-0.5625-0.75-0.03125-0.031-1.4375-1.0937-0.03125-0.031-2.9375-1.1875-0.125-0.094-0.125 0.125-1.4062 1.375-0.09375 0.094 0.0625 0.125 1.0938 3 0.03125 0.031 1.0625 1.4375 0.03125 0.031 0.75 0.5938-1.75 2.25-0.75-0.5-0.03125 0.031-0.0625-0.031-1.6562-0.5938-0.03125-0.031-0.03125 0.031-3.1562-0.2812h-0.15625l-0.0625 0.125-0.90625 1.7812-0.09375 0.094 0.09375 0.094 2.0312 2.5 0.03125 0.031 1.4062 1.0312 0.03125 0.062 0.03125-0.062 0.84375 0.375-0.90625 2.6563-0.90625-0.2188-0.03125 0.031-1.7812-0.062h-0.0625l-3.0625 0.7187-0.15625 0.094-0.03125 0.094-0.3125 1.9375-0.03125 0.1875 0.125 0.062 2.6562 1.75h0.0625l1.6562 0.5313 0.03125 0.031 0.03125-0.031 0.90625 0.094-0.0625 2.8438-0.90625 0.062-0.03125-0.031-0.03125 0.031-1.625 0.5h-0.09375l-2.6875 1.6562-0.15625 0.062 0.03125 0.1875 0.15625 1.25h9.6875c-0.91045-4.1571-0.63318-8.525 0.875-12.531l0.0625-0.1563c0.07969-0.1654 0.15708-0.3239 0.28125-0.4687 1.1104-1.2938 3.8213-1.7388 4.7812-0.75l8.7812 9.0625-4.9688 4.8437h13.344c1.108 0 2-0.892 2-2v-12.938l-3.5938 3.5-8.7812-9.0312c-0.95995-0.9889-0.45119-3.6784 0.875-4.75 0.1877-0.1554 0.40459-0.2664 0.625-0.3438 3.4999-1.2004 7.2581-1.49 10.875-0.875v-8.6562l-1.25 1.9062v0.062l-0.5625 1.625-0.03125 0.031 0.03125 0.031-0.0625 0.9063-2.875-0.031-0.03125-0.9062 0.03125-0.031-0.03125-0.031-0.5-1.6563v-0.062l-1.6875-2.7187-0.0625-0.125zm3.375 28.188c0.80607 0.012 1.6129 0.3446 2.2188 0.9687 1.2118 1.2483 1.1858 3.2257-0.0625 4.4375-1.2481 1.2119-3.2258 1.1858-4.4375-0.062-1.2118-1.2482-1.1857-3.2257 0.0625-4.4375 0.6241-0.6059 1.4127-0.9182 2.2188-0.9062z"/>
 </g>
 <g>
  <g transform="matrix(1.1 0 0 .44444 241.16 29.369)"></g>
  <g transform="translate(-459.44 -580.99)"></g>
  <path opacity=".35" style="color:#000000" d="m23.594 7c-4.26 0.1694-8.089 3.072-9.25 7.406-0.238 0.886-0.35 1.781-0.344 2.656v0.094c0.006 0.353 0.051 0.685 0.094 1.032 0.018 0.148 0.038 0.29 0.062 0.437 0.052 0.31 0.107 0.636 0.188 0.937 0.008 0.033 0.022 0.062 0.031 0.094 0.097 0.349 0.21 0.697 0.344 1.032 0.042 0.104 0.08 0.209 0.125 0.312 0.501 1.145 1.205 2.174 2.094 3.062 0.046 0.047 0.108 0.08 0.156 0.126 0.104 0.1 0.203 0.216 0.312 0.312l1.969 2-3 11.219c-0.036 0.134-0.054 0.273-0.063 0.406-0.002 0.042 0 0.083 0 0.125-0.001 0.622 0.271 1.215 0.75 1.594l8.157 8.156h20.781c1.108 0 2-0.892 2-2v-19.125l-16.438-16.437c-0.157-0.182-0.329-0.361-0.5-0.5318-0.057-0.0577-0.128-0.0998-0.187-0.1562-0.011-0.0103-0.02-0.021-0.031-0.0312-0.222-0.2091-0.446-0.4048-0.688-0.5938-0.018-0.014-0.044-0.0174-0.062-0.0312-0.239-0.1845-0.493-0.3681-0.75-0.5313-0.008-0.0048-0.024 0.0048-0.032 0-0.27-0.1705-0.523-0.3547-0.812-0.5-0.199-0.0997-0.417-0.1943-0.625-0.2813-0.101-0.0422-0.209-0.0859-0.313-0.125-0.315-0.12-0.635-0.2231-0.968-0.3124-1-0.2681-2.017-0.3829-3-0.3438zm0.406 3c3.866 0 7 3.134 7 7s-3.134 7-7 7-7-3.134-7-7 3.134-7 7-7z"/>
  <path opacity=".6" filter="url(#filter9211)" style="color:#000000" d="m26.588 7.3407c-5.334-1.4294-10.818 1.7364-12.247 7.0713-1.2507 4.6678 1.0356 9.4384 5.1958 11.519-0.02617 0.06753-0.03743 0.13968-0.05662 0.2113l-3.1058 11.591c-0.28677 1.0702 0.34397 2.1627 1.4142 2.4495l0.96593 0.25882c1.0702 0.28677 2.1627-0.34397 2.4495-1.4142l3.1058-11.591c0.03853-0.14381 0.07649-0.28807 0.08305-0.43068 4.2597-0.1694 8.1052-3.0824 9.2666-7.4168 1.429-5.334-1.737-10.818-7.072-12.247zm-0.77646 2.8978c3.7343 1.0006 5.9503 4.839 4.9497 8.5732-1.0006 3.7343-4.839 5.9503-8.5732 4.9497-3.7343-1.0006-5.9503-4.839-4.9497-8.5732 1.0006-3.7343 4.839-5.9503 8.5732-4.9497z" clip-path="url(#clipPath9233)"/>
 </g>
 <g fill="#fff">
  <path style="color:#000000" d="m26.588 7.3407c-5.334-1.4294-10.818 1.7364-12.247 7.0713-1.2507 4.6678 1.0356 9.4384 5.1958 11.519-0.02617 0.06753-0.03743 0.13968-0.05662 0.2113l-3.1058 11.591c-0.28677 1.0702 0.34397 2.1627 1.4142 2.4495l0.96593 0.25882c1.0702 0.28677 2.1627-0.34397 2.4495-1.4142l3.1058-11.591c0.03853-0.14381 0.07649-0.28807 0.08305-0.43068 4.2597-0.1694 8.1052-3.0824 9.2666-7.4168 1.429-5.334-1.737-10.818-7.072-12.247zm-0.77646 2.8978c3.7343 1.0006 5.9503 4.839 4.9497 8.5732-1.0006 3.7343-4.839 5.9503-8.5732 4.9497-3.7343-1.0006-5.9503-4.839-4.9497-8.5732 1.0006-3.7343 4.839-5.9503 8.5732-4.9497z"/>
  <path opacity=".4" style="color:#000000" d="m31 17a7 7 0 1 1 -14 0 7 7 0 1 1 14 0z"/>
 </g>
 <g>
  <path opacity=".4" style="color:#000000" d="m2 0c-1.108 0-2 0.892-2 2v44c0 1.108 0.892 2 2 2h44c1.108 0 2-0.892 2-2v-44c0-1.108-0.892-2-2-2h-44zm0 0.5h44c0.83101 0 1.5 0.66899 1.5 1.5v44c0 0.83101-0.66899 1.5-1.5 1.5h-44c-0.831 0-1.5-0.669-1.5-1.5v-44c0-0.831 0.669-1.5 1.5-1.5z" fill="url(#linearGradient12443)"/>
 </g>
</svg>
