<svg xmlns:rdf="http://www.w3.org/1999/02/22-rdf-syntax-ns#" xmlns="http://www.w3.org/2000/svg" height="48" width="48" version="1.1" xmlns:cc="http://creativecommons.org/ns#" xmlns:xlink="http://www.w3.org/1999/xlink" xmlns:dc="http://purl.org/dc/elements/1.1/">
 <defs>
  <linearGradient id="linearGradient12443" y2="3" gradientUnits="userSpaceOnUse" x2="27.5" y1=".5" x1="27.5">
   <stop stop-color="#fff" offset="0"/>
   <stop stop-color="#fff" stop-opacity="0" offset="1"/>
  </linearGradient>
  <filter id="filter5342" height="1.2677" width="1.2175" y="-.13385" x="-.10875">
   <feGaussianBlur stdDeviation="1.45"/>
  </filter>
  <clipPath id="clipPath5364" clipPathUnits="userSpaceOnUse">
   <path opacity=".25" d="m10 11c-1.1094 0-2 0.89062-2 2v22c0 0.55469 0.23242 1.0449 0.59375 1.4062l11.594 11.594h25.812c1.108 0 2-0.892 2-2v-25.812l-8.594-8.594c-0.361-0.362-0.851-0.594-1.406-0.594h-28z"/>
  </clipPath>
 </defs>
 <g transform="translate(0 -1004.4)">
  <rect style="color:#000000" ry="2" height="48" width="48" y="1004.4" x="0" fill="#f90"/>
  <g transform="matrix(.35545 0 0 .14361 171.12 1002.5)"></g>
  <g transform="matrix(.32314 0 0 .32314 -55.272 805.26)"></g>
  <path id="use5502" style="block-progression:tb;text-indent:0;color:#000000;text-transform:none" d="m10 15.75v0.5h5v-0.5h-5z" fill="#fff"/>
  <use id="use5504" xlink:href="#use5502" transform="translate(0,4)" height="48" width="48" y="0" x="0"/>
  <use id="use5506" xlink:href="#use5504" transform="translate(0,4)" height="48" width="48" y="0" x="0"/>
  <use xlink:href="#use5506" transform="translate(0,4)" height="48" width="48" y="0" x="0"/>
  <path opacity=".25" style="block-progression:tb;text-indent:0;color:#000000;text-transform:none" d="m5.0938 1004.4c0.5651 0.5541 0.91717 1.3026 0.9375 2.1563 0.04141 1.7391-1.3545 3.2086-3.0938 3.25-1.3734 0.032-2.5402-0.8466-3-2.0625v24.5l0.9375 0.094-0.0625 0.9375v0.062l0.28125 1.75v0.062l1.3438 2.875 0.0625 0.125h0.15625l1.9375-0.031h0.15625l0.0625-0.1563 1.1875-2.9375v-0.031l0.21875-1.7813v-0.062l-0.125-0.9375 2.7812-0.4375 0.21875 0.875h0.0625v0.031l0.8125 1.5625v0.062h0.0625l2.125 2.3437 0.09375 0.094 0.15625-0.031 1.8438-0.6875h0.15625v-0.1562l0.21875-3.2188v-0.031l-0.34375-1.7188v-0.062h-0.0625l-0.34375-0.8125 2.4688-1.3437 0.5 0.7812h0.0625l1.25 1.25 0.0625 0.031 2.75 1.5625 0.15625 0.062 0.09375-0.062 1.5312-1.2188 0.15625-0.094-0.0625-0.1563-0.75-3.0625-0.0625-0.062-0.8125-1.5v-0.062h-0.0625l-0.59375-0.6562 1.9688-2.0625 0.6875 0.5625v0.062h0.0625l1.5312 0.75 0.0625 0.031 3.125 0.625 0.125 0.031 0.09375-0.1563 1.1562-1.5937 0.0625-0.094-0.0625-0.1562-1.6875-2.6563-0.0625-0.062-1.3125-1.1875v-0.062l-0.78125-0.4687 1.2188-2.5313 0.84375 0.3125v0.062h0.03125l1.75 0.25h0.03125l3.1875-0.375h0.15625v-0.1562l0.59375-1.875 0.0625-0.1563-0.125-0.094-2.4375-2v-0.062h-0.0625l-1.5938-0.75h-0.0625v-0.031l-0.875-0.1875 0.3125-2.8125 0.9375 0.094h0.0625l1.75-0.3125h0.0625l2.875-1.3438 0.15625-0.031-0.03125-0.1563-0.03125-1.9687v-0.1563l-0.15625-0.031-0.84375-0.3438h-28.25zm15.219 6.5625c1.5746-0.037 3.4612 2.8477 2.7188 4.5625-2.0929 4.7326-5.8227 8.5904-10.469 10.875-1.6975 0.6672-4.526-1.0307-4.5625-2.5625l-0.28125-12.594 12.594-0.2813z"/>
  <path opacity=".25" style="block-progression:tb;text-indent:0;color:#000000;text-transform:none" d="m40.906 1016.3-0.15625 0.031-1.9688 0.25-0.09375 0.031-0.0625 0.125-0.8125 3.0625v0.062 1.7812l-0.03125 0.031 0.1875 0.9062-2.6875 0.8438-0.34375-0.8438 0.03125-0.031-0.03125-0.031-1-1.4687-0.03125-0.031-2.4375-2.0937-0.09375-0.094-0.09375 0.094-1.8125 0.8437-0.125 0.062v0.1563l0.1875 3.1562-0.03125 0.062 0.03125 0.031 0.53125 1.6562 0.03125 0.062-0.03125 0.031 0.5 0.75-2.3125 1.6875-0.5625-0.75-0.03125-0.031-1.4375-1.0937-0.03125-0.031-2.9375-1.1875-0.125-0.094-0.125 0.125-1.4062 1.375-0.09375 0.094 0.0625 0.125 1.0938 3 0.03125 0.031 1.0625 1.4375 0.03125 0.031 0.75 0.5938-1.75 2.25-0.75-0.5-0.03125 0.031-0.0625-0.031-1.6562-0.5938-0.03125-0.031-0.03125 0.031-3.1562-0.2812h-0.15625l-0.0625 0.125-0.90625 1.7812-0.09375 0.094 0.09375 0.094 2.0312 2.5 0.03125 0.031 1.4062 1.0312 0.03125 0.062 0.03125-0.062 0.84375 0.375-0.90625 2.6563-0.90625-0.2188-0.03125 0.031-1.7812-0.062h-0.0625l-3.0625 0.7187-0.15625 0.094-0.03125 0.094-0.3125 1.9375-0.03125 0.1875 0.125 0.062 2.6562 1.75h0.0625l1.6562 0.5313 0.03125 0.031 0.03125-0.031 0.90625 0.094-0.0625 2.8438-0.90625 0.062-0.03125-0.031-0.03125 0.031-1.625 0.5h-0.09375l-2.6875 1.6562-0.15625 0.062 0.03125 0.1875 0.15625 1.25h9.6875c-0.91045-4.1571-0.63318-8.525 0.875-12.531l0.0625-0.1563c0.07969-0.1654 0.15708-0.3239 0.28125-0.4687 1.1104-1.2938 3.8213-1.7388 4.7812-0.75l8.7812 9.0625-4.9688 4.8437h13.344c1.108 0 2-0.892 2-2v-12.938l-3.5938 3.5-8.7812-9.0312c-0.95995-0.9889-0.45119-3.6784 0.875-4.75 0.1877-0.1554 0.40459-0.2664 0.625-0.3438 3.4999-1.2004 7.2581-1.49 10.875-0.875v-8.6562l-1.25 1.9062v0.062l-0.5625 1.625-0.03125 0.031 0.03125 0.031-0.0625 0.9063-2.875-0.031-0.03125-0.9062 0.03125-0.031-0.03125-0.031-0.5-1.6563v-0.062l-1.6875-2.7187-0.0625-0.125zm3.375 28.188c0.80607 0.012 1.6129 0.3446 2.2188 0.9687 1.2118 1.2483 1.1858 3.2257-0.0625 4.4375-1.2481 1.2119-3.2258 1.1858-4.4375-0.062-1.2118-1.2482-1.1857-3.2257 0.0625-4.4375 0.6241-0.6059 1.4127-0.9182 2.2188-0.9062z"/>
 </g>
 <g>
  <g transform="matrix(1.1 0 0 .44444 241.16 29.369)"></g>
  <g transform="translate(-459.44 -580.99)"></g>
  <path opacity=".25" d="m10 11c-1.1094 0-2 0.891-2 2v22c0 0.555 0.2324 1.045 0.5938 1.406l11.594 11.594h25.812c1.108 0 2-0.892 2-2v-25.812l-8.594-8.594c-0.361-0.362-0.851-0.594-1.406-0.594h-28z"/>
  <path opacity=".6" d="m10 11c-1.1094 0-2 0.8906-2 2v22c0 0.5547 0.22266 1.0547 0.58399 1.416 0.3613 0.361 0.8613 0.584 1.416 0.584h28c1.1094 0 2-0.8906 2-2v-22c0-0.555-0.223-1.055-0.584-1.416s-0.861-0.584-1.416-0.584z" clip-path="url(#clipPath5364)" filter="url(#filter5342)"/>
 </g>
 <g>
  <rect opacity=".6" style="color:#000000" ry="0" height="24" width="30" y="12" x="9" fill="#f90"/>
  <path fill="#fff" d="m10 11c-1.1094 0-2 0.89062-2 2v22c0 1.1094 0.89063 2 2 2h28c1.1094 0 2-0.89062 2-2v-22c0-1.1094-0.89062-2-2-2zm27 1c0.55079 0 1 0.44922 1 1s-0.44921 1-1 1c-0.55078 0-1-0.44922-1-1s0.44922-1 1-1zm-25 3.0625h24c1.1094 0 2 0.89062 2 2v15.938c0 1.1094-0.89062 2-2 2h-24c-1.1094 0-2-0.89062-2-2v-15.938c0-1.1094 0.89063-2 2-2zm3.062 0.938c-0.585 0.062-1.066 0.598-1.062 1.188v11.562c0 0.62891 0.5586 1.1875 1.1875 1.1875h4.8125v1.0938h8v-1.0938h4.8125c0.629 0 1.188-0.559 1.188-1.188v-11.562c0-0.629-0.559-1.188-1.188-1.188zm1.5938 2.0312c0.0508-0.01172 0.10547-0.01172 0.15625 0h14.375c0.41797 0 0.8125 0.36328 0.8125 0.78125v8.375c0 0.41797-0.39453 0.78125-0.8125 0.78125h-14.375c-0.418 0.001-0.813-0.363-0.813-0.78v-8.375c-0.008-0.375 0.28907-0.71094 0.65625-0.78125zm1.344 13.938v2.031h12v-2.0312z"/>
 </g>
 <g>
  <path opacity=".4" style="color:#000000" d="m2 0c-1.108 0-2 0.892-2 2v44c0 1.108 0.892 2 2 2h44c1.108 0 2-0.892 2-2v-44c0-1.108-0.892-2-2-2h-44zm0 0.5h44c0.83101 0 1.5 0.66899 1.5 1.5v44c0 0.83101-0.66899 1.5-1.5 1.5h-44c-0.831 0-1.5-0.669-1.5-1.5v-44c0-0.831 0.669-1.5 1.5-1.5z" fill="url(#linearGradient12443)"/>
 </g>
</svg>
