<svg xmlns:rdf="http://www.w3.org/1999/02/22-rdf-syntax-ns#" xmlns="http://www.w3.org/2000/svg" height="48" width="48" version="1.1" xmlns:cc="http://creativecommons.org/ns#" xmlns:xlink="http://www.w3.org/1999/xlink" xmlns:dc="http://purl.org/dc/elements/1.1/">
 <defs>
  <linearGradient id="linearGradient12443" y2="3" gradientUnits="userSpaceOnUse" x2="27.5" y1=".5" x1="27.5">
   <stop stop-color="#fff" offset="0"/>
   <stop stop-color="#fff" stop-opacity="0" offset="1"/>
  </linearGradient>
 </defs>
 <g transform="translate(0 -1004.4)">
  <rect style="color:#000000" ry="2" height="48" width="48" y="1004.4" x="-.0625" fill="#f1caff"/>
  <path opacity=".25" style="block-progression:tb;text-indent:0;color:#000000;text-transform:none" d="m5.0938 0c0.5651 0.55407 0.9171 1.3026 0.9374 2.1562 0.0415 1.7392-1.3545 3.2086-3.0937 3.25-1.3734 0.0324-2.5402-0.8465-3-2.0624v24.5l0.9375 0.094-0.0625 0.937v0.063l0.2813 1.75v0.062l1.3437 2.875 0.0625 0.125h0.1562l1.9376-0.031h0.1562l0.0625-0.157 1.1875-2.937v-0.031l0.2188-1.782v-0.062l-0.125-0.938 2.7812-0.437 0.2188 0.875h0.0624v0.031l0.8126 1.563v0.062h0.0622l2.125 2.344 0.094 0.094 0.156-0.032 1.844-0.687h0.156v-0.156l0.219-3.219v-0.031l-0.344-1.719v-0.062h-0.062l-0.344-0.813 2.469-1.344 0.5 0.781h0.062l1.25 1.25 0.063 0.032 2.75 1.562 0.156 0.063 0.094-0.063 1.531-1.218 0.156-0.094-0.062-0.156-0.75-3.063-0.063-0.063-0.812-1.5v-0.062h-0.063l-0.594-0.656 1.969-2.063 0.688 0.563v0.062h0.062l1.531 0.75 0.063 0.032 3.125 0.624 0.125 0.032 0.094-0.156 1.156-1.594 0.063-0.094-0.063-0.156-1.687-2.656-0.063-0.063-1.313-1.187v-0.063l-0.781-0.469 1.219-2.531 0.844 0.313v0.062h0.031l1.75 0.25h0.031l3.188-0.375h0.156v-0.156l0.594-1.875 0.062-0.156-0.125-0.094-2.437-2.0002v-0.0626h-0.063l-1.593-0.75h-0.063v-0.0312l-0.875-0.1875 0.312-2.8125 0.938 0.0938h0.062l1.75-0.3126h0.063l2.875-1.3437 0.156-0.0313-0.031-0.1562-0.031-1.9688v-0.1562l-0.156-0.03125-0.844-0.34375h-28.25zm15.218 6.5625c1.575-0.037 3.462 2.8477 2.719 4.5625-2.093 4.733-5.822 8.59-10.469 10.875-1.697 0.667-4.5255-1.031-4.562-2.562l-0.2812-12.594 12.593-0.2815z" transform="translate(0 1004.4)"/>
  <path opacity=".25" style="block-progression:tb;text-indent:0;color:#000000;text-transform:none" d="m40.906 11.906l-0.156 0.032-1.969 0.25-0.093 0.031-0.063 0.125-0.813 3.062v0.063 1.781l-0.031 0.031 0.188 0.907-2.688 0.843-0.343-0.843 0.031-0.032-0.031-0.031-1-1.469-0.032-0.031-2.437-2.094-0.094-0.093-0.094 0.093-1.812 0.844-0.125 0.063v0.156l0.187 3.156-0.031 0.062 0.031 0.032 0.531 1.656 0.032 0.062-0.032 0.032 0.5 0.75-2.312 1.687-0.562-0.75-0.032-0.031-1.437-1.094-0.031-0.031-2.938-1.187-0.125-0.094-0.125 0.125-1.406 1.375-0.094 0.094 0.062 0.124 1.094 3 0.032 0.032 1.062 1.437 0.031 0.031 0.75 0.594-1.75 2.25-0.75-0.5-0.031 0.032-0.062-0.032-1.657-0.594-0.031-0.031-0.031 0.031-3.157-0.281h-0.156l-0.062 0.125-0.906 1.782-0.094 0.093 0.094 0.094 2.031 2.5 0.031 0.031 1.406 1.032 0.032 0.062 0.031-0.062 0.843 0.374-0.906 2.657-0.906-0.219-0.031 0.031-1.781-0.062h-0.063l-3.063 0.719-0.156 0.093-0.031 0.094-0.313 1.937-0.031 0.188 0.125 0.062 2.656 1.75h0.063l1.656 0.532 0.031 0.031 0.032-0.031 0.906 0.094-0.062 2.843-0.907 0.063-0.031-0.032-0.031 0.032-1.625 0.5h-0.094l-2.688 1.656-0.156 0.062 0.032 0.188 0.156 1.25h9.687c-0.91-4.157-0.633-8.525 0.875-12.531l0.063-0.157c0.079-0.165 0.157-0.323 0.281-0.468 1.11-1.294 3.821-1.739 4.781-0.75l8.781 9.062-4.968 4.844h13.344c1.108 0 2-0.892 2-2v-12.938l-3.594 3.5-8.782-9.031c-0.959-0.989-0.451-3.678 0.876-4.75 0.187-0.155 0.404-0.266 0.624-0.343 3.5-1.201 7.259-1.49 10.876-0.876v-8.656l-1.25 1.906v0.063l-0.563 1.625-0.031 0.031 0.031 0.031-0.063 0.907-2.874-0.031-0.032-0.907 0.032-0.031-0.032-0.031-0.5-1.657v-0.062l-1.687-2.719-0.063-0.125zm3.375 28.188c0.806 0.012 1.613 0.344 2.219 0.968 1.212 1.249 1.186 3.226-0.062 4.438-1.249 1.212-3.226 1.186-4.438-0.062-1.212-1.249-1.186-3.226 0.062-4.438 0.625-0.606 1.413-0.918 2.219-0.906z" transform="translate(0 1004.4)"/>
 </g>
 <g>
  <flowRoot opacity=".25" style="word-spacing:0px;letter-spacing:0px" xml:space="preserve" transform="translate(32.627 -1001.2)" line-height="125%" font-size="40px" font-family="sans-serif" fill="#000000"><flowRegion><rect height="49.321" width="57.629" y="6.6343" x="-53.033" fill="#000"/></flowRegion><flowPara/></flowRoot>
  <flowRoot style="word-spacing:0px;letter-spacing:0px" line-height="125%" xml:space="preserve" font-size="40px" transform="translate(-104.89 -1017.8)" font-family="sans-serif" fill="#000000"><flowRegion><rect y="6.6343" width="57.629" x="-53.033" height="49.321"/></flowRegion><flowPara/></flowRoot>
  <path opacity=".35" style="color:#000000" d="m10.125 7c-1.1819 0-2.125 0.9431-2.125 2.125v11.75c0 0.591 0.2394 1.114 0.625 1.5l15.375 15.375v1.125c0 0.591 0.239 1.114 0.625 1.5l7.625 7.625h13.688c1.108 0 2-0.892 2-2v-29.812l-8.563-8.563c-0.386-0.3856-0.909-0.625-1.5-0.625h-27.75z"/>
 </g>
 <g>
  <rect style="color:#000000" ry="2.1333" height="16" width="32" y="7" x="8" fill="#fff"/>
  <rect style="color:#000000" ry="2.1333" height="16" width="16" y="25" x="24" fill="#fff"/>
  <g fill="#666">
   <path style="" d="m18.135 11.643v1.5938c-0.44922-0.1875-0.88282-0.32812-1.3008-0.42188-0.41797-0.09375-0.8125-0.14062-1.1836-0.14062-0.39844 0.000005-0.69532 0.05079-0.89062 0.15234-0.19141 0.09766-0.28711 0.25-0.28711 0.45703-0.000002 0.16797 0.07226 0.29688 0.2168 0.38672 0.14844 0.08985 0.41211 0.15625 0.79102 0.19922l0.36914 0.05273c1.0742 0.13672 1.7969 0.36133 2.168 0.67383 0.37109 0.3125 0.55663 0.80274 0.55664 1.4707-0.000007 0.69922-0.25782 1.2246-0.77344 1.5762-0.51563 0.35156-1.2852 0.52734-2.3086 0.52734-0.4336 0-0.88282-0.03516-1.3477-0.10547-0.46094-0.06641-0.93555-0.16797-1.4238-0.30469v-1.5938c0.41797 0.20313 0.8457 0.35547 1.2832 0.45703 0.4414 0.10156 0.88867 0.15234 1.3418 0.15234 0.41015 0.000001 0.71875-0.05664 0.92578-0.16992s0.31054-0.28125 0.31055-0.50391c-0.000004-0.1875-0.07227-0.32617-0.2168-0.41602-0.14063-0.09375-0.42383-0.16601-0.84961-0.2168l-0.36914-0.04687c-0.9336-0.11718-1.5879-0.33398-1.9629-0.65039-0.375-0.3164-0.5625-0.79687-0.5625-1.4414-0.000001-0.69531 0.23828-1.2109 0.71484-1.5469 0.47656-0.33593 1.207-0.5039 2.1914-0.50391 0.38672 0.000007 0.79296 0.0293 1.2188 0.08789 0.42578 0.0586 0.88867 0.1504 1.3887 0.27539"/>
   <path style="" d="m21.557 9.5742v1.8633h2.1621v1.5h-2.1621v2.7832c-0.000004 0.30469 0.06054 0.51172 0.18164 0.62109 0.12109 0.10547 0.36132 0.1582 0.7207 0.1582h1.0781v1.5h-1.7988c-0.828 0-1.416-0.172-1.763-0.516-0.344-0.347-0.516-0.935-0.516-1.763v-2.7832h-1.043v-1.5h1.043v-1.8633h2.0977"/>
   <path style="" d="m28.852 13.225c-0.1836-0.08593-0.36719-0.14843-0.55078-0.1875-0.17969-0.04296-0.36133-0.06445-0.54492-0.06445-0.53907 0.000005-0.95508 0.17383-1.248 0.52148-0.28906 0.34375-0.4336 0.83789-0.43359 1.4824v3.0234h-2.0977v-6.5625h2.0977v1.0781c0.269-0.43 0.577-0.743 0.925-0.938 0.35156-0.19921 0.77148-0.29882 1.2598-0.29883 0.07031 0.000007 0.14648 0.0039 0.22852 0.01172 0.08203 0.0039 0.20117 0.01563 0.35742 0.03516l0.0059 1.8984"/>
   <path style="" d="m33.176 16.887c-0.28907 0.38281-0.60743 0.66406-0.95508 0.84375-0.348 0.179-0.75 0.269-1.207 0.269-0.80078 0-1.4629-0.31445-1.9863-0.94336-0.52344-0.63281-0.78516-1.4375-0.78516-2.4141 0-0.98046 0.26172-1.7832 0.78516-2.4082 0.52344-0.6289 1.1855-0.94335 1.9863-0.94336 0.45703 0.000006 0.85937 0.08985 1.207 0.26953 0.34765 0.17969 0.66601 0.4629 0.95508 0.84961v-0.97266h2.1094v5.9004c-0.000007 1.0547-0.33399 1.8594-1.002 2.4141-0.66407 0.55859-1.6289 0.83789-2.8945 0.83789-0.41016-0.000003-0.80664-0.03125-1.1895-0.09375-0.38282-0.0625-0.76758-0.15821-1.1543-0.28711v-1.6348c0.36719 0.21094 0.72656 0.36719 1.0781 0.46875 0.35156 0.10547 0.70508 0.1582 1.0605 0.1582 0.6875-0.000001 1.1914-0.15039 1.5117-0.45117 0.32031-0.30078 0.48046-0.77148 0.48047-1.4121v-0.45117m-1.3828-4.084c-0.4336 0.000006-0.77149 0.16016-1.0137 0.48047-0.24219 0.32032-0.36328 0.77344-0.36328 1.3594-0.000003 0.60156 0.11718 1.0586 0.35156 1.3711 0.23437 0.3086 0.57617 0.46289 1.0254 0.46289 0.4375 0.000002 0.77734-0.16015 1.0195-0.48047 0.24218-0.32031 0.36328-0.77148 0.36328-1.3535-0.000005-0.58593-0.1211-1.0391-0.36328-1.3594-0.24219-0.32031-0.58204-0.48046-1.0195-0.48047"/>
  </g>
  <g fill="#666">
   <path style="" d="m34.311 30.643v1.7109c-0.28516-0.19531-0.57227-0.33984-0.86133-0.43359-0.28516-0.09374-0.58204-0.14062-0.89062-0.14062-0.58594 0.000005-1.043 0.17188-1.3711 0.51562-0.32422 0.33985-0.48633 0.81641-0.48633 1.4297-0.000003 0.61328 0.16211 1.0918 0.48633 1.4355 0.32812 0.33985 0.78515 0.50977 1.3711 0.50977 0.32812 0.000001 0.63867-0.04883 0.93164-0.14648 0.29687-0.09765 0.57031-0.24218 0.82031-0.43359v1.7168c-0.32813 0.12109-0.66212 0.21094-1.002 0.26953-0.33594 0.0625-0.67383 0.09375-1.0137 0.09375-1.1836 0-2.1094-0.30273-2.7773-0.9082-0.66797-0.60937-1.002-1.4551-1.002-2.5371-0.000001-1.082 0.33398-1.9258 1.002-2.5312 0.66797-0.60937 1.5937-0.91406 2.7773-0.91406 0.34374 0.000007 0.68164 0.03126 1.0137 0.09375 0.33593 0.0586 0.66992 0.14844 1.002 0.26953"/>
  </g>
  <path opacity=".2" style="color:#000000" d="m39 8c-0.554 0-1 0.446-1 1v12h-28c-0.554 0-1 0.446-1 1 0 0.53228 0.41386 0.96689 0.9375 1 0.061575 0.0053 0.12451 0 0.1875 0h27.75c0.042 0 0.08362 0.0024 0.125 0 1.0818-0.06197 1.938-0.91818 2-2 0.0024-0.04138 0-0.08301 0-0.125v-11.75c0-0.063 0.005-0.1259 0-0.1875-0.033-0.5236-0.468-0.9375-1-0.9375z"/>
  <path opacity=".2" style="color:#000000" d="m39 26c-0.554 0-1 0.446-1 1v12h-12c-0.554 0-1 0.446-1 1 0 0.53228 0.41386 0.96689 0.9375 1 0.06158 0.0053 0.12451 0 0.1875 0h11.75c0.042 0 0.08362 0.0024 0.125 0 1.0818-0.06197 1.938-0.91818 2-2 0.0024-0.04138 0-0.08301 0-0.125v-11.75c0-0.06299 0.0053-0.12592 0-0.1875-0.033-0.524-0.468-0.938-1-0.938z"/>
 </g>
 <g>
  <path opacity=".4" style="color:#000000" d="m2 0c-1.108 0-2 0.892-2 2v44c0 1.108 0.892 2 2 2h44c1.108 0 2-0.892 2-2v-44c0-1.108-0.892-2-2-2h-44zm0 0.5h44c0.83101 0 1.5 0.66899 1.5 1.5v44c0 0.83101-0.66899 1.5-1.5 1.5h-44c-0.831 0-1.5-0.669-1.5-1.5v-44c0-0.831 0.669-1.5 1.5-1.5z" fill="url(#linearGradient12443)"/>
 </g>
</svg>
