<svg xmlns:rdf="http://www.w3.org/1999/02/22-rdf-syntax-ns#" xmlns="http://www.w3.org/2000/svg" height="48" width="48" version="1.1" xmlns:cc="http://creativecommons.org/ns#" xmlns:xlink="http://www.w3.org/1999/xlink" xmlns:dc="http://purl.org/dc/elements/1.1/">
 <defs>
  <linearGradient id="linearGradient3115" y2="3" gradientUnits="userSpaceOnUse" x2="27.5" y1=".5" x1="27.5">
   <stop stop-color="#fff" offset="0"/>
   <stop stop-opacity="0" stop-color="#fff" offset="1"/>
  </linearGradient>
  <clipPath id="clipPath7053" clipPathUnits="userSpaceOnUse">
   <path opacity=".25" style="color:#000000" d="m24 8c-4.986 0-9 4.014-9 9v11c0 2.493 0.99825 4.7482 2.625 6.375l13.625 13.625h14.75c1.108 0 2-0.892 2-2v-18.75l-16.625-16.625c-0.01042-0.01042-0.02078-0.02088-0.03125-0.03125-0.0056-0.0055-0.02567 0.0055-0.03125 0-0.36748-0.36202-0.7616-0.70571-1.1875-1-0.043-0.0295-0.082-0.065-0.125-0.0938-0.219-0.1462-0.455-0.2794-0.688-0.4062-0.019-0.0107-0.042-0.0208-0.062-0.0313-0.245-0.1316-0.492-0.2661-0.75-0.375-0.0093-0.00389-0.02197 0.00386-0.03125 0-0.25836-0.10791-0.51117-0.19734-0.78125-0.28125-0.0095-0.00293-0.02174 0.0029-0.03125 0-0.5508-0.16909-1.1278-0.31385-1.7188-0.375-0.0101-0.00101-0.02114 0.0009816-0.03125 0-0.301-0.0301-0.597-0.0312-0.906-0.0312h-1z"/>
  </clipPath>
  <filter id="filter7031" height="1.1986" width="1.3032" y="-.099310" x="-.15158">
   <feGaussianBlur stdDeviation="1.2"/>
  </filter>
  <linearGradient id="linearGradient5787" y2="32.103" gradientUnits="userSpaceOnUse" y1="8.7998" x2="24.192" x1="24.192">
   <stop stop-color="#fff" offset="0"/>
   <stop stop-color="#c7c7c7" offset="1"/>
  </linearGradient>
 </defs>
 <rect style="color:#000000" ry="2" height="48" width="48" y=".000024414" x="-.0625" fill="#19aeff"/>
 <path opacity=".25" style="block-progression:tb;color:#000000;text-transform:none;text-indent:0" d="m5.0938 0c0.5651 0.55407 0.9171 1.3026 0.9374 2.1562 0.0415 1.7392-1.3545 3.2086-3.0937 3.25-1.3734 0.0324-2.5402-0.8465-3-2.0624v24.5l0.9375 0.094-0.0625 0.937v0.063l0.2813 1.75v0.062l1.3437 2.875 0.0625 0.125h0.1562l1.9376-0.031h0.1562l0.0625-0.157 1.1875-2.937v-0.031l0.2188-1.782v-0.062l-0.125-0.938 2.7812-0.437 0.2188 0.875h0.0624v0.031l0.8126 1.563v0.062h0.0622l2.125 2.344 0.094 0.094 0.156-0.032 1.844-0.687h0.156v-0.156l0.219-3.219v-0.031l-0.344-1.719v-0.062h-0.062l-0.344-0.813 2.469-1.344 0.5 0.781h0.062l1.25 1.25 0.063 0.032 2.75 1.562 0.156 0.063 0.094-0.063 1.531-1.218 0.156-0.094-0.062-0.156-0.75-3.063-0.063-0.063-0.812-1.5v-0.062h-0.063l-0.594-0.656 1.969-2.063 0.688 0.563v0.062h0.062l1.531 0.75 0.063 0.032 3.125 0.624 0.125 0.032 0.094-0.156 1.156-1.594 0.063-0.094-0.063-0.156-1.687-2.656-0.063-0.063-1.313-1.187v-0.063l-0.781-0.469 1.219-2.531 0.844 0.313v0.062h0.031l1.75 0.25h0.031l3.188-0.375h0.156v-0.156l0.594-1.875 0.062-0.156-0.125-0.094-2.437-2.0002v-0.0628h-0.063l-1.593-0.75h-0.063v-0.0312l-0.875-0.1875 0.312-2.8125 0.938 0.0938h0.062l1.75-0.3126h0.063l2.875-1.3437 0.156-0.0313-0.031-0.1562-0.031-1.9688v-0.1562l-0.156-0.03125-0.844-0.34375h-28.25zm15.218 6.5625c1.575-0.037 3.462 2.8477 2.719 4.5625-2.093 4.733-5.822 8.59-10.469 10.875-1.697 0.667-4.5255-1.031-4.562-2.562l-0.2814-12.594 12.593-0.2815z"/>
 <path opacity=".25" style="block-progression:tb;color:#000000;text-transform:none;text-indent:0" d="m40.906 11.906-0.156 0.032-1.969 0.25-0.093 0.031-0.063 0.125-0.813 3.062v1.844l-0.031 0.031 0.188 0.907-2.688 0.843-0.343-0.843 0.031-0.032-0.031-0.031-1-1.469-0.032-0.031-2.437-2.094-0.094-0.093-0.094 0.093-1.812 0.844-0.125 0.063v0.156l0.187 3.156-0.031 0.062 0.031 0.032 0.531 1.656 0.032 0.062-0.032 0.032 0.5 0.75-2.312 1.687-0.562-0.75-0.032-0.031-1.437-1.094-0.031-0.031-2.938-1.187-0.125-0.094-0.125 0.125-1.406 1.375-0.094 0.094 0.062 0.124 1.094 3 0.032 0.032 1.062 1.437 0.031 0.031 0.75 0.594-1.75 2.25-0.75-0.5-0.031 0.032-0.062-0.032-1.657-0.594-0.031-0.031-0.031 0.031-3.157-0.281h-0.156l-0.062 0.125-0.906 1.782-0.094 0.093 0.094 0.094 2.031 2.5 0.031 0.031 1.406 1.032 0.032 0.062 0.031-0.062 0.843 0.374-0.906 2.657-0.906-0.219-0.031 0.031-1.781-0.062h-0.063l-3.063 0.719-0.156 0.093-0.031 0.094-0.313 1.937-0.031 0.188 0.125 0.062 2.656 1.75h0.063l1.656 0.532 0.031 0.031 0.032-0.031 0.906 0.094-0.062 2.843-0.907 0.063-0.031-0.032-0.031 0.032-1.625 0.5h-0.094l-2.688 1.656-0.156 0.062 0.032 0.188 0.156 1.25h9.687c-0.91-4.157-0.633-8.525 0.875-12.531l0.063-0.157c0.079-0.165 0.157-0.323 0.281-0.468 1.11-1.294 3.821-1.739 4.781-0.75l8.781 9.062-4.968 4.844h13.344c1.108 0 2-0.892 2-2v-12.938l-3.594 3.5-8.782-9.031c-0.959-0.989-0.451-3.678 0.876-4.75 0.187-0.155 0.404-0.266 0.624-0.343 3.5-1.201 7.259-1.49 10.876-0.876v-8.656l-1.25 1.906v0.063l-0.563 1.625-0.031 0.031 0.031 0.031-0.063 0.907-2.874-0.031-0.032-0.907 0.032-0.031-0.032-0.031-0.5-1.657v-0.062l-1.687-2.719-0.063-0.125zm3.375 28.188c0.806 0.012 1.613 0.344 2.219 0.968 1.212 1.249 1.186 3.226-0.062 4.438-1.249 1.212-3.226 1.186-4.438-0.062-1.212-1.249-1.186-3.226 0.062-4.438 0.625-0.606 1.413-0.918 2.219-0.906z"/>
 <path opacity=".35" style="color:#000000" d="m24 8c-4.986 0-9 4.014-9 9v11c0 2.493 0.99825 4.7482 2.625 6.375l13.625 13.625h14.75c1.108 0 2-0.892 2-2v-18.75l-16.625-16.625c-0.01042-0.01042-0.02078-0.02088-0.03125-0.03125-0.0056-0.0055-0.02567 0.0055-0.03125 0-0.36748-0.36202-0.7616-0.70571-1.1875-1-0.043-0.0295-0.082-0.065-0.125-0.0938-0.219-0.1462-0.455-0.2794-0.688-0.4062-0.019-0.0107-0.042-0.0208-0.062-0.0313-0.245-0.1316-0.492-0.2661-0.75-0.375-0.0093-0.00389-0.02197 0.00386-0.03125 0-0.25836-0.10791-0.51117-0.19734-0.78125-0.28125-0.0095-0.00293-0.02174 0.0029-0.03125 0-0.5508-0.16909-1.1278-0.31385-1.7188-0.375-0.0101-0.00101-0.02114 0.0009816-0.03125 0-0.301-0.0301-0.597-0.0312-0.906-0.0312h-1z"/>
 <flowRoot style="word-spacing:0px;letter-spacing:0px" line-height="125%" xml:space="preserve" font-size="40px" transform="translate(-18.262 -1007.9)" font-family="sans-serif" fill="#000000"><flowRegion><rect y="6.6343" width="57.629" x="-53.033" height="49.321"/></flowRegion><flowPara/></flowRoot>
 <path opacity=".6" filter="url(#filter7031)" style="color:#000000" d="m24 8c-4.986 0-9 4.014-9 9v2h9v-3.0938c-0.587-0.203-1-0.748-1-1.406v-2c0-0.65788 0.41298-1.203 1-1.4062v-3.094zm1 0v3.0938c0.58702 0.20326 1 0.74838 1 1.4062v2c0 0.65788-0.41298 1.203-1 1.4062v3.094h9v-2c0-4.986-4.014-9-9-9zm-10 12v8c0 4.986 4.014 9 9 9h1c4.986 0 9-4.014 9-9v-8h-19z" clip-path="url(#clipPath7053)"/>
 <g>
  <g>
   <path style="color:#000000" d="m24 8c-4.986 0-9 4.014-9 9v2h9v-3.0938c-0.587-0.203-1-0.748-1-1.406v-2c0-0.65788 0.41298-1.203 1-1.4062v-3.094zm1 0v3.0938c0.58702 0.20326 1 0.74838 1 1.4062v2c0 0.65788-0.41298 1.203-1 1.4062v3.094h9v-2c0-4.986-4.014-9-9-9zm-10 12v8c0 4.986 4.014 9 9 9h1c4.986 0 9-4.014 9-9v-8h-19z" fill="url(#linearGradient5787)"/>
  </g>
 </g>
 <path opacity=".4" style="color:#000000" fill="url(#linearGradient3115)" d="m2 0c-1.108 0-2 0.892-2 2v44c0 1.108 0.892 2 2 2h44c1.108 0 2-0.892 2-2v-44c0-1.108-0.892-2-2-2h-44zm0 0.5h44c0.83101 0 1.5 0.66899 1.5 1.5v44c0 0.83101-0.66899 1.5-1.5 1.5h-44c-0.831 0-1.5-0.669-1.5-1.5v-44c0-0.831 0.669-1.5 1.5-1.5z"/>
</svg>
