<svg xmlns:rdf="http://www.w3.org/1999/02/22-rdf-syntax-ns#" xmlns="http://www.w3.org/2000/svg" height="48" width="48" version="1.1" xmlns:cc="http://creativecommons.org/ns#" xmlns:xlink="http://www.w3.org/1999/xlink" xmlns:dc="http://purl.org/dc/elements/1.1/">
 <defs>
  <linearGradient id="linearGradient4763" y2="3" gradientUnits="userSpaceOnUse" x2="27.5" y1=".5" x1="27.5">
   <stop stop-color="#fff" offset="0"/>
   <stop stop-color="#19aeff" stop-opacity="0" offset="1"/>
  </linearGradient>
  <filter id="filter5131" height="1.6139" width="1.8704" y="-.30695" x="-.43521">
   <feGaussianBlur stdDeviation="2.626946"/>
  </filter>
  <clipPath id="clipPath5135" clipPathUnits="userSpaceOnUse">
   <path opacity=".4" d="m22.938 19.969-4.75 0.96875v3.625l4.7812 4.7812v7.5h-4.6562v3.6562l7.5 7.5h20.187c1.108 0 2-0.892 2-2v-6l-20-20.031h-5.0625z"/>
  </clipPath>
  <linearGradient id="linearGradient3833" y2="1015.6" gradientUnits="userSpaceOnUse" x2="24.25" y1="1005" x1="24.25">
   <stop stop-color="#dc0000" offset="0"/>
   <stop stop-color="#b50000" offset="1"/>
  </linearGradient>
  <linearGradient id="linearGradient3841" y2="9.1876" gradientUnits="userSpaceOnUse" x2="24.175" y1="3" x1="24.175">
   <stop stop-color="#e6e6e6" stop-opacity=".82927" offset="0"/>
   <stop stop-color="#e6e6e6" offset="1"/>
  </linearGradient>
 </defs>
 <g transform="translate(0 -1004.4)">
  <rect style="color:#000000" ry="2" height="48" width="48" y="1004.4" x="0" fill="#ccc"/>
  <path opacity=".25" style="block-progression:tb;text-indent:0;color:#000000;text-transform:none" d="m5.0938 1004.4c0.5651 0.5541 0.91717 1.3026 0.9375 2.1563 0.04141 1.7391-1.3545 3.2086-3.0938 3.25-1.3734 0.032-2.5402-0.8466-3-2.0625v24.5l0.9375 0.094-0.0625 0.9375v0.062l0.28125 1.75v0.062l1.3438 2.875 0.0625 0.125h0.15625l1.9375-0.031h0.15625l0.0625-0.1563 1.1875-2.9375v-0.031l0.21875-1.7813v-0.062l-0.125-0.9375 2.7812-0.4375 0.21875 0.875h0.0625v0.031l0.8125 1.5625v0.062h0.0625l2.125 2.3437 0.09375 0.094 0.15625-0.031 1.8438-0.6875h0.15625v-0.1562l0.21875-3.2188v-0.031l-0.34375-1.7188v-0.062h-0.0625l-0.34375-0.8125 2.4688-1.3437 0.5 0.7812h0.0625l1.25 1.25 0.0625 0.031 2.75 1.5625 0.15625 0.062 0.09375-0.062 1.5312-1.2188 0.15625-0.094-0.0625-0.1563-0.75-3.0625-0.0625-0.062-0.8125-1.5v-0.062h-0.0625l-0.59375-0.6562 1.9688-2.0625 0.6875 0.5625v0.062h0.0625l1.5312 0.75 0.0625 0.031 3.125 0.625 0.125 0.031 0.09375-0.1563 1.1562-1.5937 0.0625-0.094-0.0625-0.1562-1.6875-2.6563-0.0625-0.062-1.3125-1.1875v-0.062l-0.78125-0.4687 1.2188-2.5313 0.84375 0.3125v0.062h0.03125l1.75 0.25h0.03125l3.1875-0.375h0.15625v-0.1562l0.59375-1.875 0.0625-0.1563-0.125-0.094-2.4375-2v-0.062h-0.0625l-1.5938-0.75h-0.0625v-0.031l-0.875-0.1875 0.3125-2.8125 0.9375 0.094h0.0625l1.75-0.3125h0.0625l2.875-1.3438 0.15625-0.031-0.03125-0.1563-0.03125-1.9687v-0.1563l-0.15625-0.031-0.84375-0.3438h-28.25zm15.219 6.5625c1.5746-0.037 3.4612 2.8477 2.7188 4.5625-2.0929 4.7326-5.8227 8.5904-10.469 10.875-1.6975 0.6672-4.526-1.0307-4.5625-2.5625l-0.28125-12.594 12.594-0.2813z"/>
  <path style="color:#000000" d="m2 1004.4c-1.108 0-2 0.892-2 2v10h48v-10c0-1.108-0.892-2-2-2z" fill="url(#linearGradient3833)"/>
  <path opacity=".25" style="block-progression:tb;text-indent:0;color:#000000;text-transform:none" d="m40.906 1016.3-0.15625 0.031-1.9688 0.25-0.09375 0.031-0.0625 0.125-0.8125 3.0625v0.062 1.7812l-0.03125 0.031 0.1875 0.9062-2.6875 0.8438-0.34375-0.8438 0.03125-0.031-0.03125-0.031-1-1.4687-0.03125-0.031-2.4375-2.0937-0.09375-0.094-0.09375 0.094-1.8125 0.8437-0.125 0.062v0.1563l0.1875 3.1562-0.03125 0.062 0.03125 0.031 0.53125 1.6562 0.03125 0.062-0.03125 0.031 0.5 0.75-2.3125 1.6875-0.5625-0.75-0.03125-0.031-1.4375-1.0937-0.03125-0.031-2.9375-1.1875-0.125-0.094-0.125 0.125-1.4062 1.375-0.09375 0.094 0.0625 0.125 1.0938 3 0.03125 0.031 1.0625 1.4375 0.03125 0.031 0.75 0.5938-1.75 2.25-0.75-0.5-0.03125 0.031-0.0625-0.031-1.6562-0.5938-0.03125-0.031-0.03125 0.031-3.1562-0.2812h-0.15625l-0.0625 0.125-0.90625 1.7812-0.09375 0.094 0.09375 0.094 2.0312 2.5 0.03125 0.031 1.4062 1.0312 0.03125 0.062 0.03125-0.062 0.84375 0.375-0.90625 2.6563-0.90625-0.2188-0.03125 0.031-1.7812-0.062h-0.0625l-3.0625 0.7187-0.15625 0.094-0.03125 0.094-0.3125 1.9375-0.03125 0.1875 0.125 0.062 2.6562 1.75h0.0625l1.6562 0.5313 0.03125 0.031 0.03125-0.031 0.90625 0.094-0.0625 2.8438-0.90625 0.062-0.03125-0.031-0.03125 0.031-1.625 0.5h-0.09375l-2.6875 1.6562-0.15625 0.062 0.03125 0.1875 0.15625 1.25h9.6875c-0.91045-4.1571-0.63318-8.525 0.875-12.531l0.0625-0.1563c0.07969-0.1654 0.15708-0.3239 0.28125-0.4687 1.1104-1.2938 3.8213-1.7388 4.7812-0.75l8.7812 9.0625-4.9688 4.8437h13.344c1.108 0 2-0.892 2-2v-12.938l-3.5938 3.5-8.7812-9.0312c-0.95995-0.9889-0.45119-3.6784 0.875-4.75 0.1877-0.1554 0.40459-0.2664 0.625-0.3438 3.4999-1.2004 7.2581-1.49 10.875-0.875v-8.6562l-1.25 1.9062v0.062l-0.5625 1.625-0.03125 0.031 0.03125 0.031-0.0625 0.9063-2.875-0.031-0.03125-0.9062 0.03125-0.031-0.03125-0.031-0.5-1.6563v-0.062l-1.6875-2.7187-0.0625-0.125zm3.375 28.188c0.80607 0.012 1.6129 0.3446 2.2188 0.9687 1.2118 1.2483 1.1858 3.2257-0.0625 4.4375-1.2481 1.2119-3.2258 1.1858-4.4375-0.062-1.2118-1.2482-1.1857-3.2257 0.0625-4.4375 0.6241-0.6059 1.4127-0.9182 2.2188-0.9062z"/>
 </g>
 <g>
  <path opacity=".3" d="m22.938 19.969-4.75 0.96875v3.625l4.7812 4.7812v7.5h-4.6562v3.6562l7.5 7.5h20.187c1.108 0 2-0.892 2-2v-6l-20-20.031h-5.0625z"/>
  <g clip-path="url(#clipPath5135)" filter="url(#filter5131)">
   <path d="m18.302 36.841h4.6775v-13.276l-4.8013 0.99052v-3.6044l4.7738-0.99052h5.0352v16.88h4.6775v3.6594h-14.363v-3.6594"/>
  </g>
 </g>
 <g>
  <g fill="#fff">
   <path d="m18.302 36.841h4.6775v-13.276l-4.8013 0.99052v-3.6044l4.7738-0.99052h5.0352v16.88h4.6775v3.6594h-14.363v-3.6594"/>
  </g>
  <g fill="url(#linearGradient3841)">
   <path d="m14.675 2.4437h6.4303v1.3599h-2.3132v5.6172h-1.7992v-5.6172h-2.3179v-1.3599"/>
   <path d="m21.357 2.4437h1.7992v4.1825c-0.000002 0.57636 0.09346 0.98916 0.28039 1.2384 0.19004 0.24612 0.49847 0.36918 0.92529 0.36918 0.42993 0.0000012 0.73836-0.12306 0.92529-0.36918 0.19004-0.24923 0.28506-0.66203 0.28506-1.2384v-4.1825h1.7992v4.1825c-0.000007 0.9876-0.24768 1.7228-0.74304 2.2057-0.495 0.4829-1.25 0.7244-2.266 0.7244-1.012 0-1.766-0.2415-2.262-0.7244-0.495-0.4828-0.743-1.2181-0.743-2.2057v-4.1825"/>
   <path d="m28.367 2.4437h4.8554v1.3599h-3.0563v1.2991h2.874v1.3599h-2.874v1.5982h3.1591v1.3599h-4.9582v-6.9771"/>
  </g>
 </g>
 <g>
  <path opacity=".4" style="color:#000000" d="m2 0c-1.108 0-2 0.892-2 2v44c0 1.108 0.892 2 2 2h44c1.108 0 2-0.892 2-2v-44c0-1.108-0.892-2-2-2h-44zm0 0.5h44c0.83101 0 1.5 0.66899 1.5 1.5v44c0 0.83101-0.66899 1.5-1.5 1.5h-44c-0.831 0-1.5-0.669-1.5-1.5v-44c0-0.831 0.669-1.5 1.5-1.5z" fill="url(#linearGradient4763)"/>
 </g>
</svg>
