<svg xmlns:rdf="http://www.w3.org/1999/02/22-rdf-syntax-ns#" xmlns="http://www.w3.org/2000/svg" height="48" width="48" version="1.1" xmlns:cc="http://creativecommons.org/ns#" xmlns:xlink="http://www.w3.org/1999/xlink" xmlns:dc="http://purl.org/dc/elements/1.1/">
 <defs>
  <linearGradient id="linearGradient3803" y2="3" gradientUnits="userSpaceOnUse" y1=".5" gradientTransform="translate(0,5)" x2="27.5" x1="27.5">
   <stop stop-color="#fff" offset="0"/>
   <stop stop-color="#fff" stop-opacity="0" offset="1"/>
  </linearGradient>
  <linearGradient id="linearGradient3956" y2="12.286" gradientUnits="userSpaceOnUse" x2="35.964" y1="21.125" x1="27.125">
   <stop stop-color="#0084c8" offset="0"/>
   <stop stop-color="#005c94" offset="1"/>
  </linearGradient>
 </defs>
 <g transform="translate(0 -1004.4)">
  <g transform="translate(-40.191 1005.5)">
   <flowRoot style="word-spacing:0px;letter-spacing:0px" xml:space="preserve" transform="translate(-18.262 -1007.9)" line-height="125%" font-size="40px" font-family="sans-serif" fill="#000000"><flowRegion><rect y="6.6343" x="-53.033" width="57.629" height="49.321"/></flowRegion><flowPara/></flowRoot>
  </g>
  <path style="color:#000000" d="m2 1004.4h44c1.108 0 2 0.892 2 2v44c0 1.108-0.892 2-2 2h-44c-1.108 0-2-0.892-2-2v-44c0-1.108 0.892-2 2-2z" fill="#9eabb0"/>
  <path style="color:#000000" d="m2 1006.4h23v21h21v23h-44z" fill="#005c94"/>
  <path d="m25 2 21 21h-21z" transform="translate(0 1004.4)" fill="url(#linearGradient3956)"/>
  <path opacity=".25" d="m25 23 23 23v-21l-2-2z" transform="translate(0 1004.4)"/>
 </g>
 <g>
  <flowRoot style="word-spacing:0px;letter-spacing:0px" line-height="125%" xml:space="preserve" font-size="40px" transform="translate(-18.262 -1007.9)" font-family="sans-serif" fill="#000000"><flowRegion><rect y="6.6343" width="57.629" x="-53.033" height="49.321"/></flowRegion><flowPara/></flowRoot>
 </g>
 <g>
  <rect style="color:#000000" height="3" width="29" y="43" x="10" fill="#0e232e"/>
  <rect style="color:#000000" height="4" width="4" y="41" x="12" fill="#dc0000"/>
  <rect style="color:#000000" height="4" width="4" y="41" x="19" fill="#9ade00"/>
  <rect style="color:#000000" height="4" width="4" y="41" x="26" fill="#d76cff"/>
  <rect style="color:#000000" height="4" width="4" y="41" x="33" fill="#999"/>
  <path opacity=".4" style="color:#000000" d="m2 0c-1.108 0-2 0.892-2 2v44c0 1.108 0.892 2 2 2h44c1.108 0 2-0.892 2-2v-44c0-1.108-0.892-2-2-2zm0 0.5h44c0.83101 0 1.5 0.669 1.5 1.5v44c0 0.831-0.66899 1.5-1.5 1.5h-44c-0.831 0-1.5-0.669-1.5-1.5v-44c0-0.831 0.669-1.5 1.5-1.5z" fill="url(#linearGradient3803)"/>
 </g>
</svg>
