<svg xmlns:rdf="http://www.w3.org/1999/02/22-rdf-syntax-ns#" xmlns="http://www.w3.org/2000/svg" height="48" width="48" version="1.1" xmlns:cc="http://creativecommons.org/ns#" xmlns:xlink="http://www.w3.org/1999/xlink" xmlns:dc="http://purl.org/dc/elements/1.1/">
 <defs>
  <linearGradient id="linearGradient3115" y2="3" gradientUnits="userSpaceOnUse" x2="27.5" y1=".5" x1="27.5">
   <stop stop-color="#fff" offset="0"/>
   <stop stop-opacity="0" stop-color="#fff" offset="1"/>
  </linearGradient>
 </defs>
 <rect style="color:#000000" ry="2" height="48" width="48" y=".000024414" x="-.0625" fill="#f60"/>
 <path opacity=".25" style="block-progression:tb;color:#000000;text-transform:none;text-indent:0" d="m5.0938 0c0.5651 0.55407 0.9171 1.3026 0.9374 2.1562 0.0415 1.7392-1.3545 3.2086-3.0937 3.25-1.3734 0.0324-2.5402-0.8465-3-2.0624v24.5l0.9375 0.094-0.0625 0.937v0.063l0.2813 1.75v0.062l1.3437 2.875 0.0625 0.125h0.1562l1.9376-0.031h0.1562l0.0625-0.157 1.1875-2.937v-0.031l0.2188-1.782v-0.062l-0.125-0.938 2.7812-0.437 0.2188 0.875h0.0624v0.031l0.8126 1.563v0.062h0.0622l2.125 2.344 0.094 0.094 0.156-0.032 1.844-0.687h0.156v-0.156l0.219-3.219v-0.031l-0.344-1.719v-0.062h-0.062l-0.344-0.813 2.469-1.344 0.5 0.781h0.062l1.25 1.25 0.063 0.032 2.75 1.562 0.156 0.063 0.094-0.063 1.531-1.218 0.156-0.094-0.062-0.156-0.75-3.063-0.063-0.063-0.812-1.5v-0.062h-0.063l-0.594-0.656 1.969-2.063 0.688 0.563v0.062h0.062l1.531 0.75 0.063 0.032 3.125 0.624 0.125 0.032 0.094-0.156 1.156-1.594 0.063-0.094-0.063-0.156-1.687-2.656-0.063-0.063-1.313-1.187v-0.063l-0.781-0.469 1.219-2.531 0.844 0.313v0.062h0.031l1.75 0.25h0.031l3.188-0.375h0.156v-0.156l0.594-1.875 0.062-0.156-0.125-0.094-2.437-2.0002v-0.0628h-0.063l-1.593-0.75h-0.063v-0.0312l-0.875-0.1875 0.312-2.8125 0.938 0.0938h0.062l1.75-0.3126h0.063l2.875-1.3437 0.156-0.0313-0.031-0.1562-0.031-1.9688v-0.1562l-0.156-0.03125-0.844-0.34375h-28.25zm15.218 6.5625c1.575-0.037 3.462 2.8477 2.719 4.5625-2.093 4.733-5.822 8.59-10.469 10.875-1.697 0.667-4.5255-1.031-4.562-2.562l-0.2814-12.594 12.593-0.2815z"/>
 <path opacity=".25" style="block-progression:tb;color:#000000;text-transform:none;text-indent:0" d="m40.906 11.906-0.156 0.032-1.969 0.25-0.093 0.031-0.063 0.125-0.813 3.062v1.844l-0.031 0.031 0.188 0.907-2.688 0.843-0.343-0.843 0.031-0.032-0.031-0.031-1-1.469-0.032-0.031-2.437-2.094-0.094-0.093-0.094 0.093-1.812 0.844-0.125 0.063v0.156l0.187 3.156-0.031 0.062 0.031 0.032 0.531 1.656 0.032 0.062-0.032 0.032 0.5 0.75-2.312 1.687-0.562-0.75-0.032-0.031-1.437-1.094-0.031-0.031-2.938-1.187-0.125-0.094-0.125 0.125-1.406 1.375-0.094 0.094 0.062 0.124 1.094 3 0.032 0.032 1.062 1.437 0.031 0.031 0.75 0.594-1.75 2.25-0.75-0.5-0.031 0.032-0.062-0.032-1.657-0.594-0.031-0.031-0.031 0.031-3.157-0.281h-0.156l-0.062 0.125-0.906 1.782-0.094 0.093 0.094 0.094 2.031 2.5 0.031 0.031 1.406 1.032 0.032 0.062 0.031-0.062 0.843 0.374-0.906 2.657-0.906-0.219-0.031 0.031-1.781-0.062h-0.063l-3.063 0.719-0.156 0.093-0.031 0.094-0.313 1.937-0.031 0.188 0.125 0.062 2.656 1.75h0.063l1.656 0.532 0.031 0.031 0.032-0.031 0.906 0.094-0.062 2.843-0.907 0.063-0.031-0.032-0.031 0.032-1.625 0.5h-0.094l-2.688 1.656-0.156 0.062 0.032 0.188 0.156 1.25h9.687c-0.91-4.157-0.633-8.525 0.875-12.531l0.063-0.157c0.079-0.165 0.157-0.323 0.281-0.468 1.11-1.294 3.821-1.739 4.781-0.75l8.781 9.062-4.968 4.844h13.344c1.108 0 2-0.892 2-2v-12.938l-3.594 3.5-8.782-9.031c-0.959-0.989-0.451-3.678 0.876-4.75 0.187-0.155 0.404-0.266 0.624-0.343 3.5-1.201 7.259-1.49 10.876-0.876v-8.656l-1.25 1.906v0.063l-0.563 1.625-0.031 0.031 0.031 0.031-0.063 0.907-2.874-0.031-0.032-0.907 0.032-0.031-0.032-0.031-0.5-1.657v-0.062l-1.687-2.719-0.063-0.125zm3.375 28.188c0.806 0.012 1.613 0.344 2.219 0.968 1.212 1.249 1.186 3.226-0.062 4.438-1.249 1.212-3.226 1.186-4.438-0.062-1.212-1.249-1.186-3.226 0.062-4.438 0.625-0.606 1.413-0.918 2.219-0.906z"/>
 <path opacity=".25" style="color:#000000" d="m24 8c-4.095 0-8.188 1.5633-11.312 4.688-6.2489 6.248-6.2489 16.376 0 22.624l12.687 12.688h20.563c1.108 0 2-0.892 2-2v-20.688l-12.626-12.624c-3.124-3.1247-7.217-4.688-11.312-4.688z"/>
 <g>
  <path opacity=".6" style="color:#000000" d="m35.314 12.686c6.2484 6.2484 6.2484 16.379 0 22.627-6.2484 6.2484-16.379 6.2484-22.627 0-6.2484-6.2484-6.2484-16.379 0-22.627 6.2484-6.2484 16.379-6.2484 22.627 0z" fill="#fff"/>
  <path d="m38.573 24c0 8.05-6.523 14.573-14.573 14.573s-14.573-6.523-14.573-14.573c0-8.046 6.523-14.573 14.573-14.573s14.573 6.527 14.573 14.573z" stroke="#fff" stroke-linecap="round" stroke-width="2.8541" fill="none"/>
  <path d="m23.893 16.314v7.3231l6.6565 6.6598" stroke="#fff" stroke-linecap="round" stroke-width="3.5626" fill="none"/>
  <path d="m23.997 11.434v1.9433" stroke="#fff" stroke-linecap="round" stroke-width=".62142" fill="none"/>
  <path d="m23.997 34.71v1.9399" stroke="#fff" stroke-linecap="round" stroke-width=".62142" fill="none"/>
  <path d="m11.467 24.26h1.9433" stroke="#fff" stroke-linecap="round" stroke-width=".62142" fill="none"/>
  <path d="m34.466 24.26h1.9433" stroke="#fff" stroke-linecap="round" stroke-width=".62142" fill="none"/>
 </g>
 <path opacity=".4" style="color:#000000" fill="url(#linearGradient3115)" d="m2 0c-1.108 0-2 0.892-2 2v44c0 1.108 0.892 2 2 2h44c1.108 0 2-0.892 2-2v-44c0-1.108-0.892-2-2-2h-44zm0 0.5h44c0.83101 0 1.5 0.66899 1.5 1.5v44c0 0.83101-0.66899 1.5-1.5 1.5h-44c-0.831 0-1.5-0.669-1.5-1.5v-44c0-0.831 0.669-1.5 1.5-1.5z"/>
</svg>
