<svg xmlns:rdf="http://www.w3.org/1999/02/22-rdf-syntax-ns#" xmlns="http://www.w3.org/2000/svg" height="48" width="48" version="1.1" xmlns:cc="http://creativecommons.org/ns#" xmlns:xlink="http://www.w3.org/1999/xlink" xmlns:dc="http://purl.org/dc/elements/1.1/">
 <defs>
  <linearGradient id="linearGradient12443" y2="3" gradientUnits="userSpaceOnUse" y1=".5" x2="27.5" x1="27.5">
   <stop stop-color="#fff" offset="0"/>
   <stop stop-color="#fff" stop-opacity="0" offset="1"/>
  </linearGradient>
  <filter id="filter6441" height="1.96" width="1.96" y="-.48" x="-.48">
   <feGaussianBlur stdDeviation="0.4"/>
  </filter>
  <filter id="filter6463" height="1.96" width="1.96" y="-.48" x="-.48">
   <feGaussianBlur stdDeviation="0.4"/>
  </filter>
  <linearGradient id="linearGradient3458" y2="28" gradientUnits="userSpaceOnUse" x2="25" y1="5" x1="25">
   <stop stop-color="#fff" offset="0"/>
   <stop stop-color="#ccc" offset="1"/>
  </linearGradient>
 </defs>
 <g transform="translate(0 -1004.4)">
  <rect style="color:#000000" ry="2" height="48" width="48" y="1004.4" x="0" fill="#9eabb0"/>
  <g transform="matrix(.35545 0 0 .14361 171.12 1002.5)"></g>
  <g transform="matrix(.32314 0 0 .32314 -55.272 805.26)"></g>
  <path id="use5502" style="block-progression:tb;text-indent:0;color:#000000;text-transform:none" d="m10 15.75v0.5h5v-0.5h-5z" fill="#fff"/>
  <use id="use5504" xlink:href="#use5502" transform="translate(0,4)" height="48" width="48" y="0" x="0"/>
  <use id="use5506" xlink:href="#use5504" transform="translate(0,4)" height="48" width="48" y="0" x="0"/>
  <use xlink:href="#use5506" transform="translate(0,4)" height="48" width="48" y="0" x="0"/>
  <path opacity=".35" style="color:#000000" d="m6 35c-0.554 0-1 0.446-1 1v12h38v-12c0-0.554-0.446-1-1-1h-36z" transform="translate(0 1004.4)" fill="#fff"/>
  <rect opacity=".45" ry="2" style="color:#000000" rx="1.7955" transform="translate(0 1004.4)" height="33" width="48" y="0" x="0" fill="#0e232e"/>
  <rect opacity=".65" ry="1" style="color:#000000" transform="translate(0 1004.4)" height="27" width="32" y="2" x="8" fill="#0e232e"/>
  <path opacity=".6" style="color:#000000" d="m17 46c-0.554 0-1 0.446-1 1v1h16v-1c0-0.554-0.446-1-1-1h-14z" transform="translate(0 1004.4)" fill="#2d2d2d"/>
  <path style="color:#000000" d="m8 28.5c0 1.381-1.1193 2.5-2.5 2.5s-2.5-1.119-2.5-2.5 1.1193-2.5 2.5-2.5 2.5 1.119 2.5 2.5z" transform="matrix(.8 0 0 .8 -.4 1010.6)" fill="#bdcdd4"/>
  <path style="color:#000000" d="m5 22c0 0.55228-0.44772 1-1 1s-1-0.44772-1-1 0.44772-1 1-1 1 0.44772 1 1z" transform="translate(0 1006.4)" filter="url(#filter6441)" fill="#ffff3e"/>
  <path style="color:#000000" d="m5 22c0 0.55228-0.44772 1-1 1s-1-0.44772-1-1 0.44772-1 1-1 1 0.44772 1 1z" transform="translate(0 1006.4)" fill="#ffff3e"/>
  <path style="color:#000000" d="m5 18c0 0.55228-0.44772 1-1 1s-1-0.44772-1-1 0.44772-1 1-1 1 0.44772 1 1z" transform="translate(0 1006.4)" filter="url(#filter6463)" fill="#ccff42"/>
  <path style="color:#000000" d="m5 18c0 0.55228-0.44772 1-1 1s-1-0.44772-1-1 0.44772-1 1-1 1 0.44772 1 1z" transform="translate(0 1006.4)" fill="#ccff42"/>
  <rect opacity=".3" style="color:#000000" transform="translate(0 1004.4)" height="1" width="38" y="41" x="5" fill="#2d2d2d"/>
 </g>
 <g>
  <g transform="matrix(1.1 0 0 .44444 241.16 29.369)"></g>
  <g transform="translate(-459.44 -580.99)"></g>
  <path opacity=".25" style="color:#000000" d="m12 4v25h28l8 8v-22l-11-11h-25z"/>
 </g>
 <g>
  <rect style="color:#000000" ry="0" height="25" width="25" y="4" x="12" fill="url(#linearGradient3458)"/>
  <g fill="#999">
   <path style="color:#000000" d="m15 8v7h6v-7zm1 1h4v5h-4z"/>
   <rect style="color:#000000" height="1" width="9" y="8" x="23"/>
   <rect style="color:#000000" height="1" width="9" y="11" x="23"/>
   <rect style="color:#000000" height="1" width="9" y="14" x="23"/>
   <rect style="color:#000000" height="1" width="17" y="17" x="15"/>
   <rect style="color:#000000" height="1" width="17" y="20" x="15"/>
   <rect style="color:#000000" height="1" width="17" y="23" x="15"/>
   <rect style="color:#000000" height="1" width="17" y="26" x="15"/>
  </g>
 </g>
 <g>
  <path opacity=".4" style="color:#000000" d="m2 0c-1.108 0-2 0.892-2 2v44c0 1.108 0.892 2 2 2h44c1.108 0 2-0.892 2-2v-44c0-1.108-0.892-2-2-2h-44zm0 0.5h44c0.83101 0 1.5 0.66899 1.5 1.5v44c0 0.83101-0.66899 1.5-1.5 1.5h-44c-0.831 0-1.5-0.669-1.5-1.5v-44c0-0.831 0.669-1.5 1.5-1.5z" fill="url(#linearGradient12443)"/>
 </g>
</svg>
