<svg xmlns:rdf="http://www.w3.org/1999/02/22-rdf-syntax-ns#" xmlns="http://www.w3.org/2000/svg" height="48" width="48" version="1.1" xmlns:cc="http://creativecommons.org/ns#" xmlns:xlink="http://www.w3.org/1999/xlink" xmlns:dc="http://purl.org/dc/elements/1.1/">
 <defs>
  <linearGradient id="linearGradient12443" y2="3" gradientUnits="userSpaceOnUse" x2="27.5" y1=".5" x1="27.5">
   <stop stop-color="#fff" offset="0"/>
   <stop stop-color="#fff" stop-opacity="0" offset="1"/>
  </linearGradient>
  <filter id="filter4549" height="1.4594" width="1.5025" y="-.22969" x="-.25127">
   <feGaussianBlur stdDeviation="2.8192388"/>
  </filter>
  <clipPath id="clipPath4571" clipPathUnits="userSpaceOnUse">
   <path opacity=".35985" d="m16.562 9.2812c-0.74132 0.048211-1.4937 0.22542-2.125 0.5-1.676 0.7268-2.965 2.6818-3.593 5.4688-0.44683 1.9819-0.41916 7.4073 0.03125 9.5 0.44637 2.0716 1.3217 3.7905 2.4062 4.875l0.407 0.375 2.5312 2.5312c0.30041 0.8334 0.62131 1.3713 1 1.75l0.343 0.313 13.407 13.406h15.031c1.108 0 2-0.892 2-2v-16.031l-19.094-19.063-0.031-0.031c-0.078-0.045-0.553-0.117-1.063-0.156l-0.90625-0.0625-0.34375 1.3125c-0.17758 0.7241-0.37237 1.5281-0.4375 1.8125-0.10143 0.4425-0.18982 0.53125-0.75 0.53125h-0.59375l-3.25-3.25c-0.843-0.845-1.941-1.3838-3.28-1.6568-0.31525-0.064-0.63979-0.1093-0.96875-0.125-0.24672-0.01175-0.47164-0.01607-0.71875 0z" fill="#364e59"/>
  </clipPath>
 </defs>
 <g transform="translate(0 -1004.4)">
  <rect style="color:#000000" ry="2" height="48" width="48" y="1004.4" x="0" fill="#9ade00"/>
 </g>
 <g>
  <flowRoot style="word-spacing:0px;letter-spacing:0px" xml:space="preserve" transform="translate(-18.262 -1007.9)" line-height="125%" font-size="40px" font-family="sans-serif" fill="#000000"><flowRegion><rect y="6.6343" x="-53.033" width="57.629" height="49.321"/></flowRegion><flowPara/></flowRoot>
  <path opacity=".35985" d="m16.562 9.2812c-0.741 0.0483-1.493 0.2255-2.124 0.5-1.677 0.7268-2.966 2.6818-3.594 5.4688-0.447 1.982-0.419 7.407 0.031 9.5 0.446 2.072 1.322 3.79 2.406 4.875l0.407 0.375 2.531 2.531c0.3 0.834 0.621 1.372 1 1.75l0.343 0.313 13.407 13.406h15.031c1.108 0 2-0.892 2-2v-16.031l-19.094-19.063-0.031-0.031c-0.078-0.045-0.553-0.117-1.063-0.156l-0.906-0.063-0.344 1.313c-0.177 0.724-0.372 1.528-0.437 1.812-0.101 0.443-0.19 0.531-0.75 0.531h-0.594l-3.25-3.25c-0.844-0.844-1.942-1.3828-3.281-1.6558-0.315-0.064-0.64-0.1092-0.969-0.125-0.246-0.0117-0.471-0.016-0.719 0z" fill="#364e59"/>
  <path d="m17.295 9.2786c-0.98688-0.047-2.0021 0.1339-2.8438 0.5-1.676 0.7274-2.965 2.6824-3.594 5.4684-0.44683 1.9819-0.41916 7.4073 0.03125 9.5 0.66149 3.07 2.2197 5.3439 4.0938 5.9687 0.694 0.2318 0.77076 0.3465 1.0625 1.2813 0.4537 1.454 0.8852 2.1338 1.5312 2.5937 0.64617 0.4602 1.9005 0.7728 2.6875 0.6563 0.29803-0.044 0.75428-0.062 1-0.062 0.42447 0 0.4375-0.056 0.4375-1.2188 0-1.0874-0.04826-1.25-0.375-1.25-0.69674 0-1.2643-0.3945-1.5938-1.125-0.18179-0.403-0.29184-0.7803-0.25-0.8125 0.04214-0.033 0.44862-0.2838 0.9375-0.5625 2.4272-1.3897 3.5243-4.509 3.5312-10.094 0.009-6.7175-1.6772-9.9014-5.6875-10.719-0.31525-0.064-0.63979-0.1093-0.96875-0.125zm9.625 1.375-0.34375 1.3125c-0.17758 0.7241-0.37237 1.5281-0.4375 1.8125-0.10143 0.4425-0.18982 0.5313-0.75 0.5313h-0.65625v1.2187 1.2188h0.5625 0.5625v5.4687c0 2.0436-0.0072 3.4384 0.0625 4.4688 0.88588-0.8076 1.9601-1.4085 3.1562-1.7188-0.01529-0.733-0.03125-1.6499-0.03125-3.1562v-4.875h1.125 1.125v-1.0938-1.0937l-1.125-0.1563-1.125-0.125v-1.75c0-0.9718-0.0786-1.7965-0.15625-1.8437-0.07765-0.045-0.55309-0.1172-1.0625-0.1563l-0.90625-0.062zm-9.3438 1.375c0.79052 0 1.7869 0.9504 2.1562 2.0625 0.65318 1.9666 0.76174 8.5691 0.1875 11.344-0.45652 2.2062-1.6604 3.3399-2.9062 2.7187-0.57355-0.286-1.2602-1.2924-1.5-2.1875-0.78399-2.9277-0.73563-10.177 0.09375-12.25 0.37644-0.9408 1.2544-1.6875 1.9688-1.6875zm13.388 22.02c-1.0054 0-1.82-0.8138-1.82-1.82s0.81458-1.82 1.82-1.82c1.0057 0 1.82 0.8138 1.82 1.82s-0.81432 1.82-1.82 1.82zm6.5-0.52v-2.6h-1.4482c-0.11674-0.4862-0.3003-0.9464-0.5434-1.3702l1.007-1.0062-1.8382-1.8382-0.98618 0.9854c-0.4277-0.26-0.89414-0.4576-1.391-0.585v-1.3858h-2.6v1.3858c-0.4966 0.1274-0.9633 0.325-1.3907 0.585l-0.98618-0.9854-1.8382 1.8382 1.007 1.0062c-0.2431 0.4238-0.42666 0.884-0.5434 1.3702h-1.4485v2.6h1.4927c0.12844 0.4654 0.31928 0.9022 0.56394 1.3052l-1.0717 1.0712 1.8382 1.8382 1.0928-1.092c0.39806 0.2288 0.82888 0.403 1.2841 0.5226v1.5548h2.6v-1.5548c0.45526-0.1196 0.88634-0.2938 1.2844-0.5226l1.0928 1.092 1.8382-1.8382-1.0717-1.0712c0.24466-0.403 0.4355-0.8398 0.56394-1.3052h1.4924" clip-path="url(#clipPath4571)" filter="url(#filter4549)"/>
 </g>
 <g>
  <path d="m17.295 9.2786c-0.98688-0.047-2.0021 0.1339-2.8438 0.5-1.676 0.7274-2.965 2.6824-3.594 5.4684-0.44683 1.9819-0.41916 7.4073 0.03125 9.5 0.66149 3.07 2.2197 5.3439 4.0938 5.9687 0.694 0.2318 0.77076 0.3465 1.0625 1.2813 0.4537 1.454 0.8852 2.1338 1.5312 2.5937 0.64617 0.4602 1.9005 0.7728 2.6875 0.6563 0.29803-0.044 0.75428-0.062 1-0.062 0.42447 0 0.4375-0.056 0.4375-1.2188 0-1.0874-0.04826-1.25-0.375-1.25-0.69674 0-1.2643-0.3945-1.5938-1.125-0.18179-0.403-0.29184-0.7803-0.25-0.8125 0.04214-0.033 0.44862-0.2838 0.9375-0.5625 2.4272-1.3897 3.5243-4.509 3.5312-10.094 0.009-6.7175-1.6772-9.9014-5.6875-10.719-0.31525-0.064-0.63979-0.1093-0.96875-0.125zm9.625 1.375-0.34375 1.3125c-0.17758 0.7241-0.37237 1.5281-0.4375 1.8125-0.10143 0.4425-0.18982 0.5313-0.75 0.5313h-0.65625v1.2187 1.2188h0.5625 0.5625v5.4687c0 2.0436-0.0072 3.4384 0.0625 4.4688 0.88588-0.8076 1.9601-1.4085 3.1562-1.7188-0.01529-0.733-0.03125-1.6499-0.03125-3.1562v-4.875h1.125 1.125v-1.0938-1.0937l-1.125-0.1563-1.125-0.125v-1.75c0-0.9718-0.0786-1.7965-0.15625-1.8437-0.07765-0.045-0.55309-0.1172-1.0625-0.1563l-0.90625-0.062zm-9.3438 1.375c0.79052 0 1.7869 0.9504 2.1562 2.0625 0.65318 1.9666 0.76174 8.5691 0.1875 11.344-0.45652 2.2062-1.6604 3.3399-2.9062 2.7187-0.57355-0.286-1.2602-1.2924-1.5-2.1875-0.78399-2.9277-0.73563-10.177 0.09375-12.25 0.37644-0.9408 1.2544-1.6875 1.9688-1.6875zm13.388 22.02c-1.0054 0-1.82-0.8138-1.82-1.82s0.81458-1.82 1.82-1.82c1.0057 0 1.82 0.8138 1.82 1.82s-0.81432 1.82-1.82 1.82zm6.5-0.52v-2.6h-1.4482c-0.11674-0.4862-0.3003-0.9464-0.5434-1.3702l1.007-1.0062-1.8382-1.8382-0.98618 0.9854c-0.4277-0.26-0.89414-0.4576-1.391-0.585v-1.3858h-2.6v1.3858c-0.4966 0.1274-0.9633 0.325-1.3907 0.585l-0.98618-0.9854-1.8382 1.8382 1.007 1.0062c-0.2431 0.4238-0.42666 0.884-0.5434 1.3702h-1.4485v2.6h1.4927c0.12844 0.4654 0.31928 0.9022 0.56394 1.3052l-1.0717 1.0712 1.8382 1.8382 1.0928-1.092c0.39806 0.2288 0.82888 0.403 1.2841 0.5226v1.5548h2.6v-1.5548c0.45526-0.1196 0.88634-0.2938 1.2844-0.5226l1.0928 1.092 1.8382-1.8382-1.0717-1.0712c0.24466-0.403 0.4355-0.8398 0.56394-1.3052h1.4924" fill="#fff"/>
 </g>
 <path opacity=".4" style="color:#000000" d="m2 0c-1.108 0-2 0.892-2 2v44c0 1.108 0.892 2 2 2h44c1.108 0 2-0.892 2-2v-44c0-1.108-0.892-2-2-2h-44zm0 0.5h44c0.83101 0 1.5 0.66899 1.5 1.5v44c0 0.83101-0.66899 1.5-1.5 1.5h-44c-0.831 0-1.5-0.669-1.5-1.5v-44c0-0.831 0.669-1.5 1.5-1.5z" fill="url(#linearGradient12443)"/>
</svg>
