<svg xmlns:rdf="http://www.w3.org/1999/02/22-rdf-syntax-ns#" xmlns="http://www.w3.org/2000/svg" height="48" width="48" version="1.1" xmlns:cc="http://creativecommons.org/ns#" xmlns:xlink="http://www.w3.org/1999/xlink" xmlns:dc="http://purl.org/dc/elements/1.1/">
 <defs>
  <linearGradient id="linearGradient5371" y2="3.3773" gradientUnits="userSpaceOnUse" y1="-.016638" x2="22.5" x1="22.5">
   <stop stop-color="#fff" offset="0"/>
   <stop stop-color="#fff" stop-opacity="0" offset="1"/>
  </linearGradient>
 </defs>
 <g transform="translate(0 -1004.4)">
  <rect style="color:#000000" ry="2" height="48" width="48" y="1004.4" x="0" fill="#0e232e"/>
  <g opacity=".3" fill="#fff">
   <path d="m20.167 1044.9h-2.2318l-2.1078-3.1618h-0.89272v3.1618h-1.9342v-8.047h3.6205c1.058 0 1.8309 0.1282 2.3186 0.3844 0.48768 0.2563 0.73153 0.6944 0.73154 1.3143v1.4135c-0.000007 0.4877-0.17772 0.8638-0.53316 1.1283-0.34718 0.2645-0.78114 0.4298-1.3019 0.4959l2.331 3.3106m-2.393-5.3192v-0.5703c-0.000006-0.2976-0.09093-0.5001-0.27278-0.6076-0.17359-0.1157-0.4753-0.1736-0.90512-0.1736h-1.6615v2.2318h1.6615c0.45462 0 0.7646-0.058 0.92992-0.1736 0.16531-0.1239 0.24797-0.3595 0.24798-0.7067"/>
   <path d="m27.544 1044.9h-6.2615v-8.047h6.1375v1.3763h-4.2032v1.8475h3.7941v1.3762h-3.7941v2.0707h4.3272v1.3763"/>
   <path d="m35 1044.7c-0.90926 0.1818-1.7772 0.2727-2.6038 0.2727-0.33064 0-0.64475-0.016-0.94232-0.05-0.28931-0.025-0.61582-0.083-0.97952-0.1735-0.35544-0.099-0.66128-0.2274-0.91752-0.3844-0.24798-0.1653-0.45876-0.3926-0.63235-0.6819-0.17359-0.2976-0.26038-0.6448-0.26038-1.0416v-3.5337c0-1.6201 1.244-2.4301 3.7321-2.4302 0.61168 0.0001 1.4631 0.091 2.5542 0.2728v1.4507c-0.98366-0.2314-1.8268-0.3472-2.5294-0.3472-0.28105 0-0.51249 0.01-0.69434 0.025-0.17359 0.017-0.35957 0.058-0.55795 0.124-0.19012 0.066-0.33477 0.1736-0.43396 0.3224-0.09093 0.1405-0.13639 0.3265-0.13639 0.5579v3.4222c-0.000003 0.7274 0.66541 1.0911 1.9962 1.0911 0.58688 0 1.3887-0.1199 2.4054-0.3596v1.4631"/>
  </g>
 </g>
 <g>
  <path opacity=".25" style="color:#000000" d="m24 6c-2.559 0-5.11 0.9849-7.062 2.9375-3.906 3.9055-3.906 10.22 0 14.124l24.906 24.938h4.156c1.108 0 2-0.892 2-2v-20.125l-16.938-16.938c-1.952-1.9521-4.503-2.937-7.062-2.937z"/>
 </g>
 <g>
  <path style="color:#000000" d="m35 15.5a10 10 0 1 1 -20 0 10 10 0 1 1 20 0z" transform="matrix(.70711 .70711 -.70711 .70711 17.282 -12.638)" fill="#b50000"/>
 </g>
 <path opacity=".5" style="color:#000000" d="m2 0c-1.108 0-2 0.892-2 2v44c0 1.108 0.892 2 2 2h44c1.108 0 2-0.892 2-2v-44c0-1.108-0.892-2-2-2h-44zm0 0.5h44c0.83101 0 1.5 0.66899 1.5 1.5v44c0 0.83101-0.66899 1.5-1.5 1.5h-44c-0.831 0-1.5-0.669-1.5-1.5v-44c0-0.831 0.669-1.5 1.5-1.5z" fill="url(#linearGradient5371)"/>
</svg>
