<svg xmlns:rdf="http://www.w3.org/1999/02/22-rdf-syntax-ns#" xmlns="http://www.w3.org/2000/svg" height="48" width="48" version="1.1" xmlns:cc="http://creativecommons.org/ns#" xmlns:xlink="http://www.w3.org/1999/xlink" xmlns:dc="http://purl.org/dc/elements/1.1/">
 <defs>
  <linearGradient id="linearGradient4699-1">
   <stop stop-color="#fff" offset="0"/>
   <stop stop-color="#fff" stop-opacity="0" offset="1"/>
  </linearGradient>
  <linearGradient id="linearGradient5371" y2="23" xlink:href="#linearGradient4699-1" gradientUnits="userSpaceOnUse" x2="22.5" y1=".5" x1="22.5"/>
  <filter id="filter4174" height="1.2175" width="1.2677" y="-.10875" x="-.13385">
   <feGaussianBlur stdDeviation="1.45"/>
  </filter>
  <clipPath id="clipPath4196" clipPathUnits="userSpaceOnUse">
   <path opacity=".25" style="color:#000000" d="m13 8c-1.108 0-2 0.892-2 2v28c0 0.40981 0.1339 0.77724 0.34375 1.0938 0.03403 0.05196 0.05515 0.10783 0.09375 0.15625 0.04134 0.05154 0.07883 0.1091 0.125 0.15625h0.03125l8.595 8.594h25.812c1.108 0 2-0.892 2-2v-25.812l-11.594-11.594v-0.03125c-0.047-0.0464-0.104-0.084-0.156-0.1253-0.342-0.2743-0.775-0.4375-1.25-0.4375h-22z"/>
  </clipPath>
  <radialGradient id="radialGradient3836" xlink:href="#linearGradient4699-1" gradientUnits="userSpaceOnUse" cy="25.498" cx="27" gradientTransform="matrix(1 0 0 1.0005 0 -.010380)" r="7.0468"/>
  <radialGradient id="radialGradient3890" xlink:href="#linearGradient4699-1" gradientUnits="userSpaceOnUse" cy="34.999" cx="17.5" gradientTransform="matrix(1 0 0 1.0008 0 -.028362)" r="1.9984"/>
  <radialGradient id="radialGradient3898" gradientUnits="userSpaceOnUse" cy="34.5" cx="31.5" gradientTransform="matrix(1 0 0 1.0008 0 -.028362)" r="1.9984">
   <stop stop-color="#fff" offset="0"/>
   <stop stop-color="#fff" stop-opacity="0" offset="1"/>
  </radialGradient>
 </defs>
 <g transform="translate(0 -1004.4)">
  <rect style="color:#000000" ry="2" height="48" width="48" y="1004.4" x="0" fill="#f90"/>
 </g>
 <g>
  <path opacity=".25" style="color:#000000" d="m13 8c-1.108 0-2 0.892-2 2v28c0 0.41 0.134 0.777 0.344 1.094 0.034 0.052 0.055 0.108 0.094 0.156 0.041 0.052 0.078 0.109 0.124 0.156h0.032l8.594 8.594h25.812c1.108 0 2-0.892 2-2v-25.812l-11.594-11.594v-0.0315c-0.047-0.0461-0.104-0.0837-0.156-0.125-0.342-0.2743-0.775-0.4375-1.25-0.4375h-22z"/>
  <rect filter="url(#filter4174)" style="color:#000000" clip-path="url(#clipPath4196)" ry="2" height="32" width="26" y="8" x="11"/>
 </g>
 <g>
  <rect style="color:#000000" ry="2" height="32" width="26" y="8" x="11" fill="#0e232e"/>
  <path d="m32.993 21.943c0 4.9734-4.0267 9.0002-8.9935 9.0002s-8.9935-4.0267-8.9935-9.0002c0-4.9701 4.0267-9.0002 8.9935-9.0002s8.9935 4.0301 8.9935 9.0002z" stroke="#364e59" stroke-width=".99997" fill="none"/>
  <path fill="#9eabb0" d="m24 14.893c-3.8934 0-7.0468 3.1567-7.0468 7.0501 0 3.8967 3.1534 7.0501 7.0468 7.0501s7.0468-3.1534 7.0468-7.0501c0-3.8934-3.1534-7.0501-7.0468-7.0501zm0 4.0501c1.6567 0 2.9967 1.3434 2.9967 3.0001s-1.34 3.0001-2.9967 3.0001-2.9967-1.3434-2.9967-3.0001 1.34-3.0001 2.9967-3.0001z"/>
  <path fill="#9eabb0" d="m19.003 34c0 1.1034-0.89335 2-2 2-1.1034 0-1.9967-0.89668-1.9967-2 0-1.1034 0.89335-2 1.9967-2 1.1067 0 2 0.89668 2 2z"/>
  <path fill="#9eabb0" d="m32.994 34c0 1.1034-0.89335 2-1.9967 2-1.1067 0-2-0.89668-2-2 0-1.1034 0.89335-2 2-2 1.1034 0 1.9967 0.89668 1.9967 2z"/>
  <path d="m24 14.893c-3.8934 0-7.0468 3.1567-7.0468 7.0501 0 3.8967 3.1534 7.0501 7.0468 7.0501s7.0468-3.1534 7.0468-7.0501c0-3.8934-3.1534-7.0501-7.0468-7.0501zm0 4.0501c1.6567 0 2.9967 1.3434 2.9967 3.0001s-1.34 3.0001-2.9967 3.0001-2.9967-1.3434-2.9967-3.0001 1.34-3.0001 2.9967-3.0001z" fill="url(#radialGradient3836)"/>
  <path d="m19.003 34c0 1.1034-0.89335 2-2 2-1.1034 0-1.9967-0.89668-1.9967-2 0-1.1034 0.89335-2 1.9967-2 1.1067 0 2 0.89668 2 2z" fill="url(#radialGradient3890)"/>
  <path d="m32.994 34c0 1.1034-0.89335 2-1.9967 2-1.1067 0-2-0.89668-2-2 0-1.1034 0.89335-2 2-2 1.1034 0 1.9967 0.89668 1.9967 2z" fill="url(#radialGradient3898)"/>
 </g>
 <path opacity=".7" style="color:#000000" d="m2 0c-1.108 0-2 0.892-2 2v44c0 1.108 0.892 2 2 2h44c1.108 0 2-0.892 2-2v-44c0-1.108-0.892-2-2-2h-44zm0 0.5h44c0.83101 0 1.5 0.66899 1.5 1.5v44c0 0.83101-0.66899 1.5-1.5 1.5h-44c-0.831 0-1.5-0.669-1.5-1.5v-44c0-0.831 0.669-1.5 1.5-1.5z" fill="url(#linearGradient5371)"/>
</svg>
