<svg xmlns:rdf="http://www.w3.org/1999/02/22-rdf-syntax-ns#" xmlns="http://www.w3.org/2000/svg" height="48" width="48" version="1.1" xmlns:cc="http://creativecommons.org/ns#" xmlns:xlink="http://www.w3.org/1999/xlink" xmlns:dc="http://purl.org/dc/elements/1.1/">
 <defs>
  <linearGradient id="linearGradient12443" y2="3" gradientUnits="userSpaceOnUse" y1=".5" x2="27.5" x1="27.5">
   <stop stop-color="#fff" offset="0"/>
   <stop stop-color="#fff" stop-opacity="0" offset="1"/>
  </linearGradient>
  <filter id="filter12590" height="2.26" width="1.063" y="-.63" x="-.0315">
   <feGaussianBlur stdDeviation="0.525"/>
  </filter>
  <filter id="filter13616" height="3.52" width="1.126" y="-1.26" x="-.063">
   <feGaussianBlur stdDeviation="1.05"/>
  </filter>
  <linearGradient id="linearGradient13663" y2="28" gradientUnits="userSpaceOnUse" x2="25" gradientTransform="matrix(1.04 0 0 1 -.47390 .6599)" y1="5" x1="25">
   <stop stop-color="#fff" offset="0"/>
   <stop stop-color="#ccc" offset="1"/>
  </linearGradient>
  <filter id="filter13687" height="1.48" width="1.48" y="-.24" x="-.24">
   <feGaussianBlur stdDeviation="0.2"/>
  </filter>
 </defs>
 <g transform="translate(0 -1004.4)">
  <rect style="color:#000000" ry="2" height="48" width="48" y="1004.4" x="0" fill="#9eabb0"/>
  <rect ry="2" style="color:#000000" transform="translate(0 1004.4)" height="38" width="40" y="4" x="4" fill="#0e232e"/>
  <rect ry="1" style="color:#000000" transform="translate(0 1004.4)" height="2" filter="url(#filter13616)" width="40" y="16" x="4" fill="#19aeff"/>
  <rect ry="1" style="color:#000000" transform="translate(0 1004.4)" height="2" filter="url(#filter12590)" width="40" y="16" x="4" fill="#fff"/>
  <g opacity=".85" transform="translate(-1.0061 1005.7)">
   <rect style="color:#000000" ry="0" height="34" width="26" y="4.6599" x="12.006" fill="url(#linearGradient13663)"/>
   <path style="color:#000000" d="m16.006 7.6599v7h6v-7zm1 1h4v5h-4z" fill="#999"/>
   <rect style="color:#000000" height="1" width="9" y="7.6599" x="24.006" fill="#999"/>
   <rect style="color:#000000" height="1" width="9" y="10.66" x="24.006" fill="#999"/>
   <rect style="color:#000000" height="1" width="9" y="13.66" x="24.006" fill="#999"/>
   <rect style="color:#000000" height="1" width="17" y="16.66" x="16.006" fill="#999"/>
   <rect style="color:#000000" height="1" width="17" y="19.66" x="16.006" fill="#999"/>
   <rect style="color:#000000" height="1" width="17" y="22.66" x="16.006" fill="#999"/>
   <rect style="color:#000000" height="1" width="17" y="25.66" x="16.006" fill="#999"/>
   <rect style="color:#000000" height="1" width="17" y="28.66" x="16.006" fill="#999"/>
   <rect style="color:#000000" height="1" width="17" y="31.66" x="16.006" fill="#999"/>
   <rect style="color:#000000" height="1" width="17" y="34.66" x="16.006" fill="#999"/>
  </g>
  <path opacity=".85" style="color:#000000" d="m7 44.5a1.5 1.5 0 1 1 -3 0 1.5 1.5 0 1 1 3 0z" transform="translate(0 1004.4)" fill="#0e232e"/>
  <path opacity=".85" style="color:#000000" d="m12 45a1 1 0 1 1 -2 0 1 1 0 1 1 2 0z" transform="translate(0 1004.4)" filter="url(#filter13687)" fill="#ccff42"/>
  <path opacity=".85" style="color:#000000" d="m12 45a1 1 0 1 1 -2 0 1 1 0 1 1 2 0z" transform="translate(0 1004.4)" fill="#ccff42"/>
 </g>
 <g>
  <g transform="matrix(1.1 0 0 .44444 241.16 29.369)"></g>
  <g transform="translate(-459.44 -580.99)"></g>
 </g>
 <g>
  <path opacity=".4" style="color:#000000" d="m2 0c-1.108 0-2 0.892-2 2v44c0 1.108 0.892 2 2 2h44c1.108 0 2-0.892 2-2v-44c0-1.108-0.892-2-2-2h-44zm0 0.5h44c0.83101 0 1.5 0.66899 1.5 1.5v44c0 0.83101-0.66899 1.5-1.5 1.5h-44c-0.831 0-1.5-0.669-1.5-1.5v-44c0-0.831 0.669-1.5 1.5-1.5z" fill="url(#linearGradient12443)"/>
 </g>
</svg>
