<svg xmlns:rdf="http://www.w3.org/1999/02/22-rdf-syntax-ns#" xmlns="http://www.w3.org/2000/svg" height="48" width="48" version="1.1" xmlns:cc="http://creativecommons.org/ns#" xmlns:xlink="http://www.w3.org/1999/xlink" xmlns:dc="http://purl.org/dc/elements/1.1/">
 <defs>
  <linearGradient id="linearGradient12443" y2="3" gradientUnits="userSpaceOnUse" x2="27.5" y1=".5" x1="27.5">
   <stop stop-color="#fff" offset="0"/>
   <stop stop-color="#fff" stop-opacity="0" offset="1"/>
  </linearGradient>
  <filter id="filter5433" height="1.2236" width="1.259" y="-.11181" x="-.12949">
   <feGaussianBlur stdDeviation="1.187"/>
  </filter>
  <clipPath id="clipPath5455" clipPathUnits="userSpaceOnUse">
   <path opacity=".25" d="m21.125 11.531c-0.33333 0-0.64617 0.02236-0.9375 0.0625-0.58267 0.08027-1.0997 0.22879-1.5312 0.4375-0.2158 0.10436-0.41148 0.21531-0.59375 0.34375-0.1892 0.13333-0.34383 0.2841-0.5 0.4375-0.4456 0.4377-0.77384 0.93027-1 1.4375-0.15271 0.3425-0.26309 0.71016-0.34375 1.0312-0.242 0.964-0.219 1.719-0.219 1.719v5c0 0.66875 0.47656 1.605 1.0625 2.5312 0.58594 0.92627 1.2812 1.8324 1.75 2.4062 0.3125 0.38255 0.53125 0.625 0.53125 0.625v1.4688l-0.344-0.031-1 1-6 3v4l11 11h23c1.108 0 2-0.892 2-2v-13.469l-19.312-19.281c-0.098-0.12-0.2-0.231-0.313-0.344-0.036-0.035-0.088-0.059-0.125-0.094-0.167-0.155-0.33-0.334-0.531-0.468-0.178-0.119-0.388-0.215-0.594-0.313-0.43868-0.20742-0.94798-0.35747-1.5312-0.4375-0.29334-0.04025-0.60368-0.0625-0.9375-0.0625h-3.5312z"/>
  </clipPath>
 </defs>
 <g transform="translate(0 -1004.4)">
  <rect style="color:#000000" ry="2" height="48" width="48" y="1004.4" x="0" fill="#ff4141"/>
 </g>
 <g>
  <path opacity=".25" d="m21.125 11.531c-0.333 0-0.646 0.023-0.937 0.063-0.583 0.08-1.1 0.229-1.532 0.437-0.216 0.105-0.411 0.216-0.594 0.344-0.189 0.133-0.343 0.284-0.5 0.437-0.445 0.438-0.773 0.931-1 1.438-0.152 0.342-0.263 0.71-0.343 1.031-0.242 0.964-0.219 1.719-0.219 1.719v5c0 0.669 0.477 1.605 1.062 2.531 0.586 0.927 1.282 1.833 1.75 2.407 0.313 0.382 0.532 0.624 0.532 0.624v1.469l-0.344-0.031-1 1-6 3v4l11 11h23c1.108 0 2-0.892 2-2v-13.469l-19.312-19.281c-0.098-0.12-0.2-0.231-0.313-0.344-0.036-0.035-0.088-0.059-0.125-0.094-0.167-0.155-0.33-0.334-0.531-0.468-0.178-0.119-0.388-0.215-0.594-0.313-0.439-0.207-0.948-0.357-1.531-0.437-0.294-0.04-0.604-0.063-0.938-0.063h-3.531z"/>
  <g transform="matrix(1.1 0 0 .44444 241.16 29.369)"></g>
  <g transform="translate(-459.44 -580.99)"></g>
  <path opacity=".6" d="m24.667 11.52h-3.5567c-5.333 0-5.11 5.48-5.11 5.48v5c0 1.7833 3.3333 5.5667 3.3333 5.5667v1.4646l-0.333-0.032-1 1-6 3v4h22v-4l-6-3-1-1-0.55667-0.03125v-1.4021s3.57-3.7833 3.5567-5.5667v-5s0-5.48-5.3333-5.48z" clip-path="url(#clipPath5455)" filter="url(#filter5433)"/>
 </g>
 <g>
  <path d="m24.667 11.52h-3.5567c-5.333 0-5.11 5.48-5.11 5.48v5c0 1.7833 3.3333 5.5667 3.3333 5.5667v1.4646l-0.333-0.032-1 1-6 3v4h22v-4l-6-3-1-1-0.55667-0.03125v-1.4021s3.57-3.7833 3.5567-5.5667v-5s0-5.48-5.3333-5.48z" fill="#fff"/>
  <path d="m16 19h14v1h-1l-1 3h-3l-2-3-2 3h-3l-1-3h-1z" fill="#2d2d2d"/>
  <path d="m18 30-6 3v4h9l-1-5zm10 0-2 2-1 5h9v-4z" fill="#2d2d2d"/>
  <path d="m22 32v5h2v-5z" fill="#2d2d2d"/>
  <path d="m23 29-2 2 1 1h2l1-1z" fill="#2d2d2d"/>
  <path d="m21.125 11.531c-5.333 0-5.125 5.469-5.125 5.469v1h2l7-4 4 4h1v-1s-0.01042-5.4688-5.3438-5.4688z" fill="#2d2d2d"/>
 </g>
 <g>
  <path opacity=".4" style="color:#000000" d="m2 0c-1.108 0-2 0.892-2 2v44c0 1.108 0.892 2 2 2h44c1.108 0 2-0.892 2-2v-44c0-1.108-0.892-2-2-2h-44zm0 0.5h44c0.83101 0 1.5 0.66899 1.5 1.5v44c0 0.83101-0.66899 1.5-1.5 1.5h-44c-0.831 0-1.5-0.669-1.5-1.5v-44c0-0.831 0.669-1.5 1.5-1.5z" fill="url(#linearGradient12443)"/>
 </g>
</svg>
