<svg xmlns:rdf="http://www.w3.org/1999/02/22-rdf-syntax-ns#" xmlns="http://www.w3.org/2000/svg" height="48" width="48" version="1.1" xmlns:cc="http://creativecommons.org/ns#" xmlns:xlink="http://www.w3.org/1999/xlink" xmlns:dc="http://purl.org/dc/elements/1.1/">
 <defs>
  <linearGradient id="linearGradient12443" y2="3" gradientUnits="userSpaceOnUse" x2="27.5" y1=".5" x1="27.5">
   <stop stop-color="#fff" offset="0"/>
   <stop stop-color="#fff" stop-opacity="0" offset="1"/>
  </linearGradient>
  <filter id="filter4914" height="1.48" width="1.48" y="-.24" x="-.24">
   <feGaussianBlur stdDeviation="3.2"/>
  </filter>
  <clipPath id="clipPath4936" clipPathUnits="userSpaceOnUse">
   <path d="m20.812 8v3.4062c-1.2224 0.3136-2.3853 0.7975-3.4375 1.4375l-2.4375-2.4062-4.5 4.5 2.4688 2.5c-0.4488 0.7824-0.81566 1.627-1.0938 2.5-0.0927 0.29101-0.17816 0.5758-0.25 0.875h-3.5625v6.375l4.1562 4.1562-1.7188 1.7188 4.5 4.5 9.625 9.625 0.814 0.812h20.625c1.108 0 2-0.892 2-2v-20.625l-0.8125-0.8125-9.625-9.625-4.5-4.5-1.7188 1.7188-4.155-4.156h-6.376z" fill-opacity=".82520" fill="#0e232e"/>
  </clipPath>
  <clipPath id="clipPath4910-6" clipPathUnits="userSpaceOnUse">
   <path opacity=".3" style="color:#000000" d="m24 19.062c-1.2599 0-2.5075 0.50746-3.4688 1.4688-1.9226 1.9226-1.9226 5.0149 0 6.9375l0.375 0.34375 20.188 20.188h4.906c1.108 0 2-0.892 2-2v-4.9062l-8.1562-8.1875-12.031-12-0.34375-0.375c-0.962-0.961-2.209-1.469-3.469-1.469z"/>
  </clipPath>
  <filter id="filter4902-3" width="1.48" y="-0.24" x="-0.24" height="1.48" color-interpolation-filters="sRGB">
   <feGaussianBlur stdDeviation="0.9846154"/>
  </filter>
 </defs>
 <g transform="translate(0 -1004.4)">
  <rect style="color:#000000" ry="2" height="48" width="48" y="1004.4" x="0" fill="#999"/>
 </g>
 <g>
  <path opacity=".3" d="m20.812 8v3.406c-1.222 0.314-2.385 0.798-3.437 1.438l-2.437-2.406-4.5 4.5 2.468 2.5c-0.449 0.782-0.815 1.626-1.094 2.5-0.092 0.291-0.178 0.575-0.25 0.874h-3.562v6.376l4.156 4.156-1.718 1.718 4.5 4.5 9.624 9.626 0.813 0.812h20.625c1.108 0 2-0.892 2-2v-20.625l-0.812-0.813-9.626-9.624-4.5-4.5-1.718 1.718-4.156-4.156h-6.376z"/>
  <flowRoot style="word-spacing:0px;letter-spacing:0px" xml:space="preserve" transform="translate(-18.262 -1007.9)" line-height="125%" font-size="40px" font-family="sans-serif" fill="#000000"><flowRegion><rect y="6.6343" x="-53.033" width="57.629" height="49.321"/></flowRegion><flowPara/></flowRoot>
  <path d="m40 27.2v-6.4h-3.5648c-0.287-1.197-0.739-2.33-1.337-3.373l2.4787-2.4768-4.5248-4.5248-2.4275 2.4256c-1.0528-0.64-2.201-1.1264-3.424-1.44v-3.411h-6.4v3.4112c-1.2224 0.3136-2.3712 0.8-3.4234 1.44l-2.4275-2.4256-4.5248 4.5248 2.4787 2.4768c-0.5984 1.0432-1.0502 2.176-1.3376 3.3728h-3.565v6.4h3.6742c0.31616 1.1456 0.78592 2.2208 1.3882 3.2128l-2.6381 2.6368 4.5248 4.5248 2.6899-2.688c0.97984 0.5632 2.0403 0.992 3.161 1.2864v3.8272h6.4v-3.8272c1.1206-0.2944 2.1818-0.7232 3.1616-1.2864l2.6899 2.688 4.5248-4.5248-2.6381-2.6368c0.60224-0.992 1.072-2.0672 1.3882-3.2128h3.673" fill="#fff"/>
  <path filter="url(#filter4914)" d="m40 27.2v-6.4h-3.5648c-0.287-1.197-0.739-2.33-1.337-3.373l2.4787-2.4768-4.5248-4.5248-2.4275 2.4256c-1.0528-0.64-2.201-1.1264-3.424-1.44v-3.411h-6.4v3.4112c-1.2224 0.3136-2.3712 0.8-3.4234 1.44l-2.4275-2.4256-4.5248 4.5248 2.4787 2.4768c-0.5984 1.0432-1.0502 2.176-1.3376 3.3728h-3.565v6.4h3.6742c0.31616 1.1456 0.78592 2.2208 1.3882 3.2128l-2.6381 2.6368 4.5248 4.5248 2.6899-2.688c0.97984 0.5632 2.0403 0.992 3.161 1.2864v3.8272h6.4v-3.8272c1.1206-0.2944 2.1818-0.7232 3.1616-1.2864l2.6899 2.688 4.5248-4.5248-2.6381-2.6368c0.60224-0.992 1.072-2.0672 1.3882-3.2128h3.673" clip-path="url(#clipPath4936)"/>
 </g>
 <g>
  <path d="m40 27.2v-6.4h-3.5648c-0.287-1.197-0.739-2.33-1.337-3.373l2.4787-2.4768-4.5248-4.5248-2.4275 2.4256c-1.0528-0.64-2.201-1.1264-3.424-1.44v-3.411h-6.4v3.4112c-1.2224 0.3136-2.3712 0.8-3.4234 1.44l-2.4275-2.4256-4.5248 4.5248 2.4787 2.4768c-0.5984 1.0432-1.0502 2.176-1.3376 3.3728h-3.565v6.4h3.6742c0.31616 1.1456 0.78592 2.2208 1.3882 3.2128l-2.6381 2.6368 4.5248 4.5248 2.6899-2.688c0.97984 0.5632 2.0403 0.992 3.161 1.2864v3.8272h6.4v-3.8272c1.1206-0.2944 2.1818-0.7232 3.1616-1.2864l2.6899 2.688 4.5248-4.5248-2.6381-2.6368c0.60224-0.992 1.072-2.0672 1.3882-3.2128h3.673" fill="#ccc"/>
 </g>
 <g>
  <path opacity=".3" style="color:#000000" d="m24 19.062c-1.26 0-2.507 0.508-3.469 1.469-1.922 1.923-1.922 5.015 0 6.938l0.375 0.343 7.844 7.844c0.56-0.222 1.107-0.483 1.625-0.781l2.687 2.687 4.5-4.5-2.624-2.656c0.306-0.504 0.577-1.017 0.812-1.562l-7.938-7.938-0.343-0.375c-0.962-0.961-2.209-1.469-3.469-1.469z"/>
  <path filter="url(#filter4902-3)" style="color:#000000" d="m28.923 24c0 2.7189-2.2041 4.9231-4.9231 4.9231-2.7189 0-4.9231-2.2041-4.9231-4.9231 0-2.7189 2.2041-4.9231 4.9231-4.9231 2.7189 0 4.9231 2.2041 4.9231 4.9231z" clip-path="url(#clipPath4910-6)"/>
 </g>
 <path style="color:#000000" d="m29 24c0 2.7614-2.2386 5-5 5s-5-2.2386-5-5 2.2386-5 5-5 5 2.2386 5 5z" fill="#e6e6e6"/>
 <g>
  <path opacity=".4" style="color:#000000" d="m2 0c-1.108 0-2 0.892-2 2v44c0 1.108 0.892 2 2 2h44c1.108 0 2-0.892 2-2v-44c0-1.108-0.892-2-2-2h-44zm0 0.5h44c0.83101 0 1.5 0.66899 1.5 1.5v44c0 0.83101-0.66899 1.5-1.5 1.5h-44c-0.831 0-1.5-0.669-1.5-1.5v-44c0-0.831 0.669-1.5 1.5-1.5z" fill="url(#linearGradient12443)"/>
 </g>
</svg>
