<svg xmlns:rdf="http://www.w3.org/1999/02/22-rdf-syntax-ns#" xmlns="http://www.w3.org/2000/svg" height="48" width="48" version="1.1" xmlns:cc="http://creativecommons.org/ns#" xmlns:xlink="http://www.w3.org/1999/xlink" xmlns:dc="http://purl.org/dc/elements/1.1/">
 <defs>
  <linearGradient id="linearGradient12443" y2="3" gradientUnits="userSpaceOnUse" x2="27.5" y1=".5" x1="27.5">
   <stop stop-color="#fff" offset="0"/>
   <stop stop-color="#fff" stop-opacity="0" offset="1"/>
  </linearGradient>
 </defs>
 <g transform="translate(0 -1004.4)">
  <rect style="color:#000000" ry="2" height="48" width="48" y="1004.4" x="0" fill="#0084c8"/>
  <path opacity=".4" d="m25.469 1004.9c-0.21045 0-0.38745-0.001-0.53125 0.031h-7.6562c0.94324 1.2017 0.07731 3.2074 1.5 3.1875 0.69274 0.9292-1.3721 0.2839 0.125 1 0.86091 0.6432-0.90992 1.0165 0.15625 1.5938-1.2288 0.6015 0.18106 3.1443 1.0938 3.7812 1.5022 1.1997 0.6676-2.5242 2.3438-2.7187 0.91079-0.9865 2.5202-1.6327 3.6562-2.625-1.1103-0.086-1.7702-0.7502-0.71875-1.1563 1.9352 1.8813 0.47748-0.8736-0.59375-1.3125 1.0365-0.3128 2.0501-0.095 1.9062-0.9062 0.89001-0.6178-0.3693-0.8848-1.2812-0.875zm-17.531 0.9375c-0.80727 1.2009 0.1096 2.1522 0.78125 0.6875 0.47542-0.6117-0.34569-0.6651-0.78125-0.6875zm-1.1562 0.2812c-1.047 0.3311-1.0061 1.6686 0.28125 1.8125 0.44097-0.4768 0.19059-1.7222-0.28125-1.8125zm3.1875 0c-1.5598 0.6859-0.38236 2.2693-0.34375 2.625 1.6432 0.5393 2.5346-0.3368 3.1562 1.1875 1.4811 0.8098 0.1456 2.1847-0.5 2.6563 1.0798-0.6052 2.9535 2.3811 2.4375 0.7187-0.63552-0.4402 1.715 0.712 0.5-0.7187-1.1181-1.7091 0.0911-0.7739 0.5625-0.375 1.6033-1.364-1.8218-1.5339-0.96875-2.9375-0.74753-0.5744-1.7075-2.3089-3.0312-1.9688-0.88614 1.0872-0.13738-2.3545-1.4375-0.625-0.06739 0.9668-0.02737 2.1749-0.40625 0.5-0.25384-0.2932 0.45236-0.9563 0.03125-1.0625zm-5.4062 0.5c-0.31718 0.178 0.15254 1.9742-0.53125 0.2813-0.22721 0.4787-0.8368 0.2621-1.1562-0.062-0.31512 0.3183-0.60483 0.6415-0.875 1 0.08976 0.1452 0.20752 0.2698 0.3125 0.3437-1.6834 0.4 2.5542 0.5279 0.4375 0.7813-1.761 0.6672 1.7141 1.4473 2.2812 0.6562 2.1747 0.5046 0.065896-1.6438-0.125-2.8125-0.11523-0.1173-0.21558-0.1785-0.28125-0.1875-0.028731 0-0.041355-0.012-0.0625 0zm40.812 0.5c-0.36801 0.7283 0.78432 1.7994 1 1.2813-0.30176-0.464-0.6275-0.8752-1-1.2813zm-37.562 0.5938c-1.3113 1.1691 1.6372 2.129-0.40625 3-0.3064-1.0858-0.83093 0.5643-2-0.3125-1.8599 0.7346-3.9062-1-5.4062-1.5v4.4062 5.7188c0.99089 0.989 0.3866 0.429 0 0.1562 0.54388 1.7573-0.23756 4.3216 1.9062 5.3438 0.36444 0.6413 1.8982 3.3799 1.9688 2.5625-0.76666-0.7617-1.5473-3.0352-0.25-1 1.162 1.9346 2.7103 3.1646 5 3.625 1.2519 0.4039 2.2741 1.8055 3.375 1.5 0.62252 1.5568-1.8339 3.0479 0.09375 4.5 1.0063 1.47 2.696 2.4361 1.7812 4.5-0.63968 2.0156-0.353 4.2157-0.90625 6.0937-0.17171 1.1431 1.6604 4.0421 1.5 1.7188 0.5405-1.6146 0.53954-3.3879 1.8125-4.5313 1.7418 0.013 0.33357-1.7651 2.0625-1.5312 1.055-1.3119 1.3446-2.8854 3.125-3.4063 0.21267-1.5924 2.9635-4.0362 0.125-4.6562-0.77146-0.3608-2.7455-0.4783-2.5938-0.6563 0.30755-1.5801-2.5575-2.041-3.7812-2.6875-1.6067-1.0819-4.0277 1.7934-4.5938-0.6875-0.33776-0.7806-1.5676-0.7955-1-2-1.0228 0.9651-3.0238 0.6763-2.5-1.1875 0.79544-1.5697 3.8232-1.638 4.3438 0.25-0.72272-2.0823 1.417-3.7061 2.5938-5.1875 0.2396-0.7081 1.6462-1.3161 1.1562-0.375 0.83465-0.029 2.1077-1.472 0.625-0.8125-0.02098-1.3031-1.3043-0.935-1.7188-0.75 0.76812-1.1566 4.7144-0.5157 3.0625-2.4062-1.28-0.4921-1.174-3.3497-2.4688-1.75 0.10895-0.9856-2.6224-2.934-2.5625-1.2813 0.33496 1.4789 0.05659 3.1869-0.65625 4.1563-0.14876-2.1671-4.0321-1.6908-3.5312-4 0.72564-1.1006 1.5755-2.6057 1.6562-2.4688 1.3005-0.471 2.3197-1.8493 0.8125-2.75-0.08055 0.7851-1.117 2.3965-0.96875 0.4375-0.97506 1.0968-0.74307-1.7365-1.6562-2.0312zm31.219 0.7187c-0.04283 0-0.07673 0.01-0.09375 0.031-2.2841 0.53-3.2138 2.5982-4.3438 4.3125-1.6656 0.7124-1.5796 3.7896 0.28125 2.8125 0.49804 0.8252-0.35691 2.1102 1.0938 1.0312 1.1701-1.469 0.19628-3.8237 2.1875-4.75 0.14504 0.7203-1.8465 3.4108 0.46875 2.9688 2.093 0.075-1.518 0.2003-0.5 1.4687-1.0576-0.5953-0.49446 1.6107-1.875 1.0938-1.196 0.6171-1.9927-0.2913-1.7188-1.2813-0.94086 0.5207 0.28952 2.0055-1.3438 2.0938-0.36586 1.2325-3.3672 1.0262-1.6562 2.2812 0.75962 1.8677-2.8317 0.1337-1.8125 2.375 0.59778 1.5194 1.631 0.5928 2.4688-0.3125l1.0625 1.0625c-1.3158 0.1049-2.6745 0.3362-3.5 1.2813-1.1713 1.5245-2.8703 3.6471-1.5938 5.5937 1.2775 2.8847 4.4602 0.1401 6.2812 1.8438 0.54128 0.7103-0.46029 1.5743 0.75 2.3437 0.45542 1.639-0.52476 3.1832 0.59375 4.75 0.57838 1.4735 0.94105 3.6902 3.0938 2.3438 2.2783-1.3008 1.6513-3.7032 3.5312-5.0313-0.68833-1.2638-0.30466-2.1993 0.34375-3.0625l0.34375-0.4997c0.7141-0.8192 1.5964-1.5933 1.9688-2.5937-1.8029 0.2504-3.4082-1.4399-3.8438-3.1563-0.75736-0.8337-0.56475-2.0661 0.28125-0.5 1.1628 1.069 1.1927 4.2255 3.3438 2.5938 0.98338-0.3903 3.6711-1.8539 1.5312-2.5313-1.3793 0.9478-2.9005-2.8486-0.875-0.6562 1.4725 0.5926 2.5 0.9649 2.5-1v-9.125-2.3438-4.4687c-0.49755 0.2835-1.8596 0.9857-2.2188 0.6562-1.0234 0.1352-2.3841 2.0137-2.0625 0.1875-0.88957-0.056-0.15285 1.6402-1.375 1.6875-0.12306 0.8705-1.23 0.1733-0.8125 1-0.8578-0.5772-1.5964-2.4252 0.09375-1.2812 2.51-0.7144-1.6472-2.298-1.9688-2.6875 0.47288-0.1075-0.32519-0.5472-0.625-0.5313zm-20.812 0.5313c-0.83542 0.6603 1.5883 0.7847 0 0zm-11.156 0.3437c-0.9344 0.9273 1.4881 0.8524 0 0zm5.4062 0.9063c-0.70758 1.0996 1.0455 0.4059 0 0zm15.5 1.3125c-0.8284 0.9047-1.9197-0.2465-1.9375 0.5312 0.15014 0.235 0.74505 1.9252 2.0625 0.6875 0.70708-0.2828 0.433-1.0005-0.125-1.2187zm-17.656 0.5312c-1.5713 1.3018 2.6794 1.4287 0.34375 0.1563zm20.719 3.625c-1.0902 0.7051 0.56387 2.1811 0 2.875-0.70886 1.1717 2.6293-0.096 0.84375-1.0312-0.12238-0.7726-0.9764-1.699-0.84375-1.8438zm-0.75 1.4063c-1.5762 0.4227-0.37075 2.5869 0.1875 0.5312 0.03138-0.1192 0.08689-0.5352-0.1875-0.5312zm-12.625 1.5625c-1.4663 0.9485-0.23088 1.8955 0.84375 1.4687-0.22062-0.5723-0.83381-0.9331-0.84375-1.4687zm27.719 1.5937c0.73164 0.3503-1.3435 0.9772-0.03125 1.5938 0.76367 0.8519 0.46002 2.6694-0.78125 1.375 0.23061-1.4452-1.6641-2.5416 0.8125-2.9688zm-3.7812 0.031c-0.09927 0.9284 2.1018 2.3772-0.28125 1.9062-1.2603 0.1403-3.1189-0.041-1.5312-1.5312 0.50168-0.2858 1.8104 0.9697 1.125-0.2188 0.24301-0.015 0.45858-0.086 0.6875-0.1562zm-6.2188 0.6875c0.3053-0.2349 1.9922 1.4052 1.875 2.0312 0.91799 1.6308 0.53459-1.68 1.4688-0.2187-0.10907 1.5413 3.7525 0.3793 1.9062 2.3437-1.5873 0.3033-3.1334-0.3804-4.5 0.062-1.2719-0.011-1.1932-1.3021-1.6562-1.625-0.29624 0.023-0.61978 0.042-0.9375 0.062l-1.2188-1.2187c0.32843-0.361 0.63889-0.6863 0.84375-0.8438 1.2992-0.956 3.1635 1.3102 2.5312 1.8125 1.1136-0.31 0.79257-1.4381-0.28125-1.9062-0.11711-0.2882-0.1017-0.4459-0.03125-0.5zm-1.0625 1.3125c-0.91922 0.5618 0.63563 0.9926 0 0zm-23.062 5.25c-0.15497 0.4904 2.8943 0.9733 0.78125 0.1875l-0.3125-0.094-0.46875-0.094zm2.375 0.6875c-0.92883 0.8945 1.9137 0.2672 0 0zm31.062 8.2187c-2.0182 0.049-1.7506 4.9848-0.34375 2.0625 0.13342-0.6341 0.66887-1.4678 0.34375-2.0625z" fill="#fff"/>
  <g transform="matrix(.35545 0 0 .14361 171.12 1002.5)"></g>
  <g transform="matrix(.32314 0 0 .32314 -55.272 805.26)"></g>
 </g>
 <g>
  <path opacity=".3" style="color:#000000" d="m30.906 6c-1.946 0.0396-3.893 0.9176-5.062 2.5312-1.91 2.2168-0.491 5.6758-2.656 7.7498-1.02 1.162-2.51 1.591-4 1.625-0.249 0.006-0.504-0.017-0.75-0.031-0.247-0.014-0.478-0.033-0.719-0.063-2.721-0.352-5.495 1.288-6.531 3.813-0.131 0.29-0.236 0.573-0.313 0.875-0.077 0.3-0.13 0.6-0.156 0.906-0.026 0.301-0.02 0.606 0 0.906 0.003 0.043-0.004 0.083 0 0.126 0.022 0.256 0.071 0.529 0.125 0.781 0.026 0.124 0.06 0.252 0.094 0.375 0.048 0.174 0.093 0.361 0.156 0.531 0.067 0.18 0.167 0.357 0.25 0.531 0.065 0.137 0.112 0.275 0.187 0.406 0.115 0.202 0.24 0.406 0.375 0.594 0.017 0.023 0.046 0.04 0.063 0.063 0.097 0.131 0.205 0.251 0.312 0.375 0.096 0.11 0.178 0.24 0.281 0.344l0.126 0.093c0.021 0.021 0.04 0.043 0.062 0.063l19.406 19.406h13.844c1.108 0 2-0.892 2-2v-25.688l-12.406-12.406c0.13 0.1303 0.228 0.2653 0.344 0.4065-0.25-0.3036-0.528-0.5961-0.844-0.8437-1.167-1.0283-2.674-1.4996-4.188-1.4688z" fill-rule="evenodd"/>
  <g transform="matrix(1.1 0 0 .44444 241.16 29.369)"></g>
  <g transform="translate(-459.44 -580.99)"></g>
 </g>
 <g>
  <path style="color:#000000" d="m30.844 41.998c-3.1927 0-6.1519-2.7032-6.1914-5.9483-0.05176-1.8554-0.5487-3.8861-2.1956-4.9671-2.4383-1.9671-5.7747-0.01-8.3621-1.5548-2.8012-1.3956-4.2097-5.0313-2.9111-7.9157 1.0368-2.5254 3.8054-4.1585 6.5262-3.806 1.9282 0.2363 4.1099 0.018 5.4686-1.5309 2.1654-2.0742 0.75365-5.5279 2.6634-7.7445 2.079-2.8688 6.5837-3.407 9.2516-1.0568 2.7213 2.1278 2.974 6.5735 0.49628 8.9849-1.469 1.6317-3.7581 2.1622-5.8762 1.8786-2.1496-0.3207-4.5053 0.5499-5.5833 2.5084-1.0169 2.1186-1.0083 4.8761 0.36093 6.8394 1.189 1.6134 3.2886 2.2285 5.2224 1.9642 2.1182-0.2836 4.4072 0.2469 5.8762 1.8786 2.4116 2.3531 2.2496 6.6524-0.31712 8.8291-1.194 1.0899-2.8171 1.6786-4.4288 1.6409z" fill-rule="evenodd" fill="#fff"/>
 </g>
 <g>
  <path opacity=".4" style="color:#000000" d="m2 0c-1.108 0-2 0.892-2 2v44c0 1.108 0.892 2 2 2h44c1.108 0 2-0.892 2-2v-44c0-1.108-0.892-2-2-2h-44zm0 0.5h44c0.83101 0 1.5 0.66899 1.5 1.5v44c0 0.83101-0.66899 1.5-1.5 1.5h-44c-0.831 0-1.5-0.669-1.5-1.5v-44c0-0.831 0.669-1.5 1.5-1.5z" fill="url(#linearGradient12443)"/>
 </g>
</svg>
