<svg xmlns:rdf="http://www.w3.org/1999/02/22-rdf-syntax-ns#" xmlns="http://www.w3.org/2000/svg" height="48" width="48" version="1.1" xmlns:cc="http://creativecommons.org/ns#" xmlns:xlink="http://www.w3.org/1999/xlink" xmlns:dc="http://purl.org/dc/elements/1.1/">
 <defs>
  <linearGradient id="linearGradient12443" y2="3" gradientUnits="userSpaceOnUse" y1=".5" x2="27.5" x1="27.5">
   <stop stop-color="#fff" offset="0"/>
   <stop stop-color="#fff" stop-opacity="0" offset="1"/>
  </linearGradient>
  <linearGradient id="linearGradient3922" y2="1052.1" gradientUnits="userSpaceOnUse" x2="23.158" y1="1004.8" x1="23.158">
   <stop stop-color="#143343" offset="0"/>
   <stop stop-color="#0e232e" offset="1"/>
  </linearGradient>
  <linearGradient id="linearGradient3973" y2="40.476" gradientUnits="userSpaceOnUse" y1="46.285" x2="26.528" x1="26.528">
   <stop offset="0"/>
   <stop stop-opacity="0" offset="1"/>
  </linearGradient>
  <filter id="filter4642" height="1.1886" width="1.33" y="-.094286" x="-.165">
   <feGaussianBlur stdDeviation="1.1"/>
  </filter>
  <clipPath id="clipPath4664" clipPathUnits="userSpaceOnUse">
   <path opacity=".35" style="color:#000000" d="m25 9-8 8h-6v6 6l19 19h15.938c1.108 0 2-0.892 2-2v-14.062l-22.938-22.938z"/>
  </clipPath>
 </defs>
 <g transform="translate(0 -1004.4)">
  <path style="color:#000000" d="m2 1004.4h44c1.108 0 2 0.892 2 2v44c0 1.108-0.892 2-2 2h-44c-1.108 0-2-0.892-2-2v-44c0-1.108 0.892-2 2-2z" fill="url(#linearGradient3922)"/>
  <g transform="matrix(.10754 0 0 .043448 66.659 1029.6)"></g>
  <g transform="matrix(.097760 0 0 .097760 -1.8311 969.96)"></g>
  <g transform="translate(.29911 -1.0502)">
   <path d="m8.7654 1036c-0.66194 0-1.1948 0.5329-1.1948 1.1948v2.3897c0 0.662 0.5329 1.1949 1.1948 1.1949h4.7794c0.66194 0 1.1948-0.5329 1.1948-1.1949v-2.3897c0-0.6619-0.5329-1.1948-1.1948-1.1948h-4.7794z" fill="#f99930"/>
   <path d="m8.7654 1042c-0.66194 0-1.1948 0.5329-1.1948 1.1948v2.3897c0 0.662 0.5329 1.1949 1.1948 1.1949h4.7794c0.66194 0 1.1948-0.5329 1.1948-1.1949v-2.3897c0-0.6619-0.5329-1.1948-1.1948-1.1948h-4.7794z" fill="#ca0a0a"/>
   <path d="m17.129 1012.1c-0.66194 0-1.1948 0.5329-1.1948 1.1948v2.3897c0 0.662 0.5329 1.1948 1.1948 1.1948h4.7794c0.66194 0 1.1948-0.5328 1.1948-1.1948v-2.3897c0-0.6619-0.5329-1.1948-1.1948-1.1948h-4.7794z" fill="#c83771"/>
   <path d="m17.129 1018.1c-0.66194 0-1.1948 0.5329-1.1948 1.1948v2.3897c0 0.662 0.5329 1.1949 1.1948 1.1949h4.7794c0.66194 0 1.1948-0.5329 1.1948-1.1949v-2.3897c0-0.6619-0.5329-1.1948-1.1948-1.1948h-4.7794z" fill="#8e65cd"/>
   <path d="m17.129 1024c-0.66194 0-1.1948 0.5329-1.1948 1.1948v2.3897c0 0.662 0.5329 1.1949 1.1948 1.1949h4.7794c0.66194 0 1.1948-0.5329 1.1948-1.1949v-2.3897c0-0.6619-0.5329-1.1948-1.1948-1.1948h-4.7794z" fill="#3ea6c1"/>
   <path d="m17.129 1030c-0.66194 0-1.1948 0.5329-1.1948 1.1948v2.3897c0 0.662 0.5329 1.1949 1.1948 1.1949h4.7794c0.66194 0 1.1948-0.5329 1.1948-1.1949v-2.3897c0-0.6619-0.5329-1.1948-1.1948-1.1948h-4.7794z" fill="#a6ce06"/>
   <path d="m17.129 1036c-0.66194 0-1.1948 0.5329-1.1948 1.1948v2.3897c0 0.662 0.5329 1.1949 1.1948 1.1949h4.7794c0.66194 0 1.1948-0.5329 1.1948-1.1949v-2.3897c0-0.6619-0.5329-1.1948-1.1948-1.1948h-4.7794z" fill="#f99930"/>
   <path d="m17.129 1042c-0.66194 0-1.1948 0.5329-1.1948 1.1948v2.3897c0 0.662 0.5329 1.1949 1.1948 1.1949h4.7794c0.66194 0 1.1948-0.5329 1.1948-1.1949v-2.3897c0-0.6619-0.5329-1.1948-1.1948-1.1948h-4.7794z" fill="#ca0a0a"/>
   <path d="m25.493 1030c-0.66194 0-1.1948 0.5329-1.1948 1.1948v2.3897c0 0.662 0.5329 1.1949 1.1948 1.1949h4.7794c0.66194 0 1.1948-0.5329 1.1948-1.1949v-2.3897c0-0.6619-0.5329-1.1948-1.1948-1.1948h-4.7794z" fill="#a6ce06"/>
   <path d="m25.493 1036c-0.66194 0-1.1948 0.5329-1.1948 1.1948v2.3897c0 0.662 0.5329 1.1949 1.1948 1.1949h4.7794c0.66194 0 1.1948-0.5329 1.1948-1.1949v-2.3897c0-0.6619-0.5329-1.1948-1.1948-1.1948h-4.7794z" fill="#f99930"/>
   <path d="m25.493 1042c-0.66194 0-1.1948 0.5329-1.1948 1.1948v2.3897c0 0.662 0.5329 1.1949 1.1948 1.1949h4.7794c0.66194 0 1.1948-0.5329 1.1948-1.1949v-2.3897c0-0.6619-0.5329-1.1948-1.1948-1.1948h-4.7794z" fill="#ca0a0a"/>
   <path d="m33.857 1024c-0.66194 0-1.1948 0.5329-1.1948 1.1948v2.3897c0 0.662 0.5329 1.1949 1.1948 1.1949h4.7794c0.66194 0 1.1948-0.5329 1.1948-1.1949v-2.3897c0-0.6619-0.5329-1.1948-1.1948-1.1948h-4.7794z" fill="#3ea6c1"/>
   <path d="m33.857 1030c-0.66194 0-1.1948 0.5329-1.1948 1.1948v2.3897c0 0.662 0.5329 1.1949 1.1948 1.1949h4.7794c0.66194 0 1.1948-0.5329 1.1948-1.1949v-2.3897c0-0.6619-0.5329-1.1948-1.1948-1.1948h-4.7794z" fill="#a6ce06"/>
   <path d="m33.857 1036c-0.66194 0-1.1948 0.5329-1.1948 1.1948v2.3897c0 0.662 0.5329 1.1949 1.1948 1.1949h4.7794c0.66194 0 1.1948-0.5329 1.1948-1.1949v-2.3897c0-0.6619-0.5329-1.1948-1.1948-1.1948h-4.7794z" fill="#f99930"/>
   <path d="m33.857 1042c-0.66194 0-1.1948 0.5329-1.1948 1.1948v2.3897c0 0.662 0.5329 1.1949 1.1948 1.1949h4.7794c0.66194 0 1.1948-0.5329 1.1948-1.1949v-2.3897c0-0.6619-0.5329-1.1948-1.1948-1.1948h-4.7794z" fill="#ca0a0a"/>
  </g>
 </g>
 <g>
  <flowRoot style="word-spacing:0px;letter-spacing:0px" line-height="125%" xml:space="preserve" font-size="40px" transform="translate(-18.262 -1007.9)" font-family="sans-serif" fill="#000000"><flowRegion><rect y="6.6343" width="57.629" x="-53.033" height="49.321"/></flowRegion><flowPara/></flowRoot>
  <path opacity=".35" style="color:#000000" d="m25 9-8 8h-6v6 6l19 19h15.938c1.108 0 2-0.892 2-2v-14.062l-22.938-22.938z"/>
  <path opacity=".6" filter="url(#filter4642)" style="color:#000000" d="m25 9-8 8h-6v6 6h6l8 8v-11.188c1.158-0.415 2-1.511 2-2.812s-0.842-2.397-2-2.812v-11.188z" clip-path="url(#clipPath4664)"/>
 </g>
 <g>
  <path style="color:#000000" d="m25 9-8 8h-6v6 6h6l8 8v-11.188c1.158-0.415 2-1.511 2-2.812s-0.842-2.397-2-2.812v-11.188z" fill="#fff"/>
  <path style="color:#000000" d="m25.321 20.712a2.6416 2.6416 0 0 1 0 4.5754" transform="matrix(2.6499 0 0 2.6499 -39.598 -37.948)" stroke="#fff" stroke-width=".75474" fill="none"/>
  <path style="color:#000000" d="m25.293 20.76a2.587 2.587 0 0 1 0 4.4807" transform="matrix(4.6387 0 0 4.6387 -87.328 -83.689)" stroke="#fff" stroke-width=".43116" fill="none"/>
  <path style="color:#000000" d="m25.832 19.826a3.6649 3.6649 0 0 1 0 6.3477" transform="matrix(4.6387 0 0 4.6387 -87.328 -83.689)" stroke="#fff" stroke-width=".43116" fill="none"/>
 </g>
 <g>
  <path opacity=".4" style="color:#000000" d="m2 0c-1.108 0-2 0.892-2 2v44c0 1.108 0.892 2 2 2h44c1.108 0 2-0.892 2-2v-44c0-1.108-0.892-2-2-2h-44zm0 0.5h44c0.83101 0 1.5 0.66899 1.5 1.5v44c0 0.83101-0.66899 1.5-1.5 1.5h-44c-0.831 0-1.5-0.669-1.5-1.5v-44c0-0.831 0.669-1.5 1.5-1.5z" fill="url(#linearGradient12443)"/>
  <path opacity=".4" style="color:#000000" d="m2 0c-1.108 0-2 0.892-2 2v44c0 1.108 0.892 2 2 2h44c1.108 0 2-0.892 2-2v-44c0-1.108-0.892-2-2-2h-44zm0 0.5h44c0.83101 0 1.5 0.66899 1.5 1.5v44c0 0.83101-0.66899 1.5-1.5 1.5h-44c-0.831 0-1.5-0.669-1.5-1.5v-44c0-0.831 0.669-1.5 1.5-1.5z" fill="url(#linearGradient3973)"/>
 </g>
</svg>
