<svg xmlns:rdf="http://www.w3.org/1999/02/22-rdf-syntax-ns#" xmlns="http://www.w3.org/2000/svg" height="48" width="48" version="1.1" xmlns:cc="http://creativecommons.org/ns#" xmlns:xlink="http://www.w3.org/1999/xlink" xmlns:dc="http://purl.org/dc/elements/1.1/">
 <defs>
  <linearGradient id="linearGradient12443" y2="3" gradientUnits="userSpaceOnUse" y1=".5" x2="27.5" x1="27.5">
   <stop stop-color="#fff" offset="0"/>
   <stop stop-color="#fff" stop-opacity="0" offset="1"/>
  </linearGradient>
 </defs>
 <g transform="translate(0 -1004.4)">
  <rect style="color:#000000" ry="2" height="48" width="48" y="1004.4" x="0" fill="#9ade00"/>
 </g>
 <g>
  <path opacity=".25" style="block-progression:tb;color:#000000;text-transform:none;text-indent:0" d="m7.125 9.875c-0.1938 0.0242-0.384 0.0771-0.5625 0.156-0.5273 0.222-0.9422 0.679-1.125 1.219-0.0029 0.008 0.0028 0.023 0 0.031-0.102 0.316-0.1289 0.674-0.0625 1 0.0319 0.157 0.084 0.297 0.1562 0.438 0.0213 0.043 0.0382 0.083 0.0626 0.125 0.0703 0.116 0.1577 0.212 0.25 0.312 0.0291 0.033 0.0626 0.063 0.0937 0.094 0.051 0.05 0.1009 0.111 0.1563 0.156l3.8124 3.813c-0.1459-0.012-0.2911-0.022-0.4374-0.031-0.0104-0.001-0.0209 0-0.0313 0-0.6903-0.044-1.3962-0.063-2.0937-0.063-0.2345-0.005-0.4699 0.038-0.6876 0.125-0.1884 0.075-0.3521 0.175-0.5 0.312-0.0738 0.069-0.1572 0.139-0.2187 0.219-0.0671 0.085-0.1047 0.186-0.1563 0.281-0.0479 0.089-0.092 0.155-0.125 0.25-0.0377 0.104-0.0442 0.204-0.0624 0.313s-0.0346 0.202-0.0313 0.313c0.0011 0.1 0.011 0.181 0.0313 0.281 0.081 0.398 0.3084 0.747 0.625 1l4.3752 4.375c-0.537-0.069-1.0816-0.122-1.6252-0.156-0.538-0.035-1.0816-0.063-1.625-0.063-0.0521-0.003-0.1043-0.003-0.1563 0-0.151 0.019-0.2991 0.061-0.4375 0.125-0.6246 0.273-1.0128 1.02-0.875 1.688 0.029 0.14 0.0867 0.25 0.1562 0.374 0.0584 0.106 0.1369 0.192 0.2188 0.282 0.0157 0.017 0.0148 0.046 0.0312 0.062 0.0415 0.042 0.0794 0.088 0.125 0.125l20.969 20.969h18.625c1.108 0 2-0.892 2-2v-12l-11.969-11.969-0.406-0.406c-0.256-0.256-0.519-0.502-0.781-0.75-0.214-0.202-0.407-0.428-0.625-0.625-0.176-0.159-0.353-0.313-0.531-0.469-0.028-0.024-0.066-0.038-0.094-0.062-0.56-0.487-1.135-0.952-1.719-1.407-0.075-0.058-0.143-0.129-0.219-0.187-0.155-0.119-0.312-0.227-0.468-0.344-0.633-0.469-1.28-0.912-1.938-1.343-0.616-0.404-1.238-0.788-1.875-1.157-0.012-0.007-0.019-0.024-0.031-0.031-0.36-0.208-0.728-0.397-1.094-0.594-0.395-0.212-0.785-0.426-1.188-0.625-0.569-0.282-1.135-0.557-1.718-0.812-0.21-0.092-0.414-0.193-0.625-0.281-0.596-0.249-1.205-0.468-1.813-0.688-0.208-0.075-0.415-0.147-0.625-0.219-0.083-0.028-0.166-0.065-0.25-0.093-0.612-0.206-1.22-0.387-1.843-0.563-0.138-0.039-0.269-0.088-0.407-0.125-0.198-0.054-0.394-0.105-0.593-0.156-1.482-0.377-3.003-0.67-4.532-0.875-0.102-0.014-0.209-0.019-0.312-0.031-0.672-0.085-1.353-0.137-2.032-0.188-0.103-0.0078-0.208-0.0243-0.312-0.0312-0.2184-0.0147-0.4373-0.0203-0.6562-0.0313-0.6663-0.0335-1.3286-0.0625-2-0.0625-0.0729-0.004-0.146-0.004-0.2188 0z"/>
 </g>
 <g>
  <g transform="matrix(.96593 -.25882 .25882 .96593 -7.1965 7.1951)">
   <path style="block-progression:tb;text-indent:0;color:#000000;text-transform:none" d="m12.556 6.2932a2.0002 2.0002 0 0 0 -0.2411 3.9233c12.426 3.3296 22.139 13.042 25.468 25.468a2.0002 2.0002 0 1 0 3.8575 -1.0301c-3.697-13.8-14.494-24.597-28.295-28.295a2.0002 2.0002 0 0 0 -0.78904 -0.065753z" fill="#006b00"/>
   <path style="block-progression:tb;text-indent:0;color:#000000;text-transform:none" d="m10.781 13.307a1.7502 1.7502 0 0 0 -0.21918 3.4411c10.097 2.7054 17.985 10.594 20.69 20.69a1.7502 1.7502 0 1 0 3.3753 -0.92055c-3.027-11.298-11.846-20.117-23.145-23.144a1.7502 1.7502 0 0 0 -0.70137 -0.06575z" fill="#008400"/>
   <path style="block-progression:tb;text-indent:0;color:#000000;text-transform:none" d="m9.0055 20.321a1.5002 1.5002 0 0 0 -0.1754 2.937c7.7669 2.081 13.831 8.145 15.912 15.912a1.5002 1.5002 0 1 0 2.894 -0.767c-2.358-8.798-9.241-15.681-18.039-18.039a1.5002 1.5002 0 0 0 -0.59178 -0.04384z" fill="#009100"/>
  </g>
 </g>
 <path opacity=".4" style="color:#000000" d="m2 0c-1.108 0-2 0.892-2 2v44c0 1.108 0.892 2 2 2h44c1.108 0 2-0.892 2-2v-44c0-1.108-0.892-2-2-2h-44zm0 0.5h44c0.83101 0 1.5 0.66899 1.5 1.5v44c0 0.83101-0.66899 1.5-1.5 1.5h-44c-0.831 0-1.5-0.669-1.5-1.5v-44c0-0.831 0.669-1.5 1.5-1.5z" fill="url(#linearGradient12443)"/>
</svg>
