<svg xmlns:rdf="http://www.w3.org/1999/02/22-rdf-syntax-ns#" xmlns="http://www.w3.org/2000/svg" height="48" width="48" version="1.1" xmlns:cc="http://creativecommons.org/ns#" xmlns:xlink="http://www.w3.org/1999/xlink" xmlns:dc="http://purl.org/dc/elements/1.1/">
 <defs>
  <linearGradient id="linearGradient12443" y2="3" gradientUnits="userSpaceOnUse" x2="27.5" y1=".5" x1="27.5">
   <stop stop-color="#fff" offset="0"/>
   <stop stop-color="#fff" stop-opacity="0" offset="1"/>
  </linearGradient>
 </defs>
 <g transform="translate(0 -1004.4)">
  <rect style="color:#000000" ry="2" height="48" width="48" y="1004.4" x="0" fill="#9ade00"/>
 </g>
 <g>
  <path opacity=".25" style="color:#000000" d="m3 27c-1.0249 0-2.0219 0.117-3 0.281v18.719c0 0.138 0.0046953 0.276 0.03125 0.406 0.001759 0.011-0.001887 0.02 0 0.032 0.19695 0.898 1.0096 1.562 1.9688 1.562h27.156l-13.437-15.719c-3.258-3.257-7.7484-5.281-12.719-5.281z"/>
 </g>
 <g>
  <path style="color:#000000" d="m3 27c-1.0249 0-2.0219 0.117-3 0.281v18.719c0 1.108 0.892 2 2 2h18.719c0.164-0.978 0.281-1.975 0.281-3 0-9.941-8.059-18-18-18z" fill="#9ade00"/>
  <path style="block-progression:tb;text-indent:0;color:#000000;text-transform:none" d="m12.556 6.2932a2.0002 2.0002 0 0 0 -0.2411 3.9233c12.426 3.3296 22.139 13.042 25.468 25.468a2.0002 2.0002 0 1 0 3.8575 -1.0301c-3.697-13.8-14.494-24.597-28.295-28.295a2.0002 2.0002 0 0 0 -0.78904 -0.065753z" fill="#006b00"/>
  <path style="block-progression:tb;text-indent:0;color:#000000;text-transform:none" d="m10.781 13.307a1.7502 1.7502 0 0 0 -0.21918 3.4411c10.097 2.7054 17.985 10.594 20.69 20.69a1.7502 1.7502 0 1 0 3.3753 -0.92055c-3.027-11.298-11.846-20.117-23.145-23.144a1.7502 1.7502 0 0 0 -0.70137 -0.06575z" fill="#008400"/>
  <path style="block-progression:tb;text-indent:0;color:#000000;text-transform:none" d="m9.0055 20.321a1.5002 1.5002 0 0 0 -0.1754 2.937c7.7669 2.081 13.831 8.145 15.912 15.912a1.5002 1.5002 0 1 0 2.894 -0.767c-2.358-8.798-9.241-15.681-18.039-18.039a1.5002 1.5002 0 0 0 -0.59178 -0.04384z" fill="#009100"/>
  <path style="block-progression:tb;text-indent:0;color:#000000;text-transform:none" d="m3.5 27c-1.1947 0-2.3716 0.114-3.5 0.344v4c1.1162-0.294 2.289-0.469 3.5-0.469 7.5402 0 13.625 6.0848 13.625 13.625 0 1.211-0.17461 2.3838-0.46875 3.5h4c0.23-1.128 0.344-2.305 0.344-3.5 0-9.642-7.858-17.5-17.5-17.5z" fill="#009100"/>
 </g>
 <path opacity=".4" style="color:#000000" d="m2 0c-1.108 0-2 0.892-2 2v44c0 1.108 0.892 2 2 2h44c1.108 0 2-0.892 2-2v-44c0-1.108-0.892-2-2-2h-44zm0 0.5h44c0.83101 0 1.5 0.66899 1.5 1.5v44c0 0.83101-0.66899 1.5-1.5 1.5h-44c-0.831 0-1.5-0.669-1.5-1.5v-44c0-0.831 0.669-1.5 1.5-1.5z" fill="url(#linearGradient12443)"/>
</svg>
