<svg xmlns:rdf="http://www.w3.org/1999/02/22-rdf-syntax-ns#" xmlns="http://www.w3.org/2000/svg" height="48" width="48" version="1.1" xmlns:cc="http://creativecommons.org/ns#" xmlns:xlink="http://www.w3.org/1999/xlink" xmlns:dc="http://purl.org/dc/elements/1.1/">
 <defs>
  <linearGradient id="linearGradient12443" y2="3" gradientUnits="userSpaceOnUse" x2="27.5" y1=".5" x1="27.5">
   <stop stop-color="#fff" offset="0"/>
   <stop stop-color="#fff" stop-opacity="0" offset="1"/>
  </linearGradient>
 </defs>
 <g transform="translate(0 -1004.4)">
  <rect style="color:#000000" ry="2" height="48" width="48" y="1004.4" x="0" fill="#0084c8"/>
 </g>
 <g>
  <flowRoot style="word-spacing:0px;letter-spacing:0px" xml:space="preserve" transform="translate(-18.262 -1007.9)" line-height="125%" font-size="40px" font-family="sans-serif" fill="#000000"><flowRegion><rect y="6.6343" x="-53.033" width="57.629" height="49.321"/></flowRegion><flowPara/></flowRoot>
  <path opacity=".25" style="color:#000000" d="m23.75 8c-0.423 0-0.835 0.0307-1.25 0.0625-7.972 0.6102-14.327 6.9655-14.938 14.938-0.0313 0.415-0.062 0.827-0.062 1.25s0.0307 0.835 0.0625 1.25c0.3051 3.986 2.0571 7.557 4.7185 10.219l12.281 12.281h21.438c1.108 0 2-0.892 2-2v-20.438l-12.781-12.781c-2.662-2.661-6.233-4.4134-10.219-4.7185-0.415-0.0318-0.827-0.0625-1.25-0.0625z"/>
 </g>
 <g>
  <path style="color:#000000" d="m7.5 24.25c0 8.975 7.275 16.25 16.25 16.25v-5c-6.213 0-11.25-5.037-11.25-11.25h-5z" fill="#9ade00"/>
  <path style="color:#000000" d="m23.75 8c-0.423 0-0.835 0.0307-1.25 0.0625-7.972 0.6102-14.327 6.9655-14.938 14.938-0.0313 0.415-0.062 0.827-0.062 1.25 0 0.42317 0.030733 0.83497 0.0625 1.25 0.61017 7.9719 6.9656 14.327 14.938 14.938 0.41503 0.03177 0.82683 0.0625 1.25 0.0625s0.83497-0.03073 1.25-0.0625c7.972-0.611 14.327-6.966 14.938-14.938 0.031-0.415 0.062-0.827 0.062-1.25s-0.031-0.835-0.062-1.25c-0.611-7.972-6.966-14.327-14.938-14.938-0.415-0.0313-0.827-0.062-1.25-0.062zm-1.5 1.5625c0.08241-0.00839 0.1672 0.00702 0.25 0v2c-6.058 0.584-10.854 5.38-11.438 11.438h-2c0.5986-7.05 6.172-12.723 13.188-13.438zm2.75 0c7.133 0.6055 12.832 6.3045 13.438 13.438h-2c-0.584-6.058-5.38-10.854-11.438-11.438v-2zm-1.25 3.4375c0.38832 0 0.77806 0.02409 1.1562 0.0625 0.03068 0.0031 0.06322-0.0034 0.09375 0 5.2202 0.57372 9.3638 4.7173 9.9375 9.9375 0.044 0.408 0.062 0.83 0.062 1.25s-0.018 0.842-0.062 1.25c-0.574 5.22-4.718 9.364-9.938 9.938-0.408 0.044-0.83 0.062-1.25 0.062s-0.842-0.018-1.25-0.062c-5.22-0.574-9.364-4.718-9.938-9.938-0.044-0.408-0.062-0.83-0.062-1.25 0-0.38865 0.02472-0.77684 0.0625-1.1562 0.0031-0.03092-0.0034-0.06291 0-0.09375 0.574-5.22 4.718-9.364 9.938-9.938 0.408-0.044 0.83-0.062 1.25-0.062zm-14.688 12.5h2c0.58394 6.0578 5.3797 10.854 11.438 11.438v2c-7.133-0.606-12.832-6.305-13.438-13.438zm27.375 0h2c-0.605 7.133-6.304 12.832-13.437 13.438v-2c6.058-0.584 10.854-5.38 11.438-11.438z" fill="#fff"/>
 </g>
 <path opacity=".4" style="color:#000000" d="m2 0c-1.108 0-2 0.892-2 2v44c0 1.108 0.892 2 2 2h44c1.108 0 2-0.892 2-2v-44c0-1.108-0.892-2-2-2h-44zm0 0.5h44c0.83101 0 1.5 0.66899 1.5 1.5v44c0 0.83101-0.66899 1.5-1.5 1.5h-44c-0.831 0-1.5-0.669-1.5-1.5v-44c0-0.831 0.669-1.5 1.5-1.5z" fill="url(#linearGradient12443)"/>
</svg>
