<svg xmlns:rdf="http://www.w3.org/1999/02/22-rdf-syntax-ns#" xmlns="http://www.w3.org/2000/svg" height="48" width="48" version="1.1" xmlns:cc="http://creativecommons.org/ns#" xmlns:xlink="http://www.w3.org/1999/xlink" xmlns:dc="http://purl.org/dc/elements/1.1/">
 <defs>
  <linearGradient id="linearGradient12443" y2="3" gradientUnits="userSpaceOnUse" y1=".5" x2="27.5" x1="27.5">
   <stop stop-color="#fff" offset="0"/>
   <stop stop-color="#fff" stop-opacity="0" offset="1"/>
  </linearGradient>
  <filter id="filter4862" height="1.24" width="1.24" y="-.12" x="-.12">
   <feGaussianBlur stdDeviation="0.52460184"/>
  </filter>
  <clipPath id="clipPath4884" clipPathUnits="userSpaceOnUse">
   <path opacity=".25" style="color:#000000" d="m32.5 15.5-2.844 1.438-5.156 5.124c-0.66367-0.17221-1.3864 0.01137-1.9062 0.53125-0.78105 0.78105-0.78105 2.0315 0 2.8125l22.594 22.594h0.812c1.108 0 2-0.892 2-2v-15l-15.5-15.5z"/>
  </clipPath>
 </defs>
 <g transform="translate(0 -1004.4)">
  <path style="color:#000000" d="m2 1004.4h44c1.108 0 2 0.892 2 2v44c0 1.108-0.892 2-2 2h-44c-1.108 0-2-0.892-2-2v-44c0-1.108 0.892-2 2-2z" fill="#fff"/>
  <path style="color:#000000" d="m39 24c0 8.837-7.163 16-16 16s-16-7.163-16-16 7.163-16 16-16c8.8366 0 16 7.1634 16 16z" transform="matrix(1.2031 0 0 1.2031 -3.9844 999.3)" fill="#fff"/>
  <path style="block-progression:tb;text-indent:0;color:#000000;text-transform:none" d="m23.688 1012.5c-0.20103 0-0.40237 0.029-0.60156 0.037v3.6094c0.19895-0.012 0.40018-0.037 0.60156-0.037s0.40261 0.027 0.60156 0.037v-3.6094c-0.1992-0.012-0.40053-0.037-0.60156-0.037z"/>
  <path style="block-progression:tb;text-indent:0;color:#000000;text-transform:none" d="m16.394 1014.3c-0.34439 0.1822-0.6866 0.395-1.0151 0.6015l1.8047 3.1206c0.3413-0.2195 0.68897-0.4168 1.0527-0.6015l-1.8423-3.1206z"/>
  <path style="block-progression:tb;text-indent:0;color:#000000;text-transform:none" d="m30.981 1014.3-1.8423 3.1206c0.36377 0.1847 0.71143 0.382 1.0527 0.6015l1.8047-3.1206c-0.32854-0.2065-0.67074-0.4193-1.0151-0.6015z"/>
  <path style="block-progression:tb;text-indent:0;color:#000000;text-transform:none" d="m10.453 1019.9c-0.20662 0.3285-0.41931 0.6708-0.60156 1.0151l3.1206 1.8424c0.18473-0.3638 0.3821-0.7115 0.60156-1.0527l-3.1206-1.8048z"/>
  <path style="block-progression:tb;text-indent:0;color:#000000;text-transform:none" d="m36.922 1019.9-3.1206 1.8048c0.21946 0.3412 0.41683 0.6889 0.60156 1.0527l3.1206-1.8424c-0.18226-0.3443-0.39494-0.6866-0.60156-1.0151z"/>
  <path style="block-progression:tb;text-indent:0;color:#000000;text-transform:none" d="m8.0845 1027.6c-0.00743 0.1992-0.037593 0.4005-0.037593 0.6016s0.030079 0.4024 0.037593 0.6016h3.6094c-0.0098-0.199-0.03759-0.4002-0.03759-0.6016s0.02782-0.4026 0.03759-0.6016h-3.6094z"/>
  <path style="block-progression:tb;text-indent:0;color:#000000;text-transform:none" d="m35.681 1027.6c0.0098 0.199 0.03759 0.4002 0.03759 0.6016s-0.02782 0.4026-0.03759 0.6016h3.6094c0.0074-0.1992 0.03759-0.4005 0.03759-0.6016s-0.03008-0.4024-0.03759-0.6016h-3.6094z" fill="#dc0000"/>
  <path style="block-progression:tb;text-indent:0;color:#000000;text-transform:none" d="m12.972 1033.6-3.1206 1.8423c0.18721 0.3537 0.38866 0.7156 0.60156 1.0527l3.1582-1.8047c-0.23038-0.3549-0.4465-0.7109-0.63916-1.0903z"/>
  <path style="block-progression:tb;text-indent:0;color:#000000;text-transform:none" d="m34.403 1033.6c-0.19266 0.3794-0.40878 0.7354-0.63916 1.0903l3.1582 1.8047c0.21291-0.3371 0.41435-0.699 0.60156-1.0527l-3.1206-1.8423z" fill="#dc0000"/>
  <path style="color:#000000" d="m39 24c0 8.837-7.163 16-16 16s-16-7.163-16-16 7.163-16 16-16c8.8366 0 16 7.1634 16 16z" transform="matrix(1.0903 0 0 1.0903 -1.3901 1002)" stroke="#364e59" stroke-width="1.1034" fill="none"/>
  <path d="m20.476 1042c-0.24909 0.1293-0.50875 0.2268-0.77898 0.2926-0.27024 0.066-0.55222 0.099-0.84595 0.099-0.8765 0-1.5709-0.2444-2.0831-0.7332-0.51227-0.4911-0.7684-1.1561-0.7684-1.995-0.000001-0.8412 0.25613-1.5063 0.7684-1.995 0.51227-0.4911 1.2066-0.7367 2.0831-0.7367 0.29373 0 0.57571 0.033 0.84595 0.099 0.27023 0.066 0.52989 0.1633 0.77898 0.2925v1.0892c-0.25144-0.1715-0.49935-0.2973-0.74373-0.3772-0.24439-0.08-0.5017-0.1198-0.77193-0.1198-0.48407 0-0.86475 0.1551-1.142 0.4653-0.27728 0.3102-0.41593 0.7378-0.41592 1.283-0.000002 0.5428 0.13864 0.9693 0.41592 1.2795s0.65796 0.4653 1.142 0.4653c0.27023 0 0.52754-0.04 0.77193-0.1199 0.24438-0.08 0.49229-0.2056 0.74373-0.3771v1.0891" fill="#364e59"/>
  <path d="m22 1037.1h2.2523c0.6697 0 1.1831 0.1492 1.5403 0.4476 0.35952 0.2961 0.53929 0.7191 0.53929 1.2689-0.000005 0.5522-0.17977 0.9776-0.53929 1.276-0.35718 0.2961-0.87062 0.4441-1.5403 0.4441h-0.89529v1.8259h-1.357v-5.2625m1.357 0.9834v1.4698h0.75078c0.26318 0 0.46644-0.063 0.60979-0.1903 0.14334-0.1293 0.21501-0.3114 0.21501-0.5464-0.000004-0.235-0.07167-0.4159-0.21501-0.5428s-0.34661-0.1903-0.60979-0.1903h-0.75078" fill="#364e59"/>
  <path d="m27 1037h1.357v3.1546c-0.000002 0.4348 0.07049 0.7461 0.21149 0.9341 0.14334 0.1856 0.37597 0.2785 0.69791 0.2785 0.32428 0 0.55691-0.093 0.69791-0.2785 0.14334-0.188 0.21501-0.4993 0.21501-0.9341v-3.1546h1.357v3.1546c-0.000005 0.7449-0.18682 1.2995-0.56044 1.6637-0.37363 0.3643-0.94347 0.5464-1.7095 0.5464-0.7637 0-1.3324-0.1821-1.706-0.5464-0.37363-0.3642-0.56044-0.9188-0.56044-1.6637v-3.1546" fill="#364e59"/>
 </g>
 <g>
  <flowRoot style="word-spacing:0px;letter-spacing:0px" line-height="125%" xml:space="preserve" font-size="40px" transform="translate(-18.262 -1007.9)" font-family="sans-serif" fill="#000000"><flowRegion><rect y="6.6343" width="57.629" x="-53.033" height="49.321"/></flowRegion><flowPara/></flowRoot>
  <path opacity=".25" style="color:#000000" d="m33.906 13.594l-3.406 1.718-6.219 6.157c-0.798-0.207-1.656 0.031-2.281 0.656-0.94 0.94-0.94 2.435 0 3.375l22.5 22.5h1.5c1.108 0 2-0.892 2-2v-18.344l-14.094-14.062z"/>
  <path opacity=".6" filter="url(#filter4862)" style="color:#000000" d="m32.5 15.5-2.844 1.438-5.156 5.124c-0.66367-0.17221-1.3864 0.01137-1.9062 0.53125-0.78105 0.78105-0.78105 2.0315 0 2.8125 0.78105 0.78105 2.0315 0.78105 2.8125 0 0.52-0.52 0.704-1.242 0.532-1.906l5.124-5.156 1.438-2.844z" clip-path="url(#clipPath4884)" transform="matrix(1.2031 0 0 1.2031 -5.1875 -5.0625)"/>
 </g>
 <g>
  <g transform="matrix(.85074 .85074 -.85074 .85074 23.688 -17.023)" fill="#364e59">
   <path style="color:#000000" d="m39 24c0 8.837-7.163 16-16 16s-16-7.163-16-16 7.163-16 16-16c8.8366 0 16 7.1634 16 16z" transform="matrix(.125 0 0 .125 21.125 21)"/>
   <path d="m23 24v-9l1-3 1 3v9z"/>
  </g>
 </g>
 <path opacity=".4" style="color:#000000" d="m2 0c-1.108 0-2 0.892-2 2v44c0 1.108 0.892 2 2 2h44c1.108 0 2-0.892 2-2v-44c0-1.108-0.892-2-2-2h-44zm0 0.5h44c0.83101 0 1.5 0.66899 1.5 1.5v44c0 0.83101-0.66899 1.5-1.5 1.5h-44c-0.831 0-1.5-0.669-1.5-1.5v-44c0-0.831 0.669-1.5 1.5-1.5z" fill="url(#linearGradient12443)"/>
</svg>
