<svg xmlns:rdf="http://www.w3.org/1999/02/22-rdf-syntax-ns#" xmlns="http://www.w3.org/2000/svg" height="48" width="48" version="1.1" xmlns:cc="http://creativecommons.org/ns#" xmlns:xlink="http://www.w3.org/1999/xlink" xmlns:dc="http://purl.org/dc/elements/1.1/">
 <defs>
  <linearGradient id="linearGradient12443" y2="3" gradientUnits="userSpaceOnUse" y1=".5" x2="27.5" x1="27.5">
   <stop stop-color="#fff" offset="0"/>
   <stop stop-color="#fff" stop-opacity="0" offset="1"/>
  </linearGradient>
 </defs>
 <g transform="translate(0 -1004.4)">
  <rect style="color:#000000" ry="2" height="48" width="48" y="1004.4" x="0" fill="#0084c8"/>
 </g>
 <g>
  <flowRoot style="word-spacing:0px;letter-spacing:0px" line-height="125%" xml:space="preserve" font-size="40px" transform="translate(-18.262 -1007.9)" font-family="sans-serif" fill="#000000"><flowRegion><rect y="6.6343" width="57.629" x="-53.033" height="49.321"/></flowRegion><flowPara/></flowRoot>
  <path opacity=".2" style="color:#000000" d="m10 9c-0.9455 0-2 1.073-2 2v18c0 0.45721 0.70175 1.6956 1 2l17 17h20c1.108 0 2-0.892 2-2v-28l-8.281-8.25-0.219-0.25c-0.232-0.232-0.506-0.3692-0.844-0.4375-0.122-0.0272-0.244-0.0625-0.375-0.0625z"/>
 </g>
 <g>
  <path style="block-progression:tb;text-indent:0;color:#000000;text-transform:none" d="m26.341 12.802c-0.04153 0-0.07458 0.011-0.11423 0.016-0.23788 0.032-0.45659 0.2042-0.52221 0.4345l-1.7625 5.634h-0.44062-0.17951-0.44062-0.16319-0.91387c-0.25265 0.01-0.4922 0.1816-0.57117 0.4184l-1.3055 4.1853-1.8604-6.5352c-0.13156-0.4203-0.80617-0.5428-1.0771-0.1933l-1.5829 2.1248h-0.48957-6.0643v1.2071h6.0643 0.78332c0.19533-0.01 0.3797-0.098 0.48957-0.2576l1.0607-1.4326 2.0725 7.3562c0.0567 0.1963 0.22543 0.3626 0.4243 0.4186 0.30987 0.091 0.6795-0.1113 0.76699-0.4186l1.7461-5.666h0.45694 0.16319 0.44062 0.17951 0.89755c0.25265-0.01 0.50853-0.1654 0.58749-0.4024l1.2892-4.1691 1.8767 6.5354c0.13156 0.4203 0.80616 0.5427 1.0771 0.1931l1.583-2.157h0.48957 7.8447v-1.2071h-7.8447-0.79964c-0.19533 0.01-0.36338 0.1142-0.47326 0.2737l-1.0771 1.4325-2.0562-7.3402c-0.0567-0.1959-0.22544-0.3624-0.4243-0.4184-0.03875-0.012-0.08902-0.03-0.13056-0.031z" fill="#ccff42"/>
  <path style="color:#000000" d="m10 9c-0.9455 0-2 1.073-2 2v18c0 0.9266 1.0545 2 2 2h11c0 3-3.4744 3.2524-5 4v1h16v-1c-1.5256-0.7476-5-1-5-4h11c0.94549 0 2-1.0734 2-2v-18c0-0.927-1.055-2-2-2zm0 2h28v17h-28z" fill="#fff"/>
 </g>
 <path opacity=".4" style="color:#000000" d="m2 0c-1.108 0-2 0.892-2 2v44c0 1.108 0.892 2 2 2h44c1.108 0 2-0.892 2-2v-44c0-1.108-0.892-2-2-2h-44zm0 0.5h44c0.83101 0 1.5 0.66899 1.5 1.5v44c0 0.83101-0.66899 1.5-1.5 1.5h-44c-0.831 0-1.5-0.669-1.5-1.5v-44c0-0.831 0.669-1.5 1.5-1.5z" fill="url(#linearGradient12443)"/>
</svg>
