<svg xmlns:rdf="http://www.w3.org/1999/02/22-rdf-syntax-ns#" xmlns="http://www.w3.org/2000/svg" height="48" width="48" version="1.1" xmlns:cc="http://creativecommons.org/ns#" xmlns:xlink="http://www.w3.org/1999/xlink" xmlns:dc="http://purl.org/dc/elements/1.1/">
 <defs>
  <filter id="filter4945" height="2.9168" width="1.3557" y="-.95842" x="-.17783">
   <feGaussianBlur stdDeviation="0.7261765"/>
  </filter>
  <filter id="filter4949" height="1.631" width="1.5719" y="-.31549" x="-.28596">
   <feGaussianBlur stdDeviation="1.4619237"/>
  </filter>
  <clipPath id="clipPath5297" clipPathUnits="userSpaceOnUse">
   <path d="m7.0625 8.7812v2.4062l4.7188 4.7188-4.7188 1.625v2.375l28.094 28.094h10.844c1.108 0 2-0.892 2-2v-4.094l-28.656-28.687-12.282-4.4378z" fill="#fff"/>
  </clipPath>
  <clipPath id="clipPath5319" clipPathUnits="userSpaceOnUse">
   <path d="m21.438 23.312v1.8125l22.874 22.876h1.688c1.108 0 2-0.892 2-2v-5.9062l-16.781-16.781h-9.7812z" fill="#fff"/>
  </clipPath>
  <clipPath id="clipPath5297-5" clipPathUnits="userSpaceOnUse">
   <path d="m7.0625 8.7812v2.4062l4.7188 4.7188-4.7188 1.625v2.375l28.094 28.094h10.844c1.108 0 2-0.892 2-2v-4.094l-28.656-28.687-12.282-4.4378z" fill="#fff"/>
  </clipPath>
  <filter id="filter4949-5" width="1.5719" y="-.31549" x="-.28596" height="1.631" color-interpolation-filters="sRGB">
   <feGaussianBlur stdDeviation="1.4619237"/>
  </filter>
  <clipPath id="clipPath5319-61" clipPathUnits="userSpaceOnUse">
   <path d="m21.438 23.312v1.8125l22.874 22.876h1.688c1.108 0 2-0.892 2-2v-5.9062l-16.781-16.781h-9.7812z" fill="#fff"/>
  </clipPath>
  <filter id="filter4945-1" width="1.3557" y="-.95842" x="-.17783" height="2.9168" color-interpolation-filters="sRGB">
   <feGaussianBlur stdDeviation="0.7261765"/>
  </filter>
  <linearGradient id="linearGradient4486" y2="27" gradientUnits="userSpaceOnUse" y1="25" x2="11" x1="11">
   <stop stop-color="#fff" offset="0"/>
   <stop stop-color="#fff" stop-opacity="0" offset="1"/>
  </linearGradient>
  <clipPath id="clipPath5297-7" clipPathUnits="userSpaceOnUse">
   <path d="m7.0625 8.7812v2.4062l4.7188 4.7188-4.7188 1.625v2.375l28.094 28.094h10.844c1.108 0 2-0.892 2-2v-4.094l-28.656-28.687-12.282-4.4378z" fill="#fff"/>
  </clipPath>
  <filter id="filter4949-1" width="1.5719" y="-.31549" x="-.28596" height="1.631" color-interpolation-filters="sRGB">
   <feGaussianBlur stdDeviation="1.4619237"/>
  </filter>
  <clipPath id="clipPath5319-4" clipPathUnits="userSpaceOnUse">
   <path d="m21.438 23.312v1.8125l22.874 22.876h1.688c1.108 0 2-0.892 2-2v-5.9062l-16.781-16.781h-9.7812z" fill="#fff"/>
  </clipPath>
  <filter id="filter4945-8" width="1.3557" y="-.95842" x="-.17783" height="2.9168" color-interpolation-filters="sRGB">
   <feGaussianBlur stdDeviation="0.7261765"/>
  </filter>
  <clipPath id="clipPath5297-2" clipPathUnits="userSpaceOnUse">
   <path d="m7.0625 8.7812v2.4062l4.7188 4.7188-4.7188 1.625v2.375l28.094 28.094h10.844c1.108 0 2-0.892 2-2v-4.094l-28.656-28.687-12.282-4.4378z" fill="#fff"/>
  </clipPath>
  <filter id="filter4949-11" width="1.5719" y="-.31549" x="-.28596" height="1.631" color-interpolation-filters="sRGB">
   <feGaussianBlur stdDeviation="1.4619237"/>
  </filter>
  <clipPath id="clipPath5319-1" clipPathUnits="userSpaceOnUse">
   <path d="m21.438 23.312v1.8125l22.874 22.876h1.688c1.108 0 2-0.892 2-2v-5.9062l-16.781-16.781h-9.7812z" fill="#fff"/>
  </clipPath>
  <filter id="filter4945-7" width="1.3557" y="-.95842" x="-.17783" height="2.9168" color-interpolation-filters="sRGB">
   <feGaussianBlur stdDeviation="0.7261765"/>
  </filter>
  <linearGradient id="linearGradient4671" y2="27" gradientUnits="userSpaceOnUse" x2="11" gradientTransform="translate(0 -25.003)" y1="25" x1="11">
   <stop stop-color="#fff" offset="0"/>
   <stop stop-color="#fff" stop-opacity="0" offset="1"/>
  </linearGradient>
 </defs>
 <g>
  <g transform="translate(0 -.00346)">
   <rect style="color:#000000" transform="translate(0 -1004.4)" rx="2" ry="2" height="23" width="23" y="1029.4" x="0" fill="#0e232e"/>
   <path opacity=".2" d="m3.375 29.219v1.1562l2.2812 2.25-2.2812 0.78125v1.125l13.469 13.469h4.156c0.07414 0 0.14675 0.0078 0.21875 0 1.004-0.109 1.781-0.966 1.781-2v-0.90625-0.875l-8.0312-8.0625h-0.875l-4.8125-4.8125-5.9062-2.125z"/>
   <path d="m7.0768 11.188v-2.3927l12.27 4.4312v2.2587l-12.27 4.4312v-2.3927l9.2357-3.1583-9.2357-3.1775" clip-path="url(#clipPath5297)" transform="matrix(.47917 0 0 .47917 0 25)" filter="url(#filter4949)"/>
   <path d="m31.224 23.304v1.8184h-9.8004v-1.8184h9.8004" clip-path="url(#clipPath5319)" transform="matrix(.47917 0 0 .47917 0 25)" filter="url(#filter4945)"/>
   <g transform="matrix(.47917 0 0 .47917 0 25)" fill="#fff">
    <path d="m7.0768 11.188v-2.3927l12.27 4.4312v2.2587l-12.27 4.4312v-2.3927l9.2357-3.1583-9.2357-3.1775"/>
    <path d="m31.224 23.304v1.8184h-9.8004v-1.8184h9.8004"/>
   </g>
   <path opacity=".5" style="color:#000000" d="m2 25c-1.108 0-2 0.89199-2 2v19c0 1.108 0.892 2 2 2h19c1.108 0 2-0.89199 2-2v-19c0-1.108-0.892-2-2-2h-19zm0.5 0.5h18c1.108 0 2 0.89199 2 2v18c0 1.108-0.892 2-2 2h-18c-1.108 0-2-0.89199-2-2v-18c0-1.108 0.892-2 2-2z" fill="url(#linearGradient4486)"/>
  </g>
  <g transform="translate(25)">
   <rect style="color:#000000" transform="translate(0 -1004.4)" rx="2" ry="2" height="23" width="23" y="1029.4" x="0" fill="#0e232e"/>
   <path opacity=".2" d="m3.375 29.219v1.1562l2.2812 2.25-2.2812 0.78125v1.125l13.469 13.469h4.156c0.07414 0 0.14675 0.0078 0.21875 0 1.004-0.109 1.781-0.966 1.781-2v-0.90625-0.875l-8.0312-8.0625h-0.875l-4.8125-4.8125-5.9062-2.125z"/>
   <path d="m7.0768 11.188v-2.3927l12.27 4.4312v2.2587l-12.27 4.4312v-2.3927l9.2357-3.1583-9.2357-3.1775" clip-path="url(#clipPath5297-5)" transform="matrix(.47917 0 0 .47917 0 25)" filter="url(#filter4949-5)"/>
   <path d="m31.224 23.304v1.8184h-9.8004v-1.8184h9.8004" clip-path="url(#clipPath5319-61)" transform="matrix(.47917 0 0 .47917 0 25)" filter="url(#filter4945-1)"/>
   <g transform="matrix(.47917 0 0 .47917 0 25)" fill="#fff">
    <path d="m7.0768 11.188v-2.3927l12.27 4.4312v2.2587l-12.27 4.4312v-2.3927l9.2357-3.1583-9.2357-3.1775"/>
    <path d="m31.224 23.304v1.8184h-9.8004v-1.8184h9.8004"/>
   </g>
   <path opacity=".5" style="color:#000000" d="m2 25c-1.108 0-2 0.89199-2 2v19c0 1.108 0.892 2 2 2h19c1.108 0 2-0.89199 2-2v-19c0-1.108-0.892-2-2-2h-19zm0.5 0.5h18c1.108 0 2 0.89199 2 2v18c0 1.108-0.892 2-2 2h-18c-1.108 0-2-0.89199-2-2v-18c0-1.108 0.892-2 2-2z" fill="url(#linearGradient4486)"/>
  </g>
  <g transform="translate(25 -25.003)">
   <rect style="color:#000000" transform="translate(0 -1004.4)" rx="2" ry="2" height="23" width="23" y="1029.4" x="0" fill="#0e232e"/>
   <path opacity=".2" d="m3.375 29.219v1.1562l2.2812 2.25-2.2812 0.78125v1.125l13.469 13.469h4.156c0.07414 0 0.14675 0.0078 0.21875 0 1.004-0.109 1.781-0.966 1.781-2v-0.90625-0.875l-8.0312-8.0625h-0.875l-4.8125-4.8125-5.9062-2.125z"/>
   <path d="m7.0768 11.188v-2.3927l12.27 4.4312v2.2587l-12.27 4.4312v-2.3927l9.2357-3.1583-9.2357-3.1775" clip-path="url(#clipPath5297-7)" transform="matrix(.47917 0 0 .47917 0 25)" filter="url(#filter4949-1)"/>
   <path d="m31.224 23.304v1.8184h-9.8004v-1.8184h9.8004" clip-path="url(#clipPath5319-4)" transform="matrix(.47917 0 0 .47917 0 25)" filter="url(#filter4945-8)"/>
   <g transform="matrix(.47917 0 0 .47917 0 25)" fill="#fff">
    <path d="m7.0768 11.188v-2.3927l12.27 4.4312v2.2587l-12.27 4.4312v-2.3927l9.2357-3.1583-9.2357-3.1775"/>
    <path d="m31.224 23.304v1.8184h-9.8004v-1.8184h9.8004"/>
   </g>
   <path opacity=".5" style="color:#000000" d="m2 25c-1.108 0-2 0.89199-2 2v19c0 1.108 0.892 2 2 2h19c1.108 0 2-0.89199 2-2v-19c0-1.108-0.892-2-2-2h-19zm0.5 0.5h18c1.108 0 2 0.89199 2 2v18c0 1.108-0.892 2-2 2h-18c-1.108 0-2-0.89199-2-2v-18c0-1.108 0.892-2 2-2z" fill="url(#linearGradient4486)"/>
  </g>
  <rect style="color:#000000" rx="2" ry="2" height="23" width="23" y="-.0035174" x="0" fill="#b50000"/>
  <path opacity=".2" d="m3.375 4.2153v1.1562l2.2812 2.25-2.2812 0.78125v1.125l13.469 13.469h4.1562c0.07414 0 0.14675 0.0078 0.21875 0 1.0041-0.10856 1.7812-0.96613 1.7812-2v-0.90625-0.875l-8.0312-8.0625h-0.875l-4.8125-4.8125-5.9062-2.125z"/>
  <path d="m7.0768 11.188v-2.3927l12.27 4.4312v2.2587l-12.27 4.4312v-2.3927l9.2357-3.1583-9.2357-3.1775" clip-path="url(#clipPath5297-2)" transform="matrix(.47917 0 0 .47917 0 -.003467)" filter="url(#filter4949-11)"/>
  <path d="m31.224 23.304v1.8184h-9.8004v-1.8184h9.8004" clip-path="url(#clipPath5319-1)" transform="matrix(.47917 0 0 .47917 0 -.003467)" filter="url(#filter4945-7)"/>
  <g transform="matrix(.47917 0 0 .47917 0 -.003467)" fill="#fff">
   <path d="m7.0768 11.188v-2.3927l12.27 4.4312v2.2587l-12.27 4.4312v-2.3927l9.2357-3.1583-9.2357-3.1775"/>
   <path d="m31.224 23.304v1.8184h-9.8004v-1.8184h9.8004"/>
  </g>
  <path opacity=".5" style="color:#000000" d="m2-0.003467c-1.108 0-2 0.89199-2 2v19c0 1.108 0.892 2 2 2h19c1.108 0 2-0.89199 2-2v-19c0-1.108-0.892-2-2-2h-19zm0.5 0.5h18c1.108 0 2 0.89199 2 2v18c0 1.108-0.892 2-2 2h-18c-1.108 0-2-0.89199-2-2v-18c0-1.108 0.892-2 2-2z" fill="url(#linearGradient4671)"/>
 </g>
</svg>
