<svg xmlns:rdf="http://www.w3.org/1999/02/22-rdf-syntax-ns#" xmlns="http://www.w3.org/2000/svg" height="48" width="48" version="1.1" xmlns:cc="http://creativecommons.org/ns#" xmlns:xlink="http://www.w3.org/1999/xlink" xmlns:dc="http://purl.org/dc/elements/1.1/">
 <defs>
  <linearGradient id="linearGradient12443" y2="3" gradientUnits="userSpaceOnUse" x2="27.5" y1=".5" x1="27.5">
   <stop stop-color="#fff" offset="0"/>
   <stop stop-color="#fff" stop-opacity="0" offset="1"/>
  </linearGradient>
  <clipPath id="clipPath3217" clipPathUnits="userSpaceOnUse">
   <path fill="#19aeff" d="m1.5 1004.1 22.5 23-22.5 16.5v-38z"/>
  </clipPath>
  <clipPath id="clipPath3221" clipPathUnits="userSpaceOnUse">
   <path d="m1.5 1004.1 22.5 23-22.5 16.5v-38z" fill="#19aeff"/>
  </clipPath>
  <clipPath id="clipPath3247" clipPathUnits="userSpaceOnUse">
   <path d="m22 1031.9 2 2 2-2 20.5 22h-45z" fill="#19aeff"/>
  </clipPath>
 </defs>
 <g transform="translate(0 -1004.4)">
  <rect style="color:#000000" ry="2" height="48" width="48" y="1004.4" x="0" fill="#ececec"/>
  <g clip-path="url(#clipPath3217)" fill="#005c94" transform="translate(0 3.7123)">
   <path d="m24 16.788-29.568-10.065c-0.0005-0.0004 1.568 5.777 6.068 7.777s23.5 2.288 23.5 2.288z" transform="translate(0 1004.4)"/>
   <path d="m24 16.788-22.321 0.011c0.0004 0 0.821 2.701 4.321 2.701s18-2.7123 18-2.7123z" transform="translate(0 1004.4)"/>
   <path d="m24 16.788-17.5 3.712s1.884 1.5572 4.5 1.5c2.616-0.05715 13-5.2123 13-5.2123z" transform="translate(0 1004.4)"/>
   <path d="m24 16.788-12 6.712s1.7126 1.1916 3.5 0.5c1.7874-0.69158 8.5-7.2123 8.5-7.2123z" transform="translate(0 1004.4)"/>
  </g>
  <g clip-path="url(#clipPath3221)" transform="matrix(-1 0 0 1 48 3.7123)" fill="#005c94">
   <path d="m24 16.788-29.568-10.065c-0.0005-0.0004 1.568 5.777 6.068 7.777s23.5 2.288 23.5 2.288z" transform="translate(0 1004.4)"/>
   <path d="m24 16.788-22.321 0.011c0.0004 0 0.821 2.701 4.321 2.701s18-2.7123 18-2.7123z" transform="translate(0 1004.4)"/>
   <path d="m24 16.788-17.5 3.712s1.884 1.5572 4.5 1.5c2.616-0.05715 13-5.2123 13-5.2123z" transform="translate(0 1004.4)"/>
   <path d="m24 16.788-12 6.712s1.7126 1.1916 3.5 0.5c1.7874-0.69158 8.5-7.2123 8.5-7.2123z" transform="translate(0 1004.4)"/>
  </g>
  <g transform="translate(0 -3.0001)" fill="#005c94" clip-path="url(#clipPath3247)">
   <path d="m24 25.5s-1.8125 18.956-1.5 21c0.3125 2.0438 2.6562 2.1266 3 0 0.34375-2.1266-1.5-21-1.5-21z" transform="translate(0 1004.4)"/>
   <path d="m24 1029.9s-8.5915 8.3534-9 9.5c-0.40847 1.1466 0.84618 1.6904 1.5 1s7.5-10.5 7.5-10.5z"/>
   <path d="m24 1029.9s-7.7366 13.156-8 14.5c-0.26342 1.3439 1.413 1.8806 2 1s6-15.5 6-15.5z"/>
   <path d="m24 1029.9s-5.0838 16.518-5 18c0.08381 1.4816 1.5548 1.5308 2 0.5 0.44522-1.0308 3-18.5 3-18.5z"/>
   <path d="m24 1029.9s8.5915 8.3534 9 9.5c0.40847 1.1466-0.84618 1.6904-1.5 1s-7.5-10.5-7.5-10.5z"/>
   <path d="m24 1029.9s7.7366 13.156 8 14.5c0.26342 1.3439-1.413 1.8806-2 1s-6-15.5-6-15.5z"/>
   <path d="m24 1029.9s5.0838 16.518 5 18c-0.08381 1.4816-1.5548 1.5308-2 0.5-0.44522-1.0308-3-18.5-3-18.5z"/>
  </g>
  <path fill="#005c94" d="m1.5 1.5h45l-22.5 23.5z" transform="translate(0 1004.4)"/>
  <path d="m20.5 22s1-4.5 1-7.5c0.09729-3.6781 4.3177-4.3017 7-3.5-3 1-4.2589 2.9881-2 6s1 5 1 5l-3.5 3.5z" transform="translate(0 1004.4)" fill="#fff"/>
 </g>
 <g>
  <flowRoot style="word-spacing:0px;letter-spacing:0px" xml:space="preserve" transform="translate(-18.262 -1007.9)" line-height="125%" font-size="40px" font-family="sans-serif" fill="#000000"><flowRegion><rect y="6.6343" x="-53.033" width="57.629" height="49.321"/></flowRegion><flowPara/></flowRoot>
  <path opacity=".25" d="m48 2-24 24.5-23.5-24 19 21.5-18 19 19-17.5s2.491 2.4637 3.5 3.5l19 19h3c1.108 0 2-0.892 2-2v-44z"/>
 </g>
 <path opacity=".4" style="color:#000000" d="m2 0c-1.108 0-2 0.892-2 2v44c0 1.108 0.892 2 2 2h44c1.108 0 2-0.892 2-2v-44c0-1.108-0.892-2-2-2h-44zm0 0.5h44c0.83101 0 1.5 0.66899 1.5 1.5v44c0 0.83101-0.66899 1.5-1.5 1.5h-44c-0.831 0-1.5-0.669-1.5-1.5v-44c0-0.831 0.669-1.5 1.5-1.5z" fill="url(#linearGradient12443)"/>
</svg>
