<svg xmlns:rdf="http://www.w3.org/1999/02/22-rdf-syntax-ns#" xmlns="http://www.w3.org/2000/svg" height="48" width="48" version="1.1" xmlns:cc="http://creativecommons.org/ns#" xmlns:xlink="http://www.w3.org/1999/xlink" xmlns:dc="http://purl.org/dc/elements/1.1/">
 <defs>
  <linearGradient id="linearGradient12443" y2="3" gradientUnits="userSpaceOnUse" y1=".5" x2="27.5" x1="27.5">
   <stop stop-color="#fff" offset="0"/>
   <stop stop-color="#fff" stop-opacity="0" offset="1"/>
  </linearGradient>
 </defs>
 <g transform="translate(0 -1004.4)">
  <rect style="color:#000000" ry="2" height="48" width="48" y="1004.4" x="0" fill="#0e232e"/>
  <path style="color:#000000" d="m46 1004.4c1.108 0 2 0.892 2 2v3h-48v-3c0-1.108 0.892-2 2-2h44z" fill="#0e232e"/>
  <path id="path3875" fill="#ccc" d="m43 1004.4 5 5h-4l-5-5h4z"/>
  <use id="use3877" xlink:href="#path3875" transform="translate(-8)" height="48" width="48" y="0" x="0" fill="#cccccc"/>
  <use id="use3879" xlink:href="#use3877" transform="translate(-8)" height="48" width="48" y="0" x="0" fill="#cccccc"/>
  <use id="use3881" xlink:href="#use3879" transform="translate(-8)" height="48" width="48" y="0" x="0" fill="#cccccc"/>
  <use xlink:href="#use3881" transform="translate(-8)" height="48" width="48" y="0" x="0" fill="#cccccc"/>
  <rect style="color:#000000" fill-opacity=".22131" transform="scale(-1,1)" height="1" width="48" y="1009.4" x="-48"/>
  <path fill="#ccc" d="m3 1004.4 5 5h-4l-3.8125-3.8125c0.31167-0.6976 0.9965-1.1875 1.8125-1.1875h1z"/>
  <rect ry="0" style="color:#000000" transform="scale(-1)" height="5" width="48" y="-1014.9" x="-48" fill="#0e232e"/>
  <path id="path3875-8" fill="#ccc" d="m43 1014.9 5-5h-4l-5 5h4z"/>
  <use id="use3877-3" xlink:href="#path3875-8" transform="translate(8 1004.9)" height="48" width="48" y="0" x="0"/>
  <use id="use3879-4" xlink:href="#use3877-3" transform="translate(8 1004.4)" height="48" width="48" y="0" x="0"/>
  <use id="use3881-8" xlink:href="#use3879-4" transform="translate(8 1004.4)" height="48" width="48" y="0" x="0"/>
  <use xlink:href="#use3881-8" transform="translate(8 1004.4)" height="48" width="48" y="0" x="0"/>
  <path d="m8 1009.9-5 5h-3v-1l4-4h4z" fill="#ccc"/>
  <use id="use3978" xlink:href="#path3875-8" transform="translate(-8)" height="48" width="48" y="0" x="0" fill="#cccccc"/>
  <use id="use3980" xlink:href="#use3978" transform="translate(-8)" height="48" width="48" y="0" x="0" fill="#cccccc"/>
  <use id="use3982" xlink:href="#use3980" transform="translate(-8)" height="48" width="48" y="0" x="0" fill="#cccccc"/>
  <use xlink:href="#use3982" transform="translate(-8)" height="48" width="48" y="0" x="0" fill="#cccccc"/>
  <path style="color:#000000" d="m0.53125 0.65625c-0.32475 0.35535-0.53125 0.82225-0.53125 1.3438v9h9l-8.4688-10.344z" transform="translate(0 1004.4)" fill="#2d2d2d"/>
 </g>
 <g>
  <flowRoot style="word-spacing:0px;letter-spacing:0px" line-height="125%" xml:space="preserve" font-size="40px" transform="translate(-18.262 -1007.9)" font-family="sans-serif" fill="#000000"><flowRegion><rect y="6.6343" width="57.629" x="-53.033" height="49.321"/></flowRegion><flowPara/></flowRoot>
  <g transform="translate(-52.885 -3.6656)">
   <flowRoot style="word-spacing:0px;letter-spacing:0px" line-height="125%" xml:space="preserve" font-size="40px" transform="translate(-18.262 -1007.9)" font-family="sans-serif" fill="#000000"><flowRegion><rect y="6.6343" width="57.629" x="-53.033" height="49.321"/></flowRegion><flowPara/></flowRoot>
  </g>
  <path opacity=".25" d="m16 20v16l12 12h18c1.108 0 2-0.892 2-2v-2l-16-16-16-8z"/>
  <path style="color:#000000" d="m2 6.5a0.5 0.5 0 1 1 -1 0 0.5 0.5 0 1 1 1 0z" transform="translate(0,-3)" fill="#999"/>
  <path style="color:#000000" d="m2 6.5a0.5 0.5 0 1 1 -1 0 0.5 0.5 0 1 1 1 0z" transform="translate(0,3)" fill="#999"/>
  <path style="color:#000000" d="m2 6.5a0.5 0.5 0 1 1 -1 0 0.5 0.5 0 1 1 1 0z" transform="translate(4,3)" fill="#999"/>
 </g>
 <g>
  <path d="m16 20v16l16-8z" fill="#fff"/>
 </g>
 <g fill="url(#linearGradient12443)">
  <path opacity=".4" style="color:#000000" d="m2 0c-1.108 0-2 0.892-2 2v44c0 1.108 0.892 2 2 2h44c1.108 0 2-0.892 2-2v-44c0-1.108-0.892-2-2-2h-44zm0 0.5h44c0.83101 0 1.5 0.66899 1.5 1.5v44c0 0.83101-0.66899 1.5-1.5 1.5h-44c-0.831 0-1.5-0.669-1.5-1.5v-44c0-0.831 0.669-1.5 1.5-1.5z"/>
  <path opacity=".4" style="color:#000000" d="m2 0c-1.108 0-2 0.892-2 2v44c0 1.108 0.892 2 2 2h44c1.108 0 2-0.892 2-2v-44c0-1.108-0.892-2-2-2h-44zm0 0.5h44c0.83101 0 1.5 0.66899 1.5 1.5v44c0 0.83101-0.66899 1.5-1.5 1.5h-44c-0.831 0-1.5-0.669-1.5-1.5v-44c0-0.831 0.669-1.5 1.5-1.5z"/>
 </g>
</svg>
