<svg xmlns:rdf="http://www.w3.org/1999/02/22-rdf-syntax-ns#" xmlns="http://www.w3.org/2000/svg" height="48" width="48" version="1.1" xmlns:cc="http://creativecommons.org/ns#" xmlns:xlink="http://www.w3.org/1999/xlink" xmlns:dc="http://purl.org/dc/elements/1.1/">
 <defs>
  <linearGradient id="linearGradient12443" y2="3" gradientUnits="userSpaceOnUse" y1=".5" x2="27.5" x1="27.5">
   <stop stop-color="#fff" offset="0"/>
   <stop stop-color="#fff" stop-opacity="0" offset="1"/>
  </linearGradient>
  <linearGradient id="linearGradient7858" y2="23" gradientUnits="userSpaceOnUse" x2="23" y1="8" x1="23">
   <stop stop-color="#e1e1e1" offset="0"/>
   <stop stop-color="#b7b7b7" offset="1"/>
  </linearGradient>
 </defs>
 <g transform="translate(0 -1004.4)">
  <rect style="color:#000000" ry="2" height="48" width="48" y="1004.4" x="-.0625" fill="#666"/>
  <rect style="color:#000000" ry="2" height="42" width="42" y="1007.4" x="3" fill="#999"/>
  <path style="color:#000000" d="m23 12-6 8h4v9h-4l6 8 6-8h-4v-9h4z" transform="translate(0 1004.4)" fill="#0e232e"/>
 </g>
 <g>
  <flowRoot opacity=".25" style="word-spacing:0px;letter-spacing:0px" line-height="125%" xml:space="preserve" font-size="40px" transform="translate(32.627 -1001.2)" font-family="sans-serif" fill="#000000"><flowRegion><rect height="49.321" width="57.629" y="6.6343" x="-53.033" fill="#000"/></flowRegion><flowPara/></flowRoot>
  <flowRoot style="word-spacing:0px;letter-spacing:0px" xml:space="preserve" transform="translate(-104.89 -1017.8)" line-height="125%" font-size="40px" font-family="sans-serif" fill="#000000"><flowRegion><rect y="6.6343" x="-53.033" width="57.629" height="49.321"/></flowRegion><flowPara/></flowRoot>
  <path opacity=".25" style="color:#000000" d="m22 6c-0.416 0-0.755 0.2658-0.906 0.625-0.051 0.1197-0.094 0.2365-0.094 0.375h-3c-2.216 0-4 0.446-4 1-0.256 0-0.523 0.086-0.719 0.2812-0.39 0.3906-0.39 1.047 0 1.4376l7.719 7.7192v7.562c0 0.554 0.446 1 1 1l22 22h1.938c1.108 0 2-0.892 2-2v-22.5l-15.219-15.219c-0.163-0.162-0.38-0.2251-0.594-0.2498l-0.156-0.1562-0.063-0.0625-0.031-0.0625c-0.046-0.0455-0.118-0.0822-0.187-0.125-0.011-0.006-0.021-0.0253-0.032-0.0312-0.088-0.0504-0.194-0.0795-0.312-0.125-0.221-0.0855-0.501-0.1541-0.813-0.2188-0.02-0.0042-0.042-0.0272-0.062-0.0312-0.274-0.0542-0.58-0.0902-0.907-0.125-0.483-0.0517-1.001-0.0938-1.562-0.0938h-2.594l-0.656-0.6562-0.062-0.0626c-0.033-0.0319-0.089-0.0352-0.126-0.0624-0.166-0.1231-0.338-0.2188-0.562-0.2188h-2z"/>
 </g>
 <g>
  <path style="color:#000000" d="m15 12a1 1 0 1 1 -2 0 1 1 0 1 1 2 0z" transform="translate(0,-3)" fill="#ccc"/>
  <path style="color:#000000" d="m33 12a1 1 0 1 1 -2 0 1 1 0 1 1 2 0z" transform="translate(0,-3)" fill="#ccc"/>
  <rect style="color:#000000" rx="4" ry="1" height="4" width="18" y="7" x="14" fill="#b50000"/>
  <rect style="color:#000000" ry="1" height="20" width="4" y="6" x="21" fill="url(#linearGradient7858)"/>
 </g>
 <g>
  <path opacity=".4" style="color:#000000" d="m2 0c-1.108 0-2 0.892-2 2v44c0 1.108 0.892 2 2 2h44c1.108 0 2-0.892 2-2v-44c0-1.108-0.892-2-2-2h-44zm0 0.5h44c0.83101 0 1.5 0.66899 1.5 1.5v44c0 0.83101-0.66899 1.5-1.5 1.5h-44c-0.831 0-1.5-0.669-1.5-1.5v-44c0-0.831 0.669-1.5 1.5-1.5z" fill="url(#linearGradient12443)"/>
 </g>
 <style type="text/css">.bg {stroke: none; fill: white;}
    .fc {stroke: none; fill: black;}
    .h1 {stroke: none; fill: black;}
    .h2 {stroke: none; fill: #aa0000;}</style>
</svg>
