<svg xmlns:rdf="http://www.w3.org/1999/02/22-rdf-syntax-ns#" xmlns="http://www.w3.org/2000/svg" height="48" width="48" version="1.1" xmlns:cc="http://creativecommons.org/ns#" xmlns:xlink="http://www.w3.org/1999/xlink" xmlns:dc="http://purl.org/dc/elements/1.1/">
 <defs>
  <linearGradient id="linearGradient12443" y2="3" gradientUnits="userSpaceOnUse" y1=".5" x2="27.5" x1="27.5">
   <stop stop-color="#fff" offset="0"/>
   <stop stop-color="#fff" stop-opacity="0" offset="1"/>
  </linearGradient>
  <filter id="filter8040" height="1.2047" width="1.29" y="-.10235" x="-.145">
   <feGaussianBlur stdDeviation="1.45"/>
  </filter>
 </defs>
 <g transform="translate(0 -1004.4)">
  <path style="color:#000000" d="m2 1004.4h44c1.108 0 2 0.892 2 2v44c0 1.108-0.892 2-2 2h-44c-1.108 0-2-0.892-2-2v-44c0-1.108 0.892-2 2-2z" fill="#005c94"/>
  <path opacity=".25" d="m8 5.5a2.5 2.5 0 1 1 -5 0 2.5 2.5 0 1 1 5 0z" transform="matrix(.8 0 0 .8 4.6 1009)" fill="#fff"/>
  <path opacity=".25" d="m8 5.5a2.5 2.5 0 1 1 -5 0 2.5 2.5 0 1 1 5 0z" transform="matrix(.8 0 0 .8 9.6 1009)" fill="#fff"/>
  <path opacity=".25" d="m8 5.5a2.5 2.5 0 1 1 -5 0 2.5 2.5 0 1 1 5 0z" transform="matrix(.8 0 0 .8 29.6 1009)" fill="#fff"/>
  <path opacity=".25" d="m8 5.5a2.5 2.5 0 1 1 -5 0 2.5 2.5 0 1 1 5 0z" transform="matrix(.8 0 0 .8 34.6 1009)" fill="#fff"/>
  <path opacity=".25" d="m8 5.5a2.5 2.5 0 1 1 -5 0 2.5 2.5 0 1 1 5 0z" transform="matrix(.8 0 0 .8 4.6 1014)" fill="#fff"/>
  <path opacity=".25" d="m8 5.5a2.5 2.5 0 1 1 -5 0 2.5 2.5 0 1 1 5 0z" transform="matrix(.8 0 0 .8 14.6 1014)" fill="#fff"/>
  <path opacity=".25" d="m8 5.5a2.5 2.5 0 1 1 -5 0 2.5 2.5 0 1 1 5 0z" transform="matrix(.8 0 0 .8 19.6 1014)" fill="#fff"/>
  <path opacity=".25" d="m8 5.5a2.5 2.5 0 1 1 -5 0 2.5 2.5 0 1 1 5 0z" transform="matrix(.8 0 0 .8 24.6 1014)" fill="#fff"/>
  <path opacity=".25" d="m8 5.5a2.5 2.5 0 1 1 -5 0 2.5 2.5 0 1 1 5 0z" transform="matrix(.8 0 0 .8 34.6 1014)" fill="#fff"/>
  <path opacity=".25" d="m8 5.5a2.5 2.5 0 1 1 -5 0 2.5 2.5 0 1 1 5 0z" transform="matrix(.8 0 0 .8 4.6 1019)" fill="#fff"/>
  <path opacity=".25" d="m8 5.5a2.5 2.5 0 1 1 -5 0 2.5 2.5 0 1 1 5 0z" transform="matrix(.8 0 0 .8 9.6 1019)" fill="#fff"/>
  <path opacity=".25" d="m8 5.5a2.5 2.5 0 1 1 -5 0 2.5 2.5 0 1 1 5 0z" transform="matrix(.8 0 0 .8 29.6 1019)" fill="#fff"/>
  <path opacity=".25" d="m8 5.5a2.5 2.5 0 1 1 -5 0 2.5 2.5 0 1 1 5 0z" transform="matrix(.8 0 0 .8 34.6 1019)" fill="#fff"/>
  <path opacity=".25" d="m8 5.5a2.5 2.5 0 1 1 -5 0 2.5 2.5 0 1 1 5 0z" transform="matrix(.8 0 0 .8 4.6 1024)" fill="#fff"/>
  <path opacity=".25" d="m8 5.5a2.5 2.5 0 1 1 -5 0 2.5 2.5 0 1 1 5 0z" transform="matrix(.8 0 0 .8 9.6 1024)" fill="#fff"/>
  <path opacity=".25" d="m8 5.5a2.5 2.5 0 1 1 -5 0 2.5 2.5 0 1 1 5 0z" transform="matrix(.8 0 0 .8 14.6 1024)" fill="#fff"/>
  <path opacity=".25" d="m8 5.5a2.5 2.5 0 1 1 -5 0 2.5 2.5 0 1 1 5 0z" transform="matrix(.8 0 0 .8 24.6 1024)" fill="#fff"/>
  <path opacity=".25" d="m8 5.5a2.5 2.5 0 1 1 -5 0 2.5 2.5 0 1 1 5 0z" transform="matrix(.8 0 0 .8 29.6 1024)" fill="#fff"/>
  <path opacity=".25" d="m8 5.5a2.5 2.5 0 1 1 -5 0 2.5 2.5 0 1 1 5 0z" transform="matrix(.8 0 0 .8 34.6 1024)" fill="#fff"/>
  <path opacity=".25" d="m8 5.5a2.5 2.5 0 1 1 -5 0 2.5 2.5 0 1 1 5 0z" transform="matrix(.8 0 0 .8 4.6 1029)" fill="#fff"/>
  <path opacity=".25" d="m8 5.5a2.5 2.5 0 1 1 -5 0 2.5 2.5 0 1 1 5 0z" transform="matrix(.8 0 0 .8 9.6 1029)" fill="#fff"/>
  <path opacity=".25" d="m8 5.5a2.5 2.5 0 1 1 -5 0 2.5 2.5 0 1 1 5 0z" transform="matrix(.8 0 0 .8 14.6 1029)" fill="#fff"/>
  <path opacity=".25" d="m8 5.5a2.5 2.5 0 1 1 -5 0 2.5 2.5 0 1 1 5 0z" transform="matrix(.8 0 0 .8 24.6 1029)" fill="#fff"/>
  <path opacity=".25" d="m8 5.5a2.5 2.5 0 1 1 -5 0 2.5 2.5 0 1 1 5 0z" transform="matrix(.8 0 0 .8 29.6 1029)" fill="#fff"/>
  <path opacity=".25" d="m8 5.5a2.5 2.5 0 1 1 -5 0 2.5 2.5 0 1 1 5 0z" transform="matrix(.8 0 0 .8 34.6 1029)" fill="#fff"/>
  <path opacity=".25" d="m8 5.5a2.5 2.5 0 1 1 -5 0 2.5 2.5 0 1 1 5 0z" transform="matrix(.8 0 0 .8 4.6 1034)" fill="#fff"/>
  <path opacity=".25" d="m8 5.5a2.5 2.5 0 1 1 -5 0 2.5 2.5 0 1 1 5 0z" transform="matrix(.8 0 0 .8 9.6 1034)" fill="#fff"/>
  <path opacity=".25" d="m8 5.5a2.5 2.5 0 1 1 -5 0 2.5 2.5 0 1 1 5 0z" transform="matrix(.8 0 0 .8 14.6 1034)" fill="#fff"/>
  <path opacity=".25" d="m8 5.5a2.5 2.5 0 1 1 -5 0 2.5 2.5 0 1 1 5 0z" transform="matrix(.8 0 0 .8 24.6 1034)" fill="#fff"/>
  <path opacity=".25" d="m8 5.5a2.5 2.5 0 1 1 -5 0 2.5 2.5 0 1 1 5 0z" transform="matrix(.8 0 0 .8 29.6 1034)" fill="#fff"/>
  <path opacity=".25" d="m8 5.5a2.5 2.5 0 1 1 -5 0 2.5 2.5 0 1 1 5 0z" transform="matrix(.8 0 0 .8 34.6 1034)" fill="#fff"/>
  <path opacity=".25" d="m8 5.5a2.5 2.5 0 1 1 -5 0 2.5 2.5 0 1 1 5 0z" transform="matrix(.8 0 0 .8 4.6 1039)" fill="#fff"/>
  <path opacity=".25" d="m8 5.5a2.5 2.5 0 1 1 -5 0 2.5 2.5 0 1 1 5 0z" transform="matrix(.8 0 0 .8 9.6 1039)" fill="#fff"/>
  <g fill="#fff" transform="translate(0 1004.4)">
   <path d="m8 5.5c0 1.3807-1.1193 2.5-2.5 2.5s-2.5-1.1193-2.5-2.5 1.1193-2.5 2.5-2.5 2.5 1.1193 2.5 2.5z" transform="matrix(.8 0 0 .8 14.6 4.6)"/>
   <path d="m8 5.5c0 1.3807-1.1193 2.5-2.5 2.5s-2.5-1.1193-2.5-2.5 1.1193-2.5 2.5-2.5 2.5 1.1193 2.5 2.5z" transform="matrix(.8 0 0 .8 19.6 4.6)"/>
   <path d="m8 5.5c0 1.3807-1.1193 2.5-2.5 2.5s-2.5-1.1193-2.5-2.5 1.1193-2.5 2.5-2.5 2.5 1.1193 2.5 2.5z" transform="matrix(.8 0 0 .8 24.6 4.6)"/>
   <path d="m8 5.5c0 1.3807-1.1193 2.5-2.5 2.5s-2.5-1.1193-2.5-2.5 1.1193-2.5 2.5-2.5 2.5 1.1193 2.5 2.5z" transform="matrix(.8 0 0 .8 9.6 9.6)"/>
   <path d="m8 5.5c0 1.3807-1.1193 2.5-2.5 2.5s-2.5-1.1193-2.5-2.5 1.1193-2.5 2.5-2.5 2.5 1.1193 2.5 2.5z" transform="matrix(.8 0 0 .8 29.6 9.6)"/>
   <path d="m8 5.5c0 1.3807-1.1193 2.5-2.5 2.5s-2.5-1.1193-2.5-2.5 1.1193-2.5 2.5-2.5 2.5 1.1193 2.5 2.5z" transform="matrix(.8 0 0 .8 14.6 14.6)"/>
   <path d="m8 5.5c0 1.3807-1.1193 2.5-2.5 2.5s-2.5-1.1193-2.5-2.5 1.1193-2.5 2.5-2.5 2.5 1.1193 2.5 2.5z" transform="matrix(.8 0 0 .8 19.6 14.6)"/>
   <path d="m8 5.5c0 1.3807-1.1193 2.5-2.5 2.5s-2.5-1.1193-2.5-2.5 1.1193-2.5 2.5-2.5 2.5 1.1193 2.5 2.5z" transform="matrix(.8 0 0 .8 24.6 14.6)"/>
   <path d="m8 5.5c0 1.3807-1.1193 2.5-2.5 2.5s-2.5-1.1193-2.5-2.5 1.1193-2.5 2.5-2.5 2.5 1.1193 2.5 2.5z" transform="matrix(.8 0 0 .8 19.6 19.6)"/>
   <path d="m8 5.5c0 1.3807-1.1193 2.5-2.5 2.5s-2.5-1.1193-2.5-2.5 1.1193-2.5 2.5-2.5 2.5 1.1193 2.5 2.5z" transform="matrix(.8 0 0 .8 19.6 24.6)"/>
   <path d="m8 5.5c0 1.3807-1.1193 2.5-2.5 2.5s-2.5-1.1193-2.5-2.5 1.1193-2.5 2.5-2.5 2.5 1.1193 2.5 2.5z" transform="matrix(.8 0 0 .8 19.6 29.6)"/>
   <path d="m8 5.5c0 1.3807-1.1193 2.5-2.5 2.5s-2.5-1.1193-2.5-2.5 1.1193-2.5 2.5-2.5 2.5 1.1193 2.5 2.5z" transform="matrix(.8 0 0 .8 14.6 34.6)"/>
   <path d="m8 5.5c0 1.3807-1.1193 2.5-2.5 2.5s-2.5-1.1193-2.5-2.5 1.1193-2.5 2.5-2.5 2.5 1.1193 2.5 2.5z" transform="matrix(.8 0 0 .8 19.6 34.6)"/>
  </g>
  <path opacity=".25" d="m8 5.5a2.5 2.5 0 1 1 -5 0 2.5 2.5 0 1 1 5 0z" transform="matrix(.8 0 0 .8 24.6 1039)" fill="#fff"/>
  <path opacity=".25" d="m8 5.5a2.5 2.5 0 1 1 -5 0 2.5 2.5 0 1 1 5 0z" transform="matrix(.8 0 0 .8 29.6 1039)" fill="#fff"/>
  <path opacity=".25" d="m8 5.5a2.5 2.5 0 1 1 -5 0 2.5 2.5 0 1 1 5 0z" transform="matrix(.8 0 0 .8 34.6 1039)" fill="#fff"/>
 </g>
 <g>
  <flowRoot style="word-spacing:0px;letter-spacing:0px" line-height="125%" xml:space="preserve" font-size="40px" transform="translate(-18.262 -1007.9)" font-family="sans-serif" fill="#000000"><flowRegion><rect y="6.6343" width="57.629" x="-53.033" height="49.321"/></flowRegion><flowPara/></flowRoot>
  <path opacity=".3" d="m19 7c-1.1046 0-2 0.89543-2 2 0 0.26825 0.06046 0.51625 0.15625 0.75 0.0264 0.065079 0.0609 0.12604 0.09375 0.1875 0.02646 0.049128 0.03215 0.1097 0.0625 0.15625 0.0075 0.01169 0.02347 0.01973 0.03125 0.03125 0.06212 0.09089 0.14286 0.17073 0.21875 0.25 0.01037 0.01084 0.02064 0.02064 0.03125 0.03125l0.25 0.21875c0.01227 0.0087 0.01878 0.02282 0.03125 0.03125l5.125 5.125 1.2188 1.25c-0.073-0.008-0.144-0.031-0.219-0.031-0.27614 0-0.54197 0.05504-0.78125 0.15625-0.35892 0.15181-0.65935 0.39955-0.875 0.71875-0.216 0.319-0.344 0.711-0.344 1.125 0 0.07472 0.02327 0.14616 0.03125 0.21875l-1.375-1.344c-0.059-0.087-0.147-0.142-0.218-0.219l-0.03125-0.0625c-0.09048-0.09048-0.17485-0.17812-0.28125-0.25l-0.65625-0.65625-3.8125-3.8125-0.25-0.28125c-0.363-0.362-0.855-0.594-1.407-0.594-1.1046 0-2 0.89543-2 2 0 0.55228 0.23182 1.0443 0.59375 1.4062l0.28125 0.25 4.4688 4.4688 0.03125 0.03125c0.0261 0.03682 0.06528 0.05883 0.09375 0.09375l0.09375 0.125c0.01036 0.01084 0.02065 0.02065 0.03125 0.03125l0.28125 0.25 4.4688 4.4688 0.03125 0.03125 0.0625 0.0625 0.09375 0.09375c0.01529 0.01712 0.01539 0.04592 0.03125 0.0625 0.09246 0.09669 0.17111 0.20461 0.28125 0.28125 0.0065 0.0045 0.02465-0.0045 0.03125 0l0.21875 0.25 0.156 0.156 0.656 0.657 0.282 0.281c-0.062-0.006-0.125 0-0.188 0-1.1046 0-2 0.89543-2 2 0 0.55228 0.23182 1.0443 0.59375 1.4062l0.28125 0.25 1.2812 1.3125 0.032 0.032c-0.062-0.006-0.125 0-0.188 0-1.1046 0-2 0.89543-2 2 0 0.42005 0.12251 0.80318 0.34375 1.125 0.07188 0.1064 0.15952 0.19077 0.25 0.28125 0.0056 0.0056-0.0057 0.02571 0 0.03125l1.562 1.563c-0.052-0.004-0.103 0-0.156 0-0.13807 0-0.27606 0.0046-0.40625 0.03125-0.26039 0.05328-0.50595 0.16873-0.71875 0.3125-0.532 0.359-0.875 0.966-0.875 1.656 0 0.05354-0.0041 0.10378 0 0.15625l-1.5938-1.5625v-0.03125c-0.047-0.046-0.104-0.083-0.156-0.124-0.342-0.275-0.777-0.438-1.25-0.438-1.1046 0-2 0.89543-2 2 0 0.42005 0.12251 0.80318 0.34375 1.125 0.07188 0.1064 0.15952 0.19077 0.25 0.28125 0.0056 0.0056-0.0057 0.02571 0 0.03125l7.562 7.563h20.844c1.108 0 2-0.892 2-2v-20.781l-2.031-2.031-10.313-10.313c-0.0045-0.0066 0.0045-0.0247 0-0.03125l-0.25-0.25c-0.01-0.011-0.02-0.021-0.031-0.032-0.0793-0.0761-0.15903-0.15645-0.25-0.21875-0.01152-0.0078-0.01956-0.0237-0.03125-0.03125l-0.625-0.625-3.8125-3.8125-0.25-0.28125c-0.362-0.3614-0.854-0.5932-1.406-0.5932-0.138 0-0.276 0.0046-0.406 0.0312-0.521 0.1066-0.963 0.4182-1.25 0.8438-0.216 0.3192-0.344 0.7108-0.344 1.125 0 0.074721 0.02327 0.14616 0.03125 0.21875l-1.375-1.3438-0.25-0.28125c-0.362-0.362-0.854-0.5938-1.406-0.5938-0.138 0-0.276 0.0046-0.406 0.0312-0.521 0.1066-0.963 0.4182-1.25 0.8438-0.216 0.3192-0.344 0.7108-0.344 1.125 0 0.074721 0.02327 0.14616 0.03125 0.21875l-1.375-1.3438-0.25-0.28125c-0.362-0.362-0.854-0.5938-1.406-0.5938z"/>
 </g>
 <g fill="#fff">
  <g>
   <path d="m8 5.5a2.5 2.5 0 1 1 -5 0 2.5 2.5 0 1 1 5 0z" transform="matrix(.8 0 0 .8 14.6 4.6)"/>
   <path d="m8 5.5a2.5 2.5 0 1 1 -5 0 2.5 2.5 0 1 1 5 0z" transform="matrix(.8 0 0 .8 19.6 4.6)"/>
   <path d="m8 5.5a2.5 2.5 0 1 1 -5 0 2.5 2.5 0 1 1 5 0z" transform="matrix(.8 0 0 .8 24.6 4.6)"/>
   <path d="m8 5.5a2.5 2.5 0 1 1 -5 0 2.5 2.5 0 1 1 5 0z" transform="matrix(.8 0 0 .8 9.6 9.6)"/>
   <path d="m8 5.5a2.5 2.5 0 1 1 -5 0 2.5 2.5 0 1 1 5 0z" transform="matrix(.8 0 0 .8 29.6 9.6)"/>
   <path d="m8 5.5a2.5 2.5 0 1 1 -5 0 2.5 2.5 0 1 1 5 0z" transform="matrix(.8 0 0 .8 14.6 14.6)"/>
   <path d="m8 5.5a2.5 2.5 0 1 1 -5 0 2.5 2.5 0 1 1 5 0z" transform="matrix(.8 0 0 .8 19.6 14.6)"/>
   <path d="m8 5.5a2.5 2.5 0 1 1 -5 0 2.5 2.5 0 1 1 5 0z" transform="matrix(.8 0 0 .8 24.6 14.6)"/>
   <path d="m8 5.5a2.5 2.5 0 1 1 -5 0 2.5 2.5 0 1 1 5 0z" transform="matrix(.8 0 0 .8 19.6 19.6)"/>
   <path d="m8 5.5a2.5 2.5 0 1 1 -5 0 2.5 2.5 0 1 1 5 0z" transform="matrix(.8 0 0 .8 19.6 24.6)"/>
   <path d="m8 5.5a2.5 2.5 0 1 1 -5 0 2.5 2.5 0 1 1 5 0z" transform="matrix(.8 0 0 .8 19.6 29.6)"/>
   <path d="m8 5.5a2.5 2.5 0 1 1 -5 0 2.5 2.5 0 1 1 5 0z" transform="matrix(.8 0 0 .8 14.6 34.6)"/>
   <path d="m8 5.5a2.5 2.5 0 1 1 -5 0 2.5 2.5 0 1 1 5 0z" transform="matrix(.8 0 0 .8 19.6 34.6)"/>
  </g>
  <g filter="url(#filter8040)">
   <path d="m8 5.5c0 1.3807-1.1193 2.5-2.5 2.5s-2.5-1.1193-2.5-2.5 1.1193-2.5 2.5-2.5 2.5 1.1193 2.5 2.5z" transform="matrix(.8 0 0 .8 14.6 4.6)"/>
   <path d="m8 5.5c0 1.3807-1.1193 2.5-2.5 2.5s-2.5-1.1193-2.5-2.5 1.1193-2.5 2.5-2.5 2.5 1.1193 2.5 2.5z" transform="matrix(.8 0 0 .8 19.6 4.6)"/>
   <path d="m8 5.5c0 1.3807-1.1193 2.5-2.5 2.5s-2.5-1.1193-2.5-2.5 1.1193-2.5 2.5-2.5 2.5 1.1193 2.5 2.5z" transform="matrix(.8 0 0 .8 24.6 4.6)"/>
   <path d="m8 5.5c0 1.3807-1.1193 2.5-2.5 2.5s-2.5-1.1193-2.5-2.5 1.1193-2.5 2.5-2.5 2.5 1.1193 2.5 2.5z" transform="matrix(.8 0 0 .8 9.6 9.6)"/>
   <path d="m8 5.5c0 1.3807-1.1193 2.5-2.5 2.5s-2.5-1.1193-2.5-2.5 1.1193-2.5 2.5-2.5 2.5 1.1193 2.5 2.5z" transform="matrix(.8 0 0 .8 29.6 9.6)"/>
   <path d="m8 5.5c0 1.3807-1.1193 2.5-2.5 2.5s-2.5-1.1193-2.5-2.5 1.1193-2.5 2.5-2.5 2.5 1.1193 2.5 2.5z" transform="matrix(.8 0 0 .8 14.6 14.6)"/>
   <path d="m8 5.5c0 1.3807-1.1193 2.5-2.5 2.5s-2.5-1.1193-2.5-2.5 1.1193-2.5 2.5-2.5 2.5 1.1193 2.5 2.5z" transform="matrix(.8 0 0 .8 19.6 14.6)"/>
   <path d="m8 5.5c0 1.3807-1.1193 2.5-2.5 2.5s-2.5-1.1193-2.5-2.5 1.1193-2.5 2.5-2.5 2.5 1.1193 2.5 2.5z" transform="matrix(.8 0 0 .8 24.6 14.6)"/>
   <path d="m8 5.5c0 1.3807-1.1193 2.5-2.5 2.5s-2.5-1.1193-2.5-2.5 1.1193-2.5 2.5-2.5 2.5 1.1193 2.5 2.5z" transform="matrix(.8 0 0 .8 19.6 19.6)"/>
   <path d="m8 5.5c0 1.3807-1.1193 2.5-2.5 2.5s-2.5-1.1193-2.5-2.5 1.1193-2.5 2.5-2.5 2.5 1.1193 2.5 2.5z" transform="matrix(.8 0 0 .8 19.6 24.6)"/>
   <path d="m8 5.5c0 1.3807-1.1193 2.5-2.5 2.5s-2.5-1.1193-2.5-2.5 1.1193-2.5 2.5-2.5 2.5 1.1193 2.5 2.5z" transform="matrix(.8 0 0 .8 19.6 29.6)"/>
   <path d="m8 5.5c0 1.3807-1.1193 2.5-2.5 2.5s-2.5-1.1193-2.5-2.5 1.1193-2.5 2.5-2.5 2.5 1.1193 2.5 2.5z" transform="matrix(.8 0 0 .8 14.6 34.6)"/>
   <path d="m8 5.5c0 1.3807-1.1193 2.5-2.5 2.5s-2.5-1.1193-2.5-2.5 1.1193-2.5 2.5-2.5 2.5 1.1193 2.5 2.5z" transform="matrix(.8 0 0 .8 19.6 34.6)"/>
  </g>
 </g>
 <path opacity=".4" style="color:#000000" d="m2 0c-1.108 0-2 0.892-2 2v44c0 1.108 0.892 2 2 2h44c1.108 0 2-0.892 2-2v-44c0-1.108-0.892-2-2-2h-44zm0 0.5h44c0.83101 0 1.5 0.66899 1.5 1.5v44c0 0.83101-0.66899 1.5-1.5 1.5h-44c-0.831 0-1.5-0.669-1.5-1.5v-44c0-0.831 0.669-1.5 1.5-1.5z" fill="url(#linearGradient12443)"/>
</svg>
