<svg xmlns:rdf="http://www.w3.org/1999/02/22-rdf-syntax-ns#" xmlns="http://www.w3.org/2000/svg" height="48" width="48" version="1.1" xmlns:cc="http://creativecommons.org/ns#" xmlns:xlink="http://www.w3.org/1999/xlink" xmlns:dc="http://purl.org/dc/elements/1.1/">
 <defs>
  <linearGradient id="linearGradient12443" y2="3" gradientUnits="userSpaceOnUse" y1=".5" x2="27.5" x1="27.5">
   <stop stop-color="#fff" offset="0"/>
   <stop stop-color="#fff" stop-opacity="0" offset="1"/>
  </linearGradient>
 </defs>
 <g transform="translate(0 -1004.4)">
  <rect style="color:#000000" ry="2" height="48" width="48" y="1004.4" x="-.0625" fill="#f90"/>
  <path style="color:#000000" d="m1.9375 0c-1.108 0-2 0.892-2 2v2h48v-2c0-1.108-0.892-2-2-2h-44z" transform="translate(0 1004.4)" fill="#2d2d2d"/>
  <path opacity=".5" style="color:#000000" d="m-0.0625 4v42c0 1.108 0.892 2 2 2h4.0625v-44h-6.0625z" transform="translate(0 1004.4)" fill="#2d2d2d"/>
  <rect style="color:#000000" transform="translate(0 1004.4)" height="4" width="4" y="6" x="1" fill="#bdcdd4"/>
  <rect style="color:#000000" height="4" width="4" y="1016.4" x="1" fill="#f90"/>
  <rect style="color:#000000" height="4" width="4" y="1022.4" x="1" fill="#ff4141"/>
  <rect style="color:#000000" height="4" width="4" y="1028.4" x="1" fill="#9ade00"/>
  <rect style="color:#000000" height="4" width="4" y="1034.4" x="1" fill="#d76cff"/>
  <rect style="color:#000000" height="4" width="4" y="1045.4" x="1" fill="#2d2d2d"/>
  <rect opacity=".5" style="color:#000000" transform="translate(0 1004.4)" height="2" width="2" y="1" x="44" fill="#fff"/>
  <rect opacity=".5" style="color:#000000" transform="translate(0 1004.4)" height="1" width="2" y="2" x="34" fill="#fff"/>
  <rect opacity=".5" style="color:#000000" transform="translate(0 1004.4)" height="2" width="2" y="1" x="39" fill="#fff"/>
  <rect opacity=".5" style="color:#000000" transform="translate(0 1004.4)" height="1" width="13" y="2" x="2" fill="#fff"/>
 </g>
 <g>
  <flowRoot opacity=".25" style="word-spacing:0px;letter-spacing:0px" line-height="125%" xml:space="preserve" font-size="40px" transform="translate(32.627 -1001.2)" font-family="sans-serif" fill="#000000"><flowRegion><rect height="49.321" width="57.629" y="6.6343" x="-53.033" fill="#000"/></flowRegion><flowPara/></flowRoot>
  <flowRoot style="word-spacing:0px;letter-spacing:0px" xml:space="preserve" transform="translate(-104.89 -1017.8)" line-height="125%" font-size="40px" font-family="sans-serif" fill="#000000"><flowRegion><rect y="6.6343" x="-53.033" width="57.629" height="49.321"/></flowRegion><flowPara/></flowRoot>
  <path opacity=".3" style="color:#000000" d="m20.469 8c-2.063 1.2148-3.469 3.432-3.469 6 0 0.27479 0.03163 0.54618 0.0625 0.8125 0.02356 0.20302 0.05314 0.39652 0.09375 0.59375 0.04131 0.20066 0.06685 0.39985 0.125 0.59375 0.0066 0.02211 0.02439 0.04048 0.03125 0.0625 0.03274 0.10536 0.08746 0.20936 0.125 0.3125 0.05217 0.14324 0.09512 0.29884 0.15625 0.4375 0.03725 0.08466 0.08451 0.16715 0.125 0.25 0.04229 0.08606 0.07931 0.16599 0.125 0.25 0.08756 0.1621 0.18154 0.31468 0.28125 0.46875 0.14661 0.22618 0.29766 0.44907 0.46875 0.65625 0.0094 0.01143 0.02174 0.01988 0.03125 0.03125 0.06196 0.07405 0.12257 0.14734 0.1875 0.21875 0.07507 0.08256 0.13985 0.1711 0.21875 0.25 0.10894 0.10908 0.22783 0.21073 0.34375 0.3125l1.625 1.656v18.094c0 0.1385 0.0072 0.27582 0.03125 0.40625 0.0018 0.0099-0.0019 0.02143 0 0.03125 0.02384 0.11999 0.08269 0.23301 0.125 0.34375 0.0037 0.0095-0.0039 0.02182 0 0.03125 0.04371 0.10985 0.09613 0.21415 0.15625 0.3125 0.04847 0.07881 0.09832 0.14859 0.15625 0.21875 0.02833 0.03436 0.06332 0.06165 0.09375 0.09375 0.01047 0.01099 0.02054 0.02054 0.03125 0.03125l7.531 7.531h16.813c1.108 0 2-0.892 2-2v-17.906l-18.969-19c-0.0056-0.00555-0.02568 0.00553-0.03125 0-0.211-0.2097-0.421-0.4121-0.657-0.594-0.239-0.1849-0.488-0.346-0.75-0.5h-0.531v5c0 0.292-0.07597 0.56288-0.1875 0.8125l-5.812-5.812h-0.531z"/>
 </g>
 <g>
  <path style="color:#000000" d="m20.469 8c-2.063 1.2148-3.469 3.432-3.469 6 0 2.791 1.637 5.1883 4 6.3125v18.688c0 1.108 0.80838 2 1.8125 2h2.375c1.005 0 1.813-0.892 1.813-2v-18.688c2.363-1.124 4-3.521 4-6.312 0-2.568-1.406-4.7852-3.469-6h-0.531v5c0 1.108-0.892 2-2 2h-2c-1.108 0-2-0.892-2-2v-5h-0.531zm3.531 29c0.55228 0 1 0.44772 1 1s-0.44772 1-1 1-1-0.44772-1-1 0.44772-1 1-1z" fill="#0e232e"/>
 </g>
 <g>
  <path opacity=".4" style="color:#000000" d="m2 0c-1.108 0-2 0.892-2 2v44c0 1.108 0.892 2 2 2h44c1.108 0 2-0.892 2-2v-44c0-1.108-0.892-2-2-2h-44zm0 0.5h44c0.83101 0 1.5 0.66899 1.5 1.5v44c0 0.83101-0.66899 1.5-1.5 1.5h-44c-0.831 0-1.5-0.669-1.5-1.5v-44c0-0.831 0.669-1.5 1.5-1.5z" fill="url(#linearGradient12443)"/>
 </g>
</svg>
