<svg xmlns:rdf="http://www.w3.org/1999/02/22-rdf-syntax-ns#" xmlns="http://www.w3.org/2000/svg" height="48" width="48" version="1.1" xmlns:cc="http://creativecommons.org/ns#" xmlns:xlink="http://www.w3.org/1999/xlink" xmlns:dc="http://purl.org/dc/elements/1.1/">
 <defs>
  <linearGradient id="linearGradient12443" y2="3" gradientUnits="userSpaceOnUse" y1=".5" x2="27.5" x1="27.5">
   <stop stop-color="#fff" offset="0"/>
   <stop stop-color="#fff" stop-opacity="0" offset="1"/>
  </linearGradient>
  <filter id="filter4637" height="1.2545" width="1.2271" y="-.12724" x="-.11354">
   <feGaussianBlur stdDeviation="1.4853519"/>
  </filter>
  <clipPath id="clipPath4659" clipPathUnits="userSpaceOnUse">
   <path opacity=".25" style="color:#000000" d="m23.844 10c-3.7019 0.02467-7.2146 1.5102-9.7812 4.0625l2.1562 2.1562 15.531 15.562c-0.35206 0.35218-0.73119 0.66871-1.125 0.96875l-17.281-17.281-5.0625 5.375 1.7812 1.7812c-0.42023 4.2452 1.1244 8.3744 4.0312 11.281l0.657 0.626 13.469 13.469h17.781c1.108 0 2-0.892 2-2v-17.75l-14.125-14.156c-1.68-1.681-3.821-2.966-6.281-3.625-1.25-0.335-2.516-0.4772-3.75-0.469z" fill="#0e232e"/>
  </clipPath>
 </defs>
 <g transform="translate(0 -1004.4)">
  <rect style="color:#000000" ry="2" height="48" width="48" y="1004.4" x="0" fill="#b88100"/>
  <path style="color:#000000" d="m2 0c-1.108 0-2 0.892-2 2v8h47.5c0.173 0 0.337-0.0293 0.5-0.0625v-7.9375c0-1.108-0.892-2-2-2h-44z" transform="translate(0 1004.4)" fill="#ffc022"/>
  <path opacity=".2" d="m24 1004.4v10" stroke="#000" stroke-width="1px" fill="none"/>
  <path opacity=".2" style="color:#000000" d="m21 0h6v14l-2-1-2 1-1-1-1 1z" transform="translate(0 1004.4)"/>
  <g>
   <rect opacity=".7" height="6" width="0.3" y="1044.4" x="35.5"/>
   <rect opacity=".7" height="6" width="0.3" y="1044.4" x="36.4"/>
   <rect opacity=".7" height="6" width="0.6" y="1044.4" x="37"/>
   <rect opacity=".7" height="6" width="0.6" y="1044.4" x="37.9"/>
   <rect opacity=".7" height="6" width="0.3" y="1044.4" x="38.8"/>
   <rect opacity=".7" height="6" width="0.6" y="1044.4" x="39.4"/>
   <rect opacity=".7" height="6" width="0.3" y="1044.4" x="40.3"/>
   <rect opacity=".7" height="6" width="0.3" y="1044.4" x="41.2"/>
   <rect opacity=".7" height="6" width="0.3" y="1044.4" x="41.8"/>
   <rect opacity=".7" height="6" width="0.6" y="1044.4" x="42.4"/>
   <rect opacity=".7" height="6" width="0.3" y="1044.4" x="43.3"/>
   <rect opacity=".7" height="6" width="0.6" y="1044.4" x="43.9"/>
   <rect opacity=".7" height="6" width="0.3" y="1044.4" x="45.1"/>
   <rect opacity=".7" height="6" width="0.3" y="1044.4" x="45.7"/>
  </g>
  <g fill="#804d00">
   <path d="m4 1046.4v-6h-2l3-4 3 4h-2v6z"/>
   <path d="m11 1046.4v-6h-2l3-4 3 4h-2v6z"/>
   <path d="m2 1047.4v2h13v-2z"/>
  </g>
 </g>
 <g>
  <flowRoot style="word-spacing:0px;letter-spacing:0px" line-height="125%" xml:space="preserve" font-size="40px" transform="translate(-18.262 -1007.9)" font-family="sans-serif" fill="#000000"><flowRegion><rect y="6.6343" width="57.629" x="-53.033" height="49.321"/></flowRegion><flowPara/></flowRoot>
  <path opacity=".3" style="color:#000000" d="m23.844 10c-3.7019 0.02467-7.2146 1.5102-9.7812 4.0625l2.1562 2.1562 15.531 15.562c-0.35206 0.35218-0.73119 0.66871-1.125 0.96875l-17.281-17.281-5.0625 5.375 1.7812 1.7812c-0.42023 4.2452 1.1244 8.3744 4.0312 11.281l0.657 0.626 13.469 13.469h17.781c1.108 0 2-0.892 2-2v-17.75l-14.125-14.156c-1.68-1.681-3.821-2.966-6.281-3.625-1.25-0.335-2.516-0.4772-3.75-0.469z" fill="#0e232e"/>
  <path opacity=".8" filter="url(#filter4637)" style="color:#000000" d="m27.593 10.473c-4.997-1.339-10.094 0.19-13.516 3.593l2.1392 2.1585c2.6833-2.6842 7.5428-4.2199 11.475-3.1663 5.542 1.485 9.6262 7.3819 8.6641 12.928l-1.934 0.43604 0.19842 6.1219 5.0631-5.3727-1.962-0.52573c1.3855-7.1507-2.9842-14.258-10.128-16.172zm-14.244 4.9832-5.0631 5.3727 1.962 0.52573c-1.3855 7.1507 2.9842 14.258 10.128 16.172 5.0064 1.3415 10.101-0.20688 13.524-3.6233l-1.8348-0.56579c-2.6833 2.6842-6.9803 3.2199-10.912 2.1663-5.542-1.485-8.9387-7.8194-7.9766-13.365l1.8715 0.50146z" clip-path="url(#clipPath4659)"/>
 </g>
 <g fill="#fff">
  <path style="color:#000000" d="m13.349 15.456-5.0631 5.3727 1.962 0.52573c-1.3855 7.1507 2.9842 14.258 10.128 16.172 5.0064 1.3415 10.101-0.20688 13.524-3.6233l-2.1473-2.1283c-2.6833 2.6842-6.6678 3.9074-10.6 2.8538-5.542-1.485-8.9387-6.9444-7.9766-12.49l1.8715 0.50146-1.6984-7.1844z"/>
  <path style="color:#000000" d="m27.593 10.473c-4.997-1.339-10.094 0.19-13.516 3.593l2.1392 2.1585c2.6833-2.6842 6.6678-3.9074 10.6-2.8538 5.542 1.485 8.9387 6.9444 7.9766 12.49l-1.8715-0.50146 1.6984 7.1844 5.0631-5.3727-1.962-0.52573c1.3855-7.1507-2.9842-14.258-10.128-16.172z"/>
 </g>
 <path opacity=".4" style="color:#000000" d="m2 0c-1.108 0-2 0.892-2 2v44c0 1.108 0.892 2 2 2h44c1.108 0 2-0.892 2-2v-44c0-1.108-0.892-2-2-2h-44zm0 0.5h44c0.83101 0 1.5 0.66899 1.5 1.5v44c0 0.83101-0.66899 1.5-1.5 1.5h-44c-0.831 0-1.5-0.669-1.5-1.5v-44c0-0.831 0.669-1.5 1.5-1.5z" fill="url(#linearGradient12443)"/>
</svg>
