<svg xmlns:rdf="http://www.w3.org/1999/02/22-rdf-syntax-ns#" xmlns="http://www.w3.org/2000/svg" height="48" width="48" version="1.1" xmlns:cc="http://creativecommons.org/ns#" xmlns:xlink="http://www.w3.org/1999/xlink" xmlns:dc="http://purl.org/dc/elements/1.1/">
 <defs>
  <linearGradient id="linearGradient12443" y2="3" gradientUnits="userSpaceOnUse" x2="27.5" y1=".5" x1="27.5">
   <stop stop-color="#fff" offset="0"/>
   <stop stop-color="#fff" stop-opacity="0" offset="1"/>
  </linearGradient>
  <filter id="filter10011" height="1.214" width="1.2732" y="-.10701" x="-.13658">
   <feGaussianBlur stdDeviation="1.1129167"/>
  </filter>
  <clipPath id="clipPath10033" clipPathUnits="userSpaceOnUse">
   <path opacity=".35" d="m15.125 11.531c-5.3333 0-5.3438 5.3438-5.3438 5.3438v5.2812c0 1.7833 3.5625 5.4062 3.5625 5.4062v1.7812l-5.344 3.563v3.563l11.531 11.531h26.469c1.108 0 2-0.892 2-2v-7.5312l-25.531-25.5-0.0625-0.0625c-0.196-0.196-0.408-0.396-0.656-0.562-0.221-0.148-0.483-0.261-0.75-0.375-0.034-0.015-0.059-0.049-0.094-0.063-0.154-0.061-0.299-0.107-0.468-0.156-0.255-0.073-0.552-0.117-0.844-0.156-0.088-0.012-0.19-0.023-0.282-0.032-0.203-0.017-0.434-0.031-0.656-0.031h-3.5312z"/>
  </clipPath>
 </defs>
 <g transform="translate(0 -1004.4)">
  <rect style="color:#000000" ry="2" height="48" width="48" y="1004.4" x="0" fill="#009100"/>
  <g transform="matrix(.35545 0 0 .14361 171.12 1002.5)"></g>
  <g transform="matrix(.32314 0 0 .32314 -55.272 805.26)"></g>
  <path fill="#fff" d="m31.11 1019.4h-3.5533v7.0733c0 1.7834-3.5567 5.4067-3.5567 5.4067l7.11 3.5633v3.5667l8.89-0.053v-1.7834l-7.11-3.51v-1.7833s3.5667-3.6233 3.5533-5.4033v-1.73c0-5.3467-5.3333-5.3467-5.3333-5.3467z"/>
 </g>
 <g>
  <g transform="matrix(1.1 0 0 .44444 241.16 29.369)"></g>
  <g transform="translate(-459.44 -580.99)"></g>
  <path opacity=".35" d="m15.125 11.531c-5.3333 0-5.3438 5.344-5.3438 5.344v5.281c0 1.784 3.5628 5.406 3.5628 5.406v1.782l-5.344 3.562v3.563l11.531 11.531h26.469c1.108 0 2-0.892 2-2v-7.531l-25.531-25.5-0.063-0.063c-0.196-0.196-0.408-0.396-0.656-0.562-0.221-0.148-0.483-0.261-0.75-0.375-0.034-0.015-0.059-0.049-0.094-0.063-0.154-0.061-0.299-0.107-0.468-0.156-0.255-0.073-0.552-0.117-0.844-0.156-0.088-0.012-0.19-0.023-0.282-0.032-0.203-0.017-0.434-0.031-0.656-0.031h-3.531z"/>
  <path opacity=".6" d="m18.667 11.52h-3.5567c-5.3333 0-5.3333 5.35-5.3333 5.35v5.29c0 1.7833 3.5567 5.4067 3.5567 5.4067v1.7833l-5.3333 3.5633v3.5667h19.557v-3.5667l-7.1133-3.5633v-1.7833s3.57-3.6233 3.5567-5.4067v-5.29s0-5.35-5.3333-5.35z" clip-path="url(#clipPath10033)" filter="url(#filter10011)"/>
 </g>
 <g>
  <path fill="#fff" d="m18.667 11.52h-3.5567c-5.3333 0-5.3333 5.35-5.3333 5.35v5.29c0 1.7833 3.5567 5.4067 3.5567 5.4067v1.7833l-5.3333 3.5633v3.5667h19.557v-3.5667l-7.1133-3.5633v-1.7833s3.57-3.6233 3.5567-5.4067v-5.29s0-5.35-5.3333-5.35z"/>
 </g>
 <g>
  <path opacity=".4" style="color:#000000" d="m2 0c-1.108 0-2 0.892-2 2v44c0 1.108 0.892 2 2 2h44c1.108 0 2-0.892 2-2v-44c0-1.108-0.892-2-2-2h-44zm0 0.5h44c0.83101 0 1.5 0.66899 1.5 1.5v44c0 0.83101-0.66899 1.5-1.5 1.5h-44c-0.831 0-1.5-0.669-1.5-1.5v-44c0-0.831 0.669-1.5 1.5-1.5z" fill="url(#linearGradient12443)"/>
 </g>
</svg>
