<svg xmlns:rdf="http://www.w3.org/1999/02/22-rdf-syntax-ns#" xmlns="http://www.w3.org/2000/svg" height="48" width="48" version="1.1" xmlns:cc="http://creativecommons.org/ns#" xmlns:xlink="http://www.w3.org/1999/xlink" xmlns:dc="http://purl.org/dc/elements/1.1/">
 <defs>
  <linearGradient id="linearGradient12443" y2="3" gradientUnits="userSpaceOnUse" y1=".5" x2="27.5" x1="27.5">
   <stop stop-color="#fff" offset="0"/>
   <stop stop-color="#fff" stop-opacity="0" offset="1"/>
  </linearGradient>
  <filter id="filter4470" height="1.6168" width="1.584" y="-.30842" x="-.29202">
   <feGaussianBlur stdDeviation="3.3412654"/>
  </filter>
  <clipPath id="clipPath4492" clipPathUnits="userSpaceOnUse">
   <path opacity=".3" d="m28.281 11c-0.38298-0.015-0.70131 0.2118-0.65625 0.625v0.9375c0.0028 0.10754 0.03337 0.20615 0.0625 0.28125 0.0077 0.0185 0.02221 0.04583 0.03125 0.0625 0.02417 0.04365 0.03048 0.09298 0.0625 0.125l0.09375 0.0625 1.6875 1.7188c-0.09694 0.1073-0.23638 0.23452-0.40625 0.40625l-2.2812 2.375-6.4375-6.4375c-0.08266-0.08266-0.18155-0.12887-0.34375-0.125h-9.25c-0.33792-0.015-0.58502 0.2799-0.5625 0.625v1.0312c-0.00035 0.08677 0.0032 0.17452 0.03125 0.25 0.02085 0.0575 0.05938 0.10806 0.09375 0.15625 0.01247 0.01766 0.0172 0.0463 0.03125 0.0625 0.0091 0.01035 0.02154 0.02154 0.03125 0.03125l0.15625 0.125 1.6562 1.6562v0.03125 21.531c-0.0083 0.0885-0.01311 0.18777 0 0.25 0.0079 0.0311 0.01605 0.06838 0.03125 0.09375 0.01199 0.02047 0.01402 0.04527 0.03125 0.0625l11.064 11.064h22.594c1.108 0 2-0.892 2-2v-24.406l-10.344-10.344c-0.01519-0.03494-0.03721-0.06556-0.0625-0.09375-0.0095-0.0095-0.02057-0.02275-0.03125-0.03125-0.03337-0.02893-0.07961-0.04528-0.125-0.0625-0.0085-0.0029-0.02235 0.0024-0.03125 0-0.0577-0.01753-0.11428-0.03502-0.1875-0.03125l-8.937-0.031z" fill-rule="evenodd" stroke-width=".25"/>
  </clipPath>
 </defs>
 <g transform="translate(0 -1004.4)">
  <rect style="color:#000000" ry="2" height="48" width="48" y="1004.4" x="0" fill="#009100"/>
 </g>
 <g>
  <flowRoot style="word-spacing:0px;letter-spacing:0px" line-height="125%" xml:space="preserve" font-size="40px" transform="translate(-18.262 -1007.9)" font-family="sans-serif" fill="#000000"><flowRegion><rect y="6.6343" width="57.629" x="-53.033" height="49.321"/></flowRegion><flowPara/></flowRoot>
  <path opacity=".3" d="m28.281 11c-0.383-0.015-0.701 0.212-0.656 0.625v0.937c0.003 0.108 0.033 0.207 0.063 0.282 0.007 0.018 0.022 0.046 0.031 0.062 0.024 0.044 0.03 0.093 0.062 0.125l0.094 0.063 1.687 1.718c-0.096 0.108-0.236 0.235-0.406 0.407l-2.281 2.375-6.437-6.438c-0.083-0.082-0.182-0.129-0.344-0.125h-9.25c-0.338-0.015-0.585 0.28-0.563 0.625v1.032c0 0.086 0.003 0.174 0.031 0.25 0.021 0.057 0.06 0.108 0.094 0.156 0.013 0.017 0.017 0.046 0.032 0.062 0.009 0.011 0.021 0.022 0.031 0.032l0.156 0.124 1.656 1.657v0.031 21.531c-0.008 0.089-0.013 0.188 0 0.25 0.008 0.031 0.016 0.069 0.031 0.094 0.012 0.02 0.015 0.045 0.032 0.063l11.062 11.062h22.594c1.108 0 2-0.892 2-2v-24.406l-10.344-10.344c-0.015-0.035-0.037-0.066-0.062-0.094-0.01-0.009-0.021-0.022-0.032-0.031-0.033-0.029-0.079-0.045-0.124-0.063-0.009-0.002-0.023 0.003-0.032 0-0.057-0.017-0.114-0.035-0.187-0.031l-8.938-0.031z" fill-rule="evenodd" stroke-width=".25"/>
  <path filter="url(#filter4470)" d="m28.295 11.001c-0.38298-0.015-0.71514 0.2168-0.67008 0.63v0.9379c0.01506 0.5645 0.44261 0.6451 0.7505 0.63h1.0855c0.28536 0.1204 0.40043 0.2844 0.41545 0.63-0.03528 0.7111-0.04423 0.7068-0.72369 1.3937l-10.252 10.534-0.04021-12.343h1.1793c0.21777-0.024 0.49852-0.2656 0.53607-0.5359v-1.3807c-0.0077-0.2626-0.17297-0.463-0.49586-0.4553h-9.2472c-0.33792-0.015-0.57199 0.2844-0.54947 0.6295l-0.01342 1.0322c-0.0014 0.3471 0.24748 0.6266 0.56288 0.6565h1.4608l-0.02679 23.185c-0.0225 0.2403 0.02075 0.3733 0.20102 0.4558h1.9432c0.25533-0.024 0.59754-0.3322 0.89791-0.6701l21.925-22.3c0.2403-0.2629 0.50338-0.5684 0.49586-0.8309l-0.04021-1.7824c0-0.2329-0.17619-0.4037-0.46906-0.3886l-8.9255-0.027z" fill-rule="evenodd" clip-path="url(#clipPath4492)" stroke-width=".25"/>
 </g>
 <g>
  <path d="m28.295 11.001c-0.38298-0.015-0.71514 0.2168-0.67008 0.63v0.9379c0.01506 0.5645 0.44261 0.6451 0.7505 0.63h1.0855c0.28536 0.1204 0.40043 0.2844 0.41545 0.63-0.03528 0.7111-0.04423 0.7068-0.72369 1.3937l-10.252 10.534-0.04021-12.343h1.1793c0.21777-0.024 0.49852-0.2656 0.53607-0.5359v-1.3807c-0.0077-0.2626-0.17297-0.463-0.49586-0.4553h-9.2472c-0.33792-0.015-0.57199 0.2844-0.54947 0.6295l-0.01342 1.0322c-0.0014 0.3471 0.24748 0.6266 0.56288 0.6565h1.4608l-0.02679 23.185c-0.0225 0.2403 0.02075 0.3733 0.20102 0.4558h1.9432c0.25533-0.024 0.59754-0.3322 0.89791-0.6701l21.925-22.3c0.2403-0.2629 0.50338-0.5684 0.49586-0.8309l-0.04021-1.7824c0-0.2329-0.17619-0.4037-0.46906-0.3886l-8.9255-0.027z" fill-rule="evenodd" stroke-width=".25" fill="#fff"/>
 </g>
 <path opacity=".4" style="color:#000000" d="m2 0c-1.108 0-2 0.892-2 2v44c0 1.108 0.892 2 2 2h44c1.108 0 2-0.892 2-2v-44c0-1.108-0.892-2-2-2h-44zm0 0.5h44c0.83101 0 1.5 0.66899 1.5 1.5v44c0 0.83101-0.66899 1.5-1.5 1.5h-44c-0.831 0-1.5-0.669-1.5-1.5v-44c0-0.831 0.669-1.5 1.5-1.5z" fill="url(#linearGradient12443)"/>
</svg>
