<svg xmlns:rdf="http://www.w3.org/1999/02/22-rdf-syntax-ns#" xmlns="http://www.w3.org/2000/svg" height="48" width="48" version="1.1" xmlns:cc="http://creativecommons.org/ns#" xmlns:xlink="http://www.w3.org/1999/xlink" xmlns:dc="http://purl.org/dc/elements/1.1/">
 <defs>
  <linearGradient id="linearGradient12443" y2="3" gradientUnits="userSpaceOnUse" x2="27.5" y1=".5" x1="27.5">
   <stop stop-color="#fff" offset="0"/>
   <stop stop-color="#fff" stop-opacity="0" offset="1"/>
  </linearGradient>
 </defs>
 <g transform="translate(0 -1004.4)">
  <rect style="color:#000000" ry="2" height="48" width="48" y="1004.4" x="0" fill="#0084c8"/>
 </g>
 <g>
  <flowRoot style="word-spacing:0px;letter-spacing:0px" xml:space="preserve" transform="translate(-18.262 -1007.9)" line-height="125%" font-size="40px" font-family="sans-serif" fill="#000000"><flowRegion><rect y="6.6343" x="-53.033" width="57.629" height="49.321"/></flowRegion><flowPara/></flowRoot>
  <path opacity=".25" d="m23.906 5.5938c-0.046-0.0042-0.079 0.019-0.125 0.0312-0.017 0.0075-0.015-0.0095-0.031 0l-15.5 6.687c-0.0175 0.007-0.0464 0.022-0.0625 0.032-0.0165 0.009-0.0164 0.02-0.0313 0.031-0.0565 0.045-0.0991 0.089-0.125 0.156-0.0058 0.015 0.0042 0.016 0 0.031-0.005 0.019-0.0292 0.044-0.0312 0.063-0.0009 0.009 0.0003 0.023 0 0.031-0.0009 0.017-0.0009 0.046 0 0.063l0.5 16.469c0.0017 0.13 0.0797 0.239 0.1875 0.312l5.7505 4.219c-0.001 0.089-0.004 0.185 0 0.281 0.076 2.241 1.093 4.255 2.687 5.75l8.25 8.25h20.625c1.108 0 2-0.892 2-2v-25.312l-8.094-8.094c-0.025-0.037-0.056-0.036-0.094-0.063-0.028-0.021-0.029-0.081-0.062-0.093l-15.656-6.813c-0.043-0.0203-0.141-0.0271-0.188-0.0312z" fill-rule="evenodd"/>
 </g>
 <g>
  <path d="m10 16v13.5l12.5 8v-14.5z" fill="#19aeff"/>
  <path d="m25 23 13-8.5v14.5l-13 9z" fill="#0084c8"/>
  <path d="m24 6.5-13.5 6 13.5 8.5 13-8z" fill="#19aeff"/>
  <path d="m23.921 5.594c-0.04651-0.00417-0.08486 0.013885-0.13071 0.0261-0.01722 0.00754-0.03622-0.00946-0.05229 0l-15.502 6.6929c-0.017475 0.0067-0.036224 0.01681-0.052285 0.0261-0.016474 0.0092-0.011298 0.0148-0.026101 0.0261-0.056551 0.04451-0.10486 0.08963-0.13071 0.15686-0.00585 0.01439 0.00417 0.03714 0 0.05228-0.00501 0.01823-0.024098 0.03329-0.026101 0.05228-0.0008533 0.0086 0.00032 0.01756 0 0.0261-0.0008533 0.01681-0.0008533 0.03505 0 0.05228l0.49671 16.496c0.00167 0.13035 0.075205 0.2404 0.183 0.31371l5.7513 4.2089c-0.000321 0.08953-0.0033 0.19115 0 0.28757 0.16362 4.7975 4.6238 8.537 9.8819 8.3917 5.2018-0.1437 9.3507-4.0553 9.2806-8.7839l5.0716-3.7645c0.09151-0.0732 0.15322-0.19659 0.15686-0.31371l1.1764-16.653c0.0059-0.0445-0.01748-0.08771-0.0261-0.13071-0.0033-0.01539 0.005-0.03756 0-0.05229-0.01196-0.03547-0.03078-0.07353-0.05228-0.10457-0.02568-0.03706-0.06751-0.0517-0.10457-0.07839-0.02844-0.02126-0.04584-0.0655-0.07839-0.07839l-15.66-6.8229c-0.043-0.0204-0.11-0.0219-0.156-0.0261zm0.079 1.9346 11.424 5.2544-11.346 6.876-11.398-6.797 11.32-5.3334zm13.568 9.0454-0.758 11.189-10.771 7.921 0.183-12.052 11.346-7.058zm-26.953 0.157 11.084 6.797 0.183 12.313-10.875-7.738-0.392-11.372z" fill-rule="evenodd" filter="url(#filter1111)" fill="#fff"/>
  <g transform="matrix(.12565 -.0012861 .0012838 .12587 26.584 7.6481)" stroke="#fff" stroke-width="5" fill="#19aeff">
   <path d="m-91.66 40.482 71.02-33.305 71.139 34.134-71.912 41.546z"/>
   <path d="m-46.151 19.14 11.19 9.2261-16.315 18.646 39.622-15.538-12.431 17.092l25.639-10.877-15.538 20.2 13.207 10.876"/>
  </g>
 </g>
 <path opacity=".4" style="color:#000000" d="m2 0c-1.108 0-2 0.892-2 2v44c0 1.108 0.892 2 2 2h44c1.108 0 2-0.892 2-2v-44c0-1.108-0.892-2-2-2h-44zm0 0.5h44c0.83101 0 1.5 0.66899 1.5 1.5v44c0 0.83101-0.66899 1.5-1.5 1.5h-44c-0.831 0-1.5-0.669-1.5-1.5v-44c0-0.831 0.669-1.5 1.5-1.5z" fill="url(#linearGradient12443)"/>
 <g transform="matrix(1.1 0 0 .44444 243.11 4.5979)"></g>
 <g transform="translate(-457.49 -605.76)"></g>
</svg>
