<svg xmlns:rdf="http://www.w3.org/1999/02/22-rdf-syntax-ns#" xmlns="http://www.w3.org/2000/svg" height="48" width="48" version="1.1" xmlns:cc="http://creativecommons.org/ns#" xmlns:xlink="http://www.w3.org/1999/xlink" xmlns:dc="http://purl.org/dc/elements/1.1/">
 <defs>
  <linearGradient id="linearGradient12443" y2="3" gradientUnits="userSpaceOnUse" y1=".5" x2="27.5" x1="27.5">
   <stop stop-color="#fff" offset="0"/>
   <stop stop-color="#fff" stop-opacity="0" offset="1"/>
  </linearGradient>
 </defs>
 <g transform="translate(0 -1004.4)">
  <rect style="color:#000000" ry="2" height="48" width="48" y="1004.4" x="0" fill="#f60"/>
 </g>
 <g>
  <path opacity=".25" d="m25 10l8 25h5v3h-28l10 10h26c1.108 0 2-0.892 2-2v-13l-23-23z"/>
 </g>
 <g>
  <path fill="#fff" d="m23 10l-1.75 5.5h5.5l-1.75-5.5h-2zm-3.375 10.5l-1.594 5h11.938l-1.594-5h-8.75zm-3.187 10l-1.438 4.5h-5v3h28v-3h-5l-1.438-4.5h-15.124z"/>
 </g>
 <g>
  <path opacity=".4" style="color:#000000" d="m2 0c-1.108 0-2 0.892-2 2v44c0 1.108 0.892 2 2 2h44c1.108 0 2-0.892 2-2v-44c0-1.108-0.892-2-2-2h-44zm0 0.5h44c0.83101 0 1.5 0.66899 1.5 1.5v44c0 0.83101-0.66899 1.5-1.5 1.5h-44c-0.831 0-1.5-0.669-1.5-1.5v-44c0-0.831 0.669-1.5 1.5-1.5z" fill="url(#linearGradient12443)"/>
 </g>
</svg>
