<svg xmlns:rdf="http://www.w3.org/1999/02/22-rdf-syntax-ns#" xmlns="http://www.w3.org/2000/svg" height="48" width="48" version="1.1" xmlns:cc="http://creativecommons.org/ns#" xmlns:xlink="http://www.w3.org/1999/xlink" xmlns:dc="http://purl.org/dc/elements/1.1/">
 <defs>
  <linearGradient id="linearGradient4571-5" y2="3" gradientUnits="userSpaceOnUse" y1=".5" x2="27.5" x1="27.5">
   <stop stop-color="#fff" offset="0"/>
   <stop stop-color="#fff" stop-opacity="0" offset="1"/>
  </linearGradient>
 </defs>
 <g transform="translate(0 -1004.4)">
  <rect style="color:#000000" ry="2" height="48" width="48" y="1004.4" x="0" fill="#364e59"/>
  <path id="use3877-3" fill="#ccc" d="m51 2019.7 5-5h-4l-5 5h4z"/>
  <use id="use3879-4" xlink:href="#use3877-3" transform="translate(8 1004.4)" height="48" width="48" y="0" x="0"/>
  <use id="use3881-8" xlink:href="#use3879-4" transform="translate(8 1004.4)" height="48" width="48" y="0" x="0"/>
  <use xlink:href="#use3881-8" transform="translate(8 1004.4)" height="48" width="48" y="0" x="0"/>
  <rect stroke-linejoin="round" style="color:#000000" ry="1.7708" height="38.072" width="42.072" stroke="#0e232e" stroke-linecap="round" y="1007.3" x="2.9639" stroke-width="1.9277" fill="#0e232e"/>
  <path style="color:#000000" d="m33 45c0 0.55228-0.44772 1-1 1s-1-0.44772-1-1 0.44772-1 1-1 1 0.44772 1 1z" transform="translate(5 1004.4)" fill="#9eabb0"/>
  <path style="color:#000000" d="m40 45c0 1.1046-0.89543 2-2 2s-2-0.89543-2-2 0.89543-2 2-2 2 0.89543 2 2z" transform="translate(4 1004.4)" fill="#9eabb0"/>
  <g transform="translate(0 1004.4)">
   <path opacity=".25" d="m25 10 8 25h5v3h-28l10 10h26c1.108 0 2-0.892 2-2v-13l-23-23z"/>
  </g>
  <path d="m23 10-8 25h18l-8-25z" transform="translate(0 1004.4)" fill="#e0e0e0"/>
  <g fill="#f60" transform="translate(0 1004.4)">
   <path fill="#f60" d="m23 10-1.75 5.5h5.5l-1.75-5.5h-2zm-3.375 10.5-1.5938 5h11.938l-1.5938-5h-8.75zm-3.187 10-1.438 4.5h-5v3h28v-3h-5l-1.4375-4.5h-15.125z"/>
  </g>
  <g transform="translate(0 1004.4)">
   <path opacity=".4" style="color:#000000" d="m2 0c-1.108 0-2 0.892-2 2v44c0 1.108 0.892 2 2 2h44c1.108 0 2-0.892 2-2v-44c0-1.108-0.892-2-2-2h-44zm0 0.5h44c0.83101 0 1.5 0.66899 1.5 1.5v44c0 0.83101-0.66899 1.5-1.5 1.5h-44c-0.831 0-1.5-0.669-1.5-1.5v-44c0-0.831 0.669-1.5 1.5-1.5z" fill="url(#linearGradient4571-5)"/>
  </g>
 </g>
 <g>
  <flowRoot style="word-spacing:0px;letter-spacing:0px" xml:space="preserve" transform="translate(-18.262 -1007.9)" line-height="125%" font-size="40px" font-family="sans-serif" fill="#000000"><flowRegion><rect y="6.6343" x="-53.033" width="57.629" height="49.321"/></flowRegion><flowPara/></flowRoot>
  <g transform="translate(-52.885 -3.6656)">
   <flowRoot style="word-spacing:0px;letter-spacing:0px" xml:space="preserve" transform="translate(-18.262 -1007.9)" line-height="125%" font-size="40px" font-family="sans-serif" fill="#000000"><flowRegion><rect y="6.6343" x="-53.033" width="57.629" height="49.321"/></flowRegion><flowPara/></flowRoot>
  </g>
  <path opacity=".4" style="color:#000000" d="m2 0c-1.108 0-2 0.892-2 2v44c0 1.108 0.892 2 2 2h44c1.108 0 2-0.892 2-2v-44c0-1.108-0.892-2-2-2h-44zm0 0.5h44c0.83101 0 1.5 0.66899 1.5 1.5v44c0 0.83101-0.66899 1.5-1.5 1.5h-44c-0.831 0-1.5-0.669-1.5-1.5v-44c0-0.831 0.669-1.5 1.5-1.5z" fill="url(#linearGradient4571-5)"/>
 </g>
</svg>
