<svg xmlns:rdf="http://www.w3.org/1999/02/22-rdf-syntax-ns#" xmlns="http://www.w3.org/2000/svg" height="48" width="48" version="1.1" xmlns:cc="http://creativecommons.org/ns#" xmlns:xlink="http://www.w3.org/1999/xlink" xmlns:dc="http://purl.org/dc/elements/1.1/">
 <defs>
  <linearGradient id="linearGradient12443" y2="3" gradientUnits="userSpaceOnUse" x2="27.5" y1=".5" x1="27.5">
   <stop stop-color="#fff" offset="0"/>
   <stop stop-color="#fff" stop-opacity="0" offset="1"/>
  </linearGradient>
 </defs>
 <g transform="translate(0 -1004.4)">
  <rect style="color:#000000" ry="2" height="48" width="48" y="1004.4" x="-.0625" fill="#19aeff"/>
  <path opacity=".25" style="color:#000000" d="m2.5 3.5l11.906 44.5h13.782l-25.688-44.5z" transform="translate(0 1004.4)" fill="#fff"/>
  <path opacity=".25" style="color:#000000" d="m2.5 3.5l44.312 44.312c0.671-0.322 1.126-1.015 1.126-1.812v-16.281l-45.438-26.219z" transform="translate(0 1004.4)" fill="#fff"/>
  <path opacity=".25" style="color:#000000" d="m2.5 3.5l45.438 12.188v-12.188h-45.438z" transform="translate(0 1004.4)" fill="#fff"/>
  <path opacity=".25" style="color:#000000" d="m2.5 3.5l-2.5625 4.4375v38.062c0 1.108 0.892 2 2 2h0.5625v-44.5z" transform="translate(0 1004.4)" fill="#fff"/>
  <path style="color:#000000" d="m1.9375 0c-1.108 0-2 0.892-2 2v10.625c0.8201 0.231 1.6686 0.375 2.5625 0.375 5.2467 0 9.5-4.2533 9.5-9.5 0-1.2419-0.254-2.4126-0.688-3.5h-9.3745z" transform="translate(0 1004.4)" fill="#ffff3e"/>
 </g>
 <g>
  <flowRoot style="word-spacing:0px;letter-spacing:0px" xml:space="preserve" transform="translate(32.627 -1001.2)" line-height="125%" font-size="40px" font-family="sans-serif" fill="#000000"><flowRegion><rect y="6.6343" x="-53.033" width="57.629" height="49.321"/></flowRegion><flowPara/></flowRoot>
  <path opacity=".25" style="color:#000000" d="m21 15c-3.866 0-7 3.134-7 7 0 0.03146-0.000414 0.06239 0 0.09375-2.2825 0.46471-4 2.4825-4 4.9062 0 1.385 0.565 2.6275 1.4688 3.5312l17.5 17.469h16.969c1.108 0 2-0.892 2-2v-13.062l-9.438-9.438c-0.616-0.616-1.378-1.085-2.25-1.312-2.011-2.256-3.466-3.82-6.25-4.188-0.9 0-1.712 0.27-2.438 0.688-1.882-2.129-3.77-3.567-6.562-3.688z"/>
 </g>
 <g>
  <path style="color:#000000" d="m21 15c-3.866 0-7 3.134-7 7 0 0.03146-0.000414 0.06239 0 0.09375-2.2825 0.46471-4 2.4825-4 4.9062 0 2.77 2.23 5 5 5h20c2.77 0 5-2.23 5-5s-2.23-5-5-5h-0.09375c-0.466-2.278-2.49-4-4.906-4-1.0255 0-1.9566 0.3142-2.75 0.84375-0.0019-0.0038-0.02933 0.0038-0.03125 0-1.156-2.276-3.492-3.844-6.219-3.844z" fill="#fff"/>
 </g>
 <g>
  <path opacity=".4" style="color:#000000" d="m2 0c-1.108 0-2 0.892-2 2v44c0 1.108 0.892 2 2 2h44c1.108 0 2-0.892 2-2v-44c0-1.108-0.892-2-2-2h-44zm0 0.5h44c0.83101 0 1.5 0.66899 1.5 1.5v44c0 0.83101-0.66899 1.5-1.5 1.5h-44c-0.831 0-1.5-0.669-1.5-1.5v-44c0-0.831 0.669-1.5 1.5-1.5z" fill="url(#linearGradient12443)"/>
 </g>
</svg>
