<svg xmlns:rdf="http://www.w3.org/1999/02/22-rdf-syntax-ns#" xmlns="http://www.w3.org/2000/svg" height="16" width="16" version="1.1" xmlns:cc="http://creativecommons.org/ns#" xmlns:dc="http://purl.org/dc/elements/1.1/">
 <g transform="translate(-644.57 -451.79)">
  <path style="color:#000000" d="m0 2v13h16v-13h-16zm1 1h2v1h-2v-1zm3 0h8v5h-8v-5zm9 0h2v1h-2v-1zm-12 2h2v1h-2v-1zm12 0h2v1h-2v-1zm-12 2h2v1h-2v-1zm12 0h2v1h-2v-1zm-12 2h2v1h-2v-1zm3 0h8v5h-8v-5zm9 0h2v1h-2v-1zm-12 2h2v1h-2v-1zm12 0h2v1h-2v-1zm-12 2h2v1h-2v-1zm12 0h2v1h-2v-1z" transform="translate(644.57 451.79)" fill="#0084c8"/>
 </g>
</svg>
