<svg xmlns:rdf="http://www.w3.org/1999/02/22-rdf-syntax-ns#" xmlns="http://www.w3.org/2000/svg" height="16" width="16" version="1.1" xmlns:cc="http://creativecommons.org/ns#" xmlns:xlink="http://www.w3.org/1999/xlink" xmlns:dc="http://purl.org/dc/elements/1.1/">
 <g transform="translate(0 -1036.4)">
  <g transform="translate(-29.509 1004.5)">
   <flowRoot style="word-spacing:0px;letter-spacing:0px" xml:space="preserve" transform="translate(-18.262 -1007.9)" line-height="125%" font-size="40px" font-family="sans-serif" fill="#000000"><flowRegion><rect y="6.6343" x="-53.033" width="57.629" height="49.321"/></flowRegion><flowPara/></flowRoot>
  </g>
  <path style="color:#000000" d="m2 1036.4c-1.108 0-2 0.892-2 2v1c0-1.108 0.892-2 2-2h4c2 0 3 2 3 3h5c1.108 0 2-0.108 2 1v-3c0-1.108-0.892-2-2-2z" fill="#0084c8"/>
  <path style="color:#000000" d="m2 1038.4h4c1 0 2 2 2 3h6c1.108 0 2 0.892 2 2v7c0 1.108-0.892 2-2 2h-12c-1.108 0-2-0.892-2-2v-9c0-1.108 0.892-3 2-3z" fill="#0084c8"/>
 </g>
</svg>
