<svg xmlns:rdf="http://www.w3.org/1999/02/22-rdf-syntax-ns#" xmlns="http://www.w3.org/2000/svg" height="16" width="16" version="1.1" xmlns:cc="http://creativecommons.org/ns#" xmlns:dc="http://purl.org/dc/elements/1.1/">
 <g transform="translate(-644.57 -451.79)">
  <path style="color:#000000" d="m0 0v16h16v-16h-16zm2 2h1v1h-1v-1zm3 0h6v5h-6v-5zm8 0h1v1h-1v-1zm-11 3h1v1h-1v-1zm11 0h1v1h-1v-1zm-11 3h1v1h-1v-1zm11 0h1v1h-1v-1zm-8 1h6v5h-6v-5zm-3 2h1v1h-1v-1zm11 0h1v1h-1v-1zm-11 3h1v1h-1v-1zm11 0h1v1h-1v-1z" transform="translate(644.57 451.79)" fill="#0084c8"/>
 </g>
</svg>
