<svg xmlns:rdf="http://www.w3.org/1999/02/22-rdf-syntax-ns#" xmlns="http://www.w3.org/2000/svg" height="16" width="16" version="1.1" xmlns:cc="http://creativecommons.org/ns#" xmlns:xlink="http://www.w3.org/1999/xlink" xmlns:dc="http://purl.org/dc/elements/1.1/">
 <g transform="translate(-644.57 -451.79)" fill="#0084c8">
  <path style="color:#000000" d="m7.5938 0c-0.4643 0.02787-0.9395 0.12493-1.4063 0.25-3.7343 1.0006-5.9381 4.8282-4.9375 8.5625l1.9375-0.5313c-0.1109-0.4137-0.1875-0.8325-0.1875-1.2812 0-2.7614 2.2386-5 5-5 2.761 0 5 2.2386 5 5 0 0.4487-0.077 0.8675-0.188 1.2812l1.938 0.5313c0.318-1.1869 0.318-2.4381 0-3.625-0.876-3.2675-3.906-5.3826-7.1562-5.1875z" transform="translate(644.57 451.79)"/>
  <path style="color:#000000" d="m646.27 461.93c-1.0702 0.28678-1.6104 1.355-1.3237 2.4252l0.51764 1.9318c0.28677 1.0702 1.2887 1.7252 2.3589 1.4385l1.9319-0.51764-1.5529-5.7956z"/>
  <path style="color:#000000" d="m658.86 461.93c1.0702 0.28678 1.6104 1.355 1.3237 2.4252l-0.51764 1.9318c-0.28677 1.0702-1.2887 1.7252-2.3589 1.4385l-1.9319-0.51764 1.5529-5.7956z"/>
 </g>
</svg>
