<svg xmlns:rdf="http://www.w3.org/1999/02/22-rdf-syntax-ns#" xmlns="http://www.w3.org/2000/svg" height="16" width="16" version="1.1" xmlns:cc="http://creativecommons.org/ns#" xmlns:dc="http://purl.org/dc/elements/1.1/">
 <g transform="translate(0 -1036.4)">
  <path fill="#dc0000" d="m4.9962 1036.6-2.0377 3.6053 3.2604 1.8474 1.7811-3.0393 0.61887 1.0578-0.57358 0.9685h3.3208l1.8113-3.0841-0.8 0.4472-1.0415-1.8027h-5.6755-0.5434-0.12076zm8.8604 5.5716-3.2604 1.8623 1.7811 3.0543h-1.2377l-0.57359-0.9831-1.6604 2.8306 1.8113 3.0985v-0.894h2.1132l2.8377-4.8415 0.2717-0.4618 0.06038-0.1194-2.1434-3.5459zm-13.6 1.1025 0.8 0.4472-1.0566 1.8026 2.8377 4.8415 0.2566 0.4621 0.07547 0.119 4.1811-0.06v-3.7242h-3.5774l0.61887-1.0577h1.1472l-1.6604-2.8309h-3.6226z"/>
 </g>
</svg>
