<svg width="18" xmlns="http://www.w3.org/2000/svg" viewBox="0 0 18 22" height="22">
 <g opacity=".3" transform="matrix(.63311 0 0 .66736 -6.1785 -673.96)">
  <path d="m31.938 1017.4c1.1075-0.038 2.2121 0.5928 2.741 1.5667 0.52886 0.9739 0.45694 2.2441-0.17847 3.1521l-10 15c-0.98688 1.4706-3.3799 1.697-4.625 0.4375l-6-6c-1.2235-1.0844-1.284-3.223-0.12367-4.3747 1.1603-1.1518 3.2984-1.0755 4.3737 0.1559l3.4062 3.4063 7.9688-11.969c0.52534-0.816 1.4674-1.3474 2.4375-1.375z"/>
 </g>
 <g transform="matrix(.63311 0 0 .66736 -6.1785 -674.96)" fill="#dcdcdc">
  <path d="m31.938 1017.4c1.1075-0.038 2.2121 0.5928 2.741 1.5667 0.52886 0.9739 0.45694 2.2441-0.17847 3.1521l-10 15c-0.98688 1.4706-3.3799 1.697-4.625 0.4375l-6-6c-1.2235-1.0844-1.284-3.223-0.12367-4.3747 1.1603-1.1518 3.2984-1.0755 4.3737 0.1559l3.4062 3.4063 7.9688-11.969c0.52534-0.816 1.4674-1.3474 2.4375-1.375z"/>
 </g>
</svg>
