<svg width="24" xmlns="http://www.w3.org/2000/svg" viewBox="0 0 24 22" height="22">
 <g stroke="#000">
  <g opacity=".3" stroke-width=".674" transform="matrix(.3499 0 0 .35343 2.592 -351.57)">
   <rect y="1022.7" width="4.602" height="11.229" rx="1.104" x="2.752"/>
   <path stroke-linejoin="round" stroke-linecap="round" d="m6.8939 1023.3 13.622-11.786v14.943l1.6567 2.4228-1.6567 1.8175v14.58l-13.673-11.379z" stroke-width=".491"/>
  </g>
  <g stroke-linejoin="round" stroke-width="1.645" fill="none">
   <path opacity=".12" d="m12.294 8.8365c1.7297 1.7472 1.7297 4.5799 0.000002 6.3271"/>
   <path opacity=".12" d="m14.578 6.6283c2.937 2.9666 2.937 7.7766 0.000002 10.743"/>
   <path opacity=".12" d="m16.953 4.2926c4.2141 4.2567 4.2141 11.158 0.000003 15.415"/>
  </g>
 </g>
 <g stroke="#dcdcdc">
  <g stroke-width=".674" transform="matrix(.3499 0 0 .35343 2.4056 -352.57)" fill="#dcdcdc">
   <rect y="1022.7" width="4.602" height="11.229" rx="1.104" x="2.752"/>
   <path stroke-linejoin="round" stroke-linecap="round" d="m6.8939 1023.3 13.622-11.786v14.943l1.6567 2.4228-1.6567 1.8175v14.58l-13.673-11.379z" stroke-width=".491"/>
  </g>
  <g stroke-linejoin="round" stroke-width="1.645" fill="none">
   <path opacity=".4" d="m12.108 7.8365c1.7297 1.7472 1.7297 4.5799 0.000002 6.3271"/>
   <path opacity=".4" d="m14.392 5.6283c2.937 2.9666 2.937 7.7766 0.000002 10.743"/>
   <path opacity=".4" d="m16.767 3.2926c4.2141 4.2567 4.2141 11.158 0.000003 15.415"/>
  </g>
 </g>
</svg>
