<svg width="22" xmlns="http://www.w3.org/2000/svg" viewBox="0 0 22 22" height="22">
 <path opacity=".3" xml:space="preserve" d="m7.6667 3c-1.841 0-3.3334 1.511-3.3334 3.375v5.635c0 1.864 1.4924 3.375 3.3333 3.375 1.841 0 3.3334-1.511 3.3334-3.375v-5.635c0-1.864-1.4924-3.375-3.3333-3.375z"/>
 <path opacity=".3" xml:space="preserve" d="m1 12c0 3.3476 2.3984 6.1124 5.5556 6.6445v1.2305h-1.1111v1.125h4.4444v-1.125h-1.1111v-1.2305c3.1572-0.532 5.5552-3.296 5.5552-6.644h-2.2222c0 2.4853-1.9898 4.5-4.4444 4.5-2.4545 0-4.4444-2.015-4.4444-4.5h-2.2222z"/>
 <path opacity=".12" xml:space="preserve" d="m21 5.25a2.2222 2.25 0 0 1 -4.4444 0 2.2222 2.25 0 1 1 4.444 0z"/>
 <path opacity=".12" xml:space="preserve" d="m21 12a2.2222 2.25 0 0 1 -4.444 0 2.2222 2.25 0 1 1 4.444 0z"/>
 <path opacity=".12" xml:space="preserve" d="m21 18.75a2.2222 2.25 0 0 1 -4.4444 0 2.2222 2.25 0 1 1 4.4444 0z"/>
 <g fill="#dcdcdc">
  <path xml:space="preserve" d="m7.6667 2c-1.841 0-3.3334 1.511-3.3334 3.375v5.635c0 1.864 1.4924 3.375 3.3333 3.375 1.841 0 3.3334-1.511 3.3334-3.375v-5.635c0-1.864-1.4924-3.375-3.3333-3.375z"/>
  <path xml:space="preserve" d="m1 11c0 3.3476 2.3984 6.1124 5.5556 6.6445v1.2305h-1.1111v1.125h4.4444v-1.125h-1.1111v-1.2305c3.1572-0.532 5.5552-3.296 5.5552-6.644h-2.2222c0 2.4853-1.9898 4.5-4.4444 4.5-2.4545 0-4.4444-2.015-4.4444-4.5h-2.2222z"/>
  <path opacity=".4" xml:space="preserve" d="m21 4.25a2.2222 2.25 0 0 1 -4.4444 0 2.2222 2.25 0 1 1 4.444 0z"/>
  <path opacity=".4" xml:space="preserve" d="m21 11a2.2222 2.25 0 0 1 -4.444 0 2.2222 2.25 0 1 1 4.444 0z"/>
  <path opacity=".4" xml:space="preserve" d="m21 17.75a2.2222 2.25 0 0 1 -4.4444 0 2.2222 2.25 0 1 1 4.4444 0z"/>
 </g>
</svg>
