<svg width="22" xmlns="http://www.w3.org/2000/svg" viewBox="0 0 22 22" height="22">
 <g opacity=".3" xml:space="preserve" transform="matrix(1.1111 0 0 1.125 -1.2222 -.375)">
<path xml:space="preserve" d="m8 3c-1.6569 0-3 1.3431-3 3v5.0089c0 1.6569 1.3431 3 3 3s3-1.3431 3-3v-5.009c0-1.6569-1.3431-3-3-3z"/>
<path xml:space="preserve" d="m2 11c0 2.9756 2.1586 5.4333 5 5.9062v1.094h-1v1h4v-1h-1v-1.0938c2.841-0.473 5-2.93 5-5.906h-2c0 2.2091-1.7909 4-4 4s-4-1.7909-4-4h-2z"/>
<path xml:space="preserve" d="m20 4a2 2 0 1 1 -4 0 2 2 0 1 1 4 0z" transform="translate(0 1)"/>
<path xml:space="preserve" d="m20 4a2 2 0 1 1 -4 0 2 2 0 1 1 4 0z" transform="translate(0 7)"/>
<path xml:space="preserve" d="m20 4a2 2 0 1 1 -4 0 2 2 0 1 1 4 0z" transform="translate(0 13)"/>
</g>
 <g transform="matrix(1.1111 0 0 1.125 -1.2222 -1.375)" fill="#dcdcdc">
  <path xml:space="preserve" d="m8 3c-1.6569 0-3 1.3431-3 3v5.0089c0 1.6569 1.3431 3 3 3s3-1.3431 3-3v-5.009c0-1.6569-1.3431-3-3-3z"/>
  <path xml:space="preserve" d="m2 11c0 2.9756 2.1586 5.4333 5 5.9062v1.094h-1v1h4v-1h-1v-1.0938c2.841-0.473 5-2.93 5-5.906h-2c0 2.2091-1.7909 4-4 4s-4-1.7909-4-4h-2z"/>
  <path xml:space="preserve" d="m20 4a2 2 0 1 1 -4 0 2 2 0 1 1 4 0z" transform="translate(0 1)"/>
  <path xml:space="preserve" d="m20 4a2 2 0 1 1 -4 0 2 2 0 1 1 4 0z" transform="translate(0 7)"/>
  <path xml:space="preserve" d="m20 4a2 2 0 1 1 -4 0 2 2 0 1 1 4 0z" transform="translate(0 13)"/>
 </g>
</svg>
