<svg width="24" xmlns="http://www.w3.org/2000/svg" viewBox="0 0 24 22" height="22">
 <g stroke-width=".674">
  <g opacity=".3" transform="matrix(.3499 0 0 .35343 2.592 -351.57)" stroke="#000">
   <rect y="1022.7" width="4.602" height="11.229" rx="1.104" x="2.752"/>
   <path stroke-linejoin="round" stroke-linecap="round" d="m6.8939 1023.3 13.622-11.786v14.943l1.6567 2.4228-1.6567 1.8175v14.58l-13.673-11.379z" stroke-width=".491"/>
  </g>
  <g transform="matrix(.3499 0 0 .35343 2.4056 -352.57)" stroke="#55cdef" fill="#55cdef">
   <rect y="1022.7" width="4.602" height="11.229" rx="1.104" x="2.752"/>
   <path stroke-linejoin="round" stroke-linecap="round" d="m6.8939 1023.3 13.622-11.786v14.943l1.6567 2.4228-1.6567 1.8175v14.58l-13.673-11.379z" stroke-width=".491"/>
  </g>
 </g>
 <g opacity=".3" transform="matrix(.74975 0 0 .74963 -35.865 -382.27)">
  <g transform="translate(19 -242)">
   <path style="color:#dcdcdc" d="m45 764h1c0.01037-0.00012 0.02079-0.00046 0.03125 0 0.25495 0.0112 0.50987 0.12858 0.6875 0.3125l2.281 2.28 2.312-2.28c0.266-0.23 0.447-0.3 0.688-0.31h1v1c0 0.28647-0.03434 0.55065-0.25 0.75l-2.2812 2.2812 2.25 2.25c0.188 0.19 0.281 0.45 0.281 0.72v1h-1c-0.2653-0.00001-0.53059-0.0931-0.71875-0.28125l-2.281-2.28-2.281 2.28c-0.188 0.19-0.454 0.28-0.719 0.28h-1v-1c-0.000003-0.26529 0.09306-0.53058 0.28125-0.71875l2.2812-2.25-2.281-2.28c-0.21-0.19-0.303-0.47-0.281-0.75v-1z"/>
  </g>
 </g>
 <g transform="matrix(.74975 0 0 .74963 -21.62 -564.68)" fill="#55cdef">
  <path style="color:#dcdcdc" d="m45 764h1c0.01037-0.00012 0.02079-0.00046 0.03125 0 0.25495 0.0112 0.50987 0.12858 0.6875 0.3125l2.281 2.28 2.312-2.28c0.266-0.23 0.447-0.3 0.688-0.31h1v1c0 0.28647-0.03434 0.55065-0.25 0.75l-2.2812 2.2812 2.25 2.25c0.188 0.19 0.281 0.45 0.281 0.72v1h-1c-0.2653-0.00001-0.53059-0.0931-0.71875-0.28125l-2.281-2.28-2.281 2.28c-0.188 0.19-0.454 0.28-0.719 0.28h-1v-1c-0.000003-0.26529 0.09306-0.53058 0.28125-0.71875l2.2812-2.25-2.281-2.28c-0.21-0.19-0.303-0.47-0.281-0.75v-1z"/>
 </g>
</svg>
