<svg width="24" xmlns="http://www.w3.org/2000/svg" viewBox="0 0 24 22" height="22">
 <g stroke-width=".674">
  <g opacity=".3" transform="matrix(.3499 0 0 .35343 2.592 -351.57)" stroke="#000">
   <rect y="1022.7" width="4.602" height="11.229" rx="1.104" x="2.752"/>
   <path stroke-linejoin="round" stroke-linecap="round" d="m6.8939 1023.3 13.622-11.786v14.943l1.6567 2.4228-1.6567 1.8175v14.58l-13.673-11.379z" stroke-width=".491"/>
  </g>
  <g transform="matrix(.3499 0 0 .35343 2.4056 -352.57)" stroke="#dcdcdc" fill="#dcdcdc">
   <rect y="1022.7" width="4.602" height="11.229" rx="1.104" x="2.752"/>
   <path stroke-linejoin="round" stroke-linecap="round" d="m6.8939 1023.3 13.622-11.786v14.943l1.6567 2.4228-1.6567 1.8175v14.58l-13.673-11.379z" stroke-width=".491"/>
  </g>
 </g>
 <g stroke-width=".332">
  <g stroke="#dcdcdc" fill="#dcdcdc">
   <rect y="10.723" width="2.661" height=".663" rx=".166" x="12.283"/>
   <rect y="10.723" width="2.661" height=".663" rx=".166" x="16.283"/>
   <rect y="10.723" width="2.661" height=".663" rx=".166" x="20.283"/>
  </g>
  <g stroke="#000">
   <rect opacity=".3" rx=".166" height=".663" width="2.661" y="11.729" x="12.283"/>
   <rect opacity=".3" rx=".166" height=".663" width="2.661" y="11.729" x="16.283"/>
   <rect opacity=".3" rx=".166" height=".663" width="2.661" y="11.729" x="20.283"/>
  </g>
 </g>
</svg>
