<svg width="24" xmlns="http://www.w3.org/2000/svg" viewBox="0 0 24 22" height="22">
 <g stroke="#000">
  <g opacity=".3" stroke-width=".674" transform="matrix(.3499 0 0 .35343 2.592 -351.57)">
   <rect y="1022.7" width="4.602" height="11.229" rx="1.104" x="2.752"/>
   <path stroke-linejoin="round" stroke-linecap="round" d="m6.8939 1023.3 13.622-11.786v14.943l1.6567 2.4228-1.6567 1.8175v14.58l-13.673-11.379z" stroke-width=".491"/>
  </g>
  <g opacity=".3" stroke-linejoin="round" transform="matrix(.09349 0 0 .09349 -.68109 19.48)" stroke-width="17.598" fill="none">
   <path d="m138.79-113.84c18.502 18.688 18.502 48.985 0.00002 67.673"/>
   <path d="m163.22-137.45c31.416 31.73 31.416 83.176 0.00002 114.91"/>
   <path d="m188.63-162.44c45.077 45.528 45.077 119.34 0.00003 164.87"/>
  </g>
 </g>
 <g stroke="#dcdcdc">
  <g stroke-width=".674" transform="matrix(.3499 0 0 .35343 2.4056 -352.57)" fill="#dcdcdc">
   <rect y="1022.7" width="4.602" height="11.229" rx="1.104" x="2.752"/>
   <path stroke-linejoin="round" stroke-linecap="round" d="m6.8939 1023.3 13.622-11.786v14.943l1.6567 2.4228-1.6567 1.8175v14.58l-13.673-11.379z" stroke-width=".491"/>
  </g>
  <g stroke-linejoin="round" stroke-width="17.598" transform="matrix(.09349 0 0 .09349 -.86753 18.48)" fill="none">
   <path d="m138.79-113.84c18.502 18.688 18.502 48.985 0.00002 67.673"/>
   <path d="m163.22-137.45c31.416 31.73 31.416 83.176 0.00002 114.91"/>
   <path d="m188.63-162.44c45.077 45.528 45.077 119.34 0.00003 164.87"/>
  </g>
 </g>
</svg>
