<svg width="22" style="enable-background:new" xmlns="http://www.w3.org/2000/svg" viewBox="0 0 22 22" height="22">
 <g opacity=".3" transform="translate(-464 -509)">
  <path d="m473.99 514h2.0114c3.0171 0 2.9543 3.0625 2.9543 3.0625v2.625c0 1-1.76 3.0625-1.76 3.0625v1.3125l3.96 2.1875v1.75h-6.6-5.72v-1.75l3.96-2.1875v-1.3125s-1.7666-2.0625-1.76-3.0625v-2.625s-0.0628-3.0625 2.9543-3.0625z"/>
 </g>
 <g transform="translate(-464 -510)" fill="#dcdcdc">
  <path d="m473.99 514h2.0114c3.0171 0 2.9543 3.0625 2.9543 3.0625v2.625c0 1-1.76 3.0625-1.76 3.0625v1.3125l3.96 2.1875v1.75h-6.6-5.72v-1.75l3.96-2.1875v-1.3125s-1.7666-2.0625-1.76-3.0625v-2.625s-0.0628-3.0625 2.9543-3.0625z"/>
 </g>
</svg>
