<svg width="18" xmlns="http://www.w3.org/2000/svg" viewBox="0 0 18 22" height="22">
 <g opacity=".12" transform="matrix(.09 0 0 .09 -2.52 19.2)">
  <path d="m118.5-180v79.721l-43.819-33.332-14.85 11.82 54.519 41.79-55.35 41.789 17.341 13.055 42.158-33.909v79.064l78.5-58.21-52.02-41.131 50.36-40.558-76.84-60.1zm21.494 38.588 25.648 22.168-25.648 19.622v-41.789zm-0.83073 83.005 27.309 19.54-25.648 17.652-1.6614-37.192z" fill-rule="evenodd"/>
 </g>
 <g opacity=".4" transform="matrix(.09 0 0 .09 -2.52 18.2)" fill="#dcdcdc">
  <path d="m118.5-180v79.721l-43.819-33.332-14.85 11.82 54.519 41.79-55.35 41.789 17.341 13.055 42.158-33.909v79.064l78.5-58.21-52.02-41.131 50.36-40.558-76.84-60.1zm21.494 38.588 25.648 22.168-25.648 19.622v-41.789zm-0.83073 83.005 27.309 19.54-25.648 17.652-1.6614-37.192z" fill-rule="evenodd"/>
 </g>
</svg>
