<svg width="16" xmlns="http://www.w3.org/2000/svg" viewBox="0 0 16 22" height="22">
 <g stroke-linecap="round" fill="none">
  <g opacity=".3" transform="translate(-6)" stroke="#000">
   <path stroke-linejoin="round" stroke-width="1.411" d="m11.789 19.294 3.505-3.74-6.5883-6.6311m-1e-7 6.0661 6.5885-6.6311-3.5516-3.6521"/>
   <path d="m11.507 4.8749 0.08824 14.156"/>
  </g>
  <g stroke="#dcdcdc">
   <path stroke-linejoin="round" stroke-width="1.411" d="m5.7887 18.294 3.5056-3.74-6.5886-6.6314m-1e-7 6.0661l6.5886-6.6314-3.5516-3.6521"/>
   <path d="m5.5075 3.8746 0.0882 14.155"/>
  </g>
 </g>
 <path opacity=".3" d="m13 14c-1.108 0-2 0.91076-2 2.0312v0.96875c-0.554 0-1 0.446-1 1v3c0 0.554 0.446 1 1 1h4c0.554 0 1-0.446 1-1v-3c0-0.554-0.446-1-1-1v-0.96875c0-1.1205-0.892-2.0312-2-2.0312zm0 1c0.554 0 1 0.44236 1 1v1h-2v-1c0-0.55764 0.446-1 1-1z"/>
 <path d="m13 13c-1.108 0-2 0.91076-2 2.0312v0.96875c-0.554 0-1 0.446-1 1v3c0 0.554 0.446 1 1 1h4c0.554 0 1-0.446 1-1v-3c0-0.554-0.446-1-1-1v-0.96875c0-1.1205-0.892-2.0312-2-2.0312zm0 1c0.554 0 1 0.44236 1 1v1h-2v-1c0-0.55764 0.446-1 1-1z" fill="#dcdcdc"/>
</svg>
