<svg height="22" width="22" xmlns="http://www.w3.org/2000/svg" xmlns:xlink="http://www.w3.org/1999/xlink" viewBox="0 0 22 22">
 <rect opacity=".3" rx="3.382" ry="2.665" height="5.329" width="11.771" y="14.671" x="4"/>
 <rect opacity=".3" height="7.334" width="11.771" y="10.037" x="4"/>
 <g opacity=".3" transform="matrix(-.20621 0 0 .20963 34.609 9.7473)">
  <path d="m94.254 9.8005c-3.138 0.000026-5.6185 1.0482-7.4414 3.1445-1.8099 2.0834-2.7148 4.9414-2.7148 8.5742-0.000006 3.737 0.87239 6.6276 2.6172 8.6719 1.7578 2.0313 4.2578 3.0469 7.5 3.0469 1.9922 0.000003 4.2643-0.35807 6.8164-1.0742v2.9102c-1.9792 0.74219-4.4206 1.1133-7.3242 1.1133-4.2057-0.000001-7.4544-1.276-9.7461-3.8281-2.2786-2.5521-3.418-6.1784-3.418-10.879-0.000002-2.9427 0.54687-5.5208 1.6406-7.7344 1.1068-2.2135 2.6953-3.9192 4.7656-5.1172 2.0833-1.1979 4.5312-1.7968 7.3438-1.7969 2.9948 0.000029 5.612 0.5469 7.8516 1.6406l-1.4062 2.8516c-2.1615-1.0156-4.3229-1.5234-6.4844-1.5234"/>
 </g>
 <g fill="#dcdcdc">
  <rect rx="3.382" ry="2.665" height="5.329" width="11.771" y="13.671" x="4"/>
  <rect y="9.037" width="11.771" height="7.334" x="4"/>
  <g transform="matrix(-.20621 0 0 .20963 34.609 8.7473)">
   <path d="m94.254 9.8005c-3.138 0.000026-5.6185 1.0482-7.4414 3.1445-1.8099 2.0834-2.7148 4.9414-2.7148 8.5742-0.000006 3.737 0.87239 6.6276 2.6172 8.6719 1.7578 2.0313 4.2578 3.0469 7.5 3.0469 1.9922 0.000003 4.2643-0.35807 6.8164-1.0742v2.9102c-1.9792 0.74219-4.4206 1.1133-7.3242 1.1133-4.2057-0.000001-7.4544-1.276-9.7461-3.8281-2.2786-2.5521-3.418-6.1784-3.418-10.879-0.000002-2.9427 0.54687-5.5208 1.6406-7.7344 1.1068-2.2135 2.6953-3.9192 4.7656-5.1172 2.0833-1.1979 4.5312-1.7968 7.3438-1.7969 2.9948 0.000029 5.612 0.5469 7.8516 1.6406l-1.4062 2.8516c-2.1615-1.0156-4.3229-1.5234-6.4844-1.5234"/>
  </g>
 </g>
</svg>
