<svg height="22" width="22" xmlns="http://www.w3.org/2000/svg" xmlns:xlink="http://www.w3.org/1999/xlink" viewBox="0 0 22 22">
 <rect opacity=".3" rx="3.382" ry="2.665" height="5.329" width="11.771" y="14.671" x="4"/>
 <rect opacity=".3" height="7.334" width="11.771" y="10.037" x="4"/>
 <g opacity=".3" transform="matrix(-.20621 0 0 .20963 34.609 9.7473)">
  <path d="m94.254 9.8005c-3.138 0.000026-5.6185 1.0482-7.4414 3.1445-1.8099 2.0834-2.7148 4.9414-2.7148 8.5742-0.000006 3.737 0.87239 6.6276 2.6172 8.6719 1.7578 2.0313 4.2578 3.0469 7.5 3.0469 1.9922 0.000003 4.2643-0.35807 6.8164-1.0742v2.9102c-1.9792 0.74219-4.4206 1.1133-7.3242 1.1133-4.2057-0.000001-7.4544-1.276-9.7461-3.8281-2.2786-2.5521-3.418-6.1784-3.418-10.879-0.000002-2.9427 0.54687-5.5208 1.6406-7.7344 1.1068-2.2135 2.6953-3.9192 4.7656-5.1172 2.0833-1.1979 4.5312-1.7968 7.3438-1.7969 2.9948 0.000029 5.612 0.5469 7.8516 1.6406l-1.4062 2.8516c-2.1615-1.0156-4.3229-1.5234-6.4844-1.5234"/>
 </g>
 <g opacity=".3" transform="matrix(.12726 0 0 .1072 -13.605 1.695)">
  <path d="m158.27 21.558c0.13521-0.42872-4.9853 1.6615-7.9688 3.5-1.48 0.91205-4.7965 3.9378-5.6562 5.0938-0.88834 1.1944-1.656 2.5496-2.1875 3.9375-0.53146 1.3877-0.92939 2.8978-1 4.375-0.0711 1.4874 0.0852 3.0972 0.5625 4.5 0.49121 1.4436 1.4201 2.7919 2.3438 4.0312 0.94252 1.2646 2.2235 2.3167 3.2812 3.5 1.0328 1.1553 2.2169 2.2183 3 3.5312 0.78778 1.3209 1.4018 2.8405 1.6875 4.3438 0.25756 1.355 0.16793 2.848-0.0625 4.2188-0.23021 1.3694-0.68661 2.7597-1.3125 4-0.6615 1.3109-1.5208 2.5894-2.5312 3.6562-1.1037 1.1654-3.9291 2.6267-3.8125 3.0625 0.10778 0.4028 4.4033-1.1431 5.8125-1.75 1.221-0.52584 4.4431-2.3642 5.4688-3.2812 0.98224-0.87823 2.0042-1.7644 2.7812-2.8125 0.74662-1.0071 1.4844-2.1764 1.7812-3.375 0.32914-1.329 0.31311-2.8207 0.0937-4.1875-0.24127-1.5033-0.81728-3.0145-1.4688-4.4062-0.64775-1.3838-1.5254-2.6809-2.4062-3.9375-0.89082-1.2709-1.9133-2.46-2.9062-3.6562-0.96771-1.1659-2.164-2.1722-2.9688-3.4375-0.82524-1.2976-1.7188-2.7741-1.9375-4.25-0.20653-1.3942 0.19887-2.9716 0.65625-4.3438 0.47569-1.4271 1.3134-2.767 2.1562-4.0312 0.78707-1.1806 1.8292-2.1981 2.7188-3.3125 1.3073-1.6376 3.526-3.862 3.875-4.9688z"/>
  <path d="m187.18 21.558c0.13521-0.42872-4.9853 1.6615-7.9688 3.5-1.48 0.91205-4.7965 3.9378-5.6562 5.0938-0.88834 1.1944-1.656 2.5496-2.1875 3.9375-0.53146 1.3877-0.92939 2.8978-1 4.375-0.0711 1.4874 0.0852 3.0972 0.5625 4.5 0.49121 1.4436 1.4201 2.7919 2.3438 4.0312 0.94252 1.2646 2.2235 2.3167 3.2812 3.5 1.0328 1.1553 2.2169 2.2183 3 3.5312 0.78778 1.3209 1.4018 2.8405 1.6875 4.3438 0.25756 1.355 0.16793 2.848-0.0625 4.2188-0.23021 1.3694-0.68661 2.7597-1.3125 4-0.6615 1.3109-1.5208 2.5894-2.5312 3.6562-1.1037 1.1654-3.9291 2.6267-3.8125 3.0625 0.10778 0.4028 4.4033-1.1431 5.8125-1.75 1.221-0.52584 4.4431-2.3642 5.4688-3.2812 0.98224-0.87823 2.0042-1.7644 2.7812-2.8125 0.74662-1.0071 1.4844-2.1764 1.7812-3.375 0.32914-1.329 0.31311-2.8207 0.0937-4.1875-0.24127-1.5033-0.81728-3.0145-1.4688-4.4062-0.64775-1.3838-1.5254-2.6809-2.4062-3.9375-0.89082-1.2709-1.9133-2.46-2.9062-3.6562-0.96771-1.1659-2.164-2.1722-2.9688-3.4375-0.82524-1.2976-1.7188-2.7741-1.9375-4.25-0.20653-1.3942 0.19887-2.9716 0.65625-4.3438 0.47569-1.4271 1.3134-2.767 2.1562-4.0312 0.78707-1.1806 1.8292-2.1981 2.7188-3.3125 1.3073-1.6376 3.526-3.862 3.875-4.9688z"/>
  <path d="m216.08 21.558c0.13521-0.42872-4.9853 1.6615-7.9688 3.5-1.48 0.91205-4.7965 3.9378-5.6562 5.0938-0.88834 1.1944-1.656 2.5496-2.1875 3.9375-0.53146 1.3877-0.92939 2.8978-1 4.375-0.0711 1.4874 0.0852 3.0972 0.5625 4.5 0.49121 1.4436 1.4201 2.7919 2.3438 4.0312 0.94252 1.2646 2.2235 2.3167 3.2812 3.5 1.0328 1.1553 2.2169 2.2183 3 3.5312 0.78778 1.3209 1.4018 2.8405 1.6875 4.3438 0.25756 1.355 0.16793 2.848-0.0625 4.2188-0.23021 1.3694-0.68661 2.7597-1.3125 4-0.6615 1.3109-1.5208 2.5894-2.5312 3.6562-1.1037 1.1654-3.9291 2.6267-3.8125 3.0625 0.10778 0.4028 4.4033-1.1431 5.8125-1.75 1.221-0.52584 4.4431-2.3642 5.4688-3.2812 0.98224-0.87823 2.0042-1.7644 2.7812-2.8125 0.74662-1.0071 1.4844-2.1764 1.7812-3.375 0.32914-1.329 0.31311-2.8207 0.0937-4.1875-0.24127-1.5033-0.81728-3.0145-1.4688-4.4062-0.64775-1.3838-1.5254-2.6809-2.4062-3.9375-0.89082-1.2709-1.9133-2.46-2.9062-3.6562-0.96771-1.1659-2.164-2.1722-2.9688-3.4375-0.82524-1.2976-1.7188-2.7741-1.9375-4.25-0.20653-1.3942 0.19887-2.9716 0.65625-4.3438 0.47569-1.4271 1.3134-2.767 2.1562-4.0312 0.78707-1.1806 1.8292-2.1981 2.7188-3.3125 1.3073-1.6376 3.526-3.862 3.875-4.9688z"/>
 </g>
 <g fill="#dcdcdc">
  <rect rx="3.382" ry="2.665" height="5.329" width="11.771" y="13.671" x="4"/>
  <rect y="9.037" width="11.771" height="7.334" x="4"/>
  <g transform="matrix(-.20621 0 0 .20963 34.609 8.7473)">
   <path d="m94.254 9.8005c-3.138 0.000026-5.6185 1.0482-7.4414 3.1445-1.8099 2.0834-2.7148 4.9414-2.7148 8.5742-0.000006 3.737 0.87239 6.6276 2.6172 8.6719 1.7578 2.0313 4.2578 3.0469 7.5 3.0469 1.9922 0.000003 4.2643-0.35807 6.8164-1.0742v2.9102c-1.9792 0.74219-4.4206 1.1133-7.3242 1.1133-4.2057-0.000001-7.4544-1.276-9.7461-3.8281-2.2786-2.5521-3.418-6.1784-3.418-10.879-0.000002-2.9427 0.54687-5.5208 1.6406-7.7344 1.1068-2.2135 2.6953-3.9192 4.7656-5.1172 2.0833-1.1979 4.5312-1.7968 7.3438-1.7969 2.9948 0.000029 5.612 0.5469 7.8516 1.6406l-1.4062 2.8516c-2.1615-1.0156-4.3229-1.5234-6.4844-1.5234"/>
  </g>
  <g transform="matrix(.12726 0 0 .1072 -13.605 .69497)">
   <path d="m158.27 21.558c0.13521-0.42872-4.9853 1.6615-7.9688 3.5-1.48 0.91205-4.7965 3.9378-5.6562 5.0938-0.88834 1.1944-1.656 2.5496-2.1875 3.9375-0.53146 1.3877-0.92939 2.8978-1 4.375-0.0711 1.4874 0.0852 3.0972 0.5625 4.5 0.49121 1.4436 1.4201 2.7919 2.3438 4.0312 0.94252 1.2646 2.2235 2.3167 3.2812 3.5 1.0328 1.1553 2.2169 2.2183 3 3.5312 0.78778 1.3209 1.4018 2.8405 1.6875 4.3438 0.25756 1.355 0.16793 2.848-0.0625 4.2188-0.23021 1.3694-0.68661 2.7597-1.3125 4-0.6615 1.3109-1.5208 2.5894-2.5312 3.6562-1.1037 1.1654-3.9291 2.6267-3.8125 3.0625 0.10778 0.4028 4.4033-1.1431 5.8125-1.75 1.221-0.52584 4.4431-2.3642 5.4688-3.2812 0.98224-0.87823 2.0042-1.7644 2.7812-2.8125 0.74662-1.0071 1.4844-2.1764 1.7812-3.375 0.32914-1.329 0.31311-2.8207 0.0937-4.1875-0.24127-1.5033-0.81728-3.0145-1.4688-4.4062-0.64775-1.3838-1.5254-2.6809-2.4062-3.9375-0.89082-1.2709-1.9133-2.46-2.9062-3.6562-0.96771-1.1659-2.164-2.1722-2.9688-3.4375-0.82524-1.2976-1.7188-2.7741-1.9375-4.25-0.20653-1.3942 0.19887-2.9716 0.65625-4.3438 0.47569-1.4271 1.3134-2.767 2.1562-4.0312 0.78707-1.1806 1.8292-2.1981 2.7188-3.3125 1.3073-1.6376 3.526-3.862 3.875-4.9688z"/>
   <path d="m187.18 21.558c0.13521-0.42872-4.9853 1.6615-7.9688 3.5-1.48 0.91205-4.7965 3.9378-5.6562 5.0938-0.88834 1.1944-1.656 2.5496-2.1875 3.9375-0.53146 1.3877-0.92939 2.8978-1 4.375-0.0711 1.4874 0.0852 3.0972 0.5625 4.5 0.49121 1.4436 1.4201 2.7919 2.3438 4.0312 0.94252 1.2646 2.2235 2.3167 3.2812 3.5 1.0328 1.1553 2.2169 2.2183 3 3.5312 0.78778 1.3209 1.4018 2.8405 1.6875 4.3438 0.25756 1.355 0.16793 2.848-0.0625 4.2188-0.23021 1.3694-0.68661 2.7597-1.3125 4-0.6615 1.3109-1.5208 2.5894-2.5312 3.6562-1.1037 1.1654-3.9291 2.6267-3.8125 3.0625 0.10778 0.4028 4.4033-1.1431 5.8125-1.75 1.221-0.52584 4.4431-2.3642 5.4688-3.2812 0.98224-0.87823 2.0042-1.7644 2.7812-2.8125 0.74662-1.0071 1.4844-2.1764 1.7812-3.375 0.32914-1.329 0.31311-2.8207 0.0937-4.1875-0.24127-1.5033-0.81728-3.0145-1.4688-4.4062-0.64775-1.3838-1.5254-2.6809-2.4062-3.9375-0.89082-1.2709-1.9133-2.46-2.9062-3.6562-0.96771-1.1659-2.164-2.1722-2.9688-3.4375-0.82524-1.2976-1.7188-2.7741-1.9375-4.25-0.20653-1.3942 0.19887-2.9716 0.65625-4.3438 0.47569-1.4271 1.3134-2.767 2.1562-4.0312 0.78707-1.1806 1.8292-2.1981 2.7188-3.3125 1.3073-1.6376 3.526-3.862 3.875-4.9688z"/>
   <path d="m216.08 21.558c0.13521-0.42872-4.9853 1.6615-7.9688 3.5-1.48 0.91205-4.7965 3.9378-5.6562 5.0938-0.88834 1.1944-1.656 2.5496-2.1875 3.9375-0.53146 1.3877-0.92939 2.8978-1 4.375-0.0711 1.4874 0.0852 3.0972 0.5625 4.5 0.49121 1.4436 1.4201 2.7919 2.3438 4.0312 0.94252 1.2646 2.2235 2.3167 3.2812 3.5 1.0328 1.1553 2.2169 2.2183 3 3.5312 0.78778 1.3209 1.4018 2.8405 1.6875 4.3438 0.25756 1.355 0.16793 2.848-0.0625 4.2188-0.23021 1.3694-0.68661 2.7597-1.3125 4-0.6615 1.3109-1.5208 2.5894-2.5312 3.6562-1.1037 1.1654-3.9291 2.6267-3.8125 3.0625 0.10778 0.4028 4.4033-1.1431 5.8125-1.75 1.221-0.52584 4.4431-2.3642 5.4688-3.2812 0.98224-0.87823 2.0042-1.7644 2.7812-2.8125 0.74662-1.0071 1.4844-2.1764 1.7812-3.375 0.32914-1.329 0.31311-2.8207 0.0937-4.1875-0.24127-1.5033-0.81728-3.0145-1.4688-4.4062-0.64775-1.3838-1.5254-2.6809-2.4062-3.9375-0.89082-1.2709-1.9133-2.46-2.9062-3.6562-0.96771-1.1659-2.164-2.1722-2.9688-3.4375-0.82524-1.2976-1.7188-2.7741-1.9375-4.25-0.20653-1.3942 0.19887-2.9716 0.65625-4.3438 0.47569-1.4271 1.3134-2.767 2.1562-4.0312 0.78707-1.1806 1.8292-2.1981 2.7188-3.3125 1.3073-1.6376 3.526-3.862 3.875-4.9688z"/>
  </g>
 </g>
</svg>
