<svg height="22" width="22" xmlns="http://www.w3.org/2000/svg" xmlns:xlink="http://www.w3.org/1999/xlink" viewBox="0 0 22 22">
 <path opacity=".3" d="m19 17.12q0 1.2251-0.90285 2.0524-0.903 0.828-2.24 0.828-1.543 0-2.686-1.047l-8.8796-8.126q-1.2914-1.204-1.2914-2.8375 0-1.6649 1.2571-2.8272 1.2572-1.1623 3.0743-1.1623 1.8058 0 3.1196 1.1832l6.9143 6.3456q0.11423 0.10466 0.11423 0.23037 0 0.16746-0.34858 0.4869-0.34856 0.31938-0.53142 0.31938-0.1485 0-0.26286-0.10466l-6.9246-6.3562q-0.9029-0.8063-2.0686-0.8063-1.2114 0-2.0457 0.78533-0.83428 0.78535-0.83428 1.8953 0 1.0995 0.86858 1.8953l8.8686 8.1361q0.72 0.65969 1.6571 0.65969 0.73142 0 1.2114-0.43978 0.47999-0.43981 0.47999-1.11 0-0.85864-0.72-1.5183l-6.639-6.0836q-0.2976-0.2513-0.6862-0.2513-0.33144 0-0.54858 0.19908-0.21704 0.19886-0.21704 0.5026 0 0.33508 0.28572 0.6178l4.6857 4.2932q0.11423 0.10466 0.11423 0.23037 0 0.16746-0.35429 0.49214-0.35426 0.32461-0.53713 0.32461-0.13708 0-0.25143-0.10466l-4.6857-4.293q-0.72-0.639-0.72-1.5602 0-0.85864 0.65142-1.4555 0.65144-0.59684 1.5886-0.59684 1.0057 0 1.7029 0.65969l6.64 6.0838q1.1429 1.0262 1.1429 2.4607z" fill-opacity=".941"/>
 <path d="m19 16.12q0 1.2251-0.90285 2.0524-0.903 0.828-2.24 0.828-1.543 0-2.686-1.047l-8.8796-8.1258q-1.2914-1.2042-1.2914-2.8377 0-1.6649 1.2571-2.8272 1.2572-1.1623 3.0743-1.1623 1.8058 0 3.1196 1.1832l6.9143 6.3456q0.11423 0.10466 0.11423 0.23037 0 0.16746-0.34858 0.4869-0.34856 0.31938-0.53142 0.31938-0.1485 0-0.26286-0.10466l-6.9246-6.3562q-0.9029-0.8063-2.0686-0.8063-1.2114 0-2.0457 0.78533-0.83428 0.78535-0.83428 1.8953 0 1.0995 0.86858 1.8953l8.8686 8.1361q0.72 0.65969 1.6571 0.65969 0.73142 0 1.2114-0.43978 0.47999-0.43981 0.47999-1.11 0-0.85864-0.72-1.5183l-6.639-6.0836q-0.2976-0.2513-0.6862-0.2513-0.33144 0-0.54858 0.19908-0.21704 0.19886-0.21704 0.5026 0 0.33508 0.28572 0.6178l4.6857 4.2932q0.11423 0.10466 0.11423 0.23037 0 0.16746-0.35429 0.49214-0.35426 0.32461-0.53713 0.32461-0.13708 0-0.25143-0.10466l-4.6857-4.293q-0.72-0.6387-0.72-1.5602 0-0.85864 0.65142-1.4555 0.65144-0.59684 1.5886-0.59684 1.0057 0 1.7029 0.65969l6.64 6.0838q1.1429 1.0262 1.1429 2.4607z" fill="#dcdcdc"/>
</svg>
