<svg width="22" xmlns="http://www.w3.org/2000/svg" viewBox="0 0 22 22" height="22">
 <g>
  <path opacity=".3" d="m6.5 4.5-4.5 3.5 4.5 3-4.5 4 9 6 9-6-4.5-4 4.5-3-4.5-3.5-4.5 3.5-4.5-3.5zm4.5 5c1.7614 0 3.3722 1.0782 4.0625 2.7188l0.938-0.344-0.78125 2.75-2.5312-1.4688 1-0.375c-0.472-1.066-1.531-1.781-2.688-1.781-1.2143 0-2.3001 0.728-2.75 1.875l-1.375-0.531c0.6742-1.721 2.3042-2.844 4.125-2.844zm-4.25 3.8125 2.5625 1.5312-1 0.40625c0.4781 1.074 1.5203 1.751 2.6875 1.751 1.2096 0 2.3147-0.75777 2.75-1.9062l1.375 0.531c-0.653 1.722-2.311 2.875-4.125 2.875-1.774 0-3.3587-1.072-4.0625-2.719l-0.9375 0.407 0.75-2.876z"/>
  <path d="m6.5 3.5l-4.5 3.5 4.5 3-4.5 4 9 6 9-6-4.5-4 4.5-3-4.5-3.5-4.5 3.5-4.5-3.5zm4.5 5c1.761 0 3.372 1.0782 4.062 2.719l0.938-0.344-0.781 2.75-2.531-1.469 1-0.375c-0.472-1.066-1.531-1.781-2.688-1.781-1.2143 0-2.3001 0.728-2.75 1.875l-1.375-0.531c0.6742-1.7211 2.3042-2.844 4.125-2.844zm-4.25 3.812l2.5625 1.532-1 0.406c0.4781 1.073 1.5203 1.75 2.6875 1.75 1.21 0 2.315-0.758 2.75-1.906l1.375 0.531c-0.653 1.722-2.311 2.875-4.125 2.875-1.774 0-3.3587-1.072-4.0625-2.719l-0.9375 0.407 0.75-2.876z" fill="#dcdcdc"/>
 </g>
</svg>
