<svg width="22" xmlns="http://www.w3.org/2000/svg" viewBox="0 0 22 22" height="22">
 <g>
  <path opacity=".3" d="m6.5 4.5-4.5 3.5 4.5 3-4.5 4 9 6 9-6-4.5-4 4.5-3-4.5-3.5-4.5 3.5-4.5-3.5zm2.3125 4.5 2.875 0.75-1.5312 2.5625-0.40625-1c-1.0738 0.479-1.7508 1.521-1.7508 2.688 0 1.2096 0.75777 2.3147 1.9062 2.75l-0.5312 1.375c-1.722-0.653-2.875-2.311-2.875-4.125 0-1.774 1.0719-3.359 2.7188-4.0625l-0.4063-0.9375zm3.8438 0.875c1.721 0.674 2.844 2.304 2.844 4.125 0 1.7614-1.0782 3.3722-2.7188 4.0625l0.344 0.938-2.75-0.78125 1.4688-2.5312 0.375 1c1.066-0.472 1.781-1.531 1.781-2.688 0-1.214-0.728-2.3-1.875-2.75l0.53125-1.375z"/>
  <path d="m6.5 3.5l-4.5 3.5 4.5 3-4.5 4 9 6 9-6-4.5-4 4.5-3-4.5-3.5-4.5 3.5-4.5-3.5zm2.3125 4.5l2.8755 0.75-1.532 2.562-0.406-1c-1.073 0.479-1.75 1.521-1.75 2.688 0 1.21 0.7578 2.315 1.9062 2.75l-0.5312 1.375c-1.722-0.653-2.875-2.311-2.875-4.125 0-1.774 1.0719-3.3587 2.7188-4.0625l-0.4063-0.9375zm3.8435 0.875c1.721 0.6742 2.844 2.304 2.844 4.125 0 1.761-1.078 3.372-2.719 4.062l0.344 0.938-2.75-0.781 1.469-2.531 0.375 1c1.066-0.472 1.781-1.531 1.781-2.688 0-1.214-0.728-2.3-1.875-2.75l0.531-1.375z" fill="#dcdcdc"/>
 </g>
 <g transform="matrix(0 -.02778 .02828 0 32.327 19.59)" fill="#dcdcdc">
  <path d="m383.43 172.5c-25.33-58.24-81.99-95.646-145.86-95.646-65.309 0-125 40.928-148.51 101.83l49.5 19.117c15.672-40.617 55.469-67.894 99.014-67.894 42.02 0 79.197 24.386 96.408 62.332l-36.117 14.428 92.352 53.279 27.01-100.93-33.792 13.492z"/>
  <path d="m237.57 342.1c-41.639 0-79.615-25.115-96.592-62.819l35.6-13.76-91.382-52.12-27.975 98.25 34.08-13.17c24.852 58.018 82.859 96.671 146.27 96.671 65.551 0 123.6-39.336 147.87-100.2l-49.26-19.65c-16.195 40.577-54.888 66.801-98.603 66.801z"/>
 </g>
</svg>
