<svg xmlns="http://www.w3.org/2000/svg" viewBox="0 0 15 22">
 <g stroke-linecap="round" fill="none">
  <path opacity=".3" d="m6.5 4.5h2c2.216 0 4 1.338 4 3v9c0 1.662-1.784 3-4 3h-2c-2.216 0-4-1.338-4-3v-9c0-1.662 1.784-3 4-3zm1.0419 0.000001v4" stroke="#000"/>
  <g stroke="#df382c">
   <g opacity=".3" transform="translate(-5 -1)">
    <path stroke-width="2" d="m12.5 5.3333v3.3333"/>
    <rect transform="rotate(-90)" rx="2.3" ry="3.3" height="8.5" width="13.5" y="8.25" x="-18.75" stroke-width=".5"/>
   </g>
   <path d="m6.5 3.5h2c2.216 0 4 1.338 4 3v9c0 1.662-1.784 3-4 3h-2c-2.216 0-4-1.338-4-3v-9c0-1.662 1.784-3 4-3zm1.0419 0.000001v4"/>
  </g>
 </g>
</svg>
