<svg xmlns="http://www.w3.org/2000/svg" viewBox="0 0 15 22">
 <g transform="translate(0 6)">
  <path opacity=".3" d="m5 7c-0.554 0-1 0.446-1 1v2c0 1.108 1.338 2 3 2h1c1.662 0 3-0.892 3-2v-2c0-0.554-0.446-1-1-1h-5z" fill-rule="evenodd"/>
 </g>
 <g stroke-linecap="round" fill="none">
  <g transform="translate(0 6)">
   <path opacity=".3" d="m6.5-1.5h2c2.216 0 4 1.338 4 3v9c0 1.662-1.784 3-4 3h-2c-2.216 0-4-1.338-4-3v-9c0-1.662 1.784-3 4-3zm1.0419 0.000001v4" stroke="#000"/>
  </g>
  <g transform="translate(0 6)" stroke="#dcdcdc">
   <g opacity=".3" transform="translate(-5 -7)">
    <path stroke-width="2" d="m12.5 5.3333v3.3333"/>
    <rect transform="rotate(-90)" rx="2.3" ry="3.3" height="8.5" width="13.5" y="8.25" x="-18.75" stroke-width=".5"/>
   </g>
   <path d="m6.5-2.5h2c2.216 0 4 1.338 4 3v9c0 1.662-1.784 3-4 3h-2c-2.216 0-4-1.338-4-3v-9c0-1.662 1.784-3 4-3zm1.0419 0.000001v4"/>
  </g>
 </g>
 <g transform="translate(0 6)">
  <path fill="#dcdcdc" d="m5 1c-0.552 0-1 0.448-1 1v7c0 1.108 1.338 2 3 2h1c1.662 0 3-0.892 3-2v-7.125c-0.0088 0.00299-0.02236-0.0029-0.03125 0-0.067-0.4879-0.463-0.875-0.969-0.875-0.552 0-1 0.448-1 1 0 0.554-0.446 1-1 1h-1c-0.554 0-1-0.446-1-1 0-0.552-0.448-1-1-1z" fill-rule="evenodd"/>
 </g>
</svg>
