<svg xmlns="http://www.w3.org/2000/svg" viewBox="0 0 22 22">
 <path opacity=".3" d="m0.50031 12c-0.06925 0-0.12764 0.006-0.1875 0.03125-0.057115 0.02622-0.11296 0.08181-0.15625 0.125l-0.03125 0.03125c-0.032203 0.03814-0.074055 0.07828-0.09375 0.125-0.096075 0.18288-0.063812 0.40533 0.09375 0.5625l2.875 2.875v3.75c0 0.277 0.223 0.5 0.5 0.5s0.5-0.223 0.5-0.5v-3.75l2.875-2.875c0.15756-0.15717 0.18982-0.37962 0.09375-0.5625-0.019695-0.04672-0.061547-0.08686-0.09375-0.125l-0.03125-0.03125c-0.091-0.09-0.2222-0.149-0.3437-0.155h-0.03125-2.9688-2.9688-0.03125z"/>
 <g opacity=".4" transform="translate(-.99969)">
  <path opacity=".3" d="m20 4c-0.554 0-1 0.446-1 1v14c0 0.554 0.446 1 1 1s1-0.446 1-1v-14c0-0.554-0.446-1-1-1zm-4 5c-0.554 0-1 0.446-1 1v9c0 0.554 0.446 1 1 1s1-0.446 1-1v-9c0-0.554-0.446-1-1-1zm-4 4c-0.554 0-1 0.446-1 1v5c0 0.554 0.446 1 1 1s1-0.446 1-1v-5c0-0.554-0.446-1-1-1zm-4 4c-0.554 0-1 0.446-1 1v1c0 0.554 0.446 1 1 1s1-0.446 1-1v-1c0-0.554-0.446-1-1-1z"/>
  <path d="m20 3c-0.554 0-1 0.446-1 1v14c0 0.554 0.446 1 1 1s1-0.446 1-1v-14c0-0.554-0.446-1-1-1zm-4 5c-0.554 0-1 0.446-1 1v9c0 0.554 0.446 1 1 1s1-0.446 1-1v-9c0-0.554-0.446-1-1-1zm-4 4c-0.554 0-1 0.446-1 1v5c0 0.554 0.446 1 1 1s1-0.446 1-1v-5c0-0.554-0.446-1-1-1zm-4 4c-0.554 0-1 0.446-1 1v1c0 0.554 0.446 1 1 1s1-0.446 1-1v-1c0-0.554-0.446-1-1-1z" fill="#dcdcdc"/>
 </g>
 <path d="m0.49985 11c-0.06925 0-0.12764 0.006-0.1875 0.03125-0.057115 0.02622-0.11296 0.08181-0.15625 0.125l-0.03125 0.03125c-0.032203 0.03814-0.074055 0.07828-0.09375 0.125-0.096075 0.18288-0.063812 0.40533 0.09375 0.5625l2.875 2.875v3.75c0 0.277 0.223 0.5 0.5 0.5s0.5-0.223 0.5-0.5v-3.75l2.875-2.875c0.15756-0.15717 0.18982-0.37962 0.09375-0.5625-0.019695-0.04672-0.061547-0.08686-0.09375-0.125l-0.03125-0.03125c-0.091-0.09-0.2223-0.149-0.3437-0.155h-0.03125-2.9688-2.9688-0.03125zm1.2188 1h1.2812v1.25l-1.2812-1.25zm2.2812 0h1.2812l-1.2812 1.2812v-1.2812z" fill="#dcdcdc"/>
 <path opacity=".3" d="m19 14c-1.108 0-2 0.911-2 2.031v0.969c-0.554 0-1 0.446-1 1v3c0 0.554 0.446 1 1 1h4c0.554 0 1-0.446 1-1v-3c0-0.554-0.446-1-1-1v-0.969c0-1.12-0.892-2.031-2-2.031zm0 1c0.554 0 1 0.442 1 1v1h-2v-1c0-0.558 0.446-1 1-1z"/>
 <path d="m19 13c-1.108 0-2 0.911-2 2.031v0.969c-0.554 0-1 0.446-1 1v3c0 0.554 0.446 1 1 1h4c0.554 0 1-0.446 1-1v-3c0-0.554-0.446-1-1-1v-0.969c0-1.12-0.892-2.031-2-2.031zm0 1c0.554 0 1 0.442 1 1v1h-2v-1c0-0.558 0.446-1 1-1z" fill="#dcdcdc"/>
</svg>
