<svg width="22" xmlns="http://www.w3.org/2000/svg" viewBox="0 0 22 22" height="22">
 <path opacity=".3" d="m18.5 16.571c0 0.30952-0.11418 0.57738-0.34255 0.80357-0.22836 0.22619-0.4988 0.33929-0.8113 0.33929h-4.0385c0 0.63095-0.22536 1.1696-0.67608 1.6161-0.451 0.447-0.995 0.67-1.632 0.67s-1.1809-0.223-1.6316-0.67c-0.4507-0.446-0.6761-0.985-0.6761-1.616h-4.0385c-0.3125 0-0.5829-0.113-0.8113-0.339-0.2283-0.226-0.3425-0.494-0.3425-0.804 1.1418-0.958 2.0042-2.141 2.5871-3.549 0.583-1.407 0.8744-2.891 0.8744-4.4506 0-0.98214 0.28846-1.7619 0.86538-2.3393 0.57692-0.57738 1.3702-0.9256 2.3798-1.0446-0.04808-0.10714-0.07212-0.21726-0.07212-0.33036 0-0.2381 0.08413-0.44048 0.2524-0.60714 0.16827-0.16667 0.3726-0.25 0.61298-0.25s0.44471 0.083333 0.61298 0.25 0.2524 0.36905 0.2524 0.60714c0 0.1131-0.02404 0.22321-0.07212 0.33036 1.0096 0.11905 1.8029 0.46726 2.3798 1.0446 0.57692 0.57738 0.86538 1.3571 0.86538 2.3393 0 1.5595 0.29147 3.0432 0.8744 4.4509s1.4453 2.5908 2.5871 3.5491z"/>
 <path d="m18.5 15.571c0 0.30952-0.11418 0.57738-0.34255 0.80357-0.22836 0.22619-0.4988 0.33929-0.8113 0.33929h-4.0385c0 0.63095-0.22536 1.1696-0.67608 1.6161-0.451 0.447-0.995 0.67-1.632 0.67s-1.1809-0.223-1.6316-0.67c-0.4507-0.446-0.6761-0.985-0.6761-1.616h-4.0385c-0.3125 0-0.5829-0.113-0.8113-0.339-0.2283-0.226-0.3425-0.494-0.3425-0.804 1.1418-0.958 2.0042-2.141 2.5871-3.549 0.583-1.407 0.8744-2.891 0.8744-4.4506 0-0.98214 0.28846-1.7619 0.86538-2.3393 0.57692-0.57738 1.3702-0.9256 2.3798-1.0446-0.04808-0.10714-0.07212-0.21726-0.07212-0.33036 0-0.2381 0.08413-0.44048 0.2524-0.60714 0.16827-0.16667 0.3726-0.25 0.61298-0.25s0.44471 0.083333 0.61298 0.25 0.2524 0.36905 0.2524 0.60714c0 0.1131-0.02404 0.22321-0.07212 0.33036 1.0096 0.11905 1.8029 0.46726 2.3798 1.0446 0.57692 0.57738 0.86538 1.3571 0.86538 2.3393 0 1.5595 0.29147 3.0432 0.8744 4.4509s1.4453 2.5908 2.5871 3.5491z" fill="#dcdcdc"/>
</svg>
