<svg width="23" xmlns="http://www.w3.org/2000/svg" viewBox="0 0 23 22" height="22">
 <g opacity=".3" transform="matrix(1.3125 0 0 1.3188 -4.25 6.0655)">
  <path d="m5 0c-0.554 0-1 0.446-1 1v7c0 0.554 0.446 1 1 1h14c0.554 0 1-0.446 1-1v-7c0-0.554-0.446-1-1-1zm2.0476 1.4668h9.9048c0.98481 0 1.5238 0.59074 1.5238 1.5165v3.033c0 0.83709-0.76033 1.5165-1.5238 1.5165h-9.9048c-0.68041 0-1.5238-0.6147-1.5238-1.5165v-3.033c0-0.63477 0.51542-1.5165 1.5238-1.5165z"/>
  <path d="m7 3v1h1v-1z"/>
  <path d="m9 3v1h1v-1z"/>
  <path d="m11 3v1h1v-1z"/>
  <path d="m13 3v1h1v-1z"/>
  <path d="m7 5v1h2.0361v-1z"/>
  <path d="m10 5v1h4.9644v-1z"/>
  <path d="m15 3v1h1v2h1v-3z"/>
 </g>
 <g transform="matrix(1.3125 0 0 1.3188 -4.25 5.0655)" fill="#dcdcdc">
  <path d="m5 0c-0.554 0-1 0.446-1 1v7c0 0.554 0.446 1 1 1h14c0.554 0 1-0.446 1-1v-7c0-0.554-0.446-1-1-1zm2.0476 1.4668h9.9048c0.98481 0 1.5238 0.59074 1.5238 1.5165v3.033c0 0.83709-0.76033 1.5165-1.5238 1.5165h-9.9048c-0.68041 0-1.5238-0.6147-1.5238-1.5165v-3.033c0-0.63477 0.51542-1.5165 1.5238-1.5165z"/>
  <path d="m7 3v1h1v-1z"/>
  <path d="m9 3v1h1v-1z"/>
  <path d="m11 3v1h1v-1z"/>
  <path d="m13 3v1h1v-1z"/>
  <path d="m7 5v1h2.0361v-1z"/>
  <path d="m10 5v1h4.9644v-1z"/>
  <path d="m15 3v1h1v2h1v-3z"/>
 </g>
</svg>
