<svg xmlns="http://www.w3.org/2000/svg" viewBox="0 0 22 22">
 <g fill-rule="evenodd">
  <path opacity=".3" d="m20 16-5 5-5-5h3v-7h4v7h3zm-8-7-5-5-5 5h3v7h4v-7h3z"/>
  <path d="m20 15-5 5-5-5h3v-7h4v7h3zm-8-7-5-5-5 5h3v7h4v-7h3z" fill="#dcdcdc"/>
 </g>
 <path opacity=".3" d="m19 14c-1.108 0-2 0.911-2 2.031v0.969c-0.554 0-1 0.446-1 1v3c0 0.554 0.446 1 1 1h4c0.554 0 1-0.446 1-1v-3c0-0.554-0.446-1-1-1v-0.969c0-1.12-0.892-2.031-2-2.031zm0 1c0.554 0 1 0.442 1 1v1h-2v-1c0-0.558 0.446-1 1-1z"/>
 <path d="m19 13c-1.108 0-2 0.911-2 2.031v0.969c-0.554 0-1 0.446-1 1v3c0 0.554 0.446 1 1 1h4c0.554 0 1-0.446 1-1v-3c0-0.554-0.446-1-1-1v-0.969c0-1.12-0.892-2.031-2-2.031zm0 1c0.554 0 1 0.442 1 1v1h-2v-1c0-0.558 0.446-1 1-1z" fill="#dcdcdc"/>
</svg>
