<svg xmlns="http://www.w3.org/2000/svg" viewBox="0 0 22 22">
 <g opacity=".4" transform="translate(-1 -1)" stroke-linecap="round" stroke-width="1.7" fill="none">
  <path opacity=".3" d="m2.85 11.144s2.8978-3.2944 9.132-3.2944c6.2036 0 9.168 3.3 9.168 3.3" stroke="#000"/>
  <path d="m2.85 10.144s2.8978-3.2944 9.132-3.2944c6.204 0.0004 9.168 3.3004 9.168 3.3004" stroke="#dcdcdc"/>
 </g>
 <g opacity=".4" transform="translate(-1 -1)" stroke-linecap="round" stroke-width="1.7" fill="none">
  <path opacity=".3" d="m5.35 13.753s2.1469-2.2158 6.65-2.1369c4.5405 0.07949 6.65 2.1725 6.65 2.1725" stroke="#000"/>
  <path d="m5.35 12.753s2.1469-2.2158 6.65-2.1369c4.5405 0.07949 6.65 2.1725 6.65 2.1725" stroke="#dcdcdc"/>
 </g>
 <g opacity=".5" transform="translate(-1 -1)" stroke-linecap="round" stroke-width="1.7" fill="none">
  <path opacity=".3" d="m8.35 16.191s0.9669-1.072 3.5987-1.0922c2.599-0.01997 3.7013 1.0922 3.7013 1.0922" stroke="#000"/>
  <path d="m8.35 15.191s0.9669-1.072 3.5987-1.0922c2.599-0.01997 3.7013 1.0922 3.7013 1.0922" stroke="#dcdcdc"/>
 </g>
 <g opacity=".4" transform="translate(-1 -1)" fill-rule="evenodd">
  <path opacity=".3" d="m11.145 18c-0.4719 0-0.8549 0.29867-0.8549 0.66667 0 0.13676 0.0529 0.26394 0.14359 0.36978 0 0 1.0076 0.80144 1.0076 0.80144 0.15 0.101 0.346 0.162 0.559 0.162 0.2533 0 0.48099-0.08605 0.63758-0.22269l0.90091-0.7104c0.10754-0.11149 0.1713-0.25009 0.1713-0.40024 0-0.368-0.38299-0.66667-0.8549-0.66667h-1.7098z"/>
  <path fill="#dcdcdc" d="m11.145 17c-0.4719 0-0.8549 0.29867-0.8549 0.66667 0 0.13676 0.0529 0.26394 0.14359 0.36978 0 0 1.0076 0.80144 1.0076 0.80144 0.15 0.101 0.346 0.162 0.559 0.162 0.2533 0 0.48099-0.08605 0.63758-0.22269l0.90091-0.7104c0.10754-0.11149 0.1713-0.25009 0.1713-0.40024 0-0.368-0.38299-0.66667-0.8549-0.66667h-1.7098z"/>
 </g>
 <path opacity=".3" d="m19 14c-1.108 0-2 0.911-2 2.031v0.969c-0.554 0-1 0.446-1 1v3c0 0.554 0.446 1 1 1h4c0.554 0 1-0.446 1-1v-3c0-0.554-0.446-1-1-1v-0.969c0-1.12-0.892-2.031-2-2.031zm0 1c0.554 0 1 0.442 1 1v1h-2v-1c0-0.558 0.446-1 1-1z"/>
 <path d="m19 13c-1.108 0-2 0.911-2 2.031v0.969c-0.554 0-1 0.446-1 1v3c0 0.554 0.446 1 1 1h4c0.554 0 1-0.446 1-1v-3c0-0.554-0.446-1-1-1v-0.969c0-1.12-0.892-2.031-2-2.031zm0 1c0.554 0 1 0.442 1 1v1h-2v-1c0-0.558 0.446-1 1-1z" fill="#dcdcdc"/>
</svg>
