<svg width="22" xmlns="http://www.w3.org/2000/svg" viewBox="0 0 22 22" height="22">
 <g>
  <g opacity=".3" transform="translate(0 1)">
   <path opacity=".4" d="m11 3c-3.3101 0-6.3986 1.1418-9 3.1213l0.1752 0.2885 1.6861 2.3869c2.0957-1.5059 4.652-2.3881 7.1607-2.3869 2.509 0.0011 5.044 0.8841 7.139 2.3869l1.664-2.3869 0.175-0.2885c-2.601-1.9795-5.69-3.1213-9-3.1213z"/>
   <path opacity=".4" d="m11.022 7.5115c-2.3966 0-4.6389 0.77969-6.5693 2.1246l1.5985 2.282c1.4816-0.94536 3.1824-1.4951 4.9708-1.4951 1.7883 0 3.4716 0.54971 4.9489 1.4951l1.598-2.2819c-1.924-1.3449-4.151-2.1246-6.547-2.1246z"/>
   <path opacity=".4" d="m11.022 11.525c-1.5723 0-3.0659 0.46434-4.3796 1.259l1.6423 2.3344c0.84105-0.41345 1.7548-0.65575 2.7153-0.65575 0.96696 0 1.8936 0.23705 2.7372 0.65575l1.6204-2.3344c-1.3053-0.78811-2.7704-1.259-4.3358-1.259z"/>
   <path opacity=".4" d="m11 15.59c-0.73291 0-1.4265 0.17234-2.0803 0.4459l2.0803 2.964 2.08-2.99c-0.64836-0.26985-1.3526-0.41967-2.0803-0.41967z"/>
  </g>
  <g fill="#dcdcdc">
   <path opacity=".4" d="m11 3c-3.3101 0-6.3986 1.1418-9 3.1213l0.1752 0.2885 1.6861 2.3869c2.0957-1.5059 4.652-2.3881 7.1607-2.3869 2.509 0.0011 5.044 0.8841 7.139 2.3869l1.664-2.3869 0.175-0.2885c-2.601-1.9795-5.69-3.1213-9-3.1213z"/>
   <path opacity=".4" d="m11.022 7.5115c-2.3966 0-4.6389 0.77969-6.5693 2.1246l1.5985 2.282c1.4816-0.94536 3.1824-1.4951 4.9708-1.4951 1.7883 0 3.4716 0.54971 4.9489 1.4951l1.598-2.2819c-1.924-1.3449-4.151-2.1246-6.547-2.1246z"/>
   <path opacity=".4" d="m11.022 11.525c-1.5723 0-3.0659 0.46434-4.3796 1.259l1.6423 2.3344c0.84105-0.41345 1.7548-0.65575 2.7153-0.65575 0.96696 0 1.8936 0.23705 2.7372 0.65575l1.6204-2.3344c-1.3053-0.78811-2.7704-1.259-4.3358-1.259z"/>
   <path opacity=".4" d="m11 15.59c-0.73291 0-1.4265 0.17234-2.0803 0.4459l2.0803 2.964 2.08-2.99c-0.64836-0.26985-1.3526-0.41967-2.0803-0.41967z"/>
  </g>
 </g>
</svg>
