<svg width="18" xmlns="http://www.w3.org/2000/svg" viewBox="0 0 18 22" height="22">
 <g fill-rule="evenodd">
  <path opacity=".3" d="m8 3c-2.216 0-4 1.784-4 4v3h-1c-0.554 0-1 0.446-1 1v9c0 0.554 0.446 1 1 1h12c0.554 0 1-0.446 1-1v-9c0-0.554-0.446-1-1-1h-1v-3c0-2.216-1.784-4-4-4h-2zm0 2h2c1.108 0 2 0.892 2 2v3h-6v-3c0-1.108 0.892-2 2-2z"/>
  <path d="m8 1.9831c-2.216 0-4 1.784-4 4v3h-1c-0.554 0-1 0.446-1 1v9c0 0.554 0.446 1 1 1h12c0.554 0 1-0.446 1-1v-9c0-0.554-0.446-1-1-1h-1v-3c0-2.216-1.784-4-4-4h-2zm0 2h2c1.108 0 2 0.892 2 2v3h-6v-3c0-1.108 0.892-2 2-2z" fill="#dcdcdc"/>
 </g>
</svg>
