<svg width="22" xmlns="http://www.w3.org/2000/svg" viewBox="0 0 22 22" height="22">
 <path opacity=".3" xml:space="preserve" d="m14.366 4.2952c-1.5581-0.027-3.3907 0.386-5.2411 1.2888-2.5641 1.2511-4.4804 3.2058-5.3557 5.3271-0.2387-0.108-0.50447-0.253-0.77327-0.4297-1.2625-0.8298-1.9475-2.0616-1.9475-2.0616s-0.32673 2.4559 0.716 3.9523c0.53719 0.7709 1.099 1.2612 1.5179 1.5466 0.0601 0.6793 0.22682 1.3544 0.54415 2.0048 1.802 3.6931 6.9584 4.8859 11.513 2.6635 3.1316-1.5281 3.8717-3.9181 3.7805-6.9309 0.20352-0.1397 0.37398-0.2755 0.51552-0.4297 0.0837 0.026 0.17503 0.052 0.22912 0.086 0.54564 0.3472 0.68736 1.0311 0.68736 1.0311s0.8034-1.6833 0.25776-3.1218c-0.38468-1.0143-1.3589-1.4612-2.1194-1.5752-0.024-0.1539-0.0324-0.3022-0.0573-0.4582-0.2949-1.8504-1.9901-2.8532-4.2674-2.8927zm-8.3056 0.8879s-0.93733 0.6909-1.3174 1.7184c-0.002 0 0.45824 0.8592 0.45824 0.8592s0.11132-0.1667 0.74464-0.5442c-0.11655-1.0522 0.11456-2.0334 0.11456-2.0334zm8.3475 0.1917c0.76642 0 1.1717 0.5337 1.1717 1.2212s-0.44947 1.1327-1.1717 1.1327-1.2342-0.3115-1.2342-1.1769 0.46778-1.177 1.2342-1.177zm-10.982 0.5821s-0.96902 1.3995-1.0024 2.9785c-0.00019 0.01 1.0597 0.9451 1.0597 0.9451s0.0859-0.3293 0.80191-1.1742c-0.6869-1.3459-0.85919-2.7494-0.85919-2.7494zm13.575 1.432h0.0573c-0.21678 0.062-0.67505 0.316-0.97376 1.1742-0.26246 0.7541-0.17184 1.3174-0.17184 1.3174s-1.0454 0.6444-1.0883 1.9189c-0.0286 0.6158 0.20048 1.2888 1.6325 1.2029 0.48688 0.043 2.1766-0.8019 2.1766-0.8019s-2.1325 1.8916-3.765 1.4763c-1.2466-0.3171-1.2521-1.2618-1.2888-1.6898-0.0859-1.0024 1.117-2.0907 1.117-2.0907s-0.0991-1.1727 0.35923-1.7168c0.89241-1.1103 1.6256-0.7462 1.9451-0.7905z"/>
 <path fill="#55cdef" xml:space="preserve" d="m14.366 3.2952c-1.5581-0.027-3.3907 0.386-5.2411 1.2888-2.5641 1.2511-4.4804 3.2058-5.3557 5.3271-0.2387-0.108-0.50447-0.253-0.77327-0.4297-1.2626-0.8302-1.9475-2.062-1.9475-2.062s-0.32673 2.4559 0.716 3.9523c0.53719 0.7709 1.099 1.2612 1.5179 1.5466 0.0601 0.6793 0.22682 1.3544 0.54415 2.0048 1.802 3.6931 6.9584 4.8859 11.513 2.6635 3.1316-1.5281 3.8717-3.9181 3.7805-6.9309 0.20352-0.1397 0.37398-0.2755 0.51552-0.4297 0.0837 0.026 0.17503 0.052 0.22912 0.086 0.54564 0.3472 0.68736 1.0311 0.68736 1.0311s0.8034-1.6833 0.25776-3.1218c-0.38468-1.0143-1.3589-1.4612-2.1194-1.5752-0.024-0.1539-0.0324-0.3022-0.0573-0.4582-0.2949-1.8504-1.9901-2.8532-4.2674-2.8927zm-8.3056 0.8879s-0.93733 0.6909-1.3174 1.7184c-0.002 0 0.45824 0.8592 0.45824 0.8592s0.11132-0.1667 0.74464-0.5442c-0.11655-1.0522 0.11456-2.0334 0.11456-2.0334zm8.3475 0.1917c0.76642 0 1.1717 0.5337 1.1717 1.2212s-0.44947 1.1327-1.1717 1.1327-1.2342-0.3115-1.2342-1.1769 0.46778-1.177 1.2342-1.177zm-10.982 0.5821s-0.96902 1.3995-1.0024 2.9785c-0.00019 0.01 1.0597 0.9451 1.0597 0.9451s0.0859-0.3293 0.80191-1.1742c-0.6869-1.3459-0.85919-2.7494-0.85919-2.7494zm13.575 1.432h0.0573c-0.21678 0.062-0.67505 0.316-0.97376 1.1742-0.26246 0.7541-0.17184 1.3174-0.17184 1.3174s-1.0454 0.6444-1.0883 1.9189c-0.0286 0.6158 0.20048 1.2888 1.6325 1.2029 0.48688 0.043 2.1766-0.8019 2.1766-0.8019s-2.1325 1.8916-3.765 1.4763c-1.2466-0.3171-1.2521-1.2618-1.2888-1.6898-0.0859-1.0024 1.117-2.0907 1.117-2.0907s-0.0991-1.1727 0.35923-1.7168c0.89241-1.1103 1.6256-0.7462 1.9451-0.7905z"/>
</svg>
