<svg width="22" xmlns="http://www.w3.org/2000/svg" viewBox="0 0 22 22" height="22">
 <g opacity=".3" transform="matrix(.08 0 0 .08 .76 18.4)">
  <path d="m59.719-180c-3.6826 0.3875-6.7386 3.8212-6.7188 7.5v72.5h-17.969-0.78125c-3.4042 0.3875-6.2683 5.3838-6.25 9.0625v84.449c0.000375 3.9269 3.3784 7.5 7.0312 7.5h17.969v11.489c0.00037 3.9269 3.5484 7.5 7.5 7.5h135c3.9516 0 7.4996-3.5731 7.5-7.5v-11.489h17.969c3.6529 0 7.0309-3.5731 7.0312-7.5v-84.449c-0.00038-3.9262-3.3783-9.0619-7.0312-9.0625h-17.969v-59.843c-5-5.0944-25.228-15.167-30-20.157h-112.5-0.78125zm5.7812 12.5h93.75v25h31.25v43.75h-125zm-25 81.25h175l-0.00001 37.5h-175zm168.75 56.25c2.7614 0 6.25 3.4888 6.25 6.25s-3.4886 6.25-6.25 6.25-6.25-3.4888-6.25-6.25 3.4886-6.25 6.25-6.25zm-143.75-6.25h125v43.75h-125z"/>
 </g>
 <g transform="matrix(.08 0 0 .08 .76 17.4)" fill="#dcdcdc">
  <path d="m59.719-180c-3.6826 0.3875-6.7386 3.8212-6.7188 7.5v74.063h-17.969-0.78125c-3.4042 0.3875-6.2683 3.8212-6.25 7.5v84.449c0.000375 3.9269 3.3784 7.5 7.0312 7.5h17.969v11.489c0.00037 3.9269 3.5484 7.5 7.5 7.5h135c3.9516 0 7.4996-3.5731 7.5-7.5v-11.489h17.969c3.6529 0 7.0309-3.5731 7.0312-7.5v-84.449c-0.00038-3.9262-3.3783-7.4994-7.0312-7.5h-17.969v-61.406c-5-5.0944-25.228-15.167-30-20.157h-112.5-0.78125zm5.7812 12.5h93.75v25h31.25v43.75h-125zm-25 81.25h175l-0.00001 37.5h-175zm168.75 56.25c2.7614 0 6.25 3.4888 6.25 6.25s-3.4886 6.25-6.25 6.25-6.25-3.4888-6.25-6.25 3.4886-6.25 6.25-6.25zm-143.75-6.25h125v43.75h-125z"/>
 </g>
</svg>
