<svg height="22" width="22" xmlns="http://www.w3.org/2000/svg" xmlns:xlink="http://www.w3.org/1999/xlink" viewBox="0 0 22 22">
 <g opacity=".3" transform="translate(0 1)">
  <path d="m8.0938 7.5938c-2.9591 0-5.3438 2.3843-5.3438 5.3442 0 0.12177-0.00799 0.25526 0 0.375-1.0402 0.502-1.75 1.521-1.75 2.687 0 1.6706 1.4474 3 3.25 3h13.5c1.8026 0 3.25-1.3294 3.25-3 0-1.2411-0.78648-2.3176-1.9375-2.7812 0.02819-0.18764 0.03125-0.367 0.03125-0.5625 0-2.1207-1.7233-3.8438-3.8438-3.8438-1.0651 0-2.0232 0.42454-2.7188 1.125-0.964-1.4171-2.5938-2.3432-4.4372-2.3432zm-2.2188 1.625c0.57862 0 1.0625 0.44763 1.0625 1s-0.48388 1-1.0625 1-1.0312-0.44763-1.0312-1 0.45263-1 1.0312-1zm5.094 0.7812 3.031 4.406h-1.8438v3.5938h-2.4375v-3.5938h-1.7187l2.969-4.406z"/>
  <path d="m17.387 8.7333-0.402-0.38-0.54 0.1155 0.237-0.4995-0.277-0.4786l0.54834 0.071303 0.36959-0.41133 0.10164 0.54358 0.50537 0.22443-0.48552 0.26465z"/>
  <path d="m17.831 7.7231 0.02137-0.25822-0.20058-0.164 0.25216-0.059469 0.09397-0.24146 0.13448 0.22147 0.25866 0.014765-0.16905 0.19634 0.06589 0.25059-0.23896-0.10012z"/>
  <path d="m18.072 9.2255-0.04862-0.39244-0.35081-0.18243 0.35818-0.16751 0.06507-0.39005 0.26998 0.28891 0.39103-0.058636-0.19132 0.34607 0.1766 0.35381-0.38822-0.075029z"/>
 </g>
 <g fill="#dcdcdc">
  <path d="m8.0938 7.5938c-2.9591 0-5.3438 2.3843-5.3438 5.3442 0 0.121-0.008 0.255 0 0.374-1.0402 0.503-1.75 1.522-1.75 2.688 0 1.671 1.4474 3 3.25 3h13.5c1.803 0 3.25-1.329 3.25-3 0-1.241-0.786-2.318-1.938-2.781 0.029-0.188 0.032-0.367 0.032-0.563 0-2.12-1.724-3.8435-3.844-3.8435-1.065 0-2.023 0.4245-2.719 1.125-0.964-1.4176-2.5938-2.3437-4.4372-2.3437zm-2.2188 1.625c0.5786 0 1.0625 0.4476 1.0625 1.0002 0 0.552-0.4839 1-1.0625 1s-1.0312-0.448-1.0312-1c0-0.5526 0.4526-1.0002 1.0312-1.0002zm5.094 0.7812l3.031 4.406h-1.844v3.594h-2.4372v-3.594h-1.7188l2.969-4.406z"/>
  <path d="m17.387 8.7333-0.402-0.38-0.54 0.1155 0.237-0.4995-0.277-0.4786l0.54834 0.071303 0.36959-0.41133 0.10164 0.54358 0.50537 0.22443-0.48552 0.26465z"/>
  <path d="m17.831 7.7231 0.02137-0.25822-0.20058-0.164 0.25216-0.059469 0.09397-0.24146 0.13448 0.22147 0.25866 0.014765-0.16905 0.19634 0.06589 0.25059-0.23896-0.10012z"/>
  <path d="m18.072 9.2255-0.04862-0.39244-0.35081-0.18243 0.35818-0.16751 0.06507-0.39005 0.26998 0.28891 0.39103-0.058636-0.19132 0.34607 0.1766 0.35381-0.38822-0.075029z"/>
 </g>
</svg>
