<svg width="22" xmlns="http://www.w3.org/2000/svg" viewBox="0 0 22 22" height="22">
 <g opacity=".3" transform="matrix(2.4531 0 0 2.577 -5.6152 -5.4545)">
  <g transform="matrix(.13 0 0 .125 .05726 5.1159)">
   <path d="m67.533-11.576c-6.787 0-12.35 5.5954-12.35 12.421 0 6.826 5.5633 12.421 12.35 12.421 6.787 0 12.35-5.5953 12.35-12.421 0-6.8258-5.5633-12.421-12.35-12.421zm0 4.1695c4.5652 0 8.2047 3.6604 8.2047 8.2518 0 4.5916-3.6395 8.252-8.2047 8.252s-8.2047-3.6604-8.2047-8.252c0-4.5914 3.6395-8.2518 8.2047-8.2518z"/>
   <path d="m72.823 0.83142a5.2929 5.3234 0 0 1 -10.586 0 5.2929 5.3234 0 1 1 10.586 0z"/>
   <path d="m56.945 6.1548v15.97l8.8216 1.7745 7.5377-13.248h-7.8724z"/>
  </g>
  <g transform="matrix(.03669 0 0 .03528 2.077 9.5955)">
   <path d="m152.97-54.875c-17.177 0-31.258 14.161-31.258 31.437 0.01 17.277 14.09 31.438 31.26 31.438 17.177 0 31.258-14.161 31.258-31.437s-14.08-31.437-31.258-31.437zm0 10.552c11.554 0 20.766 9.2646 20.766 20.885 0 11.621-9.2113 20.885-20.766 20.885-11.554 0-20.766-9.2634-20.766-20.885 0-11.621 9.2113-20.885 20.766-20.885z"/>
   <path d="m59.258-98.887c-17.177 0-31.258 14.161-31.258 31.437 0 17.277 14.08 31.437 31.258 31.437 17.177 0 31.258-14.161 31.258-31.437s-14.08-31.437-31.258-31.437zm-0.0563 12.575c12.503 0 18.755 6.2875 18.755 18.862 0 12.575-6.2515 18.862-18.755 18.862-12.503 0-18.755-6.2875-18.755-18.862 0-12.575 6.2515-18.862 18.755-18.862z"/>
  </g>
  <g transform="matrix(.03669 0 0 .03528 2.077 9.5955)">
   <path d="m66.114-78.688c-7.0913-3.0249-15.278 0.3018-18.286 7.4368-3.0077 7.1319 0.30258 15.366 7.394 18.391l92.88 41.993c7.0913 3.0243 15.278-0.3018 18.286-7.4368 3.0077-7.1319-0.30258-15.367-7.394-18.391z"/>
  </g>
 </g>
 <g fill="#dcdcdc">
  <g transform="matrix(.3189 0 0 .32212 -5.4748 6.7288)">
   <path d="m67.533-11.576c-6.787 0-12.35 5.5954-12.35 12.421 0 6.826 5.5633 12.421 12.35 12.421 6.787 0 12.35-5.5953 12.35-12.421 0-6.8258-5.5633-12.421-12.35-12.421zm0 4.1695c4.5652 0 8.2047 3.6604 8.2047 8.2518 0 4.5916-3.6395 8.252-8.2047 8.252s-8.2047-3.6604-8.2047-8.252c0-4.5914 3.6395-8.2518 8.2047-8.2518z"/>
   <path d="m72.823 0.83142a5.2929 5.3234 0 0 1 -10.586 0 5.2929 5.3234 0 1 1 10.586 0z"/>
   <path d="m56.945 6.1548v15.97l8.8216 1.7745 7.5377-13.248h-7.8724z"/>
  </g>
  <g transform="matrix(.09 0 0 .09091 -.5201 18.273)">
   <path d="m152.97-54.875c-17.177 0-31.258 14.161-31.258 31.437 0.01 17.277 14.09 31.438 31.26 31.438 17.177 0 31.258-14.161 31.258-31.437s-14.08-31.437-31.258-31.437zm0 10.552c11.554 0 20.766 9.2646 20.766 20.885 0 11.621-9.2113 20.885-20.766 20.885-11.554 0-20.766-9.2634-20.766-20.885 0-11.621 9.2113-20.885 20.766-20.885z"/>
   <path d="m59.258-98.887c-17.177 0-31.258 14.161-31.258 31.437 0 17.277 14.08 31.437 31.258 31.437 17.177 0 31.258-14.161 31.258-31.437s-14.08-31.437-31.258-31.437zm-0.0563 12.575c12.503 0 18.755 6.2875 18.755 18.862 0 12.575-6.2515 18.862-18.755 18.862-12.503 0-18.755-6.2875-18.755-18.862 0-12.575 6.2515-18.862 18.755-18.862z"/>
  </g>
  <g transform="matrix(.09 0 0 .09091 -.5201 18.273)">
   <path d="m66.114-78.688c-7.0913-3.0249-15.278 0.3018-18.286 7.4368-3.0077 7.1319 0.30258 15.366 7.394 18.391l92.88 41.993c7.0913 3.0243 15.278-0.3018 18.286-7.4368 3.0077-7.1319-0.30258-15.367-7.394-18.391z"/>
  </g>
 </g>
</svg>
