<svg height="22" width="22" xmlns="http://www.w3.org/2000/svg" xmlns:xlink="http://www.w3.org/1999/xlink" viewBox="0 0 6.208889 6.208889">
 <defs>
  <clipPath id="clipPath4063" clipPathUnits="userSpaceOnUse">
   <path style="clip-path:url(#clipPath4127-2)" d="m240 92.121v36.879c-52.455 6.5377-95.051 44.81-107.97 95h33.188c13.611-36.228 49.647-64.483 89.031-64.219 0.95497-0.0253 1.9218-0.0369 2.875-0.0312 14.299 0.0853 28.354 3.6353 41.094 10 22.947 10.33 39.986 30.744 48.312 54.25h33.438c-12.92-50.19-55.51-88.46-107.97-95v-36.879zm-107.97 195.88c12.92 50.19 55.51 88.46 107.97 95v36.879h32v-36.88c52.455-6.5377 95.051-44.81 107.97-95h-32.97c-12.936 38.162-52.919 65.605-93.344 64.188-39.358 0.19888-75.063-27.918-88.375-64.188z" fill="url(#linearGradient4067)"/>
  </clipPath>
  <clipPath id="clipPath4254" clipPathUnits="userSpaceOnUse">
   <path style="clip-path:url(#clipPath4174-8)" fill="url(#linearGradient4258)" d="m256 176c-44.183 0-80 35.64-80 80 0 0-0.53033 7.5147 1.7678 16h122.86c-3.3167 9.2646-9.2656 17.577-17.344 23.125-18.585 14.673-46.731 9.3373-62.562-7.125h-38.031c12.35 28.242 40.517 48 73.312 48 44.183 0 80-35.817 80-80 0 0 0-8.2218-1.591-16h-122.91c6.9161-17.482 23.431-31.648 42.625-31.812 0.96047-0.0463 1.9173-0.0507 2.875-0.0312 12.866 0.2609 25.351 6.3624 34.031 15.844h38.281c-12.35-28.24-40.51-48-73.31-48z" transform="translate(0 -1.789)"/>
  </clipPath>
 </defs>
 <g opacity=".3" transform="matrix(.18963 0 0 .19127 -1.6013 -192.87)">
  <path style="clip-path:url(#clipPath4063)" d="m240 92.121v36.879c-52.455 6.5377-95.051 44.81-107.97 95h33.188c13.611-36.228 49.647-64.483 89.031-64.219 0.95497-0.0253 1.9218-0.0369 2.875-0.0312 14.299 0.0853 28.354 3.6353 41.094 10 22.947 10.33 39.986 30.744 48.312 54.25h33.438c-12.92-50.19-55.51-88.46-107.97-95v-36.879zm-107.97 195.88c12.92 50.19 55.51 88.46 107.97 95v36.879h32v-36.88c52.455-6.5377 95.051-44.81 107.97-95h-32.97c-12.936 38.162-52.919 65.605-93.344 64.188-39.358 0.19888-75.063-27.918-88.375-64.188z" transform="matrix(.07203 0 0 .07203 6.3752 1007.6)"/>
  <path style="clip-path:url(#clipPath4254)" d="m256 176c-44.183 0-80 35.64-80 80 0 0-0.53033 7.5147 1.7678 16h122.86c-3.3167 9.2646-9.2656 17.577-17.344 23.125-18.585 14.673-46.731 9.3373-62.562-7.125h-38.031c12.35 28.242 40.517 48 73.312 48 44.183 0 80-35.817 80-80 0 0 0-8.2218-1.591-16h-122.91c6.9161-17.482 23.431-31.648 42.625-31.812 0.96047-0.0463 1.9173-0.0507 2.875-0.0312 12.866 0.2609 25.351 6.3624 34.031 15.844h38.281c-12.35-28.24-40.51-48-73.31-48z" transform="matrix(.06345 0 0 .06345 8.5746 1009.9)"/>
 </g>
 <g transform="matrix(.18963 0 0 .19127 -1.6013 -193.15)" fill="#dcdcdc">
  <path style="clip-path:url(#clipPath4063)" d="m240 92.121v36.879c-52.455 6.5377-95.051 44.81-107.97 95h33.188c13.611-36.228 49.647-64.483 89.031-64.219 0.95497-0.0253 1.9218-0.0369 2.875-0.0312 14.299 0.0853 28.354 3.6353 41.094 10 22.947 10.33 39.986 30.744 48.312 54.25h33.438c-12.92-50.19-55.51-88.46-107.97-95v-36.879zm-107.97 195.88c12.92 50.19 55.51 88.46 107.97 95v36.879h32v-36.88c52.455-6.5377 95.051-44.81 107.97-95h-32.97c-12.936 38.162-52.919 65.605-93.344 64.188-39.358 0.19888-75.063-27.918-88.375-64.188z" transform="matrix(.07203 0 0 .07203 6.3752 1007.6)"/>
  <path style="clip-path:url(#clipPath4254)" d="m256 176c-44.183 0-80 35.64-80 80 0 0-0.53033 7.5147 1.7678 16h122.86c-3.3167 9.2646-9.2656 17.577-17.344 23.125-18.585 14.673-46.731 9.3373-62.562-7.125h-38.031c12.35 28.242 40.517 48 73.312 48 44.183 0 80-35.817 80-80 0 0 0-8.2218-1.591-16h-122.91c6.9161-17.482 23.431-31.648 42.625-31.812 0.96047-0.0463 1.9173-0.0507 2.875-0.0312 12.866 0.2609 25.351 6.3624 34.031 15.844h38.281c-12.35-28.24-40.51-48-73.31-48z" transform="matrix(.06345 0 0 .06345 8.5746 1009.9)"/>
 </g>
</svg>
