<svg width="22" style="enable-background:new 0 0 22 22" xmlns="http://www.w3.org/2000/svg" viewBox="0 0 22 22" height="22">
 <path opacity=".3" d="m10 4v8h2v-8z"/>
 <path opacity=".3" d="m14 9v2h5.3438c0.369 0 0.656-0.223 0.656-0.5v-1c0-0.277-0.287-0.5-0.656-0.5h-5.344zm0 4v2h5.3438c0.369 0 0.656-0.223 0.656-0.5v-1c0-0.277-0.287-0.5-0.656-0.5h-5.344zm0 4v2h5.3438c0.369 0 0.656-0.223 0.656-0.5v-1c0-0.277-0.287-0.5-0.656-0.5h-5.344z"/>
 <path opacity=".3" d="m8 4.5938c-2.9335 1.1859-5 4.0476-5 7.4062 0 4.4183 3.5817 8 8 8 0.33401 0 0.67554-0.02293 1-0.0625v-2.0312c-0.325 0.054-0.66 0.093-1 0.093-3.3137 0-6-2.686-6-6 0-2.2208 1.2066-4.1501 3-5.1875v-2.2187zm6 0v2.2188c0.099 0.057 0.186 0.1254 0.281 0.1874h2.9375c-0.844-1.0569-1.94-1.8897-3.218-2.4062z" fill-rule="evenodd"/>
 <g fill="#ee545c">
  <path d="m10 3v8h2v-8z"/>
  <path d="m14 8v2h5.3438c0.369 0 0.656-0.223 0.656-0.5v-1c0-0.277-0.287-0.5-0.656-0.5h-5.344zm0 4v2h5.3438c0.369 0 0.656-0.223 0.656-0.5v-1c0-0.277-0.287-0.5-0.656-0.5h-5.344zm0 4v2h5.3438c0.369 0 0.656-0.223 0.656-0.5v-1c0-0.277-0.287-0.5-0.656-0.5h-5.344z"/>
  <path d="m8 3.5938c-2.9335 1.1859-5 4.0476-5 7.4062 0 4.418 3.5817 8 8 8 0.334 0 0.676-0.023 1-0.062v-2.032c-0.325 0.055-0.66 0.094-1 0.094-3.3137 0-6-2.686-6-6 0-2.2208 1.2066-4.1501 3-5.1875v-2.2187zm6 0v2.2187c0.099 0.0571 0.186 0.1255 0.281 0.1875h2.938c-0.845-1.0569-1.941-1.8897-3.219-2.4062z" fill-rule="evenodd"/>
 </g>
</svg>
