<svg width="22" xmlns="http://www.w3.org/2000/svg" viewBox="0 0 22 22" height="22">
 <path opacity=".3" d="m9.0438 6.0015c-0.3923 0.011-0.7911 0.0827-1.1863 0.2172-1.6907 0.5752-2.9746 2.2276-3.352 4.2983-1.1102 0.268-2.0612 1.257-2.3888 2.665-0.46502 1.9996 0.50172 4.0777 2.1549 4.6402 0.027088 0.0079 0.054621 0.01263 0.08171 0.01973 0.2283 0.099 0.4721 0.158 0.7291 0.158h11.988c0.429 0 0.82358-0.15584 1.1591-0.41466 1.3399-0.7738 2.07-2.6155 1.6542-4.4032-0.30717-1.3208-1.1616-2.2778-2.1821-2.6129-0.0089-0.04421-0.01702-0.08747-0.02709-0.13168-0.46502-1.9996-2.1831-3.1689-3.8363-2.6064-0.31735 0.10816-0.60994 0.27962-0.8761 0.49366-0.912-1.4809-2.372-2.3651-3.918-2.3233z"/>
 <path d="m9.0438 5.0015c-0.3923 0.011-0.7911 0.0827-1.1863 0.2172-1.6907 0.5752-2.9746 2.2276-3.352 4.2979-1.1102 0.2681-2.0612 1.2574-2.3888 2.6654-0.46502 1.9996 0.50172 4.0777 2.1549 4.6402 0.027088 0.0079 0.054621 0.01263 0.08171 0.01973 0.2283 0.099 0.4721 0.158 0.7291 0.158h11.988c0.429 0 0.82358-0.15584 1.1591-0.41466 1.3399-0.7738 2.07-2.6155 1.6542-4.4032-0.30717-1.3208-1.1616-2.2778-2.1821-2.6129-0.0089-0.044211-0.01702-0.087474-0.02709-0.13168-0.46502-1.9996-2.1831-3.1689-3.8363-2.6064-0.31735 0.10816-0.60994 0.27962-0.8761 0.49366-0.912-1.4809-2.372-2.3651-3.918-2.3233z" fill="#dcdcdc"/>
</svg>
