<svg width="22" xmlns="http://www.w3.org/2000/svg" viewBox="0 0 22 22" height="22">
 <path opacity=".3" d="m9.0312 6c-0.3922 0.0111-0.7923 0.0843-1.1874 0.2188-1.6908 0.5752-2.9665 2.2422-3.3438 4.3122-1.1102 0.268-2.0474 1.248-2.375 2.657-0.465 1.999 0.5031 4.062 2.1562 4.624 0.0271 0.008 0.0355 0.025 0.0626 0.032 0.2283 0.098 0.4929 0.156 0.75 0.156h11.968c0.43 0 0.821-0.147 1.157-0.406 1.34-0.774 2.072-2.619 1.656-4.406-0.307-1.321-1.167-2.29-2.187-2.626-0.009-0.044 0.01-0.08 0-0.124-0.466-2.0001-2.191-3.1567-3.844-2.5942-0.318 0.1081-0.609 0.2547-0.875 0.4687-0.912-1.481-2.392-2.3544-3.9378-2.3125zm-1.0312 3h0.75c0.0078-0.0001 0.0234-0.0003 0.0312 0 0.1912 0.0084 0.3669 0.1121 0.5 0.25l1.7188 1.688 1.75-1.688c0.199-0.1724 0.319-0.2425 0.5-0.25h0.75v0.75c0 0.2147-0.026 0.413-0.188 0.562l-1.718 1.719 1.687 1.688c0.141 0.142 0.219 0.329 0.219 0.531v0.75h-0.75c-0.199 0-0.39-0.078-0.531-0.219l-1.719-1.687-1.7188 1.687c-0.1409 0.143-0.3325 0.219-0.5312 0.219h-0.75v-0.75c0-0.199 0.0777-0.39 0.2188-0.531l1.7187-1.688-1.7187-1.719c-0.1575-0.142-0.2353-0.3521-0.2188-0.562v-0.75z"/>
 <path d="m9.0312 5c-0.3922 0.0111-0.7923 0.0843-1.1874 0.2188-1.6908 0.5752-2.9665 2.2422-3.3438 4.3124-1.1102 0.2682-2.0474 1.2478-2.375 2.6568-0.465 1.999 0.5031 4.062 2.1562 4.624 0.0271 0.008 0.0355 0.025 0.0626 0.032 0.2283 0.098 0.4929 0.156 0.75 0.156h11.968c0.43 0 0.821-0.147 1.157-0.406 1.34-0.774 2.072-2.619 1.656-4.406-0.307-1.321-1.167-2.2903-2.187-2.6255-0.009-0.0442 0.01-0.0808 0-0.125-0.466-1.9996-2.191-3.1562-3.844-2.5937-0.318 0.1081-0.609 0.2547-0.875 0.4687-0.912-1.481-2.392-2.3544-3.9378-2.3125zm-1.0312 4h0.75c0.0078-0.0001 0.0234-0.0003 0.0312 0 0.1912 0.0084 0.3669 0.1121 0.5 0.25l1.7188 1.688 1.75-1.688c0.199-0.1724 0.319-0.2425 0.5-0.25h0.75v0.75c0 0.2147-0.026 0.413-0.188 0.562l-1.718 1.719 1.687 1.688c0.141 0.142 0.219 0.329 0.219 0.531v0.75h-0.75c-0.199 0-0.39-0.078-0.531-0.219l-1.719-1.687-1.7188 1.687c-0.1409 0.143-0.3325 0.219-0.5312 0.219h-0.75v-0.75c0-0.199 0.0777-0.39 0.2188-0.531l1.7187-1.688-1.7187-1.719c-0.1575-0.142-0.2353-0.3521-0.2188-0.562v-0.75z" fill="#ef555c"/>
</svg>
