<svg width="22" xmlns="http://www.w3.org/2000/svg" viewBox="0 0 22 22" height="22">
 <path opacity=".3" d="m9.0312 6c-0.3922 0.0111-0.7923 0.0843-1.1874 0.2188-1.6908 0.5752-2.9665 2.2422-3.3438 4.3122-1.1102 0.268-2.0474 1.248-2.375 2.657-0.46502 1.9996 0.50311 4.0625 2.1562 4.625 0.02709 0.0079 0.03541 0.02415 0.0625 0.03125 0.2284 0.098 0.493 0.156 0.7501 0.156h11.969c0.429 0 0.82077-0.14743 1.1562-0.40625 1.3399-0.7738 2.072-2.6186 1.6562-4.4062-0.30717-1.3208-1.167-2.2898-2.1875-2.625-0.0089-0.04421 0.01007-0.08079 0-0.125-0.466-2.0001-2.191-3.1567-3.844-2.5942-0.318 0.1081-0.609 0.2547-0.875 0.4687-0.912-1.481-2.392-2.3544-3.9378-2.3125zm-0.5937 3h1.7185c0.23391 0 0.40625 0.21705 0.40625 0.46875v5.0625c0 0.252-0.172 0.469-0.406 0.469h-1.7185c-0.2339 0-0.4375-0.217-0.4375-0.469v-5.0622c0-0.2518 0.2036-0.4688 0.4375-0.4688zm3.4062 0h1.7188c0.233 0 0.437 0.217 0.437 0.4688v5.0625c0 0.252-0.204 0.469-0.438 0.469h-1.7188c-0.233 0-0.405-0.217-0.405-0.469v-5.0625c0-0.2515 0.172-0.4685 0.406-0.4685z"/>
 <path d="m9.0312 5c-0.3922 0.0111-0.7923 0.0843-1.1874 0.2188-1.6908 0.5752-2.9665 2.2422-3.3438 4.3124-1.1102 0.2682-2.0474 1.2478-2.375 2.6568-0.465 1.999 0.5031 4.062 2.1562 4.624 0.0271 0.008 0.0355 0.025 0.0626 0.032 0.2283 0.098 0.4929 0.156 0.75 0.156h11.968c0.43 0 0.821-0.147 1.157-0.406 1.34-0.774 2.072-2.619 1.656-4.406-0.307-1.321-1.167-2.2903-2.187-2.6255-0.009-0.0442 0.01-0.0808 0-0.125-0.466-1.9996-2.191-3.1562-3.844-2.5937-0.318 0.1081-0.609 0.2547-0.875 0.4687-0.912-1.481-2.392-2.3544-3.9378-2.3125zm-0.5937 4h1.7185c0.234 0 0.406 0.217 0.406 0.4688v5.0622c0 0.252-0.172 0.469-0.406 0.469h-1.7185c-0.2339 0-0.4375-0.217-0.4375-0.469v-5.0622c0-0.2518 0.2036-0.4688 0.4375-0.4688zm3.4065 0h1.718c0.234 0 0.438 0.217 0.438 0.4688v5.0622c0 0.252-0.204 0.469-0.438 0.469h-1.718c-0.234 0-0.406-0.217-0.406-0.469v-5.0622c0-0.2518 0.172-0.4688 0.406-0.4688z" fill="#dcdcdc"/>
</svg>
