<svg width="20" xmlns="http://www.w3.org/2000/svg" viewBox="0 0 20 22" height="22">
 <g fill-rule="evenodd">
  <path opacity=".3" d="m9.5 5c-4.14 0-7.5 3.36-7.5 7.5s3.36 7.5 7.5 7.5c1.9648 0 3.7561-0.76222 5.0938-2h5.406l-3.344-3.3438c0.208-0.6876 0.344-1.401 0.344-2.1562 0-4.14-3.36-7.5-7.5-7.5z"/>
  <path d="m9.5 4c-4.14 0-7.5 3.36-7.5 7.5s3.36 7.5 7.5 7.5c1.9648 0 3.7561-0.76222 5.0938-2h5.406l-3.344-3.3438c0.208-0.6876 0.344-1.401 0.344-2.1562 0-4.14-3.36-7.5-7.5-7.5z" fill="#dcdcdc"/>
 </g>
</svg>
