<svg width="22" xmlns="http://www.w3.org/2000/svg" viewBox="0 0 22 22" height="22">
 <g>
  <path opacity=".3" d="m3.8929 4.0008c-0.4916 0.046-0.895 0.5062-0.8929 0.9999v9.9995c0.000052 0.52345 0.47642 0.99985 1 0.99995h8l4 3.9998v-3.9998h2c0.52358-0.0001 0.99995-0.4765 1-0.99995v-9.9993c0-0.5235-0.476-0.9999-1-0.9999h-14c-0.03123-0.0009999-0.075913-0.0009999-0.10714 0zm3.3929 4.5712h7.4286c0.47624 0 0.85714 0.29077 0.85714 0.64283v0.99995c0 0.35206-0.3809 0.64283-0.85714 0.64283h-7.4286c-0.47624 0-0.85714-0.29077-0.85714-0.64283v-0.99995c0-0.35206 0.3809-0.64283 0.85714-0.64283z"/>
  <path d="m3.8929 3.0008c-0.4916 0.046-0.895 0.5062-0.8929 0.9999v9.9995c0.000052 0.52345 0.47642 0.99985 1 0.99995h8l4 3.9998v-3.9998h2c0.52358-0.0001 0.99995-0.4765 1-0.99995v-9.9993c0-0.5235-0.476-0.9999-1-0.9999h-14c-0.03123-0.0009999-0.075913-0.0009999-0.10714 0zm3.3929 4.5712h7.4286c0.47624 0 0.85714 0.29077 0.85714 0.64283v0.99995c0 0.35206-0.3809 0.64283-0.85714 0.64283h-7.4286c-0.47624 0-0.85714-0.29077-0.85714-0.64283v-0.99995c0-0.35206 0.3809-0.64283 0.85714-0.64283z" fill="#dc322f"/>
 </g>
</svg>
