<svg width="22" xmlns="http://www.w3.org/2000/svg" viewBox="0 0 22 22" height="22">
 <g>
  <path opacity=".3" d="m3.8929 4.0008c-0.4916 0.0459-0.895 0.5062-0.8929 0.9999v9.9995c0.000052 0.52345 0.47642 0.99985 1 0.99995h8l4 4v-3.9998h2c0.52358-0.000099 0.99995-0.4765 1-0.99995v-9.9993c0-0.5235-0.476-0.9999-1-0.9999h-14c-0.03123-0.001-0.075913-0.001-0.10714 0zm8 2.2856c0.22321 0.00625 0.41815 0.11529 0.57143 0.2857l2.8571 3.0713c0.1622 0.17197 0.25 0.39737 0.25 0.64283 0 0.24389-0.08779 0.46929-0.25 0.64283l-2.8571 3.0713c-0.33333 0.35958-0.88095 0.35958-1.2143 0-0.33333-0.36114-0.33333-0.92607 0-1.2857l1.5-1.6428h-6.3214v-1.5714h6.3214l-1.5-1.6428c-0.254-0.2635-0.317-0.6848-0.179-1.035 0.139-0.3517 0.468-0.5482 0.822-0.5356z"/>
  <path d="m3.8929 3.0008c-0.4916 0.0459-0.895 0.5062-0.8929 0.9999v9.9995c0.000052 0.52345 0.47642 0.99985 1 0.99995h8l4 4v-3.9998h2c0.52358-0.000099 0.99995-0.4765 1-0.99995v-9.9993c0-0.5235-0.476-0.9999-1-0.9999h-14c-0.03123-0.001-0.075913-0.001-0.10714 0zm8 2.2856c0.22321 0.00625 0.41815 0.11529 0.57143 0.2857l2.8571 3.0713c0.1622 0.17197 0.25 0.39737 0.25 0.64283 0 0.24389-0.08779 0.46929-0.25 0.64283l-2.8571 3.0713c-0.33333 0.35958-0.88095 0.35958-1.2143 0-0.33333-0.36114-0.33333-0.92607 0-1.2857l1.5-1.6428h-6.3214v-1.5714h6.3214l-1.5-1.6428c-0.254-0.2635-0.317-0.6848-0.179-1.035 0.139-0.3517 0.468-0.5482 0.822-0.5356z" fill="#cb4b16"/>
 </g>
</svg>
