<svg width="22" xmlns="http://www.w3.org/2000/svg" viewBox="0 0 22 22" height="22">
 <g>
  <path opacity=".3" d="m3.8929 4.0008c-0.4916 0.0459-0.895 0.5062-0.8929 0.9999v9.9995c0.000052 0.52345 0.47642 0.99985 1 0.99995h8l4 4v-3.9998h2c0.52358-0.000099 0.99995-0.4765 1-0.99995v-9.9993c0-0.5235-0.476-0.9999-1-0.9999h-14c-0.03123-0.001-0.075913-0.001-0.10714 0zm10.393 2.2856c0.45922-0.012276 0.92473 0.23579 1.1429 0.60711 0.21813 0.37133 0.19263 0.83174-0.07143 1.1785l-4.144 5.75c-0.40756 0.55852-1.3762 0.62158-1.8929 0.14285l-2.4997-2.286c-0.50514-0.41122-0.51502-1.2039-0.035714-1.6428 0.47931-0.43884 1.3408-0.43382 1.7857 0.03571l1.4286 1.2857 3.2857-4.5355c0.21813-0.30995 0.59818-0.52341 1-0.53569z"/>
  <path d="m3.8929 3.0008c-0.4916 0.0459-0.895 0.5062-0.8929 0.9999v9.9995c0.000052 0.52345 0.47642 0.99985 1 0.99995h8l4 4v-3.9998h2c0.52358-0.000099 0.99995-0.4765 1-0.99995v-9.9993c0-0.5235-0.476-0.9999-1-0.9999h-14c-0.03123-0.001-0.075913-0.001-0.10714 0zm10.393 2.2856c0.45922-0.012276 0.92473 0.23579 1.1429 0.60711 0.21813 0.37133 0.19263 0.83174-0.07143 1.1785l-4.144 5.75c-0.40756 0.55852-1.3762 0.62158-1.8929 0.14285l-2.4997-2.286c-0.5051-0.411-0.515-1.204-0.0357-1.6428 0.4793-0.4389 1.3409-0.4338 1.7857 0.0357l1.4286 1.2857 3.2857-4.5355c0.21813-0.30995 0.59818-0.52341 1-0.53569z" fill="#859900"/>
 </g>
</svg>
