<svg width="22" xmlns="http://www.w3.org/2000/svg" viewBox="0 0 22 22" height="22">
 <g>
  <path opacity=".3" d="m3.8929 4.0007c-0.4916 0.046-0.895 0.5063-0.8929 1v9.9995c0.000052 0.52342 0.47642 0.99985 1 0.99995h8l4 4v-3.9998h2c0.52358-0.000099 0.99995-0.47653 1-0.99995v-9.9993c0-0.5235-0.476-1-1-1h-14c-0.03123-0.0009999-0.075913-0.0009999-0.10714 0z"/>
  <path d="m3.8929 3.0007c-0.4916 0.046-0.895 0.5063-0.8929 1v9.9995c0.000052 0.52342 0.47642 0.99985 1 0.99995h8l4 4v-3.9998h2c0.52358-0.000099 0.99995-0.47653 1-0.99995v-9.9993c0-0.5235-0.476-1-1-1h-14c-0.03123-0.0009999-0.075913-0.0009999-0.10714 0z" fill="#dcdcdc"/>
 </g>
</svg>
