<svg width="20" xmlns="http://www.w3.org/2000/svg" viewBox="0 0 20 22" height="22">
 <path opacity=".3" stroke-linejoin="round" d="m11.262 12.499h-1.762v-2.5" stroke="#000" stroke-linecap="round" fill="none"/>
 <g fill-rule="evenodd">
  <path opacity=".3" d="m9.5 5c-4.14 0-7.5 3.36-7.5 7.5s3.36 7.5 7.5 7.5c1.9648 0 3.7561-0.76222 5.0938-2h5.406l-3.344-3.344c0.208-0.687 0.344-1.401 0.344-2.156 0-4.14-3.36-7.5-7.5-7.5zm0 3c2.484 0 4.5 2.016 4.5 4.5s-2.016 4.5-4.5 4.5-4.5-2.016-4.5-4.5 2.016-4.5 4.5-4.5z"/>
  <path d="m9.5 4c-4.14 0-7.5 3.36-7.5 7.5s3.36 7.5 7.5 7.5c1.9648 0 3.7561-0.76222 5.0938-2h5.406l-3.344-3.344c0.208-0.687 0.344-1.401 0.344-2.156 0-4.14-3.36-7.5-7.5-7.5zm0 3c2.484 0 4.5 2.016 4.5 4.5s-2.016 4.5-4.5 4.5-4.5-2.016-4.5-4.5 2.016-4.5 4.5-4.5z" fill="#dcdcdc"/>
 </g>
 <path stroke-linejoin="round" d="m11.262 11.499h-1.762v-2.5" stroke="#dcdcdc" stroke-linecap="round" fill="none"/>
</svg>
