<svg width="22" xmlns="http://www.w3.org/2000/svg" viewBox="0 0 22 22" height="22">
 <g>
  <path opacity=".3" d="m3.8929 4.0007c-0.4916 0.046-0.895 0.5063-0.8929 1v9.9995c0.000052 0.52342 0.47642 0.99985 1 0.99995h8l4 4v-3.9998h2c0.52358-0.000099 0.99995-0.47653 1-0.99995v-9.9993c0-0.5235-0.476-1-1-1h-14c-0.03123-0.0009999-0.075913-0.0009999-0.10714 0zm2.5357 2.2856h1.5357 0.071429c0.3875 0.015624 0.73036 0.18481 1 0.42855l1.9643 1.6785 2-1.6785c0.40357-0.30624 0.66964-0.41915 1.0357-0.42855h1.5357v1.3214c0 0.38279-0.06607 0.77005-0.39286 1.0357l-1.9643 1.6785 1.9286 1.6785c0.28571 0.24999 0.42857 0.61113 0.42857 0.96424v1.3214h-1.5357c-0.40357 0-0.78571-0.14285-1.0714-0.39284l-1.9643-1.6785-1.9643 1.6785c-0.28571 0.24999-0.66964 0.39284-1.0714 0.39284h-1.5357v-1.3214c0-0.35311 0.14107-0.71425 0.42857-0.96424l1.9635-1.678-1.9643-1.6786c-0.3214-0.2594-0.4625-0.6607-0.4285-1.0357v-1.3214z"/>
  <path d="m3.8929 3.0007c-0.4916 0.046-0.895 0.5063-0.8929 1v9.9995c0.000052 0.52342 0.47642 0.99985 1 0.99995h8l4 4v-3.9998h2c0.52358-0.000099 0.99995-0.47653 1-0.99995v-9.9993c0-0.5235-0.476-1-1-1h-14c-0.03123-0.0009999-0.075913-0.0009999-0.10714 0zm2.5357 2.2856h1.5357 0.071429c0.3875 0.015624 0.73036 0.18481 1 0.42855l1.9643 1.6785 2-1.6785c0.40357-0.30624 0.66964-0.41915 1.0357-0.42855h1.5357v1.3214c0 0.38279-0.06607 0.77005-0.39286 1.0357l-1.9643 1.6785 1.9286 1.6785c0.28571 0.24999 0.42857 0.61113 0.42857 0.96424v1.3214h-1.5357c-0.40357 0-0.78571-0.14285-1.0714-0.39284l-1.9643-1.6785-1.9643 1.6785c-0.28571 0.24999-0.66964 0.39284-1.0714 0.39284h-1.5357v-1.3214c0-0.35311 0.14107-0.71425 0.42857-0.96424l1.9635-1.6781-1.9643-1.6785c-0.3214-0.2594-0.4625-0.6607-0.4285-1.0357v-1.3214z" fill="#e63f5b"/>
 </g>
</svg>
