<svg xmlns="http://www.w3.org/2000/svg" viewBox="0 0 14 22">
 <g transform="translate(0 6)">
  <g opacity=".4" transform="translate(-4)">
   <path opacity=".3" d="m11-4c-1.662 0-3 1.338-3 3v8c0 1.662 1.338 3 3 3s3-1.338 3-3v-8c0-1.662-1.338-3-3-3zm-6 7v1h1v3c0 2.4238 1.7175 4.4415 4 4.9062v2.094h-1v1h4v-1h-1v-2.0938c2.283-0.464 4-2.4822 4-4.906v-3h1v-1h-2v4c0 2.216-1.784 4-4 4s-4-1.784-4-4v-4h-2z"/>
   <path fill="#dcdcdc" d="m11 1c-1.662 0-3 1.338-3 3v8c0 1.662 1.338 3 3 3s3-1.338 3-3v-8c0-1.662-1.338-3-3-3zm-6 7v1h1v3c0 2.4238 1.7175 4.4415 4 4.9062v2.094h-1v1h4v-1h-1v-2.0938c2.283-0.464 4-2.482 4-4.906v-3h1v-1h-2v4c0 2.216-1.784 4-4 4s-4-1.784-4-4v-4h-2z" transform="translate(0 -6)"/>
  </g>
 </g>
</svg>
