<svg viewBox="0 0 16 16" width="16" xmlns="http://www.w3.org/2000/svg" xmlns:xlink="http://www.w3.org/1999/xlink" height="16">
 <g fill="#8ccd7c">
  <path d="m4.6406 5.0156c-1.6054 0-2.9101 1.3125-2.9101 2.9258 0 0.1016 0.0039 0.1992 0.0117 0.2969 0.0273 0.6289-0.0117 1.5312 0.7187 3.7267 0.6172 1.867 1.0899 1.828 1.0899 1.828l0.7265-0.367s-0.3632-0.731-0.3632-1.461c0-0.352 0.082-0.785 0.1679-1.145 0.1797 0.035 0.3711 0.047 0.5586 0.047 1.6055 0 2.9063-1.3084 2.9063-2.9256 0-1.6133-1.3008-2.9258-2.9063-2.9258z"/>
  <path d="m11.191 10.816c1.61 0 2.911-1.3082 2.911-2.9254 0-0.0976 0-0.1992-0.012-0.2968-0.024-0.625 0.012-1.5313-0.715-3.7266-0.621-1.8633-1.09-1.8242-1.09-1.8242l-0.726 0.3632s0.363 0.7305 0.363 1.461c0 0.3516-0.086 0.7851-0.172 1.1445-0.18-0.0351-0.367-0.0469-0.559-0.0469-1.6012 0-2.9058 1.3125-2.9058 2.9258 0 1.6172 1.3046 2.9254 2.9058 2.9254z"/>
 </g>
</svg>
