<svg viewBox="0 0 16 16" width="16" xmlns="http://www.w3.org/2000/svg" xmlns:xlink="http://www.w3.org/1999/xlink" height="16">
 <g fill="#52c8ff">
  <path d="m2.4727 5.2109l0.0156 0.7735h10.899l-0.008-0.7735z"/>
  <path d="m2.0195 7.5273v0.7735h11.792v-0.7735z"/>
  <path d="m2.5039 9.8477v0.7733h10.824v-0.7733z"/>
  <path d="m7.5273 2.0234v11.797h0.7774v-11.797z"/>
 </g>
 <g stroke="#52c8ff" fill="none">
  <g stroke-width="12.5">
   <path d="m89.746 7.7472c-22.863-52.483-21.095-118.36 0-175.83" transform="matrix(.06185 0 0 .06185 0 12.865)"/>
   <path d="m166.23 7.7472c22.86-52.483 21.16-118.36 0-175.83" transform="matrix(.06185 0 0 .06185 0 12.865)"/>
  </g>
  <path stroke-width="1.214" stroke-linecap="round" d="m33.057 27.319c0 5.029-4.072 9.102-9.102 9.102-5.029 0-9.108-4.073-9.108-9.102s4.079-9.108 9.108-9.108c5.03 0 9.102 4.079 9.102 9.108z" transform="matrix(.6369 0 0 .6369 -7.3392 -9.4816)"/>
 </g>
</svg>
