<svg viewBox="0 0 16 16" width="16" xmlns="http://www.w3.org/2000/svg" xmlns:xlink="http://www.w3.org/1999/xlink" height="16">
 <defs>
  <clipPath id="clip1">
   <path d="m2.082 2.082h11.668v11.668h-11.668z"/>
  </clipPath>
  <clipPath id="clip2">
   <path d="m7.918 13.504c3.102 0 5.621-2.527 5.621-5.629 0-3.082-2.519-5.6133-5.621-5.6133-3.086 0-5.625 2.5313-5.625 5.6133 0 3.102 2.539 5.629 5.625 5.629z"/>
  </clipPath>
 </defs>
 <path d="m7.9141 1.7344c-1.6407 0-3.1875 0.6445-4.3594 1.8125-1.1758 1.1719-1.8242 2.7187-1.8242 4.3593 0 3.4138 2.7734 6.1958 6.1836 6.1958 3.4139 0 6.1879-2.782 6.1879-6.1958 0-3.4023-2.774-6.1718-6.1879-6.1718zm0 0.2539c3.2699 0 5.9339 2.6562 5.9339 5.9179 0 3.2778-2.664 5.9418-5.9339 5.9418-3.2657 0-5.9258-2.664-5.9258-5.9418 0-1.5703 0.6172-3.0546 1.7422-4.1757 1.125-1.125 2.6133-1.7422 4.1836-1.7422z" fill="#78b2a3"/>
 <g style="clip-path:url(#clip1)">
  <g style="clip-path:url(#clip2)">
   <path d="m6.0117 2.7773c-0.0312 0-0.0625 0.0118-0.0937 0.0313 0.0742-0.0234 0.1093-0.0313 0.0937-0.0313m1.8477 0.3594l0.0156-0.2695-0.2852 0.0195 0.0391 0.25h0.2305m-3.2227 4.6719c-0.0547-0.0547-0.0156-0.2891-0.0156-0.2891s-0.8594-0.4492-1.793-0.7226c-0.1133-0.0313-0.0547-0.2696 0.0586-0.3594l-0.039-0.25c-0.0196-0.1289 0.1914-0.7422 0.4023-0.7969 0.207-0.0508-0.0195 0.3633-0.0195 0.3633l-0.211 0.125s0.25 0.2891 0.3047 0.2891c0.0586 0 0.1524-0.1446 0.1524-0.1446l-0.2657-0.1796 0.2461-0.1094 0.0196-0.0938 0.039-0.0156 0.4102-0.6172c0.2812-0.1172 0.6328-0.2617 0.6758-0.2812 0.0742-0.0391 0.6093-0.3438 0.7031-0.4141 0.0976-0.0742 0.3047-0.0547 0.3828-0.0547 0.0742 0 0.1914-0.039 0.2109-0.2344 0.0157-0.1992 0.0938-0.2343 0.1485-0.1796 0.0586 0.0507-0.0547 0.1406 0.0781 0.1796 0.1328 0.0352 0.2461 0.125 0.3438 0.0352 0.0703-0.0664-0.0235-0.1406-0.086-0.1992h1.0586l0.1133-0.3242-0.25-0.0352-0.9141-0.0898v-0.1094l-0.0742 0.0117c0.1016-0.543 0.6875-0.4531 0.2461-0.7695-0.0273-0.0196-0.4141 0.6093-0.5117 0.5976-0.1797-0.0234-0.4102-0.0234-0.457 0.0352-0.0665 0.0781 0.1445-0.2656 0.3242-0.3672-0.2149 0.0625-0.6055-0.1328-1.3047 0.3594-0.2383 0.1679-0.8321 0.8476-1.0781 1.1093-1.0313 1.2188-1.1133 2.2618-1.1133 2.3086 0 0.0899 0.2187 0.1407 0.2343 0.25 0.0196 0.1055-0.3593 0.4688-0.3593 0.6485 0 0.082-0.1914 0.9804 0.2265 2.1094 0.3711 1.0702 1.0899 2.0112 1.1836 2.0702l0.2657-0.141s-0.4375-0.773-0.4571-0.847c-0.0195-0.071 0.4961-1.1174 0.7422-1.0822 0.2461 0.0351 0.1914 0.1093 0.3438 0.0195 0.1523-0.0899 0.2461-0.8321 0.4179-0.9024 0.1719-0.0742 0.3594-0.164 0.3438-0.3437-0.0195-0.1797-0.668-0.5039-0.7266-0.5586m4.1367-5.3008l-0.5156-0.1797 0.0938 0.2891 0.4218-0.1094m-1.9257 0.668c0.0585 0 1.1992-0.7578 1.0859-0.7774-0.1133-0.0156-0.1328 0-0.4375-0.0351-0.3047-0.0352-0.6289 0.4336-0.707 0.5039-0.0743 0.0742-0.0508 0.3086 0.0586 0.3086m5.2423 5.4375l0.148-0.1914-0.148-0.0508-0.11 0.1367-0.128 0.1914 0.113 0.0508 0.125-0.1367m0.648 0.625l-0.039-0.2774h-0.238l-0.02 0.2071-0.218-0.0352-0.055-0.2266-0.113-0.0664-0.129 0.1563-0.129-0.0352-0.039 0.1211 0.148 0.0352v1.1288l0.524 0.125c-0.012 0.02-0.02 0.039-0.024 0.047-0.039 0.121 0.145 0.176 0.278 0.121 0.046-0.016 0.347-0.133 0.441-0.359 0.133-0.3167 0.219-0.7738 0.242-0.9183l-0.058-0.1289-0.368 0.1406-0.207-0.0351h0.004m-0.187-4.625c-0.844-1.2774-2.8674-2.1133-2.8674-2.1133l-0.5234 0.2734-0.0743-0.1211-0.1836-0.0703v0.1563l0.168 0.1406-0.1133 0.0508-0.4218 0.0351-0.9571 0.5196 0.0899 0.4179-0.1094 0.0352-0.0547 0.0859 0.3125 0.4688 0.0156 0.1562-0.2539 0.0547v0.3125l-0.1484 0.0352 0.0195 0.2422-1.2578 0.8672 0.0391 0.4882c0.0937 0.1211 0.8125 0.8516 0.8125 0.8516s0.8281 0.0352 1.0117-0.0703c0.1875-0.1055 0.0547 0.1055 0.1094 0.1562 0.0586 0.0508 0.0781 0.418 0.1289 0.4532 0.0586 0.0351 0 0.2421 0.0781 0.3125 0.0703 0.0703 0.0703 0.9023 0.0703 0.9023s0.4453 0.7461 0.4453 0.9411c0 0.188-0.0195 0.172 0.3321 0.157 0.3476-0.02 0.4218-0.157 0.496-0.211 0.0743-0.051 0.0743-0.1722 0.1485-0.2777s0.2027-0.5039 0.3667-0.6445c0.168-0.1368 0.61-0.2422 0.645-0.4844 0.039-0.2461 0.203-0.4336 0.203-0.4336l0.797-0.8438-0.02 0.1133-0.019 0.4336 0.238-0.0859-0.019-0.4688-0.082-0.0937 0.007-0.0117s-0.054-0.1055-0.125-0.1055c-0.074 0-0.515 0.1055-0.593 0.0859-0.071-0.0156-0.383-0.8515-0.442-0.8828-0.054-0.0352-0.406-0.6094-0.406-0.6094s0.813 0.9727 0.941 1.3555c0.075 0.2227 0.356 0.0156 0.586-0.2187l0.063 0.1484 0.144-0.0352-0.019-0.1718h0.168v0.2578l-0.055 0.1406-0.019 0.2266 0.148 0.1406 0.07-0.125 0.243-0.2266 0.273-0.1367 0.074 0.1367 0.039 0.1953-0.074 0.2071-0.148 0.1211-0.075 0.3125v0.1562l-0.164-0.1016-0.019-0.332-0.238 0.0195-0.11 0.293 0.164 0.2422 0.387 0.0547 0.312-0.2969 0.04-0.5703 0.136-0.1875c0.094 0.2344 0.157 0.4805 0.157 0.707 0 0.25 0.199-0.125 0.101-0.8867 0-0.0039-0.152-1.8086-0.988-2.6445zm-3.6838 0.75l-0.9961-0.0352 0.4219-0.3476h0.2226l0.3516 0.2422v0.1406m1.2148-0.1211v0.1562h-0.4218l0.0351 0.1016-0.2578 0.0352-0.0195 0.0859-0.1836-0.0352-0.3321-0.0664 0.0547-0.0898 0.0547-0.1016 0.1875-0.1914 0.0742 0.1367 0.2774-0.0156 0.1445-0.1562 0.5747 0.1054-0.188 0.0352m0.035-0.2266l-0.2186 0.0352-0.0351-0.1563 0.2737-0.0351 0.039-0.1602 0.203 0.211-0.262 0.1054m1.074 5.4024l-0.132 0.105 0.019 0.262h0.164v-0.226l0.149-0.192v-0.3982l-0.09-0.0196-0.11 0.4688m-1.2379-0.5196s-0.1289 0.0352 0.0196 0.086c0.1443 0.0546 0.7383-0.8516 0.7383-0.8516l-0.5 0.3125-0.2579 0.4531m-1.0039 3.3316l-0.1094-0.105-0.2187-0.035-0.0391 0.105-0.2929-0.035-0.0196-0.14h-0.2226l-0.2383 0.14h-0.4258l-0.0351-0.105-0.6797-0.071-0.1133 0.106-0.2774-0.07-0.0351-0.247-0.1289-0.019-0.1485 0.266-0.496-0.02c0.0898 0.043 0.832 0.488 1.9726 0.578 1.5078 0.121 2.2266-0.242 2.2266-0.242l-0.0547-0.055z" fill="#78b2a3"/>
  </g>
 </g>
</svg>
