<svg viewBox="0 0 16 16" width="16" xmlns="http://www.w3.org/2000/svg" xmlns:xlink="http://www.w3.org/1999/xlink" height="16">
 <path d="m6.832 2.668v6.3984c-0.4492-0.1758-1.0351-0.2031-1.6445-0.0391-1.1328 0.3047-1.8906 1.1637-1.6914 1.9177 0.1992 0.75 1.2812 1.114 2.4141 0.809 0.9609-0.262 1.6523-0.922 1.7148-1.574h0.0078v-4.7073l4.1012 0.5078v4.5585c-0.449-0.176-1.035-0.207-1.64-0.043-1.1331 0.309-1.8948 1.168-1.6956 1.922 0.1993 0.75 1.2813 1.113 2.4136 0.805 0.961-0.258 1.653-0.918 1.715-1.575h0.008v-8.2222zm0.8008 1.539l4.1012 0.5782v0.5156l-4.1012-0.5078z" fill="#4c7686"/>
</svg>
