<svg viewBox="0 0 16 16" width="16" xmlns="http://www.w3.org/2000/svg" xmlns:xlink="http://www.w3.org/1999/xlink" height="16">
 <g stroke-linejoin="round" stroke-linecap="round" stroke="#de4646" fill="none">
  <path stroke-width="4.23" d="m107.3-150.71l18.57 50.33 23.75-59.62" transform="matrix(.06185 0 0 .06185 0 12.865)"/>
  <path stroke-width="4.553" d="m102.31-150.08l-37.574 51.787 7.894-48.247" transform="matrix(.06185 0 0 .06185 0 12.865)"/>
  <g stroke-width="4.336">
   <path d="m150.69-155.83l44.84 41.81-8.9-47.05" transform="matrix(.06185 0 0 .06185 0 12.865)"/>
   <path d="m30.821-96.019c-2.4-5.051 110.9 97.956 110.9 97.956l-46.985-99.409z" transform="matrix(.06185 0 0 .06185 0 12.865)"/>
   <path d="m30.189-96.84l42.378-50.65 33.663-6.32-14.653 56.085z" transform="matrix(.06185 0 0 .06185 0 12.865)"/>
   <path d="m149.11-160.76l36.51-1.13 39.6 38.9-64.3 17.69z" transform="matrix(.06185 0 0 .06185 0 12.865)"/>
   <path d="m105.16-153.56l43.76-7.2 12.7 56.02-69.979 7.647z" transform="matrix(.06185 0 0 .06185 0 12.865)"/>
   <path d="m142.29 1.2421l83.56-124.29-64.23 18.31z" transform="matrix(.06185 0 0 .06185 0 12.865)"/>
  </g>
  <g stroke-width="2.168">
   <path d="m195.15-114.21l-50.9 112.74" transform="matrix(.06185 0 0 .06185 0 12.865)"/>
   <path d="m124.29-101.07l18.51 99.596-3.6-2.3996" transform="matrix(.06185 0 0 .06185 0 12.865)"/>
   <path d="m58.925-97.03l81.095 95.746" transform="matrix(.06185 0 0 .06185 0 12.865)"/>
  </g>
 </g>
</svg>
