<svg viewBox="0 0 16 16" width="16" xmlns="http://www.w3.org/2000/svg" xmlns:xlink="http://www.w3.org/1999/xlink" height="16">
 <g stroke-linecap="round" stroke="#88b485" fill="none">
  <path stroke-width="8.073" d="m34.42 32.021h187.2c1.32 0 2.33 1.073 2.33 2.399v187.2c0 1.32-1.01 2.33-2.33 2.33h-187.2c-1.326 0-2.399-1.01-2.399-2.33v-187.2c0-1.326 1.073-2.399 2.399-2.399z" transform="scale(.06185)"/>
  <g stroke-linejoin="round">
   <path stroke-width="5.223" d="m62.715 117.03h31.389v31.33h-31.389z" transform="scale(.06185)"/>
   <path stroke-width="5.063" d="m193.39 132.69c0 8.72-7.08 15.73-15.73 15.73-8.72 0-15.79-7.01-15.79-15.73 0-8.71 7.07-15.72 15.79-15.72 8.65 0 15.73 7.01 15.73 15.72z" transform="scale(.06185)"/>
   <path stroke-width="5.223" d="m69.788 60.631h116.4c3.91 0 7.07 3.473 7.07 7.768v15.789c0 4.295-3.16 7.768-7.07 7.768h-116.4c-3.917 0-7.075-3.473-7.075-7.768v-15.789c0-4.295 3.158-7.768 7.073-7.768z" transform="scale(.06185)"/>
  </g>
 </g>
 <path fill="#88b485" d="m11.473 8.207c0 0.2696-0.219 0.4844-0.485 0.4844-0.269 0-0.484-0.2148-0.484-0.4844 0-0.2656 0.215-0.4843 0.484-0.4843 0.266 0 0.485 0.2187 0.485 0.4843z" fill-rule="evenodd"/>
 <g stroke-linejoin="round" stroke-linecap="round" stroke="#88b485" fill="none">
  <g stroke-width="5.223">
   <path d="m151.51 60.631v31.262h32.59c5.05 0 9.16-4.231 9.16-9.6v-11.936c0-5.369-4.11-9.726-9.16-9.726z" transform="scale(.06185)"/>
   <path d="m62.715 164.08h31.389v31.33h-31.389z" transform="scale(.06185)"/>
  </g>
  <path stroke-width="5.063" d="m193.39 179.68c0 8.72-7.08 15.79-15.73 15.79-8.72 0-15.79-7.07-15.79-15.79 0-8.65 7.07-15.72 15.79-15.72 8.65 0 15.73 7.07 15.73 15.72z" transform="scale(.06185)"/>
 </g>
 <g fill="#88b485">
  <path d="m4.3633 7.7227h0.3242v0.3242h-0.3242z"/>
  <path d="m4.3633 8.3711h0.3242v0.3203h-0.3242z"/>
  <path d="m5.0117 8.3711h0.3203v0.3203h-0.3203z"/>
  <path d="m5.0117 7.7227h0.3203v0.3242h-0.3203z"/>
  <path d="m4.6875 8.0469h0.3242v0.3242h-0.3242z"/>
  <path d="m10.176 4.4336h0.324v0.3203h-0.324z"/>
  <path d="m10.824 4.4336h0.321v0.3203h-0.321z"/>
  <path d="m10.5 4.7539h0.324v0.3242h-0.324z"/>
 </g>
</svg>
