<svg viewBox="0 0 16 16" width="16" xmlns="http://www.w3.org/2000/svg" xmlns:xlink="http://www.w3.org/1999/xlink" height="16">
 <path d="m337.38 491.21c-60.88-4.13-114.37-52.37-129.43-110.78-13.96-60.44 13.7-128.66 67.64-160.21 34.68-20.82 78.22-23.48 116.65-12.56 47.46 14.58 83.61 57.04 96.21 104.26 11.41 43.66 3.19 93.09-27.02 127.47-27.48 34.21-71.29 54.02-115.1 52.28-3.01-0.1-6.03-0.19-8.95-0.46zm36.24-6.88c10.95-0.92 9.04-4.31-0.91-5.14-17.71-3.48-36.88-3.57-54.04 2.48 15.06 7.34 35.14 5.41 52.03 3.21zm-53.76-9.63c7.85-7.98-0.37-27.05-7.12-34.57-15.24-7.89-27.02-20.64-40.98-30.26-10.5-3.86-20.72 3.48-30.86 5.96-0.09 10.08-0.73 21.46 8.13 28.42 14.51 14.4 32.04 27.06 51.75 32.74 6.39 0.28 13.05-0.09 19.08-2.29zm83.52 0.46c25.28-11.01 48.92-28.52 63.25-52.46 5.11-6.87 8.85-18.98-4.47-14.94-16.89 10.63-32.13 23.75-49.29 33.84-10.5 8.34-18.07 19.71-25.47 30.62 2.56 6.06 11.05 4.59 15.98 2.94zm17.16-44.02c12.68-10.45 31.03-17.15 37.69-33.01 3.02-12.47 3.29-25.4 4.57-38.15-12.69-11.28-28.21-18.89-43.45-26.14-14.97 1.19-27.11 14.58-39.07 23.3-6.29 3.48-4.65 11.37-6.39 17.42-2.28 14.12-4.92 28.24-6.48 42.46 11.78 8.71 25.01 16.78 39.34 20.17 5.21 0.1 9.5-3.48 13.79-6.05zm-90.64 2.2c11.5-4.4 26.74-7.7 32.13-19.9 4.01-17.15 6.21-34.66 8.4-52.18-11.51-10.91-23.74-22.37-38.71-28.06-12.87-0.18-23.82 8.99-35.32 13.94-15.52 4.31-20.9 18.34-21.54 32.92-4.56 14.49 0.64 29.35 13.69 37.23 11.41 8.44 26.01 21.92 41.35 16.05zm-96.3-20.17c-9.31-17.34-15.79-36.32-18.34-55.76-9.22 1.83-0.83 24.58 1.73 33.84 4.29 12.47 10.95 24.03 17.89 35.31 1.28-4.68 2.01-9.27-1.28-13.39zm-4.01-77.13c4.1-5.77 10.49-10.36 13.05-17.05 4.29-20.18 11.32-39.71 21.36-57.78-0.37-11.64-13.42-18.71-19.9-5.87-18.35 23.75-32.86 52.73-33.5 83.36-2.46 10.55 6.66 18.16 11.96 5.69 2.28-2.75 4.65-5.5 7.03-8.35zm237.31 14.49c7.76-10.27 18.53-22.47 15.8-36.4-4.93-26.42-18.44-51.45-39.16-68.6-6.21-2.66-17.44-12.29-21.82-3.21-6.29 12.29-22.09 23.84-16.43 39.07 4.84 15.04 8.49 30.81 15.52 44.93 13.14 10.27 28.3 18.25 43.54 24.95zm-174.24-6.78c12.05-6.15 23.82-12.93 35.6-19.63 4.01-13.94 9.03-27.51 13.6-41.17 0.73-14.86-12.51-25.5-21.27-35.86-8.67-13.94-23.37-3.21-34.05 1.83-23.46 12.66-28.84 40.35-36.87 63.46 1.09 8.72 9.03 15.87 14.78 22.38 7.94 8.07 16.98 18.71 28.21 8.99zm86.71-74.84c6.3-0.91 13.24-0.27 19.08-2.1 8.67-9.36 16.34-20.27 19.9-32.65-4.39-12.38-18.81-18.07-30.4-22.29-14.79-4.4-30.67-6.6-46.09-4.86-11.05 5.69-30.95 22.2-19.72 34.94 8.22 9.82 16.98 19.17 25.92 28.34 10.5 0.18 20.91-0.73 31.31-1.38z" transform="matrix(.0428 0 0 .0426 -7.0128 -6.8453)" stroke="#9c9c37" stroke-width="1.449" fill="#9c9c37"/>
</svg>
