<svg viewBox="0 0 16 16" width="16" xmlns="http://www.w3.org/2000/svg" xmlns:xlink="http://www.w3.org/1999/xlink" height="16">
 <path d="m7.1875 12.59c0 0.281-0.2344 0.508-0.5273 0.508-0.2891 0-0.5235-0.227-0.5235-0.508 0-0.278 0.2344-0.508 0.5235-0.508 0.2929 0 0.5273 0.23 0.5273 0.508zm-2.5195-7.8712c0 0.2812-0.2383 0.5078-0.5274 0.5078-0.2929 0-0.5273-0.2266-0.5273-0.5078 0-0.2813 0.2344-0.5079 0.5273-0.5079 0.2891 0 0.5274 0.2266 0.5274 0.5079zm8.992 1.7226c0 0.2813-0.234 0.5117-0.523 0.5117s-0.528-0.2304-0.528-0.5117c0-0.2812 0.239-0.5078 0.528-0.5078s0.523 0.2266 0.523 0.5078zm-5.9256 7.6406c-0.3516-0.105-0.6914-0.445-0.961-0.973-0.1015-0.199-0.1211-0.226-0.1757-0.226-0.0938-0.004-0.25-0.074-0.3008-0.141-0.125-0.156-0.0899-0.347 0.0429-0.484 0.0391-0.039 0.043-0.086 0.043-0.106 0-0.019-0.0273-0.129-0.0547-0.242-0.0703-0.242-0.1953-0.816-0.2187-0.98-0.0078-0.067-0.0235-0.129-0.0313-0.141-0.0078-0.016-0.1289 0.016-0.3554 0.09-0.6446 0.223-1.3086 0.391-1.9336 0.492-0.293 0.047-1.0352 0.055-1.2266 0.008-0.4414-0.102-0.6758-0.32-0.7031-0.652-0.0156-0.184 0.0351-0.36 0.1718-0.622 0.1836-0.3433 0.4024-0.6167 0.8047-1.0191 0.3282-0.3242 0.9844-0.8711 1.3516-1.1171l0.0781-0.0547-0.1133-0.086c-1.4961-1.082-2.3398-2.0781-2.2968-2.7109 0.039-0.5313 0.6406-0.7695 1.6953-0.6641 0.2344 0.0235 0.2383 0.0235 0.3047-0.0312 0.2148-0.1602 0.5312-0.1055 0.6679 0.1172 0.0469 0.0781 0.0704 0.0937 0.1758 0.1211 0.1914 0.0468 0.7578 0.2109 1.0664 0.3164 0.1602 0.0507 0.293 0.0898 0.3008 0.082 0.0078-0.0039 0.0352-0.1211 0.0586-0.2617 0.2617-1.4024 0.6992-2.4141 1.2188-2.8477 0.2695-0.2187 0.5742-0.2773 0.8554-0.1562 0.2578 0.1132 0.5625 0.4453 0.7969 0.8672 0.168 0.3007 0.3945 0.9218 0.5351 1.4609 0.0743 0.2812 0.1797 0.8008 0.1797 0.8672 0 0.0312 0.0118 0.0586 0.0235 0.0664s0.1797-0.0391 0.3706-0.1055c1.711-0.5664 3.094-0.6719 3.629-0.2773 0.356 0.2617 0.317 0.7812-0.089 1.3554-0.071 0.0977-0.086 0.1368-0.071 0.1797 0.008 0.0313 0.016 0.1211 0.02 0.2032 0 0.1367-0.008 0.1601-0.067 0.2304-0.097 0.1172-0.246 0.1719-0.41 0.1524-0.121-0.0118-0.133-0.0078-0.191 0.0547-0.114 0.1171-0.738 0.6328-1.031 0.8515-0.157 0.1133-0.282 0.2188-0.282 0.2305 0 0.0078 0.078 0.0742 0.176 0.1445 0.281 0.207 0.758 0.5977 0.973 0.8008 0.984 0.9297 1.371 1.668 1.117 2.133-0.25 0.457-1.113 0.535-2.481 0.23-0.347-0.078-1.175-0.32-1.4722-0.429-0.0977-0.039-0.1836-0.059-0.1914-0.051-0.0117 0.008-0.043 0.144-0.0703 0.301-0.25 1.371-0.6641 2.367-1.1719 2.8-0.0781 0.067-0.1914 0.145-0.2578 0.176-0.1485 0.067-0.3633 0.086-0.5 0.047zm0.3203-0.277c0.5664-0.153 1.0547-1.168 1.3398-2.797 0.0313-0.188 0.0469-0.344 0.0391-0.356-0.0078-0.007-0.1719-0.07-0.3594-0.144-0.1875-0.067-0.5234-0.211-0.7461-0.317l-0.4101-0.187-0.3828 0.176c-0.3282 0.148-0.6875 0.3-1.086 0.445-0.0781 0.027-0.0898 0.039-0.0898 0.102 0 0.093 0.0586 0.406 0.1523 0.832 0.125 0.539 0.1289 0.543 0.2422 0.582 0.1289 0.043 0.2031 0.089 0.2578 0.203 0.0586 0.117 0.0586 0.261-0.0351 0.386-0.0782 0.106-0.0821 0.098 0.0976 0.418 0.2149 0.383 0.4375 0.594 0.7031 0.668 0.0899 0.024 0.1446 0.024 0.2774-0.011zm5.0863-2.641c0.179-0.031 0.371-0.125 0.445-0.215 0.098-0.121 0.121-0.215 0.109-0.383-0.027-0.355-0.355-0.8277-0.992-1.4254-0.375-0.3515-1.297-1.0547-1.363-1.039-0.02 0.0039-0.184 0.1093-0.363 0.2304-0.184 0.1211-0.493 0.3203-0.688 0.4375l-0.3554 0.211-0.0274 0.4062c-0.0156 0.2227-0.0507 0.5547-0.0781 0.7423-0.0273 0.187-0.0429 0.348-0.039 0.351 0.0273 0.028 0.6369 0.235 1.0079 0.348 1.031 0.309 1.836 0.426 2.344 0.336zm-9.5472-0.019c0.5976-0.071 1.3867-0.27 2.1874-0.551 0.1797-0.063 0.25-0.098 0.25-0.125 0-0.02-0.0234-0.184-0.0468-0.364-0.0274-0.1831-0.0586-0.523-0.0742-0.7573l-0.0313-0.4219-0.1289-0.0703c-0.2305-0.1211-0.7617-0.4453-0.9961-0.6055-0.125-0.0859-0.2344-0.1562-0.2422-0.1562-0.0273 0-0.1601 0.0937-0.5117 0.3593-0.3633 0.2735-0.9102 0.7539-1.1562 1.0078-0.8399 0.8831-0.9102 1.5121-0.1758 1.6721 0.1679 0.035 0.664 0.043 0.9258 0.012zm3.164-0.915c0.1758-0.07 0.4375-0.179 0.5742-0.2456l0.2578-0.1172-0.2304-0.1094c-0.2891-0.1328-0.6992-0.3476-0.9102-0.4726-0.2461-0.1407-0.2304-0.1485-0.2304 0.1171 0 0.2305 0.0234 0.4805 0.0742 0.8087 0.0312 0.207-0.0078 0.207 0.4648 0.019zm2.7539 0.043c0.0821-0.5777 0.125-1.0972 0.086-1.0972-0.0118 0-0.0313 0.0078-0.0391 0.0195-0.0195 0.0313-0.7344 0.4024-1.0313 0.543-0.1523 0.0664-0.2773 0.1289-0.2773 0.1367 0 0.0312 1.125 0.504 1.2031 0.508 0.0313 0 0.043-0.031 0.0586-0.11zm-1.1797-0.7613c0.3828-0.1875 0.9141-0.4687 1.1758-0.625l0.125-0.0742 0.0156-0.2578c0.0196-0.3164 0.0157-1.4024-0.0039-1.4844-0.0117-0.0508-0.082-0.0976-0.414-0.2812-0.2188-0.1211-0.4024-0.2188-0.4024-0.2188-0.0039 0-0.1289-0.0625-0.2773-0.1367-0.4922-0.2461-0.582-0.2891-0.6211-0.2891-0.0899 0-1.2305 0.5743-1.6445 0.8243-0.1016 0.0624-0.1133 0.0742-0.125 0.1796-0.0274 0.2032-0.004 1.6094 0.0312 1.6602 0.0234 0.0391 0.4492 0.2891 0.7539 0.4453 0.4297 0.2188 0.918 0.4492 0.9492 0.4492 0.0157 0 0.2149-0.0859 0.4375-0.1914zm-0.6406-0.9883c-0.4141-0.1367-0.6094-0.5664-0.4141-0.9101 0.0938-0.1641 0.2422-0.2656 0.4493-0.3164 0.1796-0.0391 0.2929-0.0274 0.4922 0.0586 0.414 0.1797 0.5273 0.6836 0.2187 1-0.168 0.1718-0.5039 0.2461-0.7461 0.1679zm-1.8516-0.6093c0-0.5625-0.0039-0.7071-0.0273-0.6993-0.1875 0.0977-1.0703 0.6836-1.0703 0.7071 0 0.0117 0.0703 0.0664 0.1523 0.1211 0.2032 0.1367 0.9063 0.5781 0.9297 0.5781 0.0078 0 0.0156-0.3164 0.0156-0.707zm4.6172 0.4179c0.258-0.1601 0.5-0.3203 0.547-0.3593 0.086-0.0665 0.09-0.0704 0.039-0.1016-0.398-0.2773-1.012-0.668-1.0508-0.668-0.0117 0-0.0234 0.3203-0.0274 0.711-0.0039 0.3906 0.004 0.7109 0.0118 0.7109s0.2264-0.1328 0.4804-0.293zm-5.375-0.9609c0.2852-0.1836 0.5821-0.3711 0.6602-0.4141l0.1406-0.082 0.0156-0.2305c0.0235-0.3437 0.0586-0.6875 0.1016-0.9765 0.0547-0.3828 0.0664-0.3438-0.1367-0.4141-0.2266-0.082-0.9571-0.3008-1.1602-0.3477l-0.1562-0.039-0.0742 0.0742c-0.1446 0.1484-0.3672 0.1875-0.5469 0.0977-0.0977-0.0508-0.1914-0.168-0.2188-0.2735-0.0117-0.0547-0.0234-0.0586-0.1914-0.0703-0.3047-0.0273-0.7578-0.0039-0.9179 0.0508-0.7539 0.2422-0.5274 0.9805 0.625 2.0156 0.2109 0.1914 0.5468 0.4688 0.7421 0.6133 0.5196 0.3867 0.5118 0.3828 0.5586 0.3516 0.0235-0.0118 0.2735-0.1758 0.5586-0.3555zm6.527 0.1797c0.364-0.2578 0.579-0.4258 0.907-0.7149l0.265-0.2343-0.015-0.0977c-0.02-0.1445 0.007-0.2695 0.089-0.3516 0.098-0.1015 0.192-0.1445 0.333-0.1328l0.121 0.0078 0.113-0.1484c0.25-0.3281 0.34-0.6719 0.23-0.8789-0.058-0.1211-0.117-0.1719-0.269-0.2383-0.383-0.1719-1.153-0.1328-2.102 0.1016-0.41 0.1055-1.449 0.4258-1.4919 0.4648-0.0079 0.0039 0.0078 0.1797 0.039 0.3867 0.0469 0.3516 0.0938 0.8868 0.0938 1.0704 0 0.0742 0.0117 0.082 0.2071 0.1992 0.344 0.2031 0.789 0.4844 0.988 0.6328 0.102 0.0742 0.192 0.1367 0.199 0.1367 0.008 0 0.141-0.0898 0.293-0.2031zm-1.9918-0.9883c0-0.2617-0.1016-1.1172-0.1328-1.1172-0.0352 0-1.2149 0.5117-1.2149 0.5313 0 0.0039 0.0586 0.0312 0.125 0.0586 0.1836 0.0781 0.8828 0.4414 1.0469 0.5468 0.0781 0.0469 0.1484 0.0899 0.1563 0.0899 0.0117 0.0039 0.0195-0.0469 0.0195-0.1094zm-3.3086 0.0508c0.1562-0.0938 0.8203-0.4453 1.0352-0.543l0.2421-0.1133-0.1445-0.0703c-0.3125-0.1562-1.0547-0.4453-1.0937-0.4336-0.0313 0.0117-0.043 0.0742-0.0899 0.5-0.082 0.7383-0.082 0.7461 0.0508 0.6602zm1.8398-0.9102c0.2188-0.0976 0.8672-0.3633 1.1758-0.4765 0.168-0.0625 0.1602-0.0157 0.0547-0.586-0.2148-1.1406-0.5547-2.0039-0.9375-2.375-0.1875-0.1836-0.332-0.25-0.5234-0.25-0.168 0-0.3008 0.0547-0.4453 0.1836-0.4415 0.3985-0.8086 1.2969-1.0391 2.5586-0.0664 0.3594-0.0664 0.3906-0.0391 0.4102 0.0117 0.0117 0.1953 0.0859 0.4024 0.1679 0.207 0.0821 0.5429 0.2227 0.7422 0.3086 0.2031 0.086 0.3711 0.1602 0.3711 0.1602 0.0078 0 0.1132-0.043 0.2382-0.1016z" fill="#c8a878"/>
</svg>
