<svg viewBox="0 0 16 16" width="16" xmlns="http://www.w3.org/2000/svg" xmlns:xlink="http://www.w3.org/1999/xlink" height="16">
 <g fill="#648db5">
  <path d="m7.9375 2.668c-0.4336 0.0039-0.8516 0.039-1.2148 0.1054-1.0782 0.1875-1.2735 0.586-1.2735 1.3204v0.9726h2.543v0.3203h-3.5c-0.7383 0-1.3867 0.4453-1.5899 1.293-0.2304 0.9687-0.2421 1.5742 0 2.5859 0.1836 0.7544 0.6133 1.2894 1.3555 1.2894h0.75v-1.2894c0-0.8398 0.7266-1.5781 1.5899-1.5781h2.664c0.7071 0 1.3793-0.582 1.3793-1.293v-2.3007c0-0.6876-0.6879-1.2071-1.3793-1.3204-0.4375-0.0742-0.8906-0.1054-1.3242-0.1054zm-1.375 0.7812c0.2617 0 0.4766 0.2188 0.4766 0.4844 0 0.2695-0.2149 0.4844-0.4766 0.4844-0.2656 0-0.4805-0.2149-0.4805-0.4844 0-0.2656 0.2149-0.4844 0.4805-0.4844z"/>
  <path d="m11 5.3867v1.1328c0 0.875-0.746 1.5078-1.5898 1.5078h-2.793c-0.6953 0-1.2734 0.6993-1.2734 1.3985v2.4222c0 0.691 0.6015 1.093 1.2734 1.293 0.8047 0.238 1.6836 0.281 2.6445 0 0.6406-0.184 1.2733-0.559 1.2733-1.293v-0.969h-2.5428v-0.324h3.8168c0.738 0 1.015-0.516 1.269-1.2894 0.266-0.7968 0.258-1.5664 0-2.5859-0.18-0.7383-0.531-1.293-1.269-1.293zm-1.5781 6.1363c0.2656 0 0.4804 0.219 0.4804 0.485 0 0.269-0.2148 0.488-0.4804 0.488-0.2617 0-0.4766-0.219-0.4766-0.488 0-0.266 0.2149-0.485 0.4766-0.485z"/>
 </g>
</svg>
