<svg viewBox="0 0 16 16" width="16" xmlns="http://www.w3.org/2000/svg" xmlns:xlink="http://www.w3.org/1999/xlink" height="16">
 <g fill="#a98bc7">
  <path d="m7.7344 1.7305c-3.6602 0-6.336 2.8281-5.9688 6.2929 0.3086 2.9256 2.6836 5.3786 5.6172 6.0786-0.5039-0.821-0.8281-1.739-0.9297-2.707-0.3672-3.4692 2.3086-6.2661 5.9729-6.2661 0.574 0 1.129 0.0703 1.676 0.1992-1.29-2.1172-3.723-3.5976-6.3676-3.5976zm0 1.2968c1.1484 0 2.2539 0.3555 3.2036 0.9415-3.5747 0.6914-6.1411 3.8515-5.7661 7.5392-1.1407-0.942-1.9727-2.2189-2.125-3.6252-0.2891-2.7383 1.6914-4.8555 4.6875-4.8555z"/>
  <path d="m4.6953 4.0742c0.6445 0 1.168 0.6289 1.168 1.4063v4.9765c0 0.773-0.5235 1.402-1.168 1.402-0.6484 0-1.1719-0.629-1.1719-1.402v-4.9765c0-0.7774 0.5235-1.4063 1.1719-1.4063z"/>
  <path d="m3.9258 4.9414c0.625 0 1.1367 0.6289 1.1367 1.4063v2.664c0 0.7774-0.5117 1.4063-1.1367 1.4063-0.6289 0-1.1367-0.6289-1.1367-1.4063v-2.664c0-0.7774 0.5078-1.4063 1.1367-1.4063z"/>
  <path d="m5.3984 3.4336c0.6446 0 1.168 0.6289 1.168 1.4062v1.9297c0 0.7774-0.5234 1.4063-1.168 1.4063-0.6445 0-1.1679-0.6289-1.1679-1.4063v-1.9297c0-0.7773 0.5234-1.4062 1.1679-1.4062z"/>
  <path d="m5.9531 2.3125h1.6758c0.7773 0 1.4063 0.6289 1.4063 1.4063v1.0351c0 0.7734-0.629 1.4023-1.4063 1.4023h-1.6758c-0.7734 0-1.4023-0.6289-1.4023-1.4023v-1.0351c0-0.7774 0.6289-1.4063 1.4023-1.4063z"/>
  <path d="m6.6172 4.6211c0.4492 0 0.8164 0.6094 0.8164 1.3594 0 0.7539-0.3672 1.3633-0.8164 1.3633-0.4531 0-0.8164-0.6094-0.8164-1.3633 0-0.75 0.3633-1.3594 0.8164-1.3594z"/>
  <path d="m9.3164 2.9219h0.2656c0.777 0 1.406 0.4453 1.406 0.9961 0 0.5468-0.629 0.9922-1.406 0.9922h-0.2656c-0.7734 0-1.4023-0.4454-1.4023-0.9922 0-0.5508 0.6289-0.9961 1.4023-0.9961z"/>
 </g>
</svg>
