<svg viewBox="0 0 16 16" width="16" xmlns="http://www.w3.org/2000/svg" xmlns:xlink="http://www.w3.org/1999/xlink" height="16">
 <g stroke="#d68b85" fill="#d68b85">
  <path stroke-width=".31" d="m110.76 199.21c0.82-1.12 0.58-2.64-0.53-3.4l-38.907-27.91c-1.054-0.82-2.633-0.58-3.394 0.53s-0.527 2.64 0.585 3.4l38.906 27.9c1.06 0.82 2.58 0.59 3.34-0.52z" transform="matrix(.06676 0 0 .06664 -2.4453 -.20036)"/>
  <path stroke-width=".301" d="m104.91 182.32c0.99-0.93 1.11-2.4 0.23-3.34l-31.067-32.94c-0.878-0.94-2.341-0.94-3.335 0-0.995 0.88-1.054 2.4-0.176 3.34l31.008 32.94c0.88 0.94 2.4 0.94 3.34 0z" transform="matrix(.06676 0 0 .06664 -2.4453 -.20036)"/>
  <path stroke-width=".31" d="m195.77 99.611c1-0.937 1-2.462 0-3.399l-33.82-33.882c-0.99-0.938-2.51-0.938-3.45 0-0.93 0.937-0.93 2.52 0 3.458l33.88 33.823c0.94 0.999 2.46 0.999 3.39 0z" transform="matrix(.06676 0 0 .06664 -2.4453 -.20036)"/>
  <path stroke-width=".304" d="m193.84 116.9c1-0.88 1.05-2.4 0.18-3.4l-31.6-33.526c-0.88-0.938-2.34-0.938-3.39 0-0.94 0.879-1 2.403-0.12 3.341l31.6 33.585c0.87 0.94 2.34 0.94 3.33 0z" transform="matrix(.06676 0 0 .06664 -2.4453 -.20036)"/>
  <path stroke-width=".249" d="m176.87 119.37c1.17-0.71 1.7-1.88 1.23-2.64l-16.73-25.97c-0.41-0.704-1.76-0.704-2.87 0-1.17 0.762-1.69 1.934-1.23 2.638l16.74 25.972c0.47 0.76 1.75 0.76 2.86 0z" transform="matrix(.06676 0 0 .06664 -2.4453 -.20036)"/>
  <path stroke-width=".295" d="m166.17 140.88c0.93-1 1.05-2.46 0.17-3.28l-30.6-30.6c-0.82-0.88-2.34-0.82-3.27 0.17-0.94 0.94-1.06 2.41-0.18 3.29l30.6 30.6c0.88 0.82 2.34 0.76 3.28-0.18z" transform="matrix(.06676 0 0 .06664 -2.4453 -.20036)"/>
  <path stroke-width=".232" d="m100.17 159.75c1.17-0.7 1.81-1.81 1.4-2.46l-13.923-22.86c-0.351-0.64-1.58-0.58-2.75 0.06-1.17 0.7-1.755 1.82-1.404 2.46l13.925 22.92c0.351 0.59 1.638 0.59 2.752-0.12z" transform="matrix(.06676 0 0 .06664 -2.4453 -.20036)"/>
  <g stroke-width=".31">
   <path d="m231.7 47.147c-5.03 2.579-45.46-10.669-45.46-10.669s10.35 34.82 12.52 44.492c2.22 9.731 2.22 24.15 2.22 24.15-0.29 6.57-2.81 8.44-7.84 14.13-5.03 5.63-11.59 4.69-14.74 4.04-3.11-0.58-37.63-8.73-47.98-11.6-10.36-2.82-21.65-0.3-25.69 2.52-4.09 2.81-6.259 10.67-6.259 10.67-5.383 22.92 17.199 68.99 17.199 68.99-1.87 4.98-8.13 10.03-8.13 10.03s-23.521-61.5-13.808-80.61c9.708-19.11 25.748-18.81 32.648-18.81s50.44 12.83 57.69 12.54c7.2-0.29 11.88 3.17 8.13-17.526-3.74-20.692-12.52-48.302-13.51-54.868-0.94-6.565 2.86-10.375 2.86-10.375s4.69-5.921 10.65-4.983c5.97 0.938 31.66 10.024 40.73 13.776 1.75 0.703 0.46 3.224-1.23 4.103z" transform="matrix(.06676 0 0 .06664 -2.4453 -.20036)"/>
   <path d="m247.67 62.505c-20.36 12.193-35.4 6.566-43.59 5.921-8.13-0.645-33.17-11.9-39.2-12.838-5.91-0.938-10.65 5.042-10.65 5.042s-3.74 3.751-2.81 10.317c0.94 6.565 9.71 34.173 13.46 54.863 3.8 20.7-0.88 17.24-8.13 17.59-7.2 0.29-50.79-12.6-57.694-12.6-6.845 0-22.877-0.3-32.59 18.87-9.712 19.11 2.516 54.52 2.516 54.52s16.91 14.42 15.33 9.08c0 0-18.431-39.15-13.165-62.07 0 0 2.223-7.8 6.261-10.67 4.095-2.82 15.388-5.34 25.742-2.46 10.36 2.81 44.82 10.96 47.98 11.6 3.1 0.59 9.71 1.53 14.74-4.1 5.04-5.63 7.49-7.5 7.84-14.13 0 0 0-14.42-2.22-24.09-2.16-9.732-12.52-44.552-12.52-44.552s38.03 12.369 42.01 12.545c7.84 0.293 22.58 4.396 34.46-2.521 11.94-6.917 12.23-10.317 12.23-10.317z" transform="matrix(.06676 0 0 .06664 -2.4453 -.20036)"/>
  </g>
  <path stroke-width=".306" d="m144.05 146.33c0.94-0.94 0.99-2.46 0.06-3.4l-33-33c-0.94-0.94-2.46-0.88-3.39 0.06-1 0.93-1 2.46-0.06 3.4l33 33c0.93 0.94 2.45 0.94 3.39-0.06z" transform="matrix(.06676 0 0 .06664 -2.4453 -.20036)"/>
  <path stroke-width=".324" d="m158.5 147.62c0.94-1 0.88-2.58-0.17-3.63l-36.98-36.99c-1.05-1.06-2.69-1.12-3.63-0.18-0.94 1-0.88 2.58 0.18 3.64l36.97 36.98c1.06 1.06 2.7 1.12 3.63 0.18z" transform="matrix(.06676 0 0 .06664 -2.4453 -.20036)"/>
  <path stroke-width=".249" d="m124.39 141.23c0.88-1.05 1-2.28 0.35-2.87l-23.64-19.87c-0.7-0.53-1.927-0.12-2.746 0.88-0.878 1.05-1.053 2.34-0.409 2.87l23.635 19.87c0.7 0.59 1.93 0.18 2.81-0.88z" transform="matrix(.06676 0 0 .06664 -2.4453 -.20036)"/>
  <path stroke-width=".31" d="m232.81 72.353c0.94-0.937 0.94-2.52 0-3.458l-33.88-33.823c-0.93-0.997-2.51-0.997-3.45 0-0.94 0.937-0.94 2.462 0 3.399l33.88 33.882c0.93 0.938 2.51 0.938 3.45 0z" transform="matrix(.06676 0 0 .06664 -2.4453 -.20036)"/>
  <path stroke-width=".296" d="m213.91 74.229c1.05-0.82 1.29-2.227 0.59-3.224l-26.92-34.585c-0.76-0.938-2.22-1.055-3.28-0.235-1.05 0.821-1.28 2.286-0.52 3.224l26.85 34.586c0.76 0.996 2.23 1.114 3.28 0.234z" transform="matrix(.06676 0 0 .06664 -2.4453 -.20036)"/>
 </g>
</svg>
