<svg viewBox="0 0 16 16" width="16" xmlns="http://www.w3.org/2000/svg" xmlns:xlink="http://www.w3.org/1999/xlink" height="16">
 <path fill="#d56f7f" d="m6.0547 13.074c0.3984-0.047-0.0664-0.379-0.1992-0.445-0.2539-0.129-0.461-0.274-0.6211-0.512-0.2539-0.383-0.3789-0.894-0.4844-1.336-0.0742-0.297-0.1289-0.472 0.0625-0.726 0.1875-0.2503-0.1367-0.4612 0.0664-0.7269 0.3359-0.4492 0.4766-1.039 0.8086-1.4843 0.0937-0.125 0.0586-0.2422 0.1953-0.254 0.0664-0.0078 0.2305 0.125 0.2891 0.1602 0.164 0.1133 0.3633 0.1641 0.5273 0.2695 0.0781 0.0547 0.2344 0.0157 0.3008 0.0664 0.1953 0.1524 0.1484 0.625 0.1289 0.8633-0.0312 0.3438-0.3047 0.4531-0.3047 0.7813 0 0.3985 0.086 0.6715-0.039 1.0785-0.0743 0.234-0.254 0.503-0.2813 0.742-0.0273 0.187 0.0078 0.183 0.0664 0.363 0.0625 0.215 0.082 0.402 0.2813 0.5 0.1172 0.055 0.582 0.074 0.6484-0.055 0.1289-0.254-0.3633-0.343-0.4453-0.5-0.1797-0.336 0.2422-1.203 0.4023-1.496 0.0899-0.156 0.2618-0.285 0.3242-0.4411 0.086-0.2149-0.0859-0.3633-0.0585-0.5274 0.0507-0.3203 0.1875-0.6601 0.289-0.9687 0.2344-0.7188 0.5625 0.3711 0.6992 0.6484 0.0547 0.1055 0.0938 0.2227 0.1485 0.336 0.0664 0.1289-0.0782 0.2421-0.0391 0.4023 0.0352 0.1523 0.2109 0.2385 0.3086 0.3515 0.1484 0.172 0.25 0.395 0.332 0.606 0.1641 0.445 0.2227 1.218 0.5313 1.574 0.0428 0.054 0.1678 0.023 0.2148 0.07 0.105 0.106-0.027 0.219 0.184 0.289 0.16 0.055 0.566 0.113 0.718 0.02 0.293-0.176-0.074-0.395-0.254-0.578-0.257-0.258-0.554-0.493-0.757-0.797-0.2621-0.399-0.3168-0.852-0.3714-1.313-0.0235-0.2225 0.2187-0.3319 0.0117-0.6014-0.0703-0.082-0.2735-0.0703-0.2735-0.1602 0-0.2773-0.0078-0.5586 0-0.8359 0.0118-0.3359 0.0079-0.8906 0.3321-1.1055 0.4261-0.2851 0.9731-0.3593 1.3791-0.664 0.406-0.3086 0.781-0.586 1.027-1.0703 0.125-0.2579 0.192-0.5079 0.297-0.7696 0.074-0.1953 0.051-0.1289 0.172-0.2422 0.074-0.0664 0.18-0.1132 0.258-0.1914 0.207-0.1953 0.246-0.3906 0.593-0.3086 0.137 0.0352 0.364 0.293 0.442 0.1329 0.051-0.0977 0.019-0.1915-0.004-0.293-0.039-0.1563 0.144-0.2031 0.141-0.3516-0.008-0.2539-0.414-0.5156-0.625-0.5586-0.27-0.0547-0.563 0.0586-0.844 0.0039-0.231-0.0429-0.426-0.1679-0.649-0.2187-0.226-0.0586-0.433-0.0781-0.632 0.0586-0.09 0.0625-0.122 0.1758-0.2 0.2422-0.07 0.0546-0.125 0.039-0.203 0.0937-0.23 0.168-0.25 0.4141 0.149 0.3399-0.168 0.6914-0.981 2.5507-1.8871 1.5898-0.4218-0.4492-0.8125-0.9492-1.2148-1.4141-0.3516-0.414-0.5547-0.8789-1.1563-0.7968-0.5937 0.0781-1 0.4843-1.457 0.8203-0.375 0.2773-0.8164 0.3398-1.2148 0.5664-0.418 0.2422-0.7969 0.6523-0.9414 1.1172-0.2071 0.6758-0.0899 1.3281-0.4571 1.9687-0.2226 0.3906-0.5429 0.6602-0.8242 0.9844-0.1484 0.1719-0.25 0.4141-0.1992 0.6445 0.0312 0.1641 0.1484 0.1914 0.1484 0.3789 0 0.3282-0.0195 0.6525-0.0039 0.9765 0.0117 0.293 0.0352 0.578 0.0782 0.867 0.0351 0.246 0.125 0.317 0.207 0.5 0.1211 0.274 0.1015 0.391 0.3906 0.5 0.1641 0.059 0.4453 0.184 0.6211 0.176 0.25-0.012 0.2891-0.219 0.0937-0.445-0.125-0.145-0.3593-0.192-0.496-0.352-0.4102-0.457-0.586-1.8318-0.2461-2.3162 0.1445-0.2031 0.3242-0.2031 0.3359-0.5117 0.0156-0.2735-0.0977-0.3711 0.1523-0.6211 0.7891-0.4024 0.8711-0.6914 1.1289-0.5508 0.3126 0.168 0.0665 1.1211 0 1.3867-0.121 0.4766-0.5937 0.7031-0.2812 1.1871 0.2227 0.344 0.3242 0.7 0.4766 1.106 0.1367 0.363 0.125 0.879 0.3437 1.183 0.043 0.059 0.1094 0.09 0.1485 0.149 0.0273 0.043 0.0742 0.164 0.0937 0.187 0.0898 0.106 0.1133 0.133 0.2578 0.192 0.2617 0.097 0.5781 0.066 0.8594 0.066" fill-rule="evenodd"/>
</svg>
