<svg viewBox="0 0 16 16" width="16" xmlns="http://www.w3.org/2000/svg" xmlns:xlink="http://www.w3.org/1999/xlink" height="16">
 <g fill="#de165d">
  <path d="m8 5.4922c0 1.8398-1.4922 3.3281-3.332 3.3281-1.8438 0-3.336-1.4883-3.336-3.3281 0-1.836 1.4922-3.3281 3.336-3.3281 1.8398 0 3.332 1.4921 3.332 3.3281z"/>
  <path d="m14.668 5.4922c0 1.8398-1.492 3.3281-3.336 3.3281-1.8398 0-3.332-1.4883-3.332-3.3281 0-1.836 1.4922-3.3281 3.332-3.3281 1.844 0 3.336 1.4921 3.336 3.3281z"/>
  <path d="m1.9648 7.3867l6.1407-1.7851 5.7065 2.1093-5.855 6.1211z"/>
 </g>
</svg>
