<svg viewBox="0 0 16 16" width="16" xmlns="http://www.w3.org/2000/svg" xmlns:xlink="http://www.w3.org/1999/xlink" height="16">
 <g stroke="#85b2b4">
  <g stroke-linecap="round" fill="none">
   <path stroke-width="8.073" d="m34.42 32.021h187.2c1.32 0 2.33 1.073 2.33 2.399v187.2c0 1.32-1.01 2.33-2.33 2.33h-187.2c-1.326 0-2.399-1.01-2.399-2.33v-187.2c0-1.326 1.073-2.399 2.399-2.399z" transform="scale(.06185)"/>
   <path stroke-width="7.598" d="m127.07 32.715h0.06c0.32 0 0.64 0.316 0.64 0.695v188.59c0 0.38-0.32 0.63-0.64 0.63h-0.06c-0.38 0-0.69-0.25-0.69-0.63v-188.59c0-0.379 0.31-0.695 0.69-0.695z" transform="scale(.06185)"/>
  </g>
  <g stroke-linejoin="round" fill="#85b2b4">
   <g stroke-width="3">
    <path d="m205.07 192.38l-16.48-15.92 15.85-16.67-11.43-10.3-16.36 15.85-16.67-15.85-11.88 10.68 16.61 16.23-16.61 15.91 11.88 11.18 16.67-16.67 16.67 16.67z" transform="scale(.06185)"/>
    <path fill-rule="evenodd" d="m68.841 68.715v-18h20.842v18h17.997v21.031h-17.997v18.004h-20.842l-0.063-18.004h-18.126v-21.031z" transform="scale(.06185)"/>
   </g>
   <g stroke-width="3.032">
    <path d="m187.95 79.136l16.05-15.979-11.5-10.421-16.55 16.042-12.06 11.179-16.86 16.105 12.06 11.238 16.8-16.859z" transform="scale(.06185)"/>
    <g stroke-linecap="round" stroke-miterlimit="10">
     <path d="m168.31 61.831c0 4.989-4.1 9.094-9.15 9.094-4.99 0-9.04-4.105-9.04-9.094 0-4.99 4.05-9.095 9.04-9.095 5.05 0 9.15 4.105 9.15 9.095z" transform="scale(.06185)"/>
     <path d="m198.63 98.209c0 5.051-4.11 9.091-9.16 9.091-4.99 0-9.03-4.04-9.03-9.091 0-5.053 4.04-9.095 9.03-9.095 5.05 0 9.16 4.042 9.16 9.095z" transform="scale(.06185)"/>
    </g>
   </g>
   <g stroke-width="2.727">
    <path fill-rule="evenodd" d="m105.03 170.08v13.64h-51.852v-13.64z" transform="scale(.06185)"/>
    <g stroke-linecap="round" stroke-miterlimit="10">
     <path d="m85.893 156.5c0 4.49-3.6 8.15-8.147 8.15s-8.21-3.66-8.21-8.15c0-4.54 3.663-8.21 8.21-8.21s8.147 3.67 8.147 8.21z" transform="scale(.06185)"/>
     <path d="m85.893 197.37c0 4.54-3.6 8.21-8.147 8.21s-8.21-3.67-8.21-8.21c0-4.49 3.663-8.22 8.21-8.22s8.147 3.73 8.147 8.22z" transform="scale(.06185)"/>
    </g>
   </g>
  </g>
 </g>
</svg>
