<svg viewBox="0 0 16 16" width="16" xmlns="http://www.w3.org/2000/svg" xmlns:xlink="http://www.w3.org/1999/xlink" height="16">
 <path d="m7.9961 4.332c-0.125 0-0.2461 0.0118-0.3633 0.0196-1.4766 0.0546-2.6172 0.4414-3.4062 0.8476-0.8516 0.4414-1.3516 0.9336-1.3516 0.9336-0.2812 0.293-0.2773 0.8203 0.0039 1.1094 0.2813 0.289 0.793 0.293 1.0781 0.0078 0 0 0.211-0.2148 0.6836-0.4922-0.1367 0.3906-0.207 0.8047-0.207 1.2422 0 2.016 1.6055 3.668 3.5625 3.668 1.9609 0 3.5629-1.652 3.5629-3.668 0-0.4375-0.067-0.8516-0.207-1.2422 0.472 0.2774 0.683 0.4922 0.683 0.4922 0.285 0.293 0.801 0.293 1.086 0.0039 0.285-0.293 0.281-0.8242-0.004-1.1172 0 0-0.496-0.4922-1.351-0.9297-0.789-0.4062-1.9301-0.7968-3.4027-0.8515-0.1211-0.0157-0.2422-0.0157-0.3672-0.0157zm0 1.1524c1.1328 0 2.7029 0.5351 2.7029 2.5156 0 1.7305-1.0701 2.758-2.7029 2.758-1.6094 0-2.6797-1.051-2.6797-2.758 0-1.7578 1.5469-2.5156 2.6797-2.5156z" fill="#4cb29c"/>
 <path stroke-linejoin="round" d="m24.996 24.002c0 0.552-0.445 1-0.998 1-0.552 0-0.997-0.448-0.997-1s0.445-1 0.997-1c0.553 0 0.998 0.448 0.998 1z" transform="matrix(.50892 0 0 .52365 -4.2172 -4.5687)" stroke="#4cb29c" stroke-linecap="round" stroke-width="3.186" fill="none"/>
</svg>
