<svg viewBox="0 0 16 16" width="16" xmlns="http://www.w3.org/2000/svg" xmlns:xlink="http://www.w3.org/1999/xlink" height="16">
 <path stroke-linejoin="round" d="m43.452-139.35h169.14c5.05 0 9.15 4.11 9.15 9.23v106.67c0 5.05-4.1 9.156-9.15 9.156h-169.14c-5.051 0-9.156-4.106-9.156-9.158v-106.67c0-5.12 4.105-9.23 9.158-9.23z" transform="matrix(.06185 0 0 .06185 0 12.865)" stroke="#df8dc8" stroke-linecap="round" stroke-width="12.503" fill="none"/>
 <g fill="#df8dc8">
  <path d="m3.6641 3.4648h1.5468c0.2149 0 0.3868 0.1719 0.3868 0.3868 0 0.2109-0.1719 0.3867-0.3868 0.3867h-1.5468c-0.2149 0-0.3868-0.1758-0.3868-0.3867 0-0.2149 0.1719-0.3868 0.3868-0.3868z"/>
  <path d="m12.168 5.0117h0.387c0.215 0 0.386 0.1719 0.386 0.3867v0.3868c0 0.2109-0.171 0.3867-0.386 0.3867h-0.387c-0.215 0-0.387-0.1758-0.387-0.3867v-0.3868c0-0.2148 0.172-0.3867 0.387-0.3867z"/>
 </g>
 <path d="m31.001 26.498c0 3.596-2.91 6.505-6.498 6.505-3.597 0-6.507-2.909-6.507-6.505 0-3.586 2.91-6.495 6.507-6.495 3.588 0 6.498 2.909 6.498 6.495z" transform="matrix(.38655 0 0 .38672 -1.5538 -1.9505)" stroke="#df8dc8" stroke-width="2" fill="none"/>
</svg>
