<svg viewBox="0 0 16 16" width="16" xmlns="http://www.w3.org/2000/svg" xmlns:xlink="http://www.w3.org/1999/xlink" height="16">
 <g stroke-width="4.545" stroke="#549ca4" fill="#549ca4">
  <path d="m69.157 106.23c1.642 7.58 2.526 13.26 1.2 20.78-10.295 8.4-36.568 12.12-36.568 20.78l-3.537 26.02c0 8.59 24.568 15.53 54.82 15.53 30.248 0 54.818-6.94 54.818-15.53l-3.53-26.02c-0.07-7.39-26.53-12.13-36.699-20.78-0.884-7.01-0.189-13.77 1.329-20.78z" transform="scale(.06185)"/>
  <path d="m84.82 57.536c-12.569 0-22.737 9.789-22.737 21.852 0.126 4.484 0.442 9.789 3.032 21.852 1.515 4.74 15.031 18.13 15.157 19.71 2.969 1.51 7.579 1.51 10.611 0 0-1.58 12.127-14.97 13.637-19.71 2.85-12.505 2.85-17.115 3.04-21.852 0-12.063-10.172-21.852-22.74-21.852z" transform="scale(.06185)"/>
  <g stroke-linejoin="round">
   <path d="m132.76 71.178c-7.71-4.548-20.15-36.252-18.19-22.737l4.54 31.831z" transform="scale(.06185)"/>
   <path d="m177.98 71.178c7.7-4.548 20.14-36.252 18.19-22.737l-4.55 31.831z" transform="scale(.06185)"/>
  </g>
  <path d="m134.84 107.56c2.08 9.91 3.22 17.36 1.52 27.28-13.2 10.93-47.056 15.92-46.993 27.22l-4.547 34.11c0 11.3 31.58 20.46 70.42 20.46 38.97 0 70.48-9.16 70.48-20.46l-4.54-34.11c-0.07-9.66-34.11-15.85-47.18-27.22-1.08-9.22-0.19-18.13 1.77-27.28z" transform="scale(.06185)"/>
  <path d="m155.24 39.347c-18.82 0-34.04 14.273-34.04 31.831 0.12 6.505 0.69 14.273 4.55 31.832 2.27 6.82 22.54 25.01 22.67 27.28 4.42 2.28 11.37 2.28 15.98 0 0-2.27 18.12-20.46 20.4-27.28 4.35-18.317 4.35-25.011 4.54-31.832 0-17.558-15.22-31.831-34.1-31.831z" transform="scale(.06185)"/>
 </g>
</svg>
