<svg viewBox="0 0 16 16" width="16" xmlns="http://www.w3.org/2000/svg" xmlns:xlink="http://www.w3.org/1999/xlink" height="16">
 <path d="m7.5664 1.7305c-0.3594 0-0.7109 0.0429-1.0742 0.125-2.8867 0.6836-6.3164 5.3515-1.9141 7.4297 2.0703 0.9808 1.9219 5.4298 4.8086 4.7458 2.8863-0.683 4.5743-3.965 3.7733-7.324-0.699-2.9414-3.078-4.9726-5.5936-4.9765zm-0.8906 0.9297c0.5117 0 0.9297 0.414 0.9297 0.9257 0 0.5118-0.418 0.9297-0.9297 0.9297s-0.9297-0.4179-0.9297-0.9297c0-0.5117 0.418-0.9257 0.9297-0.9257zm2.789 0.3086c0.5118 0 0.9302 0.414 0.9302 0.9257s-0.4184 0.9297-0.9302 0.9297c-0.5156 0-0.9296-0.418-0.9296-0.9297s0.414-0.9257 0.9296-0.9257zm-4.957 1.5468c0.5117 0 0.9297 0.4141 0.9297 0.9258s-0.418 0.9258-0.9297 0.9258-0.9297-0.4141-0.9297-0.9258 0.418-0.9258 0.9297-0.9258zm6.8122 0.6172c0.516 0 0.93 0.4141 0.93 0.9258 0 0.5156-0.414 0.9297-0.93 0.9297-0.511 0-0.925-0.4141-0.925-0.9297 0-0.5117 0.414-0.9258 0.925-0.9258zm-5.0778 2.4453c0.4375-0.0117 0.8867 0.3789 1.0547 0.9571 0.1914 0.6562-0.0508 1.3046-0.543 1.4453-0.4922 0.1445-1.0469-0.2696-1.2383-0.9258-0.1914-0.6563 0.0508-1.3047 0.543-1.4492 0.0586-0.0157 0.1211-0.0274 0.1836-0.0274zm5.3908 0.336c0.512 0 0.929 0.4179 0.929 0.9297 0 0.5117-0.417 0.9257-0.929 0.9257-0.516 0-0.93-0.414-0.93-0.9257 0-0.5118 0.414-0.9297 0.93-0.9297zm-1.238 2.4769c0.511 0 0.925 0.414 0.925 0.925 0 0.512-0.414 0.926-0.925 0.926-0.5161 0-0.9302-0.414-0.9302-0.926 0-0.511 0.4141-0.925 0.9302-0.925z" fill="#e684a3"/>
</svg>
