<svg viewBox="0 0 16 16" width="16" xmlns="http://www.w3.org/2000/svg" xmlns:xlink="http://www.w3.org/1999/xlink" height="16">
 <g fill-rule="evenodd">
  <path d="m76.167 33.473s14.589-1.516 30.253 0.947c0 0 0.82 2.906-1.71 3.79l-2.4 24.442 24.51 113.49s5.56 14.34-11.56 17.44c-17.177 3.09-42.882 7.89-62.966-7.65 0 0-4.737-6 3.6-33.53l22.799-89.369-0.884-24.758s-3.6-3.537-1.642-4.8z" transform="scale(.06185)" stroke="#5b93d6" stroke-width="7.56" fill="#fff"/>
  <path fill="#d1d6cf" d="m7.5742 11.383c0 0.269-0.8554 0.484-1.914 0.484s-1.9141-0.215-1.9141-0.484c0-0.27 0.8555-0.485 1.9141-0.485s1.914 0.215 1.914 0.485z" fill-opacity=".467"/>
  <path d="m7.0977 9.3477c-1.4493 0.7813-2.5313 0.5546-3.2422 0.1562l-0.0039 0.0078c0 0.0039-0.0039 0.0078-0.0039 0.0156-0.25 0.8247-0.2969 1.3127-0.2891 1.5627 0.0039 0.094 0.0117 0.148 0.0195 0.183 1.0703 0.762 2.4336 0.524 3.4727 0.336 0.4023-0.074 0.4101-0.179 0.4336-0.312 0.0273-0.133-0.0196-0.277-0.0196-0.277-0.0078-0.016-0.0117-0.036-0.0156-0.055z" fill="#acc2e2"/>
  <path d="m143.37 70.925l-0.76-20.463s0.12-2.589-1.33-3.41l1.01-2.337s8.65-1.895 29.37 0.568c0 0 3.28-0.189 3.66 2.653 0 0-1.83 1.895-1.64 5.116l-2.4 19.389s25.07 92.899 31.77 131.24c0 0-2.97 15.92-20.4 18.7-17.37 2.77-52.74 10.23-80.53-13.14 0 0-9.406-6.32 3.23-33.22l34.92-95.811s3.16-4.989 3.6-6.631-0.44-2.527-0.5-2.653z" transform="scale(.06185)" stroke="#5b93d6" stroke-width="7.56" fill="#fff"/>
  <path fill="#d1d6cf" d="m12.098 12.848c0 0.433-1.16 0.781-2.598 0.781-1.4375 0-2.6016-0.348-2.6016-0.781 0-0.43 1.1641-0.782 2.6016-0.782 1.438 0 2.598 0.352 2.598 0.782z" fill-opacity=".467"/>
  <g fill="#acc2e2">
   <g fill-opacity=".6">
    <path d="m5.2852 2.4727l0.0468 1.4101c0.0039 0.0391 0 0.0742-0.0078 0.1133l-0.5586 2.1914c0.1914 0.0156 0.3906 0.0898 0.5899 0.2422 0.375 0.2969 0.7304 0.2461 1.0507 0.0117l-0.5351-2.4844c-0.0117-0.039-0.0117-0.082-0.0117-0.1211l0.1328-1.3437c-0.2617-0.0195-0.5039-0.0234-0.7031-0.0195h-0.0039z"/>
    <path d="m9.4766 3.1992c-0.0508 0-0.086 0.0039-0.1289 0.0039l0.0351 1.0703c0.043 0.1016 0.0586 0.2539 0.0195 0.3946-0.0546 0.1953-0.1093 0.2539-0.1679 0.3515-0.043 0.0703-0.0625 0.1055-0.0821 0.1328l-1.1211 3.0743c0.6719-0.25 1.3672-0.1797 1.8438 0.7148 0 0 0.891 1.0234 0.668-1.793-0.02-0.2695-0.008-0.5078 0.027-0.7226-0.277-1.0742-0.48-1.832-0.48-1.832-0.02-0.0547-0.024-0.1133-0.016-0.168l0.149-1.1836c-0.2972-0.0234-0.5589-0.0391-0.7464-0.043zm-0.1602 0.9453c0 0.0039 0.0039 0.0078 0.0078 0.0157v-0.004c-0.0078-0.0117-0.0117-0.0156-0.0078-0.0117zm0.0117 0.0196c0.0078 0.0117 0.0117 0.0234 0.0196 0.0351-0.0079-0.0156-0.0157-0.0273-0.0196-0.0351z"/>
   </g>
   <path d="m7.2305 10.277l-0.2735 0.746c-0.0039 0.012-0.0078 0.02-0.0117 0.032-0.3672 0.789-0.3906 1.226-0.3594 1.422 0.0157 0.097 0.043 0.136 0.0508 0.148 1.5313 1.293 3.4723 0.883 4.5823 0.707 0.672-0.109 0.832-0.598 0.863-0.746-0.094-0.535-0.25-1.246-0.43-2.02-1.9918 0.493-3.445 0.18-4.4215-0.289z"/>
  </g>
 </g>
</svg>
