<svg viewBox="0 0 16 16" width="16" xmlns="http://www.w3.org/2000/svg" xmlns:xlink="http://www.w3.org/1999/xlink" height="16">
 <path d="m6.3008 4.082c-0.1758 0-0.3438 0.0274-0.5078 0.0586-0.5391 0.0821-1.1953 0.2735-1.8711 0.7227-1.6836 1.1133-2.3985 6.2817-2.1367 6.7657 0.2617 0.48 2.6171-0.484 3.8515-2.3399 0.0899-0.1368 0.1836-0.2813 0.2617-0.4336 0.1289 0.0234 0.2657 0.0234 0.4024 0.0234h3.4023c0.086 0 0.1563 0 0.2422-0.0117 0.0777 0.1445 0.1637 0.289 0.2537 0.4219 1.235 1.8559 3.59 2.8199 3.852 2.3399 0.261-0.484-0.457-5.6524-2.137-6.7657-0.484-0.3203-0.953-0.5117-1.379-0.625-0.039-0.0078-0.07-0.0156-0.105-0.0235-0.235-0.0742-0.473-0.1328-0.7269-0.1328zm4.2582 1.1524c0.046-0.0078 0.101-0.0078 0.144 0 0.067 0.0078 0.125 0.0273 0.184 0.0586 0.23 0.1328 0.301 0.4297 0.168 0.6601-0.133 0.2305-0.418 0.3125-0.653 0.1797-0.23-0.1328-0.312-0.4297-0.179-0.6601 0.074-0.1289 0.199-0.2149 0.336-0.2383zm-5.6371 0.1562h0.4492v0.9688h0.9648v0.4336h-0.9648v0.9726h-0.4492v-0.9726h-0.9649v-0.4336h0.9649zm6.9061 0.4922c0.063 0.0039 0.125 0.0274 0.18 0.0586 0.23 0.1328 0.316 0.4297 0.183 0.6602-0.132 0.2304-0.433 0.3125-0.664 0.1796-0.23-0.1328-0.304-0.4296-0.172-0.6601 0.102-0.1719 0.286-0.2617 0.473-0.2383zm-1.9061 0.457c0.0469-0.0117 0.0981-0.0078 0.1441 0 0.063 0.004 0.122 0.0235 0.18 0.0547 0.231 0.1367 0.301 0.4336 0.168 0.6641-0.133 0.2266-0.4179 0.3125-0.6484 0.1797-0.2344-0.1328-0.3164-0.4297-0.1836-0.6602 0.0782-0.1289 0.1992-0.2187 0.3399-0.2383zm1.1331 0.6446c0.047-0.0078 0.086-0.0039 0.133 0 0.062 0.0078 0.124 0.0273 0.179 0.0586 0.235 0.1328 0.317 0.4336 0.184 0.664-0.133 0.2266-0.434 0.3125-0.664 0.1758-0.231-0.1289-0.301-0.4297-0.168-0.6562 0.074-0.1289 0.199-0.2188 0.336-0.2422z" fill="#d64c62"/>
</svg>
