<svg viewBox="0 0 16 16" width="16" xmlns="http://www.w3.org/2000/svg" xmlns:xlink="http://www.w3.org/1999/xlink" height="16">
 <defs>
  <linearGradient id="linear0" y2="19.913" gradientUnits="userSpaceOnUse" x2="526.18" gradientTransform="matrix(.27325 0 0 .27325 -18.154 26.38)" y1="723.89" x1="526.15">
   <stop stop-color="#fff" stop-opacity=".502" offset="0"/>
   <stop stop-color="#fff" stop-opacity=".8" offset="1"/>
  </linearGradient>
 </defs>
 <g fill="#c18eb2">
  <path d="m1.75 10.555l3.6133 0.57v-2.1367l-3.6328-0.1797v-1.75l3.6133-0.1758v-2.1562l-3.6094 0.582-0.0039-1.7539 6.039-1.5859v11.894l-6.0195-1.57z" fill-rule="evenodd"/>
  <path d="m7.7695 1.9688c0.7032 0.1796 1.3633 0.3515 1.9844 0.5117 0.5861 0.1523 1.1441 0.2929 1.6721 0.4297 0.59 0.1523 1.043 0.3867 1.371 0.6992 0.316 0.3008 0.574 0.6758 0.769 1.1289 0.192 0.4414 0.325 0.9297 0.411 1.4726 0.082 0.5391 0.125 1.1016 0.125 1.6914 0 0.9219-0.063 1.6485-0.184 2.1717-0.129 0.535-0.305 1-0.535 1.403-0.238 0.41-0.5 0.714-0.793 0.91-0.41 0.273-0.801 0.457-1.164 0.551-0.528 0.132-1.086 0.277-1.6721 0.421-0.625 0.161-1.2851 0.329-1.9844 0.508v-5.949-5.9492zm2.5935 3.0585v2.8907 2.883c0.184-0.024 0.367-0.051 0.551-0.074 0.445-0.063 0.754-0.176 0.934-0.34 0.172-0.16 0.304-0.4182 0.402-0.7698 0.094-0.3516 0.145-0.9063 0.145-1.668 0-1.0078-0.11-1.7109-0.325-2.1094-0.218-0.4062-0.597-0.6523-1.148-0.7304-0.184-0.0274-0.371-0.0508-0.559-0.0821z"/>
 </g>
 <path d="m125.62 31.831v192.38" transform="scale(.06185)" stroke="url(#linear0)" stroke-width=".82" fill="none"/>
</svg>
