<svg viewBox="0 0 16 16" width="16" xmlns="http://www.w3.org/2000/svg" xmlns:xlink="http://www.w3.org/1999/xlink" height="16">
 <g fill="#b2a445">
  <path d="m2.332 1.7383c-0.2304 0-0.414 0.1836-0.414 0.4101v11.543c0 0.227 0.1836 0.411 0.414 0.411h2.336c0.2343 0 0.4179-0.184 0.4179-0.411v-11.543c0-0.2261-0.1836-0.4097-0.4179-0.4097zm0.3907 1.1601h1.5585v4.6328h-1.5585zm0.7773 6.9532c0.4297 0 0.7812 0.3434 0.7812 0.7734 0 0.426-0.3515 0.77-0.7812 0.77s-0.7773-0.344-0.7773-0.77c0-0.43 0.3476-0.7734 0.7773-0.7734z"/>
  <path d="m6.2305 1.7383c-0.2305 0-0.4141 0.1836-0.4141 0.4101v11.543c0 0.227 0.1836 0.411 0.4141 0.411h1.5586c0.2304 0 0.414-0.184 0.414-0.411v-11.543c0-0.2261-0.1836-0.4097-0.414-0.4097zm0 1.1601h1.5586v4.6328h-1.5586zm0.7773 6.9532c0.4336 0 0.7813 0.3434 0.7813 0.7734 0 0.426-0.3477 0.77-0.7813 0.77-0.4297 0-0.7773-0.344-0.7773-0.77 0-0.43 0.3476-0.7734 0.7773-0.7734z"/>
  <path d="m8.875 2.1445c-0.2227 0.0625-0.3516 0.2852-0.293 0.5039l3.012 11.149c0.062 0.219 0.289 0.348 0.508 0.289l1.507-0.398c0.223-0.059 0.352-0.282 0.293-0.504l-3.015-11.149c-0.059-0.2186-0.285-0.3475-0.508-0.2889zm0.3008 1.1211l1.5082-0.3984 1.211 4.4766-1.508 0.4023zm2.5702 6.5156c0.414-0.1093 0.844 0.1368 0.953 0.5468 0.113 0.414-0.133 0.836-0.551 0.945-0.414 0.114-0.839-0.132-0.953-0.543-0.113-0.414 0.133-0.8355 0.551-0.9488z"/>
 </g>
</svg>
