<svg viewBox="0 0 16 16" width="16" xmlns="http://www.w3.org/2000/svg" xmlns:xlink="http://www.w3.org/1999/xlink" height="16">
 <path d="m34.42 32.021h187.2c1.32 0 2.33 1.073 2.33 2.399v187.2c0 1.32-1.01 2.33-2.33 2.33h-187.2c-1.326 0-2.399-1.01-2.399-2.33v-187.2c0-1.326 1.073-2.399 2.399-2.399z" transform="scale(.06185)" stroke="#92c8dd" stroke-linecap="round" stroke-width="8.073" fill="none"/>
 <g fill="#92c8dd">
  <path d="m6.4648 4.0312c-0.2226 0.5547-0.4375 1.1055-0.6601 1.6602h1.3164zm-0.2734-0.4453h0.5469c0.4531 1.1133 0.9062 2.2266 1.3633 3.3399h-0.5039c-0.1094-0.2852-0.2149-0.5742-0.3243-0.8594h-1.6132c-0.1094 0.2852-0.2188 0.5742-0.3243 0.8594h-0.5117c0.457-1.1133 0.9102-2.2266 1.3672-3.3399zm3.6289 2.0782c-0.2812 0.0117-0.6094-0.0079-0.8281 0.1836-0.2305 0.2421-0.1172 0.707 0.2461 0.7734 0.3515 0.0937 0.7657-0.0625 0.9137-0.3867 0.082-0.1641 0.137-0.4102 0.094-0.5703zm0.8787-0.168v1.4297h-0.441v-0.3828c-0.18 0.3086-0.5588 0.4609-0.926 0.4453-0.3867 0.0234-0.8008-0.2071-0.875-0.5821-0.0937-0.3593 0.0547-0.8007 0.4492-0.9414 0.4258-0.1718 0.8985-0.1093 1.3518-0.121 0.031-0.2657-0.156-0.5313-0.4416-0.5977-0.3984-0.0899-0.8281-0.0117-1.1875 0.168v-0.3789c0.4961-0.1758 1.082-0.2696 1.5741-0.043 0.391 0.1914 0.5 0.625 0.496 1.0039z"/>
  <g fill-opacity=".6">
   <path d="m4.8242 7.6055h0.7774v0.3125h-0.7774z"/>
   <path d="m5.7109 7.6055h0.7344v0.3125h-0.7344z"/>
   <path d="m6.5508 7.6055h0.6484v0.3125h-0.6484z"/>
   <path d="m7.3047 7.6055h0.2812v0.3125h-0.2812z"/>
   <path d="m7.6914 7.6055h0.6367v0.3125h-0.6367z"/>
   <path d="m8.4336 7.6055h1.6484v0.3125h-1.6484z"/>
   <path d="m4.8242 9.4648h0.7774v0.3086h-0.7774z"/>
   <path d="m5.7109 9.4648h0.7344v0.3086h-0.7344z"/>
   <path d="m6.5508 9.4648h0.6484v0.3086h-0.6484z"/>
   <path d="m7.3047 9.4648h0.2812v0.3086h-0.2812z"/>
   <path d="m7.6914 9.4648h0.6367v0.3086h-0.6367z"/>
   <path d="m8.4336 9.4648h1.6484v0.3086h-1.6484z"/>
   <path d="m4.8242 8.2266h1.1719v0.3086h-1.1719z"/>
   <path d="m6.1055 8.2266h0.5625v0.3086h-0.5625z"/>
   <path d="m6.7773 8.2266h0.2657v0.3086h-0.2657z"/>
   <path d="m7.1484 8.2266h0.5118v0.3086h-0.5118z"/>
   <path d="m7.7656 8.2266h0.5117v0.3086h-0.5117z"/>
   <path d="m8.3867 8.2266h0.8203v0.3086h-0.8203z"/>
   <path d="m9.3125 8.2266h1.0785v0.3086h-1.0785z"/>
   <path d="m4.8242 8.8438h1.3711v0.3085h-1.3711z"/>
   <path d="m6.3008 8.8438h1.4726v0.3085h-1.4726z"/>
   <path d="m7.8789 8.8438h0.5859v0.3085h-0.5859z"/>
   <path d="m8.5742 8.8438h1.3828v0.3085h-1.3828z"/>
   <path d="m10.062 8.8438h0.946v0.3085h-0.946z"/>
   <path d="m4.8242 11.316h1.3711v0.313h-1.3711z"/>
   <path d="m6.3008 11.316h1.4726v0.313h-1.4726z"/>
   <path d="m7.8789 11.316h0.5859v0.313h-0.5859z"/>
   <path d="m8.5742 11.316h1.3828v0.313h-1.3828z"/>
   <path d="m10.062 11.316h0.946v0.313h-0.946z"/>
   <path d="m4.8242 10.082h0.9688v0.309h-0.9688z"/>
   <path d="m5.8945 10.082h1.6055v0.309h-1.6055z"/>
   <path d="m7.6016 10.082h0.7734v0.309h-0.7734z"/>
   <path d="m9.3047 10.082h0.6133v0.309h-0.6133z"/>
   <path d="m10.02 10.082h0.988v0.309h-0.988z"/>
   <path d="m8.4766 10.082h0.7226v0.309h-0.7226z"/>
   <path d="m4.8242 10.699h1.2735v0.309h-1.2735z"/>
   <path d="m6.2031 10.699h0.4024v0.309h-0.4024z"/>
   <path d="m6.7109 10.699h0.918v0.309h-0.918z"/>
   <path d="m7.7305 10.699h0.625v0.309h-0.625z"/>
   <path d="m8.4609 10.699h0.625v0.309h-0.625z"/>
   <path d="m9.1914 10.699h0.9066v0.309h-0.9066z"/>
   <path d="m10.203 10.699h0.188v0.309h-0.188z"/>
   <path d="m4.8242 11.938h0.5039v0.308h-0.5039z"/>
   <path d="m5.4609 11.938h1.836v0.308h-1.836z"/>
  </g>
 </g>
</svg>
