<svg viewBox="0 0 16 16" width="16" xmlns="http://www.w3.org/2000/svg" xmlns:xlink="http://www.w3.org/1999/xlink" height="16">
 <g fill="#f9b081">
  <path d="m2.1602 2.3516c-0.2344 0-0.4297 0.1953-0.4297 0.4296v8.8988c0 0.234 0.1953 0.429 0.4297 0.429h5.3203c0.2343 0 0.4297-0.195 0.4297-0.429v-8.8988c0-0.2343-0.1954-0.4296-0.4297-0.4296zm1.3515 3.0195c0.2891-0.0195 0.6133 0.0742 0.8672 0.1797 0.1914 0.082 0.4414 0.4453 0.4414 0.4453s0.25-0.3633 0.4414-0.4453c0.4063-0.168 1.0117-0.3125 1.3242 0 0.418 0.418 0.2266 1.2304 0 1.7773-0.3164 0.7696-1.7656 1.7735-1.7656 1.7735s-1.4453-1.0039-1.7656-1.7735c-0.2227-0.5469-0.4141-1.3593 0-1.7773 0.1172-0.1172 0.2812-0.168 0.457-0.1797z"/>
  <path d="m8.6445 2.6562c-0.2265-0.0585-0.4648 0.0782-0.5234 0.3047l-2.293 8.5981c-0.0586 0.226 0.0781 0.464 0.3047 0.523l5.1402 1.387c0.227 0.062 0.461-0.078 0.524-0.305l2.289-8.5937c0.062-0.2305-0.074-0.4687-0.301-0.5273zm1.8825 3.2657l0.711 2.4843-1.8513 1.8008-0.707-2.4882z"/>
 </g>
</svg>
