<svg viewBox="0 0 16 16" width="16" xmlns="http://www.w3.org/2000/svg" xmlns:xlink="http://www.w3.org/1999/xlink" height="16">
 <path d="m197.68 46.294c-12.5 5.116-52.74 21.915-53.75 22.357-11.3-9.22-25.89-16.357-41.11-17.178-36.758-2.337-70.61 30.378-70.673 66.627-1.642 32.59 13.263 62.78 26.715 91.64 11.242-4.73 52.168-21.79 53.238-22.23 10.99 9.22 25.14 16.04 39.92 17.12 36.19 3.03 69.85-28.23 71.68-63.6 2.65-33.09-12.63-63.726-25.45-93.347-0.19-0.442-0.38-0.947-0.57-1.389z" transform="scale(.06185)" stroke="#6996af" stroke-width="8" fill="none"/>
 <g fill="#6996af">
  <path d="m4.1562 11.664c-0.4921-1.187-1.1406-2.2343-1.1562-4.1796-0.0156-2.0039 1.707-3.3047 3.0664-3.3047 1.6484 0 3.0977 1.3906 3.1719 2.543 0.0703 1.039-0.3008 2.5507-2.211 2.539-0.9101-0.0039-1.8593-0.7969-1.8632-1.9765-0.0039-1.2735 1.5898-1.3985 1.9921-1.0743 0.1563 0.125 0.1524 0.375 0.0118 0.3321-0.8594-0.2813-1.3868 0.2695-1.3477 0.8203 0.0508 0.7422 0.4961 1.1836 1.2852 1.2226 1.1406 0.0547 1.4609-1.0586 1.4336-1.5078-0.0352-0.5469-0.5157-1.6758-2-1.8789-0.7032-0.0976-1.2852 0.1133-1.7071 0.5235-0.4258 0.4101-0.664 0.8398-0.6992 1.5351-0.0351 0.7227 0.1211 1.1484 0.5547 2.0977 0.1523 0.3359 0.5859 1.0195 0.918 1.7035z"/>
  <path d="m11.676 4.1797c0.492 1.1914 1.144 2.2383 1.156 4.1797 0.016 2.0076-1.707 3.3046-3.0664 3.3046-1.6445 0-3.0976-1.391-3.1718-2.5429-0.0704-1.0391 0.3007-2.5508 2.2109-2.5391 0.9101 0.0039 1.8593 0.7969 1.8633 1.9805 0.008 1.2695-1.5899 1.3945-1.9922 1.0703-0.1563-0.125-0.1485-0.375-0.0117-0.3281 0.8593 0.2773 1.3909-0.2735 1.3479-0.8203-0.0511-0.7461-0.4925-1.1875-1.2854-1.2266-1.1407-0.0508-1.461 1.0586-1.4336 1.5078 0.039 0.5469 0.5156 1.6754 2 1.8794 0.7031 0.097 1.285-0.11 1.711-0.524 0.422-0.4101 0.66-0.8358 0.695-1.5351 0.039-0.7226-0.121-1.1445-0.551-2.0937-0.156-0.3399-0.586-1.0234-0.921-1.707z"/>
 </g>
</svg>
