<svg viewBox="0 0 16 16" width="16" xmlns="http://www.w3.org/2000/svg" xmlns:xlink="http://www.w3.org/1999/xlink" height="16">
 <g stroke="#6890b8">
  <path stroke-width="1.275" fill="none" d="m29.719 1027.7c-3.598 0.2-6.469 3.4-6.469 7.4s3.059 7.3 6.82 7.3c3.774 0 6.821-3.3 6.821-7.3 0-4.1-3.047-7.4-6.821-7.4h-0.351z" transform="matrix(.33333 0 0 .33333 0 -334.79)"/>
  <g stroke-width=".83" fill="#6890b8">
   <path d="m175.2 1002.3h2.85c0.16 0 0.3 0.4 0.3 1.1v3.4c0 0.6-0.14 1.1-0.3 1.1h-2.85c-0.17 0-0.29-0.5-0.29-1.1v-3.4c0-0.7 0.12-1.1 0.29-1.1z" transform="matrix(.22637 0 0 .11465 -29.958 -107.71)"/>
   <path d="m175.2 1049.4h2.85c0.16 0 0.3 0.5 0.3 1.1v3.4c0 0.6-0.14 1.1-0.3 1.1h-2.85c-0.17 0-0.29-0.5-0.29-1.1v-3.4c0-0.6 0.12-1.1 0.29-1.1z" transform="matrix(.22637 0 0 .11465 -29.958 -107.71)"/>
   <path d="m180.87 24.241c0 1.537-1.23 2.75-2.75 2.75s-2.75-1.213-2.75-2.75c0-1.516 1.23-2.75 2.75-2.75s2.75 1.234 2.75 2.75z" transform="matrix(.1932 0 0 .1932 -24.389 5.5432)"/>
   <path d="m46.362 1027.1v2.5c0 0.2-0.427 0.3-0.976 0.3h-3.052c-0.58 0-1.007-0.1-1.007-0.3v-2.5c0-0.2 0.427-0.3 1.007-0.3h3.052c0.549 0 0.976 0.1 0.976 0.3z" transform="matrix(.128 0 0 .2631 6.9525 -260.34)"/>
   <path d="m6.6885 1027.1v2.5c0 0.2-0.4578 0.3-1.0071 0.3h-3.0519c-0.5493 0-1.0071-0.1-1.0071-0.3v-2.5c0-0.2 0.4578-0.3 1.0071-0.3h3.0519c0.5493 0 1.0071 0.1 1.0071 0.3z" transform="matrix(.128 0 0 .2631 6.9525 -260.34)"/>
   <path d="m175.2 1002.3l2.84-0.1c0.18 0 0.31 0.5 0.31 1.2l-0.01 3.4c0 0.6-0.12 1.1-0.3 1.1h-2.84c-0.16 0-0.29-0.5-0.3-1.1l0.01-3.4c0-0.7 0.13-1.2 0.29-1.1z" transform="matrix(.16007 .16007 -.08107 .08107 65.147 -101.44)"/>
   <path d="m175.2 1049.4h2.84c0.18 0 0.31 0.5 0.31 1.1l-0.01 3.4c0 0.6-0.12 1.1-0.3 1.1h-2.84c-0.16 0-0.29-0.5-0.3-1.1l0.01-3.4c0-0.6 0.13-1.1 0.29-1.1z" transform="matrix(.16007 .16007 -.08107 .08107 65.147 -101.44)"/>
   <path d="m175.2 1002.3h2.85c0.16-0.1 0.29 0.4 0.29 1.1v3.4c0 0.6-0.13 1.1-0.29 1.1h-2.85c-0.16 0-0.28-0.5-0.28-1.1l-0.02-3.4c0-0.7 0.14-1.2 0.3-1.1z" transform="matrix(-.16007 .16007 -.08107 -.08107 121.69 65.35)"/>
   <path d="m175.2 1049.4h2.85c0.16 0 0.29 0.5 0.29 1.1v3.4c0 0.6-0.13 1.1-0.29 1.1h-2.85c-0.16 0-0.28-0.5-0.3-1.1v-3.4c0-0.6 0.14-1.1 0.3-1.1z" transform="matrix(-.16007 .16007 -.08107 -.08107 121.69 65.35)"/>
  </g>
  <path stroke-width="1.275" fill="none" d="m21.68 1015.1c-3.211-1.6-7.289-0.3-9.258 3.1-2.016 3.5-1.008 7.9 2.25 9.8 3.258 1.8 7.535 0.5 9.562-3 2.016-3.4 1.008-7.8-2.25-9.7-0.093-0.1-0.199-0.1-0.304-0.2z" transform="matrix(.33333 0 0 .33333 0 -334.79)"/>
  <g stroke-width=".83" fill="#6890b8">
   <path d="m175.19 1002.3h2.86c0.16 0 0.3 0.4 0.3 1.1l-0.02 3.4c0.01 0.6-0.12 1.1-0.29 1.1h-2.85c-0.15 0-0.28-0.5-0.29-1.1v-3.4c0-0.7 0.13-1.2 0.29-1.1z" transform="matrix(.1959 .11343 -.05745 .09922 30.606 -116.34)"/>
   <path d="m175.2 1049.4h2.85c0.16 0 0.29 0.5 0.29 1.1v3.4c0 0.6-0.13 1.1-0.29 1.1h-2.86c-0.15 0-0.28-0.5-0.29-1.1l0.01-3.4c-0.01-0.6 0.12-1.1 0.29-1.1z" transform="matrix(.1959 .11343 -.05745 .09922 30.606 -116.34)"/>
   <path d="m180.88 24.251c-0.01 1.522-1.24 2.748-2.76 2.742-1.51 0.011-2.74-1.218-2.73-2.741-0.01-1.512 1.2-2.755 2.73-2.749 1.52 0.006 2.76 1.226 2.76 2.748z" transform="matrix(.16719 .09681 -.09681 .16719 -21.323 -15.545)"/>
   <path d="m46.375 1027.1l-0.019 2.5c0.005 0.2-0.433 0.3-0.993 0.3h-3.036c-0.56 0-1.012-0.1-1.017-0.3l0.008-2.5c-0.006-0.2 0.458-0.3 1.018-0.3h3.036c0.561 0 1.012 0.1 1.003 0.3z" transform="matrix(.11077 .06414 -.13184 .22769 139.03 -229.93)"/>
   <path d="m6.6807 1027.1l0.0072 2.5c-0.0097 0.2-0.4587 0.3-0.9925 0.3h-3.0776c-0.5602 0-0.9856-0.1-0.9759-0.3l-0.0072-2.5c-0.0056-0.2 0.4323-0.3 0.9925-0.3h3.0623c0.5338 0 0.9856 0.1 0.9912 0.3z" transform="matrix(.11077 .06414 -.13184 .22769 139.03 -229.93)"/>
   <path d="m175.2 1002.3h2.86c0.15 0 0.28 0.5 0.29 1.1l-0.01 3.4c0.01 0.6-0.13 1.1-0.3 1.1h-2.83c-0.17 0-0.3-0.5-0.3-1.1l-0.01-3.4c0-0.7 0.14-1.2 0.3-1.1z" transform="matrix(.05831 .21873 -.11078 .02954 109.77 -63.26)"/>
   <path d="m175.19 1049.4h2.86c0.16 0 0.29 0.5 0.29 1.1l0.01 3.4c-0.01 0.6-0.13 1.1-0.29 1.1h-2.86c-0.16 0-0.29-0.5-0.3-1.1v-3.4c0.01-0.6 0.13-1.1 0.29-1.1z" transform="matrix(.05831 .21873 -.11078 .02954 109.77 -63.26)"/>
   <path d="m175.2 1002.3h2.86c0.16 0 0.29 0.5 0.28 1.1v3.4c0.01 0.6-0.13 1.1-0.29 1.1h-2.86c-0.16 0-0.29-0.5-0.28-1.1v-3.4c-0.01-0.7 0.13-1.2 0.29-1.1z" transform="matrix(-.21873 .05831 -.02954 -.11078 75.124 109.41)"/>
   <path d="m175.2 1049.4h2.85c0.16 0 0.29 0.5 0.3 1.1l-0.01 3.4c0 0.6-0.12 1.1-0.28 1.1h-2.86c-0.16 0-0.29-0.5-0.29-1.1l-0.01-3.4c0.01-0.6 0.13-1.1 0.3-1.1z" transform="matrix(-.21873 .05831 -.02954 -.11078 75.124 109.41)"/>
  </g>
 </g>
</svg>
