<svg viewBox="0 0 16 16" width="16" xmlns="http://www.w3.org/2000/svg" xmlns:xlink="http://www.w3.org/1999/xlink" height="16">
 <path stroke-linejoin="round" d="m234.98 36.61c-15.28 0.575-32.28 5.634-41.36 16.558-13.32 28.172 18.84 15.179 22.63 34.727 3.79 19.435-18.84 20.585-18.84 20.585h-97.757l0.115 96.93s1.032 22.66 20.562 18.98c15.85-3.11 10.22-24.96 22.63-25.99 2.87-0.12 6.78 0.69 12.06 3.22 10.92 9.08 15.97 26.22 16.55 41.39 0.23 5.52-0.23 10.81-1.27 15.53v0.57c-1.72 13.11-6.78 26.45-16.08 34.04-28.15 13.22-15.16-18.86-34.58-22.65-14.24-2.76-18.61 8.51-19.987 14.83v102.91l98.107-0.8s22.63-1.04 18.84-20.58c-3.79-19.55-35.84-6.56-22.63-34.73 9.07-10.92 26.07-15.98 41.35-16.56 5.63-0.23 10.8 0.35 15.39 1.27 0.35 0 0.46 0.11 0.69 0.11 13.1 1.73 26.43 6.79 34.12 15.98 13.21 28.18-18.95 15.18-22.74 34.62-3.68 19.54 18.95 20.69 18.95 20.69h97.19v-102.11c1.37-6.32 5.85-17.47 19.98-14.71 19.53 3.79 6.44 35.87 34.7 22.65 9.19-7.59 14.24-20.93 15.96-34.04v-0.69c1.04-4.6 1.5-9.89 1.38-15.41-0.57-15.29-5.74-32.31-16.65-41.39-28.15-13.23-15.17 18.97-34.7 22.65-19.53 3.8-20.56-18.86-20.56-18.86l-0.11-97.85h-102.13c-6.43-1.5-17-5.98-14.24-19.895 3.67-19.548 35.84-6.44 22.63-34.612-7.7-9.199-21.02-14.258-34.12-15.983-0.23 0-0.46-0.115-0.57-0.115-4.6-1.035-9.88-1.495-15.51-1.265z" fill-rule="evenodd" transform="matrix(.034 0 0 .03397 -1.4433 .70164)" stroke="#61c66b" stroke-width="12.5" fill="#61c66b"/>
</svg>
