<svg viewBox="0 0 16 16" width="16" xmlns="http://www.w3.org/2000/svg" xmlns:xlink="http://www.w3.org/1999/xlink" height="16">
 <path d="m3.3438 2.9062v9.6678h-0.668v0.664h1.3359v-1.894h9.3123v-6.676h-9.3123v-1.7618zm0.6679 2.4258h8.6563v5.336h-8.6563zm4.6445 0.6563v1h3.3318v-1zm-5.9882 0.0117v1h0.664v-1zm2 0v1h3.3203v-1zm0 1.668v0.664h7.332v-0.664zm-2 0.332v1h0.664v-1zm2 0.668v0.664h7.332v-0.664zm0 1v0.3203h1v-0.3203zm1.332 0v0.3203h0.668v-0.3203zm1 0v0.3203h0.668v-0.3203zm1 0v0.3203h0.668v-0.3203zm1.668 0v0.3203h1v-0.3203zm1.332 0v0.3203h1v-0.3203z" fill="#92a990"/>
</svg>
