<svg viewBox="0 0 16 16" width="16" xmlns="http://www.w3.org/2000/svg" xmlns:xlink="http://www.w3.org/1999/xlink" height="16">
 <g fill="#ec7878">
  <path d="m8.7227 3.5859c-0.0547 0-0.1094 0.0157-0.1602 0.0469-0.0469 0.0352-0.0898 0.0899-0.0898 0.1602 0.0078 0.0273 0.0039 0.0508 0.0039 0.0781 0 0.082 0.0625 0.1445 0.1445 0.1445 0.0781 0 0.1445-0.0625 0.1445-0.1445 0-0.0781-0.0625-0.1445-0.1445-0.1445 0.0312-0.0196 0.0703-0.0274 0.1016-0.0313 0.1132 0 0.1992 0.0664 0.2617 0.1641 0.0586 0.0976 0.0898 0.2265 0.0898 0.332-0.0039 0.2656-0.1367 0.4883-0.3281 0.6563-0.1914 0.1718-0.4492 0.289-0.6914 0.332l0.0195 0.1094c0.2617-0.0508 0.5352-0.1719 0.7422-0.3555 0.2109-0.1875 0.3633-0.4414 0.3672-0.7383 0.0039-0.1289-0.0313-0.2773-0.1094-0.3945-0.0742-0.1211-0.1953-0.2149-0.3515-0.2149z"/>
  <path d="m7.1133 3.5859c0.0508 0 0.1094 0.0157 0.1562 0.0469 0.0508 0.0352 0.0938 0.0899 0.0899 0.1602-0.0039 0.0273-0.0039 0.0508 0 0.0781 0 0.082-0.0664 0.1445-0.1485 0.1445-0.0781 0-0.1445-0.0625-0.1445-0.1445 0-0.0781 0.0625-0.1445 0.1445-0.1445-0.0273-0.0196-0.0703-0.0274-0.0976-0.0313-0.1172 0-0.1992 0.0664-0.2617 0.1641-0.0625 0.0976-0.0938 0.2265-0.0938 0.332 0.0078 0.2656 0.1367 0.4883 0.332 0.6563 0.1914 0.1718 0.4454 0.289 0.6875 0.332l-0.0195 0.1094c-0.2617-0.0508-0.5312-0.1719-0.7422-0.3555-0.2109-0.1875-0.3594-0.4414-0.3672-0.7383 0-0.1289 0.0313-0.2773 0.1094-0.3945 0.0742-0.1211 0.1953-0.2149 0.3555-0.2149z"/>
  <path d="m7.8086 4.6406c-0.625 0.0274-1.2266 0.336-1.6289 0.8086-0.2109 0.2266-0.4063 0.4766-0.4961 0.7774 0.0039 0.0468 0.0195 0.0937 0.0352 0.1406-0.1329 0.0078-0.3008-0.0117-0.3946 0.1055-0.168 0.1875-0.207 0.4453-0.289 0.6718-0.375 1.3008-0.1797 2.7852 0.6171 3.8905 0.4375 0.594 1.0821 1.063 1.8243 1.184 0.1211 0.011 0.2656 0.047 0.3789-0.02 0.0429-0.035 0.1015-0.027 0.1406 0.012 0.1523 0.078 0.3281 0.004 0.4883-0.02 0.7539-0.164 1.4062-0.683 1.8126-1.332 0.754-1.1637 0.879-2.6871 0.41-3.9879-0.062-0.1523-0.121-0.3203-0.246-0.4375-0.082-0.0586-0.184-0.0781-0.281-0.0859 0.062-0.1289 0.019-0.2852-0.075-0.3907-0.3394-0.5547-0.8433-1.0351-1.48-1.2226-0.2656-0.0742-0.543-0.0938-0.8164-0.0938z"/>
  <path d="m7.8906 4.793c-0.0039 0-0.0117 0-0.0156 0.0039-0.2188 0.0156-0.4414 0.0351-0.6484 0.1093-0.5977 0.211-1.0508 0.6954-1.3594 1.2305-0.0469 0.086-0.0156 0.1992 0.082 0.2071 0.6641 0.0039 1.332 0 2 0.0039 0.668-0.0039 1.336 0 2.0039-0.0039 0.0979-0.0079 0.1289-0.1211 0.0819-0.2071-0.3123-0.5351-0.7655-1.0195-1.3631-1.2305-0.2071-0.0742-0.4297-0.0937-0.6485-0.1093-0.0546-0.0039-0.0468 0.0117-0.0742 0.0117-0.0234 0-0.0156-0.0156-0.0586-0.0156z"/>
  <path d="m8.3711 6.5117c-0.1953 0-0.3555 0.1602-0.3555 0.3594v5.0819c0 0.07 0 0.125 0.0938 0.137 1.4922-0.082 2.7186-1.68 2.7186-3.6252 0-0.6445-0.129-1.25-0.359-1.7734-0.004-0.0117-0.008-0.0234-0.012-0.0312 0-0.004-0.004-0.004-0.004-0.004v-0.0039c-0.043-0.082-0.125-0.1406-0.226-0.1406z"/>
  <path d="m7.4648 6.5117c0.1954 0 0.3516 0.1602 0.3516 0.3594v5.0819c0 0.07 0 0.125-0.0937 0.137-1.4922-0.082-2.7149-1.68-2.7149-3.6252 0-0.6445 0.1289-1.25 0.3555-1.7734 0.0039-0.0117 0.0078-0.0234 0.0156-0.0312v-0.004-0.0039c0.043-0.082 0.1289-0.1406 0.2266-0.1406z"/>
  <g fill-rule="evenodd">
   <path d="m5.8398 6.6602l-0.2265 0.2812-0.3594-0.0273 0.1953 0.3007-0.1367 0.3321 0.3477-0.0938 0.2773 0.2305 0.0156-0.3594 0.3086-0.1875-0.3398-0.1289zm1.1211 0.3398l-0.1914 0.957-0.8945 0.3868 0.8516 0.4804 0.0898 0.9688 0.7148-0.6602 0.9571 0.2149-0.4102-0.8868 0.4961-0.8398-0.9687 0.1133zm2.9297 0.4414l-0.2226 0.2813-0.3594-0.0274 0.1953 0.3008-0.1367 0.3359 0.3476-0.0976 0.2735 0.2344 0.0197-0.3594 0.304-0.1914-0.3354-0.125zm-4.3281 1.7188l-0.2734 0.5507-0.2579 0.0391c0.0899 0.309 0.2149 0.602 0.3711 0.883l0.1602-0.086 0.543 0.289-0.1055-0.606 0.4414-0.4292-0.6094-0.0899zm4.4685 0.0507l-0.5388 0.6133-0.8125-0.0937 0.418 0.6995-0.3399 0.742 0.793-0.176 0.375 0.344c0.1012-0.11 0.1912-0.219 0.2772-0.34l0.024-0.266 0.218-0.121c0.071-0.133 0.137-0.269 0.196-0.406l-0.45-0.195zm-2.6872 1.6601l-0.2227 0.277-0.3594-0.027 0.1953 0.305-0.1328 0.332 0.3438-0.094 0.2734 0.231 0.0195-0.36 0.3047-0.187-0.3359-0.129z"/>
   <path d="m10.457 9.3828c0 0.5586-1.1093 1.0192-2.4765 1.0192s-2.4805-0.4606-2.4805-1.0192c0-0.5664 1.1133-1.0195 2.4805-1.0195s2.4765 0.4531 2.4765 1.0195z" fill-opacity=".902"/>
  </g>
  <path d="m6.1484 11.211c0.3946 0.402 0.9102 0.699 1.4766 0.762 0.0312 0.007 0.1016 0.007 0.0859-0.047-0.0039-0.125-0.0039-0.246-0.0039-0.371 0-0.078 0-0.063-0.0586-0.028-0.582 0.356-1.0742-0.074-1.5-0.316zm3.5196 0.027c-0.4258 0.242-0.9219 0.672-1.5039 0.317-0.0586-0.035-0.0586-0.051-0.0586 0.027 0 0.125 0 0.246-0.0039 0.371-0.0157 0.055 0.0507 0.059 0.0898 0.047 0.5664-0.062 1.0781-0.359 1.4766-0.762z" fill-opacity=".459"/>
  <g fill-rule="evenodd">
   <path d="m9.4922 6.0039c0 0.6875-0.6953 1.25-1.5547 1.25s-1.5547-0.5625-1.5547-1.25c0-0.6914 0.6953-1.25 1.5547-1.25s1.5547 0.5586 1.5547 1.25z"/>
   <path d="m7.3008 3.832c0 0.0469-0.0391 0.0899-0.086 0.0899-0.0468 0-0.0859-0.043-0.0859-0.0899 0-0.0508 0.0391-0.0898 0.0859-0.0898 0.0469 0 0.086 0.039 0.086 0.0898z"/>
   <path d="m8.7031 3.832c0 0.0469-0.039 0.0899-0.0859 0.0899s-0.086-0.043-0.086-0.0899c0-0.0508 0.0391-0.0898 0.086-0.0898s0.0859 0.039 0.0859 0.0898z"/>
  </g>
  <path d="m11.082 7.4805c-0.227 0.0312-0.391 0.2343-0.359 0.4648 0.027 0.2266 0.234 0.3867 0.461 0.3594h3.242c0.148 0.0039 0.289-0.0742 0.363-0.2031s0.074-0.2891 0-0.418c-0.074-0.125-0.215-0.2031-0.363-0.2031h-3.242c-0.036-0.0039-0.071-0.0039-0.102 0z"/>
  <path d="m1.3672 7.5078c-0.1484 0.0117-0.2774 0.1016-0.3399 0.2383-0.06246 0.1328-0.04683 0.2891 0.0391 0.4101 0.0859 0.1211 0.2305 0.1876 0.375 0.1758h3.2695c0.1485 0 0.2852-0.0781 0.3594-0.207s0.0742-0.2852 0-0.4141-0.2109-0.207-0.3594-0.2031h-3.2695c-0.0234-0.0039-0.0508-0.0039-0.0742 0z"/>
  <path d="m7.8477 0.99609c-0.1954 0.03911-0.336 0.21091-0.336 0.41411v3.3203c0 0.1484 0.0781 0.2851 0.2071 0.3593 0.1289 0.0782 0.2851 0.0782 0.414 0 0.1289-0.0742 0.207-0.2109 0.2031-0.3593v-3.3203c0.0039-0.125-0.0507-0.2422-0.1445-0.3243-0.0937-0.082-0.2226-0.11324-0.3437-0.08981z"/>
  <path d="m7.8711 10.742c-0.2149 0.028-0.375 0.223-0.3594 0.442v3.242c0 0.148 0.0781 0.285 0.2031 0.359 0.129 0.078 0.2891 0.078 0.418 0 0.1289-0.074 0.207-0.211 0.2031-0.359v-3.242c0.0079-0.125-0.039-0.246-0.1289-0.332-0.0898-0.082-0.2109-0.122-0.3359-0.11z"/>
 </g>
 <path stroke-linejoin="round" d="m278.37 118.74c0 49.32-52.81 89.28-118.07 89.28-65.166 0-118.07-39.96-118.07-89.28s52.904-89.278 118.07-89.278c65.26 0 118.07 39.958 118.07 89.278z" transform="matrix(.04364 0 0 .05758 .92673 1.1083)" stroke="#ec7878" stroke-linecap="round" stroke-width="8" fill="none"/>
</svg>
