<svg viewBox="0 0 16 16" width="16" xmlns="http://www.w3.org/2000/svg" xmlns:xlink="http://www.w3.org/1999/xlink" height="16">
 <g stroke="#a47854">
  <g stroke-linejoin="round" fill="#a47854" fill-rule="evenodd">
   <path stroke-width="5.418" d="m30.694 148.17c38.336-0.51 53.81-5.25 65.557-8.85 11.749-3.66 29.239-11.49 29.239-11.49l43.96 89.81h-138.76z" transform="scale(.06185)"/>
   <path stroke-width="6.123" d="m157.26 182.08s-19.7 10.99-25.39 13.71c-7.89 3.85-21.47 14.14-45.156 21.47h-55.641v-43.89c32.084-0.95 55.262-1.96 69.667-8.03 14.39-6 41.49-20.08 41.49-20.08z" transform="scale(.06185)"/>
   <path stroke-width="5.418" d="m132.5 142.17c20.84-20.91 14.84-27.16 36-28.93 21.16-1.83 56.78 14.02 56.78 14.02v90.32h-55.83z" transform="scale(.06185)"/>
   <path stroke-width="6.123" d="m224.59 184.1s-4.93-2.65-11.44-5.37c-6.37-2.65-11.49-3.98-23.05-0.63-7.89 2.21-14.4 7.2-27.79 17.24l-17.05-43.01c13.26-12 23.75-20.46 37.14-21.41 13.39-1.01 24.38 1.33 31.07 4.68s10.48 5.68 10.48 5.68z" transform="scale(.06185)"/>
  </g>
  <path d="m34.42 32.021h187.2c1.32 0 2.33 1.073 2.33 2.399v187.2c0 1.32-1.01 2.33-2.33 2.33h-187.2c-1.326 0-2.399-1.01-2.399-2.33v-187.2c0-1.326 1.073-2.399 2.399-2.399z" transform="scale(.06185)" stroke-linecap="round" stroke-width="8.073" fill="none"/>
 </g>
</svg>
