<svg viewBox="0 0 16 16" width="16" xmlns="http://www.w3.org/2000/svg" xmlns:xlink="http://www.w3.org/1999/xlink" height="16">
 <path fill="#6fbed5" d="m9.7773 13.074c-0.3984-0.047 0.0704-0.379 0.2032-0.445 0.2535-0.129 0.4605-0.274 0.6175-0.512 0.254-0.383 0.379-0.894 0.484-1.336 0.074-0.297 0.129-0.472-0.059-0.726-0.191-0.2503 0.133-0.4612-0.066-0.7269-0.336-0.4492-0.477-1.039-0.812-1.4843-0.094-0.125-0.059-0.2422-0.1958-0.254-0.0625-0.0078-0.2304 0.125-0.289 0.1602-0.1641 0.1133-0.3633 0.1641-0.5235 0.2695-0.082 0.0547-0.2383 0.0157-0.3047 0.0664-0.1914 0.1524-0.1484 0.625-0.1289 0.8633 0.0313 0.3438 0.3047 0.4531 0.3047 0.7813 0 0.3985-0.082 0.6715 0.043 1.0785 0.0703 0.234 0.25 0.503 0.2812 0.742 0.0235 0.187-0.0117 0.183-0.0664 0.363-0.0664 0.215-0.082 0.402-0.2851 0.5-0.1133 0.055-0.5821 0.074-0.6446-0.055-0.1289-0.254 0.3594-0.343 0.4414-0.5 0.1797-0.336-0.2421-1.203-0.4023-1.496-0.0898-0.156-0.2617-0.285-0.3242-0.4411-0.086-0.2149 0.0898-0.3633 0.0625-0.5274-0.0547-0.3203-0.1914-0.6601-0.2891-0.9687-0.2383-0.7188-0.5664 0.3711-0.7031 0.6484-0.0547 0.1055-0.0938 0.2227-0.1484 0.336-0.0625 0.1289 0.0781 0.2421 0.039 0.4023-0.0351 0.1523-0.2109 0.2385-0.3086 0.3515-0.1484 0.172-0.25 0.395-0.3281 0.606-0.168 0.445-0.2266 1.218-0.5352 1.574-0.0429 0.054-0.164 0.023-0.2148 0.07-0.1055 0.106 0.0273 0.219-0.1797 0.289-0.1601 0.055-0.5703 0.113-0.7226 0.02-0.293-0.176 0.0742-0.395 0.2578-0.578 0.2539-0.258 0.5547-0.493 0.7539-0.797 0.2617-0.399 0.3203-0.852 0.3711-1.313 0.0234-0.2225-0.2188-0.3319-0.0078-0.6014 0.0664-0.082 0.2695-0.0703 0.2695-0.1602 0-0.2773 0.0078-0.5586 0-0.8359-0.0117-0.3359-0.0078-0.8906-0.332-1.1055-0.4258-0.2851-0.9688-0.3593-1.379-0.664-0.4062-0.3086-0.7773-0.586-1.0234-1.0703-0.1289-0.2579-0.1953-0.5079-0.2969-0.7696-0.0742-0.1953-0.0547-0.1289-0.1757-0.2422-0.0704-0.0664-0.1758-0.1132-0.2579-0.1914-0.207-0.1953-0.2421-0.3906-0.5898-0.3086-0.1406 0.0352-0.3672 0.293-0.4453 0.1329-0.0508-0.0977-0.0195-0.1915 0.0078-0.293 0.0391-0.1563-0.1484-0.2031-0.1445-0.3516 0.0078-0.2539 0.4179-0.5156 0.6289-0.5586 0.2656-0.0547 0.5586 0.0586 0.8437 0.0039 0.2266-0.0429 0.4258-0.1679 0.6446-0.2187 0.2304-0.0586 0.4375-0.0781 0.6328 0.0586 0.0898 0.0625 0.125 0.1758 0.2031 0.2422 0.0664 0.0546 0.125 0.039 0.1992 0.0937 0.2344 0.168 0.25 0.4141-0.1445 0.3399 0.164 0.6914 0.9765 2.5507 1.8828 1.5898 0.4258-0.4492 0.8125-0.9492 1.2148-1.4141 0.3516-0.414 0.5586-0.8789 1.1602-0.7968 0.5898 0.0781 0.9961 0.4843 1.4529 0.8203 0.375 0.2773 0.817 0.3398 1.215 0.5664 0.422 0.2422 0.797 0.6523 0.941 1.1172 0.211 0.6758 0.09 1.3281 0.461 1.9687 0.223 0.3906 0.539 0.6602 0.821 0.9844 0.152 0.1719 0.254 0.4141 0.203 0.6445-0.035 0.1641-0.149 0.1914-0.149 0.3789 0 0.3282 0.016 0.6525 0 0.9765-0.011 0.293-0.035 0.578-0.074 0.867-0.039 0.246-0.129 0.317-0.211 0.5-0.121 0.274-0.101 0.391-0.39 0.5-0.164 0.059-0.442 0.184-0.621 0.176-0.25-0.012-0.286-0.219-0.094-0.445 0.125-0.145 0.359-0.192 0.5-0.352 0.406-0.457 0.582-1.8318 0.242-2.3162-0.141-0.2031-0.324-0.2031-0.336-0.5117-0.012-0.2735 0.102-0.3711-0.148-0.6211-0.793-0.4024-0.875-0.6914-1.133-0.5508-0.313 0.168-0.067 1.1211 0 1.3867 0.121 0.4766 0.594 0.7031 0.285 1.1871-0.223 0.344-0.328 0.7-0.481 1.106-0.136 0.363-0.125 0.879-0.343 1.183-0.043 0.059-0.11 0.09-0.149 0.149-0.027 0.043-0.07 0.164-0.093 0.187-0.09 0.106-0.11 0.133-0.258 0.192-0.258 0.097-0.578 0.066-0.8597 0.066" fill-rule="evenodd"/>
</svg>
