<svg viewBox="0 0 16 16" width="16" xmlns="http://www.w3.org/2000/svg" xmlns:xlink="http://www.w3.org/1999/xlink" height="16">
 <path d="m43.401 31.25c0 6.712-5.444 12.156-12.156 12.156-6.711 0-12.155-5.444-12.155-12.156 0-6.711 5.444-12.155 12.155-12.155 6.712 0 12.156 5.444 12.156 12.155z" transform="matrix(.40394 0 0 .40394 -4.6211 -4.6232)" stroke="#2f8b96" stroke-width="1.733" fill="none"/>
 <g fill="#2f8b96">
  <path d="m6.2461 8c0 0.4609-0.375 0.8359-0.8359 0.8359-0.461 0-0.8321-0.375-0.8321-0.8359s0.3711-0.832 0.8321-0.832c0.4609 0 0.8359 0.3711 0.8359 0.832z"/>
  <path d="m8.8359 8c0 0.4609-0.375 0.8359-0.8359 0.8359s-0.8359-0.375-0.8359-0.8359 0.375-0.832 0.8359-0.832 0.8359 0.3711 0.8359 0.832z"/>
  <path d="m11.422 8c0 0.4609-0.371 0.8359-0.832 0.8359s-0.8361-0.375-0.8361-0.8359 0.3751-0.832 0.8361-0.832 0.832 0.3711 0.832 0.832z"/>
 </g>
</svg>
