<svg viewBox="0 0 16 16" width="16" xmlns="http://www.w3.org/2000/svg" xmlns:xlink="http://www.w3.org/1999/xlink" height="16">
 <g fill="#cf9545">
  <path d="m4.4609 7.8828h7.0741v5.0002h-7.0741z"/>
  <path d="m2.668 9.2344l1.8008-1.3516 0.2968 0.3906-1.8047 1.3516z"/>
  <path d="m11.238 8.2734l1.801 1.3516 0.293-0.3906-1.801-1.3516z"/>
  <path d="m5.1836 5.7266l1.1172 0.3515-0.3516 1.1172-1.1172-0.3515z"/>
  <path d="m5.9844 3.6602l1.8476-0.543 0.5391 1.8516-1.8477 0.539z"/>
  <path d="m9.5938 6.6328l-0.5508 0.7031-0.8868-0.125-0.332-0.8281 0.5508-0.7031 0.8867 0.125z"/>
  <path d="m11.203 4.8984l-0.562 0.1836-0.168 0.5703-0.348-0.4804-0.5938 0.0156 0.3477-0.4805-0.1992-0.5586 0.5623 0.1836 0.473-0.3632v0.5937z"/>
 </g>
</svg>
