<svg viewBox="0 0 16 16" width="16" xmlns="http://www.w3.org/2000/svg" xmlns:xlink="http://www.w3.org/1999/xlink" height="16">
 <g fill="#e660c1" fill-rule="evenodd">
  <path d="m6.293 11.297s-0.4727 0.277 0.3359 0.371c0.9805 0.109 1.4805 0.094 2.5625-0.109 0 0 0.2852 0.175 0.6797 0.332-2.4219 1.039-5.4805-0.063-3.5781-0.594"/>
  <path d="m5.9961 9.9414s-0.5273 0.3946 0.2812 0.4766c1.0469 0.109 1.875 0.117 3.3047-0.156 0 0 0.1992 0.199 0.508 0.308-2.9259 0.856-6.1877 0.071-4.0939-0.6286"/>
  <path d="m8.4922 7.6445c0.5976 0.6875-0.1563 1.3086-0.1563 1.3086s1.5157-0.7851 0.8164-1.7617c-0.6484-0.9141-1.1445-1.3672 1.5507-2.9336 0 0-4.2342 1.0586-2.2108 3.3867"/>
  <path d="m11.695 12.301s0.348 0.289-0.386 0.511c-1.3988 0.422-5.8168 0.551-7.0434 0.016-0.4414-0.191 0.3828-0.457 0.6446-0.516 0.2734-0.058 0.4257-0.046 0.4257-0.046-0.4882-0.348-3.1718 0.679-1.3632 0.972 4.9414 0.801 9.0043-0.359 7.7223-0.937"/>
  <path d="m6.5195 8.5391s-2.2461 0.5351-0.7968 0.7304c0.6171 0.0821 1.8359 0.0625 2.9765-0.0312 0.9297-0.0781 1.8628-0.2461 1.8628-0.2461s-0.328 0.1406-0.5659 0.3008c-2.2813 0.6015-6.6914 0.3203-5.4219-0.293 1.0742-0.5195 1.9453-0.4609 1.9453-0.4609"/>
  <path d="m10.555 10.793c2.32-1.2032 1.246-2.3633 0.5-2.2071-0.184 0.0391-0.266 0.0703-0.266 0.0703s0.066-0.1054 0.195-0.1523c1.485-0.5195 2.621 1.5351-0.476 2.3511 0 0 0.035-0.031 0.047-0.062"/>
  <path d="m9.1523 1.7305s1.2887 1.289-1.2187 3.2656c-2.0078 1.5859-0.457 2.4883 0 3.5195-1.1719-1.0547-2.0313-1.9844-1.4531-2.8515 0.8437-1.2735 3.1914-1.8907 2.6718-3.9336"/>
  <path d="m6.7461 14.062c2.2305 0.145 5.6519-0.078 5.7339-1.132 0 0-0.156 0.398-1.843 0.715-1.9026 0.359-4.2464 0.32-5.637 0.089 0 0 0.2852 0.235 1.7461 0.328"/>
 </g>
</svg>
