<svg viewBox="0 0 16 16" width="16" xmlns="http://www.w3.org/2000/svg" xmlns:xlink="http://www.w3.org/1999/xlink" height="16">
 <g fill="#4ea34d">
  <path d="m7.8711 5.4414c-2.5352 0.1094-5.0039 1.3477-3.957 3.8516 1.5273-0.5742 3.6562 0.2851 2.7734 0.711 1.7422 1.434 6.0425-0.8829 5.6175-2.8556-0.446-1.1992-2.4612-1.7968-4.4339-1.707zm-0.0664 0.707c0.5273 0 0.957 0.1407 0.957 0.3164 0 0.1719-0.4297 0.3125-0.957 0.3125-0.5313 0-0.957-0.1406-0.957-0.3125 0-0.1757 0.4257-0.3164 0.957-0.3164zm2.3673 0.5235c0.531 0 0.957 0.1406 0.957 0.3125 0 0.1758-0.426 0.3164-0.957 0.3164-0.5275 0-0.9572-0.1406-0.9572-0.3164 0-0.1719 0.4297-0.3125 0.9572-0.3125zm-4.3517 0.4765c0.5274 0 0.957 0.1407 0.957 0.3164 0 0.1758-0.4296 0.3164-0.957 0.3164-0.5312 0-0.9609-0.1406-0.9609-0.3164 0-0.1757 0.4297-0.3164 0.9609-0.3164zm4.3277 0.8282c0.532 0 0.961 0.1406 0.961 0.3164s-0.429 0.3164-0.961 0.3164c-0.5269 0-0.9566-0.1406-0.9566-0.3164s0.4297-0.3164 0.9566-0.3164zm-1.6675 1.1992c0.5312 0 0.957 0.1406 0.957 0.3164 0 0.1719-0.4258 0.3125-0.957 0.3125-0.5274 0-0.9571-0.1406-0.9571-0.3125 0-0.1758 0.4297-0.3164 0.9571-0.3164z"/>
  <path d="m11.488 3.0352l-4.7028 7.8708c-0.3672-0.008-0.711-0.183-0.9571-0.535l5.0389-7.6796c0.34-0.082 0.547 0.0352 0.621 0.3438z"/>
  <path d="m5.8008 12.273c0.5273-0.07 1.3437-0.742 0.9648-1.718-0.9179-0.262-0.707-0.395-0.707-0.395-1.2578 0.305-2.2109 1.738-1.9492 2.652 0.1679 0.579 0.1367 0.52 0.1367 0.52 0.3516-1.121 0.3555-0.914 1.5547-1.059z"/>
 </g>
</svg>
