<svg viewBox="0 0 16 16" width="16" xmlns="http://www.w3.org/2000/svg" xmlns:xlink="http://www.w3.org/1999/xlink" height="16">
 <path d="m13.129 1.7344c-0.188 0.0156-0.375 0.1094-0.531 0.2578l-3.4066 2.9609c-0.1445 0.1446-0.2266 0.3438-0.2266 0.543 0 0.1016 0.0196 0.1875 0.0586 0.2734 0 0.0039-0.0039 0.0117 0 0.0157-0.1289 0.2695-0.0898 0.6445-0.0898 1.4609 0 0.2969-0.7774 0.6133-0.9727 0.6133h-0.0273c-0.6172 0-2.6289 0.0937-3.25 0.9453-0.6211 0.8555-2.9492 4.7303-2.9492 5.2973 0.9297 0 7.6836-3.375 8.0312-3.692 0.4184-0.387 0.2149-1.16-0.0586-1.6756 0.0039-0.0039 0-0.0117 0-0.0156 0.0078-0.0196 0.0118-0.0469-0.0117-0.086-0.1445-0.2422-0.2305-0.4883-0.2305-0.832 0-0.7578 0.0782-1.1758 0.2422-1.4141 0.367 0.0625 0.898-0.1172 1.133-0.3437l2.992-2.8516c0.305-0.2891 0.375-0.7344 0.07-1.0273l-0.242-0.2422c-0.152-0.1485-0.344-0.2031-0.531-0.1875z" fill="#cc7d6f"/>
</svg>
