<svg viewBox="0 0 16 16" width="16" xmlns="http://www.w3.org/2000/svg" xmlns:xlink="http://www.w3.org/1999/xlink" height="16">
 <g fill="#b377cf">
  <path d="m12.879 9.1406c0 2.7384-2.223 4.9614-4.961 4.9614-2.7422 0-4.961-2.223-4.961-4.9614 0-2.7422 2.2188-4.9609 4.961-4.9609 2.738 0 4.961 2.2187 4.961 4.9609z"/>
  <path d="m7.5352 3.4844h0.7656c0.1015 0 0.1875 0.0859 0.1875 0.1875v0.6054c0 0.1016-0.086 0.1875-0.1875 0.1875h-0.7656c-0.1055 0-0.1875-0.0859-0.1875-0.1875v-0.6054c0-0.1016 0.082-0.1875 0.1875-0.1875z"/>
  <path d="m7.5273 2.832h0.7813c0.2617 0 0.4726 0.211 0.4726 0.4727s-0.2109 0.4726-0.4726 0.4726h-0.7813c-0.2617 0-0.4765-0.2109-0.4765-0.4726s0.2148-0.4727 0.4765-0.4727z"/>
  <path stroke-linejoin="round" d="m124.1 31.073h9.03c8.85 0 16.05 4.484 16.05 9.979v1.074c0 5.557-7.2 9.978-16.05 9.978h-9.03c-8.84 0-16.04-4.421-16.04-9.978v-1.074c0-5.495 7.2-9.979 16.04-9.979z" transform="scale(.06185)" stroke="#b377cf" stroke-width="6.107"/>
 </g>
 <path d="m12.055 9.1406c0 2.2854-1.852 4.1364-4.137 4.1364-2.2852 0-4.1407-1.851-4.1407-4.1364 0-2.2851 1.8555-4.1367 4.1407-4.1367 2.285 0 4.137 1.8516 4.137 4.1367z" fill="#fff"/>
 <g fill="#b377cf">
  <path d="m7.8594 5.2734h0.1133c0.1015 0 0.1875 0.086 0.1875 0.1875v0.6016c0 0.1016-0.086 0.1875-0.1875 0.1875h-0.1133c-0.1016 0-0.1875-0.0859-0.1875-0.1875v-0.6016c0-0.1015 0.0859-0.1875 0.1875-0.1875z"/>
  <path d="m7.8594 11.938h0.1133c0.1015 0 0.1875 0.085 0.1875 0.187v0.602c0 0.101-0.086 0.187-0.1875 0.187h-0.1133c-0.1016 0-0.1875-0.086-0.1875-0.187v-0.602c0-0.102 0.0859-0.187 0.1875-0.187z"/>
  <path d="m4.0586 9.1953v-0.1133c0-0.1015 0.0859-0.1875 0.1875-0.1875h0.6016c0.1015 0 0.1875 0.086 0.1875 0.1875v0.1133c0 0.1055-0.086 0.1875-0.1875 0.1875h-0.6016c-0.1016 0-0.1875-0.082-0.1875-0.1875z"/>
  <path d="m10.613 9.1953v-0.1133c0-0.1015 0.082-0.1875 0.188-0.1875h0.597c0.106 0 0.188 0.086 0.188 0.1875v0.1133c0 0.1055-0.082 0.1875-0.188 0.1875h-0.597c-0.106 0-0.188-0.082-0.188-0.1875z"/>
  <path d="m9.6133 2.668l0.0234 0.0156c0.0235 0.0117 0.0274 0.0508 0.0078 0.082l-0.1133 0.1953c-0.0195 0.0313-0.0507 0.0508-0.0742 0.0352l-0.0234-0.0117c-0.0234-0.0156-0.0274-0.0508-0.0078-0.086l0.1133-0.1914c0.0195-0.0351 0.0507-0.0508 0.0742-0.039z"/>
  <path d="m12.562 4.3945l0.016 0.0235c0.012 0.0234-0.004 0.0586-0.039 0.0781l-0.191 0.1133c-0.032 0.0156-0.071 0.0156-0.082-0.0078l-0.016-0.0235c-0.012-0.0234 0.004-0.0586 0.035-0.0742l0.195-0.1133c0.032-0.0195 0.071-0.0156 0.082 0.0039z"/>
  <path d="m9.6133 15.516l0.0234-0.016c0.0235-0.012 0.0274-0.051 0.0078-0.082l-0.1133-0.195c-0.0195-0.032-0.0507-0.047-0.0742-0.035l-0.0234 0.015c-0.0234 0.012-0.0274 0.051-0.0078 0.082l0.1133 0.195c0.0195 0.032 0.0507 0.047 0.0742 0.036z"/>
  <path d="m12.562 13.789l0.016-0.023c0.012-0.024-0.004-0.055-0.039-0.075l-0.191-0.113c-0.032-0.019-0.071-0.016-0.082 0.004l-0.016 0.027c-0.012 0.02 0.004 0.055 0.035 0.075l0.195 0.113c0.032 0.019 0.071 0.015 0.082-0.008z"/>
  <path d="m6.2227 15.516l-0.0235-0.016c-0.0234-0.012-0.0273-0.051-0.0078-0.082l0.1133-0.195c0.0195-0.032 0.0508-0.047 0.0742-0.035l0.0273 0.015c0.0196 0.012 0.0235 0.051 0.004 0.082l-0.1094 0.195c-0.0235 0.032-0.0547 0.047-0.0781 0.036z"/>
  <path d="m3.2734 13.789l-0.0117-0.023c-0.0156-0.024 0-0.055 0.0352-0.075l0.1914-0.113c0.0351-0.019 0.0742-0.016 0.0859 0.004l0.0117 0.027c0.0157 0.02-0.0039 0.055-0.0351 0.075l-0.1914 0.113c-0.0352 0.019-0.0742 0.015-0.086-0.008z"/>
  <path d="m6.2227 2.6914l-0.0235 0.0156c-0.0234 0.0118-0.0273 0.0508-0.0078 0.0821l0.1133 0.1953c0.0195 0.0351 0.0508 0.0508 0.0742 0.0351l0.0273-0.0117c0.0196-0.0156 0.0235-0.0508 0.004-0.0859l-0.1094-0.1914c-0.0235-0.0352-0.0547-0.0508-0.0781-0.0391z"/>
  <path d="m3.2734 4.418l-0.0117 0.0234c-0.0156 0.0234 0 0.0586 0.0352 0.0781l0.1914 0.1094c0.0351 0.0195 0.0742 0.0195 0.0859-0.0039l0.0117-0.0273c0.0157-0.0196-0.0039-0.0547-0.0351-0.0743l-0.1914-0.1093c-0.0352-0.0196-0.0742-0.0196-0.086 0.0039z"/>
  <path d="m7.9297 6.3711c-0.1016 0-0.207 0.0078-0.3086 0.0156-0.0313 0.0039-0.0625 0.0235-0.0742 0.0508-0.0157 0.0313-0.0117 0.0664 0.0078 0.0898 0.0195 0.0235 0.0508 0.0391 0.082 0.0352 0.793-0.0898 1.5 0.1523 2.0742 0.7031 0.0235 0.0274 0.0547 0.0352 0.086 0.0274 0.0351-0.0078 0.0586-0.0352 0.0664-0.0664 0.0039-0.0313-0.0078-0.0664-0.0313-0.086-0.5351-0.5117-1.1836-0.7734-1.9023-0.7695z"/>
  <path d="m8.1836 6.8828c-0.043 0.0039-0.0742 0.043-0.0742 0.086 0 0.0429 0.0351 0.0781 0.0781 0.082 0.4414 0.0586 0.793 0.2187 1.125 0.5156 0.0352 0.0313 0.0898 0.0274 0.1211-0.0078 0.0352-0.0352 0.0312-0.0898-0.0039-0.1211-0.3555-0.3164-0.75-0.4961-1.2188-0.5547-0.0117-0.0039-0.0195-0.0039-0.0273 0z"/>
  <path d="m7.8633 5.9023c-0.2891 0.0079-0.5781 0.0547-0.8711 0.1407-0.0313 0.0078-0.0547 0.0312-0.0625 0.0625-0.0078 0.0351 0.0039 0.0664 0.0234 0.0859 0.0274 0.0234 0.0586 0.0313 0.0899 0.0195 1.1054-0.332 2.2031-0.0547 3.023 0.7539 0.036 0.0352 0.09 0.0352 0.125 0 0.032-0.0312 0.032-0.0898 0-0.121-0.648-0.6407-1.4683-0.9649-2.3277-0.9415z"/>
  <g fill-rule="evenodd">
   <path d="m10.82 4.6367l-0.172 0.6641 0.657 0.5078 0.633-0.3711c0-0.3281-0.84-0.8945-1.118-0.8008z"/>
   <path d="m10.812 6.7773c-0.058-0.0703-3.5893 2.7969-3.5893 2.7969l0.1328 0.1719s3.5155-2.9023 3.4565-2.9688z"/>
  </g>
 </g>
</svg>
