<svg viewBox="0 0 16 16" width="16" xmlns="http://www.w3.org/2000/svg" xmlns:xlink="http://www.w3.org/1999/xlink" height="16">
 <g fill="#d07d86" fill-rule="evenodd">
  <path d="m11.559 10.191c0 0.887-1.274 0.926-1.274 0.051l0.024-2.2693c0-0.7852 0.832-1.6446 1.957-1.6602 0.836 0 0.859-1.2969 0-1.2969h-6.3558c-0.625 0-0.9063 0.3711-0.8946 0.8321v3.7617c0 0.8826-1.2734 0.8706-1.2734 0 0 0-0.0234-2.8672-0.0234-3.836 0-0.9453 0.746-2.082 2.1523-2.082h6.3669c1.235 0.0117 1.875 0.957 1.864 1.8789-0.004 1.2695-0.981 2.0352-1.731 2.0352-0.559 0-0.797 0.3125-0.797 0.8359z"/>
  <path d="m1.7422 5.7031l-0.0117 4.4489c0.0664 1.254 0.957 1.969 1.9297 1.993l4.1328-0.043c0.9843 0 1.7773-0.817 1.7773-1.895 0-1.0039-0.6601-1.8593-1.9062-1.8945-0.9102 0-0.8946-1.2969 0-1.2969h1.8711c0.8518 0 0.8318-1.3515 0-1.3515l-1.9961 0.0273c-0.9844 0-1.875 0.8281-1.8633 1.8984 0.0078 1.0704 0.7422 2 1.9023 2 0.8985 0 0.8789 1.2932 0.0078 1.2932h-3.6718c-0.4961 0-0.8711-0.27-0.8711-0.879l-0.0235-4.2892c0-0.9648-1.2773-0.9492-1.2773-0.0117z"/>
 </g>
</svg>
