<svg viewBox="0 0 16 16" width="16" xmlns="http://www.w3.org/2000/svg" xmlns:xlink="http://www.w3.org/1999/xlink" height="16">
 <g fill="#6f8bc0">
  <path d="m11.918 1.7305c-2.5938 0-3.0782 3.6679-1.621 3.6679 1.461 0 4.215-3.6679 1.621-3.6679z"/>
  <path d="m7.6133 4.9414c0.7734 0.0469 1.6289-2.9375 0.1679-2.7539-1.4609 0.1914-0.9453 2.707-0.1679 2.7539z"/>
  <path d="m4.0508 6.8008c0.5547-0.2422 0.0703-2.6016-0.8672-1.957-0.9375 0.6406 0.3164 2.1992 0.8672 1.957z"/>
  <path d="m5.6094 5.5664c0.6562-0.1367 0.6914-2.8125-0.4805-2.332-1.1719 0.4804-0.1797 2.4648 0.4805 2.332z"/>
  <path d="m9.043 11.555c0.1172 0.886-0.6563 1.32-1.4063 0.75-2.4023-1.813 3.9763-2.7191 3.5543-5.1995-0.347-2.0547-6.7105-1.4219-7.4371 1.7968-0.4922 2.1797 2.0195 5.1997 4.6367 5.1997 1.2891 0 2.7774-1.153 3.0544-2.618 0.211-1.113-2.4997-0.668-2.402 0.071z"/>
 </g>
</svg>
