<svg viewBox="0 0 16 16" width="16" xmlns="http://www.w3.org/2000/svg" xmlns:xlink="http://www.w3.org/1999/xlink" height="16">
 <g fill="#ec86ab">
  <path d="m2.418 1.7305v8.25h0.6875v-8.25z"/>
  <path d="m3.793 10.324c0 0.567-0.461 1.028-1.0313 1.028-0.5664 0-1.0312-0.461-1.0312-1.028 0-0.5701 0.4648-1.0349 1.0312-1.0349 0.5703 0 1.0313 0.4648 1.0313 1.0349z"/>
  <path d="m6.543 14.102v-10.309h-0.6875v10.309z"/>
  <path d="m5.168 3.4492c0-0.5703 0.4609-1.0312 1.0312-1.0312s1.0313 0.4609 1.0313 1.0312-0.461 1.0313-1.0313 1.0313-1.0312-0.461-1.0312-1.0313z"/>
  <path d="m9.2891 1.7305v7.5586h0.6914v-7.5586z"/>
  <path d="m10.664 9.6328c0 0.5702-0.461 1.0312-1.0273 1.0312-0.5703 0-1.0312-0.461-1.0312-1.0312 0-0.5664 0.4609-1.0273 1.0312-1.0273 0.5663 0 1.0273 0.4609 1.0273 1.0273z"/>
  <path d="m13.414 14.102v-5.4965h-0.687v5.4965z"/>
  <path d="m12.039 8.2617c0-0.5703 0.461-1.0312 1.031-1.0312 0.571 0 1.032 0.4609 1.032 1.0312 0 0.5664-0.461 1.0313-1.032 1.0313-0.57 0-1.031-0.4649-1.031-1.0313z"/>
 </g>
</svg>
