<svg viewBox="0 0 16 16" width="16" xmlns="http://www.w3.org/2000/svg" xmlns:xlink="http://www.w3.org/1999/xlink" height="16">
 <path stroke-linejoin="round" d="m10.535 1021.4h26.93c0.844 0 1.535 0.6 1.535 1.5v10.9c0 0.9-0.691 1.6-1.535 1.6h-26.93c-0.8436 0-1.535-0.7-1.535-1.6v-10.9c0-0.9 0.6914-1.5 1.535-1.5z" transform="matrix(.33333 0 0 .33333 0 -334.79)" stroke="#6aaf53" stroke-linecap="round" stroke-width="2" fill="none"/>
 <path d="m3.832 6.332c-0.0898 0-0.164 0.0742-0.164 0.168v3c0 0.0938 0.0742 0.168 0.164 0.168h4.0196c0.0937 0 0.1679-0.0742 0.1679-0.168v-3c0-0.0938-0.0742-0.168-0.1679-0.168zm1.168 2.336v-1.336h0.332v1.336zm0.668 0v-1.336h0.332v1.336zm0.664 0v-1.336h0.336v1.336z" fill="#6aaf53"/>
</svg>
