<svg viewBox="0 0 16 16" width="16" xmlns="http://www.w3.org/2000/svg" xmlns:xlink="http://www.w3.org/1999/xlink" height="16">
 <g fill="#555">
  <path d="m13.195 6.8516v2.1328c0 0.1367-0.148 0.2539-0.332 0.2539h-1.976c-0.184 0-0.332-0.1172-0.332-0.2539v-2.1328c0-0.1407 0.148-0.2539 0.332-0.2539h1.976c0.184 0 0.332 0.1132 0.332 0.2539z"/>
  <path d="m9.2383 6.8516v2.1328c0 0.1367-0.1524 0.2539-0.3321 0.2539h-1.9765c-0.1836 0-0.332-0.1172-0.332-0.2539v-2.1328c0-0.1407 0.1484-0.2539 0.332-0.2539h1.9765c0.1797 0 0.3321 0.1132 0.3321 0.2539z"/>
  <path d="m5.2773 6.8516v2.1328c0 0.1367-0.1484 0.2539-0.332 0.2539h-1.9765c-0.1836 0-0.3321-0.1172-0.3321-0.2539v-2.1328c0-0.1407 0.1485-0.2539 0.3321-0.2539h1.9765c0.1836 0 0.332 0.1132 0.332 0.2539z"/>
 </g>
</svg>
