<svg viewBox="0 0 16 16" width="16" xmlns="http://www.w3.org/2000/svg" xmlns:xlink="http://www.w3.org/1999/xlink" height="16">
 <g fill="#c0956e">
  <path d="m5.6953 2.6953c-0.1953 0.0195-0.3594 0.2031-0.3594 0.3985v3.1718c0 0.211 0.1914 0.4024 0.4024 0.4024h4.5237c0.211 0 0.402-0.1914 0.402-0.4024v-3.1718c0-0.2071-0.191-0.3985-0.402-0.3985z"/>
  <path d="m2.3594 9.3594c-0.1953 0.0234-0.3594 0.207-0.3594 0.4023v3.1723c0 0.211 0.1914 0.398 0.3984 0.398h4.5274c0.2109 0 0.3984-0.187 0.3984-0.398v-3.1723c0-0.2109-0.1875-0.4023-0.3984-0.4023z"/>
  <path d="m9.0234 9.3594c-0.1953 0.0234-0.3593 0.207-0.3554 0.4023v3.1723c0 0.211 0.1875 0.398 0.3984 0.398h4.5276c0.207 0 0.398-0.187 0.398-0.398v-3.1723c0-0.2109-0.191-0.4023-0.398-0.4023z"/>
  <path d="m7.668 7v0.668h-3.336v1.332h0.668v-0.668h6v0.668h0.668v-1.332h-3.336v-0.668z"/>
 </g>
</svg>
