<svg viewBox="0 0 16 16" width="16" xmlns="http://www.w3.org/2000/svg" xmlns:xlink="http://www.w3.org/1999/xlink" height="16">
 <g fill="#555">
  <path d="m6.207 2.9766c0-0.1875-0.1523-0.3399-0.3437-0.3399-0.1875 0-0.336 0.1524-0.336 0.3399v1.2539h0.6797z"/>
  <path d="m5.5273 12.852c0 0.187 0.1485 0.339 0.336 0.339 0.1914 0 0.3437-0.152 0.3437-0.339v-1.25h-0.6797z"/>
  <path d="m8.2578 2.9766c0-0.1875-0.1523-0.3399-0.3398-0.3399s-0.3399 0.1524-0.3399 0.3399v1.2539h0.6797z"/>
  <path d="m7.5781 12.852c0 0.187 0.1524 0.339 0.3399 0.339s0.3398-0.152 0.3398-0.339v-1.25h-0.6797z"/>
  <path d="m10.309 2.9766c0-0.1875-0.153-0.3399-0.3402-0.3399-0.1876 0-0.3399 0.1524-0.3399 0.3399v1.2539h0.6801z"/>
  <path d="m9.6289 12.852c0 0.187 0.1523 0.339 0.3438 0.339 0.1833 0 0.3363-0.152 0.3363-0.339v-1.25h-0.6801z"/>
  <path d="m2.9805 9.6289c-0.1875 0-0.3399 0.1523-0.3399 0.3399 0 0.1872 0.1524 0.3362 0.3399 0.3362h1.25v-0.6761z"/>
  <path d="m12.855 10.305c0.188 0 0.34-0.149 0.34-0.3362 0-0.1876-0.152-0.3399-0.34-0.3399h-1.25v0.6761z"/>
  <path d="m2.9805 7.5781c-0.1875 0-0.3399 0.1485-0.3399 0.336s0.1524 0.3398 0.3399 0.3398h1.25v-0.6758z"/>
  <path d="m12.855 8.2539c0.188 0 0.34-0.1523 0.34-0.3398s-0.152-0.336-0.34-0.336h-1.25v0.6758z"/>
  <path d="m2.9805 5.5234c-0.1875 0-0.3399 0.1524-0.3399 0.3399s0.1524 0.3398 0.3399 0.3398h1.25v-0.6797z"/>
  <path d="m12.855 6.2031c0.188 0 0.34-0.1523 0.34-0.3398s-0.152-0.3399-0.34-0.3399h-1.25v0.6797z"/>
  <path d="m9.8398 10.547c0.3902 0 0.7112-0.32 0.7112-0.715v-3.8359c0-0.3945-0.321-0.7109-0.7112-0.7109h-3.8437c-0.3906 0-0.7109 0.3164-0.7109 0.7109v3.8359c0 0.395 0.3203 0.715 0.7109 0.715z"/>
 </g>
</svg>
