<svg viewBox="0 0 16 16" width="16" xmlns="http://www.w3.org/2000/svg" xmlns:xlink="http://www.w3.org/1999/xlink" height="16">
 <path d="m123.91-160.5c-41.932 2.21-75.279 37.45-75.279 80.522 0 44.463 35.557 80.525 79.389 80.525 43.83 0.00036 79.39-36.062 79.39-80.525 0-44.462-35.56-80.522-79.39-80.522-1.39 0-2.78-0.07-4.11 0z" transform="matrix(.06185 0 0 .06185 0 12.865)" stroke="#4aa5c6" stroke-width="17.397" fill="none"/>
 <g fill="#4aa5c6">
  <path d="m7.2188 1.7305h1.3945c0.0781 0 0.1445 0.1172 0.1445 0.2617v0.8008c0 0.1445-0.0664 0.2617-0.1445 0.2617h-1.3945c-0.0782 0-0.1407-0.1172-0.1407-0.2617v-0.8008c0-0.1445 0.0625-0.2617 0.1407-0.2617z"/>
  <path d="m7.2188 12.781h1.3945c0.0781 0 0.1445 0.117 0.1445 0.262v0.797c0 0.144-0.0664 0.262-0.1445 0.262h-1.3945c-0.0782 0-0.1407-0.118-0.1407-0.262v-0.797c0-0.145 0.0625-0.262 0.1407-0.262z"/>
  <path d="m9.0625 7.918c0 0.5976-0.5117 1.0859-1.1445 1.0859s-1.1485-0.4883-1.1485-1.0859c0-0.6016 0.5157-1.086 1.1485-1.086s1.1445 0.4844 1.1445 1.086z"/>
  <path d="m14.102 7.2305v1.375c0 0.0781-0.125 0.1406-0.278 0.1406h-0.844c-0.152 0-0.273-0.0625-0.273-0.1406v-1.375c0-0.0782 0.121-0.1407 0.273-0.1407h0.844c0.153 0 0.278 0.0625 0.278 0.1407z"/>
  <path d="m3.1289 7.2305v1.375c0 0.0781-0.125 0.1406-0.2773 0.1406h-0.8438c-0.1523 0-0.2773-0.0625-0.2773-0.1406v-1.375c0-0.0782 0.125-0.1407 0.2773-0.1407h0.8438c0.1523 0 0.2773 0.0625 0.2773 0.1407z"/>
  <path d="m12.043 3.0742l0.984 0.9375c0.059 0.0508 0.016 0.1758-0.093 0.2774l-0.594 0.5664c-0.11 0.1015-0.242 0.1406-0.297 0.0898l-0.988-0.9336c-0.055-0.0547-0.012-0.1797 0.097-0.2812l0.594-0.5664c0.109-0.1016 0.242-0.1407 0.297-0.0899z"/>
  <path d="m3.7891 10.887l0.9882 0.937c0.0547 0.051 0.0157 0.176-0.0937 0.278l-0.5977 0.566c-0.1093 0.102-0.2382 0.141-0.2968 0.09l-0.9844-0.934c-0.0586-0.054-0.0156-0.179 0.0937-0.281l0.5977-0.566c0.1055-0.102 0.2383-0.141 0.293-0.09z"/>
  <path d="m13.027 11.824l-0.984 0.934c-0.055 0.051-0.188 0.012-0.297-0.09l-0.594-0.566c-0.109-0.102-0.152-0.227-0.097-0.278l0.988-0.937c0.055-0.051 0.187-0.012 0.297 0.09l0.594 0.566c0.109 0.102 0.152 0.227 0.093 0.281z"/>
  <path d="m4.7773 4.0117l-0.9882 0.9336c-0.0547 0.0508-0.1875 0.0117-0.293-0.0898l-0.5977-0.5664c-0.1093-0.1016-0.1523-0.2266-0.0937-0.2774l0.9844-0.9375c0.0586-0.0508 0.1875-0.0117 0.2968 0.0899l0.5977 0.5664c0.1094 0.1015 0.1484 0.2265 0.0937 0.2812z"/>
 </g>
</svg>
