<svg viewBox="0 0 16 16" width="16" xmlns="http://www.w3.org/2000/svg" xmlns:xlink="http://www.w3.org/1999/xlink" height="16">
 <path d="m8.3516 10.371c-0.0313-1.121 0.2226-2.2069 1.2929-2.9804 1.1255-0.875 2.2105-1.9648 2.0975-3.25-0.023-1.2422-1.48-2.2148-3.0506-2.3554-1.7656-0.2422-3.9023 0.3554-4.4961 1.7265-0.3008 0.6641-0.0195 1.8594 0.9883 1.8594 0.5859 0 0.8594-0.3789 0.9023-0.7227 0.0352-0.2617-0.0742-0.4961-0.1367-0.7109-0.0742-0.2461 0.2344-0.7227 0.5742-0.918 0.2852-0.1601 0.5782-0.2187 0.6211-0.2265 1.0157-0.2422 2.0274 0.2929 2.4493 0.9453 0.4262 0.6484-0.043 1.6367-0.7071 2.5976-0.6719 0.961-1.3867 2.0508-1.3867 3.211 0 0.4414-0.0391 0.5901-0.0117 0.7651 0.0234 0.145 0.5 0.129 0.8633 0.059zm-0.461 1.512c-0.9726-0.051-1.6445 1.039-1.0625 1.738 0.5235 0.766 1.9844 0.578 2.2344-0.293 0.2578-0.676-0.3672-1.457-1.1719-1.445z" fill="#9cc7cf"/>
</svg>
