<svg viewBox="0 0 38 38" width="47.5" xmlns="http://www.w3.org/2000/svg" xmlns:xlink="http://www.w3.org/1999/xlink" height="47.5">
 <g fill="#8ccd7c">
  <path d="m11.137 12.039c-3.8558 0-6.9808 3.145-6.9808 7.02 0 0.242 0.004 0.48 0.0274 0.714 0.0586 1.504-0.0274 3.676 1.7187 8.942 1.4844 4.48 2.6172 4.387 2.6172 4.387l1.7425-0.879s-0.8714-1.754-0.8714-3.508c0-0.844 0.1992-1.883 0.4102-2.742 0.4292 0.082 0.8832 0.109 1.3362 0.109 3.851 0 6.976-3.144 6.976-7.023 0-3.875-3.125-7.02-6.976-7.02z"/>
  <path d="m26.863 25.961c3.856 0 6.981-3.145 6.981-7.02 0-0.242-0.004-0.48-0.028-0.714-0.058-1.504 0.028-3.676-1.718-8.9418-1.485-4.4805-2.618-4.3868-2.618-4.3868l-1.742 0.8789s0.871 1.7539 0.871 3.5079c0 0.8438-0.199 1.8828-0.41 2.7418-0.429-0.082-0.883-0.109-1.336-0.109-3.851 0-6.976 3.144-6.976 7.023 0 3.875 3.125 7.02 6.976 7.02z"/>
 </g>
</svg>
