<svg viewBox="0 0 38 38" width="47.5" xmlns="http://www.w3.org/2000/svg" xmlns:xlink="http://www.w3.org/1999/xlink" height="47.5">
 <defs>
  <clipPath id="clip2">
   <path d="m11 8.5234h20v20.954h-20z"/>
  </clipPath>
  <clipPath id="clip1">
   <path d="m4.1562 8.5234h12.844v20.954h-12.844z"/>
  </clipPath>
  <clipPath id="clip4">
   <path d="m22 14h11.844v5h-11.844z"/>
  </clipPath>
  <clipPath id="clip3">
   <path d="m25 19h8.844v5h-8.844z"/>
  </clipPath>
 </defs>
 <g style="clip-path:url(#clip1)">
  <path d="m4.1562 29.477l6.9848-10.477-6.9848-10.477 5.2383 0.0004 6.9845 10.477-6.9845 10.477z" fill="#4fb09e"/>
 </g>
 <g style="clip-path:url(#clip2)">
  <path d="m11.141 29.477l6.984-10.477-6.984-10.477 5.238 0.0004 13.973 20.954h-5.239l-4.367-6.547-4.367 6.547z" fill="#4fb09e"/>
 </g>
 <g style="clip-path:url(#clip3)">
  <path d="m28.023 23.367l-2.328-3.492 8.149-0.004v3.496z" fill="#4fb09e"/>
 </g>
 <g style="clip-path:url(#clip4)">
  <path d="m24.531 18.125l-2.328-3.492h11.641v3.492z" fill="#4fb09e"/>
 </g>
</svg>
