<svg viewBox="0 0 38 38" width="47.5" xmlns="http://www.w3.org/2000/svg" xmlns:xlink="http://www.w3.org/1999/xlink" height="47.5">
 <path d="m197.71 46.263c-12.55 5.158-52.79 21.948-53.79 22.369-11.26-9.211-25.89-16.343-41.08-17.158-36.787-2.316-70.603 30.368-70.708 66.606-1.632 32.63 13.263 62.81 26.71 91.66 11.263-4.71 52.188-21.77 53.238-22.21 11.03 9.23 25.18 16.05 39.95 17.1 36.18 3.05 69.84-28.24 71.68-63.6 2.63-33.11-12.63-63.741-25.45-93.346-0.21-0.473-0.37-0.947-0.55-1.421z" transform="scale(.14844)" stroke="#6997af" stroke-width="8" fill="none"/>
 <g fill="#6997af">
  <path d="m9.9766 27.996c-1.1797-2.855-2.7422-5.367-2.7774-10.031-0.0351-4.817 4.0978-7.934 7.3598-7.934 3.953 0 7.433 3.34 7.617 6.102 0.164 2.496-0.723 6.125-5.309 6.097-2.187-0.011-4.461-1.914-4.472-4.746-0.012-3.058 3.816-3.355 4.781-2.578 0.375 0.301 0.363 0.903 0.031 0.793-2.062-0.672-3.336 0.653-3.238 1.969 0.125 1.785 1.187 2.848 3.086 2.937 2.738 0.129 3.507-2.535 3.437-3.617-0.086-1.312-1.234-4.019-4.797-4.511-1.687-0.235-3.082 0.269-4.101 1.257-1.02 0.989-1.59 2.012-1.676 3.688-0.086 1.734 0.293 2.754 1.328 5.027 0.371 0.813 1.406 2.453 2.207 4.094z"/>
  <path d="m28.023 10.031c1.18 2.856 2.743 5.371 2.778 10.031 0.035 4.817-4.098 7.934-7.36 7.934-3.953 0-7.433-3.336-7.617-6.101-0.164-2.497 0.723-6.125 5.309-6.098 2.187 0.012 4.461 1.914 4.472 4.75 0.012 3.055-3.816 3.351-4.781 2.574-0.375-0.301-0.363-0.898-0.031-0.793 2.062 0.672 3.336-0.652 3.238-1.965-0.125-1.789-1.187-2.851-3.086-2.941-2.738-0.129-3.507 2.535-3.437 3.617 0.086 1.313 1.234 4.02 4.797 4.512 1.687 0.234 3.082-0.27 4.101-1.258 1.02-0.988 1.59-2.012 1.676-3.688 0.086-1.734-0.293-2.75-1.328-5.027-0.371-0.812-1.406-2.449-2.207-4.094z"/>
 </g>
</svg>
