<svg xmlns="http://www.w3.org/2000/svg" xmlns:xlink="http://www.w3.org/1999/xlink" viewBox="0 0 48 48">
 <g transform="translate(0 -1004.4)">
  <path fill="#92a991" d="m10.031 8.7188v29h-1.9998v2h3.9998v-5.688h27.469 0.469v-0.469-19.093-0.469h-0.469-27.469v-5.2812h-2zm2 7.2812h25.969v16h-25.969v-16zm13.938 1.969v3h10v-3h-10zm-17.969 0.031v3h2v-3h-2zm6 0v3h9.969v-3h-9.969zm0 5v2h22v-2h-22zm-6 1v3h2v-3h-2zm6 2v2h22v-2h-22zm0 3v0.969h3v-0.969h-3zm4 0v0.969h2v-0.969h-2zm3 0v0.969h2v-0.969h-2zm3 0v0.969h2v-0.969h-2zm5 0v0.969h3v-0.969h-3zm4 0v0.969h3v-0.969h-3z" transform="translate(0 1004.4)"/>
 </g>
</svg>
