<svg viewBox="0 0 38 38" width="47.5" xmlns="http://www.w3.org/2000/svg" xmlns:xlink="http://www.w3.org/1999/xlink" height="47.5">
 <path d="m17.25 30.219c0 0.676-0.566 1.219-1.262 1.219-0.699 0-1.261-0.543-1.261-1.219 0-0.672 0.562-1.219 1.261-1.219 0.696 0 1.262 0.547 1.262 1.219zm-6.051-18.891c0 0.672-0.566 1.219-1.2615 1.219-0.6992 0-1.2617-0.547-1.2617-1.219 0-0.676 0.5625-1.219 1.2617-1.219 0.6955 0 1.2615 0.543 1.2615 1.219zm21.59 4.133c0 0.676-0.562 1.223-1.262 1.223-0.695 0-1.261-0.547-1.261-1.223 0-0.672 0.566-1.219 1.261-1.219 0.7 0 1.262 0.547 1.262 1.219zm-14.223 18.336c-0.851-0.25-1.66-1.067-2.308-2.332-0.246-0.485-0.297-0.547-0.426-0.547-0.223-0.004-0.594-0.176-0.723-0.34-0.293-0.371-0.214-0.828 0.106-1.156 0.094-0.094 0.105-0.207 0.105-0.258 0-0.047-0.062-0.305-0.136-0.578-0.164-0.586-0.469-1.961-0.52-2.356-0.019-0.156-0.055-0.308-0.074-0.339-0.024-0.036-0.317 0.039-0.856 0.222-1.543 0.528-3.144 0.93-4.6442 1.176-0.6953 0.117-2.4843 0.129-2.9414 0.023-1.0546-0.242-1.625-0.773-1.6875-1.57-0.0351-0.441 0.0821-0.859 0.4141-1.484 0.4414-0.828 0.9609-1.485 1.9297-2.449 0.7891-0.786 2.3672-2.094 3.2423-2.688l0.191-0.129-0.2771-0.203c-3.5898-2.601-5.6093-4.992-5.5039-6.508 0.0938-1.277 1.5352-1.843 4.0664-1.597 0.5625 0.058 0.5664 0.058 0.7344-0.071 0.5117-0.386 1.2692-0.254 1.5972 0.278 0.114 0.187 0.172 0.23 0.418 0.289 0.465 0.113 1.821 0.515 2.563 0.761 0.383 0.125 0.707 0.219 0.723 0.204 0.015-0.016 0.082-0.297 0.144-0.629 0.625-3.3676 1.672-5.8012 2.926-6.8363 0.644-0.5313 1.379-0.6641 2.051-0.375 0.621 0.2695 1.351 1.0625 1.914 2.0781 0.402 0.7227 0.945 2.211 1.281 3.5117 0.176 0.6675 0.434 1.9145 0.434 2.0825 0 0.066 0.023 0.136 0.054 0.152 0.032 0.019 0.434-0.094 0.895-0.246 4.097-1.363 7.418-1.617 8.707-0.672 0.847 0.625 0.762 1.875-0.223 3.254-0.168 0.238-0.203 0.328-0.168 0.43 0.024 0.074 0.043 0.296 0.047 0.492 0.004 0.324-0.012 0.383-0.16 0.554-0.231 0.274-0.59 0.407-0.981 0.364-0.292-0.032-0.316-0.024-0.46 0.125-0.27 0.285-1.77 1.527-2.469 2.047-0.375 0.277-0.684 0.527-0.684 0.55 0 0.024 0.192 0.184 0.426 0.356 0.68 0.496 1.816 1.429 2.332 1.918 2.367 2.23 3.293 4 2.68 5.121-0.594 1.094-2.668 1.285-5.946 0.551-0.836-0.188-2.828-0.77-3.539-1.035-0.23-0.086-0.437-0.141-0.461-0.118-0.023 0.02-0.097 0.348-0.164 0.723-0.597 3.289-1.597 5.684-2.816 6.719-0.184 0.16-0.461 0.347-0.617 0.418-0.36 0.16-0.867 0.211-1.196 0.117zm0.762-0.668c1.367-0.363 2.535-2.805 3.215-6.711 0.078-0.445 0.121-0.828 0.098-0.848-0.024-0.019-0.411-0.175-0.864-0.347-0.449-0.168-1.257-0.512-1.793-0.762l-0.976-0.453-0.922 0.422c-0.785 0.359-1.656 0.718-2.609 1.066-0.184 0.066-0.211 0.098-0.211 0.246 0 0.231 0.136 0.973 0.367 1.996 0.293 1.293 0.301 1.309 0.578 1.399 0.309 0.101 0.484 0.218 0.621 0.492 0.141 0.281 0.133 0.625-0.09 0.926-0.187 0.254-0.191 0.23 0.235 1 0.515 0.922 1.05 1.429 1.687 1.601 0.219 0.063 0.352 0.055 0.664-0.027zm12.211-6.332c0.426-0.074 0.887-0.301 1.066-0.524 0.231-0.285 0.293-0.507 0.262-0.918-0.062-0.851-0.851-1.98-2.379-3.417-0.898-0.84-3.109-2.528-3.273-2.497-0.047 0.012-0.442 0.262-0.875 0.555-0.438 0.293-1.18 0.766-1.649 1.047l-0.851 0.512-0.067 0.968c-0.039 0.536-0.121 1.34-0.187 1.789-0.063 0.45-0.106 0.829-0.09 0.844 0.066 0.059 1.527 0.559 2.418 0.828 2.473 0.746 4.406 1.028 5.625 0.813zm-22.918-0.051c1.4339-0.168 3.3279-0.644 5.2579-1.324 0.426-0.149 0.594-0.231 0.594-0.293 0-0.047-0.051-0.441-0.114-0.879-0.058-0.438-0.14-1.254-0.179-1.812l-0.067-1.016-0.316-0.168c-0.551-0.289-1.824-1.066-2.387-1.453-0.297-0.207-0.562-0.375-0.586-0.375-0.062 0-0.379 0.222-1.2224 0.863-0.8711 0.656-2.1875 1.805-2.7735 2.418-2.0234 2.117-2.1836 3.629-0.4258 4.012 0.4024 0.086 1.5899 0.101 2.2188 0.027zm7.5939-2.191c0.426-0.168 1.051-0.438 1.387-0.594l0.613-0.281-0.555-0.262c-0.687-0.32-1.676-0.832-2.183-1.129-0.59-0.344-0.551-0.363-0.551 0.273 0 0.555 0.054 1.161 0.176 1.942 0.074 0.504-0.016 0.5 1.113 0.051zm6.609 0.097c0.203-1.382 0.305-2.632 0.211-2.632-0.031 0-0.074 0.019-0.094 0.046-0.05 0.079-1.761 0.973-2.48 1.301-0.363 0.168-0.664 0.317-0.664 0.336 0 0.074 2.707 1.211 2.894 1.215 0.071 0 0.102-0.07 0.133-0.266zm-2.832-1.828c0.926-0.445 2.196-1.117 2.828-1.496l0.301-0.176 0.035-0.617c0.047-0.762 0.039-3.371-0.011-3.566-0.028-0.121-0.192-0.231-0.993-0.676-0.523-0.289-0.961-0.527-0.968-0.527-0.008 0-0.305-0.145-0.661-0.321-1.187-0.597-1.402-0.695-1.492-0.695-0.215 0-2.957 1.375-3.945 1.977-0.246 0.148-0.27 0.179-0.305 0.429-0.066 0.485-0.004 3.86 0.074 3.985 0.063 0.097 1.079 0.695 1.813 1.066 1.031 0.523 2.207 1.082 2.277 1.082 0.043 0 0.516-0.207 1.047-0.465zm-1.531-2.367c-1-0.324-1.469-1.355-0.996-2.187 0.223-0.387 0.582-0.637 1.078-0.754 0.434-0.098 0.707-0.067 1.18 0.136 0.996 0.43 1.265 1.645 0.531 2.399-0.402 0.41-1.211 0.59-1.793 0.406zm-4.441-1.465c0-1.351-0.016-1.699-0.071-1.672-0.445 0.231-2.566 1.633-2.566 1.696 0 0.023 0.164 0.156 0.367 0.289 0.48 0.328 2.172 1.383 2.227 1.386 0.023 0.004 0.043-0.761 0.043-1.699zm11.078 1.008c0.613-0.387 1.203-0.773 1.316-0.867 0.203-0.16 0.207-0.164 0.094-0.242-0.961-0.668-2.43-1.602-2.524-1.602-0.027 0-0.058 0.77-0.066 1.707-0.008 0.934 0.004 1.703 0.027 1.703 0.02 0 0.539-0.316 1.153-0.699zm-12.903-2.312c0.684-0.442 1.395-0.887 1.582-0.993l0.344-0.191 0.035-0.559c0.055-0.828 0.141-1.652 0.242-2.34 0.137-0.917 0.164-0.824-0.324-0.996-0.551-0.195-2.301-0.718-2.785-0.836l-0.375-0.089-0.176 0.179c-0.347 0.356-0.8864 0.449-1.32 0.231-0.2266-0.117-0.4532-0.403-0.5196-0.66-0.0312-0.125-0.0586-0.137-0.4609-0.168-0.7305-0.063-1.8203-0.004-2.1992 0.121-1.8164 0.586-1.2735 2.355 1.4922 4.84 0.5117 0.464 1.3164 1.128 1.7851 1.476 1.2464 0.93 1.2264 0.918 1.3434 0.844 0.055-0.035 0.657-0.422 1.336-0.859zm15.668 0.437c0.871-0.621 1.383-1.027 2.172-1.719l0.637-0.558-0.035-0.243c-0.051-0.343 0.015-0.64 0.215-0.843 0.234-0.242 0.457-0.34 0.8-0.317l0.293 0.02 0.27-0.352c0.597-0.793 0.816-1.621 0.555-2.117-0.149-0.285-0.286-0.406-0.653-0.57-0.914-0.406-2.765-0.313-5.043 0.25-0.988 0.246-3.476 1.015-3.582 1.109-0.015 0.016 0.024 0.438 0.094 0.934 0.113 0.836 0.23 2.121 0.23 2.566 0 0.18 0.024 0.199 0.496 0.481 0.825 0.484 1.887 1.16 2.368 1.511 0.246 0.18 0.465 0.328 0.48 0.332 0.016 0 0.332-0.214 0.703-0.484zm-4.781-2.379c0-0.629-0.242-2.676-0.316-2.676-0.09 0-2.914 1.231-2.914 1.27 0 0.015 0.132 0.082 0.296 0.148 0.442 0.184 2.122 1.055 2.508 1.305 0.188 0.121 0.36 0.219 0.383 0.223s0.043-0.118 0.043-0.27zm-7.937 0.129c0.371-0.23 1.96-1.07 2.484-1.309l0.578-0.265-0.352-0.176c-0.742-0.367-2.523-1.07-2.621-1.035-0.078 0.027-0.105 0.18-0.218 1.199-0.196 1.766-0.196 1.785 0.129 1.586zm4.41-2.187c0.527-0.235 2.086-0.868 2.82-1.145 0.402-0.148 0.391-0.039 0.133-1.406-0.516-2.7386-1.332-4.8089-2.246-5.6956-0.453-0.4414-0.797-0.6055-1.258-0.6055-0.402 0-0.723 0.1329-1.066 0.4414-1.063 0.9532-1.942 3.1172-2.497 6.1407-0.156 0.867-0.164 0.937-0.097 0.988 0.035 0.024 0.468 0.203 0.968 0.399 0.5 0.199 1.301 0.531 1.786 0.738 0.48 0.211 0.882 0.387 0.89 0.387 0.012 0.004 0.266-0.106 0.567-0.242z" fill="#c9a879"/>
</svg>
