<svg viewBox="0 0 38 38" width="47.5" xmlns="http://www.w3.org/2000/svg" xmlns:xlink="http://www.w3.org/1999/xlink" height="47.5">
 <path d="m18.16 4.1562c-0.863 0-1.711 0.0977-2.578 0.3008-6.9258 1.6407-15.164 12.844-4.598 17.832 4.973 2.348 4.618 13.023 11.543 11.383 6.926-1.641 10.977-9.508 9.059-17.574-1.676-7.0589-7.387-11.934-13.426-11.942zm-2.137 2.2266c1.231 0 2.231 0.9961 2.231 2.2266 0 1.2265-1 2.2266-2.231 2.2266-1.23 0-2.23-1.0001-2.23-2.2266 0-1.2305 1-2.2266 2.23-2.2266zm6.692 0.7422c1.23 0 2.23 0.9961 2.23 2.2266 0 1.2264-1 2.2224-2.23 2.2224-1.235 0-2.231-0.996-2.231-2.2224 0-1.2305 0.996-2.2266 2.231-2.2266zm-11.895 3.711c1.231 0 2.231 0.996 2.231 2.223 0 1.23-1 2.226-2.231 2.226-1.2302 0-2.2302-0.996-2.2302-2.226 0-1.227 1-2.223 2.2302-2.223zm16.352 1.48c1.234 0 2.23 1 2.23 2.227 0 1.23-0.996 2.227-2.23 2.227-1.231 0-2.227-0.997-2.227-2.227 0-1.227 0.996-2.227 2.227-2.227zm-12.192 5.868c1.051-0.02 2.129 0.918 2.532 2.296 0.457 1.575-0.121 3.133-1.301 3.477-1.184 0.344-2.516-0.652-2.973-2.227-0.461-1.57 0.117-3.132 1.301-3.476 0.145-0.043 0.289-0.066 0.441-0.07zm12.938 0.812c1.23 0 2.23 0.996 2.23 2.227 0 1.23-1 2.226-2.23 2.226-1.234 0-2.23-0.996-2.23-2.226 0-1.231 0.996-2.227 2.23-2.227zm-2.973 5.938c1.231 0 2.227 0.996 2.227 2.222 0 1.231-0.996 2.227-2.227 2.227-1.234 0-2.23-0.996-2.23-2.227 0-1.226 0.996-2.222 2.23-2.222z" fill="#e784a4"/>
</svg>
