<svg viewBox="0 0 38 38" width="47.5" xmlns="http://www.w3.org/2000/svg" xmlns:xlink="http://www.w3.org/1999/xlink" height="47.5">
 <g fill="#a98bc7">
  <path d="m18.566 4.1562c-8.7887 0-15.21 6.7818-14.328 15.102 0.7425 7.015 6.442 12.906 13.477 14.586-1.203-1.965-1.981-4.176-2.227-6.5-0.883-8.321 5.543-15.039 14.332-15.039 1.383 0 2.707 0.172 4.024 0.484-3.098-5.082-8.934-8.6328-15.278-8.6328zm0 3.1133c2.754 0 5.407 0.8516 7.684 2.2578-8.574 1.6607-14.738 9.2387-13.84 18.094-2.7342-2.266-4.7342-5.324-5.0936-8.699-0.6953-6.57 4.0546-11.652 11.25-11.652z"/>
  <path d="m11.266 9.7812c1.55 0 2.804 1.5078 2.804 3.3708v11.942c0 1.863-1.254 3.371-2.804 3.371-1.5512 0-2.809-1.508-2.809-3.371v-11.942c0-1.863 1.2578-3.3708 2.809-3.3708z"/>
  <path d="m9.418 11.855c1.508 0 2.73 1.512 2.73 3.375v6.403c0 1.863-1.222 3.371-2.73 3.371-1.5078 0-2.7266-1.508-2.7266-3.371v-6.403c0-1.863 1.2188-3.375 2.7266-3.375z"/>
  <path d="m12.957 8.2422c1.551 0 2.805 1.5117 2.805 3.3708v4.637c0 1.863-1.254 3.375-2.805 3.375s-2.809-1.512-2.809-3.375v-4.637c0-1.8591 1.258-3.3708 2.809-3.3708z"/>
  <path d="m14.289 5.5508h4.023c1.86 0 3.372 1.5117 3.372 3.375v2.4802c0 1.864-1.512 3.371-3.372 3.371h-4.023c-1.859 0-3.371-1.507-3.371-3.371v-2.4802c0-1.8633 1.512-3.375 3.371-3.375z"/>
  <path d="m15.879 11.09c1.082 0 1.961 1.461 1.961 3.265 0 1.805-0.879 3.27-1.961 3.27-1.086 0-1.961-1.465-1.961-3.27 0-1.804 0.875-3.265 1.961-3.265z"/>
  <path d="m22.363 7.0117h0.637c1.863 0 3.375 1.0703 3.375 2.3867 0 1.3166-1.512 2.3826-3.375 2.3826h-0.637c-1.863 0-3.371-1.066-3.371-2.3826 0-1.3164 1.508-2.3867 3.371-2.3867z"/>
 </g>
</svg>
