<svg viewBox="0 0 38 38" width="47.5" xmlns="http://www.w3.org/2000/svg" xmlns:xlink="http://www.w3.org/1999/xlink" height="47.5">
 <g fill="#b477d0">
  <path d="m30.906 21.938c0 6.574-5.332 11.906-11.906 11.906s-11.906-5.332-11.906-11.906c-0.0002-6.579 5.332-11.907 11.906-11.907s11.906 5.328 11.906 11.907z"/>
  <path d="m18.082 8.3633h1.836c0.25 0 0.449 0.2031 0.449 0.4492v1.4495c0 0.25-0.199 0.449-0.449 0.449h-1.836c-0.25 0-0.449-0.199-0.449-0.449v-1.4495c0-0.2461 0.199-0.4492 0.449-0.4492z"/>
  <path d="m18.062 6.7969h1.876c0.628 0 1.136 0.5078 1.136 1.1367 0 0.625-0.508 1.1367-1.136 1.1367h-1.876c-0.628 0-1.136-0.5117-1.136-1.1367 0-0.6289 0.508-1.1367 1.136-1.1367z"/>
  <path stroke-linejoin="round" d="m124.13 31.053h8.98c8.86 0 16.05 4.473 16.05 10.026v1.053c0 5.526-7.19 10-16.05 10h-8.98c-8.87 0-16.08-4.474-16.08-10v-1.053c0-5.553 7.21-10.026 16.08-10.026z" transform="scale(.14844)" stroke="#b477d0" stroke-width="6.107"/>
 </g>
 <path d="m28.93 21.938c0 5.484-4.446 9.929-9.93 9.929s-9.9297-4.445-9.9297-9.929c0-5.485 4.4457-9.93 9.9297-9.93s9.93 4.445 9.93 9.93z" fill="#fff"/>
 <g fill="#b477d0">
  <path d="m18.863 12.66h0.274c0.246 0 0.449 0.199 0.449 0.449v1.438c0 0.246-0.203 0.449-0.449 0.449h-0.274c-0.246 0-0.449-0.203-0.449-0.449v-1.438c0-0.25 0.203-0.449 0.449-0.449z"/>
  <path d="m18.863 28.652h0.274c0.246 0 0.449 0.203 0.449 0.45v1.441c0 0.246-0.203 0.449-0.449 0.449h-0.274c-0.246 0-0.449-0.203-0.449-0.449v-1.441c0-0.247 0.203-0.45 0.449-0.45z"/>
  <path d="m9.7422 22.07v-0.269c0-0.246 0.2031-0.449 0.4528-0.449h1.438c0.246 0 0.449 0.203 0.449 0.449v0.269c0 0.25-0.203 0.45-0.449 0.45h-1.438c-0.2497 0-0.4528-0.2-0.4528-0.45z"/>
  <path d="m25.469 22.07v-0.269c0-0.246 0.203-0.449 0.449-0.449h1.437c0.25 0 0.45 0.203 0.45 0.449v0.269c0 0.25-0.2 0.45-0.45 0.45h-1.437c-0.246 0-0.449-0.2-0.449-0.45z"/>
  <path d="m23.074 6.4062l0.059 0.0313c0.055 0.0313 0.058 0.1211 0.012 0.2031l-0.266 0.4649c-0.047 0.0781-0.129 0.1211-0.184 0.0898l-0.058-0.0351c-0.051-0.0313-0.059-0.1211-0.012-0.2032l0.27-0.4648c0.043-0.0781 0.125-0.1172 0.179-0.086z"/>
  <path d="m30.152 10.547l0.036 0.058c0.031 0.055-0.008 0.137-0.09 0.184l-0.465 0.27c-0.078 0.043-0.168 0.039-0.199-0.016l-0.036-0.059c-0.031-0.054 0.008-0.136 0.09-0.179l0.465-0.27c0.078-0.047 0.168-0.039 0.199 0.012z"/>
  <path d="m23.074 37.238l0.059-0.035c0.055-0.031 0.058-0.121 0.012-0.199l-0.266-0.465c-0.047-0.082-0.129-0.121-0.184-0.09l-0.058 0.035c-0.051 0.032-0.059 0.121-0.012 0.2l0.27 0.464c0.043 0.082 0.125 0.122 0.179 0.09z"/>
  <path d="m30.152 33.094l0.036-0.059c0.031-0.055-0.008-0.133-0.09-0.18l-0.465-0.269c-0.078-0.047-0.168-0.039-0.199 0.016l-0.036 0.058c-0.031 0.051 0.008 0.133 0.09 0.18l0.465 0.269c0.078 0.047 0.168 0.039 0.199-0.015z"/>
  <path d="m14.934 37.238l-0.059-0.035c-0.051-0.031-0.059-0.121-0.012-0.199l0.266-0.465c0.047-0.082 0.129-0.121 0.183-0.09l0.059 0.035c0.055 0.032 0.059 0.121 0.012 0.2l-0.266 0.464c-0.047 0.082-0.129 0.122-0.183 0.09z"/>
  <path d="m7.8555 33.094l-0.0313-0.059c-0.0312-0.055 0.0078-0.133 0.086-0.18l0.4648-0.269c0.082-0.047 0.1719-0.039 0.2031 0.016l0.0313 0.058c0.0312 0.051-0.0078 0.133-0.086 0.18l-0.4648 0.269c-0.082 0.047-0.1719 0.039-0.2031-0.015z"/>
  <path d="m14.934 6.4609l-0.059 0.0352c-0.051 0.0312-0.059 0.1211-0.012 0.1992l0.266 0.4649c0.047 0.082 0.129 0.121 0.183 0.0898l0.059-0.0352c0.055-0.0312 0.059-0.121 0.012-0.1992l-0.266-0.4648c-0.047-0.082-0.129-0.1211-0.183-0.0899z"/>
  <path d="m7.8555 10.605l-0.0313 0.059c-0.0312 0.051 0.0078 0.133 0.086 0.18l0.4648 0.269c0.082 0.047 0.1719 0.039 0.2031-0.015l0.0313-0.059c0.0312-0.055-0.0078-0.133-0.086-0.18l-0.4648-0.269c-0.082-0.047-0.1719-0.039-0.2031 0.015z"/>
  <path d="m19.035 15.293c-0.246 0-0.496 0.012-0.746 0.039-0.078 0.004-0.148 0.051-0.18 0.121-0.035 0.07-0.027 0.152 0.02 0.215 0.051 0.059 0.129 0.09 0.203 0.078 1.902-0.207 3.594 0.367 4.977 1.692 0.05 0.062 0.132 0.085 0.207 0.066 0.078-0.02 0.136-0.082 0.152-0.16 0.016-0.074-0.012-0.156-0.074-0.203-1.282-1.227-2.84-1.856-4.559-1.848z"/>
  <path d="m19.641 16.516c-0.106 0.015-0.18 0.101-0.18 0.207 0.004 0.105 0.082 0.191 0.187 0.203 1.059 0.136 1.907 0.523 2.704 1.234 0.086 0.074 0.218 0.067 0.293-0.019 0.078-0.086 0.07-0.219-0.016-0.293-0.856-0.758-1.797-1.188-2.926-1.332-0.023-0.004-0.043-0.004-0.062 0z"/>
  <path d="m18.867 14.168c-0.687 0.02-1.387 0.133-2.086 0.34-0.074 0.015-0.133 0.074-0.152 0.148-0.02 0.078 0.008 0.156 0.062 0.207 0.059 0.051 0.141 0.067 0.211 0.039 2.653-0.789 5.293-0.129 7.258 1.817 0.082 0.082 0.215 0.082 0.297 0s0.078-0.215 0-0.293c-1.551-1.535-3.523-2.317-5.59-2.258z"/>
  <g fill-rule="evenodd">
   <path d="m25.965 11.125l-0.406 1.602 1.574 1.211 1.515-0.887c0-0.785-2.011-2.153-2.683-1.926z"/>
   <path d="m25.949 16.262c-0.14-0.16-8.617 6.718-8.617 6.718l0.32 0.407s8.434-6.965 8.297-7.125z"/>
  </g>
 </g>
</svg>
