<svg xmlns="http://www.w3.org/2000/svg" xmlns:xlink="http://www.w3.org/1999/xlink" viewBox="0 0 48 48">
 <g transform="translate(0 -1004.4)">
  <path stroke-width="1.275" d="m29.723 1027.7c-3.6022 0.1957-6.469 3.3969-6.469 7.3058 0 4.0351 3.0543 7.3059 6.8196 7.3059s6.8196-3.2708 6.8196-7.3059c0-4.035-3.0543-7.3058-6.8196-7.3058-0.11766 0-0.23439-0.01-0.35059 0z" stroke="#6891b8" fill="none"/>
 </g>
 <g stroke-width=".83" stroke="#6891b8" fill="#6891b8">
  <g transform="matrix(.67911 0 0 .34396 -89.874 -323.13)">
   <path d="m175.2 1002.3h2.8516c0.16224 0 0.29285 0.4977 0.29285 1.1161v3.4039c0 0.6182-0.13061 1.116-0.29285 1.116h-2.8516c-0.16224 0-0.29285-0.4978-0.29285-1.116v-3.4039c0-0.6184 0.13061-1.1161 0.29285-1.1161z"/>
   <path d="m175.2 1049.4h2.8516c0.16224 0 0.29285 0.4978 0.29285 1.116v3.4039c0 0.6183-0.13061 1.1161-0.29285 1.1161h-2.8516c-0.16224 0-0.29285-0.4978-0.29285-1.1161v-3.4039c0-0.6182 0.13061-1.116 0.29285-1.116z"/>
  </g>
  <g transform="matrix(.38399 0 0 .38399 20.857 -364.2)">
   <path d="m180.88 24.25c0 1.5188-1.2312 2.75-2.75 2.75s-2.75-1.2312-2.75-2.75 1.2312-2.75 2.75-2.75 2.75 1.2312 2.75 2.75z" transform="matrix(1.5094 0 0 1.5094 -244.86 991.76)"/>
  </g>
  <g transform="matrix(.38399 0 0 .78931 20.857 -781.01)">
   <path d="m46.371 1027.1v2.5542c0 0.1454-0.44582 0.2624-0.99976 0.2624h-3.0491c-0.55376 0-0.99967-0.117-0.99967-0.2624v-2.5542c0-0.1454 0.44591-0.2624 0.99967-0.2624h3.0491c0.55394 0 0.99976 0.117 0.99976 0.2624z"/>
   <path d="m6.6771 1027.1v2.5542c0 0.1454-0.44591 0.2624-0.99967 0.2624h-3.0491c-0.55385 0-0.99976-0.117-0.99976-0.2624v-2.5542c0-0.1454 0.44592-0.2624 0.99976-0.2624h3.0491c0.55376 0 0.99967 0.117 0.99967 0.2624z"/>
  </g>
  <g transform="matrix(.4802 .4802 -.24322 .24322 195.44 -304.31)">
   <path d="m175.2 1002.3h2.8516c0.16224 0 0.29285 0.4977 0.29285 1.1161v3.4039c0 0.6182-0.13061 1.116-0.29285 1.116h-2.8516c-0.16224 0-0.29285-0.4978-0.29285-1.116v-3.4039c0-0.6184 0.13061-1.1161 0.29285-1.1161z"/>
   <path d="m175.2 1049.4h2.8516c0.16224 0 0.29285 0.4978 0.29285 1.116v3.4039c0 0.6183-0.13061 1.1161-0.29285 1.1161h-2.8516c-0.16224 0-0.29285-0.4978-0.29285-1.1161v-3.4039c0-0.6182 0.13061-1.116 0.29285-1.116z"/>
  </g>
  <g transform="matrix(-.4802 .4802 -.24322 -.24322 365.07 196.05)">
   <path d="m175.2 1002.3h2.8516c0.16224 0 0.29285 0.4977 0.29285 1.1161v3.4039c0 0.6182-0.13061 1.116-0.29285 1.116h-2.8516c-0.16224 0-0.29285-0.4978-0.29285-1.116v-3.4039c0-0.6184 0.13061-1.1161 0.29285-1.1161z"/>
   <path d="m175.2 1049.4h2.8516c0.16224 0 0.29285 0.4978 0.29285 1.116v3.4039c0 0.6183-0.13061 1.1161-0.29285 1.1161h-2.8516c-0.16224 0-0.29285-0.4978-0.29285-1.1161v-3.4039c0-0.6182 0.13061-1.116 0.29285-1.116z"/>
  </g>
 </g>
 <g transform="translate(0 -1004.4)">
  <path stroke-width="1.275" d="m21.685 1015.1c-3.2154-1.6356-7.3004-0.3018-9.2591 3.081-2.0219 3.492-1.0177 7.853 2.2408 9.7397s7.5406 0.5866 9.5625-2.9053 1.0177-7.853-2.2408-9.7397c-0.10183-0.059-0.19976-0.1228-0.3034-0.1757z" stroke="#6891b8" fill="none"/>
 </g>
 <g stroke-width=".83" stroke="#6891b8" fill="#6891b8">
  <g transform="matrix(.5877 .34029 -.17236 .29766 91.818 -349.03)">
   <path d="m175.2 1002.3h2.8516c0.16224 0 0.29285 0.4977 0.29285 1.1161v3.4039c0 0.6182-0.13061 1.116-0.29285 1.116h-2.8516c-0.16224 0-0.29285-0.4978-0.29285-1.116v-3.4039c0-0.6184 0.13061-1.1161 0.29285-1.1161z"/>
   <path d="m175.2 1049.4h2.8516c0.16224 0 0.29285 0.4978 0.29285 1.116v3.4039c0 0.6183-0.13061 1.1161-0.29285 1.1161h-2.8516c-0.16224 0-0.29285-0.4978-0.29285-1.1161v-3.4039c0-0.6182 0.13061-1.116 0.29285-1.116z"/>
  </g>
  <g transform="matrix(.3323 .19241 -.19241 .3323 208.22 -329.09)">
   <path d="m180.88 24.25c0 1.5188-1.2312 2.75-2.75 2.75s-2.75-1.2312-2.75-2.75 1.2312-2.75 2.75-2.75 2.75 1.2312 2.75 2.75z" transform="matrix(1.5094 0 0 1.5094 -244.86 991.76)"/>
  </g>
  <g transform="matrix(.3323 .19241 -.39551 .68307 417.08 -689.8)">
   <path d="m46.371 1027.1v2.5542c0 0.1454-0.44582 0.2624-0.99976 0.2624h-3.0491c-0.55376 0-0.99967-0.117-0.99967-0.2624v-2.5542c0-0.1454 0.44591-0.2624 0.99967-0.2624h3.0491c0.55394 0 0.99976 0.117 0.99976 0.2624z"/>
   <path d="m6.6771 1027.1v2.5542c0 0.1454-0.44591 0.2624-0.99967 0.2624h-3.0491c-0.55385 0-0.99976-0.117-0.99976-0.2624v-2.5542c0-0.1454 0.44592-0.2624 0.99976-0.2624h3.0491c0.55376 0 0.99967 0.117 0.99967 0.2624z"/>
  </g>
  <g transform="matrix(.17494 .65619 -.33235 .08861 329.3 -189.78)">
   <path d="m175.2 1002.3h2.8516c0.16224 0 0.29285 0.4977 0.29285 1.1161v3.4039c0 0.6182-0.13061 1.116-0.29285 1.116h-2.8516c-0.16224 0-0.29285-0.4978-0.29285-1.116v-3.4039c0-0.6184 0.13061-1.1161 0.29285-1.1161z"/>
   <path d="m175.2 1049.4h2.8516c0.16224 0 0.29285 0.4978 0.29285 1.116v3.4039c0 0.6183-0.13061 1.1161-0.29285 1.1161h-2.8516c-0.16224 0-0.29285-0.4978-0.29285-1.1161v-3.4039c0-0.6182 0.13061-1.116 0.29285-1.116z"/>
  </g>
  <g transform="matrix(-.65619 .17494 -.08861 -.33235 225.37 328.23)">
   <path d="m175.2 1002.3h2.8516c0.16224 0 0.29285 0.4977 0.29285 1.1161v3.4039c0 0.6182-0.13061 1.116-0.29285 1.116h-2.8516c-0.16224 0-0.29285-0.4978-0.29285-1.116v-3.4039c0-0.6184 0.13061-1.1161 0.29285-1.1161z"/>
   <path d="m175.2 1049.4h2.8516c0.16224 0 0.29285 0.4978 0.29285 1.116v3.4039c0 0.6183-0.13061 1.1161-0.29285 1.1161h-2.8516c-0.16224 0-0.29285-0.4978-0.29285-1.1161v-3.4039c0-0.6182 0.13061-1.116 0.29285-1.116z"/>
  </g>
 </g>
</svg>
