<svg viewBox="0 0 38 38" width="47.5" xmlns="http://www.w3.org/2000/svg" xmlns:xlink="http://www.w3.org/1999/xlink" height="47.5">
 <g stroke-width="4.545" stroke="#559ca5" fill="#559ca5">
  <path d="m69.158 106.24c1.631 7.55 2.553 13.23 1.21 20.79-10.289 8.36-36.605 12.13-36.552 20.79l-3.553 25.97c0 8.6 24.553 15.58 54.816 15.58 30.261 0 54.791-6.98 54.791-15.58l-3.53-25.97c-0.05-7.43-26.52-12.14-36.682-20.79-0.869-7-0.184-13.79 1.312-20.79z" transform="scale(.14844)"/>
  <path d="m84.816 57.553c-12.553 0-22.737 9.789-22.737 21.842 0.105 4.473 0.474 9.789 3.053 21.865 1.5 4.69 15.026 18.11 15.131 19.66 2.948 1.55 7.579 1.55 10.605 0 0-1.55 12.132-14.97 13.662-19.66 2.86-12.549 2.86-17.155 3.02-21.865 0-12.053-10.182-21.842-22.734-21.842z" transform="scale(.14844)"/>
  <g stroke-linejoin="round">
   <path d="m132.74 71.184c-7.66-4.552-20.11-36.237-18.19-22.737l4.56 31.816z" transform="scale(.14844)"/>
   <path d="m178 71.184c7.68-4.552 20.11-36.237 18.18-22.737l-4.55 31.816z" transform="scale(.14844)"/>
  </g>
  <path d="m134.82 107.55c2.1 9.9 3.26 17.37 1.55 27.27-13.21 10.97-47.054 15.92-47.002 27.26l-4.552 34.1c0 11.29 31.554 20.45 70.444 20.45 38.92 0 70.48-9.16 70.48-20.45l-4.56-34.1c-0.05-9.71-34.1-15.9-47.15-27.26-1.14-9.19-0.24-18.08 1.71-27.27z" transform="scale(.14844)"/>
  <path d="m155.26 39.368c-18.81 0-34.08 14.237-34.08 31.816 0.16 6.5 0.71 14.237 4.56 31.816 2.26 6.82 22.52 25 22.71 27.26 4.42 2.29 11.37 2.29 15.92 0 0-2.26 18.18-20.44 20.45-27.26 4.31-18.289 4.31-25 4.55-31.816 0-17.579-15.26-31.816-34.11-31.816z" transform="scale(.14844)"/>
 </g>
</svg>
