<svg viewBox="0 0 38 38" width="47.5" xmlns="http://www.w3.org/2000/svg" xmlns:xlink="http://www.w3.org/1999/xlink" height="47.5">
 <g fill="#52c9ff">
  <path d="m5.9375 12.504l0.0313 1.855h26.164l-0.028-1.855z"/>
  <path d="m4.8516 18.07v1.856h28.296v-1.856z"/>
  <path d="m6.0117 23.637v1.855h25.976v-1.855z"/>
  <path d="m18.07 4.8594v28.313h1.86v-28.313z"/>
 </g>
 <g stroke="#52c9ff" fill="none">
  <g stroke-width="12.5">
   <path d="m89.763 7.7368c-22.868-52.5-21.131-118.37 0-175.79" transform="matrix(.14844 0 0 .14844 0 30.875)"/>
   <path d="m166.24 7.7368c22.87-52.5 21.13-118.37 0-175.79" transform="matrix(.14844 0 0 .14844 0 30.875)"/>
  </g>
  <path stroke-width="1.214" stroke-linecap="round" d="m33.056 27.317c0 5.029-4.074 9.103-9.103 9.103s-9.105-4.074-9.105-9.103 4.076-9.105 9.105-9.105 9.103 4.076 9.103 9.105z" transform="matrix(1.5286 0 0 1.5286 -17.614 -22.756)"/>
 </g>
</svg>
