<svg xmlns="http://www.w3.org/2000/svg" xmlns:xlink="http://www.w3.org/1999/xlink" viewBox="0 0 48 48">
 <g transform="translate(0 -1004.4)">
  <path d="m43.399 31.25a12.153 12.153 0 1 1 -24.307 0 12.153 12.153 0 1 1 24.307 0z" transform="matrix(1.2118 0 0 1.2118 -13.863 990.49)" stroke="#308b97" stroke-width="1.733" fill="none"/>
 </g>
 <g transform="matrix(1.2118 0 0 1.2118 -13.488 -1231.4)" fill="#308b97">
  <path d="m43.399 31.25c0 6.7121-5.4413 12.153-12.153 12.153-6.7121 0-12.153-5.4413-12.153-12.153 0-6.7121 5.4413-12.153 12.153-12.153 6.7121 0 12.153 5.4413 12.153 12.153z" transform="matrix(.1699 0 0 .1699 19.219 1030.7)"/>
  <path d="m43.399 31.25c0 6.7121-5.4413 12.153-12.153 12.153-6.7121 0-12.153-5.4413-12.153-12.153 0-6.7121 5.4413-12.153 12.153-12.153 6.7121 0 12.153 5.4413 12.153 12.153z" transform="matrix(.1699 0 0 .1699 25.627 1030.7)"/>
  <path d="m43.399 31.25c0 6.7121-5.4413 12.153-12.153 12.153-6.7121 0-12.153-5.4413-12.153-12.153 0-6.7121 5.4413-12.153 12.153-12.153 6.7121 0 12.153 5.4413 12.153 12.153z" transform="matrix(.1699 0 0 .1699 32.036 1030.7)"/>
 </g>
</svg>
