<svg viewBox="0 0 38 38" width="47.5" xmlns="http://www.w3.org/2000/svg" xmlns:xlink="http://www.w3.org/1999/xlink" height="47.5">
 <path stroke-linejoin="round" d="m43.421-139.32h169.16c5.05 0 9.16 4.11 9.16 9.19v106.71c0 5.052-4.11 9.157-9.16 9.157h-169.16c-5.052 0-9.157-4.105-9.157-9.158v-106.71c0-5.08 4.105-9.19 9.158-9.19z" transform="matrix(.14844 0 0 .14844 0 30.875)" stroke="#e08dc9" stroke-linecap="round" stroke-width="12.503" fill="none"/>
 <g fill="#e08dc9">
  <path d="m8.7969 8.3125h3.7071c0.516 0 0.93 0.4141 0.93 0.9297 0 0.5117-0.414 0.9258-0.93 0.9258h-3.7071c-0.5157 0-0.9297-0.4141-0.9297-0.9258 0-0.5156 0.414-0.9297 0.9297-0.9297z"/>
  <path d="m29.207 12.023h0.926c0.512 0 0.926 0.418 0.926 0.93v0.93c0 0.512-0.414 0.926-0.926 0.926h-0.926c-0.516 0-0.93-0.414-0.93-0.926v-0.93c0-0.512 0.414-0.93 0.93-0.93z"/>
 </g>
 <path d="m31.001 26.5c0 3.59-2.909 6.498-6.501 6.498s-6.501-2.908-6.501-6.498 2.909-6.498 6.501-6.498 6.501 2.908 6.501 6.498z" transform="matrix(.92772 0 0 .92813 -3.7292 -4.6813)" stroke="#e08dc9" stroke-width="2" fill="none"/>
</svg>
