<svg viewBox="0 0 38 38" width="47.5" xmlns="http://www.w3.org/2000/svg" xmlns:xlink="http://www.w3.org/1999/xlink" height="47.5">
 <g stroke="#85b3b5">
  <g stroke-linecap="round" fill="none">
   <path stroke-width="8.073" d="m34.395 32.026h187.22c1.3 0 2.35 1.053 2.35 2.369v187.22c0 1.3-1.05 2.35-2.36 2.35h-187.22c-1.311 0-2.364-1.05-2.364-2.36v-187.22c0-1.311 1.053-2.364 2.369-2.364z" transform="scale(.14844)"/>
   <path stroke-width="7.598" d="m127.08 32.711h0.03c0.36 0 0.68 0.315 0.68 0.684v188.58c0 0.39-0.32 0.68-0.68 0.68h-0.03c-0.37 0-0.69-0.29-0.69-0.69v-188.58c0-0.364 0.32-0.679 0.69-0.679z" transform="scale(.14844)"/>
   <path stroke-width="7.583" d="m128.87-220.87h0.05c0.4 0 0.69 0.32 0.69 0.69v185.86c0 0.373-0.29 0.688-0.69 0.688h-0.05c-0.37 0-0.69-0.315-0.69-0.684v-185.86c0-0.37 0.32-0.69 0.69-0.69z" transform="rotate(90)"/>
  </g>
  <g stroke-linejoin="round" fill="#85b3b5">
   <g stroke-width="3">
    <path d="m205.08 192.37l-16.5-15.92 15.87-16.66-11.45-10.32-16.34 15.87-16.69-15.87-11.89 10.69 16.66 16.23-16.66 15.95 11.89 11.13 16.66-16.68 16.71 16.68z" transform="scale(.14844)"/>
    <path fill-rule="evenodd" d="m68.868 68.711v-17.974h20.79v17.974h18.002v21.026h-18.002v18.003h-20.816l-0.079-18.003h-18.105v-21.026z" transform="scale(.14844)"/>
   </g>
   <g stroke-width="3.032">
    <path d="m187.97 79.105l16.06-15.947-11.56-10.421-16.52 16.052-12.03 11.158-16.87 16.132 12.06 11.211 16.81-16.843z" transform="scale(.14844)"/>
    <g stroke-linecap="round" stroke-miterlimit="10">
     <path d="m168.29 61.816c0 5.026-4.08 9.105-9.11 9.105-5.02 0-9.07-4.079-9.07-9.105 0-5 4.05-9.079 9.07-9.079 5.03 0 9.11 4.079 9.11 9.079z" transform="scale(.14844)"/>
     <path d="m198.61 98.211c0 5.029-4.08 9.079-9.11 9.079s-9.08-4.05-9.08-9.079c0-5.027 4.05-9.106 9.08-9.106s9.11 4.079 9.11 9.106z" transform="scale(.14844)"/>
    </g>
   </g>
   <g stroke-width="2.727">
    <path fill-rule="evenodd" d="m105 170.11v13.63h-51.816v-13.63z" transform="scale(.14844)"/>
    <g stroke-linecap="round" stroke-miterlimit="10">
     <path d="m85.921 156.47c0 4.53-3.658 8.19-8.184 8.19s-8.184-3.66-8.184-8.19c0-4.52 3.658-8.18 8.184-8.18s8.184 3.66 8.184 8.18z" transform="scale(.14844)"/>
     <path d="m85.921 197.39c0 4.5-3.658 8.16-8.184 8.16s-8.184-3.66-8.184-8.16c0-4.52 3.658-8.21 8.184-8.21s8.184 3.69 8.184 8.21z" transform="scale(.14844)"/>
    </g>
   </g>
  </g>
 </g>
</svg>
