<svg viewBox="0 0 38 38" width="47.5" xmlns="http://www.w3.org/2000/svg" xmlns:xlink="http://www.w3.org/1999/xlink" height="47.5">
 <path d="m15.117 9.7969c-0.418 0-0.824 0.0625-1.215 0.1445-1.297 0.1916-2.863 0.6486-4.4918 1.7266-4.0391 2.676-5.7579 15.078-5.129 16.238 0.629 1.16 6.2808-1.156 9.2418-5.613 0.223-0.332 0.442-0.672 0.637-1.039 0.309 0.051 0.633 0.058 0.957 0.058h8.172c0.207 0 0.375-0.007 0.578-0.027 0.188 0.348 0.399 0.688 0.61 1.008 2.961 4.457 8.613 6.773 9.242 5.613s-1.09-13.562-5.129-16.238c-1.16-0.766-2.281-1.223-3.305-1.496-0.09-0.024-0.168-0.035-0.258-0.059-0.554-0.1716-1.129-0.3161-1.738-0.3161zm10.227 2.7651c0.113-0.019 0.238-0.015 0.347 0 0.153 0.016 0.297 0.063 0.438 0.141 0.551 0.32 0.723 1.035 0.402 1.586-0.32 0.551-1.008 0.75-1.562 0.43-0.555-0.317-0.754-1.031-0.434-1.582 0.18-0.309 0.477-0.52 0.809-0.575zm-13.528 0.372h1.071v2.332h2.316v1.039h-2.316v2.332h-1.071v-2.332h-2.3199v-1.039h2.3199zm16.571 1.183c0.148 0.016 0.297 0.063 0.433 0.141 0.555 0.32 0.754 1.035 0.438 1.586-0.32 0.551-1.043 0.75-1.594 0.429-0.555-0.316-0.726-1.031-0.406-1.582 0.238-0.414 0.68-0.632 1.129-0.574zm-4.578 1.094c0.113-0.02 0.234-0.016 0.347 0 0.149 0.016 0.297 0.062 0.434 0.141 0.555 0.32 0.726 1.035 0.406 1.586-0.32 0.55-1.008 0.75-1.562 0.429-0.555-0.316-0.754-1.031-0.434-1.582 0.18-0.308 0.477-0.519 0.809-0.574zm2.722 1.555c0.11-0.02 0.207-0.016 0.321 0 0.148 0.015 0.296 0.062 0.433 0.14 0.555 0.321 0.754 1.035 0.434 1.586-0.317 0.551-1.039 0.75-1.59 0.43-0.555-0.317-0.727-1.031-0.406-1.582 0.179-0.309 0.484-0.52 0.808-0.574z" fill="#d64c63"/>
</svg>
