<svg xmlns="http://www.w3.org/2000/svg" xmlns:xlink="http://www.w3.org/1999/xlink" viewBox="0 0 48 48">
 <g transform="translate(0 -1004.4)">
  <path d="m20.497 1012.4v19.204c-1.3486-0.528-3.111-0.6182-4.9297-0.1255-3.399 0.9195-5.6779 3.5007-5.0791 5.757 0.59884 2.2564 3.8405 3.3441 7.2395 2.4246 2.8877-0.7812 4.9565-2.7619 5.1481-4.7228h0.02298v-14.123l12.307 1.5284v13.674c-1.3486-0.5281-3.111-0.6184-4.9297-0.1255-3.399 0.9195-5.6779 3.5009-5.0791 5.7571 0.59884 2.2563 3.8405 3.3441 7.2395 2.4246 2.8878-0.7812 4.9565-2.7618 5.1481-4.7228h0.02297v-24.674l-17.11-2.2753zm2.4017 4.6214 12.307 1.7351v1.5514l-12.307-1.5282v-1.7583z" fill="#4c7686"/>
 </g>
</svg>
