<svg viewBox="0 0 38 38" width="47.5" xmlns="http://www.w3.org/2000/svg" xmlns:xlink="http://www.w3.org/1999/xlink" height="47.5">
 <g stroke="#d78b85" fill="#d78b85">
  <path stroke-width=".31" d="m110.79 199.19c0.78-1.07 0.53-2.61-0.56-3.39l-38.888-27.92c-1.097-0.78-2.633-0.54-3.413 0.56s-0.537 2.61 0.56 3.4l38.911 27.91c1.1 0.81 2.61 0.54 3.39-0.56z" transform="matrix(.16023 0 0 .15993 -5.8686 -.48086)"/>
  <path stroke-width=".301" d="m104.94 182.34c0.97-0.93 1.07-2.42 0.19-3.35l-31.033-32.97c-0.878-0.93-2.365-0.93-3.365 0-0.975 0.9-1.072 2.42-0.195 3.34l31.033 32.98c0.88 0.93 2.39 0.93 3.37 0z" transform="matrix(.16023 0 0 .15993 -5.8686 -.48086)"/>
  <path stroke-width=".31" d="m195.8 99.634c0.95-0.953 0.95-2.491 0-3.444l-33.87-33.854c-0.95-0.952-2.48-0.952-3.43 0-0.95 0.953-0.95 2.492 0 3.444l33.86 33.854c0.95 0.956 2.49 0.956 3.44 0z" transform="matrix(.16023 0 0 .15993 -5.8686 -.48086)"/>
  <path stroke-width=".304" d="m193.85 116.93c1-0.93 1.07-2.45 0.17-3.4l-31.57-33.534c-0.88-0.953-2.39-0.953-3.39-0.049-0.98 0.928-1.05 2.443-0.17 3.395l31.59 33.538c0.88 0.95 2.39 0.98 3.37 0.05z" transform="matrix(.16023 0 0 .15993 -5.8686 -.48086)"/>
  <path stroke-width=".249" d="m176.9 119.39c1.12-0.73 1.66-1.9 1.2-2.63l-16.7-25.992c-0.47-0.733-1.78-0.733-2.9 0-1.15 0.732-1.69 1.905-1.22 2.638l16.72 25.984c0.46 0.74 1.76 0.74 2.9 0z" transform="matrix(.16023 0 0 .15993 -5.8686 -.48086)"/>
  <path stroke-width=".295" d="m166.18 140.86c0.95-0.95 1.02-2.41 0.17-3.27l-30.6-30.6c-0.85-0.86-2.34-0.79-3.29 0.17-0.95 0.95-1.02 2.42-0.15 3.29l30.57 30.59c0.88 0.85 2.34 0.78 3.3-0.18z" transform="matrix(.16023 0 0 .15993 -5.8686 -.48086)"/>
  <path stroke-width=".232" d="m100.18 159.75c1.15-0.71 1.78-1.81 1.39-2.45l-13.894-22.88c-0.39-0.64-1.634-0.59-2.78 0.09-1.17 0.71-1.779 1.81-1.389 2.45l13.896 22.88c0.39 0.64 1.633 0.59 2.777-0.09z" transform="matrix(.16023 0 0 .15993 -5.8686 -.48086)"/>
  <g stroke-width=".31">
   <path d="m231.71 47.119c-5.05 2.589-45.47-10.649-45.47-10.649s10.34 34.806 12.53 44.503c2.19 9.721 2.19 24.157 2.19 24.157-0.29 6.57-2.8 8.45-7.82 14.09-5.02 5.65-11.61 4.72-14.73 4.08-3.14-0.61-37.64-8.77-47.97-11.6-10.36-2.81-21.65-0.29-25.72 2.52-4.07 2.83-6.269 10.65-6.269 10.65-5.339 22.91 17.239 68.97 17.239 68.97-1.88 5.03-8.15 10.04-8.15 10.04s-23.497-61.45-13.794-80.58c9.724-19.12 25.724-18.81 32.614-18.81 6.9 0 50.47 12.85 57.69 12.56 7.21-0.32 11.92 3.13 8.14-17.563-3.76-20.688-12.53-48.289-13.48-54.884-0.93-6.57 2.82-10.332 2.82-10.332s4.71-5.959 10.66-5.031c5.97 0.952 31.67 10.039 40.76 13.8 1.75 0.733 0.44 3.224-1.24 4.079z" transform="matrix(.16023 0 0 .15993 -5.8686 -.48086)"/>
   <path d="m247.7 62.483c-20.38 12.237-35.45 6.595-43.59 5.96s-33.23-11.92-39.2-12.848c-5.95-0.953-10.66 5.007-10.66 5.007s-3.75 3.762-2.8 10.357c0.93 6.57 9.7 34.171 13.46 54.861 3.78 20.69-0.93 17.24-8.14 17.56-7.22 0.32-50.79-12.55-57.685-12.55-6.899 0-22.892-0.3-32.619 18.83-9.703 19.12 2.511 54.54 2.511 54.54s16.943 14.44 15.359 9.09c0 0-18.48-39.18-13.165-62.07 0 0 2.194-7.84 6.265-10.67 4.096-2.81 15.384-5.33 25.724-2.49 10.33 2.8 44.83 10.96 47.97 11.6 3.12 0.61 9.71 1.56 14.73-4.08s7.53-7.52 7.85-14.12c0 0 0-14.41-2.2-24.13-2.19-9.723-12.55-44.53-12.55-44.53s38.03 12.384 42.03 12.531c7.82 0.317 22.55 4.396 34.47-2.492 11.92-6.912 12.24-10.356 12.24-10.356z" transform="matrix(.16023 0 0 .15993 -5.8686 -.48086)"/>
  </g>
  <path stroke-width=".306" d="m144.06 146.36c0.95-0.95 0.98-2.49 0.05-3.42l-33.01-33c-0.92-0.93-2.46-0.9-3.41 0.05s-0.95 2.47-0.02 3.4l33.01 33.02c0.92 0.93 2.43 0.9 3.38-0.05z" transform="matrix(.16023 0 0 .15993 -5.8686 -.48086)"/>
  <path stroke-width=".324" d="m158.5 147.61c0.95-0.96 0.87-2.57-0.17-3.62l-36.99-36.98c-1.05-1.05-2.65-1.12-3.61-0.17-0.95 0.95-0.87 2.56 0.18 3.61l36.98 37.01c1.02 1.03 2.66 1.1 3.61 0.15z" transform="matrix(.16023 0 0 .15993 -5.8686 -.48086)"/>
  <path stroke-width=".249" d="m124.39 141.26c0.88-1.06 1.02-2.33 0.37-2.89l-23.65-19.86c-0.68-0.56-1.928-0.17-2.781 0.86-0.877 1.05-1.024 2.32-0.366 2.88l23.647 19.86c0.68 0.56 1.93 0.17 2.78-0.85z" transform="matrix(.16023 0 0 .15993 -5.8686 -.48086)"/>
  <path stroke-width=".31" d="m232.8 72.351c0.95-0.953 0.95-2.492 0-3.444l-33.86-33.854c-0.95-0.953-2.51-0.953-3.46 0s-0.95 2.491 0 3.444l33.86 33.854c0.95 0.952 2.51 0.952 3.46 0z" transform="matrix(.16023 0 0 .15993 -5.8686 -.48086)"/>
  <path stroke-width=".296" d="m213.93 74.256c1.05-0.831 1.3-2.272 0.54-3.249l-26.87-34.586c-0.75-0.953-2.21-1.075-3.29-0.244-1.07 0.83-1.31 2.271-0.56 3.248l26.87 34.562c0.75 0.977 2.24 1.099 3.31 0.269z" transform="matrix(.16023 0 0 .15993 -5.8686 -.48086)"/>
 </g>
</svg>
