<svg viewBox="0 0 38 38" width="47.5" xmlns="http://www.w3.org/2000/svg" xmlns:xlink="http://www.w3.org/1999/xlink" height="47.5">
 <path stroke-linejoin="round" d="m234.92 36.602c-15.17 0.575-32.21 5.654-41.31 16.578-13.26 28.174 18.91 15.189 22.69 34.69 3.78 19.5-18.91 20.6-18.91 20.6h-97.742s0.096 96.93 0.096 96.93 1.096 22.71 20.586 18.93c15.89-3.07 10.24-24.92 22.69-25.87 2.87-0.2 6.74 0.67 12.01 3.16 10.91 9.1 15.99 26.16 16.56 41.35 0.19 5.6-0.29 10.87-1.24 15.52-0.05 0.19-0.05 0.38-0.1 0.62-1.67 13.09-6.75 26.41-15.99 34.07-28.19 13.23-15.17-18.88-34.65-22.66-14.22-2.78-18.62 8.48-19.962 14.8v102.92l98.082-0.81s22.69-1.06 18.9-20.6c-3.78-19.51-35.9-6.47-22.68-34.69 9.09-10.88 26.13-16.01 41.35-16.53 5.6-0.24 10.87 0.28 15.46 1.24 0.24 0 0.43 0.05 0.63 0.1 13.11 1.67 26.47 6.75 34.13 15.95 13.25 28.18-18.91 15.19-22.69 34.69-3.79 19.5 18.9 20.6 18.9 20.6h97.22v-102.05c1.39-6.37 5.79-17.49 19.91-14.71 19.53 3.74 6.51 35.89 34.71 22.66 9.19-7.66 14.26-20.98 15.99-34.11 0-0.19 0.04-0.39 0.04-0.63 1.01-4.6 1.49-9.87 1.3-15.47-0.58-15.19-5.7-32.25-16.57-41.35-28.19-13.23-15.17 18.92-34.7 22.71-19.53 3.74-20.58-18.93-20.58-18.93l-0.1-97.84h-102.15c-6.41-1.48-16.99-5.99-14.31-19.833 3.78-19.549 35.9-6.517 22.69-34.69-7.71-9.2-21.01-14.278-34.13-15.955-0.19-0.048-0.43-0.096-0.62-0.096-4.6-1.006-9.86-1.486-15.51-1.294z" fill-rule="evenodd" transform="matrix(.08161 0 0 .08153 -3.464 1.6839)" stroke="#61c66c" stroke-width="12.5" fill="#61c66c"/>
</svg>
