<svg xmlns="http://www.w3.org/2000/svg" xmlns:xlink="http://www.w3.org/1999/xlink" viewBox="0 0 48 48">
 <defs>
  <linearGradient id="linearGradient3179" gradientUnits="userSpaceOnUse" gradientTransform="matrix(.68089 0 0 .68085 19.213 9.3619)" x2="11.468" x1="9.531">
   <stop stop-color="#fff" offset="0"/>
   <stop stop-color="#fff" stop-opacity="0" offset="1"/>
  </linearGradient>
 </defs>
 <g fill="#6fad64">
  <g fill-rule="evenodd">
   <g stroke-width=".681" stroke="#6fad64">
    <path d="m31.809 12.426h3.4044c0-0.89164-2.1941-1.8066-3.4044-2.0425v2.0425z"/>
    <g stroke-linecap="round">
     <rect rx="0" height="1.362" width="2.724" stroke-miterlimit="10" y="16.511" x="31.128"/>
     <path stroke-linejoin="round" d="m12.084 37.638h23.832v-3.404h-2.7236c0.0042-0.11325 0-0.26842 0-0.38298 0-5.0737-4.118-9.1914-9.192-9.1914s-9.192 4.1178-9.192 9.1914c0.000001 0.11456 0.01705 0.26972 0.02128 0.38298h-2.745l-0.000001 3.4042zm6.128-3.7872c0-3.1945 2.5928-5.7872 5.7876-5.7872 3.1947 0 5.7876 2.5927 5.7876 5.7872 0 0.11377 0.0065 0.27077 0 0.38298h-11.575c-0.0065-0.11221-0.000001-0.26921-0.000001-0.38298z"/>
    </g>
   </g>
   <path d="m15.149 32.426 0.95747 0.2766c0.05191-0.22337 0.12165-0.4436 0.1915-0.65957l-0.97878-0.27659-0.17022 0.65957zm0.82987-2.3404 0.91498 0.55319c0.10653-0.19404 0.21904-0.39041 0.34044-0.57447l-0.93622-0.57446-0.31917 0.59574zm1.3618-2.0425 0.82987 0.8723c0.15734-0.16455 0.31895-0.31719 0.48939-0.46808l-0.85111-0.89361-0.46811 0.48936zm1.8512-1.5958 0.61706 1.1489c0.18484-0.1131 0.38043-0.22089 0.5745-0.31915l-0.63833-1.1702-0.55322 0.34042zm2.149-1.0425 0.34044 1.3405c0.20479-0.06177 0.40589-0.10342 0.61706-0.14894l-0.34044-1.3617-0.61706 0.17021zm2.3406 1.0213c0.10643-0.0042 0.21174-0.02128 0.31917-0.02128 0.10742 0 0.21274 0.01708 0.31917 0.02128v-1.4256h-0.63833v1.4256zm2.0214 0.17021c0.21116 0.04551 0.41226 0.08716 0.61706 0.14894l0.34044-1.3405-0.61706-0.17021-0.34044 1.3617zm1.915 0.68085c0.19407 0.09826 0.38967 0.20605 0.5745 0.31915l0.61706-1.1489-0.55322-0.34042-0.63833 1.1702zm1.7235 1.1702c0.17044 0.15089 0.33205 0.30354 0.48939 0.46808l0.82987-0.8723-0.46811-0.48936-0.85111 0.89361zm1.4256 1.617c0.1214 0.18405 0.23391 0.38042 0.34044 0.57447l0.91498-0.55319-0.31917-0.59574-0.93622 0.57446zm0.93622 1.9787c0.06986 0.21597 0.13959 0.4362 0.1915 0.65957l0.95747-0.2766-0.17022-0.65957-0.97878 0.27659z"/>
   <path d="m14.468 37.298h0.68089v-1.3617h-0.68089v1.3617zm1.3618 0h0.68089v-2.0425h-0.68089v2.0425zm1.3618 0h0.68089v-1.3617h-0.68089v1.3617zm1.3618 0h0.68089v-2.0425h-0.68089v2.0425zm1.3618 0h0.68089v-1.3617h-0.68089v1.3617zm1.3618 0h0.68089v-2.0425h-0.68089v2.0425zm1.3618 0h0.68089v-1.3617h-0.68089v1.3617zm1.3618 0h0.68089v-2.043h-0.683v2.0425zm1.3618 0h0.68089v-1.3617h-0.68089v1.3617zm1.3618 0h0.68089v-2.0425h-0.68089v2.0425zm1.3618 0h0.68089v-1.3617h-0.68089v1.3617zm1.3618 0h0.68089v-2.0425h-0.68089v2.0425zm1.3618 0h0.68089v-1.3617h-0.68089v1.3617zm1.3618 0h0.68089v-2.0425h-0.68089v2.0425zm1.3618 0h0.68089v-1.3617h-0.68089v1.3617z"/>
   <g stroke-width=".681" stroke="#6fad64">
    <g stroke-linecap="round">
     <path opacity=".1" d="m27.724 25.447v3.9787c1.2599 1.0618 2.0639 2.6501 2.0639 4.4255-0.000001 0.11377 0.0065 0.27076 0 0.38298h-2.0639v2.7021h1.3618v0.70209h1.4043v-0.70209h1.3192v-7.9148c-0.96993-1.5623-2.3905-2.8216-4.0853-3.5744z"/>
     <rect stroke-linejoin="round" height="4.085" width="1.401" y="35.574" x="28.405"/>
    </g>
    <path d="m31.128 6.3406h-4.7662c-1.3855 0-7.5088 1.3806-7.5088 1.3806-0.591 0.3414-0.662 0.962-0.662 2.0236h7.4898c0-0.82096 0.52521-0.68085 1.3618-0.68085v25.191h4.0853v-24.489c1.537 0 4.0853-1.0199 4.0853-2.0638h-4.085v-1.3618z"/>
   </g>
   <path d="m21.255 13.447v0.70209c0 0.3654-0.29419 0.65957-0.65961 0.65957h-1.627s-0.43695-0.31322-0.43695-0.65957v-0.70209h2.7236z"/>
   <rect rx=".329" height="2.723" width="1.362" stroke="#6fad64" stroke-linecap="round" stroke-miterlimit="10" y="15.83" x="33.171" stroke-width=".681"/>
   <path opacity=".157" d="m26.702 16.17v0.68085h0.68089v-0.681h-0.681zm0 1.3617v0.68085h0.68089v-0.681h-0.681zm0 1.3617v0.68085h0.68089v-0.681h-0.681zm0 1.3617v0.68085h0.68089v-0.682h-0.681z"/>
   <path opacity=".1" d="m30.788 16.17v0.68085h0.68089v-0.68085h-0.68089zm0 1.3617v0.68085h0.68089v-0.68085h-0.68089zm0 1.3617v0.68085h0.68089v-0.68085h-0.68089zm0 1.3617v0.68085h0.68089v-0.68085h-0.68089z"/>
  </g>
  <path opacity=".537" d="m25.681 21.277h1.3618" stroke="url(#linearGradient3179)" stroke-linecap="round" stroke-width=".681"/>
  <g fill-rule="evenodd">
   <rect opacity=".534" height=".681" width=".681" y="14.128" x="30.788"/>
   <path d="m18.131 13.149c0 1.0616 0.06805 1.6797 0.65961 2.0213l7.1704 1.3829c0.25408 0.12653 0.34044 0.34042 0.34044 0.68085v3.4042h-0.68089c-0.37721 0-0.68089 0.30366-0.68089 0.68085s0.30368 0.68085 0.68089 0.68085h2.0427v-8.1702h-1.3618c-0.69212 0.000885-0.68089-0.06514-0.68089-0.68085h-7.4898zm12.256 0.68085v8.1702h1.3618v-8.1702h-1.3618z" stroke="#6fad64" stroke-linecap="round" stroke-miterlimit="10" stroke-width=".681"/>
  </g>
 </g>
</svg>
