<svg viewBox="0 0 38 38" width="47.5" xmlns="http://www.w3.org/2000/svg" xmlns:xlink="http://www.w3.org/1999/xlink" height="47.5">
 <g fill-rule="evenodd">
  <path d="m76.158 33.447s14.579-1.473 30.292 0.948c0 0 0.79 2.921-1.77 3.789l-2.39 24.448 24.55 113.53s5.53 14.31-11.6 17.42c-17.161 3.1-42.872 7.87-62.924-7.66 0 0-4.737-6 3.605-33.53l22.763-89.364-0.895-24.737s-3.605-3.526-1.631-4.842z" transform="scale(.14844)" stroke="#5b93d7" stroke-width="7.56" fill="#fff"/>
  <path fill="#d2d6cf" d="m18.18 27.32c0 0.645-2.059 1.164-4.598 1.164-2.535 0-4.5937-0.519-4.5937-1.164 0-0.644 2.0587-1.168 4.5937-1.168 2.539 0 4.598 0.524 4.598 1.168z" fill-opacity=".467"/>
  <path d="m17.039 22.434c-3.484 1.875-6.082 1.336-7.789 0.371l-0.0039 0.019c-0.0039 0.016-0.0078 0.028-0.0078 0.039-0.6016 1.985-0.7149 3.149-0.6992 3.754 0.0078 0.223 0.0273 0.352 0.0468 0.438 2.5661 1.828 5.8441 1.254 8.3321 0.804 0.973-0.175 0.984-0.429 1.047-0.746 0.062-0.316-0.051-0.668-0.051-0.668-0.016-0.039-0.027-0.082-0.035-0.125z" fill="#adc3e2"/>
  <path d="m143.37 70.895l-0.74-20.421s0.08-2.632-1.34-3.421l1.03-2.342s8.6-1.895 29.34 0.578c0 0 3.26-0.21 3.68 2.632 0 0-1.84 1.895-1.68 5.132l-2.4 19.368s25.11 92.919 31.82 131.24c0 0-3.03 15.95-20.42 18.73-17.37 2.79-52.77 10.24-80.53-13.15 0 0-9.393-6.29 3.19-33.21l34.94-95.846s3.16-4.947 3.61-6.605-0.45-2.5-0.5-2.684z" transform="scale(.14844)" stroke="#5b93d7" stroke-width="7.56" fill="#fff"/>
  <path fill="#d2d6cf" d="m29.039 30.836c0 1.035-2.793 1.871-6.242 1.871-3.445 0-6.242-0.836-6.242-1.871s2.797-1.875 6.242-1.875c3.449 0 6.242 0.84 6.242 1.875z" fill-opacity=".467"/>
  <g fill="#adc3e2">
   <g fill-opacity=".6">
    <path d="m12.68 5.9297l0.121 3.3906c0.004 0.0899-0.004 0.1797-0.028 0.2695l-1.339 5.2622c0.464 0.035 0.941 0.214 1.418 0.582 0.906 0.707 1.757 0.586 2.523 0.023l-1.289-5.9609c-0.02-0.0977-0.027-0.1953-0.02-0.293l0.317-3.2187c-0.625-0.0469-1.211-0.0625-1.692-0.0547h-0.011z"/>
    <path d="m22.742 7.6797c-0.125 0-0.207 0.0039-0.312 0.0039l0.09 2.5744c0.097 0.246 0.14 0.605 0.046 0.941-0.128 0.473-0.265 0.61-0.402 0.848-0.102 0.172-0.152 0.25-0.195 0.32l-2.692 7.379c1.614-0.601 3.278-0.434 4.422 1.711 0 0 2.141 2.457 1.606-4.301-0.051-0.648-0.024-1.222 0.066-1.734-0.672-2.574-1.16-4.395-1.16-4.395-0.039-0.132-0.047-0.269-0.031-0.406l0.351-2.8358c-0.711-0.0625-1.336-0.1016-1.789-0.1055zm-0.383 2.2695c0.004 0.0078 0.012 0.0196 0.024 0.0391 0-0.0039-0.004-0.0117-0.004-0.0156-0.02-0.0235-0.031-0.0391-0.02-0.0235zm0.032 0.0469c0.011 0.0239 0.023 0.0549 0.039 0.0779-0.016-0.035-0.032-0.058-0.039-0.0779z"/>
   </g>
   <path d="m17.352 24.668l-0.653 1.785c-0.008 0.027-0.019 0.055-0.031 0.082-0.883 1.887-0.934 2.938-0.859 3.41 0.035 0.231 0.097 0.328 0.117 0.356 3.679 3.105 8.336 2.121 10.996 1.695 1.613-0.258 1.996-1.437 2.078-1.789-0.23-1.289-0.602-2.992-1.031-4.852-4.781 1.184-8.27 0.434-10.617-0.687z"/>
  </g>
 </g>
</svg>
