<svg viewBox="0 0 38 38" width="47.5" xmlns="http://www.w3.org/2000/svg" xmlns:xlink="http://www.w3.org/1999/xlink" height="47.5">
 <path d="m337.37 491.21c-60.89-4.16-114.36-52.38-129.46-110.77-13.92-60.48 13.73-128.65 67.7-160.25 34.68-20.78 78.23-23.42 116.64-12.57 47.42 14.64 83.56 57.05 96.22 104.31 11.41 43.6 3.19 93.08-27.08 127.43-27.42 34.28-71.23 54.03-115.08 52.27-2.97-0.03-5.97-0.19-8.94-0.42zm36.28-6.84c10.95-0.95 9.02-4.31-0.91-5.19-17.76-3.44-36.93-3.52-54.08 2.52 15.1 7.3 35.14 5.39 52.03 3.21zm-53.78-9.66c7.8-7.99-0.34-27.05-7.15-34.62-15.25-7.83-27.04-20.56-40.99-30.19-10.5-3.86-20.73 3.44-30.85 5.93-0.04 10.05-0.72 21.43 8.1 28.42 14.53 14.37 32.06 27.02 51.84 32.75 6.35 0.27 13.01-0.11 19.05-2.29zm83.48 0.42c25.3-10.93 48.99-28.51 63.25-52.43 5.14-6.87 8.9-18.95-4.49-14.94-16.84 10.63-32.06 23.77-49.29 33.82-10.45 8.33-17.98 19.75-25.44 30.68 2.59 6.04 11.03 4.59 15.97 2.87zm17.16-43.94c12.7-10.47 31.07-17.2 37.76-33.05 3.01-12.5 3.24-25.41 4.49-38.14-12.66-11.27-28.18-18.91-43.39-26.13-15.03 1.18-27.16 14.59-39.06 23.27-6.32 3.47-4.68 11.38-6.43 17.42-2.28 14.14-4.94 28.2-6.5 42.45 11.82 8.75 25.02 16.81 39.4 20.21 5.21 0.04 9.51-3.47 13.73-6.03zm-90.63 2.17c11.52-4.39 26.73-7.71 32.13-19.94 4.04-17.12 6.24-34.66 8.37-52.12-11.45-10.93-23.66-22.43-38.64-28.08-12.93-0.23-23.88 8.94-35.37 13.94-15.48 4.24-20.88 18.34-21.53 32.94-4.56 14.44 0.65 29.27 13.7 37.22 11.41 8.4 26.05 21.85 41.34 16.04zm-96.3-20.21c-9.32-17.31-15.75-36.26-18.33-55.78-9.24 1.87-0.84 24.6 1.71 33.85 4.34 12.53 10.99 24.07 17.91 35.31 1.26-4.63 2.02-9.21-1.29-13.38zm-3.99-77.07c4.07-5.84 10.53-10.43 13-17.12 4.3-20.17 11.34-39.66 21.42-57.73-0.42-11.65-13.43-18.76-19.9-5.88-18.4 23.76-32.85 52.76-33.5 83.37-2.44 10.51 6.69 18.11 11.94 5.69 2.32-2.75 4.68-5.54 7.04-8.33zm237.28 14.48c7.79-10.27 18.6-22.46 15.82-36.41-4.91-26.4-18.41-51.47-39.17-68.66-6.2-2.64-17.46-12.27-21.76-3.17-6.35 12.26-22.17 23.84-16.47 39.08 4.87 15.06 8.45 30.76 15.56 44.94 13.12 10.24 28.26 18.23 43.51 24.95zm-174.23-6.84c12.1-6.15 23.85-12.91 35.64-19.56 3.95-13.95 8.97-27.55 13.61-41.23 0.65-14.82-12.55-25.44-21.33-35.84-8.67-13.91-23.31-3.25-34 1.84-23.51 12.61-28.91 40.31-36.93 63.46 1.14 8.68 9.05 15.9 14.83 22.36 7.95 8.06 16.93 18.76 28.18 8.97zm86.72-74.85c6.27-0.88 13.27-0.23 19.05-2.02 8.71-9.36 16.35-20.33 19.97-32.67-4.38-12.42-18.83-18.08-30.47-22.32-14.79-4.39-30.65-6.57-46.02-4.81-11.06 5.65-30.95 22.12-19.73 34.92 8.21 9.82 16.96 19.15 25.9 28.35 10.45 0.12 20.88-0.72 31.3-1.45z" transform="matrix(.10271 0 0 .10223 -16.831 -16.429)" stroke="#9c9d38" stroke-width="1.449" fill="#9c9d38"/>
</svg>
