<svg xmlns="http://www.w3.org/2000/svg" xmlns:xlink="http://www.w3.org/1999/xlink" viewBox="0 0 48 48">
 <g transform="translate(0 -1004.4)">
  <path d="m23.991 1017.4c-0.37558 0-0.73532 0.035-1.0974 0.049-4.4212 0.1727-7.841 1.3335-10.21 2.5527-2.5633 1.3185-4.0555 2.7982-4.0555 2.7982-0.84092 0.8758-0.83622 2.4575 0.0099 3.3282 0.84611 0.8704 2.3833 0.8752 3.2345 0.017 0 0 0.63479-0.6434 2.0516-1.4727-0.41616 1.1707-0.62025 2.4193-0.62025 3.731 0 6.0456 4.812 10.996 10.687 10.996 5.8754 0 10.687-4.9511 10.687-10.996 0-1.3119-0.20409-2.5604-0.62025-3.731 1.4168 0.8293 2.0516 1.4727 2.0516 1.4727 0.84747 0.8825 2.4015 0.8874 3.2542 0.017 0.85266-0.8775 0.848-2.4766-0.0097-3.3485 0 0-1.4922-1.4797-4.0555-2.7982-2.3693-1.2191-5.7891-2.38-10.21-2.5528-0.35812-0.038-0.73016-0.049-1.0974-0.049zm0 3.4559c3.4 0 8.1081 1.6025 8.1081 7.5408 0 5.1988-3.2074 8.2796-8.1081 8.2796-4.8293 0-8.0366-3.1549-8.0366-8.2796 0-5.2729 4.6366-7.5408 8.0366-7.5408z" fill="#4cb29d"/>
  <path stroke-linejoin="round" d="m25 24a1 1 0 1 1 -2 0 1 1 0 1 1 2 0z" transform="matrix(1.5268 0 0 1.571 -12.652 990.66)" stroke="#4cb29d" stroke-linecap="round" stroke-width="3.186" fill="none"/>
 </g>
</svg>
