<svg viewBox="0 0 38 38" width="47.5" xmlns="http://www.w3.org/2000/svg" xmlns:xlink="http://www.w3.org/1999/xlink" height="47.5">
 <path fill="#6fbed5" d="m23.465 31.375c-0.953-0.105 0.168-0.906 0.484-1.066 0.61-0.305 1.106-0.653 1.489-1.227 0.605-0.922 0.906-2.144 1.164-3.203 0.171-0.719 0.308-1.137-0.149-1.746-0.453-0.606 0.32-1.106-0.16-1.746-0.805-1.075-1.145-2.496-1.941-3.559-0.227-0.301-0.145-0.582-0.469-0.613-0.156-0.016-0.559 0.297-0.695 0.387-0.395 0.265-0.876 0.39-1.262 0.648-0.196 0.129-0.567 0.035-0.727 0.16-0.465 0.363-0.355 1.492-0.308 2.07 0.07 0.825 0.73 1.082 0.73 1.875 0 0.957-0.203 1.61 0.098 2.59 0.172 0.563 0.605 1.203 0.676 1.778 0.058 0.453-0.028 0.441-0.161 0.871-0.156 0.511-0.195 0.968-0.679 1.199-0.278 0.129-1.395 0.184-1.551-0.129-0.309-0.613 0.867-0.824 1.066-1.199 0.43-0.805-0.582-2.891-0.968-3.59-0.215-0.379-0.625-0.684-0.778-1.066-0.207-0.516 0.211-0.868 0.145-1.262-0.129-0.77-0.453-1.586-0.696-2.328-0.566-1.723-1.351 0.894-1.679 1.554-0.133 0.258-0.227 0.543-0.356 0.809-0.156 0.313 0.188 0.582 0.094 0.969-0.086 0.363-0.508 0.566-0.742 0.84-0.356 0.418-0.602 0.945-0.793 1.457-0.399 1.066-0.539 2.925-1.277 3.781-0.106 0.125-0.403 0.055-0.516 0.164-0.258 0.25 0.066 0.527-0.438 0.695-0.386 0.129-1.363 0.27-1.73 0.047-0.703-0.426 0.176-0.949 0.613-1.39 0.617-0.614 1.332-1.176 1.813-1.907 0.633-0.961 0.765-2.043 0.89-3.152 0.059-0.535-0.519-0.801-0.019-1.441 0.16-0.204 0.648-0.176 0.648-0.387 0-0.668 0.02-1.34 0-2.004-0.023-0.809-0.019-2.141-0.793-2.652-1.027-0.688-2.332-0.868-3.312-1.602-0.977-0.734-1.8713-1.398-2.4612-2.57-0.3046-0.614-0.4648-1.215-0.7109-1.844-0.1797-0.465-0.1289-0.309-0.418-0.582-0.1718-0.16-0.4257-0.274-0.6171-0.453-0.4961-0.477-0.586-0.9455-1.4219-0.7463-0.3321 0.082-0.8789 0.7033-1.0664 0.3243-0.1211-0.2423-0.0469-0.4649 0.0156-0.711 0.0937-0.3672-0.3516-0.4883-0.3399-0.8399 0.0196-0.6054 0.9961-1.2422 1.504-1.3437 0.6406-0.1289 1.3437 0.1484 2.0234 0.0156 0.5469-0.1055 1.0234-0.4023 1.5508-0.5312 0.5508-0.1407 1.0466-0.1876 1.5196 0.1445 0.215 0.1523 0.297 0.4258 0.484 0.582 0.16 0.1289 0.301 0.0938 0.485 0.2266 0.554 0.3984 0.597 0.9883-0.356 0.8086 0.403 1.6605 2.352 6.1245 4.528 3.8165 1.015-1.078 1.949-2.274 2.91-3.3947 0.847-0.9882 1.34-2.1015 2.781-1.9101 1.422 0.1875 2.394 1.164 3.496 1.9726 0.898 0.6641 1.957 0.8086 2.91 1.3592 1.012 0.582 1.914 1.563 2.262 2.684 0.504 1.621 0.215 3.183 1.101 4.722 0.536 0.934 1.297 1.586 1.973 2.36 0.363 0.418 0.606 0.992 0.484 1.551-0.082 0.386-0.355 0.457-0.355 0.906 0 0.785 0.039 1.562 0.004 2.348-0.031 0.699-0.086 1.382-0.184 2.074-0.086 0.597-0.304 0.765-0.5 1.207-0.289 0.652-0.242 0.937-0.937 1.195-0.395 0.145-1.067 0.438-1.488 0.422-0.606-0.027-0.692-0.527-0.227-1.066 0.301-0.352 0.859-0.465 1.195-0.844 0.981-1.098 1.403-4.399 0.582-5.563-0.34-0.484-0.773-0.488-0.804-1.226-0.032-0.66 0.238-0.891-0.36-1.489-1.898-0.968-2.097-1.66-2.715-1.328-0.75 0.407-0.16 2.692 0 3.332 0.289 1.149 1.426 1.688 0.68 2.848-0.535 0.828-0.785 1.684-1.148 2.652-0.328 0.871-0.301 2.118-0.825 2.844-0.101 0.141-0.261 0.219-0.355 0.356-0.07 0.101-0.176 0.394-0.227 0.453-0.218 0.254-0.265 0.32-0.617 0.453-0.625 0.238-1.39 0.16-2.066 0.16" fill-rule="evenodd"/>
</svg>
