<svg viewBox="0 0 38 38" width="47.5" xmlns="http://www.w3.org/2000/svg" xmlns:xlink="http://www.w3.org/1999/xlink" height="47.5">
 <path d="m31.512 4.1602c-0.453 0.039-0.907 0.2656-1.274 0.621l-8.176 7.1098c-0.351 0.339-0.546 0.82-0.546 1.304 0 0.235 0.05 0.446 0.136 0.653 0.004 0.011-0.004 0.027 0 0.035-0.304 0.648-0.207 1.551-0.207 3.504 0 0.718-1.871 1.476-2.336 1.476h-0.07c-1.484 0-6.309 0.223-7.797 2.27-1.4881 2.047-7.0779 11.347-7.0779 12.711 2.2304 0 18.441-8.102 19.274-8.864 1.003-0.921 0.511-2.781-0.137-4.019 0.004-0.004-0.004-0.027 0-0.035 0.015-0.043 0.023-0.11-0.035-0.207-0.348-0.582-0.551-1.172-0.551-1.992 0-1.821 0.191-2.825 0.586-3.399 0.875 0.149 2.148-0.277 2.715-0.824l7.179-6.8399c0.731-0.7032 0.903-1.7657 0.172-2.4727l-0.586-0.582c-0.363-0.3555-0.82-0.4844-1.269-0.4453z" fill="#cc7d6f"/>
</svg>
