<svg xmlns="http://www.w3.org/2000/svg" viewBox="0 0 48 48">
 <g transform="matrix(2.5 0 0 2.4955 -861.48 -2399.6)" fill="#de165e">
  <path d="m-187.03 412.63a8.4855 8.0435 0 1 1 -16.971 0 8.4855 8.0435 0 1 1 16.971 0z" transform="matrix(.4714 0 0 .49731 442.36 762.98)"/>
  <path d="m-187.03 412.63a8.4855 8.0435 0 1 1 -16.971 0 8.4855 8.0435 0 1 1 16.971 0z" transform="matrix(.4714 0 0 .49731 450.36 762.98)"/>
  <path d="m346.95 970.46 7.3697-2.1428 6.8501 2.536-7.0269 7.357-7.1929-7.7502z"/>
 </g>
</svg>
