<svg viewBox="0 0 38 38" width="47.5" xmlns="http://www.w3.org/2000/svg" xmlns:xlink="http://www.w3.org/1999/xlink" height="47.5">
 <g fill="#d17d86" fill-rule="evenodd">
  <path d="m27.738 24.461c0 2.125-3.054 2.223-3.054 0.117l0.058-5.441c0-1.891 1.992-3.953 4.696-3.985 2.003 0 2.066-3.113 0-3.113h-15.254c-1.504 0-2.176 0.887-2.145 1.992v9.028c0 2.125-3.0546 2.093-3.0546 0 0 0-0.0586-6.879-0.0586-9.204 0-2.265 1.7852-4.9956 5.1642-4.9956h15.277c2.965 0.0273 4.504 2.2966 4.477 4.5076-0.012 3.051-2.352 4.887-4.156 4.887-1.34 0-1.907 0.75-1.907 2.004z"/>
  <path d="m4.1836 13.688l-0.0274 10.679c0.1602 3.004 2.2969 4.719 4.625 4.778l9.9218-0.098c2.359 0 4.27-1.961 4.27-4.547 0-2.414-1.586-4.465-4.578-4.547-2.184 0-2.153-3.117 0-3.117h4.492c2.043 0 1.992-3.238 0-3.238l-4.793 0.058c-2.36 0-4.504 1.989-4.477 4.559 0.024 2.574 1.789 4.805 4.567 4.805 2.164 0 2.113 3.097 0.023 3.097h-8.8125c-1.1953 0-2.0898-0.648-2.0898-2.105l-0.0586-10.301c0-2.309-3.0625-2.273-3.0625-0.023z"/>
 </g>
</svg>
