<svg viewBox="0 0 38 38" width="47.5" xmlns="http://www.w3.org/2000/svg" xmlns:xlink="http://www.w3.org/1999/xlink" height="47.5">
 <path d="m34.395 32.026h187.22c1.3 0 2.35 1.053 2.35 2.369v187.22c0 1.3-1.05 2.35-2.36 2.35h-187.22c-1.311 0-2.364-1.05-2.364-2.36v-187.22c0-1.311 1.053-2.364 2.369-2.364z" transform="scale(.14844)" stroke="#92c8dd" stroke-linecap="round" stroke-width="8.073" fill="none"/>
 <g fill="#92c8dd">
  <path d="m15.512 9.6758c-0.528 1.3282-1.051 2.6562-1.578 3.9882h3.156zm-0.657-1.0664h1.317c1.09 2.6676 2.18 5.3396 3.269 8.0076h-1.207c-0.257-0.683-0.519-1.371-0.781-2.055h-3.867c-0.262 0.684-0.524 1.372-0.781 2.055h-1.227c1.094-2.668 2.184-5.34 3.277-8.0076zm8.715 4.9886c-0.675 0.027-1.461-0.02-1.992 0.433-0.547 0.586-0.277 1.699 0.594 1.86 0.848 0.222 1.84-0.153 2.195-0.926 0.199-0.399 0.328-0.985 0.223-1.367zm2.11-0.407v3.426h-1.059v-0.91c-0.437 0.734-1.348 1.102-2.223 1.066-0.933 0.051-1.925-0.5-2.101-1.394-0.223-0.863 0.133-1.922 1.078-2.266 1.023-0.414 2.16-0.258 3.246-0.289 0.074-0.64-0.379-1.277-1.059-1.429-0.957-0.223-1.992-0.032-2.851 0.402v-0.914c1.191-0.418 2.598-0.645 3.777-0.098 0.938 0.453 1.203 1.5 1.192 2.406z"/>
  <g fill-opacity=".6">
   <path d="m11.578 18.258h1.867v0.742h-1.867z"/>
   <path d="m13.703 18.258h1.762v0.742h-1.762z"/>
   <path d="m15.719 18.258h1.554v0.742h-1.554z"/>
   <path d="m17.527 18.258h0.68v0.742h-0.68z"/>
   <path d="m18.461 18.258h1.527v0.742h-1.527z"/>
   <path d="m20.242 18.258h3.953v0.742h-3.953z"/>
   <path d="m11.578 22.711h1.867v0.742h-1.867z"/>
   <path d="m13.703 22.711h1.762v0.742h-1.762z"/>
   <path d="m15.719 22.711h1.554v0.742h-1.554z"/>
   <path d="m17.527 22.711h0.68v0.742h-0.68z"/>
   <path d="m18.461 22.711h1.527v0.742h-1.527z"/>
   <path d="m20.242 22.711h3.953v0.742h-3.953z"/>
   <path d="m11.578 19.742h2.817v0.742h-2.817z"/>
   <path d="m14.652 19.742h1.356v0.742h-1.356z"/>
   <path d="m16.266 19.742h0.636v0.742h-0.636z"/>
   <path d="m17.156 19.742h1.227v0.742h-1.227z"/>
   <path d="m18.641 19.742h1.226v0.742h-1.226z"/>
   <path d="m20.125 19.742h1.969v0.742h-1.969z"/>
   <path d="m22.352 19.742h2.586v0.742h-2.586z"/>
   <path d="m11.578 21.227h3.289v0.742h-3.289z"/>
   <path d="m15.125 21.227h3.527v0.742h-3.527z"/>
   <path d="m18.91 21.227h1.406v0.742h-1.406z"/>
   <path d="m20.578 21.227h3.317v0.742h-3.317z"/>
   <path d="m24.152 21.227h2.27v0.742h-2.27z"/>
   <path d="m11.578 27.164h3.289v0.742h-3.289z"/>
   <path d="m15.125 27.164h3.527v0.742h-3.527z"/>
   <path d="m18.91 27.164h1.406v0.742h-1.406z"/>
   <path d="m20.578 27.164h3.317v0.742h-3.317z"/>
   <path d="m24.152 27.164h2.27v0.742h-2.27z"/>
   <path d="m11.578 24.195h2.32v0.743h-2.32z"/>
   <path d="m14.145 24.195h3.851v0.743h-3.851z"/>
   <path d="m18.242 24.195h1.86v0.743h-1.86z"/>
   <path d="m22.328 24.195h1.477v0.743h-1.477z"/>
   <path d="m24.051 24.195h2.371v0.743h-2.371z"/>
   <path d="m20.348 24.195h1.734v0.743h-1.734z"/>
   <path d="m11.578 25.68h3.059v0.742h-3.059z"/>
   <path d="m14.891 25.68h0.961v0.742h-0.961z"/>
   <path d="m16.105 25.68h2.2v0.742h-2.2z"/>
   <path d="m18.555 25.68h1.5v0.742h-1.5z"/>
   <path d="m20.309 25.68h1.5v0.742h-1.5z"/>
   <path d="m22.062 25.68h2.172v0.742h-2.172z"/>
   <path d="m24.484 25.68h0.454v0.742h-0.454z"/>
   <path d="m11.578 28.648h1.211v0.743h-1.211z"/>
   <path d="m13.105 28.648h4.411v0.743h-4.411z"/>
  </g>
 </g>
</svg>
