<svg viewBox="0 0 38 38" width="47.5" xmlns="http://www.w3.org/2000/svg" xmlns:xlink="http://www.w3.org/1999/xlink" height="47.5">
 <defs>
  <clipPath id="clip3">
   <rect width="38" height="38"/>
  </clipPath>
  <clipPath id="clip1">
   <rect width="38" height="38"/>
  </clipPath>
  <clipPath id="clip5">
   <rect width="38" height="38"/>
  </clipPath>
  <clipPath id="clip2">
   <rect width="38" height="38"/>
  </clipPath>
  <clipPath id="clip4">
   <rect width="38" height="38"/>
  </clipPath>
  <filter id="alpha" height="100%" width="100%" y="0" x="0" filterUnits="objectBoundingBox">
   <feColorMatrix type="matrix" values="0 0 0 0 1 0 0 0 0 1 0 0 0 0 1 0 0 0 1 0" in="SourceGraphic"/>
  </filter>
  <g id="surface9" style="clip-path:url(#clip2)">
   <path d="m118.16 93.789h89.45" transform="scale(.14844)" stroke="#fff" stroke-width="5.262" fill="none"/>
  </g>
  <g id="surface18" style="clip-path:url(#clip5)">
   <path d="m107.63 188.5h89.45" transform="scale(.14844)" stroke="#fff" stroke-width="5.262" fill="none"/>
  </g>
  <g id="surface6" style="clip-path:url(#clip1)">
   <path d="m107.63 62.237h89.45" transform="scale(.14844)" stroke="#fff" stroke-width="5.262" fill="none"/>
  </g>
  <g id="surface12" style="clip-path:url(#clip3)">
   <path d="m118.16 125.37h89.45" transform="scale(.14844)" stroke="#fff" stroke-width="5.262" fill="none"/>
  </g>
  <g id="surface15" style="clip-path:url(#clip4)">
   <path d="m107.63 156.95h89.45" transform="scale(.14844)" stroke="#fff" stroke-width="5.262" fill="none"/>
  </g>
  <linearGradient id="linear0" gradientUnits="userSpaceOnUse" x2="17.436" x1="8.718" gradientTransform="matrix(11.467 0 0 2.4142 2.3936 -8.8039)">
   <stop stop-color="#fff" offset="0"/>
   <stop stop-color="#fff" stop-opacity="0" offset="1"/>
  </linearGradient>
  <mask id="mask3">
   <g filter="url(#alpha)">
    <rect fill-opacity=".4" height="38" width="38" y="0" x="0"/>
   </g>
  </mask>
  <mask id="mask4">
   <g filter="url(#alpha)">
    <rect fill-opacity=".4" height="38" width="38" y="0" x="0"/>
   </g>
  </mask>
  <mask id="mask1">
   <g filter="url(#alpha)">
    <rect fill-opacity=".4" height="38" width="38" y="0" x="0"/>
   </g>
  </mask>
  <mask id="mask0">
   <g filter="url(#alpha)">
    <rect fill-opacity=".4" height="38" width="38" y="0" x="0"/>
   </g>
  </mask>
  <mask id="mask2">
   <g filter="url(#alpha)">
    <rect fill-opacity=".4" height="38" width="38" y="0" x="0"/>
   </g>
  </mask>
 </defs>
 <g stroke="#ca9a69" fill="none">
  <path stroke-width="8.073" stroke-linecap="round" d="m34.395 32.026h187.22c1.3 0 2.35 1.053 2.35 2.369v187.22c0 1.3-1.05 2.35-2.36 2.35h-187.22c-1.311 0-2.364-1.05-2.364-2.36v-187.22c0-1.311 1.053-2.364 2.369-2.364z" transform="scale(.14844)"/>
  <path stroke-linejoin="bevel" d="m47.263 30.658l-0.131 194.68" stroke-opacity=".6" transform="scale(.14844)" stroke-miterlimit="6.4" stroke-width="5.321"/>
 </g>
 <use style="mask:url(#mask0)" xlink:href="#surface6"/>
 <path d="m81.316 56.974h10.526c1.447 0 2.632 1.158 2.632 2.631v10.527c0 1.447-1.185 2.631-2.632 2.631h-10.526c-1.448 0-2.632-1.184-2.632-2.631v-10.527c0-1.473 1.184-2.631 2.632-2.631zm25.894 0c-1.21 0.079-2.24 1-2.21 2.026v11.737c-0.03 1.052 1.16 2.026 2.42 2.026h89.84c1.29 0 2.45-0.974 2.45-2.026v-11.737c0-1.079-1.16-2.053-2.45-2.026h-89.81-0.24z" transform="scale(.14844)" stroke="#ca9a69" stroke-linecap="square" stroke-width="2.631" fill="#ca9a69"/>
 <use style="mask:url(#mask1)" xlink:href="#surface9"/>
 <path d="m91.842 88.526h10.528c1.45 0 2.63 1.185 2.63 2.632v10.522c0 1.48-1.18 2.64-2.63 2.64h-10.528c-1.447 0-2.631-1.16-2.631-2.64v-10.522c0-1.447 1.184-2.632 2.631-2.632zm25.898 0c-1.21 0.106-2.24 1.027-2.21 2.027v11.737c-0.03 1.08 1.15 2.05 2.42 2.03h89.84c1.29 0.02 2.45-0.95 2.45-2.03v-11.737c0-1.053-1.16-2.027-2.45-2.027h-89.82-0.23z" transform="scale(.14844)" stroke="#ca9a69" stroke-linecap="square" stroke-width="2.631" fill="#ca9a69"/>
 <use style="mask:url(#mask2)" xlink:href="#surface12"/>
 <path d="m91.842 120.11h10.528c1.45 0 2.63 1.18 2.63 2.63v10.52c0 1.45-1.18 2.63-2.63 2.63h-10.528c-1.447 0-2.631-1.18-2.631-2.63v-10.52c0-1.45 1.184-2.63 2.631-2.63zm25.898 0c-1.21 0.07-2.24 1.02-2.21 2.02v11.74c-0.03 1.05 1.15 2.02 2.42 2.02h89.84c1.29 0 2.45-0.97 2.45-2.02v-11.74c0-1.05-1.16-2.02-2.45-2.02h-89.82-0.23z" transform="scale(.14844)" stroke="#ca9a69" stroke-linecap="square" stroke-width="2.631" fill="#ca9a69"/>
 <use style="mask:url(#mask3)" xlink:href="#surface15"/>
 <g stroke-linecap="square" fill="#ca9a69">
  <path stroke-width="2.631" d="m81.316 151.68h10.526c1.447 0 2.632 1.16 2.632 2.64v10.52c0 1.45-1.185 2.61-2.632 2.61h-10.526c-1.448 0-2.632-1.16-2.632-2.61v-10.52c0-1.48 1.184-2.64 2.632-2.64zm25.894 0c-1.21 0.08-2.24 1-2.21 2v11.77c-0.03 1.05 1.16 2.02 2.42 2h89.84c1.29 0.02 2.45-0.95 2.45-2v-11.77c0-1.05-1.16-2.02-2.45-2h-89.81-0.24z" stroke="#ca9a69" transform="scale(.14844)"/>
  <path stroke-width="5.262" d="m107.21 183.24c-1.21 0.08-2.24 1.02-2.21 2.02v11.74c-0.03 1.08 1.16 2.03 2.42 2.03h89.84c1.29 0 2.45-0.95 2.45-2.03v-11.74c0-1.05-1.16-2.02-2.45-2.02h-89.81-0.24z" stroke="url(#linear0)" transform="scale(.14844)"/>
 </g>
 <use style="mask:url(#mask4)" xlink:href="#surface18"/>
 <g stroke="#ca9a69">
  <path d="m81.316 183.24h10.526c1.447 0 2.632 1.18 2.632 2.63v10.52c0 1.48-1.185 2.64-2.632 2.64h-10.526c-1.448 0-2.632-1.16-2.632-2.64v-10.52c0-1.45 1.184-2.63 2.632-2.63zm25.894 0c-1.21 0.08-2.24 1.02-2.21 2.02v11.74c-0.03 1.08 1.16 2.05 2.42 2.03h89.84c1.29 0.02 2.45-0.95 2.45-2.03v-11.74c0-1.05-1.16-2.02-2.45-2.02h-89.81-0.24z" transform="scale(.14844)" stroke-linecap="square" stroke-width="2.631" fill="#ca9a69"/>
  <g stroke-linejoin="round" stroke-opacity=".6" stroke-miterlimit="6.4" stroke-width="5.266" fill="none">
   <path d="m74.079 188.55l-24.342 0.03m24.342-31.58l-24.342 0.03m24.342-94.741l-24.342 0.027" transform="scale(.14844)"/>
   <path d="m84.605 125.26l-34.868 0.03m34.868-31.422h-34.868" transform="scale(.14844)"/>
  </g>
 </g>
</svg>
