<svg viewBox="0 0 38 38" width="47.5" xmlns="http://www.w3.org/2000/svg" xmlns:xlink="http://www.w3.org/1999/xlink" height="47.5">
 <g fill="#e760c1" fill-rule="evenodd">
  <path d="m15.105 27.113s-1.136 0.66 0.805 0.887c2.356 0.266 3.555 0.227 6.149-0.262 0 0 0.683 0.426 1.632 0.797-5.812 2.492-13.152-0.144-8.586-1.422"/>
  <path d="m14.395 23.863s-1.274 0.946 0.671 1.145c2.512 0.258 4.496 0.281 7.93-0.379 0 0 0.477 0.48 1.223 0.742-7.028 2.055-14.856 0.164-9.824-1.508"/>
  <path d="m20.379 18.352c1.433 1.648-0.375 3.132-0.375 3.132s3.637-1.879 1.965-4.226c-1.559-2.196-2.754-3.281 3.722-7.039 0 0-10.164 2.539-5.312 8.133"/>
  <path d="m28.066 29.52s0.84 0.691-0.925 1.226c-3.352 1.016-13.961 1.324-16.907 0.039-1.0582-0.461 0.926-1.097 1.551-1.234 0.653-0.141 1.024-0.113 1.024-0.113-1.176-0.833-7.6137 1.628-3.2699 2.332 11.852 1.921 21.602-0.864 18.527-2.25"/>
  <path d="m15.648 20.496s-5.394 1.281-1.91 1.75c1.473 0.195 4.407 0.152 7.137-0.078 2.234-0.188 4.477-0.59 4.477-0.59s-0.79 0.34-1.36 0.727c-5.476 1.441-16.062 0.769-13.015-0.703 2.578-1.247 4.671-1.106 4.671-1.106"/>
  <path d="m25.328 25.906c5.57-2.894 2.996-5.676 1.199-5.301-0.441 0.094-0.636 0.172-0.636 0.172s0.16-0.257 0.472-0.367c3.559-1.25 6.293 3.688-1.144 5.645 0 0 0.086-0.078 0.109-0.149"/>
  <path d="m21.969 4.1562s3.086 3.086-2.926 7.8318c-4.816 3.805-1.098 5.977 0 8.453-2.813-2.535-4.879-4.769-3.492-6.851 2.031-3.051 7.664-4.5314 6.418-9.4338"/>
  <path d="m16.195 33.75c5.348 0.344 13.559-0.191 13.754-2.719 0 0-0.375 0.957-4.422 1.719-4.562 0.859-10.191 0.762-13.527 0.211 0 0 0.684 0.562 4.195 0.789"/>
 </g>
</svg>
