<svg viewBox="0 0 38 38" width="47.5" xmlns="http://www.w3.org/2000/svg" xmlns:xlink="http://www.w3.org/1999/xlink" height="47.5">
 <g fill="#f9b082">
  <path d="m5.1836 5.6406c-0.5625 0-1.0274 0.4688-1.0274 1.0313v21.359c0 0.563 0.4649 1.031 1.0274 1.031h12.773c0.563 0 1.027-0.468 1.027-1.031v-21.359c0-0.5626-0.464-1.0314-1.027-1.0314zm3.2422 7.2544c0.6914-0.047 1.4726 0.175 2.0862 0.429 0.461 0.196 1.058 1.067 1.058 1.067s0.598-0.871 1.059-1.067c0.976-0.406 2.43-0.75 3.176 0 1 1.004 0.543 2.949 0 4.262-0.762 1.852-4.235 4.258-4.235 4.258s-3.4723-2.406-4.238-4.258c-0.539-1.313-0.9961-3.258 0-4.262 0.2813-0.281 0.6758-0.402 1.0938-0.429z"/>
  <path d="m20.746 6.3789c-0.543-0.1484-1.113 0.1836-1.258 0.7266l-5.5 20.632c-0.144 0.543 0.184 1.117 0.727 1.262l12.34 3.324c0.543 0.149 1.109-0.183 1.254-0.73l5.5-20.629c0.144-0.547-0.184-1.1173-0.727-1.2658zm4.524 7.8321l1.699 5.965-4.442 4.316-1.695-5.969z"/>
 </g>
</svg>
