<svg viewBox="0 0 38 38" width="47.5" xmlns="http://www.w3.org/2000/svg" xmlns:xlink="http://www.w3.org/1999/xlink" height="47.5">
 <g stroke="#a57855">
  <g stroke-linejoin="round" fill="#a57855" fill-rule="evenodd">
   <path stroke-width="5.418" d="m30.711 148.18c38.289-0.52 53.789-5.23 65.552-8.86 11.767-3.66 29.207-11.5 29.207-11.5l44 89.84h-138.76z" transform="scale(.14844)"/>
   <path stroke-width="6.123" d="m157.29 182.08s-19.76 10.97-25.45 13.74c-7.87 3.81-21.42 14.1-45.156 21.47h-55.631v-43.9c32.131-1 55.289-2 69.687-8.02 14.37-6.03 41.47-20.08 41.47-20.08z" transform="scale(.14844)"/>
   <path stroke-width="5.418" d="m132.53 142.18c20.84-20.89 14.79-27.15 35.94-28.97 21.16-1.82 56.82 14.08 56.82 14.08v90.32h-55.82z" transform="scale(.14844)"/>
   <path stroke-width="6.123" d="m224.61 184.11s-4.98-2.64-11.45-5.37c-6.37-2.66-11.5-3.98-23.08-0.66-7.84 2.24-14.37 7.21-27.74 17.26l-17.1-43.02c13.29-11.98 23.76-20.43 37.13-21.43 13.39-1 24.42 1.35 31.13 4.69 6.68 3.34 10.45 5.68 10.45 5.68z" transform="scale(.14844)"/>
  </g>
  <path d="m34.395 32.026h187.22c1.3 0 2.35 1.053 2.35 2.369v187.22c0 1.3-1.05 2.35-2.36 2.35h-187.22c-1.311 0-2.364-1.05-2.364-2.36v-187.22c0-1.311 1.053-2.364 2.369-2.364z" transform="scale(.14844)" stroke-linecap="round" stroke-width="8.073" fill="none"/>
 </g>
</svg>
