<svg viewBox="0 0 38 38" width="47.5" xmlns="http://www.w3.org/2000/svg" xmlns:xlink="http://www.w3.org/1999/xlink" height="47.5">
 <g stroke-linecap="round" stroke="#89b585" fill="none">
  <path stroke-width="8.073" d="m34.395 32.026h187.22c1.3 0 2.35 1.053 2.35 2.369v187.22c0 1.3-1.05 2.35-2.36 2.35h-187.22c-1.311 0-2.364-1.05-2.364-2.36v-187.22c0-1.311 1.053-2.364 2.369-2.364z" transform="scale(.14844)"/>
  <g stroke-linejoin="round">
   <path stroke-width="5.223" d="m62.737 117.03h31.342v31.34h-31.342z" transform="scale(.14844)"/>
   <path stroke-width="5.063" d="m193.39 132.71c0 8.68-7.05 15.74-15.76 15.74-8.68 0-15.74-7.06-15.74-15.74 0-8.71 7.06-15.76 15.74-15.76 8.71 0 15.76 7.05 15.76 15.76z" transform="scale(.14844)"/>
   <path stroke-width="5.223" d="m69.816 60.632h116.34c3.95 0 7.1 3.447 7.1 7.763v15.789c0 4.316-3.15 7.763-7.1 7.763h-116.34c-3.952 0-7.136-3.447-7.136-7.763v-15.789c0-4.316 3.184-7.763 7.132-7.763z" transform="scale(.14844)"/>
  </g>
 </g>
 <path fill="#89b585" d="m27.531 19.699c0 0.641-0.519 1.164-1.164 1.164-0.64 0-1.16-0.523-1.16-1.164 0-0.64 0.52-1.164 1.16-1.164 0.645 0 1.164 0.524 1.164 1.164z" fill-rule="evenodd"/>
 <g stroke-linejoin="round" stroke-linecap="round" stroke="#89b585" fill="none">
  <g stroke-width="5.223">
   <path d="m151.5 60.605v31.316h32.58c5.1 0 9.16-4.289 9.16-9.658v-11.921c0-5.368-4.06-9.737-9.16-9.737z" transform="scale(.14844)"/>
   <path d="m62.737 164.05h31.342v31.34h-31.342z" transform="scale(.14844)"/>
  </g>
  <path stroke-width="5.063" d="m193.39 179.71c0 8.71-7.05 15.76-15.76 15.76-8.68 0-15.74-7.05-15.74-15.76 0-8.68 7.06-15.74 15.74-15.74 8.71 0 15.76 7.06 15.76 15.74z" transform="scale(.14844)"/>
 </g>
 <g fill="#89b585">
  <path d="m10.473 18.535h0.777v0.777h-0.777z"/>
  <path d="m10.473 20.086h0.777v0.777h-0.777z"/>
  <path d="m12.023 20.086h0.778v0.777h-0.778z"/>
  <path d="m12.023 18.535h0.778v0.777h-0.778z"/>
  <path d="m11.25 19.312h0.773v0.774h-0.773z"/>
  <path d="m24.426 10.637h0.773v0.777h-0.773z"/>
  <path d="m25.977 10.637h0.773v0.777h-0.773z"/>
  <path d="m25.199 11.414h0.778v0.774h-0.778z"/>
 </g>
</svg>
