<svg xmlns="http://www.w3.org/2000/svg" xmlns:xlink="http://www.w3.org/1999/xlink" viewBox="0 0 48 48">
 <g transform="matrix(.28473 0 0 .28473 57.548 -282.93)" fill="#658db6">
  <path d="m-118.49 1021.8c-4.5837 0.021-8.9609 0.4122-12.812 1.0937-11.346 2.0045-13.406 6.2001-13.406 13.938v10.219h26.812v3.4062h-26.812-10.062c-7.7925 0-14.616 4.6837-16.75 13.594-2.4618 10.213-2.571 16.586 0 27.25 1.9059 7.9378 6.4575 13.594 14.25 13.594h7.9017v-13.567c0-8.8499 7.6571-16.656 16.75-16.656h28.098c7.4549 0 14.504-6.1382 14.504-13.625v-24.214c0-7.2663-7.2275-12.725-14.504-13.938-4.606-0.7667-9.3851-1.115-13.969-1.0937zm-14.5 8.2187c2.7695 0 5.0312 2.2987 5.0312 5.125-0.00001 2.8164-2.2617 5.0938-5.0312 5.0938-2.7795 0-5.0312-2.2774-5.0312-5.0938 0-2.8263 2.2518-5.125 5.0312-5.125z"/>
  <path d="m-86.233 1050.4v11.906c0 9.2307-7.8259 15.902-16.75 15.902h-29.415c-7.3358 0-13.406 7.376-13.406 14.722v25.531c0 7.2664 6.3186 11.54 13.406 13.625 8.4873 2.4956 17.724 2.9467 27.879 0 6.7502-1.9544 13.406-5.8876 13.406-13.625v-10.219h-26.781v-3.4063h26.781 13.406c7.7925 0 10.696-5.4354 13.406-13.594 2.7993-8.3989 2.6802-16.476 0-27.25-1.9258-7.7575-5.6039-13.594-13.406-13.594zm-16.599 64.656c2.7795 0 5.0312 2.2774 5.0312 5.0937-0.000002 2.8264-2.2518 5.125-5.0312 5.125-2.7696 0-5.0312-2.2986-5.0312-5.125 0-2.8163 2.2617-5.0937 5.0312-5.0937z"/>
 </g>
</svg>
