<svg viewBox="0 0 38 38" width="47.5" xmlns="http://www.w3.org/2000/svg" xmlns:xlink="http://www.w3.org/1999/xlink" height="47.5">
 <defs>
  <linearGradient id="linear0" y2="19.913" gradientUnits="userSpaceOnUse" x2="526.18" gradientTransform="matrix(.27325 0 0 .27325 -18.154 26.38)" y1="723.89" x1="526.15">
   <stop stop-color="#fff" stop-opacity=".502" offset="0"/>
   <stop stop-color="#fff" stop-opacity=".8" offset="1"/>
  </linearGradient>
 </defs>
 <g fill="#c18eb2">
  <path d="m4.1992 25.332l8.6678 1.371v-5.133l-8.7108-0.425v-4.204l8.6718-0.425v-5.172l-8.6678 1.398-0.004-4.2108 14.489-3.8085v28.547l-14.446-3.762z" fill-rule="evenodd"/>
  <path d="m18.648 4.7227c1.684 0.4335 3.27 0.8437 4.766 1.2304 1.406 0.3633 2.742 0.7071 4.012 1.0352 1.41 0.3633 2.496 0.9258 3.285 1.6719 0.762 0.7226 1.375 1.6248 1.844 2.7068 0.465 1.063 0.785 2.238 0.988 3.539 0.199 1.293 0.301 2.641 0.301 4.055 0 2.219-0.149 3.957-0.446 5.219-0.3 1.285-0.722 2.402-1.281 3.367-0.574 0.984-1.199 1.715-1.898 2.18-0.985 0.656-1.922 1.097-2.793 1.32-1.27 0.32-2.61 0.664-4.02 1.019-1.496 0.383-3.082 0.786-4.761 1.211v-14.269-14.281zm6.219 7.3473v6.93 6.926c0.449-0.063 0.891-0.125 1.324-0.184 1.075-0.148 1.813-0.418 2.239-0.812 0.418-0.387 0.738-1.004 0.968-1.848 0.231-0.844 0.344-2.172 0.344-4.004 0-2.422-0.254-4.101-0.769-5.058-0.532-0.981-1.434-1.571-2.758-1.758-0.442-0.063-0.891-0.125-1.348-0.192z"/>
 </g>
 <path d="m125.63 31.816l-0.02 192.36" transform="scale(.14844)" stroke="url(#linear0)" stroke-width=".82" fill="none"/>
</svg>
