<svg xmlns="http://www.w3.org/2000/svg" xmlns:xlink="http://www.w3.org/1999/xlink" viewBox="0 0 48 48">
 <g transform="translate(0 -1004.4)" fill="#4fa44e">
  <path d="m23.616 1020.7c-7.6129 0.3369-15.019 4.0502-11.874 11.565 4.5874-1.7251 10.975 0.8484 8.322 2.1235 5.2268 4.3016 18.132-2.648 16.847-8.5595-1.3323-3.6013-7.3737-5.391-13.295-5.1292zm-0.20298 2.1236c1.5881 0 2.8755 0.4242 2.8755 0.9474 0 0.5233-1.2874 0.9474-2.8755 0.9474s-2.8755-0.4241-2.8755-0.9474c0-0.5232 1.2874-0.9474 2.8755-0.9474zm7.1041 1.5681c1.5881 0 2.8755 0.4243 2.8755 0.9475s-1.2874 0.9474-2.8755 0.9474-2.8755-0.4242-2.8755-0.9474 1.2874-0.9475 2.8755-0.9475zm-13.058 1.4375c1.5881 0 2.8755 0.4242 2.8755 0.9475 0 0.5232-1.2874 0.9473-2.8755 0.9473s-2.8755-0.4241-2.8755-0.9473c0-0.5233 1.2874-0.9475 2.8755-0.9475zm12.99 2.4829c1.5881 0 2.8755 0.4242 2.8755 0.9475 0 0.5232-1.2874 0.9474-2.8755 0.9474s-2.8755-0.4242-2.8755-0.9474c0-0.5233 1.2874-0.9475 2.8755-0.9475zm-5.0067 3.5937c1.5881 0 2.8755 0.4243 2.8755 0.9475s-1.2874 0.9474-2.8755 0.9474-2.8755-0.4242-2.8755-0.9474 1.2874-0.9475 2.8755-0.9475z"/>
  <path d="m34.462 1013.5-14.112 23.605c-1.1012-0.021-2.1243-0.5439-2.8651-1.5975l15.12-23.043c1.0162-0.2404 1.6352 0.1055 1.857 1.0355z"/>
  <path d="m17.404 1041.2c1.582-0.2123 4.0327-2.2312 2.8883-5.1538-2.7436-0.785-2.1205-1.1823-2.1205-1.1823-3.7687 0.9029-6.6328 5.2118-5.8441 7.951 0.50002 1.7367 0.4163 1.558 0.4163 1.558 1.0452-3.3563 1.0642-2.7416 4.66-3.1729z"/>
 </g>
</svg>
