<svg viewBox="0 0 38 38" width="47.5" xmlns="http://www.w3.org/2000/svg" xmlns:xlink="http://www.w3.org/1999/xlink" height="47.5">
 <g fill="#ec7878">
  <path d="m20.93 8.6094c-0.125 0-0.262 0.0351-0.379 0.1133-0.117 0.0781-0.219 0.2109-0.215 0.3828 0.016 0.0625 0.008 0.1211 0.004 0.1875 0 0.1914 0.156 0.3476 0.351 0.3476 0.192 0 0.348-0.1562 0.348-0.3476s-0.152-0.3477-0.344-0.3516c0.067-0.043 0.164-0.0664 0.235-0.0703 0.277 0 0.48 0.1562 0.629 0.3906 0.148 0.2344 0.222 0.5469 0.218 0.8003-0.011 0.633-0.324 1.168-0.789 1.575-0.461 0.41-1.074 0.687-1.656 0.797l0.047 0.257c0.629-0.117 1.281-0.41 1.785-0.855s0.863-1.051 0.879-1.77c0.004-0.3082-0.078-0.6598-0.262-0.9449-0.179-0.2891-0.472-0.5117-0.851-0.5117z"/>
  <path d="m17.07 8.6094c0.125 0 0.262 0.0351 0.379 0.1133 0.117 0.0781 0.219 0.2109 0.215 0.3828-0.016 0.0625-0.008 0.1211-0.004 0.1875 0 0.1914-0.156 0.3476-0.351 0.3476-0.192 0-0.348-0.1562-0.348-0.3476s0.152-0.3477 0.344-0.3516c-0.067-0.043-0.164-0.0664-0.235-0.0703-0.277 0-0.48 0.1562-0.629 0.3906-0.148 0.2344-0.222 0.5469-0.218 0.8003 0.011 0.633 0.324 1.168 0.789 1.575 0.461 0.41 1.074 0.687 1.656 0.797l-0.047 0.257c-0.629-0.117-1.281-0.41-1.785-0.855s-0.863-1.051-0.879-1.77c-0.004-0.3082 0.078-0.6598 0.262-0.9449 0.179-0.2891 0.472-0.5117 0.851-0.5117z"/>
  <path d="m18.738 11.141c-1.496 0.066-2.945 0.8-3.91 1.933-0.5 0.543-0.969 1.153-1.183 1.871 0.003 0.114 0.046 0.223 0.078 0.332-0.321 0.024-0.719-0.019-0.942 0.262-0.402 0.445-0.496 1.063-0.695 1.609-0.902 3.122-0.438 6.68 1.484 9.332 1.043 1.426 2.594 2.555 4.371 2.844 0.297 0.028 0.637 0.11 0.911-0.047 0.101-0.086 0.25-0.062 0.336 0.028 0.371 0.191 0.789 0.007 1.171-0.043 1.817-0.399 3.375-1.645 4.352-3.2 1.809-2.792 2.109-6.453 0.988-9.57-0.148-0.371-0.297-0.769-0.59-1.054-0.195-0.137-0.445-0.184-0.679-0.2 0.152-0.312 0.05-0.687-0.176-0.937-0.816-1.336-2.027-2.489-3.551-2.942-0.641-0.179-1.305-0.222-1.965-0.218z"/>
  <path d="m18.934 11.508c-0.008 0-0.02 0-0.032 0.004-0.523 0.039-1.058 0.09-1.558 0.265-1.43 0.5-2.52 1.664-3.266 2.953-0.113 0.2-0.035 0.477 0.195 0.497 1.602 0.003 3.204 0 4.805 0.003h0.004c1.602-0.003 3.203 0 4.805-0.003 0.23-0.02 0.308-0.297 0.195-0.497-0.75-1.289-1.84-2.453-3.27-2.953-0.5-0.175-1.035-0.226-1.558-0.265-0.133-0.012-0.109 0.031-0.172 0.031-0.062-0.004-0.039-0.039-0.148-0.035z"/>
  <path d="m20.086 15.629c-0.469 0-0.848 0.383-0.848 0.859v12.2c0 0.171 0 0.3 0.227 0.324 3.582-0.196 6.519-4.024 6.519-8.7 0-1.542-0.308-2.992-0.855-4.25h-0.004c-0.008-0.027-0.02-0.054-0.031-0.082 0-0.003-0.004-0.003-0.004-0.007v-0.004c-0.102-0.203-0.305-0.34-0.543-0.34z"/>
  <path d="m17.914 15.629c0.469 0 0.848 0.383 0.848 0.859v12.2c0 0.171 0 0.3-0.227 0.324-3.582-0.196-6.519-4.024-6.519-8.7 0-1.542 0.308-2.992 0.855-4.25h0.004c0.008-0.027 0.02-0.054 0.031-0.082 0-0.003 0.004-0.003 0.004-0.007v-0.004c0.102-0.203 0.305-0.34 0.543-0.34z"/>
  <g fill-rule="evenodd">
   <path d="m14.012 15.984l-0.543 0.672-0.86-0.062 0.473 0.718-0.328 0.801 0.832-0.226 0.66 0.558 0.043-0.863 0.734-0.453-0.808-0.309zm2.695 0.817l-0.457 2.301-2.152 0.925 2.043 1.149 0.214 2.332 1.723-1.59 2.289 0.516-0.98-2.129 1.195-2.016-2.328 0.277zm7.031 1.062l-0.539 0.672-0.863-0.062 0.473 0.722-0.325 0.797 0.832-0.226 0.657 0.558 0.043-0.863 0.734-0.453-0.809-0.305zm-10.39 4.121l-0.657 1.325-0.613 0.089c0.215 0.739 0.508 1.45 0.883 2.122l0.387-0.204 1.304 0.688-0.25-1.453 1.055-1.031-1.461-0.211zm10.726 0.125l-1.297 1.473-1.945-0.23 1.004 1.683-0.82 1.781 1.91-0.429 0.898 0.828c0.242-0.258 0.461-0.527 0.664-0.817l0.059-0.636 0.519-0.289c0.172-0.317 0.329-0.645 0.469-0.977l-1.078-0.465zm-6.445 3.977l-0.539 0.672-0.863-0.063 0.472 0.723-0.324 0.801 0.832-0.227 0.656 0.555 0.043-0.859 0.735-0.458-0.809-0.304z"/>
   <path d="m25.094 22.516c0 1.347-2.66 2.445-5.946 2.445-3.281 0-5.945-1.098-5.945-2.445 0-1.352 2.664-2.446 5.945-2.446 3.286 0 5.946 1.094 5.946 2.446z" fill-opacity=".902"/>
  </g>
  <path d="m14.754 26.902c0.945 0.973 2.184 1.68 3.543 1.828 0.082 0.028 0.25 0.02 0.211-0.109-0.008-0.297-0.012-0.594-0.012-0.891 0.004-0.183 0.004-0.148-0.137-0.062-1.398 0.852-2.586-0.18-3.605-0.766zm8.445 0.067c-1.019 0.586-2.207 1.617-3.609 0.765-0.137-0.086-0.137-0.121-0.133 0.063 0 0.297-0.004 0.594-0.012 0.891-0.043 0.128 0.125 0.136 0.211 0.109 1.36-0.149 2.594-0.856 3.543-1.828z" fill-opacity=".459"/>
  <g fill-rule="evenodd">
   <path d="m22.785 14.406c0 1.656-1.672 3-3.734 3-2.063 0-3.735-1.344-3.735-3s1.672-2.996 3.735-2.996c2.062 0 3.734 1.34 3.734 2.996z"/>
   <path d="m17.523 9.1953c0 0.1172-0.093 0.2149-0.207 0.2149-0.113 0-0.203-0.0977-0.203-0.2149s0.09-0.2148 0.203-0.2148c0.114 0 0.207 0.0976 0.207 0.2148z"/>
   <path d="m20.887 9.1953c0 0.1172-0.09 0.2149-0.203 0.2149-0.114 0-0.207-0.0977-0.207-0.2149s0.093-0.2148 0.207-0.2148c0.113 0 0.203 0.0976 0.203 0.2148z"/>
  </g>
  <path d="m26.594 17.953c-0.543 0.07-0.93 0.567-0.864 1.113 0.067 0.547 0.567 0.934 1.11 0.868h7.781c0.359 0.004 0.691-0.184 0.871-0.493 0.176-0.308 0.176-0.687 0-0.996-0.18-0.308-0.512-0.496-0.871-0.492h-7.781c-0.082-0.008-0.164-0.008-0.246 0z"/>
  <path d="m3.2773 18.016c-0.3515 0.031-0.664 0.25-0.8125 0.574-0.1484 0.32-0.1132 0.699 0.0938 0.988s0.5508 0.449 0.9023 0.414h7.8441c0.355 0.004 0.687-0.183 0.867-0.492s0.18-0.688 0-0.996c-0.18-0.309-0.512-0.496-0.867-0.488h-7.8441c-0.0586-0.008-0.1211-0.008-0.1836 0z"/>
  <path d="m18.836 2.3945c-0.473 0.0899-0.813 0.5039-0.805 0.9883v7.9692c-0.004 0.355 0.184 0.687 0.492 0.867 0.309 0.179 0.688 0.179 0.997 0 0.308-0.18 0.496-0.512 0.488-0.867v-7.9692c0.008-0.3008-0.121-0.582-0.352-0.7734-0.226-0.1953-0.527-0.2735-0.82-0.2149z"/>
  <path d="m18.895 25.785c-0.52 0.067-0.903 0.527-0.864 1.051v7.785c-0.008 0.356 0.18 0.688 0.489 0.867 0.308 0.184 0.687 0.184 0.996 0 0.308-0.179 0.496-0.511 0.492-0.867v-7.785c0.019-0.297-0.094-0.586-0.309-0.789s-0.511-0.297-0.804-0.262z"/>
 </g>
 <path stroke-linejoin="round" d="m278.37 118.72c0 49.33-52.85 89.27-118.05 89.27-65.228 0-118.08-39.94-118.08-89.27 0.003-49.294 52.852-89.264 118.08-89.264 65.2 0 118.05 39.97 118.05 89.264z" transform="matrix(.10473 0 0 .13819 2.2242 2.6599)" stroke="#ec7878" stroke-linecap="round" stroke-width="8" fill="none"/>
</svg>
