<svg viewBox="0 0 38 38" width="47.5" xmlns="http://www.w3.org/2000/svg" xmlns:xlink="http://www.w3.org/1999/xlink" height="47.5">
 <defs>
  <clipPath id="clip1">
   <path d="m5 5h28v28h-28z"/>
  </clipPath>
  <clipPath id="clip2">
   <path d="m19 32.414c7.449 0 13.496-6.07 13.496-13.516 0-7.398-6.047-13.468-13.496-13.468-7.398-0.0003-13.496 6.07-13.496 13.468-0.0001 7.446 6.098 13.516 13.496 13.516z"/>
  </clipPath>
 </defs>
 <path d="m18.996 4.1602c-3.937 0-7.656 1.5468-10.469 4.3554-2.8161 2.8084-4.3708 6.5234-4.3708 10.461 0 8.195 6.6558 14.863 14.84 14.863 8.188 0 14.848-6.668 14.848-14.863 0-8.168-6.66-14.817-14.848-14.817zm0 0.6093c7.848 0 14.234 6.3755 14.234 14.208 0 7.858-6.386 14.252-14.234 14.252-7.844 0-14.226-6.394-14.226-14.253-0.0005-3.774 1.4878-7.332 4.187-10.028 2.699-2.6912 6.266-4.1795 10.039-4.1795z" fill="#78b3a3"/>
 <g style="clip-path:url(#clip1)">
  <g style="clip-path:url(#clip2)">
   <path d="m14.426 6.668c-0.071 0-0.145 0.0273-0.219 0.0703 0.176-0.0547 0.262-0.0703 0.219-0.0703m4.433 0.8632l0.043-0.6484-0.683 0.043 0.09 0.6054h0.55m-7.726 11.211c-0.137-0.129-0.047-0.691-0.047-0.691s-2.0548-1.082-4.2969-1.735c-0.2735-0.078-0.1329-0.648 0.1367-0.863l-0.0899-0.605c-0.0468-0.305 0.4571-1.778 0.961-1.907s-0.0469 0.868-0.0469 0.868l-0.5 0.3s0.5938 0.696 0.7305 0.696 0.3672-0.348 0.3672-0.348l-0.6407-0.434 0.5938-0.257 0.039-0.231 0.0977-0.031 0.9844-1.488c0.6801-0.282 1.5161-0.625 1.6211-0.676 0.184-0.086 1.465-0.82 1.691-0.992 0.231-0.176 0.731-0.129 0.914-0.129 0.184 0 0.457-0.09 0.504-0.5667 0.043-0.4765 0.227-0.5625 0.364-0.4296 0.14 0.125-0.137 0.3437 0.183 0.4296 0.321 0.086 0.594 0.3047 0.824 0.086 0.168-0.1563-0.058-0.336-0.207-0.4727h2.539l0.274-0.7812-0.594-0.086-2.195-0.2187v-0.2578l-0.176 0.0312c0.238-1.3086 1.648-1.0898 0.586-1.8476-0.062-0.0469-0.992 1.4648-1.23 1.4336-0.426-0.0547-0.981-0.0586-1.098 0.0781-0.156 0.1875 0.348-0.6328 0.785-0.8789-0.519 0.1523-1.453-0.3203-3.133 0.8672-0.57 0.4023-1.9959 2.0312-2.5857 2.6565-2.4805 2.929-2.6797 5.433-2.6797 5.543 0 0.218 0.5273 0.34 0.5703 0.601 0.0469 0.258-0.8672 1.125-0.8672 1.555 0 0.199-0.457 2.359 0.5469 5.062 0.8906 2.567 2.6172 4.829 2.8398 4.969l0.6328-0.336s-1.0507-1.859-1.0937-2.035c-0.0469-0.172 1.1875-2.683 1.7815-2.594 0.593 0.082 0.457 0.258 0.824 0.043 0.363-0.215 0.594-1.992 1.004-2.164 0.414-0.176 0.867-0.39 0.824-0.824-0.047-0.434-1.601-1.211-1.738-1.34m9.922-12.722l-1.235-0.4336 0.227 0.6914 1.008-0.2578m-4.617 1.5977c0.136 0 2.878-1.8164 2.605-1.8594s-0.32 0-1.055-0.0859c-0.73-0.086-1.508 1.039-1.691 1.2109-0.18 0.1758-0.121 0.7344 0.141 0.7344m12.582 13.051l0.355-0.457-0.355-0.125-0.262 0.332-0.313 0.457 0.266 0.125 0.309-0.332m1.55 1.504l-0.09-0.668h-0.574l-0.043 0.5-0.531-0.082-0.133-0.543-0.265-0.168-0.313 0.375-0.309-0.082-0.089 0.289 0.355 0.086v2.711l1.254 0.301c-0.031 0.05-0.051 0.093-0.059 0.113-0.089 0.293 0.352 0.422 0.665 0.293 0.113-0.043 0.835-0.324 1.062-0.867 0.32-0.758 0.527-1.852 0.582-2.203l-0.141-0.305-0.886 0.332-0.489-0.082h0.004m-0.445-11.102c-2.023-3.0661-6.887-5.0739-6.887-5.0739l-1.25 0.6562-0.179-0.289-0.442-0.168v0.375l0.399 0.3359-0.266 0.125-1.016 0.0821-2.3 1.25 0.218 1.0039-0.265 0.082-0.129 0.207 0.75 1.1248 0.043 0.379-0.617 0.125v0.75l-0.356 0.082 0.047 0.586-3.012 2.086 0.09 1.164c0.223 0.293 1.945 2.047 1.945 2.047s1.993 0.082 2.434-0.168c0.445-0.25 0.133 0.25 0.266 0.375 0.132 0.125 0.179 1 0.308 1.086 0.137 0.082 0 0.582 0.18 0.75 0.176 0.168 0.176 2.168 0.176 2.168s1.062 1.793 1.062 2.254c0 0.457-0.047 0.414 0.797 0.375 0.84-0.043 1.016-0.375 1.195-0.5 0.176-0.125 0.176-0.418 0.352-0.668 0.18-0.25 0.488-1.207 0.887-1.543 0.398-0.336 1.461-0.586 1.547-1.168 0.089-0.586 0.488-1.043 0.488-1.043l1.91-2.023-0.051 0.273-0.047 1.043 0.578-0.211-0.046-1.125-0.204-0.219 0.028-0.031s-0.133-0.25-0.309-0.25-1.238 0.25-1.418 0.207c-0.176-0.043-0.926-2.043-1.058-2.125-0.137-0.086-0.977-1.461-0.977-1.461s1.949 2.336 2.258 3.254c0.18 0.531 0.855 0.035 1.406-0.523l0.145 0.355 0.351-0.082-0.043-0.418h0.399v0.625l-0.133 0.336-0.047 0.539 0.356 0.336 0.175-0.293 0.575-0.543 0.664-0.332 0.175 0.332 0.09 0.461-0.176 0.5-0.355 0.293-0.176 0.75v0.375l-0.398-0.25-0.043-0.793-0.578 0.043-0.262 0.707 0.398 0.586 0.926 0.125 0.754-0.711 0.086-1.371 0.336-0.445c0.219 0.562 0.375 1.148 0.375 1.695 0 0.598 0.473-0.305 0.242-2.129 0-0.004-0.367-4.34-2.371-6.348zm-8.848 1.797l-2.386-0.082 1.015-0.836h0.532l0.839 0.586v0.332m2.922-0.289v0.375h-1.015l0.086 0.25-0.618 0.082-0.047 0.207-0.441-0.082-0.797-0.164 0.133-0.211 0.133-0.25 0.445-0.461 0.176 0.336 0.664-0.043 0.352-0.375 1.375 0.25-0.446 0.086m0.086-0.543l-0.527 0.082-0.09-0.375 0.664-0.082 0.09-0.379 0.484 0.504-0.621 0.25m2.57 12.969l-0.312 0.254 0.043 0.625h0.398v-0.543l0.356-0.461v-0.957l-0.223-0.043-0.262 1.125m-2.964-1.25s-0.313 0.082 0.043 0.211c0.351 0.125 1.769-2.043 1.769-2.043l-1.195 0.75-0.617 1.082m-2.411 7.996l-0.265-0.254-0.527-0.082-0.09 0.254-0.707-0.086-0.047-0.336h-0.532l-0.574 0.336h-1.015l-0.09-0.25-1.633-0.172-0.266 0.254-0.664-0.168-0.09-0.586-0.308-0.047-0.356 0.633-1.191-0.043c0.215 0.102 1.996 1.164 4.73 1.387 3.625 0.293 5.352-0.586 5.352-0.586l-0.133-0.129z" fill="#78b3a3"/>
  </g>
 </g>
</svg>
