<svg viewBox="0 0 38 38" width="47.5" xmlns="http://www.w3.org/2000/svg" xmlns:xlink="http://www.w3.org/1999/xlink" height="47.5">
 <g fill="#b2a546">
  <path d="m5.5938 4.1719c-0.5508 0-0.9922 0.4375-0.9922 0.9843v27.699c0 0.547 0.4414 0.985 0.9922 0.985h5.6132c0.555 0 0.996-0.438 0.996-0.985v-27.699c0-0.5466-0.441-0.9841-0.996-0.9841zm0.9374 2.7812h3.7418v11.125h-3.7418zm1.8711 16.688c1.0313 0 1.8707 0.832 1.8707 1.855 0 1.024-0.8394 1.856-1.8707 1.856-1.0351 0-1.8711-0.832-1.8711-1.856 0-1.023 0.836-1.855 1.8711-1.855z"/>
  <path d="m14.949 4.1719c-0.551 0-0.992 0.4375-0.992 0.9843v27.699c0 0.547 0.441 0.985 0.992 0.985h3.742c0.555 0 0.997-0.438 0.997-0.985v-27.699c0-0.5466-0.442-0.9841-0.997-0.9841zm0 2.7812h3.742v11.125h-3.742zm1.871 16.688c1.035 0 1.871 0.832 1.871 1.855 0 1.024-0.836 1.856-1.871 1.856-1.031 0-1.871-0.832-1.871-1.856 0-1.023 0.84-1.855 1.871-1.855z"/>
  <path d="m21.297 5.1484c-0.531 0.1446-0.844 0.6797-0.703 1.2071l7.234 26.758c0.145 0.527 0.688 0.835 1.219 0.695l3.613-0.957c0.535-0.145 0.848-0.68 0.703-1.207l-7.234-26.758c-0.141-0.5276-0.684-0.8362-1.215-0.6956zm0.726 2.6875l3.618-0.957 2.902 10.746-3.613 0.961zm6.168 15.641c0.997-0.266 2.024 0.324 2.289 1.312 0.27 0.988-0.324 2.008-1.32 2.27-1 0.265-2.023-0.321-2.293-1.309-0.265-0.988 0.324-2.008 1.324-2.273z"/>
 </g>
</svg>
