<svg viewBox="0 0 38 38" width="47.5" xmlns="http://www.w3.org/2000/svg" xmlns:xlink="http://www.w3.org/1999/xlink" height="47.5">
 <g fill="#ec86ab">
  <path d="m5.8047 4.1562v19.793h1.6484v-19.793z"/>
  <path d="m9.1055 24.773c0 1.364-1.1094 2.473-2.4766 2.473-1.3633 0-2.4727-1.109-2.4727-2.473 0-1.367 1.1094-2.476 2.4727-2.476 1.3672 0 2.4766 1.109 2.4766 2.476z"/>
  <path d="m15.703 33.844v-24.738l-1.652-0.0005v24.738z"/>
  <path d="m12.402 8.2812c0-1.3671 1.11-2.4765 2.473-2.4765 1.367 0 2.477 1.1094 2.477 2.4765 0 1.3633-1.11 2.4728-2.477 2.4728-1.363 0-2.473-1.1095-2.473-2.4728z"/>
  <path d="m22.297 4.1562v18.141h1.652v-18.141z"/>
  <path d="m25.598 23.121c0 1.367-1.11 2.477-2.473 2.477-1.367 0-2.477-1.11-2.477-2.477 0-1.363 1.11-2.473 2.477-2.473 1.363 0 2.473 1.11 2.473 2.473z"/>
  <path d="m32.195 33.844v-13.196h-1.648v13.196z"/>
  <path d="m28.895 19.824c0-1.367 1.109-2.472 2.476-2.472 1.363 0 2.473 1.105 2.473 2.472s-1.11 2.477-2.473 2.477c-1.367 0-2.476-1.11-2.476-2.477z"/>
 </g>
</svg>
