<svg viewBox="0 0 38 38" width="47.5" xmlns="http://www.w3.org/2000/svg" xmlns:xlink="http://www.w3.org/1999/xlink" height="47.5">
 <g fill="#6f8bc0">
  <path d="m28.605 4.1562c-6.226 0-7.394 8.7968-3.89 8.7968 3.5 0 10.113-8.7968 3.89-8.7968z"/>
  <path d="m18.27 11.863c1.863 0.114 3.91-7.0583 0.406-6.6091-3.504 0.4531-2.274 6.4961-0.406 6.6091z"/>
  <path d="m9.7227 16.32c1.3283-0.578 0.1718-6.246-2.0821-4.699-2.2539 1.543 0.7578 5.277 2.0821 4.699z"/>
  <path d="m13.461 13.355c1.578-0.32 1.664-6.7456-1.149-5.5933-2.8159 1.1563-0.429 5.9143 1.149 5.5933z"/>
  <path d="m21.703 27.73c0.281 2.125-1.57 3.172-3.379 1.805-5.765-4.355 9.547-6.527 8.535-12.48-0.836-4.938-16.109-3.418-17.847 4.312-1.18 5.227 4.843 12.477 11.129 12.477 3.093 0 6.66-2.77 7.324-6.278 0.512-2.675-5.996-1.605-5.762 0.164z"/>
 </g>
</svg>
