<svg width="47.5" xmlns="http://www.w3.org/2000/svg" viewBox="0 0 38 38" height="47.5">
 <g fill="#555">
  <path d="m14.895 7.1445c0-0.44922-0.36719-0.8125-0.82031-0.8125-0.44922 0-0.8125 0.36328-0.8125 0.8125v3.0039h1.6328z"/>
  <path d="m13.262 30.848c0 0.44922 0.36328 0.81641 0.8125 0.81641 0.45312 0 0.82031-0.36719 0.82031-0.81641v-3h-1.6328z"/>
  <path d="m19.816 7.1445c0-0.44922-0.36719-0.8125-0.81641-0.8125s-0.8125 0.36328-0.8125 0.8125v3.0039h1.6289z"/>
  <path d="m18.188 30.848c0 0.44922 0.36328 0.81641 0.8125 0.81641s0.81641-0.36719 0.81641-0.81641v-3h-1.6289z"/>
  <path d="m24.742 7.1445c0-0.44922-0.36328-0.8125-0.81641-0.8125-0.44922 0-0.8125 0.36328-0.8125 0.8125v3.0039h1.6289z"/>
  <path d="m23.113 30.848c0 0.44922 0.36328 0.81641 0.81641 0.81641 0.44922 0 0.8125-0.36719 0.8125-0.81641v-3h-1.6289z"/>
  <path d="m7.1484 23.109c-0.44922 0-0.8125 0.36328-0.8125 0.8125s0.36328 0.8125 0.8125 0.8125h3v-1.625z"/>
  <path d="m30.852 24.734c0.45313 0 0.81641-0.36328 0.81641-0.8125s-0.36328-0.8125-0.81641-0.8125h-2.9961v1.625z"/>
  <path d="m7.1484 18.184c-0.44922 0-0.8125 0.36328-0.8125 0.8125s0.36328 0.81641 0.8125 0.81641h3v-1.6289z"/>
  <path d="m30.852 19.812c0.45313 0 0.81641-0.36719 0.81641-0.81641s-0.36328-0.8125-0.81641-0.8125h-2.9961v1.6289z"/>
  <path d="m7.1484 13.258c-0.44922 0-0.8125 0.36328-0.8125 0.8125s0.36328 0.81641 0.8125 0.81641h3v-1.6289z"/>
  <path d="m30.852 14.887c0.45313 0 0.81641-0.36719 0.81641-0.81641s-0.36328-0.8125-0.81641-0.8125h-2.9961v1.6289z"/>
  <path d="m23.613 25.312c0.94141 0 1.7109-0.76562 1.7109-1.7109v-9.2109c0-0.94531-0.76953-1.7109-1.7109-1.7109h-9.2227c-0.94141 0-1.7109 0.76562-1.7109 1.7109v9.2109c0 0.94531 0.76953 1.7109 1.7109 1.7109z"/>
 </g>
</svg>
