<svg xmlns="http://www.w3.org/2000/svg" xmlns:xlink="http://www.w3.org/1999/xlink" viewBox="0 0 48 48">
 <g fill="#c0956e">
  <g transform="translate(0 -1004.4)">
   <path opacity=".8" d="m13 1036.3h-0.000033v0.0007h0.000038 0.000312v0.0001h0.000302v-0.0001h0.000311 0.000037v-0.0007h-0.000037-0.000925-0.000005zm0.000066 0.0001h0.0008v0.0005h-0.0008v-0.0005zm0.000101 0.0007v0.0001h0.0006v-0.0001h-0.0006z"/>
   <path d="m17.086 1012.4c-0.58554 0.062-1.0781 0.6113-1.075 1.2v9.5171c0.000063 0.6283 0.5717 1.1999 1.2 1.2h4.8 3.8457 4.9326c0.6283-0.0001 1.1999-0.5717 1.2-1.2v-9.5171c-0.000062-0.6283-0.5717-1.1999-1.2-1.2h-13.578z"/>
   <path d="m7.075 1032.4c-0.58554 0.062-1.0781 0.6113-1.075 1.2v9.5171c0.000063 0.6283 0.5717 1.1999 1.2 1.2h4.8 3.8457 4.9326c0.6283-0.0001 1.1999-0.5717 1.2-1.2v-9.5171c-0.000062-0.6283-0.5717-1.1999-1.2-1.2h-13.578z"/>
   <path d="m27.075 1032.4c-0.58554 0.062-1.0781 0.6113-1.075 1.2v9.5171c0.000063 0.6283 0.5717 1.1999 1.2 1.2h4.8 3.8457 4.9326c0.6283-0.0001 1.1999-0.5717 1.2-1.2v-9.5171c-0.000062-0.6283-0.5717-1.1999-1.2-1.2h-13.578z"/>
  </g>
  <g transform="translate(0 -1004.4)">
   <path d="m23 21v2h-10v4h2v-2h18v2h2v-4h-10v-2z" transform="translate(0 1004.4)"/>
  </g>
 </g>
</svg>
