<svg width="47.5" xmlns="http://www.w3.org/2000/svg" viewBox="0 0 38 38" height="47.5">
 <g fill="#555">
  <path d="m31.668 16.441v5.1172c0 0.33594-0.35938 0.60938-0.79688 0.60938h-4.7422c-0.44141 0-0.79688-0.27344-0.79688-0.60938v-5.1172c0-0.33594 0.35547-0.60938 0.79688-0.60938h4.7422c0.4375 0 0.79688 0.27344 0.79688 0.60938z"/>
  <path d="m22.168 16.441v5.1172c0 0.33594-0.35938 0.60938-0.79688 0.60938h-4.7422c-0.44141 0-0.79688-0.27344-0.79688-0.60938v-5.1172c0-0.33594 0.35547-0.60938 0.79688-0.60938h4.7422c0.4375 0 0.79688 0.27344 0.79688 0.60938z"/>
  <path d="m12.668 16.441v5.1172c0 0.33594-0.35938 0.60938-0.79688 0.60938h-4.7422c-0.44141 0-0.79688-0.27344-0.79688-0.60938v-5.1172c0-0.33594 0.35547-0.60938 0.79688-0.60938h4.7422c0.4375 0 0.79688 0.27344 0.79688 0.60938z"/>
 </g>
</svg>
