<svg viewBox="0 0 38 38" width="47.5" xmlns="http://www.w3.org/2000/svg" xmlns:xlink="http://www.w3.org/1999/xlink" height="47.5">
 <path d="m123.92-160.47c-41.946 2.15-75.315 37.42-75.315 80.496 0 44.474 35.553 80.527 79.395 80.527 43.84-0.00037 79.39-36.053 79.39-80.527 0-44.476-35.55-80.496-79.39-80.496-1.37 0-2.74-0.08-4.08 0z" transform="matrix(.14844 0 0 .14844 0 30.875)" stroke="#4aa6c6" stroke-width="17.397" fill="none"/>
 <g fill="#4aa6c6">
  <path d="m17.328 4.1562h3.344c0.191 0 0.344 0.2813 0.344 0.629v1.914c0 0.3477-0.153 0.6289-0.344 0.6289h-3.344c-0.191 0-0.344-0.2812-0.344-0.6289v-1.914c0-0.3477 0.153-0.629 0.344-0.629z"/>
  <path d="m17.328 30.672h3.344c0.191 0 0.344 0.281 0.344 0.629v1.914c0 0.347-0.153 0.629-0.344 0.629h-3.344c-0.191 0-0.344-0.282-0.344-0.629v-1.914c0-0.348 0.153-0.629 0.344-0.629z"/>
  <path d="m21.754 19.004c0 1.437-1.234 2.605-2.754 2.605s-2.754-1.168-2.754-2.605c0-1.442 1.234-2.609 2.754-2.609s2.754 1.167 2.754 2.609z"/>
  <path d="m33.844 17.355v3.297c0 0.188-0.297 0.34-0.664 0.34h-2.024c-0.367 0-0.664-0.152-0.664-0.34v-3.297c0-0.191 0.297-0.339 0.664-0.339h2.024c0.367 0 0.664 0.148 0.664 0.339z"/>
  <path d="m7.5078 17.355v3.297c0 0.188-0.2969 0.34-0.664 0.34h-2.0235c-0.3672 0-0.6641-0.152-0.6641-0.34v-3.297c0-0.191 0.2969-0.339 0.6641-0.339h2.0235c0.3671 0 0.664 0.148 0.664 0.339z"/>
  <path d="m28.902 7.3828l2.368 2.2422c0.136 0.125 0.035 0.426-0.227 0.672l-1.43 1.355c-0.258 0.246-0.578 0.34-0.711 0.215l-2.367-2.242c-0.133-0.125-0.035-0.4258 0.227-0.6719l1.429-1.3554c0.262-0.2461 0.579-0.3399 0.711-0.2149z"/>
  <path d="m9.0977 26.133l2.3673 2.242c0.133 0.125 0.035 0.426-0.227 0.672l-1.4294 1.355c-0.2617 0.246-0.5781 0.34-0.7109 0.215l-2.3672-2.242c-0.1367-0.125-0.0352-0.426 0.2265-0.672l1.4297-1.355c0.2578-0.246 0.5781-0.34 0.711-0.215z"/>
  <path d="m31.27 28.375l-2.368 2.242c-0.132 0.125-0.449 0.031-0.711-0.215l-1.429-1.355c-0.262-0.246-0.36-0.547-0.227-0.672l2.367-2.242c0.133-0.125 0.453-0.031 0.711 0.215l1.43 1.355c0.262 0.246 0.363 0.547 0.227 0.672z"/>
  <path d="m11.465 9.625l-2.3673 2.242c-0.1329 0.125-0.4532 0.031-0.711-0.215l-1.4297-1.355c-0.2617-0.246-0.3632-0.547-0.2265-0.672l2.3672-2.2422c0.1328-0.125 0.4492-0.0312 0.7109 0.2149l1.4294 1.3554c0.262 0.2461 0.36 0.5469 0.227 0.6719z"/>
 </g>
</svg>
