<svg viewBox="0 0 38 38" width="47.5" xmlns="http://www.w3.org/2000/svg" xmlns:xlink="http://www.w3.org/1999/xlink" height="47.5">
 <path d="m20.047 24.895c-0.074-2.692 0.531-5.305 3.098-7.161 2.707-2.093 5.312-4.714 5.039-7.8004-0.063-2.9805-3.559-5.3164-7.325-5.6524-4.238-0.582-9.367 0.8594-10.789 4.1446-0.7184 1.5972-0.05 4.4652 2.368 4.4652 1.414 0 2.062-0.907 2.167-1.735 0.083-0.629-0.179-1.1872-0.332-1.7068-0.175-0.5898 0.571-1.7344 1.383-2.2031 0.68-0.3867 1.391-0.5195 1.492-0.543 2.438-0.582 4.868 0.7031 5.879 2.2657 1.016 1.5622-0.101 3.9292-1.703 6.2382-1.605 2.305-3.324 4.922-3.32 7.703 0 1.059-0.094 1.418-0.027 1.844 0.054 0.344 1.195 0.301 2.07 0.141zm-1.113 3.625c-2.329-0.125-3.942 2.496-2.543 4.168 1.25 1.843 4.757 1.386 5.355-0.7 0.625-1.625-0.875-3.496-2.812-3.468z" fill="#9dc7cf"/>
</svg>
